<?xml version="1.0" encoding="UTF-8" standalone="no"?>
<!-- Created with Inkscape (http://www.inkscape.org/) -->

<svg
   xmlns:dc="http://purl.org/dc/elements/1.1/"
   xmlns:cc="http://creativecommons.org/ns#"
   xmlns:rdf="http://www.w3.org/1999/02/22-rdf-syntax-ns#"
   xmlns:svg="http://www.w3.org/2000/svg"
   xmlns="http://www.w3.org/2000/svg"
   xmlns:sodipodi="http://sodipodi.sourceforge.net/DTD/sodipodi-0.dtd"
   xmlns:inkscape="http://www.inkscape.org/namespaces/inkscape"
   id="svg2"
   version="1.1"
   inkscape:version="0.48.4 r9939"
   width="64"
   height="64"
   sodipodi:docname="applications-ruby.svg">
  <metadata
     id="metadata8">
    <rdf:RDF>
      <cc:Work
         rdf:about="">
        <dc:format>image/svg+xml</dc:format>
        <dc:type
           rdf:resource="http://purl.org/dc/dcmitype/StillImage" />
        <dc:title></dc:title>
      </cc:Work>
    </rdf:RDF>
  </metadata>
  <defs
     id="defs6" />
  <sodipodi:namedview
     pagecolor="#ffffff"
     bordercolor="#666666"
     borderopacity="1"
     objecttolerance="10"
     gridtolerance="10"
     guidetolerance="10"
     inkscape:pageopacity="0"
     inkscape:pageshadow="2"
     inkscape:window-width="1316"
     inkscape:window-height="674"
     id="namedview4"
     showgrid="false"
     inkscape:zoom="3.6875"
     inkscape:cx="-15.186441"
     inkscape:cy="32"
     inkscape:window-x="44"
     inkscape:window-y="29"
     inkscape:window-maximized="1"
     inkscape:current-layer="svg2" />
  <rect
     style="fill:#ffffff;fill-opacity:1;stroke:#000000;stroke-width:0.53665989999999997;stroke-linecap:round;stroke-linejoin:round;stroke-miterlimit:4;stroke-opacity:1;stroke-dasharray:none"
     id="rect3005"
     width="59.081985"
     height="59.624359"
     x="2.4590092"
     y="2.1878221"
     ry="5.9392786"
     rx="5.9392786" />
  <g
     id="g4992"
     transform="matrix(1.3574731,0,0,1.4237288,10.687211,9.7627122)">
    <g
       id="icomoon-ignore" />
    <path
       id="path4984"
       d="M 24,0 H 8 C 6.342,0 5,1.343 5,3 v 26 c 0,1.658 1.343,3 3,3 h 16 c 1.656,0 3,-1.344 3,-3 V 3 C 27,1.342 25.656,0 24,0 z m 1,29 c 0,0.551 -0.449,1 -1,1 H 8 C 7.448,30 7,29.553 7,29 V 26.996 H 25 V 29 z m 0,-3.004 H 7 V 6 H 25 V 25.996 z M 25,5 H 7 V 3 C 7,2.448 7.448,2 8,2 h 16 c 0.551,0 1,0.448 1,1 V 5 z M 18,3.5 C 18,3.776 17.775,4 17.5,4 h -3 C 14.223,4 14,3.776 14,3.5 v 0 C 14,3.223 14.223,3 14.5,3 h 3 C 17.775,3 18,3.223 18,3.5 v 0 z m -1,24.996 c 0,0.275 -0.225,0.5 -0.5,0.5 h -1 c -0.276,0 -0.5,-0.225 -0.5,-0.5 v 0 c 0,-0.277 0.224,-0.5 0.5,-0.5 h 1 c 0.275,0 0.5,0.223 0.5,0.5 v 0 z"
       inkscape:connector-curvature="0"
       style="fill:#000000" />
  </g>
</svg>
