<?xml version="1.0" encoding="UTF-8" standalone="no"?>
<!-- Created with Inkscape (http://www.inkscape.org/) -->

<svg
   xmlns:dc="http://purl.org/dc/elements/1.1/"
   xmlns:cc="http://creativecommons.org/ns#"
   xmlns:rdf="http://www.w3.org/1999/02/22-rdf-syntax-ns#"
   xmlns:svg="http://www.w3.org/2000/svg"
   xmlns="http://www.w3.org/2000/svg"
   xmlns:sodipodi="http://sodipodi.sourceforge.net/DTD/sodipodi-0.dtd"
   xmlns:inkscape="http://www.inkscape.org/namespaces/inkscape"
   id="svg2"
   version="1.1"
   inkscape:version="0.48.4 r9939"
   width="64"
   height="64"
   sodipodi:docname="applications-science.svg">
  <metadata
     id="metadata8">
    <rdf:RDF>
      <cc:Work
         rdf:about="">
        <dc:format>image/svg+xml</dc:format>
        <dc:type
           rdf:resource="http://purl.org/dc/dcmitype/StillImage" />
        <dc:title></dc:title>
      </cc:Work>
    </rdf:RDF>
  </metadata>
  <defs
     id="defs6" />
  <sodipodi:namedview
     pagecolor="#ffffff"
     bordercolor="#666666"
     borderopacity="1"
     objecttolerance="10"
     gridtolerance="10"
     guidetolerance="10"
     inkscape:pageopacity="0"
     inkscape:pageshadow="2"
     inkscape:window-width="1316"
     inkscape:window-height="674"
     id="namedview4"
     showgrid="false"
     inkscape:zoom="3.6875"
     inkscape:cx="-15.186441"
     inkscape:cy="32"
     inkscape:window-x="44"
     inkscape:window-y="29"
     inkscape:window-maximized="1"
     inkscape:current-layer="svg2" />
  <rect
     style="fill:#ffffff;fill-opacity:1;stroke:#000000;stroke-width:0.53665989999999997;stroke-linecap:round;stroke-linejoin:round;stroke-miterlimit:4;stroke-opacity:1;stroke-dasharray:none"
     id="rect3005"
     width="59.081985"
     height="59.624359"
     x="2.4590092"
     y="2.1878221"
     ry="5.9392786"
     rx="5.9392786" />
  <g
     id="g4213"
     transform="matrix(1.4322022,0,0,1.8138984,8.6779455,3.2397418)">
    <g
       id="icomoon-ignore" />
    <path
       id="path4205"
       d="M 31.414,9.677 26.334,4.596 C 25.959,4.221 25.449,4.01 24.92,4.01 H 7.081 c -0.53,0 -1.039,0.211 -1.414,0.586 L 0.587,9.677 C 0.194,10.069 -0.002,10.586 0,11.104 c 0.003,0.47 0.171,0.939 0.506,1.316 L 14.505,27.328 C 14.885,27.756 15.429,28 16,28 c 0.571,0 1.115,-0.244 1.494,-0.672 l 14,-14.908 C 31.836,12.035 32.004,11.553 32,11.072 31.996,10.566 31.799,10.062 31.414,9.677 z M 18.219,11.01 H 13.78 L 16,9.161 18.219,11.01 z M 16.782,8.51 19.514,6.232 21.532,8.25 19,10.359 16.782,8.51 z M 13,10.359 10.468,8.25 12.486,6.232 15.219,8.51 13,10.359 z M 18.49,12.01 16,24.463 13.51,12.01 h 4.98 z m 1.02,0 h 4.906 L 17.057,24.279 19.51,12.01 z m 0.269,-1 2.463,-2.051 2.051,2.051 h -4.514 z m 0.928,-5 h 3.512 L 22.303,7.607 20.707,6.01 z M 16,7.86 13.78,6.01 h 4.438 L 16,7.86 z M 9.696,7.607 7.78,6.01 h 3.513 L 9.696,7.607 z M 9.758,8.959 12.22,11.01 H 7.707 L 9.758,8.959 z M 12.49,12.01 14.943,24.279 7.583,12.01 H 12.49 z M 12.704,22.488 2.864,12.01 h 3.554 l 6.286,10.478 z M 25.582,12.01 h 3.555 l -9.842,10.48 6.287,-10.48 z m 0.125,-1 -2.693,-2.693 2.297,-1.915 4.607,4.608 H 25.707 z M 6.686,6.4 8.987,8.317 6.293,11.01 H 2.006 L 6.686,6.4 z"
       inkscape:connector-curvature="0"
       style="fill:#000000" />
  </g>
</svg>
