<?xml version="1.0" encoding="UTF-8" standalone="no"?>
<!-- Created with Inkscape (http://www.inkscape.org/) -->

<svg
   xmlns:dc="http://purl.org/dc/elements/1.1/"
   xmlns:cc="http://creativecommons.org/ns#"
   xmlns:rdf="http://www.w3.org/1999/02/22-rdf-syntax-ns#"
   xmlns:svg="http://www.w3.org/2000/svg"
   xmlns="http://www.w3.org/2000/svg"
   xmlns:sodipodi="http://sodipodi.sourceforge.net/DTD/sodipodi-0.dtd"
   xmlns:inkscape="http://www.inkscape.org/namespaces/inkscape"
   id="svg2"
   version="1.1"
   inkscape:version="0.48.4 r9939"
   width="64"
   height="64"
   sodipodi:docname="applications-education.svg">
  <metadata
     id="metadata8">
    <rdf:RDF>
      <cc:Work
         rdf:about="">
        <dc:format>image/svg+xml</dc:format>
        <dc:type
           rdf:resource="http://purl.org/dc/dcmitype/StillImage" />
        <dc:title></dc:title>
      </cc:Work>
    </rdf:RDF>
  </metadata>
  <defs
     id="defs6" />
  <sodipodi:namedview
     pagecolor="#ffffff"
     bordercolor="#666666"
     borderopacity="1"
     objecttolerance="10"
     gridtolerance="10"
     guidetolerance="10"
     inkscape:pageopacity="0"
     inkscape:pageshadow="2"
     inkscape:window-width="1316"
     inkscape:window-height="674"
     id="namedview4"
     showgrid="false"
     inkscape:zoom="3.6875"
     inkscape:cx="-15.186441"
     inkscape:cy="32"
     inkscape:window-x="44"
     inkscape:window-y="29"
     inkscape:window-maximized="1"
     inkscape:current-layer="svg2" />
  <rect
     style="fill:#ffffff;fill-opacity:1;stroke:#000000;stroke-width:0.53665989999999997;stroke-linecap:round;stroke-linejoin:round;stroke-miterlimit:4;stroke-opacity:1;stroke-dasharray:none"
     id="rect3005"
     width="59.081985"
     height="59.624359"
     x="2.4590092"
     y="2.1878221"
     ry="5.9392786"
     rx="5.9392786" />
  <g
     id="g3612"
     transform="matrix(1.4939467,0,0,1.3728814,7.9612587,10.033898)">
    <g
       id="icomoon-ignore" />
    <path
       id="path3604"
       d="M 16,0 C 9.256,0 2,2.033 2,6.5 v 19 c 0,4.465 7.256,6.5 14,6.5 6.744,0 14,-2.035 14,-6.5 V 6.5 C 30,2.033 22.742,0 16,0 z M 28,25.5 C 28,27.984 22.627,30 16,30 9.372,30 4,27.984 4,25.5 V 21.764 C 6.066,23.893 11.05,25 16,25 c 4.95,0 9.934,-1.107 12,-3.236 V 25.5 z m 0,-6 H 27.996 C 27.996,19.51 28,19.521 28,19.531 28,22 22.627,24 16,24 9.373,24 4,22 4,19.531 4,19.521 4.004,19.51 4.004,19.5 H 4 V 15.764 C 6.066,17.893 11.05,19 16,19 c 4.95,0 9.934,-1.107 12,-3.236 V 19.5 z m 0,-6 H 27.996 C 27.996,13.51 28,13.521 28,13.531 28,16 22.627,18 16,18 9.373,18 4,16 4,13.531 4,13.521 4.004,13.51 4.004,13.5 H 4 V 10.064 C 6.621,12.061 11.425,13 16,13 c 4.575,0 9.379,-0.939 12,-2.936 V 13.5 z M 16,11 C 9.372,11 4,8.984 4,6.5 4,4.014 9.372,2 16,2 22.627,2 28,4.014 28,6.5 28,8.984 22.627,11 16,11 z m 8,15 c 0,-0.552 0.448,-1 1,-1 0.552,0 1,0.448 1,1 0,0.552 -0.448,1 -1,1 -0.552,0 -1,-0.448 -1,-1 z m 0,-6 c 0,-0.552 0.448,-1 1,-1 0.552,0 1,0.448 1,1 0,0.552 -0.448,1 -1,1 -0.552,0 -1,-0.448 -1,-1 z m 0,-6 c 0,-0.552 0.448,-1 1,-1 0.552,0 1,0.448 1,1 0,0.552 -0.448,1 -1,1 -0.552,0 -1,-0.448 -1,-1 z"
       inkscape:connector-curvature="0"
       style="fill:#000000" />
  </g>
</svg>
