<?xml version="1.0" encoding="UTF-8" standalone="no"?>
<!-- Created with Inkscape (http://www.inkscape.org/) -->

<svg
   xmlns:dc="http://purl.org/dc/elements/1.1/"
   xmlns:cc="http://creativecommons.org/ns#"
   xmlns:rdf="http://www.w3.org/1999/02/22-rdf-syntax-ns#"
   xmlns:svg="http://www.w3.org/2000/svg"
   xmlns="http://www.w3.org/2000/svg"
   xmlns:sodipodi="http://sodipodi.sourceforge.net/DTD/sodipodi-0.dtd"
   xmlns:inkscape="http://www.inkscape.org/namespaces/inkscape"
   id="svg2"
   version="1.1"
   inkscape:version="0.48.4 r9939"
   width="64"
   height="64"
   sodipodi:docname="applications-internet.svg">
  <metadata
     id="metadata8">
    <rdf:RDF>
      <cc:Work
         rdf:about="">
        <dc:format>image/svg+xml</dc:format>
        <dc:type
           rdf:resource="http://purl.org/dc/dcmitype/StillImage" />
        <dc:title></dc:title>
      </cc:Work>
    </rdf:RDF>
  </metadata>
  <defs
     id="defs6" />
  <sodipodi:namedview
     pagecolor="#ffffff"
     bordercolor="#666666"
     borderopacity="1"
     objecttolerance="10"
     gridtolerance="10"
     guidetolerance="10"
     inkscape:pageopacity="0"
     inkscape:pageshadow="2"
     inkscape:window-width="1316"
     inkscape:window-height="674"
     id="namedview4"
     showgrid="false"
     inkscape:zoom="3.6875"
     inkscape:cx="-15.186441"
     inkscape:cy="32"
     inkscape:window-x="44"
     inkscape:window-y="29"
     inkscape:window-maximized="1"
     inkscape:current-layer="svg2" />
  <rect
     style="fill:#ffffff;fill-opacity:1;stroke:#000000;stroke-width:0.53665989999999997;stroke-linecap:round;stroke-linejoin:round;stroke-miterlimit:4;stroke-opacity:1;stroke-dasharray:none"
     id="rect3005"
     width="59.081985"
     height="59.624359"
     x="2.4590092"
     y="2.1878221"
     ry="5.9392786"
     rx="5.9392786" />
  <g
     id="g4309"
     transform="matrix(1.4830636,0,0,1.5084746,8.6783868,8.1355932)">
    <g
       id="icomoon-ignore" />
    <path
       id="path4301"
       d="M 29.395,2.58 C 27.75,0.937 25.584,0 23.449,0 21.648,0 19.99,0.668 18.779,1.877 L 13.912,6.781 C 13.897,6.795 13.88,6.804 13.865,6.819 13.857,6.827 13.852,6.838 13.844,6.845 L 13.846,6.847 3.517,17.256 C 3.041,17.729 2.696,18.318 2.504,18.961 L 0.155,27.469 C 0.153,27.492 0,28.16 0,28.5 0,30.432 1.569,32 3.504,32 c 0.385,0 1.13,-0.184 1.157,-0.188 l 8.478,-2.229 c 0.644,-0.191 1.229,-0.539 1.705,-1.016 L 30.107,13.184 C 32.883,10.406 32.57,5.75 29.395,2.58 z M 16.014,23.795 c -0.082,-0.902 -0.337,-1.787 -0.719,-2.627 l 9.455,-9.454 c 0.578,1.826 0.281,3.736 -0.986,5.004 -0.008,0.008 -0.018,0.013 -0.025,0.021 l 0.014,0.013 -7.728,7.79 c 0,-0.249 0.012,-0.493 -0.011,-0.747 z M 14.793,20.256 C 14.42,19.643 13.996,19.051 13.471,18.527 12.86,17.916 12.159,17.437 11.427,17.035 l 9.532,-9.532 c 0.748,0.332 1.465,0.805 2.098,1.438 0.541,0.539 0.959,1.143 1.281,1.771 l -9.545,9.544 z M 10.486,16.562 C 9.56,16.189 8.59,15.976 7.618,15.963 L 15.321,8.201 C 16.5,7.051 18.217,6.72 19.908,7.139 l -9.422,9.423 z M 4.167,29.873 C 4.058,29.898 3.719,29.984 3.489,30 2.667,29.99 2,29.322 2,28.5 2.012,28.332 2.079,28.043 2.102,27.938 l 1.053,-3.814 c 1.143,-0.031 2.373,0.414 3.34,1.383 0.982,0.98 1.444,2.234 1.394,3.391 L 4.167,29.873 z M 8.874,28.637 C 8.85,27.295 8.304,25.899 7.202,24.799 6.16,23.756 4.796,23.154 3.436,23.1 l 0.996,-3.607 c 0.072,-0.24 0.215,-0.477 0.391,-0.684 2.006,-1.436 5.091,-1.012 7.234,1.133 2.267,2.266 2.617,5.586 0.871,7.568 -0.116,0.061 -0.233,0.119 -0.359,0.156 l -3.695,0.971 z m 19.817,-16.865 -1.684,1.697 c 0,-0.226 0.027,-0.443 0.006,-0.674 C 26.837,10.86 25.935,8.989 24.47,7.526 22.841,5.896 20.681,4.961 18.542,4.955 l 1.656,-1.67 C 21.027,2.458 22.184,2 23.449,2 c 1.609,0 3.262,0.728 4.533,1.995 1.193,1.191 1.904,2.671 2.006,4.168 0.094,1.397 -0.367,2.678 -1.297,3.609 z"
       inkscape:connector-curvature="0"
       style="fill:#000000" />
  </g>
</svg>
