<?xml version="1.0" encoding="UTF-8" standalone="no"?>
<!-- Created with Inkscape (http://www.inkscape.org/) -->

<svg
   xmlns:dc="http://purl.org/dc/elements/1.1/"
   xmlns:cc="http://creativecommons.org/ns#"
   xmlns:rdf="http://www.w3.org/1999/02/22-rdf-syntax-ns#"
   xmlns:svg="http://www.w3.org/2000/svg"
   xmlns="http://www.w3.org/2000/svg"
   xmlns:sodipodi="http://sodipodi.sourceforge.net/DTD/sodipodi-0.dtd"
   xmlns:inkscape="http://www.inkscape.org/namespaces/inkscape"
   id="svg2"
   version="1.1"
   inkscape:version="0.48.4 r9939"
   width="64"
   height="64"
   sodipodi:docname="applications-graphics.svg">
  <metadata
     id="metadata8">
    <rdf:RDF>
      <cc:Work
         rdf:about="">
        <dc:format>image/svg+xml</dc:format>
        <dc:type
           rdf:resource="http://purl.org/dc/dcmitype/StillImage" />
        <dc:title></dc:title>
      </cc:Work>
    </rdf:RDF>
  </metadata>
  <defs
     id="defs6" />
  <sodipodi:namedview
     pagecolor="#ffffff"
     bordercolor="#666666"
     borderopacity="1"
     objecttolerance="10"
     gridtolerance="10"
     guidetolerance="10"
     inkscape:pageopacity="0"
     inkscape:pageshadow="2"
     inkscape:window-width="1316"
     inkscape:window-height="674"
     id="namedview4"
     showgrid="false"
     inkscape:zoom="3.6875"
     inkscape:cx="-15.186441"
     inkscape:cy="32"
     inkscape:window-x="44"
     inkscape:window-y="29"
     inkscape:window-maximized="1"
     inkscape:current-layer="svg2" />
  <rect
     style="fill:#ffffff;fill-opacity:1;stroke:#000000;stroke-width:0.53665989999999997;stroke-linecap:round;stroke-linejoin:round;stroke-miterlimit:4;stroke-opacity:1;stroke-dasharray:none"
     id="rect3005"
     width="59.081985"
     height="59.624359"
     x="2.4590092"
     y="2.1878221"
     ry="5.9392786"
     rx="5.9392786" />
  <g
     id="g4450"
     transform="matrix(1.5254114,0,0,1.6732731,7.5939891,3.8479942)">
    <g
       id="icomoon-ignore" />
    <path
       id="path4442"
       d="m 29.363,4.637 c 3.516,3.514 3.516,9.213 0,12.727 L 18.396,28.332 c -0.391,0.392 -1.023,0.392 -1.414,0 -0.393,-0.391 -0.393,-1.022 0,-1.414 L 27.808,16.091 c 2.734,-2.734 2.734,-7.164 -0.002,-9.899 -2.73,-2.734 -7.164,-2.734 -9.898,0 L 3.461,20.469 c -1.953,1.952 -1.953,5.118 0,7.07 1.953,1.953 5.117,1.953 7.07,0 l 14.59,-14.417 c 1.17,-1.17 1.17,-3.073 0,-4.243 -1.17,-1.17 -3.072,-1.169 -4.242,0 L 9.91,19.848 c -0.391,0.391 -1.023,0.391 -1.414,0 -0.391,-0.392 -0.391,-1.023 0,-1.415 L 19.464,7.465 c 1.951,-1.952 5.117,-1.952 7.07,0 1.953,1.952 1.953,5.118 0,7.071 l -14.59,14.418 c -2.728,2.729 -7.169,2.729 -9.898,0 -2.729,-2.729 -2.729,-7.171 0,-9.9 L 16.636,4.637 c 3.514,-3.516 9.213,-3.516 12.727,0 z"
       inkscape:connector-curvature="0"
       style="fill:#000000" />
  </g>
</svg>
