<?xml version="1.0" encoding="UTF-8" standalone="no"?>
<!-- Created with Inkscape (http://www.inkscape.org/) -->

<svg
   xmlns:dc="http://purl.org/dc/elements/1.1/"
   xmlns:cc="http://creativecommons.org/ns#"
   xmlns:rdf="http://www.w3.org/1999/02/22-rdf-syntax-ns#"
   xmlns:svg="http://www.w3.org/2000/svg"
   xmlns="http://www.w3.org/2000/svg"
   xmlns:sodipodi="http://sodipodi.sourceforge.net/DTD/sodipodi-0.dtd"
   xmlns:inkscape="http://www.inkscape.org/namespaces/inkscape"
   id="svg2"
   version="1.1"
   inkscape:version="0.48.4 r9939"
   width="64"
   height="64"
   sodipodi:docname="applications-other.svg">
  <metadata
     id="metadata8">
    <rdf:RDF>
      <cc:Work
         rdf:about="">
        <dc:format>image/svg+xml</dc:format>
        <dc:type
           rdf:resource="http://purl.org/dc/dcmitype/StillImage" />
        <dc:title />
      </cc:Work>
    </rdf:RDF>
  </metadata>
  <defs
     id="defs6" />
  <sodipodi:namedview
     pagecolor="#ffffff"
     bordercolor="#666666"
     borderopacity="1"
     objecttolerance="10"
     gridtolerance="10"
     guidetolerance="10"
     inkscape:pageopacity="0"
     inkscape:pageshadow="2"
     inkscape:window-width="1316"
     inkscape:window-height="674"
     id="namedview4"
     showgrid="false"
     inkscape:zoom="3.6875"
     inkscape:cx="-15.186441"
     inkscape:cy="32"
     inkscape:window-x="44"
     inkscape:window-y="29"
     inkscape:window-maximized="1"
     inkscape:current-layer="svg2" />
  <rect
     style="fill:#ffffff;fill-opacity:1;stroke:#000000;stroke-width:0.53665989999999997;stroke-linecap:round;stroke-linejoin:round;stroke-miterlimit:4;stroke-opacity:1;stroke-dasharray:none"
     id="rect3005"
     width="59.081985"
     height="59.624359"
     x="2.4590092"
     y="2.1878221"
     ry="5.9392786"
     rx="5.9392786" />
  <g
     id="g3658"
     transform="matrix(1.4661017,0,0,1.3728814,9.4915252,9.6229997)">
    <g
       id="icomoon-ignore" />
    <path
       id="path3650"
       d="m 31.391,13.883 -5,-8 C 25.661,4.714 24.379,4.003 23,4.003 H 4 c -2.209,0 -4,1.791 -4,4 v 16 c 0,2.209 1.791,4 4,4 h 19 c 1.379,0 2.66,-0.711 3.391,-1.881 l 5,-8 c 0.812,-1.295 0.812,-2.942 0,-4.239 z m -1.696,3.179 -5,8.002 C 24.328,25.652 23.693,26.003 23,26.003 H 4 c -1.103,0 -2,-0.898 -2,-2 v -16 c 0,-1.103 0.897,-2 2,-2 h 19 c 0.693,0 1.328,0.352 1.695,0.939 l 5,8 c 0.403,0.645 0.403,1.477 0,2.12 z M 23,13.003 c -1.658,0 -3,1.343 -3,3 0,1.657 1.342,3 3,3 1.656,0 3,-1.344 3,-3 0,-1.657 -1.344,-3 -3,-3 z m 0,5.001 c -1.105,0 -2,-0.896 -2,-2 0,-1.104 0.895,-2 2,-2 1.104,0 2,0.896 2,2 0,1.104 -0.896,2 -2,2 z"
       inkscape:connector-curvature="0"
       style="fill:#000000" />
  </g>
</svg>
