<?xml version="1.0" encoding="UTF-8" standalone="no"?>
<!-- Created with Inkscape (http://www.inkscape.org/) -->

<svg
   xmlns:dc="http://purl.org/dc/elements/1.1/"
   xmlns:cc="http://creativecommons.org/ns#"
   xmlns:rdf="http://www.w3.org/1999/02/22-rdf-syntax-ns#"
   xmlns:svg="http://www.w3.org/2000/svg"
   xmlns="http://www.w3.org/2000/svg"
   xmlns:sodipodi="http://sodipodi.sourceforge.net/DTD/sodipodi-0.dtd"
   xmlns:inkscape="http://www.inkscape.org/namespaces/inkscape"
   id="svg2"
   version="1.1"
   inkscape:version="0.48.4 r9939"
   width="64"
   height="64"
   sodipodi:docname="applications-education.svg">
  <metadata
     id="metadata8">
    <rdf:RDF>
      <cc:Work
         rdf:about="">
        <dc:format>image/svg+xml</dc:format>
        <dc:type
           rdf:resource="http://purl.org/dc/dcmitype/StillImage" />
        <dc:title></dc:title>
      </cc:Work>
    </rdf:RDF>
  </metadata>
  <defs
     id="defs6" />
  <sodipodi:namedview
     pagecolor="#ffffff"
     bordercolor="#666666"
     borderopacity="1"
     objecttolerance="10"
     gridtolerance="10"
     guidetolerance="10"
     inkscape:pageopacity="0"
     inkscape:pageshadow="2"
     inkscape:window-width="1316"
     inkscape:window-height="674"
     id="namedview4"
     showgrid="false"
     inkscape:zoom="3.6875"
     inkscape:cx="-15.186441"
     inkscape:cy="32"
     inkscape:window-x="44"
     inkscape:window-y="29"
     inkscape:window-maximized="1"
     inkscape:current-layer="svg2" />
  <rect
     style="fill:#ffffff;fill-opacity:1;stroke:#000000;stroke-width:0.53665989999999997;stroke-linecap:round;stroke-linejoin:round;stroke-miterlimit:4;stroke-opacity:1;stroke-dasharray:none"
     id="rect3005"
     width="59.081985"
     height="59.624359"
     x="2.4590092"
     y="2.1878221"
     ry="5.9392786"
     rx="5.9392786" />
  <g
     id="g3430"
     transform="matrix(1.3559322,0,0,1.5520581,10.305084,8.6585956)">
    <g
       id="icomoon-ignore" />
    <path
       id="path3422"
       d="M 32,8 C 32,6.594 31.043,5.392 29.674,5.076 L 16.661,2.073 C 16.443,2.024 16.221,2 16,2 15.779,2 15.557,2.024 15.325,2.076 l -12.999,3 C 0.956,5.392 0,6.594 0,8 0,9.406 0.957,10.608 2.325,10.924 L 5,11.541 V 20 c 0,2.654 3.038,5 11,5 7.962,0 11,-2.346 11,-5 v -8.459 l 2.674,-0.617 C 31.043,10.608 32,9.406 32,8 z m -7,12 c 0,1.105 -3,3 -9,3 -6,0 -9,-1.895 -9,-3 v -7.997 l 8.338,1.924 C 15.556,13.976 15.779,14 16,14 c 0.221,0 0.444,-0.024 0.674,-0.076 L 25,12.003 V 20 z M 16.225,11.975 C 16.15,11.991 16.075,12 16,12 15.925,12 15.849,11.991 15.775,11.975 l -13,-3 C 2.321,8.87 2,8.466 2,8 2,7.534 2.321,7.13 2.775,7.025 l 13,-3 C 15.849,4.009 15.924,4 16,4 c 0.076,0 0.151,0.009 0.225,0.025 l 13,3 C 29.678,7.13 30,7.534 30,8 30,8.466 29.678,8.87 29.225,8.975 l -13,3 z M 29,13 c 0,-0.553 0.447,-1 1,-1 0.552,0 1,0.447 1,1 v 9 c 0,0.553 -0.448,1 -1,1 -0.553,0 -1,-0.447 -1,-1 v -9 z m 1,11 c 1.104,0 2,2.896 2,4 0,1.104 -0.896,2 -2,2 -1.105,0 -2,-0.896 -2,-2 0,-1.104 0.895,-4 2,-4 z"
       inkscape:connector-curvature="0"
       style="fill:#000000" />
  </g>
</svg>
