<?xml version="1.0" encoding="UTF-8" standalone="no"?>
<!-- Created using Karbon, part of Calligra: http://www.calligra.org/karbon -->

<svg
   xmlns:dc="http://purl.org/dc/elements/1.1/"
   xmlns:cc="http://creativecommons.org/ns#"
   xmlns:rdf="http://www.w3.org/1999/02/22-rdf-syntax-ns#"
   xmlns:svg="http://www.w3.org/2000/svg"
   xmlns="http://www.w3.org/2000/svg"
   xmlns:sodipodi="http://sodipodi.sourceforge.net/DTD/sodipodi-0.dtd"
   xmlns:inkscape="http://www.inkscape.org/namespaces/inkscape"
   width="38.4pt"
   height="38.4pt"
   id="svg2"
   version="1.1"
   inkscape:version="0.48.4 r9939"
   sodipodi:docname="computer.svg">
  <metadata
     id="metadata14">
    <rdf:RDF>
      <cc:Work
         rdf:about="">
        <dc:format>image/svg+xml</dc:format>
        <dc:type
           rdf:resource="http://purl.org/dc/dcmitype/StillImage" />
        <dc:title />
      </cc:Work>
    </rdf:RDF>
  </metadata>
  <sodipodi:namedview
     pagecolor="#ffffff"
     bordercolor="#666666"
     borderopacity="1"
     objecttolerance="10"
     gridtolerance="10"
     guidetolerance="10"
     inkscape:pageopacity="0"
     inkscape:pageshadow="2"
     inkscape:window-width="1317"
     inkscape:window-height="713"
     id="namedview12"
     showgrid="false"
     inkscape:zoom="4.9166667"
     inkscape:cx="-11.38983"
     inkscape:cy="24"
     inkscape:window-x="43"
     inkscape:window-y="24"
     inkscape:window-maximized="1"
     inkscape:current-layer="svg2" />
  <defs
     id="defs4">
    <clipPath
       id="clipPath-774341736">
      <g
         id="g17"
         transform="translate(0,-1004.3622)">
        <path
           id="path19"
           fill="#1890d0"
           transform="matrix(15.333333,0,0,11.5,414.99999,878.8622)"
           d="m -24 13 c 0 1.105 -0.672 2 -1.5 2 -0.828 0 -1.5 -0.895 -1.5 -2 0 -1.105 0.672 -2 1.5 -2 0.828 0 1.5 0.895 1.5 2 z" />
      </g>
    </clipPath>
    <clipPath
       id="clipPath-764797814">
      <g
         id="g12"
         transform="translate(0,-1004.3622)">
        <path
           id="path14"
           fill="#1890d0"
           transform="matrix(15.333333,0,0,11.5,414.99999,878.8622)"
           d="m -24 13 c 0 1.105 -0.672 2 -1.5 2 -0.828 0 -1.5 -0.895 -1.5 -2 0 -1.105 0.672 -2 1.5 -2 0.828 0 1.5 0.895 1.5 2 z" />
      </g>
    </clipPath>
    <linearGradient
       gradientTransform="matrix(0,-1,1,0,-1.5e-6,47.999998)"
       gradientUnits="userSpaceOnUse"
       x2="47"
       x1="1"
       id="linearGradient3764">
      <stop
         id="stop7"
         stop-opacity="1"
         stop-color="#48a1e0" />
      <stop
         id="stop9"
         stop-opacity="1"
         stop-color="#5aa9e3"
         offset="1" />
    </linearGradient>
  </defs>
  <rect
     style="fill:#000000;fill-rule:evenodd;stroke:#003bc3;stroke-width:0;stroke-linecap:square;stroke-linejoin:miter;stroke-miterlimit:2.01260185"
     y="3.3249316"
     x="3.9455752"
     height="41.18251"
     width="40.047932"
     stroke-miterlimit="2.01260191180"
     id="rect9" />
  <path
     style="fill:#000000;fill-rule:evenodd;stroke:#003bc3;stroke-width:0;stroke-linecap:square;stroke-linejoin:bevel"
     inkscape:connector-curvature="0"
     d="m 7.3749599,9.1859592 0,31.1740698 33.1854941,-0.08666 -0.09212,-31.0008224 z"
     id="shape11" />
  <g
     id="g33"
     transform="translate(72.517949,-8.0254239)" />
  <g
     id="g53"
     transform="matrix(1.1654703,0,0,0.95795782,-3.4533184,10.770224)"
     style="fill:#f2f2f2;stroke:#000000;stroke-opacity:1">
    <g
       clip-path="url(#clipPath-774341736)"
       id="g55"
       style="fill:#f2f2f2;stroke:#000000;stroke-opacity:1">
      <!-- color: #5aa9e3 -->
      <g
         id="g57"
         style="fill:#f2f2f2;stroke:#000000;stroke-opacity:1">
        <path
           d="M 9.3490909,30.40678 6.6036365,35.406779 41.221818,35.20339 37.778182,30.610169"
           id="path59"
           inkscape:connector-curvature="0"
           style="fill:#f2f2f2;fill-opacity:1;fill-rule:nonzero;stroke:#000000;stroke-opacity:1"
           sodipodi:nodetypes="cccc" />
        <path
           d="m 13.328,26 3.344,0 C 17.406,26 18,26.594 18,27.328 l 0,3.344 C 18,31.406 17.406,32 16.672,32 l -3.344,0 C 12.598,32 12,31.406 12,30.672 l 0,-3.344 C 12,26.594 12.598,26 13.328,26 m 0,0"
           id="path61"
           inkscape:connector-curvature="0"
           style="fill:#f2f2f2;fill-opacity:1;fill-rule:nonzero;stroke:#000000;stroke-opacity:1" />
        <path
           d="m 22.328,26 3.344,0 C 26.406,26 27,26.594 27,27.328 l 0,3.344 C 27,31.406 26.406,32 25.672,32 l -3.344,0 C 21.598,32 21,31.406 21,30.672 l 0,-3.344 C 21,26.594 21.598,26 22.328,26 m 0,0"
           id="path63"
           inkscape:connector-curvature="0"
           style="fill:#f2f2f2;fill-opacity:1;fill-rule:nonzero;stroke:#000000;stroke-opacity:1" />
        <path
           d="m 31.33,26 3.352,0 c 0.727,0 1.328,0.594 1.328,1.328 l 0,3.344 C 36.01,31.406 35.408,32 34.682,32 l -3.352,0 c -0.727,0 -1.32,-0.594 -1.32,-1.328 l 0,-3.344 C 30.01,26.594 30.608,26 31.33,26 m 0,0"
           id="path65"
           inkscape:connector-curvature="0"
           style="fill:#f2f2f2;fill-opacity:1;fill-rule:nonzero;stroke:#000000;stroke-opacity:1" />
      </g>
    </g>
  </g>
  <rect
     style="fill:#ffffff;fill-opacity:1;stroke:#ffffff;stroke-width:2.35690808;stroke-miterlimit:4;stroke-opacity:0;stroke-dasharray:none"
     id="rect3000"
     width="33.399025"
     height="25.466822"
     x="7.300488"
     y="7.0970993"
     ry="2.3171473"
     rx="2.6440678" />
  <rect
     style="fill:#000000;fill-opacity:1;stroke:#ffffff;stroke-width:2.41999626;stroke-linejoin:round;stroke-miterlimit:4;stroke-opacity:0;stroke-dasharray:none"
     id="rect3002"
     width="30.081657"
     height="22.556232"
     x="-39.040825"
     y="-31.108622"
     ry="1.3297944"
     transform="scale(-1,-1)" />
</svg>
