<?xml version="1.0" encoding="UTF-8" standalone="no"?>
<!-- Created with Inkscape (http://www.inkscape.org/) -->

<svg
   xmlns:dc="http://purl.org/dc/elements/1.1/"
   xmlns:cc="http://creativecommons.org/ns#"
   xmlns:rdf="http://www.w3.org/1999/02/22-rdf-syntax-ns#"
   xmlns:svg="http://www.w3.org/2000/svg"
   xmlns="http://www.w3.org/2000/svg"
   xmlns:xlink="http://www.w3.org/1999/xlink"
   xmlns:sodipodi="http://sodipodi.sourceforge.net/DTD/sodipodi-0.dtd"
   xmlns:inkscape="http://www.inkscape.org/namespaces/inkscape"
   width="48"
   height="48"
   id="svg4230"
   version="1.1"
   inkscape:version="0.48.4 r9939"
   sodipodi:docname="input-tablet.svg">
  <defs
     id="defs4232">
    <linearGradient
       inkscape:collect="always"
       xlink:href="#linearGradient7150"
       id="linearGradient5353"
       x1="28.728134"
       y1="1049.4073"
       x2="28.728134"
       y2="1007.5463"
       gradientUnits="userSpaceOnUse"
       gradientTransform="translate(-124.81532,-14.401768)" />
    <linearGradient
       inkscape:collect="always"
       id="linearGradient7150">
      <stop
         style="stop-color:#8796a4;stop-opacity:1"
         offset="0"
         id="stop7152" />
      <stop
         style="stop-color:#b0b7c5;stop-opacity:1"
         offset="1"
         id="stop7154" />
    </linearGradient>
  </defs>
  <sodipodi:namedview
     id="base"
     pagecolor="#ffffff"
     bordercolor="#666666"
     borderopacity="1.0"
     inkscape:pageopacity="0.0"
     inkscape:pageshadow="2"
     inkscape:zoom="3.1246164"
     inkscape:cx="-16.01375"
     inkscape:cy="-3.9158767"
     inkscape:document-units="px"
     inkscape:current-layer="layer1"
     showgrid="false"
     inkscape:showpageshadow="false"
     borderlayer="true"
     inkscape:window-width="1310"
     inkscape:window-height="716"
     inkscape:window-x="50"
     inkscape:window-y="24"
     inkscape:window-maximized="1" />
  <metadata
     id="metadata4235">
    <rdf:RDF>
      <cc:Work
         rdf:about="">
        <dc:format>image/svg+xml</dc:format>
        <dc:type
           rdf:resource="http://purl.org/dc/dcmitype/StillImage" />
        <dc:title />
      </cc:Work>
    </rdf:RDF>
  </metadata>
  <g
     inkscape:label="Capa 1"
     inkscape:groupmode="layer"
     id="layer1"
     transform="translate(0,-1004.3622)">
    <path
       style="fill:#000000;fill-opacity:0.76862746;fill-rule:nonzero;stroke:none"
       d="m 38.933715,1011.2017 c -0.562985,0 -1.109222,0.2185 -1.537497,0.6465 l -5.289732,5.3373 -0.732138,0.7207 -0.695537,0.7013 -4.19152,4.2477 -7.266519,7.3327 0,3.1953 3.038388,0 3.587505,-3.6205 8.016971,-8.0716 0.109761,-0.1312 0.366067,-0.3691 6.150002,-6.205 c 0.858836,-0.8651 0.858836,-2.2753 0,-3.1399 -0.428971,-0.4257 -0.993457,-0.6442 -1.555751,-0.6442 z m -31.4272291,5.929 0,28.072 27.8214301,0 0,-22.9007 -0.329463,0.3129 -0.109761,0.1164 -8.016968,8.0894 -3.569197,3.6205 -0.439282,0.4242 -5.106696,0 0,-5.2826 0.420974,-0.4431 7.266522,-7.3128 4.209826,-4.2483 0.420974,-0.4429 -22.5683591,0 z"
       id="path254-4"
       inkscape:connector-curvature="0" />
  </g>
</svg>
