<?xml version="1.0" encoding="UTF-8" standalone="no"?>
<!-- Created with Inkscape (http://www.inkscape.org/) -->

<svg
   xmlns:dc="http://purl.org/dc/elements/1.1/"
   xmlns:cc="http://creativecommons.org/ns#"
   xmlns:rdf="http://www.w3.org/1999/02/22-rdf-syntax-ns#"
   xmlns:svg="http://www.w3.org/2000/svg"
   xmlns="http://www.w3.org/2000/svg"
   xmlns:xlink="http://www.w3.org/1999/xlink"
   xmlns:sodipodi="http://sodipodi.sourceforge.net/DTD/sodipodi-0.dtd"
   xmlns:inkscape="http://www.inkscape.org/namespaces/inkscape"
   width="48"
   height="48"
   id="svg2"
   version="1.1"
   inkscape:version="0.48.4 r9939"
   sodipodi:docname="printer.svg">
  <defs
     id="defs4">
    <linearGradient
       inkscape:collect="always"
       id="linearGradient4887">
      <stop
         style="stop-color:#e0a269;stop-opacity:1"
         offset="0"
         id="stop4889" />
      <stop
         style="stop-color:#f0d3a9;stop-opacity:1"
         offset="1"
         id="stop4891" />
    </linearGradient>
    <linearGradient
       inkscape:collect="always"
       xlink:href="#linearGradient4887"
       id="linearGradient4047"
       x1="26.509884"
       y1="1049.3497"
       x2="26.509884"
       y2="1007.4331"
       gradientUnits="userSpaceOnUse"
       gradientTransform="translate(93.276424,-38.956624)" />
  </defs>
  <sodipodi:namedview
     id="base"
     pagecolor="#ffffff"
     bordercolor="#666666"
     borderopacity="1.0"
     inkscape:pageopacity="0.0"
     inkscape:pageshadow="2"
     inkscape:zoom="3.6450797"
     inkscape:cx="27.509927"
     inkscape:cy="32.521229"
     inkscape:document-units="px"
     inkscape:current-layer="layer1"
     showgrid="false"
     inkscape:window-width="1310"
     inkscape:window-height="716"
     inkscape:window-x="50"
     inkscape:window-y="24"
     inkscape:window-maximized="1"
     showguides="false"
     borderlayer="true"
     inkscape:showpageshadow="false" />
  <metadata
     id="metadata7">
    <rdf:RDF>
      <cc:Work
         rdf:about="">
        <dc:format>image/svg+xml</dc:format>
        <dc:type
           rdf:resource="http://purl.org/dc/dcmitype/StillImage" />
        <dc:title />
      </cc:Work>
    </rdf:RDF>
  </metadata>
  <g
     inkscape:label="Capa 1"
     inkscape:groupmode="layer"
     id="layer1"
     transform="translate(0,-1004.3622)">
    <path
       style="fill:#000000;fill-opacity:0.76862746;stroke:none"
       id="Shape"
       d="m 10.133333,1024.0289 c 0,-1.7334 1.733333,-3.4667 3.466667,-3.4667 l 1.733333,0 0,3.4667 0,1.7333 17.333333,0 0,-1.7333 0,-3.4667 1.733334,0 c 1.733333,0 3.466667,1.7333 3.466667,3.4667 l 0,8.6666 c 0,1.7334 -1.733334,3.4667 -3.466667,3.4667 l -1.733334,0 0,-3.4667 0,-1.7333 -17.333333,0 0,1.7333 0,3.4667 -1.733333,0 c -1.733334,0 -3.466667,-1.7333 -3.466667,-3.4667 l 0,-8.6666 0,0 z m 6.933333,12.1333 0,-3.4667 13.866667,0 0,3.4667 0,5.2 -13.866667,0 0,-5.2 0,0 z m 13.866667,-15.6 0,3.4667 -13.866667,0 0,-3.4667 0,-5.2 13.866667,0 0,5.2 0,0 z m 0,0"
       inkscape:connector-curvature="0" />
  </g>
</svg>
