<?xml version="1.0" encoding="UTF-8" standalone="no"?>
<!-- Created with Inkscape (http://www.inkscape.org/) -->

<svg
   xmlns:dc="http://purl.org/dc/elements/1.1/"
   xmlns:cc="http://creativecommons.org/ns#"
   xmlns:rdf="http://www.w3.org/1999/02/22-rdf-syntax-ns#"
   xmlns:svg="http://www.w3.org/2000/svg"
   xmlns="http://www.w3.org/2000/svg"
   xmlns:xlink="http://www.w3.org/1999/xlink"
   xmlns:sodipodi="http://sodipodi.sourceforge.net/DTD/sodipodi-0.dtd"
   xmlns:inkscape="http://www.inkscape.org/namespaces/inkscape"
   width="48"
   height="48"
   id="svg4230"
   version="1.1"
   inkscape:version="0.48.4 r9939"
   sodipodi:docname="folder-video.svg">
  <defs
     id="defs4232">
    <linearGradient
       inkscape:collect="always"
       xlink:href="#linearGradient3419"
       id="linearGradient4053"
       gradientUnits="userSpaceOnUse"
       gradientTransform="matrix(0.8095238,0,0,0.8095238,-1101.9534,-808.48368)"
       x1="2.9250314"
       y1="1029.4803"
       x2="44.956501"
       y2="1029.4803" />
    <linearGradient
       inkscape:collect="always"
       id="linearGradient3419">
      <stop
         style="stop-color:#d3d3d4;stop-opacity:1"
         offset="0"
         id="stop3421" />
      <stop
         style="stop-color:#f4f4f4;stop-opacity:1"
         offset="1"
         id="stop3423" />
    </linearGradient>
    <linearGradient
       inkscape:collect="always"
       xlink:href="#linearGradient3419"
       id="linearGradient4055"
       gradientUnits="userSpaceOnUse"
       gradientTransform="matrix(0.69047615,0,0,0.69047615,-1099.0959,-686.05959)"
       x1="2.9250314"
       y1="1029.4803"
       x2="44.956501"
       y2="1029.4803" />
    <linearGradient
       inkscape:collect="always"
       xlink:href="#linearGradient4019"
       id="linearGradient4057"
       gradientUnits="userSpaceOnUse"
       gradientTransform="matrix(0,-1,1,0,-1004.3621,1106.5249)"
       x1="2.9281611"
       y1="1031.2874"
       x2="41.929218"
       y2="1031.2874" />
    <linearGradient
       inkscape:collect="always"
       id="linearGradient4019">
      <stop
         style="stop-color:#4292cc;stop-opacity:1"
         offset="0"
         id="stop4021" />
      <stop
         style="stop-color:#a7d7f3;stop-opacity:1"
         offset="1"
         id="stop4023" />
    </linearGradient>
    <linearGradient
       inkscape:collect="always"
       xlink:href="#linearGradient3419"
       id="linearGradient3046"
       gradientUnits="userSpaceOnUse"
       gradientTransform="matrix(0.8095238,0,0,0.8095238,-1101.9534,-808.48368)"
       x1="2.9250314"
       y1="1029.4803"
       x2="44.956501"
       y2="1029.4803" />
    <linearGradient
       inkscape:collect="always"
       xlink:href="#linearGradient3419"
       id="linearGradient3048"
       gradientUnits="userSpaceOnUse"
       gradientTransform="matrix(0.69047615,0,0,0.69047615,-1099.0959,-686.05959)"
       x1="2.9250314"
       y1="1029.4803"
       x2="44.956501"
       y2="1029.4803" />
    <linearGradient
       inkscape:collect="always"
       xlink:href="#linearGradient4019"
       id="linearGradient3050"
       gradientUnits="userSpaceOnUse"
       gradientTransform="matrix(0,-1,1,0,-1004.3621,1106.5249)"
       x1="2.9281611"
       y1="1031.2874"
       x2="41.929218"
       y2="1031.2874" />
    <linearGradient
       inkscape:collect="always"
       xlink:href="#linearGradient3419"
       id="linearGradient3058"
       gradientUnits="userSpaceOnUse"
       gradientTransform="matrix(0.69047615,0,0,0.69047615,-1044.9332,-686.05959)"
       x1="2.9250314"
       y1="1029.4803"
       x2="44.956501"
       y2="1029.4803" />
    <linearGradient
       inkscape:collect="always"
       xlink:href="#linearGradient3419"
       id="linearGradient3063"
       gradientUnits="userSpaceOnUse"
       gradientTransform="matrix(0.8095238,0,0,0.8095238,-1047.7907,-808.48368)"
       x1="2.9250314"
       y1="1029.4803"
       x2="44.956501"
       y2="1029.4803" />
  </defs>
  <sodipodi:namedview
     id="base"
     pagecolor="#ffffff"
     bordercolor="#666666"
     borderopacity="1.0"
     inkscape:pageopacity="0.0"
     inkscape:pageshadow="2"
     inkscape:zoom="6.1098445"
     inkscape:cx="3.6441125"
     inkscape:cy="16.155664"
     inkscape:document-units="px"
     inkscape:current-layer="layer1"
     showgrid="false"
     inkscape:showpageshadow="false"
     borderlayer="true"
     inkscape:window-width="1316"
     inkscape:window-height="674"
     inkscape:window-x="44"
     inkscape:window-y="29"
     inkscape:window-maximized="1"
     showguides="false"
     inkscape:guide-bbox="true">
    <sodipodi:guide
       orientation="0,1"
       position="44.847656,45.304688"
       id="guide7743" />
    <sodipodi:guide
       orientation="0,1"
       position="45.050781,45.597656"
       id="guide7745" />
    <sodipodi:guide
       orientation="0,1"
       position="44.953125,46.199219"
       id="guide7747" />
    <sodipodi:guide
       orientation="0,1"
       position="44.910156,45.894531"
       id="guide7749" />
    <sodipodi:guide
       orientation="0,1"
       position="44.426193,45.011766"
       id="guide7751" />
    <sodipodi:guide
       orientation="0,1"
       position="59.363824,1.8009126"
       id="guide7760" />
    <sodipodi:guide
       orientation="0,1"
       position="59.351563,2.1015625"
       id="guide7762" />
    <sodipodi:guide
       orientation="0,1"
       position="59.582031,2.4023438"
       id="guide7764" />
    <sodipodi:guide
       orientation="0,1"
       position="59.539063,2.703125"
       id="guide7766" />
    <sodipodi:guide
       orientation="0,1"
       position="61.269698,2.9996795"
       id="guide7768" />
    <sodipodi:guide
       orientation="0,1"
       position="64.265625,5.4921875"
       id="guide7782" />
  </sodipodi:namedview>
  <metadata
     id="metadata4235">
    <rdf:RDF>
      <cc:Work
         rdf:about="">
        <dc:format>image/svg+xml</dc:format>
        <dc:type
           rdf:resource="http://purl.org/dc/dcmitype/StillImage" />
        <dc:title></dc:title>
      </cc:Work>
    </rdf:RDF>
  </metadata>
  <g
     inkscape:label="Capa 1"
     inkscape:groupmode="layer"
     id="layer1"
     transform="translate(0,-1004.3622)">
    <path
       style="fill:#000000"
       d=""
       id="path906-9"
       inkscape:connector-curvature="0" />
    <rect
       ry="6.2786646"
       y="1006.1622"
       x="1.8000183"
       height="44.399963"
       width="44.399963"
       id="rect4025"
       style="fill:#000000;fill-opacity:0.01960784;stroke:none" />
    <rect
       style="fill:#000000;fill-opacity:0.03921569;stroke:none"
       id="rect4027"
       width="43.799973"
       height="43.799973"
       x="2.1000061"
       y="1006.4623"
       ry="6.1938181" />
    <rect
       ry="6.1089716"
       y="1006.7626"
       x="2.3999939"
       height="43.199982"
       width="43.199982"
       id="rect4029"
       style="fill:#000000;fill-opacity:0.07843137;stroke:none" />
    <rect
       style="fill:#000000;fill-opacity:0.15686275;stroke:none"
       id="rect4031"
       width="42.599991"
       height="42.599991"
       x="2.7000122"
       y="1007.0624"
       ry="6.0241251" />
    <rect
       transform="matrix(0,-1,1,0,0,0)"
       ry="5.9392796"
       y="3.0000219"
       x="-1049.3622"
       height="42"
       width="42"
       id="rect4033"
       style="fill:#333333;fill-opacity:1;stroke:none" />
    <rect
       transform="matrix(0,-1,1,0,0,0)"
       ry="5.2322216"
       y="5.50002"
       x="-1046.8622"
       height="37.000004"
       width="37.000004"
       id="rect4035"
       style="opacity:0.1;fill:#000000;fill-opacity:1;stroke:none" />
    <rect
       style="opacity:0.03999999;fill:#000000;fill-opacity:1;stroke:none"
       id="rect4037"
       width="35.799999"
       height="35.799999"
       x="-1046.2622"
       y="6.1000223"
       ry="5.0625286"
       transform="matrix(0,-1,1,0,0,0)" />
    <rect
       style="fill:url(#linearGradient3063);fill-opacity:1;stroke:none"
       id="rect4039"
       width="34"
       height="34"
       x="-1045.3622"
       y="7.0000219"
       ry="4.8079882"
       transform="matrix(0,-1,1,0,0,0)" />
    <rect
       style="opacity:0.1;fill:#000000;fill-opacity:1;stroke:none"
       id="rect4041"
       width="31.000004"
       height="31.000004"
       x="-1043.8622"
       y="8.50002"
       ry="4.3837538"
       transform="matrix(0,-1,1,0,0,0)" />
    <rect
       transform="matrix(0,-1,1,0,0,0)"
       ry="4.2423429"
       y="9.0000219"
       x="-1043.3622"
       height="30"
       width="30"
       id="rect4043"
       style="opacity:0.05;fill:#000000;fill-opacity:1;stroke:none" />
    <rect
       transform="matrix(0,-1,1,0,0,0)"
       ry="4.1009312"
       y="9.50002"
       x="-1042.8622"
       height="29.000004"
       width="29.000004"
       id="rect4045"
       style="fill:url(#linearGradient3058);fill-opacity:1;stroke:none" />
    <path
       id="path4047"
       d="m 2.9999782,1043.4228 c 0,3.2903 2.6491,5.9394 5.9395,5.9394 l 30.1209998,0 c 3.2904,0 5.9395,-2.6491 5.9395,-5.9394 l 0,-13.0606 0,-10 0,-2 c 0,-0.1385 -0.014,-0.2738 -0.041,-0.4043 -0.1859,-0.913 -0.9895,-1.5957 -1.959,-1.5957 l -18.7129,0 -2.4863,-4.9023 c -0.1007,-0.1985 -0.2352,-0.3657 -0.3848,-0.5137 -0.089,-0.088 -0.1836,-0.1658 -0.2851,-0.2344 -0.01,0 -0.014,-0.011 -0.021,-0.016 -0.092,-0.06 -0.1887,-0.112 -0.2891,-0.1562 -0.025,-0.011 -0.049,-0.021 -0.074,-0.031 -0.089,-0.035 -0.1787,-0.062 -0.2715,-0.084 -0.039,-0.01 -0.077,-0.018 -0.1172,-0.025 -0.083,-0.014 -0.1656,-0.022 -0.25,-0.025 -0.036,0 -0.071,-0.012 -0.1074,-0.012 l -14.9999998,0 c -1.108,0 -2,0.892 -2,2 l 0,2 0,10 0,19.0606 z"
       style="fill:#1a1a1a;fill-opacity:1;stroke:none"
       inkscape:connector-curvature="0" />
    <path
       id="path4049"
       d="m 3.0000004,1040.9247 0,2.5 c 0,3.2904 2.64714,5.9375 5.9375,5.9375 l 30.1249996,0 c 3.29036,0 5.9375,-2.6471 5.9375,-5.9375 l 0,-2.5 c 0,3.2904 -2.64714,5.9375 -5.9375,5.9375 l -30.1249996,0 c -3.29036,0 -5.9375,-2.6471 -5.9375,-5.9375 z"
       style="fill:#000000;fill-opacity:0.11764706;stroke:none"
       inkscape:connector-curvature="0" />
    <path
       id="path4051"
       d="m 3.0000004,1042.9247 0,0.5 c 0,3.2904 2.64714,5.9375 5.9375,5.9375 l 30.1249996,0 c 3.29036,0 5.9375,-2.6471 5.9375,-5.9375 l 0,-0.5 c 0,3.2904 -2.64714,5.9375 -5.9375,5.9375 l -30.1249996,0 c -3.29036,0 -5.9375,-2.6471 -5.9375,-5.9375 z"
       style="fill:#000000;fill-opacity:0.09803922;stroke:none"
       inkscape:connector-curvature="0" />
    <g
       transform="matrix(0.64904677,0,0,0.62946814,-410.36674,752.88954)"
       id="layer1-2"
       inkscape:label="Capa 1"
       style="fill:#ffffff">
      <g
         style="fill:#ffffff;fill-opacity:1"
         transform="matrix(1.0347346,0,0,1.4723906,652.21033,420.03091)"
         id="g7456">
        <g
           style="fill:#ffffff;fill-opacity:1"
           id="icomoon-ignore" />
        <path
           style="fill:#ffffff;fill-opacity:1"
           inkscape:connector-curvature="0"
           d="M 26,4 H 6 C 2.7,4 0,6.7 0,10 v 12 c 0,3.3 2.7,6 6,6 h 20 c 3.3,0 6,-2.7 6,-6 V 10 C 32,6.7 29.3,4 26,4 z m 4,18 c 0,1.062 -0.418,2.064 -1.177,2.823 C 28.064,25.582 27.062,26 26,26 H 6 C 4.938,26 3.936,25.582 3.177,24.823 2.418,24.064 2,23.061 2,22 V 10 C 2,8.938 2.418,7.936 3.177,7.177 3.936,6.418 4.938,6 6,6 h 20 c 1.062,0 2.064,0.418 2.823,1.177 C 29.582,7.936 30,8.938 30,10 V 22 z M 12,24 22,16 12,8 z"
           id="path7448" />
      </g>
      <g
         transform="translate(480.29674,-595.46731)"
         id="layer1-19"
         inkscape:label="Capa 1"
         style="fill:#ffffff" />
      <g
         inkscape:label="Capa 2"
         id="layer2"
         transform="translate(570.54308,410.49639)"
         style="fill:#ffffff" />
    </g>
  </g>
</svg>
