<?xml version="1.0" encoding="UTF-8" standalone="no"?>
<!-- Created with Inkscape (http://www.inkscape.org/) -->

<svg
   xmlns:dc="http://purl.org/dc/elements/1.1/"
   xmlns:cc="http://creativecommons.org/ns#"
   xmlns:rdf="http://www.w3.org/1999/02/22-rdf-syntax-ns#"
   xmlns:svg="http://www.w3.org/2000/svg"
   xmlns="http://www.w3.org/2000/svg"
   xmlns:xlink="http://www.w3.org/1999/xlink"
   xmlns:sodipodi="http://sodipodi.sourceforge.net/DTD/sodipodi-0.dtd"
   xmlns:inkscape="http://www.inkscape.org/namespaces/inkscape"
   width="48"
   height="48"
   id="svg4230"
   version="1.1"
   inkscape:version="0.48.4 r9939"
   sodipodi:docname="folder-open.svg">
  <defs
     id="defs4232">
    <linearGradient
       y2="1029.4803"
       x2="44.956501"
       y1="1029.4803"
       x1="2.9250314"
       gradientTransform="matrix(0.8095238,0,0,0.8095238,-1101.9534,-808.48368)"
       gradientUnits="userSpaceOnUse"
       id="linearGradient4053"
       xlink:href="#linearGradient3419"
       inkscape:collect="always" />
    <linearGradient
       id="linearGradient3419"
       inkscape:collect="always">
      <stop
         id="stop3421"
         offset="0"
         style="stop-color:#d3d3d4;stop-opacity:1" />
      <stop
         id="stop3423"
         offset="1"
         style="stop-color:#f4f4f4;stop-opacity:1" />
    </linearGradient>
    <linearGradient
       y2="1029.4803"
       x2="44.956501"
       y1="1029.4803"
       x1="2.9250314"
       gradientTransform="matrix(0.69047615,0,0,0.69047615,-1099.0959,-686.05959)"
       gradientUnits="userSpaceOnUse"
       id="linearGradient4055"
       xlink:href="#linearGradient3419"
       inkscape:collect="always" />
    <linearGradient
       y2="1031.2874"
       x2="41.929218"
       y1="1031.2874"
       x1="2.9281611"
       gradientTransform="matrix(0,-1,1,0,-1004.3621,1106.5249)"
       gradientUnits="userSpaceOnUse"
       id="linearGradient4057"
       xlink:href="#linearGradient4019"
       inkscape:collect="always" />
    <linearGradient
       id="linearGradient4019"
       inkscape:collect="always">
      <stop
         id="stop4021"
         offset="0"
         style="stop-color:#4292cc;stop-opacity:1" />
      <stop
         id="stop4023"
         offset="1"
         style="stop-color:#a7d7f3;stop-opacity:1" />
    </linearGradient>
    <linearGradient
       inkscape:collect="always"
       xlink:href="#linearGradient3419"
       id="linearGradient3035"
       gradientUnits="userSpaceOnUse"
       gradientTransform="matrix(0.8095238,0,0,0.8095238,-1101.9534,-808.48368)"
       x1="2.9250314"
       y1="1029.4803"
       x2="44.956501"
       y2="1029.4803" />
    <linearGradient
       inkscape:collect="always"
       xlink:href="#linearGradient3419"
       id="linearGradient3037"
       gradientUnits="userSpaceOnUse"
       gradientTransform="matrix(0.69047615,0,0,0.69047615,-1099.0959,-686.05959)"
       x1="2.9250314"
       y1="1029.4803"
       x2="44.956501"
       y2="1029.4803" />
    <linearGradient
       inkscape:collect="always"
       xlink:href="#linearGradient4019"
       id="linearGradient3039"
       gradientUnits="userSpaceOnUse"
       gradientTransform="matrix(0,-1,1,0,-1004.3621,1106.5249)"
       x1="2.9281611"
       y1="1031.2874"
       x2="41.929218"
       y2="1031.2874" />
    <linearGradient
       inkscape:collect="always"
       xlink:href="#linearGradient4019"
       id="linearGradient3044"
       gradientUnits="userSpaceOnUse"
       gradientTransform="matrix(-0.3293928,-0.74735221,0.73169904,0,-724.89915,1050.1711)"
       x1="2.9281611"
       y1="1031.2874"
       x2="41.929218"
       y2="1031.2874" />
    <linearGradient
       inkscape:collect="always"
       xlink:href="#linearGradient3419"
       id="linearGradient3047"
       gradientUnits="userSpaceOnUse"
       gradientTransform="matrix(0.69047615,0,0,0.69047615,-1044.9332,-686.05959)"
       x1="2.9250314"
       y1="1029.4803"
       x2="44.956501"
       y2="1029.4803" />
    <linearGradient
       inkscape:collect="always"
       xlink:href="#linearGradient3419"
       id="linearGradient3052"
       gradientUnits="userSpaceOnUse"
       gradientTransform="matrix(0.8095238,0,0,0.8095238,-1047.7907,-808.48368)"
       x1="2.9250314"
       y1="1029.4803"
       x2="44.956501"
       y2="1029.4803" />
    <linearGradient
       inkscape:collect="always"
       xlink:href="#linearGradient3419"
       id="linearGradient3080"
       gradientUnits="userSpaceOnUse"
       gradientTransform="matrix(0.8095238,0,0,0.8095238,-1047.7907,-808.48368)"
       x1="2.9250314"
       y1="1029.4803"
       x2="44.956501"
       y2="1029.4803" />
    <linearGradient
       inkscape:collect="always"
       xlink:href="#linearGradient3419"
       id="linearGradient3082"
       gradientUnits="userSpaceOnUse"
       gradientTransform="matrix(0.69047615,0,0,0.69047615,-1044.9332,-686.05959)"
       x1="2.9250314"
       y1="1029.4803"
       x2="44.956501"
       y2="1029.4803" />
    <linearGradient
       inkscape:collect="always"
       xlink:href="#linearGradient3419"
       id="linearGradient3101"
       gradientUnits="userSpaceOnUse"
       gradientTransform="matrix(0.8095238,0,0,0.8095238,-1047.7907,-808.48368)"
       x1="2.9250314"
       y1="1029.4803"
       x2="44.956501"
       y2="1029.4803" />
    <linearGradient
       inkscape:collect="always"
       xlink:href="#linearGradient3419"
       id="linearGradient3103"
       gradientUnits="userSpaceOnUse"
       gradientTransform="matrix(0.69047615,0,0,0.69047615,-1044.9332,-686.05959)"
       x1="2.9250314"
       y1="1029.4803"
       x2="44.956501"
       y2="1029.4803" />
    <linearGradient
       inkscape:collect="always"
       xlink:href="#linearGradient4019"
       id="linearGradient3105"
       gradientUnits="userSpaceOnUse"
       gradientTransform="matrix(-0.3293928,-0.74735221,0.73169904,0,-724.89915,1050.1711)"
       x1="2.9281611"
       y1="1031.2874"
       x2="41.929218"
       y2="1031.2874" />
    <linearGradient
       inkscape:collect="always"
       xlink:href="#linearGradient3419"
       id="linearGradient3048"
       gradientUnits="userSpaceOnUse"
       gradientTransform="matrix(0.8095238,0,0,0.8095238,-1047.7907,-808.48368)"
       x1="2.9250314"
       y1="1029.4803"
       x2="44.956501"
       y2="1029.4803" />
    <linearGradient
       inkscape:collect="always"
       xlink:href="#linearGradient3419"
       id="linearGradient3050"
       gradientUnits="userSpaceOnUse"
       gradientTransform="matrix(0.69047615,0,0,0.69047615,-1044.9332,-686.05959)"
       x1="2.9250314"
       y1="1029.4803"
       x2="44.956501"
       y2="1029.4803" />
    <linearGradient
       inkscape:collect="always"
       xlink:href="#linearGradient3419"
       id="linearGradient3055"
       gradientUnits="userSpaceOnUse"
       gradientTransform="matrix(0.68713569,0,0,0.52280443,-1052.3273,-383.14779)"
       x1="2.9250314"
       y1="1029.4803"
       x2="44.956501"
       y2="1029.4803" />
    <linearGradient
       inkscape:collect="always"
       xlink:href="#linearGradient3419"
       id="linearGradient3060"
       gradientUnits="userSpaceOnUse"
       gradientTransform="matrix(0.80560739,0,0,0.61294315,-1055.1709,-475.84304)"
       x1="2.9250314"
       y1="1029.4803"
       x2="44.956501"
       y2="1029.4803" />
  </defs>
  <sodipodi:namedview
     id="base"
     pagecolor="#ffffff"
     bordercolor="#666666"
     borderopacity="1.0"
     inkscape:pageopacity="0.0"
     inkscape:pageshadow="2"
     inkscape:zoom="5.581929"
     inkscape:cx="34.295816"
     inkscape:cy="38.684105"
     inkscape:document-units="px"
     inkscape:current-layer="layer1"
     showgrid="false"
     inkscape:showpageshadow="false"
     borderlayer="true"
     inkscape:window-width="1316"
     inkscape:window-height="674"
     inkscape:window-x="44"
     inkscape:window-y="29"
     inkscape:window-maximized="1"
     showguides="false"
     inkscape:guide-bbox="true">
    <sodipodi:guide
       orientation="0,1"
       position="44.847656,45.304688"
       id="guide7743" />
    <sodipodi:guide
       orientation="0,1"
       position="45.050781,45.597656"
       id="guide7745" />
    <sodipodi:guide
       orientation="0,1"
       position="44.953125,46.199219"
       id="guide7747" />
    <sodipodi:guide
       orientation="0,1"
       position="44.910156,45.894531"
       id="guide7749" />
    <sodipodi:guide
       orientation="0,1"
       position="44.426193,45.011766"
       id="guide7751" />
    <sodipodi:guide
       orientation="0,1"
       position="59.363824,1.8009126"
       id="guide7760" />
    <sodipodi:guide
       orientation="0,1"
       position="59.351563,2.1015625"
       id="guide7762" />
    <sodipodi:guide
       orientation="0,1"
       position="59.582031,2.4023438"
       id="guide7764" />
    <sodipodi:guide
       orientation="0,1"
       position="59.539063,2.703125"
       id="guide7766" />
    <sodipodi:guide
       orientation="0,1"
       position="61.269698,2.9996795"
       id="guide7768" />
    <sodipodi:guide
       orientation="0,1"
       position="64.265625,5.4921875"
       id="guide7782" />
  </sodipodi:namedview>
  <metadata
     id="metadata4235">
    <rdf:RDF>
      <cc:Work
         rdf:about="">
        <dc:format>image/svg+xml</dc:format>
        <dc:type
           rdf:resource="http://purl.org/dc/dcmitype/StillImage" />
        <dc:title></dc:title>
      </cc:Work>
    </rdf:RDF>
  </metadata>
  <g
     inkscape:label="Capa 1"
     inkscape:groupmode="layer"
     id="layer1"
     transform="translate(0,-1004.3622)">
    <path
       style="fill:#000000"
       d=""
       id="path906-9"
       inkscape:connector-curvature="0" />
    <rect
       ry="6.0487967"
       y="1013.7438"
       x="137.67548"
       height="44.185162"
       width="33.618103"
       id="rect4025"
       style="fill:#000000;fill-opacity:0.01960784;stroke:none"
       rx="6.2786646"
       transform="matrix(1,0,-0.12062713,0.99269789,0,0)" />
    <rect
       style="fill:#000000;fill-opacity:0.03921569;stroke:none"
       id="rect4027"
       width="33.163811"
       height="43.588074"
       x="137.90262"
       y="1014.0425"
       ry="5.9670553"
       rx="6.1938186"
       transform="matrix(1,0,-0.12062713,0.99269789,0,0)" />
    <rect
       ry="5.8853154"
       y="1014.3413"
       x="138.12976"
       height="42.990982"
       width="32.709518"
       id="rect4029"
       style="fill:#000000;fill-opacity:0.07843137;stroke:none"
       rx="6.1089716"
       transform="matrix(1,0,-0.12062713,0.99269789,0,0)" />
    <rect
       style="fill:#000000;fill-opacity:0.15686275;stroke:none"
       id="rect4031"
       width="32.255226"
       height="42.393894"
       x="138.35693"
       y="1014.6396"
       ry="5.8035755"
       rx="6.0241251"
       transform="matrix(1,0,-0.12062713,0.99269789,0,0)" />
    <rect
       transform="matrix(0.12062713,-0.99269789,1,0,0,0)"
       ry="5.9392796"
       y="138.58408"
       x="-1056.7349"
       height="31.800934"
       width="41.796806"
       id="rect4033"
       style="fill:#333333;fill-opacity:1;stroke:none"
       rx="5.7218361" />
    <rect
       transform="matrix(0.12062713,-0.99269789,1,0,0,0)"
       ry="5.2322216"
       y="140.47699"
       x="-1054.2469"
       height="28.01511"
       width="36.820999"
       id="rect4035"
       style="opacity:0.1;fill:#000000;fill-opacity:1;stroke:none"
       rx="5.0406647" />
    <rect
       style="opacity:0.03999999;fill:#000000;fill-opacity:1;stroke:none"
       id="rect4037"
       width="35.626801"
       height="27.10651"
       x="-1053.6499"
       y="140.93129"
       ry="5.0625286"
       transform="matrix(0.12062713,-0.99269789,1,0,0,0)"
       rx="4.8771839" />
    <rect
       style="fill:url(#linearGradient3060);fill-opacity:1;stroke:none"
       id="rect4039"
       width="33.83551"
       height="25.743612"
       x="-1052.7542"
       y="141.61275"
       ry="4.8079886"
       transform="matrix(0.12062713,-0.99269789,1,0,0,0)"
       rx="4.6319623" />
    <rect
       style="opacity:0.1;fill:#000000;fill-opacity:1;stroke:none"
       id="rect4041"
       width="30.850029"
       height="23.47212"
       x="-1051.2615"
       y="142.74849"
       ry="4.3837533"
       transform="matrix(0.12062713,-0.99269789,1,0,0,0)"
       rx="4.2232599" />
    <rect
       transform="matrix(0.12062713,-0.99269789,1,0,0,0)"
       ry="4.2423425"
       y="143.12708"
       x="-1050.7638"
       height="22.714952"
       width="29.854862"
       id="rect4043"
       style="opacity:0.05;fill:#000000;fill-opacity:1;stroke:none"
       rx="4.0870266" />
    <rect
       transform="matrix(0.12062713,-0.99269789,1,0,0,0)"
       ry="4.1009312"
       y="143.50566"
       x="-1050.2662"
       height="21.95779"
       width="28.859705"
       id="rect4045"
       style="fill:url(#linearGradient3055);fill-opacity:1;stroke:none"
       rx="3.9507914" />
    <path
       id="path4049"
       d="m 12.126039,1040.6831 -0.300109,2.4697 c -0.394991,3.2506 1.291564,5.8656 3.782909,5.8656 l 22.809598,0 c 2.491346,0 4.813435,-2.615 5.208426,-5.8656 l 0.300109,-2.4697 c -0.394991,3.2506 -2.71708,5.8656 -5.208426,5.8656 l -22.809598,0 c -2.491345,0 -4.1779,-2.615 -3.782909,-5.8656 z"
       style="fill:#000000;fill-opacity:0.11764706;stroke:none"
       inkscape:connector-curvature="0" />
    <path
       id="path4051"
       d="m 11.885952,1042.6589 -0.06002,0.4939 c -0.394991,3.2506 1.291564,5.8656 3.782909,5.8656 l 22.809598,0 c 2.491346,0 4.813435,-2.615 5.208426,-5.8656 l 0.06002,-0.4939 c -0.394991,3.2505 -2.71708,5.8656 -5.208426,5.8656 l -22.809598,0 c -2.491345,0 -4.1779,-2.6151 -3.782909,-5.8656 z"
       style="fill:#000000;fill-opacity:0.09803922;stroke:none"
       inkscape:connector-curvature="0" />
    <path
       id="path4047"
       d="m 10.483847,1043.8371 c 1.00764,2.7766 3.621046,5.012 5.859443,5.012 l 20.490738,0 c 2.238397,0 3.229253,-2.2354 2.221614,-5.012 l -3.999752,-11.0214 -3.062455,-8.4386 -0.612489,-1.6876 c -0.04238,-0.1172 -0.09338,-0.2311 -0.151712,-0.3413 -0.406066,-0.7703 -1.16181,-1.3465 -1.821342,-1.3465 l -12.730028,0 -3.192691,-4.1367 c -0.129294,-0.1675 -0.271996,-0.3087 -0.419089,-0.4334 -0.0875,-0.075 -0.175677,-0.1401 -0.265733,-0.198 -0.0068,0 -0.01289,-0.012 -0.0192,-0.014 -0.08096,-0.05 -0.16267,-0.093 -0.244506,-0.1317 -0.02037,-0.012 -0.03976,-0.018 -0.05984,-0.026 -0.07126,-0.03 -0.140552,-0.053 -0.21042,-0.071 -0.02958,-0.012 -0.05789,-0.016 -0.0874,-0.021 -0.06075,-0.013 -0.11939,-0.018 -0.177726,-0.022 -0.02448,0 -0.05198,-0.011 -0.07672,-0.011 l -10.2042116,0 c -0.75375122,0 -1.08739089,0.7528 -0.74807086,1.6877 l 0.61249156,1.6877 3.0624556,8.4386 5.8372253,16.0845 z"
       style="fill:#1a1a1a;fill-opacity:1;stroke:none"
       inkscape:connector-curvature="0" />
  </g>
</svg>
