<?xml version="1.0" encoding="UTF-8" standalone="no"?>
<!-- Created with Inkscape (http://www.inkscape.org/) -->

<svg
   xmlns:dc="http://purl.org/dc/elements/1.1/"
   xmlns:cc="http://creativecommons.org/ns#"
   xmlns:rdf="http://www.w3.org/1999/02/22-rdf-syntax-ns#"
   xmlns:svg="http://www.w3.org/2000/svg"
   xmlns="http://www.w3.org/2000/svg"
   xmlns:sodipodi="http://sodipodi.sourceforge.net/DTD/sodipodi-0.dtd"
   xmlns:inkscape="http://www.inkscape.org/namespaces/inkscape"
   id="svg2"
   version="1.1"
   inkscape:version="0.48.4 r9939"
   width="64"
   height="64"
   sodipodi:docname="IMPRIMIR.svg">
  <metadata
     id="metadata8">
    <rdf:RDF>
      <cc:Work
         rdf:about="">
        <dc:format>image/svg+xml</dc:format>
        <dc:type
           rdf:resource="http://purl.org/dc/dcmitype/StillImage" />
        <dc:title></dc:title>
      </cc:Work>
    </rdf:RDF>
  </metadata>
  <defs
     id="defs6" />
  <sodipodi:namedview
     pagecolor="#ffffff"
     bordercolor="#666666"
     borderopacity="1"
     objecttolerance="10"
     gridtolerance="10"
     guidetolerance="10"
     inkscape:pageopacity="0"
     inkscape:pageshadow="2"
     inkscape:window-width="1316"
     inkscape:window-height="674"
     id="namedview4"
     showgrid="false"
     inkscape:zoom="3.6875"
     inkscape:cx="-15.186441"
     inkscape:cy="32"
     inkscape:window-x="44"
     inkscape:window-y="29"
     inkscape:window-maximized="1"
     inkscape:current-layer="svg2" />
  <rect
     style="fill:#000000;fill-opacity:1;stroke:#000000;stroke-width:0.53665989999999997;stroke-linecap:round;stroke-linejoin:round;stroke-miterlimit:4;stroke-opacity:1;stroke-dasharray:none"
     id="rect3005"
     width="59.081985"
     height="59.624359"
     x="2.4590092"
     y="2.1878221"
     ry="5.9392786"
     rx="5.9392786" />
  <g
     id="g23187"
     transform="matrix(1.4745763,0,0,1.4237288,8.4067793,8.4067797)"
     style="fill:#ffffff">
    <g
       id="icomoon-ignore"
       style="fill:#ffffff" />
    <path
       id="path23179"
       d="M 32,16 C 32,7.163 24.837,0 16,0 7.163,0 0,7.163 0,16 0,22.877 4.339,28.739 10.428,31.002 L 10,32 H 22 L 21.572,31.002 C 27.661,28.739 32,22.877 32,16 z M 15.212,19.838 C 14.499,19.532 14,18.824 14,18 c 0,-1.105 0.895,-2 2,-2 1.105,0 2,0.895 2,2 0,0.825 -0.499,1.533 -1.212,1.839 L 16,18 15.212,19.838 z m 1.609,0.077 C 18.636,19.536 20,17.927 20,16 c 0,-2.209 -1.791,-4 -4,-4 -2.209,0 -4,1.791 -4,4 0,1.928 1.364,3.535 3.18,3.913 l -2.332,5.441 C 9.997,24.131 8,21.298 8,17.999 c 0,-4.418 3.582,-8.375 8,-8.375 4.418,0 8,3.957 8,8.375 0,3.299 -1.997,6.131 -4.848,7.355 l -2.331,-5.439 z m 4.693,10.951 -2.31,-5.39 C 23.155,24.14 26,20.403 26,16 26,10.477 21.523,6 16,6 10.477,6 6,10.477 6,16 c 0,4.402 2.845,8.14 6.796,9.476 l -2.31,5.39 C 5.499,28.726 2.005,23.771 2.005,18 2.005,10.271 8.271,3.63 16,3.63 c 7.729,0 13.995,6.641 13.995,14.37 0,5.771 -3.494,10.726 -8.481,12.866 z"
       inkscape:connector-curvature="0"
       style="fill:#ffffff" />
  </g>
</svg>
