<?xml version="1.0" encoding="UTF-8" standalone="no"?>
<!-- Created with Inkscape (http://www.inkscape.org/) -->

<svg
   xmlns:dc="http://purl.org/dc/elements/1.1/"
   xmlns:cc="http://creativecommons.org/ns#"
   xmlns:rdf="http://www.w3.org/1999/02/22-rdf-syntax-ns#"
   xmlns:svg="http://www.w3.org/2000/svg"
   xmlns="http://www.w3.org/2000/svg"
   xmlns:sodipodi="http://sodipodi.sourceforge.net/DTD/sodipodi-0.dtd"
   xmlns:inkscape="http://www.inkscape.org/namespaces/inkscape"
   id="svg2"
   version="1.1"
   inkscape:version="0.48.4 r9939"
   width="64"
   height="64"
   sodipodi:docname="IDIOMAS.svg">
  <metadata
     id="metadata8">
    <rdf:RDF>
      <cc:Work
         rdf:about="">
        <dc:format>image/svg+xml</dc:format>
        <dc:type
           rdf:resource="http://purl.org/dc/dcmitype/StillImage" />
        <dc:title></dc:title>
      </cc:Work>
    </rdf:RDF>
  </metadata>
  <defs
     id="defs6" />
  <sodipodi:namedview
     pagecolor="#ffffff"
     bordercolor="#666666"
     borderopacity="1"
     objecttolerance="10"
     gridtolerance="10"
     guidetolerance="10"
     inkscape:pageopacity="0"
     inkscape:pageshadow="2"
     inkscape:window-width="1316"
     inkscape:window-height="674"
     id="namedview4"
     showgrid="false"
     inkscape:zoom="3.6875"
     inkscape:cx="-15.186441"
     inkscape:cy="32"
     inkscape:window-x="44"
     inkscape:window-y="29"
     inkscape:window-maximized="1"
     inkscape:current-layer="svg2" />
  <rect
     style="fill:#000000;fill-opacity:1;stroke:#000000;stroke-width:0.53665989999999997;stroke-linecap:round;stroke-linejoin:round;stroke-miterlimit:4;stroke-opacity:1;stroke-dasharray:none"
     id="rect3005"
     width="59.081985"
     height="59.624359"
     x="2.4590092"
     y="2.1878221"
     ry="5.9392786"
     rx="5.9392786" />
  <g
     id="g11952"
     transform="matrix(1.5254237,0,0,1.4915254,7.8644065,7.3220339)"
     style="fill:#ffffff">
    <g
       id="icomoon-ignore"
       style="fill:#ffffff" />
    <path
       id="path11944"
       d="m 6,18.071 v 13.857 c 0.327,0.047 0.66,0.071 1,0.071 h 1 v -14 H 7 c -0.34,0 -0.673,0.025 -1,0.071 z M 24,18 v 14 h 1 c 0.34,0 0.673,-0.025 1,-0.071 V 18.072 c -0.327,-0.047 -0.66,-0.071 -1,-0.071 h -1 z m 8,-2 C 32,7.163 24.837,0 16,0 7.163,0 0,7.163 0,16 0,17.919 0.338,19.76 0.958,21.465 0.349,22.503 0,23.71 0,25 c 0,2.792 1.635,5.202 4,6.326 V 18.674 C 3.371,18.973 2.794,19.363 2.286,19.827 2.099,18.914 2,17.968 2,17 2,9.268 8.268,3 16,3 c 7.732,0 14,6.268 14,14 0,0.969 -0.098,1.914 -0.286,2.827 C 29.205,19.363 28.629,18.973 28,18.674 V 31.326 C 30.365,30.202 32,27.792 32,25 32,23.71 31.651,22.502 31.042,21.465 31.662,19.76 32,17.919 32,16 z"
       inkscape:connector-curvature="0"
       style="fill:#ffffff" />
  </g>
</svg>
