<?xml version="1.0" encoding="UTF-8" standalone="no"?>
<!-- Created with Inkscape (http://www.inkscape.org/) -->

<svg
   xmlns:dc="http://purl.org/dc/elements/1.1/"
   xmlns:cc="http://creativecommons.org/ns#"
   xmlns:rdf="http://www.w3.org/1999/02/22-rdf-syntax-ns#"
   xmlns:svg="http://www.w3.org/2000/svg"
   xmlns="http://www.w3.org/2000/svg"
   xmlns:sodipodi="http://sodipodi.sourceforge.net/DTD/sodipodi-0.dtd"
   xmlns:inkscape="http://www.inkscape.org/namespaces/inkscape"
   id="svg2"
   version="1.1"
   inkscape:version="0.48.4 r9939"
   width="64"
   height="64"
   sodipodi:docname="ario.svg">
  <metadata
     id="metadata8">
    <rdf:RDF>
      <cc:Work
         rdf:about="">
        <dc:format>image/svg+xml</dc:format>
        <dc:type
           rdf:resource="http://purl.org/dc/dcmitype/StillImage" />
        <dc:title></dc:title>
      </cc:Work>
    </rdf:RDF>
  </metadata>
  <defs
     id="defs6">
    <inkscape:path-effect
       effect="bend_path"
       id="path-effect11280"
       is_visible="true"
       bendpath="m 16.271188,16.271186 32,0"
       prop_scale="1"
       scale_y_rel="false"
       vertical="false" />
    <clipPath
       id="clipPath-900365933">
      <g
         id="g3319"
         transform="translate(0,-1004.3622)">
        <path
           id="path3321"
           fill="#1890d0"
           transform="matrix(15.333333,0,0,11.5,414.99999,878.8622)"
           d="m -24 13 c 0 1.105 -0.672 2 -1.5 2 -0.828 0 -1.5 -0.895 -1.5 -2 0 -1.105 0.672 -2 1.5 -2 0.828 0 1.5 0.895 1.5 2 z" />
      </g>
    </clipPath>
    <clipPath
       id="clipPath-888996903">
      <g
         id="g3314"
         transform="translate(0,-1004.3622)">
        <path
           id="path3316"
           fill="#1890d0"
           transform="matrix(15.333333,0,0,11.5,414.99999,878.8622)"
           d="m -24 13 c 0 1.105 -0.672 2 -1.5 2 -0.828 0 -1.5 -0.895 -1.5 -2 0 -1.105 0.672 -2 1.5 -2 0.828 0 1.5 0.895 1.5 2 z" />
      </g>
    </clipPath>
    <linearGradient
       gradientTransform="matrix(0,-1,1,0,-1.5e-6,47.999998)"
       gradientUnits="userSpaceOnUse"
       x2="47"
       x1="1"
       id="linearGradient3764">
      <stop
         id="stop3309"
         stop-opacity="1"
         stop-color="#e7e7e7" />
      <stop
         id="stop3311"
         stop-opacity="1"
         stop-color="#f1f1f1"
         offset="1" />
    </linearGradient>
    <clipPath
       id="clipPath-824049301">
      <g
         id="g3669"
         transform="translate(0,-1004.3622)">
        <path
           id="path3671"
           fill="#1890d0"
           transform="matrix(15.333333,0,0,11.5,414.99999,878.8622)"
           d="m -24 13 c 0 1.105 -0.672 2 -1.5 2 -0.828 0 -1.5 -0.895 -1.5 -2 0 -1.105 0.672 -2 1.5 -2 0.828 0 1.5 0.895 1.5 2 z" />
      </g>
    </clipPath>
    <clipPath
       id="clipPath-818636847">
      <g
         id="g3664"
         transform="translate(0,-1004.3622)">
        <path
           id="path3666"
           fill="#1890d0"
           transform="matrix(15.333333,0,0,11.5,414.99999,878.8622)"
           d="m -24 13 c 0 1.105 -0.672 2 -1.5 2 -0.828 0 -1.5 -0.895 -1.5 -2 0 -1.105 0.672 -2 1.5 -2 0.828 0 1.5 0.895 1.5 2 z" />
      </g>
    </clipPath>
    <linearGradient
       gradientTransform="matrix(0,-1,1,0,-1.5e-6,47.999998)"
       gradientUnits="userSpaceOnUse"
       x2="47"
       x1="1"
       id="linearGradient3764-7">
      <stop
         id="stop3659"
         stop-opacity="1"
         stop-color="#70ba5e" />
      <stop
         id="stop3661"
         stop-opacity="1"
         stop-color="#7dc06d"
         offset="1" />
    </linearGradient>
    <linearGradient
       gradientTransform="matrix(3.729797,0,0,3.401575,-1.263157,-0.00000203445)"
       y2="10.518"
       x2="6.769"
       y1="3.487"
       x1="6.778"
       gradientUnits="userSpaceOnUse"
       id="linearGradient7524">
      <stop
         id="stop7526"
         stop-opacity="1"
         stop-color="#e24571" />
      <stop
         id="stop7528"
         stop-opacity="1"
         stop-color="#7f263e"
         offset="1" />
    </linearGradient>
    <linearGradient
       gradientTransform="matrix(3.729797,0,0,3.401575,-1.263157,-2.03445e-6)"
       y2="10.518"
       x2="6.769"
       y1="3.487"
       x1="6.778"
       gradientUnits="userSpaceOnUse"
       id="linear0">
      <stop
         id="stop7520"
         stop-opacity="1"
         stop-color="#e24571" />
      <stop
         id="stop7522"
         stop-opacity="1"
         stop-color="#7f263e"
         offset="1" />
    </linearGradient>
    <clipPath
       id="clipPath-402570221">
      <g
         id="g7515"
         transform="translate(0,-1004.3622)">
        <path
           id="path7517"
           fill="#1890d0"
           transform="matrix(15.333333,0,0,11.5,414.99999,878.8622)"
           d="m -24 13 c 0 1.105 -0.672 2 -1.5 2 -0.828 0 -1.5 -0.895 -1.5 -2 0 -1.105 0.672 -2 1.5 -2 0.828 0 1.5 0.895 1.5 2 z" />
      </g>
    </clipPath>
    <clipPath
       id="clipPath-392703927">
      <g
         id="g7510"
         transform="translate(0,-1004.3622)">
        <path
           id="path7512"
           fill="#1890d0"
           transform="matrix(15.333333,0,0,11.5,414.99999,878.8622)"
           d="m -24 13 c 0 1.105 -0.672 2 -1.5 2 -0.828 0 -1.5 -0.895 -1.5 -2 0 -1.105 0.672 -2 1.5 -2 0.828 0 1.5 0.895 1.5 2 z" />
      </g>
    </clipPath>
    <linearGradient
       gradientTransform="matrix(0,-1,1,0,-1.5e-6,47.999998)"
       gradientUnits="userSpaceOnUse"
       x2="47"
       x1="1"
       id="linearGradient3764-5">
      <stop
         id="stop7505"
         stop-opacity="1"
         stop-color="#e4e4e4" />
      <stop
         id="stop7507"
         stop-opacity="1"
         stop-color="#eee"
         offset="1" />
    </linearGradient>
    <clipPath
       id="clipPath-033233189">
      <g
         id="g8716"
         transform="translate(0,-1004.3622)">
        <path
           id="path8718"
           fill="#1890d0"
           transform="matrix(15.333333,0,0,11.5,414.99999,878.8622)"
           d="m -24 13 c 0 1.105 -0.672 2 -1.5 2 -0.828 0 -1.5 -0.895 -1.5 -2 0 -1.105 0.672 -2 1.5 -2 0.828 0 1.5 0.895 1.5 2 z" />
      </g>
    </clipPath>
    <clipPath
       id="clipPath-027103285">
      <g
         id="g8711"
         transform="translate(0,-1004.3622)">
        <path
           id="path8713"
           fill="#1890d0"
           transform="matrix(15.333333,0,0,11.5,414.99999,878.8622)"
           d="m -24 13 c 0 1.105 -0.672 2 -1.5 2 -0.828 0 -1.5 -0.895 -1.5 -2 0 -1.105 0.672 -2 1.5 -2 0.828 0 1.5 0.895 1.5 2 z" />
      </g>
    </clipPath>
    <linearGradient
       gradientTransform="matrix(0,-1,1,0,-1.5e-6,47.999998)"
       gradientUnits="userSpaceOnUse"
       x2="47"
       x1="1"
       id="linearGradient3764-4">
      <stop
         id="stop8706"
         stop-opacity="1"
         stop-color="#285da4" />
      <stop
         id="stop8708"
         stop-opacity="1"
         stop-color="#2c65b5"
         offset="1" />
    </linearGradient>
    <clipPath
       id="clipPath-849059674">
      <g
         id="g10131"
         transform="translate(0,-1004.3622)">
        <path
           id="path10133"
           fill="#1890d0"
           transform="matrix(15.333333,0,0,11.5,414.99999,878.8622)"
           d="m -24 13 c 0 1.105 -0.672 2 -1.5 2 -0.828 0 -1.5 -0.895 -1.5 -2 0 -1.105 0.672 -2 1.5 -2 0.828 0 1.5 0.895 1.5 2 z" />
      </g>
    </clipPath>
    <clipPath
       id="clipPath-840401912">
      <g
         id="g10126"
         transform="translate(0,-1004.3622)">
        <path
           id="path10128"
           fill="#1890d0"
           transform="matrix(15.333333,0,0,11.5,414.99999,878.8622)"
           d="m -24 13 c 0 1.105 -0.672 2 -1.5 2 -0.828 0 -1.5 -0.895 -1.5 -2 0 -1.105 0.672 -2 1.5 -2 0.828 0 1.5 0.895 1.5 2 z" />
      </g>
    </clipPath>
    <linearGradient
       gradientTransform="matrix(0,-1,1,0,-1.5e-6,47.999998)"
       gradientUnits="userSpaceOnUse"
       x2="47"
       x1="1"
       id="linearGradient3764-3">
      <stop
         id="stop10121"
         stop-opacity="1"
         stop-color="#0077b4" />
      <stop
         id="stop10123"
         stop-opacity="1"
         stop-color="#0084c8"
         offset="1" />
    </linearGradient>
    <clipPath
       id="clipPath-419917221">
      <g
         id="g11174"
         transform="translate(0,-1004.3622)">
        <path
           id="path11176"
           fill="#1890d0"
           transform="matrix(15.333333,0,0,11.5,414.99999,878.8622)"
           d="m -24 13 c 0 1.105 -0.672 2 -1.5 2 -0.828 0 -1.5 -0.895 -1.5 -2 0 -1.105 0.672 -2 1.5 -2 0.828 0 1.5 0.895 1.5 2 z" />
      </g>
    </clipPath>
    <clipPath
       id="clipPath-412789426">
      <g
         id="g11169"
         transform="translate(0,-1004.3622)">
        <path
           id="path11171"
           fill="#1890d0"
           transform="matrix(15.333333,0,0,11.5,414.99999,878.8622)"
           d="m -24 13 c 0 1.105 -0.672 2 -1.5 2 -0.828 0 -1.5 -0.895 -1.5 -2 0 -1.105 0.672 -2 1.5 -2 0.828 0 1.5 0.895 1.5 2 z" />
      </g>
    </clipPath>
    <linearGradient
       gradientTransform="matrix(0,-1,1,0,-1.5e-6,47.999998)"
       gradientUnits="userSpaceOnUse"
       x2="47"
       x1="1"
       id="linearGradient3764-50">
      <stop
         id="stop11164"
         stop-opacity="1"
         stop-color="#10a3e0" />
      <stop
         id="stop11166"
         stop-opacity="1"
         stop-color="#16afef"
         offset="1" />
    </linearGradient>
    <clipPath
       id="clipPath-426603399">
      <g
         id="g29621"
         transform="translate(0,-1004.3622)">
        <path
           id="path29623"
           fill="#1890d0"
           transform="matrix(15.333333,0,0,11.5,414.99999,878.8622)"
           d="m -24 13 c 0 1.105 -0.672 2 -1.5 2 -0.828 0 -1.5 -0.895 -1.5 -2 0 -1.105 0.672 -2 1.5 -2 0.828 0 1.5 0.895 1.5 2 z" />
      </g>
    </clipPath>
    <clipPath
       id="clipPath-421287351">
      <g
         id="g29616"
         transform="translate(0,-1004.3622)">
        <path
           id="path29618"
           fill="#1890d0"
           transform="matrix(15.333333,0,0,11.5,414.99999,878.8622)"
           d="m -24 13 c 0 1.105 -0.672 2 -1.5 2 -0.828 0 -1.5 -0.895 -1.5 -2 0 -1.105 0.672 -2 1.5 -2 0.828 0 1.5 0.895 1.5 2 z" />
      </g>
    </clipPath>
    <linearGradient
       gradientTransform="matrix(0,-1,1,0,-1.5e-6,47.999998)"
       gradientUnits="userSpaceOnUse"
       x2="47"
       x1="1"
       id="linearGradient3764-0">
      <stop
         id="stop29611"
         stop-opacity="1"
         stop-color="#1f8fed" />
      <stop
         id="stop29613"
         stop-opacity="1"
         stop-color="#3298ef"
         offset="1" />
    </linearGradient>
    <clipPath
       id="clipPath-218378187">
      <g
         id="g30071"
         transform="translate(0,-1004.3622)">
        <path
           id="path30073"
           fill="#1890d0"
           transform="matrix(15.333333,0,0,11.5,414.99999,878.8622)"
           d="m -24 13 c 0 1.105 -0.672 2 -1.5 2 -0.828 0 -1.5 -0.895 -1.5 -2 0 -1.105 0.672 -2 1.5 -2 0.828 0 1.5 0.895 1.5 2 z" />
      </g>
    </clipPath>
    <clipPath
       id="clipPath-212226052">
      <g
         id="g30066"
         transform="translate(0,-1004.3622)">
        <path
           id="path30068"
           fill="#1890d0"
           transform="matrix(15.333333,0,0,11.5,414.99999,878.8622)"
           d="m -24 13 c 0 1.105 -0.672 2 -1.5 2 -0.828 0 -1.5 -0.895 -1.5 -2 0 -1.105 0.672 -2 1.5 -2 0.828 0 1.5 0.895 1.5 2 z" />
      </g>
    </clipPath>
    <linearGradient
       gradientTransform="matrix(0,-1,1,0,-1.5e-6,47.999998)"
       gradientUnits="userSpaceOnUse"
       x2="47"
       x1="1"
       id="linearGradient3764-73">
      <stop
         id="stop30061"
         stop-opacity="1"
         stop-color="#ffb109" />
      <stop
         id="stop30063"
         stop-opacity="1"
         stop-color="#ffb61d"
         offset="1" />
    </linearGradient>
    <linearGradient
       x2="47"
       x1="1"
       gradientTransform="matrix(0,-1,1,0,-1.5e-6,47.999998)"
       gradientUnits="userSpaceOnUse"
       id="linearGradient3166">
      <stop
         id="stop31019"
         stop-opacity="1"
         stop-color="#434343" />
      <stop
         id="stop31021"
         stop-opacity="1"
         stop-color="#4d4d4d"
         offset="1" />
    </linearGradient>
    <clipPath
       id="clipPath31012">
      <g
         id="g31014"
         transform="translate(0,-1004.3622)">
        <path
           id="path31016"
           fill="#1890d0"
           transform="matrix(15.333333,0,0,11.5,414.99999,878.8622)"
           d="m -24 13 c 0 1.105 -0.672 2 -1.5 2 -0.828 0 -1.5 -0.895 -1.5 -2 0 -1.105 0.672 -2 1.5 -2 0.828 0 1.5 0.895 1.5 2 z" />
      </g>
    </clipPath>
    <clipPath
       id="clipPath-242030370">
      <g
         id="g31008"
         transform="translate(0,-1004.3622)">
        <path
           id="path31010"
           fill="#1890d0"
           transform="matrix(15.333333,0,0,11.5,414.99999,878.8622)"
           d="m -24 13 c 0 1.105 -0.672 2 -1.5 2 -0.828 0 -1.5 -0.895 -1.5 -2 0 -1.105 0.672 -2 1.5 -2 0.828 0 1.5 0.895 1.5 2 z" />
      </g>
    </clipPath>
    <clipPath
       id="clipPath-730514797">
      <g
         id="g31792"
         transform="translate(0,-1004.3622)">
        <path
           id="path31794"
           fill="#1890d0"
           transform="matrix(15.333333,0,0,11.5,414.99999,878.8622)"
           d="m -24 13 c 0 1.105 -0.672 2 -1.5 2 -0.828 0 -1.5 -0.895 -1.5 -2 0 -1.105 0.672 -2 1.5 -2 0.828 0 1.5 0.895 1.5 2 z" />
      </g>
    </clipPath>
    <clipPath
       id="clipPath-725264839">
      <g
         id="g31787"
         transform="translate(0,-1004.3622)">
        <path
           id="path31789"
           fill="#1890d0"
           transform="matrix(15.333333,0,0,11.5,414.99999,878.8622)"
           d="m -24 13 c 0 1.105 -0.672 2 -1.5 2 -0.828 0 -1.5 -0.895 -1.5 -2 0 -1.105 0.672 -2 1.5 -2 0.828 0 1.5 0.895 1.5 2 z" />
      </g>
    </clipPath>
    <linearGradient
       gradientTransform="matrix(0,-1,1,0,-1.5e-6,47.999998)"
       gradientUnits="userSpaceOnUse"
       x2="47"
       x1="1"
       id="linearGradient3764-6">
      <stop
         id="stop31782"
         stop-opacity="1"
         stop-color="#e4e4e4" />
      <stop
         id="stop31784"
         stop-opacity="1"
         stop-color="#eee"
         offset="1" />
    </linearGradient>
    <clipPath
       id="clipPath-441163578">
      <g
         id="g32295"
         transform="translate(0,-1004.3622)">
        <path
           id="path32297"
           fill="#1890d0"
           transform="matrix(15.333333,0,0,11.5,414.99999,878.8622)"
           d="m -24 13 c 0 1.105 -0.672 2 -1.5 2 -0.828 0 -1.5 -0.895 -1.5 -2 0 -1.105 0.672 -2 1.5 -2 0.828 0 1.5 0.895 1.5 2 z" />
      </g>
    </clipPath>
    <clipPath
       id="clipPath-428684738">
      <g
         id="g32290"
         transform="translate(0,-1004.3622)">
        <path
           id="path32292"
           fill="#1890d0"
           transform="matrix(15.333333,0,0,11.5,414.99999,878.8622)"
           d="m -24 13 c 0 1.105 -0.672 2 -1.5 2 -0.828 0 -1.5 -0.895 -1.5 -2 0 -1.105 0.672 -2 1.5 -2 0.828 0 1.5 0.895 1.5 2 z" />
      </g>
    </clipPath>
    <linearGradient
       gradientTransform="matrix(0,-1,1,0,-1.5e-6,47.999998)"
       gradientUnits="userSpaceOnUse"
       x2="47"
       x1="1"
       id="linearGradient3764-44">
      <stop
         id="stop32285"
         stop-opacity="1"
         stop-color="#676799" />
      <stop
         id="stop32287"
         stop-opacity="1"
         stop-color="#7373a1"
         offset="1" />
    </linearGradient>
  </defs>
  <sodipodi:namedview
     pagecolor="#ffffff"
     bordercolor="#666666"
     borderopacity="1"
     objecttolerance="10"
     gridtolerance="10"
     guidetolerance="10"
     inkscape:pageopacity="0"
     inkscape:pageshadow="2"
     inkscape:window-width="1316"
     inkscape:window-height="674"
     id="namedview4"
     showgrid="false"
     inkscape:zoom="3.6875"
     inkscape:cx="-19.932204"
     inkscape:cy="32"
     inkscape:window-x="44"
     inkscape:window-y="29"
     inkscape:window-maximized="1"
     inkscape:current-layer="svg2" />
  <rect
     style="fill:#000000;fill-opacity:1;stroke:#000000;stroke-width:0.53665989999999997;stroke-linecap:round;stroke-linejoin:round;stroke-miterlimit:4;stroke-opacity:1;stroke-dasharray:none"
     id="rect3005"
     width="59.081985"
     height="59.624359"
     x="2.4590092"
     y="2.1878221"
     ry="5.9392786"
     rx="5.9392786" />
  <g
     id="g3685"
     transform="translate(-102.87188,6.4152542)" />
  <g
     id="g7542"
     transform="translate(-127.14307,0.44915254)" />
  <g
     id="g8732"
     transform="translate(-104.09222,-1.1779661)" />
  <g
     id="g10147"
     transform="translate(-97.583746,-4.9745763)" />
  <g
     id="g11190"
     transform="translate(-110.05832,3.9745763)" />
  <g
     id="g29637"
     transform="translate(-131.48205,-15.822034)" />
  <g
     id="g30087"
     transform="translate(-115.21087,-6.8728814)" />
  <g
     id="g31808"
     transform="translate(-134.19392,-0.90677966)" />
  <g
     id="g32311"
     transform="translate(-105.17697,-10.669492)" />
  <path
     id="path32355"
     d="m 27.344486,19.620189 c -1.197107,-0.837678 -2.468382,-1.511077 -3.76506,-2.04475 0.01268,-0.01581 0.01907,-0.0237 0.03181,-0.03952 -1.449715,-0.591348 -2.675606,-0.884011 -2.912208,-0.941487 -0.01907,0.0237 -0.03657,0.04545 -0.05564,0.06916 -0.0093,-0.0065 -0.03423,-0.01158 -0.05914,-0.01667 -0.562398,0.946779 -1.06349,1.92102 -1.284622,2.371587 -1.858866,4.211866 -1.372682,9.101142 1.126162,13.26477 -0.210929,0.226085 -0.424785,0.437767 -0.623518,0.684742 -2.620083,3.256104 -3.453278,7.283905 -2.711544,11.166094 -0.02495,-0.0052 0.0059,0.0288 -0.01907,0.0237 0.2574,1.072639 0.692956,2.415089 0.787544,2.685105 0.03429,0.06104 0.100306,0.141227 0.100398,0.190696 1.321212,-0.04211 2.595604,-0.197285 2.928929,-0.241985 4.20603,-0.423058 8.118556,-2.292994 10.738639,-5.549098 0.179655,-0.223264 0.308137,-0.47307 0.48083,-0.701205 5.012183,1.166366 10.224573,0.267783 14.093523,-2.55296 -0.01213,-0.02093 0.02201,-0.0093 0.01908,-0.0237 1.016009,-0.771426 2.026011,-1.670589 2.113453,-1.779257 -0.01213,-0.02093 -0.03368,-0.04828 -0.04357,-0.06752 0.04293,-0.05336 -0.0065,0.0079 0.03657,-0.04545 -0.364467,-0.570044 -1.281025,-1.751864 -1.773612,-2.374499 -0.0318,0.03952 0.01268,-0.01581 -0.01907,0.0237 -0.939255,-1.067991 -2.02455,-2.080674 -3.256452,-2.942704 -2.981163,-2.086082 -6.395489,-3.196715 -9.758368,-3.415889 -1.323099,-0.04567 -2.334235,-0.006 -2.991686,0.04056 -0.07819,0.007 -0.140285,0.03464 -0.218479,0.04169 -2.237799,0.243835 -4.362936,0.915483 -6.273235,1.969087 0.434216,0.884445 0.91235,1.700795 1.35281,2.419754 1.623977,-0.96366 3.496384,-1.546561 5.448896,-1.773846 0.02201,-0.0093 0.08933,-0.02089 0.133918,-0.02673 0.09628,-0.016 0.202836,-0.04028 0.333325,-0.0447 0.03762,-0.0107 0.06547,0.0088 0.10849,0.0048 1.292257,-0.03765 2.241989,0.01234 2.924395,0.07911 0.336799,0.0411 0.678966,0.08907 1.012324,0.152485 2.186577,0.39666 4.326973,1.242783 6.275748,2.606445 1.159983,0.811705 2.174479,1.750137 3.010538,2.770623 -3.030374,2.391488 -7.132938,3.285337 -11.183732,2.560085 0.880165,-1.990626 1.267493,-4.143907 1.126052,-6.29351 -1.476133,-0.103348 -2.810879,-0.0985 -2.911672,-0.09492 0.12209,1.75003 -0.154096,3.499304 -0.847293,5.1359 0,0 -0.06488,0.170774 -0.204422,0.483878 -0.07233,0.143959 -0.108806,0.238872 -0.25186,0.524802 -0.351469,0.720699 -0.940788,1.41702 -1.179007,1.695039 -0.04293,0.05335 -0.162166,0.201532 -0.162166,0.201532 l -0.05327,0.01209 c -2.239961,2.607957 -5.487662,4.075295 -8.973719,4.338174 -0.732801,-3.298428 -0.07955,-6.751099 2.155193,-9.541834 0.942175,1.08239 2.031509,2.085544 3.284292,2.962184 0.679751,0.47566 1.408787,0.890072 2.129065,1.261288 0.19928,-0.175558 0.401536,-0.395357 0.699911,-0.730112 0.525468,-0.59894 0.775219,-1.085069 0.893348,-1.376092 -0.708071,-0.350335 -1.398873,-0.762687 -2.050784,-1.218866 -1.169265,-0.818199 -2.183761,-1.756629 -3.035456,-2.775706 -0.724499,-0.735506 -1.236395,-1.6496 -1.568369,-2.363676 -0.190389,-0.39882 -0.307576,-0.672296 -0.375019,-0.818313 -1.41694,-3.187291 -1.509245,-6.713868 -0.01795,-9.783941 1.2282,0.461046 2.424636,1.069722 3.549819,1.857076 1.640219,1.14775 2.94538,2.518111 3.92202,4.035361 1.135782,-0.07305 2.416989,-0.04743 3.135961,-0.02609 -1.22513,-2.280998 -3.03623,-4.379074 -5.41884,-6.046315 m 0.01213,0.02093"
     inkscape:connector-curvature="0"
     style="fill:#ffffff;fill-opacity:1;fill-rule:nonzero;stroke:none" />
</svg>
