<?xml version="1.0" encoding="UTF-8" standalone="no"?>
<!-- Created with Inkscape (http://www.inkscape.org/) -->

<svg
   xmlns:dc="http://purl.org/dc/elements/1.1/"
   xmlns:cc="http://creativecommons.org/ns#"
   xmlns:rdf="http://www.w3.org/1999/02/22-rdf-syntax-ns#"
   xmlns:svg="http://www.w3.org/2000/svg"
   xmlns="http://www.w3.org/2000/svg"
   xmlns:sodipodi="http://sodipodi.sourceforge.net/DTD/sodipodi-0.dtd"
   xmlns:inkscape="http://www.inkscape.org/namespaces/inkscape"
   id="svg2"
   version="1.1"
   inkscape:version="0.48.4 r9939"
   width="64"
   height="64"
   sodipodi:docname="ARCH-LOGO.svg">
  <metadata
     id="metadata8">
    <rdf:RDF>
      <cc:Work
         rdf:about="">
        <dc:format>image/svg+xml</dc:format>
        <dc:type
           rdf:resource="http://purl.org/dc/dcmitype/StillImage" />
        <dc:title></dc:title>
      </cc:Work>
    </rdf:RDF>
  </metadata>
  <defs
     id="defs6">
    <clipPath
       id="clipPath-055917835">
      <g
         id="g4144"
         transform="translate(0,-1004.3622)">
        <path
           id="path4146"
           fill="#1890d0"
           transform="matrix(15.333333,0,0,11.5,414.99999,878.8622)"
           d="m -24 13 c 0 1.105 -0.672 2 -1.5 2 -0.828 0 -1.5 -0.895 -1.5 -2 0 -1.105 0.672 -2 1.5 -2 0.828 0 1.5 0.895 1.5 2 z" />
      </g>
    </clipPath>
    <clipPath
       id="clipPath-046900192">
      <g
         id="g4139"
         transform="translate(0,-1004.3622)">
        <path
           id="path4141"
           fill="#1890d0"
           transform="matrix(15.333333,0,0,11.5,414.99999,878.8622)"
           d="m -24 13 c 0 1.105 -0.672 2 -1.5 2 -0.828 0 -1.5 -0.895 -1.5 -2 0 -1.105 0.672 -2 1.5 -2 0.828 0 1.5 0.895 1.5 2 z" />
      </g>
    </clipPath>
    <linearGradient
       gradientTransform="matrix(0,-1,1,0,-1.5e-6,47.999998)"
       gradientUnits="userSpaceOnUse"
       x2="47"
       x1="1"
       id="linearGradient3764">
      <stop
         id="stop4134"
         stop-opacity="1"
         stop-color="#e4e4e4" />
      <stop
         id="stop4136"
         stop-opacity="1"
         stop-color="#eee"
         offset="1" />
    </linearGradient>
    <clipPath
       id="clipPath-183935099">
      <g
         id="g4609"
         transform="translate(0,-1004.3622)">
        <path
           id="path4611"
           fill="#1890d0"
           transform="matrix(15.333333,0,0,11.5,414.99999,878.8622)"
           d="m -24 13 c 0 1.105 -0.672 2 -1.5 2 -0.828 0 -1.5 -0.895 -1.5 -2 0 -1.105 0.672 -2 1.5 -2 0.828 0 1.5 0.895 1.5 2 z" />
      </g>
    </clipPath>
    <clipPath
       id="clipPath-172451806">
      <g
         id="g4604"
         transform="translate(0,-1004.3622)">
        <path
           id="path4606"
           fill="#1890d0"
           transform="matrix(15.333333,0,0,11.5,414.99999,878.8622)"
           d="m -24 13 c 0 1.105 -0.672 2 -1.5 2 -0.828 0 -1.5 -0.895 -1.5 -2 0 -1.105 0.672 -2 1.5 -2 0.828 0 1.5 0.895 1.5 2 z" />
      </g>
    </clipPath>
    <linearGradient
       gradientTransform="matrix(0,-1,1,0,-1.5e-6,47.999998)"
       gradientUnits="userSpaceOnUse"
       x2="47"
       x1="1"
       id="linearGradient3764-9">
      <stop
         id="stop4599"
         stop-opacity="1"
         stop-color="#97b2d3" />
      <stop
         id="stop4601"
         stop-opacity="1"
         stop-color="#a5bcd9"
         offset="1" />
    </linearGradient>
    <clipPath
       id="clipPath-239231159">
      <g
         id="g5340"
         transform="translate(0,-1004.3622)">
        <path
           id="path5342"
           fill="#1890d0"
           transform="matrix(15.333333,0,0,11.5,414.99999,878.8622)"
           d="m -24 13 c 0 1.105 -0.672 2 -1.5 2 -0.828 0 -1.5 -0.895 -1.5 -2 0 -1.105 0.672 -2 1.5 -2 0.828 0 1.5 0.895 1.5 2 z" />
      </g>
    </clipPath>
    <clipPath
       id="clipPath-233610327">
      <g
         id="g5335"
         transform="translate(0,-1004.3622)">
        <path
           id="path5337"
           fill="#1890d0"
           transform="matrix(15.333333,0,0,11.5,414.99999,878.8622)"
           d="m -24 13 c 0 1.105 -0.672 2 -1.5 2 -0.828 0 -1.5 -0.895 -1.5 -2 0 -1.105 0.672 -2 1.5 -2 0.828 0 1.5 0.895 1.5 2 z" />
      </g>
    </clipPath>
    <linearGradient
       gradientTransform="matrix(0,-1,1,0,-1.5e-6,47.999998)"
       gradientUnits="userSpaceOnUse"
       x2="47"
       x1="1"
       id="linearGradient3764-1">
      <stop
         id="stop5330"
         stop-opacity="1"
         stop-color="#b93b3b" />
      <stop
         id="stop5332"
         stop-opacity="1"
         stop-color="#c34545"
         offset="1" />
    </linearGradient>
    <clipPath
       id="clipPath-483879499">
      <g
         id="g7096"
         transform="translate(0,-1004.3622)">
        <path
           id="path7098"
           fill="#1890d0"
           transform="matrix(15.333333,0,0,11.5,414.99999,878.8622)"
           d="m -24 13 c 0 1.105 -0.672 2 -1.5 2 -0.828 0 -1.5 -0.895 -1.5 -2 0 -1.105 0.672 -2 1.5 -2 0.828 0 1.5 0.895 1.5 2 z" />
      </g>
    </clipPath>
    <clipPath
       id="clipPath-478329641">
      <g
         id="g7091"
         transform="translate(0,-1004.3622)">
        <path
           id="path7093"
           fill="#1890d0"
           transform="matrix(15.333333,0,0,11.5,414.99999,878.8622)"
           d="m -24 13 c 0 1.105 -0.672 2 -1.5 2 -0.828 0 -1.5 -0.895 -1.5 -2 0 -1.105 0.672 -2 1.5 -2 0.828 0 1.5 0.895 1.5 2 z" />
      </g>
    </clipPath>
    <linearGradient
       gradientTransform="matrix(0,-1,1,0,-1.5e-6,47.999998)"
       gradientUnits="userSpaceOnUse"
       x2="47"
       x1="1"
       id="linearGradient3764-5">
      <stop
         id="stop7086"
         stop-opacity="1"
         stop-color="#333" />
      <stop
         id="stop7088"
         stop-opacity="1"
         stop-color="#3d3d3d"
         offset="1" />
    </linearGradient>
    <clipPath
       id="clipPath-139920786">
      <g
         id="g7899"
         transform="translate(0,-1004.3622)">
        <path
           id="path7901"
           fill="#1890d0"
           transform="matrix(15.333333,0,0,11.5,414.99999,878.8622)"
           d="m -24 13 c 0 1.105 -0.672 2 -1.5 2 -0.828 0 -1.5 -0.895 -1.5 -2 0 -1.105 0.672 -2 1.5 -2 0.828 0 1.5 0.895 1.5 2 z" />
      </g>
    </clipPath>
    <clipPath
       id="clipPath-128127935">
      <g
         id="g7894"
         transform="translate(0,-1004.3622)">
        <path
           id="path7896"
           fill="#1890d0"
           transform="matrix(15.333333,0,0,11.5,414.99999,878.8622)"
           d="m -24 13 c 0 1.105 -0.672 2 -1.5 2 -0.828 0 -1.5 -0.895 -1.5 -2 0 -1.105 0.672 -2 1.5 -2 0.828 0 1.5 0.895 1.5 2 z" />
      </g>
    </clipPath>
    <linearGradient
       gradientTransform="matrix(0,-1,1,0,-1.5e-6,47.999998)"
       gradientUnits="userSpaceOnUse"
       x2="47"
       x1="1"
       id="linearGradient3764-8">
      <stop
         id="stop7889"
         stop-opacity="1"
         stop-color="#e33562" />
      <stop
         id="stop7891"
         stop-opacity="1"
         stop-color="#e64772"
         offset="1" />
    </linearGradient>
    <clipPath
       id="clipPath-291383647">
      <g
         id="g8425"
         transform="translate(0,-1004.3622)">
        <path
           id="path8427"
           fill="#1890d0"
           transform="matrix(15.333333,0,0,11.5,414.99999,878.8622)"
           d="m -24 13 c 0 1.105 -0.672 2 -1.5 2 -0.828 0 -1.5 -0.895 -1.5 -2 0 -1.105 0.672 -2 1.5 -2 0.828 0 1.5 0.895 1.5 2 z" />
      </g>
    </clipPath>
    <clipPath
       id="clipPath-285700110">
      <g
         id="g8420"
         transform="translate(0,-1004.3622)">
        <path
           id="path8422"
           fill="#1890d0"
           transform="matrix(15.333333,0,0,11.5,414.99999,878.8622)"
           d="m -24 13 c 0 1.105 -0.672 2 -1.5 2 -0.828 0 -1.5 -0.895 -1.5 -2 0 -1.105 0.672 -2 1.5 -2 0.828 0 1.5 0.895 1.5 2 z" />
      </g>
    </clipPath>
    <linearGradient
       gradientTransform="matrix(0,-1,1,0,-1.5e-6,47.999998)"
       gradientUnits="userSpaceOnUse"
       x2="47"
       x1="1"
       id="linearGradient3764-13">
      <stop
         id="stop8415"
         stop-opacity="1"
         stop-color="#b93b3b" />
      <stop
         id="stop8417"
         stop-opacity="1"
         stop-color="#c34545"
         offset="1" />
    </linearGradient>
    <clipPath
       id="clipPath-898578971">
      <g
         id="g9278"
         transform="translate(0,-1004.3622)">
        <path
           id="path9280"
           fill="#1890d0"
           transform="matrix(15.333333,0,0,11.5,414.99999,878.8622)"
           d="m -24 13 c 0 1.105 -0.672 2 -1.5 2 -0.828 0 -1.5 -0.895 -1.5 -2 0 -1.105 0.672 -2 1.5 -2 0.828 0 1.5 0.895 1.5 2 z" />
      </g>
    </clipPath>
    <clipPath
       id="clipPath-887079119">
      <g
         id="g9273"
         transform="translate(0,-1004.3622)">
        <path
           id="path9275"
           fill="#1890d0"
           transform="matrix(15.333333,0,0,11.5,414.99999,878.8622)"
           d="m -24 13 c 0 1.105 -0.672 2 -1.5 2 -0.828 0 -1.5 -0.895 -1.5 -2 0 -1.105 0.672 -2 1.5 -2 0.828 0 1.5 0.895 1.5 2 z" />
      </g>
    </clipPath>
    <linearGradient
       gradientTransform="matrix(0,-1,1,0,-1.5e-6,47.999998)"
       gradientUnits="userSpaceOnUse"
       x2="47"
       x1="1"
       id="linearGradient3764-7">
      <stop
         id="stop9268"
         stop-opacity="1"
         stop-color="#b93b3b" />
      <stop
         id="stop9270"
         stop-opacity="1"
         stop-color="#c34545"
         offset="1" />
    </linearGradient>
    <clipPath
       id="clipPath-262930867">
      <g
         id="g10787"
         transform="translate(0,-1004.3622)">
        <path
           id="path10789"
           fill="#1890d0"
           transform="matrix(15.333333,0,0,11.5,414.99999,878.8622)"
           d="m -24 13 c 0 1.105 -0.672 2 -1.5 2 -0.828 0 -1.5 -0.895 -1.5 -2 0 -1.105 0.672 -2 1.5 -2 0.828 0 1.5 0.895 1.5 2 z" />
      </g>
    </clipPath>
    <clipPath
       id="clipPath-253146245">
      <g
         id="g10782"
         transform="translate(0,-1004.3622)">
        <path
           id="path10784"
           fill="#1890d0"
           transform="matrix(15.333333,0,0,11.5,414.99999,878.8622)"
           d="m -24 13 c 0 1.105 -0.672 2 -1.5 2 -0.828 0 -1.5 -0.895 -1.5 -2 0 -1.105 0.672 -2 1.5 -2 0.828 0 1.5 0.895 1.5 2 z" />
      </g>
    </clipPath>
    <linearGradient
       gradientTransform="matrix(0,-1,1,0,-1.5e-6,47.999998)"
       gradientUnits="userSpaceOnUse"
       x2="47"
       x1="1"
       id="linearGradient3764-72">
      <stop
         id="stop10777"
         stop-opacity="1"
         stop-color="#333" />
      <stop
         id="stop10779"
         stop-opacity="1"
         stop-color="#3d3d3d"
         offset="1" />
    </linearGradient>
    <clipPath
       id="clipPath-054702263">
      <g
         id="g14438"
         transform="translate(0,-1004.3622)">
        <path
           id="path14440"
           fill="#1890d0"
           transform="matrix(15.333333,0,0,11.5,414.99999,878.8622)"
           d="m -24 13 c 0 1.105 -0.672 2 -1.5 2 -0.828 0 -1.5 -0.895 -1.5 -2 0 -1.105 0.672 -2 1.5 -2 0.828 0 1.5 0.895 1.5 2 z" />
      </g>
    </clipPath>
    <clipPath
       id="clipPath-042046698">
      <g
         id="g14433"
         transform="translate(0,-1004.3622)">
        <path
           id="path14435"
           fill="#1890d0"
           transform="matrix(15.333333,0,0,11.5,414.99999,878.8622)"
           d="m -24 13 c 0 1.105 -0.672 2 -1.5 2 -0.828 0 -1.5 -0.895 -1.5 -2 0 -1.105 0.672 -2 1.5 -2 0.828 0 1.5 0.895 1.5 2 z" />
      </g>
    </clipPath>
    <linearGradient
       gradientTransform="matrix(0,-1,1,0,-1.5e-6,47.999998)"
       gradientUnits="userSpaceOnUse"
       x2="47"
       x1="1"
       id="linearGradient3764-2">
      <stop
         id="stop14428"
         stop-opacity="1"
         stop-color="#ec9b28" />
      <stop
         id="stop14430"
         stop-opacity="1"
         stop-color="#eea53a"
         offset="1" />
    </linearGradient>
    <clipPath
       id="clipPath-448465917">
      <g
         id="g16334"
         transform="translate(0,-1004.3622)">
        <path
           id="path16336"
           fill="#1890d0"
           transform="matrix(15.333333,0,0,11.5,414.99999,878.8622)"
           d="m -24 13 c 0 1.105 -0.672 2 -1.5 2 -0.828 0 -1.5 -0.895 -1.5 -2 0 -1.105 0.672 -2 1.5 -2 0.828 0 1.5 0.895 1.5 2 z" />
      </g>
    </clipPath>
    <clipPath
       id="clipPath-441467043">
      <g
         id="g16329"
         transform="translate(0,-1004.3622)">
        <path
           id="path16331"
           fill="#1890d0"
           transform="matrix(15.333333,0,0,11.5,414.99999,878.8622)"
           d="m -24 13 c 0 1.105 -0.672 2 -1.5 2 -0.828 0 -1.5 -0.895 -1.5 -2 0 -1.105 0.672 -2 1.5 -2 0.828 0 1.5 0.895 1.5 2 z" />
      </g>
    </clipPath>
    <linearGradient
       gradientTransform="matrix(0,-1,1,0,-1.5e-6,47.999998)"
       gradientUnits="userSpaceOnUse"
       x2="47"
       x1="1"
       id="linearGradient3764-27">
      <stop
         id="stop16324"
         stop-opacity="1"
         stop-color="#527fb2" />
      <stop
         id="stop16326"
         stop-opacity="1"
         stop-color="#5f88b8"
         offset="1" />
    </linearGradient>
    <clipPath
       id="clipPath-895829878">
      <g
         id="g20152"
         transform="translate(0,-1004.3622)">
        <path
           id="path20154"
           fill="#1890d0"
           transform="matrix(15.333333,0,0,11.5,414.99999,878.8622)"
           d="m -24 13 c 0 1.105 -0.672 2 -1.5 2 -0.828 0 -1.5 -0.895 -1.5 -2 0 -1.105 0.672 -2 1.5 -2 0.828 0 1.5 0.895 1.5 2 z" />
      </g>
    </clipPath>
    <clipPath
       id="clipPath-886701251">
      <g
         id="g20147"
         transform="translate(0,-1004.3622)">
        <path
           id="path20149"
           fill="#1890d0"
           transform="matrix(15.333333,0,0,11.5,414.99999,878.8622)"
           d="m -24 13 c 0 1.105 -0.672 2 -1.5 2 -0.828 0 -1.5 -0.895 -1.5 -2 0 -1.105 0.672 -2 1.5 -2 0.828 0 1.5 0.895 1.5 2 z" />
      </g>
    </clipPath>
    <linearGradient
       gradientTransform="matrix(0,-1,1,0,-1.5e-6,47.999998)"
       gradientUnits="userSpaceOnUse"
       x2="47"
       x1="1"
       id="linearGradient3764-4">
      <stop
         id="stop20142"
         stop-opacity="1"
         stop-color="#008bb8" />
      <stop
         id="stop20144"
         stop-opacity="1"
         stop-color="#009acd"
         offset="1" />
    </linearGradient>
    <clipPath
       id="clipPath-626667287">
      <g
         id="g24492"
         transform="translate(0,-1004.3622)">
        <path
           id="path24494"
           fill="#1890d0"
           transform="matrix(15.333333,0,0,11.5,414.99999,878.8622)"
           d="m -24 13 c 0 1.105 -0.672 2 -1.5 2 -0.828 0 -1.5 -0.895 -1.5 -2 0 -1.105 0.672 -2 1.5 -2 0.828 0 1.5 0.895 1.5 2 z" />
      </g>
    </clipPath>
    <clipPath
       id="clipPath-617306126">
      <g
         id="g24487"
         transform="translate(0,-1004.3622)">
        <path
           id="path24489"
           fill="#1890d0"
           transform="matrix(15.333333,0,0,11.5,414.99999,878.8622)"
           d="m -24 13 c 0 1.105 -0.672 2 -1.5 2 -0.828 0 -1.5 -0.895 -1.5 -2 0 -1.105 0.672 -2 1.5 -2 0.828 0 1.5 0.895 1.5 2 z" />
      </g>
    </clipPath>
    <linearGradient
       gradientTransform="matrix(0,-1,1,0,-1.5e-6,47.999998)"
       gradientUnits="userSpaceOnUse"
       x2="47"
       x1="1"
       id="linearGradient3764-80">
      <stop
         id="stop24482"
         stop-opacity="1"
         stop-color="#1791d1" />
      <stop
         id="stop24484"
         stop-opacity="1"
         stop-color="#19a0e3"
         offset="1" />
    </linearGradient>
    <clipPath
       id="clipPath-548721082">
      <g
         id="g27457"
         transform="translate(0,-1004.3622)">
        <path
           id="path27459"
           fill="#1890d0"
           transform="matrix(15.333333,0,0,11.5,414.99999,878.8622)"
           d="m -24 13 c 0 1.105 -0.672 2 -1.5 2 -0.828 0 -1.5 -0.895 -1.5 -2 0 -1.105 0.672 -2 1.5 -2 0.828 0 1.5 0.895 1.5 2 z" />
      </g>
    </clipPath>
    <clipPath
       id="clipPath-542141410">
      <g
         id="g27452"
         transform="translate(0,-1004.3622)">
        <path
           id="path27454"
           fill="#1890d0"
           transform="matrix(15.333333,0,0,11.5,414.99999,878.8622)"
           d="m -24 13 c 0 1.105 -0.672 2 -1.5 2 -0.828 0 -1.5 -0.895 -1.5 -2 0 -1.105 0.672 -2 1.5 -2 0.828 0 1.5 0.895 1.5 2 z" />
      </g>
    </clipPath>
    <linearGradient
       gradientTransform="matrix(0,-1,1,0,-1.5e-6,47.999998)"
       gradientUnits="userSpaceOnUse"
       x2="47"
       x1="1"
       id="linearGradient3764-12">
      <stop
         id="stop27447"
         stop-opacity="1"
         stop-color="#4a343d" />
      <stop
         id="stop27449"
         stop-opacity="1"
         stop-color="#563c47"
         offset="1" />
    </linearGradient>
  </defs>
  <sodipodi:namedview
     pagecolor="#ffffff"
     bordercolor="#666666"
     borderopacity="1"
     objecttolerance="10"
     gridtolerance="10"
     guidetolerance="10"
     inkscape:pageopacity="0"
     inkscape:pageshadow="2"
     inkscape:window-width="1316"
     inkscape:window-height="674"
     id="namedview4"
     showgrid="false"
     inkscape:zoom="3.6875"
     inkscape:cx="-19.932204"
     inkscape:cy="32"
     inkscape:window-x="44"
     inkscape:window-y="29"
     inkscape:window-maximized="1"
     inkscape:current-layer="svg2" />
  <rect
     style="fill:#000000;fill-opacity:1;stroke:#000000;stroke-width:0.53665989999999997;stroke-linecap:round;stroke-linejoin:round;stroke-miterlimit:4;stroke-opacity:1;stroke-dasharray:none"
     id="rect3005"
     width="59.081985"
     height="59.624359"
     x="2.4590092"
     y="2.1878221"
     ry="5.9392786"
     rx="5.9392786" />
  <g
     id="g4160"
     transform="translate(-138.39731,-16.90678)" />
  <g
     id="g4625"
     transform="translate(-87.414255,-10.940679)" />
  <g
     id="g5356"
     transform="translate(-107.21086,-6.8728814)" />
  <g
     id="g7112"
     transform="translate(-106.80409,-6.6016949)" />
  <g
     id="g7915"
     transform="translate(-147.21087,-13.381356)" />
  <g
     id="g8441"
     transform="translate(-104.36341,-3.0762712)" />
  <g
     id="g9294"
     transform="translate(-132.83798,-14.737288)" />
  <g
     id="g10803"
     transform="translate(-81.854938,-12.838983)" />
  <g
     id="g14454"
     transform="translate(-119.82103,-4.1610169)" />
  <g
     id="g20168"
     transform="translate(-123.07527,-6.8728814)" />
  <g
     id="g24508"
     transform="translate(-44.431204,7.5)" />
  <g
     id="g27473"
     transform="translate(-44.431204,7.5)" />
  <g
     id="g27489"
     transform="matrix(1.5628941,0,0,1.6676731,-4.7883214,-7.852318)">
    <g
       clip-path="url(#clipPath-548721082)"
       id="g27491">
      <!-- color: #563c47 -->
      <g
         id="g27493">
        <path
           style="fill:#f9f9f9;fill-opacity:1;fill-rule:nonzero;stroke:none"
           inkscape:connector-curvature="0"
           d="m 23.863,10 c -0.977,0 -1.98,0.133 -2.969,0.395 -6.32,1.66 -10.06,7.984 -8.367,14.164 l 1.934,-0.48 c -0.219,-0.805 -0.363,-1.641 -0.363,-2.508 0,-5.332 4.398,-9.637 9.855,-9.637 5.453,0 9.898,4.305 9.898,9.637 0,0.867 -0.137,1.707 -0.359,2.508 l 1.934,0.48 c 0.539,-1.965 0.539,-4.02 0,-5.984 C 33.996,13.36 29.141,9.946 23.852,9.997 m 0.012,0.004"
           id="path27495" />
        <path
           style="fill:#f9f9f9;fill-opacity:1;fill-rule:nonzero;stroke:none"
           inkscape:connector-curvature="0"
           d="m 26.34,24.695 c -0.09,-0.016 -0.172,0.043 -0.227,0.086 -0.051,0.047 -0.066,0.086 -0.09,0.133 -0.043,0.094 -0.063,0.215 -0.086,0.352 -0.055,0.277 -0.109,0.645 -0.137,1.102 -0.055,0.914 -0.102,2.129 -0.133,3.344 -0.031,1.219 -0.063,2.438 -0.137,3.344 -0.035,0.453 -0.074,0.852 -0.133,1.102 -0.008,0.031 -0.039,0.023 -0.047,0.043 -0.051,-0.188 -0.105,-0.477 -0.133,-0.836 -0.066,-0.719 -0.066,-1.672 -0.09,-2.641 -0.027,-0.973 -0.07,-1.945 -0.141,-2.684 -0.027,-0.371 -0.063,-0.688 -0.137,-0.926 -0.031,-0.121 -0.078,-0.219 -0.133,-0.309 -0.059,-0.086 -0.129,-0.176 -0.27,-0.176 -0.109,0 -0.246,0.066 -0.316,0.129 -0.07,0.066 -0.094,0.137 -0.133,0.219 -0.074,0.172 -0.102,0.371 -0.137,0.617 -0.066,0.488 -0.109,1.129 -0.133,1.758 -0.023,0.629 -0.031,1.258 -0.09,1.715 -0.031,0.227 -0.09,0.422 -0.133,0.531 -0.023,0.051 -0.039,0.078 -0.047,0.086 -0.012,0 -0.031,-0.027 -0.047,-0.043 -0.027,-0.027 -0.066,-0.113 -0.09,-0.219 -0.047,-0.207 -0.07,-0.516 -0.086,-0.836 -0.016,-0.316 -0.012,-0.652 -0.09,-0.926 -0.039,-0.137 -0.082,-0.246 -0.18,-0.352 -0.102,-0.105 -0.289,-0.184 -0.449,-0.176 -0.195,0.016 -0.324,0.156 -0.406,0.305 -0.078,0.152 -0.145,0.324 -0.18,0.531 -0.07,0.41 -0.07,0.941 -0.086,1.449 -0.02,0.512 -0.031,1.012 -0.09,1.363 -0.027,0.164 -0.102,0.277 -0.137,0.355 -0.012,-0.031 -0.027,-0.043 -0.043,-0.09 -0.055,-0.188 -0.102,-0.453 -0.137,-0.789 -0.07,-0.688 -0.102,-1.598 -0.133,-2.516 -0.031,-0.922 -0.027,-1.852 -0.09,-2.555 -0.031,-0.348 -0.078,-0.656 -0.133,-0.879 -0.031,-0.109 -0.082,-0.18 -0.145,-0.262 -0.055,-0.086 -0.125,-0.219 -0.27,-0.219 -0.133,0 -0.262,0.094 -0.313,0.176 -0.055,0.078 -0.063,0.16 -0.09,0.266 -0.059,0.203 -0.105,0.473 -0.133,0.789 -0.066,0.633 -0.102,1.461 -0.137,2.289 -0.035,0.824 -0.066,1.637 -0.133,2.242 -0.035,0.301 -0.086,0.547 -0.137,0.699 -0.031,-0.078 -0.109,-0.168 -0.133,-0.305 -0.059,-0.348 -0.063,-0.793 -0.09,-1.273 -0.027,-0.484 -0.059,-0.98 -0.133,-1.363 -0.039,-0.191 -0.102,-0.391 -0.184,-0.531 -0.078,-0.141 -0.215,-0.266 -0.402,-0.266 -0.133,0 -0.258,0.094 -0.316,0.176 -0.055,0.086 -0.102,0.16 -0.133,0.266 -0.063,0.223 -0.109,0.512 -0.137,0.848 -0.051,0.664 -0.027,1.547 -0.043,2.418 -0.016,0.871 -0.063,1.727 -0.137,2.375 -0.035,0.313 -0.078,0.582 -0.133,0.75 -0.023,0.055 -0.027,0.102 -0.047,0.129 -0.023,-0.039 -0.066,-0.086 -0.09,-0.176 -0.035,-0.121 -0.066,-0.355 -0.09,-0.531 l 0.09,0 -0.137,-0.441 c -0.008,-0.023 0,-0.066 0,-0.09 -0.07,-0.816 -0.113,-1.902 -0.141,-2.988 -0.02,-1.117 -0.035,-2.234 -0.086,-3.078 -0.023,-0.422 -0.035,-0.797 -0.09,-1.055 -0.027,-0.133 -0.086,-0.211 -0.133,-0.309 -0.023,-0.047 -0.039,-0.09 -0.09,-0.129 -0.051,-0.043 -0.141,-0.102 -0.227,-0.098 -0.156,0 -0.223,0.125 -0.27,0.227 -0.051,0.094 -0.063,0.184 -0.09,0.309 -0.051,0.25 -0.105,0.57 -0.133,0.965 -0.027,0.379 -0.031,0.902 -0.047,1.363 l -1.078,-4.047 -2.43,0.66 c -1.324,0.348 -2.066,1.648 -1.711,2.941 l 1.258,4.664 c 0.355,1.293 1.691,2.066 3.02,1.723 0.707,-0.113 1.172,-0.289 1.887,-0.484 0.031,0.16 0.055,0.359 0.09,0.484 0.039,0.137 0.07,0.254 0.133,0.352 0.066,0.094 0.215,0.223 0.363,0.219 0.125,0 0.242,-0.094 0.316,-0.176 0.07,-0.086 0.094,-0.199 0.133,-0.309 0.082,-0.227 0.141,-0.5 0.18,-0.836 0.078,-0.676 0.078,-1.551 0.09,-2.418 0.016,-0.871 0.039,-1.738 0.09,-2.383 0.023,-0.313 0.039,-0.582 0.086,-0.742 0.016,-0.063 0.031,-0.105 0.047,-0.137 0.004,0 0.004,-0.023 0.047,0.043 0.043,0.07 0.059,0.23 0.086,0.398 0.07,0.34 0.109,0.797 0.137,1.277 0.027,0.477 0.074,0.977 0.133,1.355 0.031,0.195 0.066,0.344 0.141,0.484 0.031,0.07 0.07,0.164 0.137,0.219 0.063,0.059 0.133,0.086 0.227,0.09 0.133,0 0.258,-0.098 0.316,-0.176 0.059,-0.082 0.102,-0.164 0.133,-0.266 0.063,-0.203 0.102,-0.477 0.137,-0.793 0.074,-0.629 0.102,-1.414 0.133,-2.238 0.035,-0.828 0.074,-1.68 0.137,-2.289 0.027,-0.246 0.055,-0.418 0.086,-0.574 0.039,0.18 0.109,0.422 0.137,0.703 0.063,0.68 0.102,1.59 0.133,2.508 0.031,0.922 0.063,1.852 0.137,2.551 0.035,0.355 0.07,0.652 0.133,0.879 0.035,0.117 0.078,0.184 0.137,0.27 0.055,0.086 0.129,0.215 0.27,0.219 0.191,0.02 0.371,-0.16 0.449,-0.305 0.074,-0.148 0.102,-0.328 0.133,-0.531 0.066,-0.395 0.117,-0.895 0.137,-1.41 0.02,-0.508 0.027,-1 0.086,-1.355 0.031,-0.188 0.047,-0.316 0.09,-0.398 0.043,-0.078 0.082,-0.086 0.09,-0.086 0.047,0 0.066,0.016 0.086,0.043 0.027,0.023 0.066,0.074 0.09,0.176 0.066,0.195 0.074,0.516 0.09,0.836 0.02,0.316 0.023,0.652 0.094,0.926 0.031,0.137 0.094,0.242 0.18,0.352 0.09,0.109 0.246,0.176 0.406,0.176 0.102,0 0.203,-0.016 0.27,-0.086 0.063,-0.066 0.098,-0.18 0.133,-0.266 0.07,-0.168 0.105,-0.371 0.133,-0.613 0.066,-0.492 0.113,-1.129 0.137,-1.758 0.023,-0.629 0.027,-1.266 0.09,-1.719 0.027,-0.227 0.086,-0.379 0.133,-0.48 0.012,0.027 0.035,0.047 0.047,0.086 0.051,0.188 0.102,0.477 0.133,0.836 0.066,0.719 0.066,1.672 0.09,2.645 0.027,0.969 0.07,1.941 0.133,2.68 0.035,0.371 0.07,0.691 0.137,0.926 0.031,0.121 0.074,0.223 0.133,0.313 0.059,0.086 0.176,0.176 0.316,0.176 0.082,0 0.129,-0.047 0.18,-0.09 0.051,-0.039 0.109,-0.078 0.137,-0.129 0.051,-0.102 0.098,-0.207 0.133,-0.355 0.07,-0.289 0.098,-0.68 0.137,-1.145 0.074,-0.93 0.105,-2.168 0.133,-3.387 0.031,-1.219 0.078,-2.445 0.133,-3.344 0.023,-0.332 0.023,-0.563 0.055,-0.789 0.043,0.27 0.102,0.59 0.137,1.012 0.063,0.984 0.141,2.305 0.18,3.609 0.039,1.305 0.07,2.625 0.133,3.609 0.035,0.488 0.082,0.891 0.137,1.184 0.027,0.152 0.047,0.25 0.09,0.355 0.02,0.047 0.043,0.125 0.086,0.176 0.047,0.047 0.133,0.09 0.227,0.086 0.137,-0.012 0.219,-0.094 0.27,-0.176 0.051,-0.078 0.105,-0.16 0.137,-0.266 0.059,-0.203 0.098,-0.473 0.133,-0.789 0.07,-0.629 0.098,-1.465 0.133,-2.289 0.039,-0.82 0.07,-1.637 0.137,-2.242 0.035,-0.301 0.09,-0.543 0.133,-0.699 0.027,0.074 0.07,0.133 0.09,0.262 0.066,0.344 0.066,0.836 0.09,1.324 0.027,0.484 0.063,0.973 0.133,1.359 0.039,0.195 0.105,0.387 0.188,0.531 0.082,0.141 0.262,0.266 0.449,0.266 0.102,0 0.195,-0.066 0.27,-0.133 0.07,-0.063 0.098,-0.133 0.137,-0.219 0.074,-0.172 0.145,-0.367 0.18,-0.613 0.074,-0.492 0.07,-1.129 0.09,-1.758 0.02,-0.629 0.074,-1.258 0.133,-1.715 0.031,-0.227 0.047,-0.422 0.09,-0.531 0.012,0.023 0.035,0.016 0.047,0.043 0.047,0.145 0.102,0.41 0.133,0.703 0.063,0.586 0.07,1.355 0.09,2.156 0.02,0.801 0.023,1.629 0.086,2.242 0.027,0.234 0.082,0.402 0.137,0.57 l -0.316,1.188 2.383,0.613 c 1.324,0.348 2.66,-0.422 3.02,-1.715 l 1.262,-4.664 c 0.355,-1.289 -0.391,-2.605 -1.711,-2.949 l -2.43,-0.66 -0.406,1.5 c -0.016,-0.043 -0.02,-0.098 -0.043,-0.133 -0.063,-0.098 -0.172,-0.176 -0.313,-0.176 -0.141,0 -0.254,0.094 -0.316,0.176 -0.063,0.086 -0.102,0.152 -0.133,0.266 -0.066,0.223 -0.102,0.539 -0.137,0.879 -0.063,0.688 -0.07,1.566 -0.086,2.465 -0.008,0.16 0.004,0.281 0,0.441 l -0.453,1.672 c -0.031,-0.523 -0.074,-1.09 -0.086,-1.715 -0.023,-0.801 -0.074,-1.586 -0.141,-2.199 -0.023,-0.309 -0.063,-0.586 -0.133,-0.789 -0.035,-0.102 -0.07,-0.188 -0.137,-0.266 -0.063,-0.082 -0.145,-0.133 -0.266,-0.133 -0.109,0 -0.25,0.02 -0.316,0.09 -0.066,0.07 -0.102,0.18 -0.137,0.266 -0.066,0.168 -0.102,0.371 -0.133,0.613 -0.063,0.492 -0.07,1.129 -0.09,1.758 -0.02,0.629 -0.066,1.262 -0.133,1.715 -0.035,0.227 -0.043,0.383 -0.09,0.484 -0.02,0.039 -0.074,0.031 -0.086,0.043 -0.043,-0.074 -0.102,-0.223 -0.137,-0.395 -0.07,-0.348 -0.105,-0.836 -0.133,-1.32 -0.027,-0.488 -0.074,-0.941 -0.137,-1.32 -0.031,-0.191 -0.063,-0.391 -0.133,-0.531 -0.035,-0.07 -0.07,-0.121 -0.137,-0.176 -0.066,-0.055 -0.176,-0.094 -0.27,-0.09 -0.137,0 -0.223,0.098 -0.27,0.176 -0.059,0.082 -0.066,0.164 -0.09,0.266 -0.066,0.203 -0.105,0.477 -0.137,0.793 -0.066,0.629 -0.145,1.465 -0.184,2.285 -0.039,0.824 -0.066,1.641 -0.133,2.242 -0.027,0.227 -0.059,0.379 -0.09,0.531 C 27.246,34.597 27.191,34.226 27.16,33.761 27.094,32.796 27.058,31.503 27.023,30.195 26.984,28.89 26.96,27.59 26.89,26.59 26.855,26.09 26.812,25.664 26.753,25.36 26.726,25.204 26.71,25.071 26.667,24.965 26.644,24.906 26.616,24.879 26.577,24.828 26.538,24.781 26.444,24.715 26.35,24.699 m -0.004,-0.008"
           id="path27497" />
      </g>
    </g>
  </g>
</svg>
