<?xml version="1.0" encoding="UTF-8" standalone="no"?>
<!-- Created with Inkscape (http://www.inkscape.org/) -->

<svg
   xmlns:dc="http://purl.org/dc/elements/1.1/"
   xmlns:cc="http://creativecommons.org/ns#"
   xmlns:rdf="http://www.w3.org/1999/02/22-rdf-syntax-ns#"
   xmlns:svg="http://www.w3.org/2000/svg"
   xmlns="http://www.w3.org/2000/svg"
   xmlns:sodipodi="http://sodipodi.sourceforge.net/DTD/sodipodi-0.dtd"
   xmlns:inkscape="http://www.inkscape.org/namespaces/inkscape"
   id="svg2"
   version="1.1"
   inkscape:version="0.48.4 r9939"
   width="64"
   height="64"
   sodipodi:docname="celestia.svg">
  <metadata
     id="metadata8">
    <rdf:RDF>
      <cc:Work
         rdf:about="">
        <dc:format>image/svg+xml</dc:format>
        <dc:type
           rdf:resource="http://purl.org/dc/dcmitype/StillImage" />
        <dc:title></dc:title>
      </cc:Work>
    </rdf:RDF>
  </metadata>
  <defs
     id="defs6">
    <inkscape:path-effect
       effect="bend_path"
       id="path-effect11280"
       is_visible="true"
       bendpath="m 16.271188,16.271186 32,0"
       prop_scale="1"
       scale_y_rel="false"
       vertical="false" />
    <clipPath
       id="clipPath-900365933">
      <g
         id="g3319"
         transform="translate(0,-1004.3622)">
        <path
           id="path3321"
           fill="#1890d0"
           transform="matrix(15.333333,0,0,11.5,414.99999,878.8622)"
           d="m -24 13 c 0 1.105 -0.672 2 -1.5 2 -0.828 0 -1.5 -0.895 -1.5 -2 0 -1.105 0.672 -2 1.5 -2 0.828 0 1.5 0.895 1.5 2 z" />
      </g>
    </clipPath>
    <clipPath
       id="clipPath-888996903">
      <g
         id="g3314"
         transform="translate(0,-1004.3622)">
        <path
           id="path3316"
           fill="#1890d0"
           transform="matrix(15.333333,0,0,11.5,414.99999,878.8622)"
           d="m -24 13 c 0 1.105 -0.672 2 -1.5 2 -0.828 0 -1.5 -0.895 -1.5 -2 0 -1.105 0.672 -2 1.5 -2 0.828 0 1.5 0.895 1.5 2 z" />
      </g>
    </clipPath>
    <linearGradient
       gradientTransform="matrix(0,-1,1,0,-1.5e-6,47.999998)"
       gradientUnits="userSpaceOnUse"
       x2="47"
       x1="1"
       id="linearGradient3764">
      <stop
         id="stop3309"
         stop-opacity="1"
         stop-color="#e7e7e7" />
      <stop
         id="stop3311"
         stop-opacity="1"
         stop-color="#f1f1f1"
         offset="1" />
    </linearGradient>
    <clipPath
       id="clipPath-824049301">
      <g
         id="g3669"
         transform="translate(0,-1004.3622)">
        <path
           id="path3671"
           fill="#1890d0"
           transform="matrix(15.333333,0,0,11.5,414.99999,878.8622)"
           d="m -24 13 c 0 1.105 -0.672 2 -1.5 2 -0.828 0 -1.5 -0.895 -1.5 -2 0 -1.105 0.672 -2 1.5 -2 0.828 0 1.5 0.895 1.5 2 z" />
      </g>
    </clipPath>
    <clipPath
       id="clipPath-818636847">
      <g
         id="g3664"
         transform="translate(0,-1004.3622)">
        <path
           id="path3666"
           fill="#1890d0"
           transform="matrix(15.333333,0,0,11.5,414.99999,878.8622)"
           d="m -24 13 c 0 1.105 -0.672 2 -1.5 2 -0.828 0 -1.5 -0.895 -1.5 -2 0 -1.105 0.672 -2 1.5 -2 0.828 0 1.5 0.895 1.5 2 z" />
      </g>
    </clipPath>
    <linearGradient
       gradientTransform="matrix(0,-1,1,0,-1.5e-6,47.999998)"
       gradientUnits="userSpaceOnUse"
       x2="47"
       x1="1"
       id="linearGradient3764-7">
      <stop
         id="stop3659"
         stop-opacity="1"
         stop-color="#70ba5e" />
      <stop
         id="stop3661"
         stop-opacity="1"
         stop-color="#7dc06d"
         offset="1" />
    </linearGradient>
    <linearGradient
       gradientTransform="matrix(3.729797,0,0,3.401575,-1.263157,-0.00000203445)"
       y2="10.518"
       x2="6.769"
       y1="3.487"
       x1="6.778"
       gradientUnits="userSpaceOnUse"
       id="linearGradient7524">
      <stop
         id="stop7526"
         stop-opacity="1"
         stop-color="#e24571" />
      <stop
         id="stop7528"
         stop-opacity="1"
         stop-color="#7f263e"
         offset="1" />
    </linearGradient>
    <linearGradient
       gradientTransform="matrix(3.729797,0,0,3.401575,-1.263157,-2.03445e-6)"
       y2="10.518"
       x2="6.769"
       y1="3.487"
       x1="6.778"
       gradientUnits="userSpaceOnUse"
       id="linear0">
      <stop
         id="stop7520"
         stop-opacity="1"
         stop-color="#e24571" />
      <stop
         id="stop7522"
         stop-opacity="1"
         stop-color="#7f263e"
         offset="1" />
    </linearGradient>
    <clipPath
       id="clipPath-402570221">
      <g
         id="g7515"
         transform="translate(0,-1004.3622)">
        <path
           id="path7517"
           fill="#1890d0"
           transform="matrix(15.333333,0,0,11.5,414.99999,878.8622)"
           d="m -24 13 c 0 1.105 -0.672 2 -1.5 2 -0.828 0 -1.5 -0.895 -1.5 -2 0 -1.105 0.672 -2 1.5 -2 0.828 0 1.5 0.895 1.5 2 z" />
      </g>
    </clipPath>
    <clipPath
       id="clipPath-392703927">
      <g
         id="g7510"
         transform="translate(0,-1004.3622)">
        <path
           id="path7512"
           fill="#1890d0"
           transform="matrix(15.333333,0,0,11.5,414.99999,878.8622)"
           d="m -24 13 c 0 1.105 -0.672 2 -1.5 2 -0.828 0 -1.5 -0.895 -1.5 -2 0 -1.105 0.672 -2 1.5 -2 0.828 0 1.5 0.895 1.5 2 z" />
      </g>
    </clipPath>
    <linearGradient
       gradientTransform="matrix(0,-1,1,0,-1.5e-6,47.999998)"
       gradientUnits="userSpaceOnUse"
       x2="47"
       x1="1"
       id="linearGradient3764-5">
      <stop
         id="stop7505"
         stop-opacity="1"
         stop-color="#e4e4e4" />
      <stop
         id="stop7507"
         stop-opacity="1"
         stop-color="#eee"
         offset="1" />
    </linearGradient>
    <clipPath
       id="clipPath-033233189">
      <g
         id="g8716"
         transform="translate(0,-1004.3622)">
        <path
           id="path8718"
           fill="#1890d0"
           transform="matrix(15.333333,0,0,11.5,414.99999,878.8622)"
           d="m -24 13 c 0 1.105 -0.672 2 -1.5 2 -0.828 0 -1.5 -0.895 -1.5 -2 0 -1.105 0.672 -2 1.5 -2 0.828 0 1.5 0.895 1.5 2 z" />
      </g>
    </clipPath>
    <clipPath
       id="clipPath-027103285">
      <g
         id="g8711"
         transform="translate(0,-1004.3622)">
        <path
           id="path8713"
           fill="#1890d0"
           transform="matrix(15.333333,0,0,11.5,414.99999,878.8622)"
           d="m -24 13 c 0 1.105 -0.672 2 -1.5 2 -0.828 0 -1.5 -0.895 -1.5 -2 0 -1.105 0.672 -2 1.5 -2 0.828 0 1.5 0.895 1.5 2 z" />
      </g>
    </clipPath>
    <linearGradient
       gradientTransform="matrix(0,-1,1,0,-1.5e-6,47.999998)"
       gradientUnits="userSpaceOnUse"
       x2="47"
       x1="1"
       id="linearGradient3764-4">
      <stop
         id="stop8706"
         stop-opacity="1"
         stop-color="#285da4" />
      <stop
         id="stop8708"
         stop-opacity="1"
         stop-color="#2c65b5"
         offset="1" />
    </linearGradient>
    <clipPath
       id="clipPath-849059674">
      <g
         id="g10131"
         transform="translate(0,-1004.3622)">
        <path
           id="path10133"
           fill="#1890d0"
           transform="matrix(15.333333,0,0,11.5,414.99999,878.8622)"
           d="m -24 13 c 0 1.105 -0.672 2 -1.5 2 -0.828 0 -1.5 -0.895 -1.5 -2 0 -1.105 0.672 -2 1.5 -2 0.828 0 1.5 0.895 1.5 2 z" />
      </g>
    </clipPath>
    <clipPath
       id="clipPath-840401912">
      <g
         id="g10126"
         transform="translate(0,-1004.3622)">
        <path
           id="path10128"
           fill="#1890d0"
           transform="matrix(15.333333,0,0,11.5,414.99999,878.8622)"
           d="m -24 13 c 0 1.105 -0.672 2 -1.5 2 -0.828 0 -1.5 -0.895 -1.5 -2 0 -1.105 0.672 -2 1.5 -2 0.828 0 1.5 0.895 1.5 2 z" />
      </g>
    </clipPath>
    <linearGradient
       gradientTransform="matrix(0,-1,1,0,-1.5e-6,47.999998)"
       gradientUnits="userSpaceOnUse"
       x2="47"
       x1="1"
       id="linearGradient3764-3">
      <stop
         id="stop10121"
         stop-opacity="1"
         stop-color="#0077b4" />
      <stop
         id="stop10123"
         stop-opacity="1"
         stop-color="#0084c8"
         offset="1" />
    </linearGradient>
    <clipPath
       id="clipPath-419917221">
      <g
         id="g11174"
         transform="translate(0,-1004.3622)">
        <path
           id="path11176"
           fill="#1890d0"
           transform="matrix(15.333333,0,0,11.5,414.99999,878.8622)"
           d="m -24 13 c 0 1.105 -0.672 2 -1.5 2 -0.828 0 -1.5 -0.895 -1.5 -2 0 -1.105 0.672 -2 1.5 -2 0.828 0 1.5 0.895 1.5 2 z" />
      </g>
    </clipPath>
    <clipPath
       id="clipPath-412789426">
      <g
         id="g11169"
         transform="translate(0,-1004.3622)">
        <path
           id="path11171"
           fill="#1890d0"
           transform="matrix(15.333333,0,0,11.5,414.99999,878.8622)"
           d="m -24 13 c 0 1.105 -0.672 2 -1.5 2 -0.828 0 -1.5 -0.895 -1.5 -2 0 -1.105 0.672 -2 1.5 -2 0.828 0 1.5 0.895 1.5 2 z" />
      </g>
    </clipPath>
    <linearGradient
       gradientTransform="matrix(0,-1,1,0,-1.5e-6,47.999998)"
       gradientUnits="userSpaceOnUse"
       x2="47"
       x1="1"
       id="linearGradient3764-50">
      <stop
         id="stop11164"
         stop-opacity="1"
         stop-color="#10a3e0" />
      <stop
         id="stop11166"
         stop-opacity="1"
         stop-color="#16afef"
         offset="1" />
    </linearGradient>
    <clipPath
       id="clipPath-426603399">
      <g
         id="g29621"
         transform="translate(0,-1004.3622)">
        <path
           id="path29623"
           fill="#1890d0"
           transform="matrix(15.333333,0,0,11.5,414.99999,878.8622)"
           d="m -24 13 c 0 1.105 -0.672 2 -1.5 2 -0.828 0 -1.5 -0.895 -1.5 -2 0 -1.105 0.672 -2 1.5 -2 0.828 0 1.5 0.895 1.5 2 z" />
      </g>
    </clipPath>
    <clipPath
       id="clipPath-421287351">
      <g
         id="g29616"
         transform="translate(0,-1004.3622)">
        <path
           id="path29618"
           fill="#1890d0"
           transform="matrix(15.333333,0,0,11.5,414.99999,878.8622)"
           d="m -24 13 c 0 1.105 -0.672 2 -1.5 2 -0.828 0 -1.5 -0.895 -1.5 -2 0 -1.105 0.672 -2 1.5 -2 0.828 0 1.5 0.895 1.5 2 z" />
      </g>
    </clipPath>
    <linearGradient
       gradientTransform="matrix(0,-1,1,0,-1.5e-6,47.999998)"
       gradientUnits="userSpaceOnUse"
       x2="47"
       x1="1"
       id="linearGradient3764-0">
      <stop
         id="stop29611"
         stop-opacity="1"
         stop-color="#1f8fed" />
      <stop
         id="stop29613"
         stop-opacity="1"
         stop-color="#3298ef"
         offset="1" />
    </linearGradient>
    <clipPath
       id="clipPath-218378187">
      <g
         id="g30071"
         transform="translate(0,-1004.3622)">
        <path
           id="path30073"
           fill="#1890d0"
           transform="matrix(15.333333,0,0,11.5,414.99999,878.8622)"
           d="m -24 13 c 0 1.105 -0.672 2 -1.5 2 -0.828 0 -1.5 -0.895 -1.5 -2 0 -1.105 0.672 -2 1.5 -2 0.828 0 1.5 0.895 1.5 2 z" />
      </g>
    </clipPath>
    <clipPath
       id="clipPath-212226052">
      <g
         id="g30066"
         transform="translate(0,-1004.3622)">
        <path
           id="path30068"
           fill="#1890d0"
           transform="matrix(15.333333,0,0,11.5,414.99999,878.8622)"
           d="m -24 13 c 0 1.105 -0.672 2 -1.5 2 -0.828 0 -1.5 -0.895 -1.5 -2 0 -1.105 0.672 -2 1.5 -2 0.828 0 1.5 0.895 1.5 2 z" />
      </g>
    </clipPath>
    <linearGradient
       gradientTransform="matrix(0,-1,1,0,-1.5e-6,47.999998)"
       gradientUnits="userSpaceOnUse"
       x2="47"
       x1="1"
       id="linearGradient3764-73">
      <stop
         id="stop30061"
         stop-opacity="1"
         stop-color="#ffb109" />
      <stop
         id="stop30063"
         stop-opacity="1"
         stop-color="#ffb61d"
         offset="1" />
    </linearGradient>
    <linearGradient
       x2="47"
       x1="1"
       gradientTransform="matrix(0,-1,1,0,-1.5e-6,47.999998)"
       gradientUnits="userSpaceOnUse"
       id="linearGradient3166">
      <stop
         id="stop31019"
         stop-opacity="1"
         stop-color="#434343" />
      <stop
         id="stop31021"
         stop-opacity="1"
         stop-color="#4d4d4d"
         offset="1" />
    </linearGradient>
    <clipPath
       id="clipPath31012">
      <g
         id="g31014"
         transform="translate(0,-1004.3622)">
        <path
           id="path31016"
           fill="#1890d0"
           transform="matrix(15.333333,0,0,11.5,414.99999,878.8622)"
           d="m -24 13 c 0 1.105 -0.672 2 -1.5 2 -0.828 0 -1.5 -0.895 -1.5 -2 0 -1.105 0.672 -2 1.5 -2 0.828 0 1.5 0.895 1.5 2 z" />
      </g>
    </clipPath>
    <clipPath
       id="clipPath-242030370">
      <g
         id="g31008"
         transform="translate(0,-1004.3622)">
        <path
           id="path31010"
           fill="#1890d0"
           transform="matrix(15.333333,0,0,11.5,414.99999,878.8622)"
           d="m -24 13 c 0 1.105 -0.672 2 -1.5 2 -0.828 0 -1.5 -0.895 -1.5 -2 0 -1.105 0.672 -2 1.5 -2 0.828 0 1.5 0.895 1.5 2 z" />
      </g>
    </clipPath>
    <clipPath
       id="clipPath-730514797">
      <g
         id="g31792"
         transform="translate(0,-1004.3622)">
        <path
           id="path31794"
           fill="#1890d0"
           transform="matrix(15.333333,0,0,11.5,414.99999,878.8622)"
           d="m -24 13 c 0 1.105 -0.672 2 -1.5 2 -0.828 0 -1.5 -0.895 -1.5 -2 0 -1.105 0.672 -2 1.5 -2 0.828 0 1.5 0.895 1.5 2 z" />
      </g>
    </clipPath>
    <clipPath
       id="clipPath-725264839">
      <g
         id="g31787"
         transform="translate(0,-1004.3622)">
        <path
           id="path31789"
           fill="#1890d0"
           transform="matrix(15.333333,0,0,11.5,414.99999,878.8622)"
           d="m -24 13 c 0 1.105 -0.672 2 -1.5 2 -0.828 0 -1.5 -0.895 -1.5 -2 0 -1.105 0.672 -2 1.5 -2 0.828 0 1.5 0.895 1.5 2 z" />
      </g>
    </clipPath>
    <linearGradient
       gradientTransform="matrix(0,-1,1,0,-1.5e-6,47.999998)"
       gradientUnits="userSpaceOnUse"
       x2="47"
       x1="1"
       id="linearGradient3764-6">
      <stop
         id="stop31782"
         stop-opacity="1"
         stop-color="#e4e4e4" />
      <stop
         id="stop31784"
         stop-opacity="1"
         stop-color="#eee"
         offset="1" />
    </linearGradient>
    <clipPath
       id="clipPath-441163578">
      <g
         id="g32295"
         transform="translate(0,-1004.3622)">
        <path
           id="path32297"
           fill="#1890d0"
           transform="matrix(15.333333,0,0,11.5,414.99999,878.8622)"
           d="m -24 13 c 0 1.105 -0.672 2 -1.5 2 -0.828 0 -1.5 -0.895 -1.5 -2 0 -1.105 0.672 -2 1.5 -2 0.828 0 1.5 0.895 1.5 2 z" />
      </g>
    </clipPath>
    <clipPath
       id="clipPath-428684738">
      <g
         id="g32290"
         transform="translate(0,-1004.3622)">
        <path
           id="path32292"
           fill="#1890d0"
           transform="matrix(15.333333,0,0,11.5,414.99999,878.8622)"
           d="m -24 13 c 0 1.105 -0.672 2 -1.5 2 -0.828 0 -1.5 -0.895 -1.5 -2 0 -1.105 0.672 -2 1.5 -2 0.828 0 1.5 0.895 1.5 2 z" />
      </g>
    </clipPath>
    <linearGradient
       gradientTransform="matrix(0,-1,1,0,-1.5e-6,47.999998)"
       gradientUnits="userSpaceOnUse"
       x2="47"
       x1="1"
       id="linearGradient3764-44">
      <stop
         id="stop32285"
         stop-opacity="1"
         stop-color="#676799" />
      <stop
         id="stop32287"
         stop-opacity="1"
         stop-color="#7373a1"
         offset="1" />
    </linearGradient>
    <clipPath
       id="clipPath-370729992">
      <g
         id="g33723"
         transform="translate(0,-1004.3622)">
        <path
           id="path33725"
           fill="#1890d0"
           transform="matrix(15.333333,0,0,11.5,414.99999,878.8622)"
           d="m -24 13 c 0 1.105 -0.672 2 -1.5 2 -0.828 0 -1.5 -0.895 -1.5 -2 0 -1.105 0.672 -2 1.5 -2 0.828 0 1.5 0.895 1.5 2 z" />
      </g>
    </clipPath>
    <clipPath
       id="clipPath-365326813">
      <g
         id="g33718"
         transform="translate(0,-1004.3622)">
        <path
           id="path33720"
           fill="#1890d0"
           transform="matrix(15.333333,0,0,11.5,414.99999,878.8622)"
           d="m -24 13 c 0 1.105 -0.672 2 -1.5 2 -0.828 0 -1.5 -0.895 -1.5 -2 0 -1.105 0.672 -2 1.5 -2 0.828 0 1.5 0.895 1.5 2 z" />
      </g>
    </clipPath>
    <linearGradient
       gradientTransform="matrix(0,-1,1,0,-1.5e-6,47.999998)"
       gradientUnits="userSpaceOnUse"
       x2="47"
       x1="1"
       id="linearGradient3764-2">
      <stop
         id="stop33713"
         stop-opacity="1"
         stop-color="#e4e4e4" />
      <stop
         id="stop33715"
         stop-opacity="1"
         stop-color="#eee"
         offset="1" />
    </linearGradient>
    <linearGradient
       x2="47"
       x1="1"
       gradientTransform="matrix(0,-1,1,0,-1.5e-6,47.999998)"
       gradientUnits="userSpaceOnUse"
       id="linearGradient3124">
      <stop
         id="stop34549"
         stop-opacity="1"
         stop-color="#463b6b" />
      <stop
         id="stop34551"
         stop-opacity="1"
         stop-color="#4f4277"
         offset="1" />
    </linearGradient>
    <clipPath
       id="clipPath34542">
      <g
         id="g34544"
         transform="translate(0,-1004.3622)">
        <path
           id="path34546"
           fill="#1890d0"
           transform="matrix(15.333333,0,0,11.5,414.99999,878.8622)"
           d="m -24 13 c 0 1.105 -0.672 2 -1.5 2 -0.828 0 -1.5 -0.895 -1.5 -2 0 -1.105 0.672 -2 1.5 -2 0.828 0 1.5 0.895 1.5 2 z" />
      </g>
    </clipPath>
    <clipPath
       id="clipPath34536">
      <g
         id="g34538"
         transform="translate(0,-1004.3622)">
        <path
           id="path34540"
           fill="#1890d0"
           transform="matrix(15.333333,0,0,11.5,414.99999,878.8622)"
           d="m -24 13 c 0 1.105 -0.672 2 -1.5 2 -0.828 0 -1.5 -0.895 -1.5 -2 0 -1.105 0.672 -2 1.5 -2 0.828 0 1.5 0.895 1.5 2 z" />
      </g>
    </clipPath>
  </defs>
  <sodipodi:namedview
     pagecolor="#ffffff"
     bordercolor="#666666"
     borderopacity="1"
     objecttolerance="10"
     gridtolerance="10"
     guidetolerance="10"
     inkscape:pageopacity="0"
     inkscape:pageshadow="2"
     inkscape:window-width="1316"
     inkscape:window-height="674"
     id="namedview4"
     showgrid="false"
     inkscape:zoom="3.6875"
     inkscape:cx="-19.932204"
     inkscape:cy="32"
     inkscape:window-x="44"
     inkscape:window-y="29"
     inkscape:window-maximized="1"
     inkscape:current-layer="svg2" />
  <rect
     style="fill:#000000;fill-opacity:1;stroke:#000000;stroke-width:0.53665989999999997;stroke-linecap:round;stroke-linejoin:round;stroke-miterlimit:4;stroke-opacity:1;stroke-dasharray:none"
     id="rect3005"
     width="59.081985"
     height="59.624359"
     x="2.4590092"
     y="2.1878221"
     ry="5.9392786"
     rx="5.9392786" />
  <g
     id="g3685"
     transform="translate(-102.87188,6.4152542)" />
  <g
     id="g7542"
     transform="translate(-127.14307,0.44915254)" />
  <g
     id="g8732"
     transform="translate(-104.09222,-1.1779661)" />
  <g
     id="g10147"
     transform="translate(-97.583746,-4.9745763)" />
  <g
     id="g11190"
     transform="translate(-110.05832,3.9745763)" />
  <g
     id="g29637"
     transform="translate(-131.48205,-15.822034)" />
  <g
     id="g30087"
     transform="translate(-115.21087,-6.8728814)" />
  <g
     id="g31808"
     transform="translate(-134.19392,-0.90677966)" />
  <g
     id="g32311"
     transform="translate(-105.17697,-10.669492)" />
  <g
     id="g33739"
     transform="translate(-127.14307,-6.059322)" />
  <g
     id="g34553"
     transform="translate(7.3654066,8.8559322)">
    <path
       style="opacity:0.05"
       inkscape:connector-curvature="0"
       d="m 36.31,5 c 5.859,4.062 9.688,10.831 9.688,18.5 0,12.426 -10.07,22.5 -22.5,22.5 -7.669,0 -14.438,-3.828 -18.5,-9.688 1.037,1.822 2.306,3.499 3.781,4.969 4.085,3.712 9.514,5.969 15.469,5.969 12.703,0 23,-10.298 23,-23 0,-5.954 -2.256,-11.384 -5.969,-15.469 C 39.81,7.306 38.132,6.037 36.31,5 z m 4.969,3.781 c 3.854,4.113 6.219,9.637 6.219,15.719 0,12.703 -10.297,23 -23,23 -6.081,0 -11.606,-2.364 -15.719,-6.219 4.16,4.144 9.883,6.719 16.219,6.719 12.703,0 23,-10.298 23,-23 0,-6.335 -2.575,-12.06 -6.719,-16.219 z"
       id="path34555" />
    <path
       style="opacity:0.1"
       inkscape:connector-curvature="0"
       d="m 41.28,8.781 c 3.712,4.085 5.969,9.514 5.969,15.469 0,12.703 -10.297,23 -23,23 -5.954,0 -11.384,-2.256 -15.469,-5.969 4.113,3.854 9.637,6.219 15.719,6.219 12.703,0 23,-10.298 23,-23 0,-6.081 -2.364,-11.606 -6.219,-15.719 z"
       id="path34557" />
    <path
       style="opacity:0.2"
       inkscape:connector-curvature="0"
       d="M 31.25,2.375 C 39.865,5.529 46,13.792 46,23.505 c 0,12.426 -10.07,22.5 -22.5,22.5 -9.708,0 -17.971,-6.135 -21.12,-14.75 a 23,23 0 0 0 44.875,-7 23,23 0 0 0 -16,-21.875 z"
       id="path34559" />
  </g>
  <path
     style="fill:#ffffff;fill-opacity:1"
     inkscape:connector-curvature="0"
     d="m 31.365407,9.8559322 c -12.693,0 -22.9830004,10.2799998 -23.0000004,22.9689998 14.4910004,2.944 28.9300004,10.685 44.5940004,7.938 0.903,-2.466 1.406,-5.127 1.406,-7.906 0,-12.703 -10.297,-22.9999998 -23,-22.9999998 z m 19.25,35.5629998 c -0.316,0.483 -0.65,0.949 -1,1.406 0.356,-0.464 0.68,-0.915 1,-1.406 z m -1,1.406 c -0.35,0.457 -0.711,0.915 -1.094,1.344 0.383,-0.428 0.744,-0.887 1.094,-1.344 z m -2.531,2.813 c -0.337,0.317 -0.675,0.61 -1.031,0.906 0.351,-0.292 0.698,-0.594 1.031,-0.906 z"
     id="path34561" />
  <path
     style="fill:#ff0000;fill-opacity:1;fill-rule:nonzero;stroke:none"
     inkscape:connector-curvature="0"
     d="m 8.3654066,32.824932 c 0,0.01 0,0.021 0,0.031 0,12.703 10.2970004,23 23.0000004,23 9.924,0 18.369,-6.287 21.594,-15.09 -15.664,2.748 -30.1,-4.993 -44.5940004,-7.938 z"
     id="path34563" />
  <path
     style="opacity:0.1;fill:#000000;fill-opacity:1;fill-rule:nonzero;stroke:none"
     inkscape:connector-curvature="0"
     d="m 40.615407,20.445932 c -0.629,-0.281 -1.277,-0.477 -1.93,-0.59 2.793,2.23 3.84,6.156 2.32,9.586 -1.523,3.43 -5.129,5.262 -8.645,4.66 0.516,0.41 1.094,0.77 1.723,1.055 4.04,1.813 8.773,-0.008 10.578,-4.07 1.805,-4.059 -0.008,-8.82 -4.047,-10.629 m 0,-0.012"
     id="path34565" />
  <path
     style="opacity:0.1;fill:#000000;fill-opacity:1;fill-rule:nonzero;stroke:none"
     inkscape:connector-curvature="0"
     d="m 32.365407,20.855932 c -0.008,0 -0.012,0 -0.02,0.004 -0.016,0 -0.035,0.004 -0.051,0.016 0,0 0,0 -0.004,0.004 -0.047,0.02 -0.078,0.051 -0.102,0.078 -0.031,0.043 -0.063,0.09 -0.09,0.141 -0.066,0.105 -0.125,0.246 -0.191,0.383 -0.066,0.141 -0.133,0.277 -0.184,0.383 -0.023,0.055 -0.047,0.098 -0.07,0.129 -0.004,0.008 -0.008,0.012 -0.012,0.016 -0.008,0.004 -0.016,0.004 -0.027,0.008 -0.031,0.016 -0.082,0.023 -0.137,0.027 -0.113,0.023 -0.258,0.035 -0.402,0.066 -0.148,0.02 -0.289,0.047 -0.406,0.07 -0.055,0.016 -0.109,0.023 -0.156,0.047 -0.023,0.012 -0.047,0.023 -0.07,0.039 -0.023,0.02 -0.055,0.043 -0.074,0.105 -0.02,0.059 -0.008,0.102 0.004,0.129 0.012,0.035 0.02,0.055 0.035,0.078 0.023,0.043 0.059,0.09 0.098,0.137 0.078,0.094 0.188,0.203 0.289,0.309 0.105,0.105 0.207,0.207 0.289,0.293 0.039,0.043 0.074,0.082 0.098,0.109 0.008,0.008 0.008,0.012 0.012,0.023 0,0.004 0,0.012 0,0.02 -0.004,0.035 -0.004,0.086 -0.012,0.145 -0.02,0.121 -0.047,0.27 -0.07,0.422 -0.027,0.148 -0.047,0.301 -0.063,0.426 -0.008,0.066 -0.012,0.113 -0.008,0.168 0,0.023 0.008,0.051 0.02,0.086 0.008,0.031 0.02,0.07 0.066,0.105 0.047,0.035 0.09,0.035 0.121,0.035 0.027,0 0.055,-0.004 0.078,-0.012 0.051,-0.016 0.098,-0.035 0.152,-0.059 0.109,-0.051 0.242,-0.117 0.371,-0.191 0.133,-0.074 0.254,-0.145 0.359,-0.203 0.047,-0.023 0.094,-0.051 0.125,-0.063 0.008,-0.004 0.016,-0.004 0.023,-0.008 0.008,0 0.016,0 0.02,0.008 0.031,0.012 0.078,0.035 0.129,0.063 0.102,0.055 0.23,0.129 0.359,0.203 0.129,0.07 0.262,0.141 0.371,0.191 0.051,0.02 0.102,0.043 0.152,0.059 0.023,0.008 0.051,0.012 0.078,0.012 0.031,0 0.07,0 0.121,-0.035 0.043,-0.035 0.059,-0.074 0.063,-0.105 0.016,-0.035 0.02,-0.063 0.02,-0.086 0,-0.055 0,-0.102 -0.004,-0.168 -0.016,-0.125 -0.035,-0.277 -0.066,-0.426 -0.02,-0.152 -0.051,-0.305 -0.07,-0.422 -0.008,-0.059 -0.016,-0.109 -0.016,-0.145 0,-0.008 0,-0.016 0,-0.02 0.004,-0.008 0.008,-0.016 0.016,-0.023 0.023,-0.027 0.063,-0.066 0.102,-0.109 0.078,-0.086 0.184,-0.188 0.289,-0.293 0.102,-0.105 0.207,-0.215 0.285,-0.309 0.039,-0.047 0.07,-0.094 0.102,-0.137 0.012,-0.023 0.023,-0.043 0.035,-0.078 0.012,-0.031 0.02,-0.07 0.004,-0.129 -0.02,-0.063 -0.051,-0.086 -0.074,-0.105 -0.027,-0.02 -0.047,-0.027 -0.07,-0.039 -0.047,-0.02 -0.102,-0.031 -0.156,-0.047 -0.117,-0.023 -0.262,-0.055 -0.406,-0.07 -0.145,-0.023 -0.289,-0.039 -0.402,-0.066 -0.059,-0.008 -0.102,-0.02 -0.141,-0.027 -0.004,-0.004 -0.016,-0.004 -0.02,-0.008 -0.008,-0.008 -0.016,-0.008 -0.02,-0.016 -0.016,-0.031 -0.039,-0.074 -0.07,-0.129 -0.051,-0.105 -0.113,-0.242 -0.18,-0.383 -0.063,-0.137 -0.129,-0.273 -0.188,-0.383 -0.031,-0.051 -0.063,-0.098 -0.094,-0.141 -0.031,-0.043 -0.059,-0.102 -0.172,-0.102 m 0.016,0"
     id="path34567" />
  <path
     style="opacity:0.1;fill:#000000;fill-opacity:1;fill-rule:nonzero;stroke:none"
     inkscape:connector-curvature="0"
     d="m 27.365407,26.855932 c -0.008,0 -0.012,0 -0.02,0.004 -0.016,0 -0.035,0.008 -0.051,0.02 0,0 0,0 -0.004,0.004 -0.047,0.016 -0.078,0.047 -0.102,0.078 -0.031,0.039 -0.063,0.086 -0.09,0.141 -0.066,0.105 -0.125,0.242 -0.191,0.383 -0.066,0.137 -0.133,0.277 -0.18,0.383 -0.027,0.051 -0.051,0.094 -0.074,0.125 -0.004,0.012 -0.008,0.016 -0.012,0.02 -0.008,0.004 -0.016,0.004 -0.027,0.008 -0.031,0.016 -0.078,0.023 -0.137,0.027 -0.113,0.023 -0.258,0.035 -0.402,0.066 -0.148,0.02 -0.289,0.051 -0.406,0.066 -0.055,0.023 -0.109,0.027 -0.156,0.047 -0.023,0.02 -0.043,0.023 -0.07,0.039 -0.023,0.023 -0.055,0.043 -0.074,0.105 -0.016,0.059 -0.008,0.102 0.004,0.129 0.012,0.031 0.02,0.055 0.035,0.078 0.023,0.043 0.063,0.09 0.098,0.137 0.078,0.094 0.188,0.199 0.289,0.305 0.105,0.109 0.207,0.219 0.289,0.305 0.039,0.043 0.074,0.082 0.098,0.102 0.008,0.008 0.008,0.02 0.012,0.023 0,0.008 0,0.016 0,0.02 0,0.035 -0.004,0.082 -0.012,0.148 -0.02,0.121 -0.047,0.27 -0.07,0.422 -0.027,0.145 -0.047,0.301 -0.063,0.426 -0.008,0.066 -0.008,0.113 -0.008,0.164 0,0.027 0.008,0.055 0.02,0.086 0.008,0.031 0.02,0.07 0.066,0.105 0.047,0.031 0.09,0.031 0.121,0.031 0.027,0 0.055,-0.004 0.078,-0.008 0.051,-0.016 0.098,-0.035 0.152,-0.063 0.109,-0.047 0.242,-0.117 0.371,-0.188 0.133,-0.07 0.258,-0.145 0.359,-0.203 0.051,-0.027 0.094,-0.047 0.129,-0.063 0.004,-0.004 0.012,-0.004 0.02,-0.008 0.008,0 0.016,0 0.02,0.008 0.035,0.016 0.078,0.035 0.129,0.063 0.102,0.055 0.23,0.129 0.359,0.203 0.129,0.07 0.262,0.141 0.371,0.188 0.055,0.027 0.102,0.047 0.152,0.063 0.023,0.004 0.051,0.008 0.078,0.008 0.031,0 0.07,0 0.121,-0.031 0.047,-0.035 0.059,-0.074 0.066,-0.105 0.012,-0.031 0.016,-0.059 0.016,-0.086 0.004,-0.051 0,-0.102 -0.004,-0.164 -0.012,-0.125 -0.035,-0.273 -0.063,-0.426 -0.023,-0.152 -0.051,-0.305 -0.07,-0.422 -0.008,-0.066 -0.012,-0.109 -0.012,-0.148 0,-0.008 0,-0.016 0,-0.02 0,-0.008 0.004,-0.008 0.012,-0.023 0.023,-0.02 0.059,-0.063 0.098,-0.102 0.078,-0.086 0.184,-0.191 0.289,-0.305 0.102,-0.102 0.211,-0.211 0.285,-0.305 0.039,-0.047 0.078,-0.094 0.102,-0.137 0.016,-0.02 0.023,-0.047 0.035,-0.078 0.012,-0.031 0.02,-0.07 0.004,-0.129 -0.02,-0.059 -0.051,-0.086 -0.074,-0.105 -0.027,-0.016 -0.047,-0.02 -0.07,-0.039 -0.047,-0.02 -0.102,-0.023 -0.156,-0.047 -0.117,-0.02 -0.258,-0.051 -0.406,-0.066 -0.145,-0.023 -0.289,-0.039 -0.402,-0.066 -0.059,-0.012 -0.102,-0.02 -0.137,-0.027 -0.008,-0.004 -0.02,-0.004 -0.027,-0.008 -0.004,-0.008 -0.012,-0.012 -0.012,-0.02 -0.02,-0.031 -0.043,-0.074 -0.074,-0.125 -0.051,-0.105 -0.113,-0.246 -0.18,-0.383 -0.063,-0.141 -0.125,-0.273 -0.191,-0.383 -0.031,-0.055 -0.059,-0.102 -0.09,-0.141 -0.035,-0.043 -0.059,-0.105 -0.172,-0.105 m 0.012,0"
     id="path34569" />
  <path
     style="opacity:0.1;fill:#000000;fill-opacity:1;fill-rule:nonzero;stroke:none"
     inkscape:connector-curvature="0"
     d="m 21.365407,21.855932 c -0.008,0 -0.012,0 -0.016,0.004 -0.02,0 -0.039,0.008 -0.055,0.02 0,0 0,0 -0.004,0.004 -0.047,0.02 -0.078,0.047 -0.098,0.078 -0.035,0.039 -0.066,0.086 -0.094,0.141 -0.063,0.105 -0.125,0.242 -0.191,0.383 -0.063,0.137 -0.129,0.277 -0.18,0.383 -0.027,0.051 -0.051,0.094 -0.07,0.125 -0.004,0.012 -0.012,0.016 -0.016,0.02 -0.008,0.004 -0.016,0.004 -0.023,0.008 -0.031,0.016 -0.082,0.023 -0.141,0.027 -0.113,0.023 -0.258,0.035 -0.402,0.066 -0.145,0.02 -0.289,0.047 -0.402,0.07 -0.059,0.016 -0.113,0.023 -0.156,0.043 -0.027,0.016 -0.047,0.023 -0.074,0.039 -0.023,0.023 -0.055,0.043 -0.074,0.105 -0.016,0.059 -0.004,0.102 0.004,0.129 0.012,0.031 0.023,0.055 0.035,0.078 0.027,0.043 0.063,0.09 0.102,0.137 0.078,0.094 0.184,0.199 0.285,0.313 0.105,0.102 0.211,0.207 0.293,0.293 0.039,0.043 0.074,0.082 0.094,0.105 0.008,0.008 0.008,0.016 0.016,0.023 0,0.008 0,0.016 0,0.02 -0.004,0.035 -0.008,0.086 -0.016,0.148 -0.016,0.121 -0.047,0.27 -0.07,0.422 -0.023,0.145 -0.047,0.301 -0.059,0.426 -0.008,0.063 -0.012,0.113 -0.008,0.164 0,0.027 0.008,0.055 0.016,0.086 0.008,0.031 0.023,0.07 0.07,0.105 0.043,0.031 0.086,0.031 0.117,0.031 0.031,0 0.055,0 0.078,-0.008 0.051,-0.016 0.102,-0.035 0.152,-0.063 0.109,-0.047 0.242,-0.117 0.375,-0.188 0.129,-0.07 0.254,-0.145 0.355,-0.199 0.051,-0.031 0.098,-0.051 0.129,-0.066 0.008,-0.004 0.012,-0.004 0.02,-0.008 0.008,0 0.016,0 0.023,0.008 0.031,0.016 0.078,0.035 0.125,0.066 0.105,0.051 0.23,0.125 0.359,0.199 0.133,0.07 0.262,0.141 0.371,0.188 0.055,0.027 0.105,0.047 0.152,0.063 0.027,0.008 0.051,0.008 0.078,0.008 0.031,0 0.07,0 0.121,-0.031 0.047,-0.035 0.059,-0.074 0.063,-0.105 0.016,-0.031 0.02,-0.059 0.02,-0.086 0.004,-0.051 0,-0.105 -0.004,-0.164 -0.016,-0.125 -0.035,-0.277 -0.063,-0.426 -0.023,-0.152 -0.055,-0.305 -0.074,-0.422 -0.004,-0.063 -0.012,-0.109 -0.012,-0.148 0,-0.008 0,-0.016 0,-0.02 0.004,-0.004 0.008,-0.008 0.012,-0.023 0.023,-0.023 0.063,-0.063 0.102,-0.105 0.082,-0.086 0.184,-0.191 0.289,-0.293 0.102,-0.109 0.211,-0.219 0.289,-0.313 0.039,-0.047 0.07,-0.094 0.098,-0.137 0.016,-0.02 0.027,-0.047 0.035,-0.078 0.012,-0.031 0.02,-0.07 0.004,-0.129 -0.016,-0.059 -0.051,-0.086 -0.074,-0.105 -0.023,-0.016 -0.047,-0.023 -0.07,-0.039 -0.047,-0.02 -0.098,-0.027 -0.156,-0.043 -0.117,-0.027 -0.258,-0.055 -0.402,-0.07 -0.148,-0.023 -0.293,-0.039 -0.406,-0.066 -0.055,-0.012 -0.102,-0.02 -0.137,-0.027 -0.008,-0.004 -0.02,-0.004 -0.023,-0.008 -0.004,-0.008 -0.012,-0.012 -0.016,-0.02 -0.02,-0.031 -0.043,-0.074 -0.07,-0.125 -0.055,-0.105 -0.117,-0.246 -0.184,-0.383 -0.063,-0.141 -0.125,-0.273 -0.188,-0.383 -0.035,-0.055 -0.063,-0.102 -0.094,-0.141 -0.031,-0.043 -0.059,-0.105 -0.172,-0.105 m 0.012,0"
     id="path34571" />
  <path
     style="fill:#000000;fill-opacity:1;fill-rule:nonzero;stroke:none"
     inkscape:connector-curvature="0"
     d="m 39.615407,19.445932 c -0.629,-0.281 -1.277,-0.477 -1.93,-0.59 2.793,2.23 3.84,6.156 2.32,9.586 -1.523,3.43 -5.129,5.262 -8.645,4.66 0.516,0.41 1.094,0.77 1.723,1.055 4.04,1.813 8.773,-0.008 10.578,-4.07 1.805,-4.059 -0.008,-8.82 -4.047,-10.629 m 0,-0.012"
     id="path34573" />
  <path
     style="fill:#000000;fill-opacity:1;fill-rule:nonzero;stroke:none"
     inkscape:connector-curvature="0"
     d="m 31.365407,19.855932 c -0.008,0 -0.012,0 -0.02,0.004 -0.016,0 -0.035,0.004 -0.051,0.016 0,0 0,0 -0.004,0.004 -0.047,0.02 -0.078,0.051 -0.102,0.078 -0.031,0.043 -0.063,0.09 -0.09,0.141 -0.066,0.105 -0.125,0.246 -0.191,0.383 -0.066,0.141 -0.133,0.277 -0.184,0.383 -0.023,0.055 -0.047,0.098 -0.07,0.129 -0.004,0.008 -0.008,0.012 -0.012,0.016 -0.008,0.004 -0.016,0.004 -0.027,0.008 -0.031,0.016 -0.082,0.023 -0.137,0.027 -0.113,0.023 -0.258,0.035 -0.402,0.066 -0.148,0.02 -0.289,0.047 -0.406,0.07 -0.055,0.016 -0.109,0.023 -0.156,0.047 -0.023,0.012 -0.047,0.023 -0.07,0.039 -0.023,0.02 -0.055,0.043 -0.074,0.105 -0.02,0.059 -0.008,0.102 0.004,0.129 0.012,0.035 0.02,0.055 0.035,0.078 0.023,0.043 0.059,0.09 0.098,0.137 0.078,0.094 0.188,0.203 0.289,0.309 0.105,0.105 0.207,0.207 0.289,0.293 0.039,0.043 0.074,0.082 0.098,0.109 0.008,0.008 0.008,0.012 0.012,0.023 0,0.004 0,0.012 0,0.02 -0.004,0.035 -0.004,0.086 -0.012,0.145 -0.02,0.121 -0.047,0.27 -0.07,0.422 -0.027,0.148 -0.047,0.301 -0.063,0.426 -0.008,0.066 -0.012,0.113 -0.008,0.168 0,0.023 0.008,0.051 0.02,0.086 0.008,0.031 0.02,0.07 0.066,0.105 0.047,0.035 0.09,0.035 0.121,0.035 0.027,0 0.055,-0.004 0.078,-0.012 0.051,-0.016 0.098,-0.035 0.152,-0.059 0.109,-0.051 0.242,-0.117 0.371,-0.191 0.133,-0.074 0.254,-0.145 0.359,-0.203 0.047,-0.023 0.094,-0.051 0.125,-0.063 0.008,-0.004 0.016,-0.004 0.023,-0.008 0.008,0 0.016,0 0.02,0.008 0.031,0.012 0.078,0.035 0.129,0.063 0.102,0.055 0.23,0.129 0.359,0.203 0.129,0.07 0.262,0.141 0.371,0.191 0.051,0.02 0.102,0.043 0.152,0.059 0.023,0.008 0.051,0.012 0.078,0.012 0.031,0 0.07,0 0.121,-0.035 0.043,-0.035 0.059,-0.074 0.063,-0.105 0.016,-0.035 0.02,-0.063 0.02,-0.086 0,-0.055 0,-0.102 -0.004,-0.168 -0.016,-0.125 -0.035,-0.277 -0.066,-0.426 -0.02,-0.152 -0.051,-0.305 -0.07,-0.422 -0.008,-0.059 -0.016,-0.109 -0.016,-0.145 0,-0.008 0,-0.016 0,-0.02 0.004,-0.008 0.008,-0.016 0.016,-0.023 0.023,-0.027 0.063,-0.066 0.102,-0.109 0.078,-0.086 0.184,-0.188 0.289,-0.293 0.102,-0.105 0.207,-0.215 0.285,-0.309 0.039,-0.047 0.07,-0.094 0.102,-0.137 0.012,-0.023 0.023,-0.043 0.035,-0.078 0.012,-0.031 0.02,-0.07 0.004,-0.129 -0.02,-0.063 -0.051,-0.086 -0.074,-0.105 -0.027,-0.02 -0.047,-0.027 -0.07,-0.039 -0.047,-0.02 -0.102,-0.031 -0.156,-0.047 -0.117,-0.023 -0.262,-0.055 -0.406,-0.07 -0.145,-0.023 -0.289,-0.039 -0.402,-0.066 -0.059,-0.008 -0.102,-0.02 -0.141,-0.027 -0.004,-0.004 -0.016,-0.004 -0.02,-0.008 -0.008,-0.008 -0.016,-0.008 -0.02,-0.016 -0.016,-0.031 -0.039,-0.074 -0.07,-0.129 -0.051,-0.105 -0.113,-0.242 -0.18,-0.383 -0.063,-0.137 -0.129,-0.273 -0.188,-0.383 -0.031,-0.051 -0.063,-0.098 -0.094,-0.141 -0.031,-0.043 -0.059,-0.102 -0.172,-0.102 m 0.016,0"
     id="path34575" />
  <path
     style="fill:#ff0000;fill-opacity:1;fill-rule:nonzero;stroke:none"
     inkscape:connector-curvature="0"
     d="m 26.365407,25.855932 c -0.008,0 -0.012,0 -0.02,0.004 -0.016,0 -0.035,0.008 -0.051,0.02 0,0 0,0 -0.004,0.004 -0.047,0.016 -0.078,0.047 -0.102,0.078 -0.031,0.039 -0.063,0.086 -0.09,0.141 -0.066,0.105 -0.125,0.242 -0.191,0.383 -0.066,0.137 -0.133,0.277 -0.18,0.383 -0.027,0.051 -0.051,0.094 -0.074,0.125 -0.004,0.012 -0.008,0.016 -0.012,0.02 -0.008,0.004 -0.016,0.004 -0.027,0.008 -0.031,0.016 -0.078,0.023 -0.137,0.027 -0.113,0.023 -0.258,0.035 -0.402,0.066 -0.148,0.02 -0.289,0.051 -0.406,0.066 -0.055,0.023 -0.109,0.027 -0.156,0.047 -0.023,0.02 -0.043,0.023 -0.07,0.039 -0.023,0.023 -0.055,0.043 -0.074,0.105 -0.016,0.059 -0.008,0.102 0.004,0.129 0.012,0.031 0.02,0.055 0.035,0.078 0.023,0.043 0.063,0.09 0.098,0.137 0.078,0.094 0.188,0.199 0.289,0.305 0.105,0.109 0.207,0.219 0.289,0.305 0.039,0.043 0.074,0.082 0.098,0.102 0.008,0.008 0.008,0.02 0.012,0.023 0,0.008 0,0.016 0,0.02 0,0.035 -0.004,0.082 -0.012,0.148 -0.02,0.121 -0.047,0.27 -0.07,0.422 -0.027,0.145 -0.047,0.301 -0.063,0.426 -0.008,0.066 -0.008,0.113 -0.008,0.164 0,0.027 0.008,0.055 0.02,0.086 0.008,0.031 0.02,0.07 0.066,0.105 0.047,0.031 0.09,0.031 0.121,0.031 0.027,0 0.055,-0.004 0.078,-0.008 0.051,-0.016 0.098,-0.035 0.152,-0.063 0.109,-0.047 0.242,-0.117 0.371,-0.188 0.133,-0.07 0.258,-0.145 0.359,-0.203 0.051,-0.027 0.094,-0.047 0.129,-0.063 0.004,-0.004 0.012,-0.004 0.02,-0.008 0.008,0 0.016,0 0.02,0.008 0.035,0.016 0.078,0.035 0.129,0.063 0.102,0.055 0.23,0.129 0.359,0.203 0.129,0.07 0.262,0.141 0.371,0.188 0.055,0.027 0.102,0.047 0.152,0.063 0.023,0.004 0.051,0.008 0.078,0.008 0.031,0 0.07,0 0.121,-0.031 0.047,-0.035 0.059,-0.074 0.066,-0.105 0.012,-0.031 0.016,-0.059 0.016,-0.086 0.004,-0.051 0,-0.102 -0.004,-0.164 -0.012,-0.125 -0.035,-0.273 -0.063,-0.426 -0.023,-0.152 -0.051,-0.305 -0.07,-0.422 -0.008,-0.066 -0.012,-0.109 -0.012,-0.148 0,-0.008 0,-0.016 0,-0.02 0,-0.008 0.004,-0.008 0.012,-0.023 0.023,-0.02 0.059,-0.063 0.098,-0.102 0.078,-0.086 0.184,-0.191 0.289,-0.305 0.102,-0.102 0.211,-0.211 0.285,-0.305 0.039,-0.047 0.078,-0.094 0.102,-0.137 0.016,-0.02 0.023,-0.047 0.035,-0.078 0.012,-0.031 0.02,-0.07 0.004,-0.129 -0.02,-0.059 -0.051,-0.086 -0.074,-0.105 -0.027,-0.016 -0.047,-0.02 -0.07,-0.039 -0.047,-0.02 -0.102,-0.023 -0.156,-0.047 -0.117,-0.02 -0.258,-0.051 -0.406,-0.066 -0.145,-0.023 -0.289,-0.039 -0.402,-0.066 -0.059,-0.012 -0.102,-0.02 -0.137,-0.027 -0.008,-0.004 -0.02,-0.004 -0.027,-0.008 -0.004,-0.008 -0.012,-0.012 -0.012,-0.02 -0.02,-0.031 -0.043,-0.074 -0.074,-0.125 -0.051,-0.105 -0.113,-0.246 -0.18,-0.383 -0.063,-0.141 -0.125,-0.273 -0.191,-0.383 -0.031,-0.055 -0.059,-0.102 -0.09,-0.141 -0.035,-0.043 -0.059,-0.105 -0.172,-0.105 m 0.012,0"
     id="path34577" />
  <path
     style="fill:#000000;fill-opacity:1;fill-rule:nonzero;stroke:none"
     inkscape:connector-curvature="0"
     d="m 20.365407,20.855932 c -0.008,0 -0.012,0 -0.016,0.004 -0.02,0 -0.039,0.008 -0.055,0.02 0,0 0,0 -0.004,0.004 -0.047,0.02 -0.078,0.047 -0.098,0.078 -0.035,0.039 -0.066,0.086 -0.094,0.141 -0.063,0.105 -0.125,0.242 -0.191,0.383 -0.063,0.137 -0.129,0.277 -0.18,0.383 -0.027,0.051 -0.051,0.094 -0.07,0.125 -0.004,0.012 -0.012,0.016 -0.016,0.02 -0.008,0.004 -0.016,0.004 -0.023,0.008 -0.031,0.016 -0.082,0.023 -0.141,0.027 -0.113,0.023 -0.258,0.035 -0.402,0.066 -0.145,0.02 -0.289,0.047 -0.402,0.07 -0.059,0.016 -0.113,0.023 -0.156,0.043 -0.027,0.016 -0.047,0.023 -0.074,0.039 -0.023,0.023 -0.055,0.043 -0.074,0.105 -0.016,0.059 -0.004,0.102 0.004,0.129 0.012,0.031 0.023,0.055 0.035,0.078 0.027,0.043 0.063,0.09 0.102,0.137 0.078,0.094 0.184,0.199 0.285,0.313 0.105,0.102 0.211,0.207 0.293,0.293 0.039,0.043 0.074,0.082 0.094,0.105 0.008,0.008 0.008,0.016 0.016,0.023 0,0.008 0,0.016 0,0.02 -0.004,0.035 -0.008,0.086 -0.016,0.148 -0.016,0.121 -0.047,0.27 -0.07,0.422 -0.023,0.145 -0.047,0.301 -0.059,0.426 -0.008,0.063 -0.012,0.113 -0.008,0.164 0,0.027 0.008,0.055 0.016,0.086 0.008,0.031 0.023,0.07 0.07,0.105 0.043,0.031 0.086,0.031 0.117,0.031 0.031,0 0.055,0 0.078,-0.008 0.051,-0.016 0.102,-0.035 0.152,-0.063 0.109,-0.047 0.242,-0.117 0.375,-0.188 0.129,-0.07 0.254,-0.145 0.355,-0.199 0.051,-0.031 0.098,-0.051 0.129,-0.066 0.008,-0.004 0.012,-0.004 0.02,-0.008 0.008,0 0.016,0 0.023,0.008 0.031,0.016 0.078,0.035 0.125,0.066 0.105,0.051 0.23,0.125 0.359,0.199 0.133,0.07 0.262,0.141 0.371,0.188 0.055,0.027 0.105,0.047 0.152,0.063 0.027,0.008 0.051,0.008 0.078,0.008 0.031,0 0.07,0 0.121,-0.031 0.047,-0.035 0.059,-0.074 0.063,-0.105 0.016,-0.031 0.02,-0.059 0.02,-0.086 0.004,-0.051 0,-0.105 -0.004,-0.164 -0.016,-0.125 -0.035,-0.277 -0.063,-0.426 -0.023,-0.152 -0.055,-0.305 -0.074,-0.422 -0.004,-0.063 -0.012,-0.109 -0.012,-0.148 0,-0.008 0,-0.016 0,-0.02 0.004,-0.004 0.008,-0.008 0.012,-0.023 0.023,-0.023 0.063,-0.063 0.102,-0.105 0.082,-0.086 0.184,-0.191 0.289,-0.293 0.102,-0.109 0.211,-0.219 0.289,-0.313 0.039,-0.047 0.07,-0.094 0.098,-0.137 0.016,-0.02 0.027,-0.047 0.035,-0.078 0.012,-0.031 0.02,-0.07 0.004,-0.129 -0.016,-0.059 -0.051,-0.086 -0.074,-0.105 -0.023,-0.016 -0.047,-0.023 -0.07,-0.039 -0.047,-0.02 -0.098,-0.027 -0.156,-0.043 -0.117,-0.027 -0.258,-0.055 -0.402,-0.07 -0.148,-0.023 -0.293,-0.039 -0.406,-0.066 -0.055,-0.012 -0.102,-0.02 -0.137,-0.027 -0.008,-0.004 -0.02,-0.004 -0.023,-0.008 -0.004,-0.008 -0.012,-0.012 -0.016,-0.02 -0.02,-0.031 -0.043,-0.074 -0.07,-0.125 -0.055,-0.105 -0.117,-0.246 -0.184,-0.383 -0.063,-0.141 -0.125,-0.273 -0.188,-0.383 -0.035,-0.055 -0.063,-0.102 -0.094,-0.141 -0.031,-0.043 -0.059,-0.105 -0.172,-0.105 m 0.012,0"
     id="path34579" />
</svg>
