<?xml version="1.0" encoding="UTF-8" standalone="no"?>
<!-- Created with Inkscape (http://www.inkscape.org/) -->

<svg
   xmlns:dc="http://purl.org/dc/elements/1.1/"
   xmlns:cc="http://creativecommons.org/ns#"
   xmlns:rdf="http://www.w3.org/1999/02/22-rdf-syntax-ns#"
   xmlns:svg="http://www.w3.org/2000/svg"
   xmlns="http://www.w3.org/2000/svg"
   xmlns:xlink="http://www.w3.org/1999/xlink"
   xmlns:sodipodi="http://sodipodi.sourceforge.net/DTD/sodipodi-0.dtd"
   xmlns:inkscape="http://www.inkscape.org/namespaces/inkscape"
   id="svg2"
   version="1.1"
   inkscape:version="0.48.4 r9939"
   width="64"
   height="64"
   sodipodi:docname="deluge.svg">
  <metadata
     id="metadata8">
    <rdf:RDF>
      <cc:Work
         rdf:about="">
        <dc:format>image/svg+xml</dc:format>
        <dc:type
           rdf:resource="http://purl.org/dc/dcmitype/StillImage" />
        <dc:title></dc:title>
      </cc:Work>
    </rdf:RDF>
  </metadata>
  <defs
     id="defs6">
    <clipPath
       id="clipPath-651571626">
      <g
         id="g87223"
         transform="translate(0,-1004.3622)">
        <path
           id="path87225"
           fill="#1890d0"
           transform="matrix(15.333333,0,0,11.5,414.99999,878.8622)"
           d="m -24 13 c 0 1.105 -0.672 2 -1.5 2 -0.828 0 -1.5 -0.895 -1.5 -2 0 -1.105 0.672 -2 1.5 -2 0.828 0 1.5 0.895 1.5 2 z" />
      </g>
    </clipPath>
    <clipPath
       id="clipPath-643592050">
      <g
         id="g87218"
         transform="translate(0,-1004.3622)">
        <path
           id="path87220"
           fill="#1890d0"
           transform="matrix(15.333333,0,0,11.5,414.99999,878.8622)"
           d="m -24 13 c 0 1.105 -0.672 2 -1.5 2 -0.828 0 -1.5 -0.895 -1.5 -2 0 -1.105 0.672 -2 1.5 -2 0.828 0 1.5 0.895 1.5 2 z" />
      </g>
    </clipPath>
    <linearGradient
       gradientTransform="matrix(0,-1,1,0,-1.5e-6,47.999998)"
       gradientUnits="userSpaceOnUse"
       x2="47"
       x1="1"
       id="linearGradient3764">
      <stop
         id="stop87213"
         stop-opacity="1"
         stop-color="#3d3d3d" />
      <stop
         id="stop87215"
         stop-opacity="1"
         stop-color="#474747"
         offset="1" />
    </linearGradient>
    <linearGradient
       id="linearGradient3764-67"
       x1="1"
       x2="47"
       gradientUnits="userSpaceOnUse"
       gradientTransform="matrix(0,-1,1,0,-1.5e-6,47.999998)">
      <stop
         stop-color="#783193"
         stop-opacity="1"
         id="stop35989" />
      <stop
         offset="1"
         stop-color="#8436a2"
         stop-opacity="1"
         id="stop35991" />
    </linearGradient>
    <clipPath
       id="clipPath-075275238">
      <g
         transform="translate(0,-1004.3622)"
         id="g35994">
        <path
           d="m -24 13 c 0 1.105 -0.672 2 -1.5 2 -0.828 0 -1.5 -0.895 -1.5 -2 0 -1.105 0.672 -2 1.5 -2 0.828 0 1.5 0.895 1.5 2 z"
           transform="matrix(15.333333,0,0,11.5,414.99999,878.8622)"
           fill="#1890d0"
           id="path35996" />
      </g>
    </clipPath>
    <clipPath
       id="clipPath35998">
      <g
         transform="translate(0,-1004.3622)"
         id="g36000">
        <path
           d="m -24 13 c 0 1.105 -0.672 2 -1.5 2 -0.828 0 -1.5 -0.895 -1.5 -2 0 -1.105 0.672 -2 1.5 -2 0.828 0 1.5 0.895 1.5 2 z"
           transform="matrix(15.333333,0,0,11.5,414.99999,878.8622)"
           fill="#1890d0"
           id="path36002" />
      </g>
    </clipPath>
    <linearGradient
       id="linearGradient3764-6"
       x1="1"
       x2="47"
       gradientUnits="userSpaceOnUse"
       gradientTransform="matrix(0,-1,1,0,-1.5e-6,47.999998)">
      <stop
         stop-color="#ecc85c"
         stop-opacity="1"
         id="stop32829" />
      <stop
         offset="1"
         stop-color="#eecf6d"
         stop-opacity="1"
         id="stop32831" />
    </linearGradient>
    <clipPath
       id="clipPath-856971641">
      <g
         transform="translate(0,-1004.3622)"
         id="g32834">
        <path
           d="m -24 13 c 0 1.105 -0.672 2 -1.5 2 -0.828 0 -1.5 -0.895 -1.5 -2 0 -1.105 0.672 -2 1.5 -2 0.828 0 1.5 0.895 1.5 2 z"
           transform="matrix(15.333333,0,0,11.5,414.99999,878.8622)"
           fill="#1890d0"
           id="path32836" />
      </g>
    </clipPath>
    <clipPath
       id="clipPath-865148163">
      <g
         transform="translate(0,-1004.3622)"
         id="g32839">
        <path
           d="m -24 13 c 0 1.105 -0.672 2 -1.5 2 -0.828 0 -1.5 -0.895 -1.5 -2 0 -1.105 0.672 -2 1.5 -2 0.828 0 1.5 0.895 1.5 2 z"
           transform="matrix(15.333333,0,0,11.5,414.99999,878.8622)"
           fill="#1890d0"
           id="path32841" />
      </g>
    </clipPath>
    <linearGradient
       id="linearGradient3764-3"
       x1="1"
       x2="47"
       gradientUnits="userSpaceOnUse"
       gradientTransform="matrix(0,-1,1,0,-1.5e-6,47.999998)">
      <stop
         stop-color="#3d3d3d"
         stop-opacity="1"
         id="stop30249" />
      <stop
         offset="1"
         stop-color="#474747"
         stop-opacity="1"
         id="stop30251" />
    </linearGradient>
    <clipPath
       id="clipPath-934908849">
      <g
         transform="translate(0,-1004.3622)"
         id="g30254">
        <path
           d="m -24 13 c 0 1.105 -0.672 2 -1.5 2 -0.828 0 -1.5 -0.895 -1.5 -2 0 -1.105 0.672 -2 1.5 -2 0.828 0 1.5 0.895 1.5 2 z"
           transform="matrix(15.333333,0,0,11.5,414.99999,878.8622)"
           fill="#1890d0"
           id="path30256" />
      </g>
    </clipPath>
    <clipPath
       id="clipPath-942748752">
      <g
         transform="translate(0,-1004.3622)"
         id="g30259">
        <path
           d="m -24 13 c 0 1.105 -0.672 2 -1.5 2 -0.828 0 -1.5 -0.895 -1.5 -2 0 -1.105 0.672 -2 1.5 -2 0.828 0 1.5 0.895 1.5 2 z"
           transform="matrix(15.333333,0,0,11.5,414.99999,878.8622)"
           fill="#1890d0"
           id="path30261" />
      </g>
    </clipPath>
    <linearGradient
       x2="47"
       x1="1"
       gradientTransform="matrix(0,-1,1,0,-106.26171,50.076269)"
       gradientUnits="userSpaceOnUse"
       id="linearGradient28432"
       xlink:href="#linearGradient3157"
       inkscape:collect="always" />
    <clipPath
       id="clipPath-608500842">
      <g
         transform="translate(0,-1004.3622)"
         id="g28262">
        <path
           d="m -24 13 c 0 1.105 -0.672 2 -1.5 2 -0.828 0 -1.5 -0.895 -1.5 -2 0 -1.105 0.672 -2 1.5 -2 0.828 0 1.5 0.895 1.5 2 z"
           transform="matrix(15.333333,0,0,11.5,414.99999,878.8622)"
           fill="#1890d0"
           id="path28264" />
      </g>
    </clipPath>
    <clipPath
       id="clipPath28266">
      <g
         transform="translate(0,-1004.3622)"
         id="g28268">
        <path
           d="m -24 13 c 0 1.105 -0.672 2 -1.5 2 -0.828 0 -1.5 -0.895 -1.5 -2 0 -1.105 0.672 -2 1.5 -2 0.828 0 1.5 0.895 1.5 2 z"
           transform="matrix(15.333333,0,0,11.5,414.99999,878.8622)"
           fill="#1890d0"
           id="path28270" />
      </g>
    </clipPath>
    <linearGradient
       id="linearGradient3157"
       gradientUnits="userSpaceOnUse"
       gradientTransform="matrix(0,-1,1,0,-1.5e-6,47.999998)"
       x1="1"
       x2="47">
      <stop
         stop-color="#434343"
         stop-opacity="1"
         id="stop28273" />
      <stop
         offset="1"
         stop-color="#4d4d4d"
         stop-opacity="1"
         id="stop28275" />
    </linearGradient>
    <linearGradient
       id="linearGradient3764-12"
       x1="1"
       x2="47"
       gradientUnits="userSpaceOnUse"
       gradientTransform="matrix(0,-1,1,0,-1.5e-6,47.999998)">
      <stop
         stop-color="#4a343d"
         stop-opacity="1"
         id="stop27447" />
      <stop
         offset="1"
         stop-color="#563c47"
         stop-opacity="1"
         id="stop27449" />
    </linearGradient>
    <clipPath
       id="clipPath-542141410">
      <g
         transform="translate(0,-1004.3622)"
         id="g27452">
        <path
           d="m -24 13 c 0 1.105 -0.672 2 -1.5 2 -0.828 0 -1.5 -0.895 -1.5 -2 0 -1.105 0.672 -2 1.5 -2 0.828 0 1.5 0.895 1.5 2 z"
           transform="matrix(15.333333,0,0,11.5,414.99999,878.8622)"
           fill="#1890d0"
           id="path27454" />
      </g>
    </clipPath>
    <clipPath
       id="clipPath-548721082">
      <g
         transform="translate(0,-1004.3622)"
         id="g27457">
        <path
           d="m -24 13 c 0 1.105 -0.672 2 -1.5 2 -0.828 0 -1.5 -0.895 -1.5 -2 0 -1.105 0.672 -2 1.5 -2 0.828 0 1.5 0.895 1.5 2 z"
           transform="matrix(15.333333,0,0,11.5,414.99999,878.8622)"
           fill="#1890d0"
           id="path27459" />
      </g>
    </clipPath>
    <linearGradient
       id="linearGradient3764-80"
       x1="1"
       x2="47"
       gradientUnits="userSpaceOnUse"
       gradientTransform="matrix(0,-1,1,0,-1.5e-6,47.999998)">
      <stop
         stop-color="#1791d1"
         stop-opacity="1"
         id="stop24482" />
      <stop
         offset="1"
         stop-color="#19a0e3"
         stop-opacity="1"
         id="stop24484" />
    </linearGradient>
    <clipPath
       id="clipPath-617306126">
      <g
         transform="translate(0,-1004.3622)"
         id="g24487">
        <path
           d="m -24 13 c 0 1.105 -0.672 2 -1.5 2 -0.828 0 -1.5 -0.895 -1.5 -2 0 -1.105 0.672 -2 1.5 -2 0.828 0 1.5 0.895 1.5 2 z"
           transform="matrix(15.333333,0,0,11.5,414.99999,878.8622)"
           fill="#1890d0"
           id="path24489" />
      </g>
    </clipPath>
    <clipPath
       id="clipPath-626667287">
      <g
         transform="translate(0,-1004.3622)"
         id="g24492">
        <path
           d="m -24 13 c 0 1.105 -0.672 2 -1.5 2 -0.828 0 -1.5 -0.895 -1.5 -2 0 -1.105 0.672 -2 1.5 -2 0.828 0 1.5 0.895 1.5 2 z"
           transform="matrix(15.333333,0,0,11.5,414.99999,878.8622)"
           fill="#1890d0"
           id="path24494" />
      </g>
    </clipPath>
    <linearGradient
       id="linearGradient3764-4"
       x1="1"
       x2="47"
       gradientUnits="userSpaceOnUse"
       gradientTransform="matrix(0,-1,1,0,-1.5e-6,47.999998)">
      <stop
         stop-color="#008bb8"
         stop-opacity="1"
         id="stop20142" />
      <stop
         offset="1"
         stop-color="#009acd"
         stop-opacity="1"
         id="stop20144" />
    </linearGradient>
    <clipPath
       id="clipPath-886701251">
      <g
         transform="translate(0,-1004.3622)"
         id="g20147">
        <path
           d="m -24 13 c 0 1.105 -0.672 2 -1.5 2 -0.828 0 -1.5 -0.895 -1.5 -2 0 -1.105 0.672 -2 1.5 -2 0.828 0 1.5 0.895 1.5 2 z"
           transform="matrix(15.333333,0,0,11.5,414.99999,878.8622)"
           fill="#1890d0"
           id="path20149" />
      </g>
    </clipPath>
    <clipPath
       id="clipPath-895829878">
      <g
         transform="translate(0,-1004.3622)"
         id="g20152">
        <path
           d="m -24 13 c 0 1.105 -0.672 2 -1.5 2 -0.828 0 -1.5 -0.895 -1.5 -2 0 -1.105 0.672 -2 1.5 -2 0.828 0 1.5 0.895 1.5 2 z"
           transform="matrix(15.333333,0,0,11.5,414.99999,878.8622)"
           fill="#1890d0"
           id="path20154" />
      </g>
    </clipPath>
    <linearGradient
       id="linearGradient3764-27"
       x1="1"
       x2="47"
       gradientUnits="userSpaceOnUse"
       gradientTransform="matrix(0,-1,1,0,-1.5e-6,47.999998)">
      <stop
         stop-color="#527fb2"
         stop-opacity="1"
         id="stop16324" />
      <stop
         offset="1"
         stop-color="#5f88b8"
         stop-opacity="1"
         id="stop16326" />
    </linearGradient>
    <clipPath
       id="clipPath-441467043">
      <g
         transform="translate(0,-1004.3622)"
         id="g16329">
        <path
           d="m -24 13 c 0 1.105 -0.672 2 -1.5 2 -0.828 0 -1.5 -0.895 -1.5 -2 0 -1.105 0.672 -2 1.5 -2 0.828 0 1.5 0.895 1.5 2 z"
           transform="matrix(15.333333,0,0,11.5,414.99999,878.8622)"
           fill="#1890d0"
           id="path16331" />
      </g>
    </clipPath>
    <clipPath
       id="clipPath-448465917">
      <g
         transform="translate(0,-1004.3622)"
         id="g16334">
        <path
           d="m -24 13 c 0 1.105 -0.672 2 -1.5 2 -0.828 0 -1.5 -0.895 -1.5 -2 0 -1.105 0.672 -2 1.5 -2 0.828 0 1.5 0.895 1.5 2 z"
           transform="matrix(15.333333,0,0,11.5,414.99999,878.8622)"
           fill="#1890d0"
           id="path16336" />
      </g>
    </clipPath>
    <linearGradient
       id="linearGradient3764-2"
       x1="1"
       x2="47"
       gradientUnits="userSpaceOnUse"
       gradientTransform="matrix(0,-1,1,0,-1.5e-6,47.999998)">
      <stop
         stop-color="#ec9b28"
         stop-opacity="1"
         id="stop14428" />
      <stop
         offset="1"
         stop-color="#eea53a"
         stop-opacity="1"
         id="stop14430" />
    </linearGradient>
    <clipPath
       id="clipPath-042046698">
      <g
         transform="translate(0,-1004.3622)"
         id="g14433">
        <path
           d="m -24 13 c 0 1.105 -0.672 2 -1.5 2 -0.828 0 -1.5 -0.895 -1.5 -2 0 -1.105 0.672 -2 1.5 -2 0.828 0 1.5 0.895 1.5 2 z"
           transform="matrix(15.333333,0,0,11.5,414.99999,878.8622)"
           fill="#1890d0"
           id="path14435" />
      </g>
    </clipPath>
    <clipPath
       id="clipPath-054702263">
      <g
         transform="translate(0,-1004.3622)"
         id="g14438">
        <path
           d="m -24 13 c 0 1.105 -0.672 2 -1.5 2 -0.828 0 -1.5 -0.895 -1.5 -2 0 -1.105 0.672 -2 1.5 -2 0.828 0 1.5 0.895 1.5 2 z"
           transform="matrix(15.333333,0,0,11.5,414.99999,878.8622)"
           fill="#1890d0"
           id="path14440" />
      </g>
    </clipPath>
    <linearGradient
       id="linearGradient3764-72"
       x1="1"
       x2="47"
       gradientUnits="userSpaceOnUse"
       gradientTransform="matrix(0,-1,1,0,-1.5e-6,47.999998)">
      <stop
         stop-color="#333"
         stop-opacity="1"
         id="stop10777" />
      <stop
         offset="1"
         stop-color="#3d3d3d"
         stop-opacity="1"
         id="stop10779" />
    </linearGradient>
    <clipPath
       id="clipPath-253146245">
      <g
         transform="translate(0,-1004.3622)"
         id="g10782">
        <path
           d="m -24 13 c 0 1.105 -0.672 2 -1.5 2 -0.828 0 -1.5 -0.895 -1.5 -2 0 -1.105 0.672 -2 1.5 -2 0.828 0 1.5 0.895 1.5 2 z"
           transform="matrix(15.333333,0,0,11.5,414.99999,878.8622)"
           fill="#1890d0"
           id="path10784" />
      </g>
    </clipPath>
    <clipPath
       id="clipPath-262930867">
      <g
         transform="translate(0,-1004.3622)"
         id="g10787">
        <path
           d="m -24 13 c 0 1.105 -0.672 2 -1.5 2 -0.828 0 -1.5 -0.895 -1.5 -2 0 -1.105 0.672 -2 1.5 -2 0.828 0 1.5 0.895 1.5 2 z"
           transform="matrix(15.333333,0,0,11.5,414.99999,878.8622)"
           fill="#1890d0"
           id="path10789" />
      </g>
    </clipPath>
    <linearGradient
       id="linearGradient3764-7"
       x1="1"
       x2="47"
       gradientUnits="userSpaceOnUse"
       gradientTransform="matrix(0,-1,1,0,-1.5e-6,47.999998)">
      <stop
         stop-color="#b93b3b"
         stop-opacity="1"
         id="stop9268" />
      <stop
         offset="1"
         stop-color="#c34545"
         stop-opacity="1"
         id="stop9270" />
    </linearGradient>
    <clipPath
       id="clipPath-887079119">
      <g
         transform="translate(0,-1004.3622)"
         id="g9273">
        <path
           d="m -24 13 c 0 1.105 -0.672 2 -1.5 2 -0.828 0 -1.5 -0.895 -1.5 -2 0 -1.105 0.672 -2 1.5 -2 0.828 0 1.5 0.895 1.5 2 z"
           transform="matrix(15.333333,0,0,11.5,414.99999,878.8622)"
           fill="#1890d0"
           id="path9275" />
      </g>
    </clipPath>
    <clipPath
       id="clipPath-898578971">
      <g
         transform="translate(0,-1004.3622)"
         id="g9278">
        <path
           d="m -24 13 c 0 1.105 -0.672 2 -1.5 2 -0.828 0 -1.5 -0.895 -1.5 -2 0 -1.105 0.672 -2 1.5 -2 0.828 0 1.5 0.895 1.5 2 z"
           transform="matrix(15.333333,0,0,11.5,414.99999,878.8622)"
           fill="#1890d0"
           id="path9280" />
      </g>
    </clipPath>
    <linearGradient
       id="linearGradient3764-13"
       x1="1"
       x2="47"
       gradientUnits="userSpaceOnUse"
       gradientTransform="matrix(0,-1,1,0,-1.5e-6,47.999998)">
      <stop
         stop-color="#b93b3b"
         stop-opacity="1"
         id="stop8415" />
      <stop
         offset="1"
         stop-color="#c34545"
         stop-opacity="1"
         id="stop8417" />
    </linearGradient>
    <clipPath
       id="clipPath-285700110">
      <g
         transform="translate(0,-1004.3622)"
         id="g8420">
        <path
           d="m -24 13 c 0 1.105 -0.672 2 -1.5 2 -0.828 0 -1.5 -0.895 -1.5 -2 0 -1.105 0.672 -2 1.5 -2 0.828 0 1.5 0.895 1.5 2 z"
           transform="matrix(15.333333,0,0,11.5,414.99999,878.8622)"
           fill="#1890d0"
           id="path8422" />
      </g>
    </clipPath>
    <clipPath
       id="clipPath-291383647">
      <g
         transform="translate(0,-1004.3622)"
         id="g8425">
        <path
           d="m -24 13 c 0 1.105 -0.672 2 -1.5 2 -0.828 0 -1.5 -0.895 -1.5 -2 0 -1.105 0.672 -2 1.5 -2 0.828 0 1.5 0.895 1.5 2 z"
           transform="matrix(15.333333,0,0,11.5,414.99999,878.8622)"
           fill="#1890d0"
           id="path8427" />
      </g>
    </clipPath>
    <linearGradient
       id="linearGradient3764-8"
       x1="1"
       x2="47"
       gradientUnits="userSpaceOnUse"
       gradientTransform="matrix(0,-1,1,0,-1.5e-6,47.999998)">
      <stop
         stop-color="#e33562"
         stop-opacity="1"
         id="stop7889" />
      <stop
         offset="1"
         stop-color="#e64772"
         stop-opacity="1"
         id="stop7891" />
    </linearGradient>
    <clipPath
       id="clipPath-128127935">
      <g
         transform="translate(0,-1004.3622)"
         id="g7894">
        <path
           d="m -24 13 c 0 1.105 -0.672 2 -1.5 2 -0.828 0 -1.5 -0.895 -1.5 -2 0 -1.105 0.672 -2 1.5 -2 0.828 0 1.5 0.895 1.5 2 z"
           transform="matrix(15.333333,0,0,11.5,414.99999,878.8622)"
           fill="#1890d0"
           id="path7896" />
      </g>
    </clipPath>
    <clipPath
       id="clipPath-139920786">
      <g
         transform="translate(0,-1004.3622)"
         id="g7899">
        <path
           d="m -24 13 c 0 1.105 -0.672 2 -1.5 2 -0.828 0 -1.5 -0.895 -1.5 -2 0 -1.105 0.672 -2 1.5 -2 0.828 0 1.5 0.895 1.5 2 z"
           transform="matrix(15.333333,0,0,11.5,414.99999,878.8622)"
           fill="#1890d0"
           id="path7901" />
      </g>
    </clipPath>
    <linearGradient
       id="linearGradient3764-5"
       x1="1"
       x2="47"
       gradientUnits="userSpaceOnUse"
       gradientTransform="matrix(0,-1,1,0,-1.5e-6,47.999998)">
      <stop
         stop-color="#333"
         stop-opacity="1"
         id="stop7086" />
      <stop
         offset="1"
         stop-color="#3d3d3d"
         stop-opacity="1"
         id="stop7088" />
    </linearGradient>
    <clipPath
       id="clipPath-478329641">
      <g
         transform="translate(0,-1004.3622)"
         id="g7091">
        <path
           d="m -24 13 c 0 1.105 -0.672 2 -1.5 2 -0.828 0 -1.5 -0.895 -1.5 -2 0 -1.105 0.672 -2 1.5 -2 0.828 0 1.5 0.895 1.5 2 z"
           transform="matrix(15.333333,0,0,11.5,414.99999,878.8622)"
           fill="#1890d0"
           id="path7093" />
      </g>
    </clipPath>
    <clipPath
       id="clipPath-483879499">
      <g
         transform="translate(0,-1004.3622)"
         id="g7096">
        <path
           d="m -24 13 c 0 1.105 -0.672 2 -1.5 2 -0.828 0 -1.5 -0.895 -1.5 -2 0 -1.105 0.672 -2 1.5 -2 0.828 0 1.5 0.895 1.5 2 z"
           transform="matrix(15.333333,0,0,11.5,414.99999,878.8622)"
           fill="#1890d0"
           id="path7098" />
      </g>
    </clipPath>
    <linearGradient
       id="linearGradient3764-1"
       x1="1"
       x2="47"
       gradientUnits="userSpaceOnUse"
       gradientTransform="matrix(0,-1,1,0,-1.5e-6,47.999998)">
      <stop
         stop-color="#b93b3b"
         stop-opacity="1"
         id="stop5330" />
      <stop
         offset="1"
         stop-color="#c34545"
         stop-opacity="1"
         id="stop5332" />
    </linearGradient>
    <clipPath
       id="clipPath-233610327">
      <g
         transform="translate(0,-1004.3622)"
         id="g5335">
        <path
           d="m -24 13 c 0 1.105 -0.672 2 -1.5 2 -0.828 0 -1.5 -0.895 -1.5 -2 0 -1.105 0.672 -2 1.5 -2 0.828 0 1.5 0.895 1.5 2 z"
           transform="matrix(15.333333,0,0,11.5,414.99999,878.8622)"
           fill="#1890d0"
           id="path5337" />
      </g>
    </clipPath>
    <clipPath
       id="clipPath-239231159">
      <g
         transform="translate(0,-1004.3622)"
         id="g5340">
        <path
           d="m -24 13 c 0 1.105 -0.672 2 -1.5 2 -0.828 0 -1.5 -0.895 -1.5 -2 0 -1.105 0.672 -2 1.5 -2 0.828 0 1.5 0.895 1.5 2 z"
           transform="matrix(15.333333,0,0,11.5,414.99999,878.8622)"
           fill="#1890d0"
           id="path5342" />
      </g>
    </clipPath>
    <linearGradient
       id="linearGradient3764-9"
       x1="1"
       x2="47"
       gradientUnits="userSpaceOnUse"
       gradientTransform="matrix(0,-1,1,0,-1.5e-6,47.999998)">
      <stop
         stop-color="#97b2d3"
         stop-opacity="1"
         id="stop4599" />
      <stop
         offset="1"
         stop-color="#a5bcd9"
         stop-opacity="1"
         id="stop4601" />
    </linearGradient>
    <clipPath
       id="clipPath-172451806">
      <g
         transform="translate(0,-1004.3622)"
         id="g4604">
        <path
           d="m -24 13 c 0 1.105 -0.672 2 -1.5 2 -0.828 0 -1.5 -0.895 -1.5 -2 0 -1.105 0.672 -2 1.5 -2 0.828 0 1.5 0.895 1.5 2 z"
           transform="matrix(15.333333,0,0,11.5,414.99999,878.8622)"
           fill="#1890d0"
           id="path4606" />
      </g>
    </clipPath>
    <clipPath
       id="clipPath-183935099">
      <g
         transform="translate(0,-1004.3622)"
         id="g4609">
        <path
           d="m -24 13 c 0 1.105 -0.672 2 -1.5 2 -0.828 0 -1.5 -0.895 -1.5 -2 0 -1.105 0.672 -2 1.5 -2 0.828 0 1.5 0.895 1.5 2 z"
           transform="matrix(15.333333,0,0,11.5,414.99999,878.8622)"
           fill="#1890d0"
           id="path4611" />
      </g>
    </clipPath>
    <linearGradient
       id="linearGradient3764-97"
       x1="1"
       x2="47"
       gradientUnits="userSpaceOnUse"
       gradientTransform="matrix(0,-1,1,0,-1.5e-6,47.999998)">
      <stop
         stop-color="#e4e4e4"
         stop-opacity="1"
         id="stop4134" />
      <stop
         offset="1"
         stop-color="#eee"
         stop-opacity="1"
         id="stop4136" />
    </linearGradient>
    <clipPath
       id="clipPath-046900192">
      <g
         transform="translate(0,-1004.3622)"
         id="g4139">
        <path
           d="m -24 13 c 0 1.105 -0.672 2 -1.5 2 -0.828 0 -1.5 -0.895 -1.5 -2 0 -1.105 0.672 -2 1.5 -2 0.828 0 1.5 0.895 1.5 2 z"
           transform="matrix(15.333333,0,0,11.5,414.99999,878.8622)"
           fill="#1890d0"
           id="path4141" />
      </g>
    </clipPath>
    <clipPath
       id="clipPath-055917835">
      <g
         transform="translate(0,-1004.3622)"
         id="g4144">
        <path
           d="m -24 13 c 0 1.105 -0.672 2 -1.5 2 -0.828 0 -1.5 -0.895 -1.5 -2 0 -1.105 0.672 -2 1.5 -2 0.828 0 1.5 0.895 1.5 2 z"
           transform="matrix(15.333333,0,0,11.5,414.99999,878.8622)"
           fill="#1890d0"
           id="path4146" />
      </g>
    </clipPath>
  </defs>
  <sodipodi:namedview
     pagecolor="#ffffff"
     bordercolor="#666666"
     borderopacity="1"
     objecttolerance="10"
     gridtolerance="10"
     guidetolerance="10"
     inkscape:pageopacity="0"
     inkscape:pageshadow="2"
     inkscape:window-width="1316"
     inkscape:window-height="674"
     id="namedview4"
     showgrid="false"
     inkscape:zoom="3.6875"
     inkscape:cx="-24.677967"
     inkscape:cy="42.847458"
     inkscape:window-x="44"
     inkscape:window-y="29"
     inkscape:window-maximized="1"
     inkscape:current-layer="svg2" />
  <rect
     style="fill:#000000;fill-opacity:1;stroke:#000000;stroke-width:0.53665989999999997;stroke-linecap:round;stroke-linejoin:round;stroke-miterlimit:4;stroke-opacity:1;stroke-dasharray:none"
     id="rect3005"
     width="59.081985"
     height="59.624359"
     x="2.4590092"
     y="2.1878221"
     ry="5.9392786"
     rx="5.9392786" />
  <g
     id="g87239"
     transform="translate(-96.499001,-11.483051)" />
  <path
     id="path87267"
     d="m 31.855418,14.138475 c -4.961705,9.778551 -12.615219,21.444668 -11.157507,27.620715 6.527005,11.33903 15.583381,11.897804 22.802324,0 C 45.181561,34.599609 36.734849,23.755754 31.84909,14.138475 m 0.0085,0"
     inkscape:connector-curvature="0"
     style="fill:#ff0000;fill-opacity:1;fill-rule:nonzero;stroke:#000000;stroke-opacity:1" />
  <g
     id="g4160"
     transform="translate(-243.01873,-26.940681)" />
  <g
     id="g4625"
     transform="translate(-192.03567,-20.97458)" />
  <g
     id="g5356"
     transform="translate(-211.83228,-16.906782)" />
  <g
     id="g7112"
     transform="translate(-211.42551,-16.635596)" />
  <g
     id="g7915"
     transform="translate(-251.83229,-23.415257)" />
  <g
     id="g8441"
     transform="translate(-208.98483,-13.110172)" />
  <g
     id="g9294"
     transform="translate(-237.4594,-24.771189)" />
  <g
     id="g10803"
     transform="translate(-186.47636,-22.872884)" />
  <g
     id="g14454"
     transform="translate(-224.44245,-14.194918)" />
  <g
     id="g20168"
     transform="translate(-227.69669,-16.906782)" />
  <g
     id="g24508"
     transform="translate(-149.05262,-2.533901)" />
  <g
     id="g27473"
     transform="translate(-149.05262,-2.533901)" />
  <g
     id="g30275"
     transform="translate(-229.595,-15.008477)" />
  <g
     id="g32855"
     transform="translate(-238.54415,-15.279664)" />
  <path
     style="fill:#f9f9f9;fill-opacity:1;fill-rule:nonzero;stroke:#000000;stroke-opacity:1;stroke-width:0.5;stroke-miterlimit:4;stroke-dasharray:none"
     inkscape:connector-curvature="0"
     d="m 33.837189,31.705702 c -3.263793,0.07746 -8.090852,2.533034 -8.502136,7.052301 -0.446087,4.445578 3.238793,7.715913 7.552116,8.949353 0.0054,4.22e-4 0.0103,-4.21e-4 0.0152,0 0.19216,0.0084 0.387753,0.01298 0.582364,0.01298 1.573562,0 3.066731,-0.274656 4.426562,-0.772052 C 30.14839,46.443352 27.05813,43.795599 26.881656,39.13733 c 0.649033,-5.797507 7.416819,-6.08891 7.598195,-6.044949 l 0,-1.360721 c -0.201964,-0.01591 -0.425989,-0.0314 -0.64364,-0.02638 z m 0.781389,1.792384 c -0.175984,-0.0017 -0.359812,0.0034 -0.536286,0.01298 -0.471088,0.02764 -0.942176,0.08834 -1.409343,0.196363 -1.836312,0.42287 -3.344676,1.413056 -4.258911,2.773776 -1.918666,2.860444 -0.902469,6.358961 2.420638,8.308351 1.775037,0.841553 4.703529,1.48172 8.411938,1.570062 0.630896,-0.320711 1.218163,-0.682872 1.761801,-1.099044 -5.39717,0.01214 -7.095244,-0.319874 -9.252641,-1.583041 -2.623584,-1.537405 -3.455953,-4.284804 -1.960825,-6.515968 0.702956,-1.043358 1.886313,-1.807036 3.308892,-2.132772 1.459344,-0.33704 2.960845,-0.160355 4.243224,0.471019 L 38.14365,34.322054 C 37.057843,33.78907 35.851446,33.506041 34.620048,33.497667 z m -0.153435,1.844718 c -0.80786,0.02303 -1.624053,0.209341 -2.343675,0.562709 -1.59317,0.785032 -2.465737,2.207718 -2.465737,3.676458 0,0.680361 0.177944,1.378724 0.582364,2.015123 0,0.0017 0.02451,0.03098 0.03088,0.03936 0,0 -0.0078,0.01591 0,0.02638 0.01128,0.01633 0.04412,0.03433 0.04608,0.03936 0.252947,0.366347 1.225516,1.616954 3.339775,2.276799 2.312302,0.528378 5.577566,0.617977 8.195757,0.56271 0.33285,-0.31485 0.636778,-0.643935 0.919136,-0.994372 -2.965747,0.01214 -6.679059,-0.05694 -8.593804,-0.850346 -1.66425,-0.516655 -2.353479,-1.467066 -2.481914,-1.661754 -0.304418,-0.453015 -0.444126,-0.965065 -0.444126,-1.452412 0,-0.996047 0.601483,-1.964043 1.685328,-2.49912 0.781389,-0.382677 1.685329,-0.485672 2.558387,-0.288054 0.867665,0.200968 1.600522,0.68036 2.052983,1.347741 l 1.424539,-0.628025 -0.04608,-0.03936 c -0.664229,-0.981395 -1.719643,-1.691482 -3.002512,-1.988748 -0.480402,-0.109694 -0.970609,-0.157006 -1.455423,-0.144027 z"
     id="path36032" />
</svg>
