<?xml version="1.0" encoding="UTF-8" standalone="no"?>
<!-- Created with Inkscape (http://www.inkscape.org/) -->

<svg
   xmlns:dc="http://purl.org/dc/elements/1.1/"
   xmlns:cc="http://creativecommons.org/ns#"
   xmlns:rdf="http://www.w3.org/1999/02/22-rdf-syntax-ns#"
   xmlns:svg="http://www.w3.org/2000/svg"
   xmlns="http://www.w3.org/2000/svg"
   xmlns:sodipodi="http://sodipodi.sourceforge.net/DTD/sodipodi-0.dtd"
   xmlns:inkscape="http://www.inkscape.org/namespaces/inkscape"
   id="svg2"
   version="1.1"
   inkscape:version="0.48.4 r9939"
   width="64"
   height="64"
   sodipodi:docname="exaile.svg">
  <metadata
     id="metadata8">
    <rdf:RDF>
      <cc:Work
         rdf:about="">
        <dc:format>image/svg+xml</dc:format>
        <dc:type
           rdf:resource="http://purl.org/dc/dcmitype/StillImage" />
        <dc:title></dc:title>
      </cc:Work>
    </rdf:RDF>
  </metadata>
  <defs
     id="defs6">
    <clipPath
       id="clipPath-900365933">
      <g
         id="g3319"
         transform="translate(0,-1004.3622)">
        <path
           id="path3321"
           fill="#1890d0"
           transform="matrix(15.333333,0,0,11.5,414.99999,878.8622)"
           d="m -24 13 c 0 1.105 -0.672 2 -1.5 2 -0.828 0 -1.5 -0.895 -1.5 -2 0 -1.105 0.672 -2 1.5 -2 0.828 0 1.5 0.895 1.5 2 z" />
      </g>
    </clipPath>
    <clipPath
       id="clipPath-888996903">
      <g
         id="g3314"
         transform="translate(0,-1004.3622)">
        <path
           id="path3316"
           fill="#1890d0"
           transform="matrix(15.333333,0,0,11.5,414.99999,878.8622)"
           d="m -24 13 c 0 1.105 -0.672 2 -1.5 2 -0.828 0 -1.5 -0.895 -1.5 -2 0 -1.105 0.672 -2 1.5 -2 0.828 0 1.5 0.895 1.5 2 z" />
      </g>
    </clipPath>
    <linearGradient
       gradientTransform="matrix(0,-1,1,0,-1.5e-6,47.999998)"
       gradientUnits="userSpaceOnUse"
       x2="47"
       x1="1"
       id="linearGradient3764">
      <stop
         id="stop3309"
         stop-opacity="1"
         stop-color="#e7e7e7" />
      <stop
         id="stop3311"
         stop-opacity="1"
         stop-color="#f1f1f1"
         offset="1" />
    </linearGradient>
    <clipPath
       id="clipPath-824049301">
      <g
         id="g3669"
         transform="translate(0,-1004.3622)">
        <path
           id="path3671"
           fill="#1890d0"
           transform="matrix(15.333333,0,0,11.5,414.99999,878.8622)"
           d="m -24 13 c 0 1.105 -0.672 2 -1.5 2 -0.828 0 -1.5 -0.895 -1.5 -2 0 -1.105 0.672 -2 1.5 -2 0.828 0 1.5 0.895 1.5 2 z" />
      </g>
    </clipPath>
    <clipPath
       id="clipPath-818636847">
      <g
         id="g3664"
         transform="translate(0,-1004.3622)">
        <path
           id="path3666"
           fill="#1890d0"
           transform="matrix(15.333333,0,0,11.5,414.99999,878.8622)"
           d="m -24 13 c 0 1.105 -0.672 2 -1.5 2 -0.828 0 -1.5 -0.895 -1.5 -2 0 -1.105 0.672 -2 1.5 -2 0.828 0 1.5 0.895 1.5 2 z" />
      </g>
    </clipPath>
    <linearGradient
       gradientTransform="matrix(0,-1,1,0,-1.5e-6,47.999998)"
       gradientUnits="userSpaceOnUse"
       x2="47"
       x1="1"
       id="linearGradient3764-7">
      <stop
         id="stop3659"
         stop-opacity="1"
         stop-color="#70ba5e" />
      <stop
         id="stop3661"
         stop-opacity="1"
         stop-color="#7dc06d"
         offset="1" />
    </linearGradient>
  </defs>
  <sodipodi:namedview
     pagecolor="#ffffff"
     bordercolor="#666666"
     borderopacity="1"
     objecttolerance="10"
     gridtolerance="10"
     guidetolerance="10"
     inkscape:pageopacity="0"
     inkscape:pageshadow="2"
     inkscape:window-width="1316"
     inkscape:window-height="674"
     id="namedview4"
     showgrid="false"
     inkscape:zoom="3.6875"
     inkscape:cx="-19.932204"
     inkscape:cy="32"
     inkscape:window-x="44"
     inkscape:window-y="29"
     inkscape:window-maximized="1"
     inkscape:current-layer="svg2" />
  <rect
     style="fill:#000000;fill-opacity:1;stroke:#000000;stroke-width:0.53665989999999997;stroke-linecap:round;stroke-linejoin:round;stroke-miterlimit:4;stroke-opacity:1;stroke-dasharray:none"
     id="rect3005"
     width="59.081985"
     height="59.624359"
     x="2.4590092"
     y="2.1878221"
     ry="5.9392786"
     rx="5.9392786" />
  <g
     id="g3685"
     transform="translate(-102.87188,6.4152542)" />
  <path
     sodipodi:type="arc"
     style="fill:#ffffff;fill-opacity:1;stroke:#000000;stroke-width:0;stroke-linecap:round;stroke-linejoin:round;stroke-miterlimit:4;stroke-opacity:1;stroke-dasharray:none"
     id="path3764"
     sodipodi:cx="34.983051"
     sodipodi:cy="30.779661"
     sodipodi:rx="19.254238"
     sodipodi:ry="19.932203"
     d="m 54.237289,30.779661 a 19.254238,19.932203 0 1 1 -38.508476,0 19.254238,19.932203 0 1 1 38.508476,0 z"
     transform="translate(-2.9830512,-1.5254244e-8)" />
  <g
     id="g4536"
     style="stroke:#000000;stroke-width:1.29999995;stroke-miterlimit:4;stroke-opacity:1;stroke-dasharray:none"
     transform="translate(1.3559322,0)">
    <g
       style="fill:#00ff00;stroke:#000000;stroke-width:1.29999995;stroke-miterlimit:4;stroke-opacity:1;stroke-dasharray:none"
       transform="translate(7.2298152,7.4999996)"
       id="g3699">
      <g
         style="fill:#00ff00;stroke:#000000;stroke-width:1.29999995;stroke-miterlimit:4;stroke-opacity:1;stroke-dasharray:none"
         id="g3701"
         clip-path="url(#clipPath-824049301)">
        <!-- color: #7dc06d -->
        <g
           style="fill:#00ff00;stroke:#000000;stroke-width:1.29999995;stroke-miterlimit:4;stroke-opacity:1;stroke-dasharray:none"
           id="g3703">
          <path
             id="path3705"
             d="M 19,14 19,34 34,24 M 19,14"
             inkscape:connector-curvature="0"
             style="fill:#00ff00;fill-opacity:1;fill-rule:nonzero;stroke:#000000;stroke-width:1.29999995;stroke-miterlimit:4;stroke-opacity:1;stroke-dasharray:none" />
        </g>
      </g>
    </g>
    <path
       inkscape:connector-curvature="0"
       id="path4534"
       d="M 26.305085,20.881356 40.949153,31.728814"
       style="fill:none;stroke:#000000;stroke-width:1.29999995;stroke-linecap:butt;stroke-linejoin:miter;stroke-miterlimit:4;stroke-opacity:1;stroke-dasharray:none" />
  </g>
</svg>
