<?xml version="1.0" encoding="UTF-8" standalone="no"?>
<!-- Created with Inkscape (http://www.inkscape.org/) -->

<svg
   xmlns:dc="http://purl.org/dc/elements/1.1/"
   xmlns:cc="http://creativecommons.org/ns#"
   xmlns:rdf="http://www.w3.org/1999/02/22-rdf-syntax-ns#"
   xmlns:svg="http://www.w3.org/2000/svg"
   xmlns="http://www.w3.org/2000/svg"
   xmlns:sodipodi="http://sodipodi.sourceforge.net/DTD/sodipodi-0.dtd"
   xmlns:inkscape="http://www.inkscape.org/namespaces/inkscape"
   id="svg2"
   version="1.1"
   inkscape:version="0.48.4 r9939"
   width="64"
   height="64"
   sodipodi:docname="maxton-browser.svg">
  <metadata
     id="metadata8">
    <rdf:RDF>
      <cc:Work
         rdf:about="">
        <dc:format>image/svg+xml</dc:format>
        <dc:type
           rdf:resource="http://purl.org/dc/dcmitype/StillImage" />
        <dc:title></dc:title>
      </cc:Work>
    </rdf:RDF>
  </metadata>
  <defs
     id="defs6">
    <clipPath
       id="clipPath-054510414">
      <g
         id="g5365"
         transform="translate(0,-1004.3622)">
        <path
           id="path5367"
           fill="#1890d0"
           transform="matrix(15.333333,0,0,11.5,414.99999,878.8622)"
           d="m -24 13 c 0 1.105 -0.672 2 -1.5 2 -0.828 0 -1.5 -0.895 -1.5 -2 0 -1.105 0.672 -2 1.5 -2 0.828 0 1.5 0.895 1.5 2 z" />
      </g>
    </clipPath>
    <clipPath
       id="clipPath-049320422">
      <g
         id="g5360"
         transform="translate(0,-1004.3622)">
        <path
           id="path5362"
           fill="#1890d0"
           transform="matrix(15.333333,0,0,11.5,414.99999,878.8622)"
           d="m -24 13 c 0 1.105 -0.672 2 -1.5 2 -0.828 0 -1.5 -0.895 -1.5 -2 0 -1.105 0.672 -2 1.5 -2 0.828 0 1.5 0.895 1.5 2 z" />
      </g>
    </clipPath>
    <linearGradient
       gradientTransform="matrix(0,-1,1,0,-1.5e-6,47.999998)"
       gradientUnits="userSpaceOnUse"
       x2="47"
       x1="1"
       id="linearGradient3764">
      <stop
         id="stop5355"
         stop-opacity="1"
         stop-color="#e4e4e4" />
      <stop
         id="stop5357"
         stop-opacity="1"
         stop-color="#eee"
         offset="1" />
    </linearGradient>
    <clipPath
       id="clipPath-623308171">
      <g
         id="g8802"
         transform="translate(0,-1004.3622)">
        <path
           id="path8804"
           fill="#1890d0"
           transform="matrix(15.333333,0,0,11.5,414.99999,878.8622)"
           d="m -24 13 c 0 1.105 -0.672 2 -1.5 2 -0.828 0 -1.5 -0.895 -1.5 -2 0 -1.105 0.672 -2 1.5 -2 0.828 0 1.5 0.895 1.5 2 z" />
      </g>
    </clipPath>
    <clipPath
       id="clipPath-610374986">
      <g
         id="g8797"
         transform="translate(0,-1004.3622)">
        <path
           id="path8799"
           fill="#1890d0"
           transform="matrix(15.333333,0,0,11.5,414.99999,878.8622)"
           d="m -24 13 c 0 1.105 -0.672 2 -1.5 2 -0.828 0 -1.5 -0.895 -1.5 -2 0 -1.105 0.672 -2 1.5 -2 0.828 0 1.5 0.895 1.5 2 z" />
      </g>
    </clipPath>
    <linearGradient
       gradientTransform="matrix(0,-1,1,0,-1.5e-6,47.999998)"
       gradientUnits="userSpaceOnUse"
       x2="47"
       x1="1"
       id="linearGradient3764-8">
      <stop
         id="stop8792"
         stop-opacity="1"
         stop-color="#e6a712" />
      <stop
         id="stop8794"
         stop-opacity="1"
         stop-color="#edb020"
         offset="1" />
    </linearGradient>
    <linearGradient
       x2="47"
       x1="1"
       gradientTransform="matrix(0,-1,1,0,-1.5e-6,47.999998)"
       gradientUnits="userSpaceOnUse"
       id="linearGradient3126">
      <stop
         id="stop22448"
         stop-opacity="1"
         stop-color="#5ab133" />
      <stop
         id="stop22450"
         stop-opacity="1"
         stop-color="#63c038"
         offset="1" />
    </linearGradient>
    <clipPath
       id="clipPath22441">
      <g
         id="g22443"
         transform="translate(0,-1004.3622)">
        <path
           id="path22445"
           fill="#1890d0"
           transform="matrix(15.333333,0,0,11.5,414.99999,878.8622)"
           d="m -24 13 c 0 1.105 -0.672 2 -1.5 2 -0.828 0 -1.5 -0.895 -1.5 -2 0 -1.105 0.672 -2 1.5 -2 0.828 0 1.5 0.895 1.5 2 z" />
      </g>
    </clipPath>
    <clipPath
       id="clipPath-324598080">
      <g
         id="g22437"
         transform="translate(0,-1004.3622)">
        <path
           id="path22439"
           fill="#1890d0"
           transform="matrix(15.333333,0,0,11.5,414.99999,878.8622)"
           d="m -24 13 c 0 1.105 -0.672 2 -1.5 2 -0.828 0 -1.5 -0.895 -1.5 -2 0 -1.105 0.672 -2 1.5 -2 0.828 0 1.5 0.895 1.5 2 z" />
      </g>
    </clipPath>
    <linearGradient
       gradientTransform="matrix(0.115078,2.68729,-3.550921,0.0870898,-92.13101,122.46896)"
       x2="1"
       x1="0"
       gradientUnits="userSpaceOnUse"
       id="linearGradient24539">
      <stop
         id="stop24541"
         stop-opacity="1"
         stop-color="#fade17" />
      <stop
         id="stop24543"
         stop-opacity="1"
         stop-color="#f1511a"
         offset="1" />
    </linearGradient>
    <linearGradient
       gradientTransform="matrix(-0.0328728,-4.018518,5.309974,-0.0248777,-91.154216,125.14714)"
       x2="1"
       x1="0"
       gradientUnits="userSpaceOnUse"
       id="linearGradient24533">
      <stop
         id="stop24535"
         stop-opacity="1"
         stop-color="#ec2c20" />
      <stop
         id="stop24537"
         stop-opacity="1"
         stop-color="#fab218"
         offset="1" />
    </linearGradient>
    <linearGradient
       gradientTransform="matrix(0.115078,2.68729,-3.550921,0.0870898,-92.13101,122.46896)"
       x2="1"
       x1="0"
       gradientUnits="userSpaceOnUse"
       id="linear1">
      <stop
         id="stop24529"
         stop-opacity="1"
         stop-color="#fade17" />
      <stop
         id="stop24531"
         stop-opacity="1"
         stop-color="#f1511a"
         offset="1" />
    </linearGradient>
    <linearGradient
       gradientTransform="matrix(-0.0328728,-4.018518,5.309974,-0.0248777,-91.154216,125.14714)"
       x2="1"
       x1="0"
       gradientUnits="userSpaceOnUse"
       id="linear0">
      <stop
         id="stop24524"
         stop-opacity="1"
         stop-color="#ec2c20" />
      <stop
         id="stop24526"
         stop-opacity="1"
         stop-color="#fab218"
         offset="1" />
    </linearGradient>
    <clipPath
       id="clipPath-315841711">
      <g
         id="g24519"
         transform="translate(0,-1004.3622)">
        <path
           id="path24521"
           fill="#1890d0"
           transform="matrix(15.333333,0,0,11.5,414.99999,878.8622)"
           d="m -24 13 c 0 1.105 -0.672 2 -1.5 2 -0.828 0 -1.5 -0.895 -1.5 -2 0 -1.105 0.672 -2 1.5 -2 0.828 0 1.5 0.895 1.5 2 z" />
      </g>
    </clipPath>
    <clipPath
       id="clipPath-309962591">
      <g
         id="g24514"
         transform="translate(0,-1004.3622)">
        <path
           id="path24516"
           fill="#1890d0"
           transform="matrix(15.333333,0,0,11.5,414.99999,878.8622)"
           d="m -24 13 c 0 1.105 -0.672 2 -1.5 2 -0.828 0 -1.5 -0.895 -1.5 -2 0 -1.105 0.672 -2 1.5 -2 0.828 0 1.5 0.895 1.5 2 z" />
      </g>
    </clipPath>
    <linearGradient
       gradientTransform="matrix(0,-1,1,0,-1.5e-6,47.999998)"
       gradientUnits="userSpaceOnUse"
       x2="47"
       x1="1"
       id="linearGradient3764-4">
      <stop
         id="stop24509"
         stop-opacity="1"
         stop-color="#434343" />
      <stop
         id="stop24511"
         stop-opacity="1"
         stop-color="#4d4d4d"
         offset="1" />
    </linearGradient>
    <clipPath
       id="clipPath-084047276">
      <g
         id="g31902"
         transform="translate(0,-1004.3622)">
        <path
           id="path31904"
           fill="#1890d0"
           transform="matrix(15.333333,0,0,11.5,414.99999,878.8622)"
           d="m -24 13 c 0 1.105 -0.672 2 -1.5 2 -0.828 0 -1.5 -0.895 -1.5 -2 0 -1.105 0.672 -2 1.5 -2 0.828 0 1.5 0.895 1.5 2 z" />
      </g>
    </clipPath>
    <clipPath
       id="clipPath-074175239">
      <g
         id="g31897"
         transform="translate(0,-1004.3622)">
        <path
           id="path31899"
           fill="#1890d0"
           transform="matrix(15.333333,0,0,11.5,414.99999,878.8622)"
           d="m -24 13 c 0 1.105 -0.672 2 -1.5 2 -0.828 0 -1.5 -0.895 -1.5 -2 0 -1.105 0.672 -2 1.5 -2 0.828 0 1.5 0.895 1.5 2 z" />
      </g>
    </clipPath>
    <linearGradient
       gradientTransform="matrix(0,-1,1,0,-1.5e-6,47.999998)"
       gradientUnits="userSpaceOnUse"
       x2="47"
       x1="1"
       id="linearGradient3764-43">
      <stop
         id="stop31892"
         stop-opacity="1"
         stop-color="#e4e4e4" />
      <stop
         id="stop31894"
         stop-opacity="1"
         stop-color="#eee"
         offset="1" />
    </linearGradient>
    <clipPath
       id="clipPath-788387008">
      <g
         id="g54740"
         transform="translate(0,-1004.3622)">
        <path
           id="path54742"
           fill="#1890d0"
           transform="matrix(15.333333,0,0,11.5,414.99999,878.8622)"
           d="m -24 13 c 0 1.105 -0.672 2 -1.5 2 -0.828 0 -1.5 -0.895 -1.5 -2 0 -1.105 0.672 -2 1.5 -2 0.828 0 1.5 0.895 1.5 2 z" />
      </g>
    </clipPath>
    <clipPath
       id="clipPath-779412649">
      <g
         id="g54735"
         transform="translate(0,-1004.3622)">
        <path
           id="path54737"
           fill="#1890d0"
           transform="matrix(15.333333,0,0,11.5,414.99999,878.8622)"
           d="m -24 13 c 0 1.105 -0.672 2 -1.5 2 -0.828 0 -1.5 -0.895 -1.5 -2 0 -1.105 0.672 -2 1.5 -2 0.828 0 1.5 0.895 1.5 2 z" />
      </g>
    </clipPath>
    <linearGradient
       gradientTransform="matrix(0,-1,1,0,-1.5e-6,47.999998)"
       gradientUnits="userSpaceOnUse"
       x2="47"
       x1="1"
       id="linearGradient3764-6">
      <stop
         id="stop54730"
         stop-opacity="1"
         stop-color="#e4e4e4" />
      <stop
         id="stop54732"
         stop-opacity="1"
         stop-color="#eee"
         offset="1" />
    </linearGradient>
    <clipPath
       id="clipPath-267113374">
      <g
         id="g62437"
         transform="translate(0,-1004.3622)">
        <path
           id="path62439"
           fill="#1890d0"
           transform="matrix(15.333333,0,0,11.5,414.99999,878.8622)"
           d="m -24 13 c 0 1.105 -0.672 2 -1.5 2 -0.828 0 -1.5 -0.895 -1.5 -2 0 -1.105 0.672 -2 1.5 -2 0.828 0 1.5 0.895 1.5 2 z" />
      </g>
    </clipPath>
    <clipPath
       id="clipPath-259926805">
      <g
         id="g62432"
         transform="translate(0,-1004.3622)">
        <path
           id="path62434"
           fill="#1890d0"
           transform="matrix(15.333333,0,0,11.5,414.99999,878.8622)"
           d="m -24 13 c 0 1.105 -0.672 2 -1.5 2 -0.828 0 -1.5 -0.895 -1.5 -2 0 -1.105 0.672 -2 1.5 -2 0.828 0 1.5 0.895 1.5 2 z" />
      </g>
    </clipPath>
    <linearGradient
       gradientTransform="matrix(0,-1,1,0,-1.5e-6,47.999998)"
       gradientUnits="userSpaceOnUse"
       x2="47"
       x1="1"
       id="linearGradient3764-5">
      <stop
         id="stop62427"
         stop-opacity="1"
         stop-color="#2f6199" />
      <stop
         id="stop62429"
         stop-opacity="1"
         stop-color="#3469a7"
         offset="1" />
    </linearGradient>
    <clipPath
       id="clipPath-531721845">
      <g
         id="g64109"
         transform="translate(0,-1004.3622)">
        <path
           id="path64111"
           fill="#1890d0"
           transform="matrix(15.333333,0,0,11.5,414.99999,878.8622)"
           d="m -24 13 c 0 1.105 -0.672 2 -1.5 2 -0.828 0 -1.5 -0.895 -1.5 -2 0 -1.105 0.672 -2 1.5 -2 0.828 0 1.5 0.895 1.5 2 z" />
      </g>
    </clipPath>
    <clipPath
       id="clipPath-524363168">
      <g
         id="g64104"
         transform="translate(0,-1004.3622)">
        <path
           id="path64106"
           fill="#1890d0"
           transform="matrix(15.333333,0,0,11.5,414.99999,878.8622)"
           d="m -24 13 c 0 1.105 -0.672 2 -1.5 2 -0.828 0 -1.5 -0.895 -1.5 -2 0 -1.105 0.672 -2 1.5 -2 0.828 0 1.5 0.895 1.5 2 z" />
      </g>
    </clipPath>
    <linearGradient
       gradientTransform="matrix(0,-1,1,0,-1.5e-6,47.999998)"
       gradientUnits="userSpaceOnUse"
       x2="47"
       x1="1"
       id="linearGradient3764-2">
      <stop
         id="stop64099"
         stop-opacity="1"
         stop-color="#38963e" />
      <stop
         id="stop64101"
         stop-opacity="1"
         stop-color="#3da445"
         offset="1" />
    </linearGradient>
    <clipPath
       id="clipPath-989622922">
      <g
         id="g70238"
         transform="translate(0,-1004.3622)">
        <path
           id="path70240"
           fill="#1890d0"
           transform="matrix(15.333333,0,0,11.5,414.99999,878.8622)"
           d="m -24 13 c 0 1.105 -0.672 2 -1.5 2 -0.828 0 -1.5 -0.895 -1.5 -2 0 -1.105 0.672 -2 1.5 -2 0.828 0 1.5 0.895 1.5 2 z" />
      </g>
    </clipPath>
    <clipPath
       id="clipPath-976075170">
      <g
         id="g70233"
         transform="translate(0,-1004.3622)">
        <path
           id="path70235"
           fill="#1890d0"
           transform="matrix(15.333333,0,0,11.5,414.99999,878.8622)"
           d="m -24 13 c 0 1.105 -0.672 2 -1.5 2 -0.828 0 -1.5 -0.895 -1.5 -2 0 -1.105 0.672 -2 1.5 -2 0.828 0 1.5 0.895 1.5 2 z" />
      </g>
    </clipPath>
    <linearGradient
       gradientTransform="matrix(0,-1,1,0,-1.5e-6,47.999998)"
       gradientUnits="userSpaceOnUse"
       x2="47"
       x1="1"
       id="linearGradient3764-7">
      <stop
         id="stop70228"
         stop-opacity="1"
         stop-color="#1e81de" />
      <stop
         id="stop70230"
         stop-opacity="1"
         stop-color="#2c8ce3"
         offset="1" />
    </linearGradient>
    <clipPath
       id="clipPath-011537642">
      <g
         id="g71875"
         transform="translate(0,-1004.3622)">
        <path
           id="path71877"
           fill="#1890d0"
           transform="matrix(15.333333,0,0,11.5,414.99999,878.8622)"
           d="m -24 13 c 0 1.105 -0.672 2 -1.5 2 -0.828 0 -1.5 -0.895 -1.5 -2 0 -1.105 0.672 -2 1.5 -2 0.828 0 1.5 0.895 1.5 2 z" />
      </g>
    </clipPath>
    <clipPath
       id="clipPath-997711108">
      <g
         id="g71870"
         transform="translate(0,-1004.3622)">
        <path
           id="path71872"
           fill="#1890d0"
           transform="matrix(15.333333,0,0,11.5,414.99999,878.8622)"
           d="m -24 13 c 0 1.105 -0.672 2 -1.5 2 -0.828 0 -1.5 -0.895 -1.5 -2 0 -1.105 0.672 -2 1.5 -2 0.828 0 1.5 0.895 1.5 2 z" />
      </g>
    </clipPath>
    <linearGradient
       gradientTransform="matrix(0,-1,1,0,-1.5e-6,47.999998)"
       gradientUnits="userSpaceOnUse"
       x2="47"
       x1="1"
       id="linearGradient3764-89">
      <stop
         id="stop71865"
         stop-opacity="1"
         stop-color="#ac3c3c" />
      <stop
         id="stop71867"
         stop-opacity="1"
         stop-color="#bc4142"
         offset="1" />
    </linearGradient>
  </defs>
  <sodipodi:namedview
     pagecolor="#ffffff"
     bordercolor="#666666"
     borderopacity="1"
     objecttolerance="10"
     gridtolerance="10"
     guidetolerance="10"
     inkscape:pageopacity="0"
     inkscape:pageshadow="2"
     inkscape:window-width="1316"
     inkscape:window-height="674"
     id="namedview4"
     showgrid="false"
     inkscape:zoom="3.6875"
     inkscape:cx="-15.186441"
     inkscape:cy="32"
     inkscape:window-x="44"
     inkscape:window-y="29"
     inkscape:window-maximized="1"
     inkscape:current-layer="svg2" />
  <rect
     style="fill:#000000;fill-opacity:1;stroke:#000000;stroke-width:0.53665989999999997;stroke-linecap:round;stroke-linejoin:round;stroke-miterlimit:4;stroke-opacity:1;stroke-dasharray:none"
     id="rect3005"
     width="59.081985"
     height="59.624359"
     x="2.4590092"
     y="2.1878221"
     ry="5.9392786"
     rx="5.9392786" />
  <g
     id="g5381"
     transform="translate(-113.17697,2.0762712)" />
  <g
     id="g8818"
     transform="translate(-110.73629,2.6186441)" />
  <g
     id="g24557"
     transform="translate(-104.22781,3.9745763)" />
  <g
     id="g31918"
     transform="translate(-99.617644,7.2288136)" />
  <g
     id="g54756"
     transform="translate(-104.22781,2.6186441)" />
  <g
     id="g62453"
     transform="translate(-114.5329,1.5338983)" />
  <g
     id="g64125"
     transform="translate(-117.51595,-5.5169492)" />
  <g
     id="g70254"
     transform="translate(-122.93968,-0.90677966)" />
  <g
     id="g71891"
     transform="translate(-112.09222,-2.8050847)" />
  <g
     id="g71913"
     transform="matrix(1.6326814,0,0,1.7230197,-7.5013275,-11.477702)">
    <g
       clip-path="url(#clipPath-011537642)"
       id="g71915">
      <!-- color: #bc4142 -->
      <g
         id="g71917">
        <path
           style="fill:#f9f9f9;fill-opacity:1;fill-rule:evenodd;stroke:none"
           inkscape:connector-curvature="0"
           d="m 30.996,13.309 c 1.996,1.297 3.188,3.113 2.98,4.379 L 25.831,12.387 C 25.808,12.371 25.78,12.36 25.753,12.34 c 1.09,-0.691 3.242,-0.332 5.242,0.969 m 0,0"
           id="path71919" />
        <path
           style="fill:#f9f9f9;fill-opacity:1;fill-rule:evenodd;stroke:none"
           inkscape:connector-curvature="0"
           d="m 32.77,17.5 -0.52,-0.336 c -0.559,-0.367 -1.309,-0.219 -1.668,0.324 l -7.09,10.711 c -0.359,0.547 -0.199,1.285 0.363,1.648 l 0.52,0.336 c 0.559,0.367 1.309,0.219 1.668,-0.324 l 7.09,-10.711 C 33.492,18.601 33.332,17.863 32.77,17.5 m 0,0"
           id="path71921" />
        <path
           style="fill:#f9f9f9;fill-opacity:1;fill-rule:evenodd;stroke:none"
           inkscape:connector-curvature="0"
           d="m 29.859,15.605 -0.52,-0.336 C 28.78,14.902 28.03,15.05 27.671,15.597 l -7.09,10.707 c -0.359,0.547 -0.199,1.285 0.363,1.648 l 0.52,0.34 c 0.559,0.363 1.309,0.219 1.668,-0.328 l 7.09,-10.711 c 0.359,-0.543 0.199,-1.281 -0.363,-1.648 m 0,0"
           id="path71923" />
        <path
           style="fill:#f9f9f9;fill-opacity:1;fill-rule:evenodd;stroke:none"
           inkscape:connector-curvature="0"
           d="m 26.949,13.715 -0.52,-0.34 C 25.87,13.012 25.12,13.156 24.761,13.703 l -7.09,10.711 c -0.359,0.543 -0.199,1.281 0.363,1.648 l 0.52,0.336 c 0.559,0.363 1.309,0.219 1.668,-0.328 l 7.09,-10.707 c 0.359,-0.547 0.199,-1.285 -0.363,-1.648 m 0,0"
           id="path71925" />
        <path
           style="fill:#f9f9f9;fill-opacity:1;fill-rule:evenodd;stroke:none"
           inkscape:connector-curvature="0"
           d="m 25.06,31.31 c 0.016,-0.203 -8.117,-5.496 -8.301,-5.402 -0.18,0.102 -0.902,9.98 -0.738,10.09 0.168,0.105 9.03,-4.477 9.04,-4.688 m 0,0"
           id="path71927" />
      </g>
    </g>
  </g>
</svg>
