<?xml version="1.0" encoding="UTF-8" standalone="no"?>
<!-- Created with Inkscape (http://www.inkscape.org/) -->

<svg
   xmlns:dc="http://purl.org/dc/elements/1.1/"
   xmlns:cc="http://creativecommons.org/ns#"
   xmlns:rdf="http://www.w3.org/1999/02/22-rdf-syntax-ns#"
   xmlns:svg="http://www.w3.org/2000/svg"
   xmlns="http://www.w3.org/2000/svg"
   xmlns:sodipodi="http://sodipodi.sourceforge.net/DTD/sodipodi-0.dtd"
   xmlns:inkscape="http://www.inkscape.org/namespaces/inkscape"
   id="svg2"
   version="1.1"
   inkscape:version="0.48.4 r9939"
   width="64"
   height="64"
   sodipodi:docname="base.svg">
  <metadata
     id="metadata8">
    <rdf:RDF>
      <cc:Work
         rdf:about="">
        <dc:format>image/svg+xml</dc:format>
        <dc:type
           rdf:resource="http://purl.org/dc/dcmitype/StillImage" />
        <dc:title></dc:title>
      </cc:Work>
    </rdf:RDF>
  </metadata>
  <defs
     id="defs6">
    <linearGradient
       id="linearGradient3764-76"
       x1="1"
       x2="47"
       gradientUnits="userSpaceOnUse"
       gradientTransform="matrix(0,-1,1,0,-1.5e-6,47.999998)">
      <stop
         stop-color="#b0e648"
         stop-opacity="1"
         id="stop6700" />
      <stop
         offset="1"
         stop-color="#b9e85a"
         stop-opacity="1"
         id="stop6702" />
    </linearGradient>
    <clipPath
       id="clipPath-580766965">
      <g
         transform="translate(0,-1004.3622)"
         id="g6705">
        <path
           d="m -24 13 c 0 1.105 -0.672 2 -1.5 2 -0.828 0 -1.5 -0.895 -1.5 -2 0 -1.105 0.672 -2 1.5 -2 0.828 0 1.5 0.895 1.5 2 z"
           transform="matrix(15.333333,0,0,11.5,414.99999,878.8622)"
           fill="#1890d0"
           id="path6707" />
      </g>
    </clipPath>
    <clipPath
       id="clipPath-588794431">
      <g
         transform="translate(0,-1004.3622)"
         id="g6710">
        <path
           d="m -24 13 c 0 1.105 -0.672 2 -1.5 2 -0.828 0 -1.5 -0.895 -1.5 -2 0 -1.105 0.672 -2 1.5 -2 0.828 0 1.5 0.895 1.5 2 z"
           transform="matrix(15.333333,0,0,11.5,414.99999,878.8622)"
           fill="#1890d0"
           id="path6712" />
      </g>
    </clipPath>
    <linearGradient
       id="linearGradient3764-7"
       x1="1"
       x2="47"
       gradientUnits="userSpaceOnUse"
       gradientTransform="matrix(0,-1,1,0,-1.5e-6,47.999998)">
      <stop
         stop-color="#e04c8b"
         stop-opacity="1"
         id="stop5349" />
      <stop
         offset="1"
         stop-color="#e35e97"
         stop-opacity="1"
         id="stop5351" />
    </linearGradient>
    <clipPath
       id="clipPath-568471406">
      <g
         transform="translate(0,-1004.3622)"
         id="g5354">
        <path
           d="m -24 13 c 0 1.105 -0.672 2 -1.5 2 -0.828 0 -1.5 -0.895 -1.5 -2 0 -1.105 0.672 -2 1.5 -2 0.828 0 1.5 0.895 1.5 2 z"
           transform="matrix(15.333333,0,0,11.5,414.99999,878.8622)"
           fill="#1890d0"
           id="path5356" />
      </g>
    </clipPath>
    <clipPath
       id="clipPath-580235580">
      <g
         transform="translate(0,-1004.3622)"
         id="g5359">
        <path
           d="m -24 13 c 0 1.105 -0.672 2 -1.5 2 -0.828 0 -1.5 -0.895 -1.5 -2 0 -1.105 0.672 -2 1.5 -2 0.828 0 1.5 0.895 1.5 2 z"
           transform="matrix(15.333333,0,0,11.5,414.99999,878.8622)"
           fill="#1890d0"
           id="path5361" />
      </g>
    </clipPath>
    <linearGradient
       id="linearGradient3764"
       x1="1"
       x2="47"
       gradientUnits="userSpaceOnUse"
       gradientTransform="matrix(0,-1,1,0,-1.5e-6,47.999998)">
      <stop
         stop-color="#f0e9c8"
         stop-opacity="1"
         id="stop3167" />
      <stop
         offset="1"
         stop-color="#f4efd8"
         stop-opacity="1"
         id="stop3169" />
    </linearGradient>
    <clipPath
       id="clipPath-113117232">
      <g
         transform="translate(0,-1004.3622)"
         id="g3172">
        <path
           d="m -24 13 c 0 1.105 -0.672 2 -1.5 2 -0.828 0 -1.5 -0.895 -1.5 -2 0 -1.105 0.672 -2 1.5 -2 0.828 0 1.5 0.895 1.5 2 z"
           transform="matrix(15.333333,0,0,11.5,414.99999,878.8622)"
           fill="#1890d0"
           id="path3174" />
      </g>
    </clipPath>
    <clipPath
       id="clipPath-121758028">
      <g
         transform="translate(0,-1004.3622)"
         id="g3177">
        <path
           d="m -24 13 c 0 1.105 -0.672 2 -1.5 2 -0.828 0 -1.5 -0.895 -1.5 -2 0 -1.105 0.672 -2 1.5 -2 0.828 0 1.5 0.895 1.5 2 z"
           transform="matrix(15.333333,0,0,11.5,414.99999,878.8622)"
           fill="#1890d0"
           id="path3179" />
      </g>
    </clipPath>
    <inkscape:perspective
       sodipodi:type="inkscape:persp3d"
       inkscape:vp_x="0 : 12 : 1"
       inkscape:vp_y="0 : 1000 : 0"
       inkscape:vp_z="24 : 12 : 1"
       inkscape:persp3d-origin="12 : 8 : 1"
       id="perspective3009" />
  </defs>
  <sodipodi:namedview
     pagecolor="#ffffff"
     bordercolor="#666666"
     borderopacity="1"
     objecttolerance="10"
     gridtolerance="10"
     guidetolerance="10"
     inkscape:pageopacity="0"
     inkscape:pageshadow="2"
     inkscape:window-width="1316"
     inkscape:window-height="674"
     id="namedview4"
     showgrid="false"
     inkscape:zoom="3.6875"
     inkscape:cx="-15.186441"
     inkscape:cy="32"
     inkscape:window-x="44"
     inkscape:window-y="29"
     inkscape:window-maximized="1"
     inkscape:current-layer="svg2" />
  <rect
     style="fill:#000000;fill-opacity:1;stroke:#000000;stroke-width:0.53665989999999997;stroke-linecap:round;stroke-linejoin:round;stroke-miterlimit:4;stroke-opacity:1;stroke-dasharray:none"
     id="rect3005"
     width="59.081985"
     height="59.624359"
     x="2.4590092"
     y="2.1878221"
     ry="5.9392786"
     rx="5.9392786" />
  <text
     xml:space="preserve"
     style="font-size:16.53488922px;font-style:normal;font-variant:normal;font-weight:bold;font-stretch:normal;line-height:125%;letter-spacing:0px;word-spacing:0px;fill:#ffffff;fill-opacity:1;stroke:none;font-family:Sans;-inkscape-font-specification:Sans Bold"
     x="7.9628134"
     y="17.121561"
     id="text2982"
     sodipodi:linespacing="125%"
     transform="scale(1.0752155,0.93004612)"><tspan
       sodipodi:role="line"
       id="tspan2984"
       x="7.9628134"
       y="17.121561">G</tspan></text>
  <g
     id="g3193"
     transform="translate(-112.78524,-5.600786)" />
  <g
     id="g5375"
     transform="translate(-150.43129,7.637515)" />
  <g
     id="g6726"
     transform="translate(-167.30597,6.8704839)" />
  <g
     id="g13868"
     transform="matrix(1.4555709,0,0,1.2371456,9.6794004,16.658221)"
     style="fill:#ffffff">
    <g
       id="icomoon-ignore-6"
       style="fill:#ffffff" />
    <path
       id="path13860"
       d="M 0,2 V 30 H 32 V 2 H 0 z m 12,18 v -6 h 8 v 6 h -8 z m 8,2 v 6 h -8 v -6 h 8 z M 20,6 v 6 H 12 V 6 h 8 z M 10,6 v 6 H 2 V 6 h 8 z m -8,8 h 8 v 6 H 2 v -6 z m 20,0 h 8 v 6 h -8 v -6 z m 0,-2 V 6 h 8 v 6 H 22 z M 2,22 h 8 v 6 H 2 v -6 z m 20,6 v -6 h 8 v 6 h -8 z"
       inkscape:connector-curvature="0"
       style="fill:#ffffff" />
  </g>
</svg>
