<?xml version="1.0" encoding="UTF-8" standalone="no"?>
<!-- Created with Inkscape (http://www.inkscape.org/) -->

<svg
   xmlns:dc="http://purl.org/dc/elements/1.1/"
   xmlns:cc="http://creativecommons.org/ns#"
   xmlns:rdf="http://www.w3.org/1999/02/22-rdf-syntax-ns#"
   xmlns:svg="http://www.w3.org/2000/svg"
   xmlns="http://www.w3.org/2000/svg"
   xmlns:sodipodi="http://sodipodi.sourceforge.net/DTD/sodipodi-0.dtd"
   xmlns:inkscape="http://www.inkscape.org/namespaces/inkscape"
   id="svg2"
   version="1.1"
   inkscape:version="0.48.4 r9939"
   width="64"
   height="64"
   sodipodi:docname="mozo.svg">
  <metadata
     id="metadata8">
    <rdf:RDF>
      <cc:Work
         rdf:about="">
        <dc:format>image/svg+xml</dc:format>
        <dc:type
           rdf:resource="http://purl.org/dc/dcmitype/StillImage" />
        <dc:title />
      </cc:Work>
    </rdf:RDF>
  </metadata>
  <defs
     id="defs6" />
  <sodipodi:namedview
     pagecolor="#ffffff"
     bordercolor="#666666"
     borderopacity="1"
     objecttolerance="10"
     gridtolerance="10"
     guidetolerance="10"
     inkscape:pageopacity="0"
     inkscape:pageshadow="2"
     inkscape:window-width="1316"
     inkscape:window-height="674"
     id="namedview4"
     showgrid="false"
     inkscape:zoom="3.6875"
     inkscape:cx="-15.186441"
     inkscape:cy="32"
     inkscape:window-x="44"
     inkscape:window-y="29"
     inkscape:window-maximized="1"
     inkscape:current-layer="svg2" />
  <rect
     style="fill:#000000;fill-opacity:1;stroke:#000000;stroke-width:0.53665989999999997;stroke-linecap:round;stroke-linejoin:round;stroke-miterlimit:4;stroke-opacity:1;stroke-dasharray:none"
     id="rect3005"
     width="59.081985"
     height="59.624359"
     x="2.4590092"
     y="2.1878221"
     ry="5.9392786"
     rx="5.9392786" />
  <g
     id="g3370"
     transform="matrix(0.71248247,-0.15348748,0.15050697,0.97202357,35.129332,16.26475)"
     style="fill:#ffffff">
    <g
       id="icomoon-ignore"
       style="fill:#ffffff" />
    <path
       id="path3362"
       d="m 27,0 c 2.761,0 5,2.239 5,5 0,1.126 -0.372,2.164 -1,3 L 29,10 22,3 24,1 C 24.836,0.372 25.874,0 27,0 z M 2,23 0,32 9,30 27.5,11.5 20.5,4.5 2,23 z m 20.362,-11.638 -14,14 -1.724,-1.724 14,-14 1.724,1.724 z"
       inkscape:connector-curvature="0"
       style="fill:#ffffff" />
  </g>
  <g
     id="g3380"
     transform="matrix(1,0,0,1.2140946,1.8983051,-6.821996)">
    <g
       style="fill:#ffffff"
       transform="matrix(1,0,0,0.82742685,4.6101694,27.696456)"
       id="g3292">
      <g
         style="fill:#ffffff"
         id="icomoon-ignore-8" />
      <path
         style="fill:#ffffff"
         inkscape:connector-curvature="0"
         d="m 2,6 h 28 v 6 H 2 z m 0,8 h 28 v 6 H 2 z m 0,8 h 28 v 6 H 2 z"
         id="path3284" />
    </g>
    <g
       id="g3374"
       transform="matrix(1,0,0,0.82742685,4.3389829,7.8998457)"
       style="fill:#ffffff">
      <g
         id="g3376"
         style="fill:#ffffff" />
      <path
         id="path3378"
         d="m 2,6 h 28 v 6 H 2 z m 0,8 h 28 v 6 H 2 z m 0,8 h 28 v 6 H 2 z"
         inkscape:connector-curvature="0"
         style="fill:#ffffff" />
    </g>
  </g>
</svg>
