<?xml version="1.0" encoding="UTF-8" standalone="no"?>
<!-- Created with Inkscape (http://www.inkscape.org/) -->

<svg
   xmlns:dc="http://purl.org/dc/elements/1.1/"
   xmlns:cc="http://creativecommons.org/ns#"
   xmlns:rdf="http://www.w3.org/1999/02/22-rdf-syntax-ns#"
   xmlns:svg="http://www.w3.org/2000/svg"
   xmlns="http://www.w3.org/2000/svg"
   xmlns:xlink="http://www.w3.org/1999/xlink"
   xmlns:sodipodi="http://sodipodi.sourceforge.net/DTD/sodipodi-0.dtd"
   xmlns:inkscape="http://www.inkscape.org/namespaces/inkscape"
   id="svg2"
   version="1.1"
   inkscape:version="0.48.4 r9939"
   width="64"
   height="64"
   sodipodi:docname="unettbootin.svg">
  <metadata
     id="metadata8">
    <rdf:RDF>
      <cc:Work
         rdf:about="">
        <dc:format>image/svg+xml</dc:format>
        <dc:type
           rdf:resource="http://purl.org/dc/dcmitype/StillImage" />
        <dc:title></dc:title>
      </cc:Work>
    </rdf:RDF>
  </metadata>
  <defs
     id="defs6">
    <clipPath
       id="clipPath-054510414">
      <g
         id="g5365"
         transform="translate(0,-1004.3622)">
        <path
           id="path5367"
           fill="#1890d0"
           transform="matrix(15.333333,0,0,11.5,414.99999,878.8622)"
           d="m -24 13 c 0 1.105 -0.672 2 -1.5 2 -0.828 0 -1.5 -0.895 -1.5 -2 0 -1.105 0.672 -2 1.5 -2 0.828 0 1.5 0.895 1.5 2 z" />
      </g>
    </clipPath>
    <clipPath
       id="clipPath-049320422">
      <g
         id="g5360"
         transform="translate(0,-1004.3622)">
        <path
           id="path5362"
           fill="#1890d0"
           transform="matrix(15.333333,0,0,11.5,414.99999,878.8622)"
           d="m -24 13 c 0 1.105 -0.672 2 -1.5 2 -0.828 0 -1.5 -0.895 -1.5 -2 0 -1.105 0.672 -2 1.5 -2 0.828 0 1.5 0.895 1.5 2 z" />
      </g>
    </clipPath>
    <linearGradient
       gradientTransform="matrix(0,-1,1,0,-1.5e-6,47.999998)"
       gradientUnits="userSpaceOnUse"
       x2="47"
       x1="1"
       id="linearGradient3764">
      <stop
         id="stop5355"
         stop-opacity="1"
         stop-color="#e4e4e4" />
      <stop
         id="stop5357"
         stop-opacity="1"
         stop-color="#eee"
         offset="1" />
    </linearGradient>
    <clipPath
       id="clipPath-623308171">
      <g
         id="g8802"
         transform="translate(0,-1004.3622)">
        <path
           id="path8804"
           fill="#1890d0"
           transform="matrix(15.333333,0,0,11.5,414.99999,878.8622)"
           d="m -24 13 c 0 1.105 -0.672 2 -1.5 2 -0.828 0 -1.5 -0.895 -1.5 -2 0 -1.105 0.672 -2 1.5 -2 0.828 0 1.5 0.895 1.5 2 z" />
      </g>
    </clipPath>
    <clipPath
       id="clipPath-610374986">
      <g
         id="g8797"
         transform="translate(0,-1004.3622)">
        <path
           id="path8799"
           fill="#1890d0"
           transform="matrix(15.333333,0,0,11.5,414.99999,878.8622)"
           d="m -24 13 c 0 1.105 -0.672 2 -1.5 2 -0.828 0 -1.5 -0.895 -1.5 -2 0 -1.105 0.672 -2 1.5 -2 0.828 0 1.5 0.895 1.5 2 z" />
      </g>
    </clipPath>
    <linearGradient
       gradientTransform="matrix(0,-1,1,0,-1.5e-6,47.999998)"
       gradientUnits="userSpaceOnUse"
       x2="47"
       x1="1"
       id="linearGradient3764-8">
      <stop
         id="stop8792"
         stop-opacity="1"
         stop-color="#e6a712" />
      <stop
         id="stop8794"
         stop-opacity="1"
         stop-color="#edb020"
         offset="1" />
    </linearGradient>
    <linearGradient
       x2="47"
       x1="1"
       gradientTransform="matrix(0,-1,1,0,-1.5e-6,47.999998)"
       gradientUnits="userSpaceOnUse"
       id="linearGradient3126">
      <stop
         id="stop22448"
         stop-opacity="1"
         stop-color="#5ab133" />
      <stop
         id="stop22450"
         stop-opacity="1"
         stop-color="#63c038"
         offset="1" />
    </linearGradient>
    <clipPath
       id="clipPath22441">
      <g
         id="g22443"
         transform="translate(0,-1004.3622)">
        <path
           id="path22445"
           fill="#1890d0"
           transform="matrix(15.333333,0,0,11.5,414.99999,878.8622)"
           d="m -24 13 c 0 1.105 -0.672 2 -1.5 2 -0.828 0 -1.5 -0.895 -1.5 -2 0 -1.105 0.672 -2 1.5 -2 0.828 0 1.5 0.895 1.5 2 z" />
      </g>
    </clipPath>
    <clipPath
       id="clipPath-324598080">
      <g
         id="g22437"
         transform="translate(0,-1004.3622)">
        <path
           id="path22439"
           fill="#1890d0"
           transform="matrix(15.333333,0,0,11.5,414.99999,878.8622)"
           d="m -24 13 c 0 1.105 -0.672 2 -1.5 2 -0.828 0 -1.5 -0.895 -1.5 -2 0 -1.105 0.672 -2 1.5 -2 0.828 0 1.5 0.895 1.5 2 z" />
      </g>
    </clipPath>
    <linearGradient
       gradientTransform="matrix(0.115078,2.68729,-3.550921,0.0870898,-92.13101,122.46896)"
       x2="1"
       x1="0"
       gradientUnits="userSpaceOnUse"
       id="linearGradient24539">
      <stop
         id="stop24541"
         stop-opacity="1"
         stop-color="#fade17" />
      <stop
         id="stop24543"
         stop-opacity="1"
         stop-color="#f1511a"
         offset="1" />
    </linearGradient>
    <linearGradient
       gradientTransform="matrix(-0.0328728,-4.018518,5.309974,-0.0248777,-91.154216,125.14714)"
       x2="1"
       x1="0"
       gradientUnits="userSpaceOnUse"
       id="linearGradient24533">
      <stop
         id="stop24535"
         stop-opacity="1"
         stop-color="#ec2c20" />
      <stop
         id="stop24537"
         stop-opacity="1"
         stop-color="#fab218"
         offset="1" />
    </linearGradient>
    <linearGradient
       gradientTransform="matrix(0.115078,2.68729,-3.550921,0.0870898,-92.13101,122.46896)"
       x2="1"
       x1="0"
       gradientUnits="userSpaceOnUse"
       id="linear1">
      <stop
         id="stop24529"
         stop-opacity="1"
         stop-color="#fade17" />
      <stop
         id="stop24531"
         stop-opacity="1"
         stop-color="#f1511a"
         offset="1" />
    </linearGradient>
    <linearGradient
       gradientTransform="matrix(-0.0328728,-4.018518,5.309974,-0.0248777,-91.154216,125.14714)"
       x2="1"
       x1="0"
       gradientUnits="userSpaceOnUse"
       id="linear0">
      <stop
         id="stop24524"
         stop-opacity="1"
         stop-color="#ec2c20" />
      <stop
         id="stop24526"
         stop-opacity="1"
         stop-color="#fab218"
         offset="1" />
    </linearGradient>
    <clipPath
       id="clipPath-315841711">
      <g
         id="g24519"
         transform="translate(0,-1004.3622)">
        <path
           id="path24521"
           fill="#1890d0"
           transform="matrix(15.333333,0,0,11.5,414.99999,878.8622)"
           d="m -24 13 c 0 1.105 -0.672 2 -1.5 2 -0.828 0 -1.5 -0.895 -1.5 -2 0 -1.105 0.672 -2 1.5 -2 0.828 0 1.5 0.895 1.5 2 z" />
      </g>
    </clipPath>
    <clipPath
       id="clipPath-309962591">
      <g
         id="g24514"
         transform="translate(0,-1004.3622)">
        <path
           id="path24516"
           fill="#1890d0"
           transform="matrix(15.333333,0,0,11.5,414.99999,878.8622)"
           d="m -24 13 c 0 1.105 -0.672 2 -1.5 2 -0.828 0 -1.5 -0.895 -1.5 -2 0 -1.105 0.672 -2 1.5 -2 0.828 0 1.5 0.895 1.5 2 z" />
      </g>
    </clipPath>
    <linearGradient
       gradientTransform="matrix(0,-1,1,0,-1.5e-6,47.999998)"
       gradientUnits="userSpaceOnUse"
       x2="47"
       x1="1"
       id="linearGradient3764-4">
      <stop
         id="stop24509"
         stop-opacity="1"
         stop-color="#434343" />
      <stop
         id="stop24511"
         stop-opacity="1"
         stop-color="#4d4d4d"
         offset="1" />
    </linearGradient>
    <clipPath
       id="clipPath-084047276">
      <g
         id="g31902"
         transform="translate(0,-1004.3622)">
        <path
           id="path31904"
           fill="#1890d0"
           transform="matrix(15.333333,0,0,11.5,414.99999,878.8622)"
           d="m -24 13 c 0 1.105 -0.672 2 -1.5 2 -0.828 0 -1.5 -0.895 -1.5 -2 0 -1.105 0.672 -2 1.5 -2 0.828 0 1.5 0.895 1.5 2 z" />
      </g>
    </clipPath>
    <clipPath
       id="clipPath-074175239">
      <g
         id="g31897"
         transform="translate(0,-1004.3622)">
        <path
           id="path31899"
           fill="#1890d0"
           transform="matrix(15.333333,0,0,11.5,414.99999,878.8622)"
           d="m -24 13 c 0 1.105 -0.672 2 -1.5 2 -0.828 0 -1.5 -0.895 -1.5 -2 0 -1.105 0.672 -2 1.5 -2 0.828 0 1.5 0.895 1.5 2 z" />
      </g>
    </clipPath>
    <linearGradient
       gradientTransform="matrix(0,-1,1,0,-1.5e-6,47.999998)"
       gradientUnits="userSpaceOnUse"
       x2="47"
       x1="1"
       id="linearGradient3764-43">
      <stop
         id="stop31892"
         stop-opacity="1"
         stop-color="#e4e4e4" />
      <stop
         id="stop31894"
         stop-opacity="1"
         stop-color="#eee"
         offset="1" />
    </linearGradient>
    <clipPath
       id="clipPath-788387008">
      <g
         id="g54740"
         transform="translate(0,-1004.3622)">
        <path
           id="path54742"
           fill="#1890d0"
           transform="matrix(15.333333,0,0,11.5,414.99999,878.8622)"
           d="m -24 13 c 0 1.105 -0.672 2 -1.5 2 -0.828 0 -1.5 -0.895 -1.5 -2 0 -1.105 0.672 -2 1.5 -2 0.828 0 1.5 0.895 1.5 2 z" />
      </g>
    </clipPath>
    <clipPath
       id="clipPath-779412649">
      <g
         id="g54735"
         transform="translate(0,-1004.3622)">
        <path
           id="path54737"
           fill="#1890d0"
           transform="matrix(15.333333,0,0,11.5,414.99999,878.8622)"
           d="m -24 13 c 0 1.105 -0.672 2 -1.5 2 -0.828 0 -1.5 -0.895 -1.5 -2 0 -1.105 0.672 -2 1.5 -2 0.828 0 1.5 0.895 1.5 2 z" />
      </g>
    </clipPath>
    <linearGradient
       gradientTransform="matrix(0,-1,1,0,-1.5e-6,47.999998)"
       gradientUnits="userSpaceOnUse"
       x2="47"
       x1="1"
       id="linearGradient3764-6">
      <stop
         id="stop54730"
         stop-opacity="1"
         stop-color="#e4e4e4" />
      <stop
         id="stop54732"
         stop-opacity="1"
         stop-color="#eee"
         offset="1" />
    </linearGradient>
    <clipPath
       id="clipPath-267113374">
      <g
         id="g62437"
         transform="translate(0,-1004.3622)">
        <path
           id="path62439"
           fill="#1890d0"
           transform="matrix(15.333333,0,0,11.5,414.99999,878.8622)"
           d="m -24 13 c 0 1.105 -0.672 2 -1.5 2 -0.828 0 -1.5 -0.895 -1.5 -2 0 -1.105 0.672 -2 1.5 -2 0.828 0 1.5 0.895 1.5 2 z" />
      </g>
    </clipPath>
    <clipPath
       id="clipPath-259926805">
      <g
         id="g62432"
         transform="translate(0,-1004.3622)">
        <path
           id="path62434"
           fill="#1890d0"
           transform="matrix(15.333333,0,0,11.5,414.99999,878.8622)"
           d="m -24 13 c 0 1.105 -0.672 2 -1.5 2 -0.828 0 -1.5 -0.895 -1.5 -2 0 -1.105 0.672 -2 1.5 -2 0.828 0 1.5 0.895 1.5 2 z" />
      </g>
    </clipPath>
    <linearGradient
       gradientTransform="matrix(0,-1,1,0,-1.5e-6,47.999998)"
       gradientUnits="userSpaceOnUse"
       x2="47"
       x1="1"
       id="linearGradient3764-5">
      <stop
         id="stop62427"
         stop-opacity="1"
         stop-color="#2f6199" />
      <stop
         id="stop62429"
         stop-opacity="1"
         stop-color="#3469a7"
         offset="1" />
    </linearGradient>
    <clipPath
       id="clipPath-531721845">
      <g
         id="g64109"
         transform="translate(0,-1004.3622)">
        <path
           id="path64111"
           fill="#1890d0"
           transform="matrix(15.333333,0,0,11.5,414.99999,878.8622)"
           d="m -24 13 c 0 1.105 -0.672 2 -1.5 2 -0.828 0 -1.5 -0.895 -1.5 -2 0 -1.105 0.672 -2 1.5 -2 0.828 0 1.5 0.895 1.5 2 z" />
      </g>
    </clipPath>
    <clipPath
       id="clipPath-524363168">
      <g
         id="g64104"
         transform="translate(0,-1004.3622)">
        <path
           id="path64106"
           fill="#1890d0"
           transform="matrix(15.333333,0,0,11.5,414.99999,878.8622)"
           d="m -24 13 c 0 1.105 -0.672 2 -1.5 2 -0.828 0 -1.5 -0.895 -1.5 -2 0 -1.105 0.672 -2 1.5 -2 0.828 0 1.5 0.895 1.5 2 z" />
      </g>
    </clipPath>
    <linearGradient
       gradientTransform="matrix(0,-1,1,0,-1.5e-6,47.999998)"
       gradientUnits="userSpaceOnUse"
       x2="47"
       x1="1"
       id="linearGradient3764-2">
      <stop
         id="stop64099"
         stop-opacity="1"
         stop-color="#38963e" />
      <stop
         id="stop64101"
         stop-opacity="1"
         stop-color="#3da445"
         offset="1" />
    </linearGradient>
    <clipPath
       id="clipPath-989622922">
      <g
         id="g70238"
         transform="translate(0,-1004.3622)">
        <path
           id="path70240"
           fill="#1890d0"
           transform="matrix(15.333333,0,0,11.5,414.99999,878.8622)"
           d="m -24 13 c 0 1.105 -0.672 2 -1.5 2 -0.828 0 -1.5 -0.895 -1.5 -2 0 -1.105 0.672 -2 1.5 -2 0.828 0 1.5 0.895 1.5 2 z" />
      </g>
    </clipPath>
    <clipPath
       id="clipPath-976075170">
      <g
         id="g70233"
         transform="translate(0,-1004.3622)">
        <path
           id="path70235"
           fill="#1890d0"
           transform="matrix(15.333333,0,0,11.5,414.99999,878.8622)"
           d="m -24 13 c 0 1.105 -0.672 2 -1.5 2 -0.828 0 -1.5 -0.895 -1.5 -2 0 -1.105 0.672 -2 1.5 -2 0.828 0 1.5 0.895 1.5 2 z" />
      </g>
    </clipPath>
    <linearGradient
       gradientTransform="matrix(0,-1,1,0,-1.5e-6,47.999998)"
       gradientUnits="userSpaceOnUse"
       x2="47"
       x1="1"
       id="linearGradient3764-7">
      <stop
         id="stop70228"
         stop-opacity="1"
         stop-color="#1e81de" />
      <stop
         id="stop70230"
         stop-opacity="1"
         stop-color="#2c8ce3"
         offset="1" />
    </linearGradient>
    <clipPath
       id="clipPath-011537642">
      <g
         id="g71875"
         transform="translate(0,-1004.3622)">
        <path
           id="path71877"
           fill="#1890d0"
           transform="matrix(15.333333,0,0,11.5,414.99999,878.8622)"
           d="m -24 13 c 0 1.105 -0.672 2 -1.5 2 -0.828 0 -1.5 -0.895 -1.5 -2 0 -1.105 0.672 -2 1.5 -2 0.828 0 1.5 0.895 1.5 2 z" />
      </g>
    </clipPath>
    <clipPath
       id="clipPath-997711108">
      <g
         id="g71870"
         transform="translate(0,-1004.3622)">
        <path
           id="path71872"
           fill="#1890d0"
           transform="matrix(15.333333,0,0,11.5,414.99999,878.8622)"
           d="m -24 13 c 0 1.105 -0.672 2 -1.5 2 -0.828 0 -1.5 -0.895 -1.5 -2 0 -1.105 0.672 -2 1.5 -2 0.828 0 1.5 0.895 1.5 2 z" />
      </g>
    </clipPath>
    <linearGradient
       gradientTransform="matrix(0,-1,1,0,-1.5e-6,47.999998)"
       gradientUnits="userSpaceOnUse"
       x2="47"
       x1="1"
       id="linearGradient3764-89">
      <stop
         id="stop71865"
         stop-opacity="1"
         stop-color="#ac3c3c" />
      <stop
         id="stop71867"
         stop-opacity="1"
         stop-color="#bc4142"
         offset="1" />
    </linearGradient>
    <linearGradient
       gradientTransform="matrix(2.834646,0,0,2.834646,5.887205,3.662894)"
       x2="8.859"
       x1="4.626"
       gradientUnits="userSpaceOnUse"
       id="linearGradient74667">
      <stop
         id="stop74669"
         stop-opacity="1"
         stop-color="#c12019" />
      <stop
         id="stop74671"
         stop-opacity="1"
         stop-color="#de2820"
         offset="1" />
    </linearGradient>
    <linearGradient
       gradientTransform="matrix(2.834646,0,0,2.834646,5.887205,3.662894)"
       x2="8.859"
       x1="4.626"
       gradientUnits="userSpaceOnUse"
       id="linear0-8">
      <stop
         id="stop74663"
         stop-opacity="1"
         stop-color="#c12019" />
      <stop
         id="stop74665"
         stop-opacity="1"
         stop-color="#de2820"
         offset="1" />
    </linearGradient>
    <clipPath
       id="clipPath-289812246">
      <g
         id="g74658"
         transform="translate(0,-1004.3622)">
        <path
           id="path74660"
           fill="#1890d0"
           transform="matrix(15.333333,0,0,11.5,414.99999,878.8622)"
           d="m -24 13 c 0 1.105 -0.672 2 -1.5 2 -0.828 0 -1.5 -0.895 -1.5 -2 0 -1.105 0.672 -2 1.5 -2 0.828 0 1.5 0.895 1.5 2 z" />
      </g>
    </clipPath>
    <clipPath
       id="clipPath-284830246">
      <g
         id="g74653"
         transform="translate(0,-1004.3622)">
        <path
           id="path74655"
           fill="#1890d0"
           transform="matrix(15.333333,0,0,11.5,414.99999,878.8622)"
           d="m -24 13 c 0 1.105 -0.672 2 -1.5 2 -0.828 0 -1.5 -0.895 -1.5 -2 0 -1.105 0.672 -2 1.5 -2 0.828 0 1.5 0.895 1.5 2 z" />
      </g>
    </clipPath>
    <linearGradient
       gradientTransform="matrix(0,-1,1,0,-1.5e-6,47.999998)"
       gradientUnits="userSpaceOnUse"
       x2="47"
       x1="1"
       id="linearGradient3764-65">
      <stop
         id="stop74648"
         stop-opacity="1"
         stop-color="#3d3d3d" />
      <stop
         id="stop74650"
         stop-opacity="1"
         stop-color="#474747"
         offset="1" />
    </linearGradient>
    <clipPath
       id="clipPath-440869395">
      <g
         id="g75508"
         transform="translate(0,-1004.3622)">
        <path
           id="path75510"
           fill="#1890d0"
           transform="matrix(15.333333,0,0,11.5,414.99999,878.8622)"
           d="m -24 13 c 0 1.105 -0.672 2 -1.5 2 -0.828 0 -1.5 -0.895 -1.5 -2 0 -1.105 0.672 -2 1.5 -2 0.828 0 1.5 0.895 1.5 2 z" />
      </g>
    </clipPath>
    <clipPath
       id="clipPath-434022110">
      <g
         id="g75503"
         transform="translate(0,-1004.3622)">
        <path
           id="path75505"
           fill="#1890d0"
           transform="matrix(15.333333,0,0,11.5,414.99999,878.8622)"
           d="m -24 13 c 0 1.105 -0.672 2 -1.5 2 -0.828 0 -1.5 -0.895 -1.5 -2 0 -1.105 0.672 -2 1.5 -2 0.828 0 1.5 0.895 1.5 2 z" />
      </g>
    </clipPath>
    <linearGradient
       gradientTransform="matrix(0,-1,1,0,-1.5e-6,47.999998)"
       gradientUnits="userSpaceOnUse"
       x2="47"
       x1="1"
       id="linearGradient3764-22">
      <stop
         id="stop75498"
         stop-opacity="1"
         stop-color="#3d3d3d" />
      <stop
         id="stop75500"
         stop-opacity="1"
         stop-color="#474747"
         offset="1" />
    </linearGradient>
    <linearGradient
       id="linearGradient4016">
      <stop
         id="stop4018"
         offset="0"
         style="stop-color:#e25543;stop-opacity:1;" />
      <stop
         id="stop4020"
         offset="1"
         style="stop-color:#e96b5a;stop-opacity:1;" />
    </linearGradient>
    <linearGradient
       gradientUnits="userSpaceOnUse"
       y2="13"
       x2="-24"
       y1="13"
       x1="-27"
       id="linearGradient4033"
       xlink:href="#linearGradient4016"
       inkscape:collect="always" />
    <linearGradient
       x2="47"
       x1="1"
       gradientTransform="matrix(0,-1,1,0,-15.000002,47.999998)"
       gradientUnits="userSpaceOnUse"
       id="linearGradient3043"
       xlink:href="#linearGradient3834"
       inkscape:collect="always" />
    <clipPath
       id="clipPath-617278102">
      <g
         id="g17"
         transform="translate(0,-1004.3622)">
        <path
           id="path19"
           fill="#1890d0"
           transform="matrix(15.333333,0,0,11.5,414.99999,878.8622)"
           d="m -24 13 c 0 1.105 -0.672 2 -1.5 2 -0.828 0 -1.5 -0.895 -1.5 -2 0 -1.105 0.672 -2 1.5 -2 0.828 0 1.5 0.895 1.5 2 z" />
      </g>
    </clipPath>
    <clipPath
       id="clipPath-607771007">
      <g
         id="g12"
         transform="translate(0,-1004.3622)">
        <path
           id="path14"
           fill="#1890d0"
           transform="matrix(15.333333,0,0,11.5,414.99999,878.8622)"
           d="m -24 13 c 0 1.105 -0.672 2 -1.5 2 -0.828 0 -1.5 -0.895 -1.5 -2 0 -1.105 0.672 -2 1.5 -2 0.828 0 1.5 0.895 1.5 2 z" />
      </g>
    </clipPath>
    <linearGradient
       gradientTransform="matrix(0,-1,1,0,-1.5e-6,47.999998)"
       gradientUnits="userSpaceOnUse"
       x2="47"
       x1="1"
       id="linearGradient3764-42">
      <stop
         style="stop-color:#dd4f4b;stop-opacity:1;"
         offset="0"
         id="stop7"
         stop-opacity="1"
         stop-color="#004178" />
      <stop
         style="stop-color:#f7726e;stop-opacity:1;"
         id="stop9"
         stop-opacity="1"
         stop-color="#004c8c"
         offset="1" />
    </linearGradient>
    <linearGradient
       id="linearGradient3834"
       x1="1"
       x2="47"
       gradientUnits="userSpaceOnUse"
       gradientTransform="matrix(0,-1,1,0,-1.5e-6,47.999998)">
      <stop
         stop-color="#004178"
         stop-opacity="1"
         id="stop3836"
         offset="0"
         style="stop-color:#dd4f4b;stop-opacity:1;" />
      <stop
         offset="1"
         stop-color="#004c8c"
         stop-opacity="1"
         id="stop3838"
         style="stop-color:#f7726e;stop-opacity:1;" />
    </linearGradient>
    <clipPath
       id="clipPath-596082226">
      <g
         id="g83249"
         transform="translate(0,-1004.3622)">
        <path
           id="path83251"
           fill="#1890d0"
           transform="matrix(15.333333,0,0,11.5,414.99999,878.8622)"
           d="m -24 13 c 0 1.105 -0.672 2 -1.5 2 -0.828 0 -1.5 -0.895 -1.5 -2 0 -1.105 0.672 -2 1.5 -2 0.828 0 1.5 0.895 1.5 2 z" />
      </g>
    </clipPath>
    <clipPath
       id="clipPath-588033436">
      <g
         id="g83244"
         transform="translate(0,-1004.3622)">
        <path
           id="path83246"
           fill="#1890d0"
           transform="matrix(15.333333,0,0,11.5,414.99999,878.8622)"
           d="m -24 13 c 0 1.105 -0.672 2 -1.5 2 -0.828 0 -1.5 -0.895 -1.5 -2 0 -1.105 0.672 -2 1.5 -2 0.828 0 1.5 0.895 1.5 2 z" />
      </g>
    </clipPath>
    <linearGradient
       gradientTransform="matrix(0,-1,1,0,-1.5e-6,47.999998)"
       gradientUnits="userSpaceOnUse"
       x2="47"
       x1="1"
       id="linearGradient3764-29">
      <stop
         id="stop83239"
         stop-opacity="1"
         stop-color="#c3cfdd" />
      <stop
         id="stop83241"
         stop-opacity="1"
         stop-color="#d0d9e4"
         offset="1" />
    </linearGradient>
  </defs>
  <sodipodi:namedview
     pagecolor="#ffffff"
     bordercolor="#666666"
     borderopacity="1"
     objecttolerance="10"
     gridtolerance="10"
     guidetolerance="10"
     inkscape:pageopacity="0"
     inkscape:pageshadow="2"
     inkscape:window-width="1316"
     inkscape:window-height="674"
     id="namedview4"
     showgrid="false"
     inkscape:zoom="3.6875"
     inkscape:cx="-15.186441"
     inkscape:cy="32"
     inkscape:window-x="44"
     inkscape:window-y="29"
     inkscape:window-maximized="1"
     inkscape:current-layer="svg2" />
  <rect
     style="fill:#000000;fill-opacity:1;stroke:#000000;stroke-width:0.53665989999999997;stroke-linecap:round;stroke-linejoin:round;stroke-miterlimit:4;stroke-opacity:1;stroke-dasharray:none"
     id="rect3005"
     width="59.081985"
     height="59.624359"
     x="2.4590092"
     y="2.1878221"
     ry="5.9392786"
     rx="5.9392786" />
  <g
     id="g5381"
     transform="translate(-113.17697,2.0762712)" />
  <g
     id="g8818"
     transform="translate(-110.73629,2.6186441)" />
  <g
     id="g24557"
     transform="translate(-104.22781,3.9745763)" />
  <g
     id="g31918"
     transform="translate(-99.617644,7.2288136)" />
  <g
     id="g54756"
     transform="translate(-104.22781,2.6186441)" />
  <g
     id="g62453"
     transform="translate(-114.5329,1.5338983)" />
  <g
     id="g64125"
     transform="translate(-117.51595,-5.5169492)" />
  <g
     id="g70254"
     transform="translate(-122.93968,-0.90677966)" />
  <g
     id="g71891"
     transform="translate(-112.09222,-2.8050847)" />
  <g
     id="g74685"
     transform="translate(-106.66849,0.44915254)" />
  <g
     id="g75524"
     transform="translate(-79.549848,4.2457627)" />
  <g
     id="g33"
     transform="translate(-124.29561,-5.7881366)" />
  <path
     sodipodi:nodetypes="cssssssc"
     style="fill:#ff0000;fill-opacity:1;fill-rule:nonzero;stroke:none"
     inkscape:connector-curvature="0"
     id="path55"
     d="m 27.127431,10.449152 c -1.009929,0 -1.812871,0.95043 -1.812871,2.141384 l 0,28.881703 c 0,1.189495 0.808941,2.141383 1.812871,2.141383 l 10.374257,0 c 1.011928,0 1.812872,-0.95043 1.812872,-2.141383 l 0,-28.881703 c 0,-1.189496 -0.804944,-2.141384 -1.812872,-2.141384" />
  <path
     sodipodi:nodetypes="cccccccccccc"
     style="fill:#f9f9f9;fill-opacity:1;fill-rule:nonzero;stroke:none"
     inkscape:connector-curvature="0"
     id="path57"
     d="m 27.31456,43.518455 0,5.862902 10,0 0,-5.862902 m -7.996001,1.537101 1.996001,0 0,2.883867 -1.996001,0 m 3.996001,-2.883867 2,0 0,2.883867 -2,0" />
  <g
     id="g83265"
     transform="translate(-88.499,6.6864407)" />
  <g
     id="g83295"
     transform="translate(8.3145593,2.6186441)">
    <g
       clip-path="url(#clipPath-596082226)"
       id="g83297">
      <!-- color: #d0d9e4 -->
      <g
         id="g83299">
        <path
           style="fill:#121919;fill-opacity:1;fill-rule:nonzero;stroke:none"
           inkscape:connector-curvature="0"
           d="m 22.48,12.156 c -3.207,0.719 -5.664,3.992 -5.734,7.984 -0.008,0.566 0.023,1.121 0.109,1.656 0,0.004 0.004,0.008 0.004,0.016 -0.523,1.176 -0.848,2.477 -0.871,3.879 -0.086,4.98 3.438,9.08 7.852,9.152 4.414,0.078 8.06,-3.891 8.16,-8.879 0.031,-1.852 -0.418,-3.59 -1.238,-5.04 0.012,-0.188 0.023,-0.355 0.027,-0.543 0.074,-4.566 -3,-8.328 -6.871,-8.398 -0.484,-0.008 -0.961,0.055 -1.418,0.156 m -0.02,0.008"
           id="path83301" />
        <path
           style="fill:#ececec;fill-opacity:1;fill-rule:nonzero;stroke:none"
           inkscape:connector-curvature="0"
           d="m 21.04,14.762 c -1.035,0.352 -1.813,1.465 -1.848,2.805 -0.027,1.16 0.496,2.176 1.301,2.691 -1.793,1.297 -3.02,3.602 -3.086,6.262 -0.109,4.164 2.652,7.602 6.164,7.691 3.508,0.086 6.441,-3.207 6.551,-7.371 0.082,-3.082 -1.418,-5.766 -3.617,-6.988 1.242,-0.145 2.195,-0.996 2.188,-2.01 -0.012,-1.109 -1.164,-1.98 -2.57,-1.965 -0.832,0.008 -1.563,0.32 -2.02,0.813 -0.316,-1.168 -1.215,-2.031 -2.316,-2.059 -0.266,-0.012 -0.508,0.031 -0.75,0.121 m 2.945,4.148 c 0.07,0.09 0.148,0.164 0.23,0.246 -0.09,-0.008 -0.172,-0.016 -0.258,-0.02 -0.023,0 -0.055,-0.004 -0.086,-0.008 0.039,-0.074 0.082,-0.141 0.113,-0.219 m 0,0"
           id="path83303" />
        <path
           style="fill:#2e3436;fill-opacity:1;fill-rule:nonzero;stroke:none"
           inkscape:connector-curvature="0"
           d="m 23.742,18.03 c 0.047,0.516 -0.207,0.961 -0.566,0.992 -0.363,0.031 -0.691,-0.363 -0.738,-0.883 -0.043,-0.523 0.211,-0.965 0.57,-0.996 0.359,-0.027 0.691,0.367 0.734,0.887 m 0,0"
           id="path83305" />
        <path
           style="fill:#2e3436;fill-opacity:1;fill-rule:nonzero;stroke:none"
           inkscape:connector-curvature="0"
           d="m 25.496,18 c 0.047,0.352 -0.043,0.695 -0.234,0.895 -0.191,0.199 -0.453,0.223 -0.676,0.059 -0.223,-0.164 -0.375,-0.484 -0.391,-0.836 -0.047,-0.348 0.043,-0.691 0.234,-0.891 0.191,-0.199 0.453,-0.223 0.676,-0.063 0.227,0.164 0.375,0.488 0.391,0.836 m 0,0"
           id="path83307" />
        <path
           style="fill:#ffb30a;fill-opacity:1;fill-rule:nonzero;stroke:none"
           inkscape:connector-curvature="0"
           d="m 21.355,20.09 c 0,0 1.559,-0.871 2.668,-0.762 1.105,0.105 2.063,0.941 2.063,0.941 0,0 -0.906,2.902 -2.594,2.656 -1.688,-0.25 -2.141,-2.836 -2.141,-2.836 m 0.004,0"
           id="path83309" />
        <path
           style="fill:#121919;fill-opacity:1;fill-rule:nonzero;stroke:none"
           inkscape:connector-curvature="0"
           d="m 17.08,22.04 c 0,0 0.664,1.574 1.539,2.867 0.875,1.297 1.895,3.48 0.328,2.68 -1.559,-0.797 -2.645,-2.043 -2.426,-3.48 0.227,-1.438 0.566,-2.07 0.566,-2.07 m -0.008,0.004"
           id="path83311" />
        <path
           style="fill:#121919;fill-opacity:1;fill-rule:nonzero;stroke:none"
           inkscape:connector-curvature="0"
           d="m 30.17,20.586 c 0,0 -0.871,2.051 -2.023,3.734 -1.145,1.688 -2.473,4.527 -0.438,3.492 2.031,-1.031 3.465,-2.652 3.172,-4.523 -0.293,-1.875 -0.727,-2.703 -0.727,-2.703 m 0.004,0"
           id="path83313" />
        <path
           style="fill:#ffb30a;fill-opacity:1;fill-rule:nonzero;stroke:none"
           inkscape:connector-curvature="0"
           d="m 17.941,33.3 c -0.465,1.109 0.262,2.277 1.621,2.609 1.359,0.328 2.84,-0.301 3.305,-1.414 0.465,-1.109 -0.262,-2.277 -1.621,-2.609 -1.359,-0.328 -2.84,0.305 -3.305,1.414 m 0,0"
           id="path83315" />
        <path
           style="fill:#ffb30a;fill-opacity:1;fill-rule:nonzero;stroke:none"
           inkscape:connector-curvature="0"
           d="m 29.988,33.31 c 0.445,1 -0.25,2.059 -1.559,2.359 -1.305,0.297 -2.727,-0.273 -3.172,-1.277 -0.445,-1 0.254,-2.063 1.559,-2.359 1.305,-0.301 2.727,0.273 3.172,1.277 m 0,0"
           id="path83317" />
      </g>
    </g>
  </g>
</svg>
