<?xml version="1.0" encoding="UTF-8" standalone="no"?>
<!-- Created with Inkscape (http://www.inkscape.org/) -->

<svg
   xmlns:dc="http://purl.org/dc/elements/1.1/"
   xmlns:cc="http://creativecommons.org/ns#"
   xmlns:rdf="http://www.w3.org/1999/02/22-rdf-syntax-ns#"
   xmlns:svg="http://www.w3.org/2000/svg"
   xmlns="http://www.w3.org/2000/svg"
   xmlns:sodipodi="http://sodipodi.sourceforge.net/DTD/sodipodi-0.dtd"
   xmlns:inkscape="http://www.inkscape.org/namespaces/inkscape"
   id="svg2"
   version="1.1"
   inkscape:version="0.48.4 r9939"
   width="64"
   height="64"
   sodipodi:docname="opera-browser.svg">
  <metadata
     id="metadata8">
    <rdf:RDF>
      <cc:Work
         rdf:about="">
        <dc:format>image/svg+xml</dc:format>
        <dc:type
           rdf:resource="http://purl.org/dc/dcmitype/StillImage" />
        <dc:title></dc:title>
      </cc:Work>
    </rdf:RDF>
  </metadata>
  <defs
     id="defs6" />
  <sodipodi:namedview
     pagecolor="#ffffff"
     bordercolor="#666666"
     borderopacity="1"
     objecttolerance="10"
     gridtolerance="10"
     guidetolerance="10"
     inkscape:pageopacity="0"
     inkscape:pageshadow="2"
     inkscape:window-width="1316"
     inkscape:window-height="674"
     id="namedview4"
     showgrid="false"
     inkscape:zoom="3.6875"
     inkscape:cx="-15.186441"
     inkscape:cy="32"
     inkscape:window-x="44"
     inkscape:window-y="29"
     inkscape:window-maximized="1"
     inkscape:current-layer="svg2" />
  <rect
     style="fill:#000000;fill-opacity:1;stroke:#000000;stroke-width:0.53665989999999997;stroke-linecap:round;stroke-linejoin:round;stroke-miterlimit:4;stroke-opacity:1;stroke-dasharray:none"
     id="rect3005"
     width="59.081985"
     height="59.624359"
     x="2.4590092"
     y="2.1878221"
     ry="5.9392786"
     rx="5.9392786" />
  <path
     sodipodi:type="arc"
     style="fill:#ffffff;fill-opacity:1;stroke:none"
     id="path2986"
     sodipodi:cx="33.898304"
     sodipodi:cy="30.508474"
     sodipodi:rx="20.067797"
     sodipodi:ry="20.474577"
     d="m 53.966101,30.508474 a 20.067797,20.474577 0 1 1 -40.135594,0 20.067797,20.474577 0 1 1 40.135594,0 z"
     transform="matrix(1.0810811,0,0,1.1192053,-4.1044434,-2.2808394)" />
  <g
     id="g7230"
     transform="translate(16.271186,16.542373)"
     style="fill:#ff0000">
    <g
       id="icomoon-ignore"
       style="fill:#ff0000" />
    <path
       id="path7222"
       d="M 15.939,0 C 7.198,0 0.916,6.34 0.916,15.851 0.916,24.314 7.025,32 15.94,32 24.942,32 31.084,24.316 31.084,15.851 31.084,6.265 24.601,0 15.938,0 z m 5.572,15.579 c -0.002,5.292 -0.284,12.828 -5.571,12.828 v 0.001 c -5.212,0 -5.42,-7.54 -5.42,-12.822 0,-6.199 0.58,-12.143 5.42,-12.143 4.84,0 5.571,6.018 5.571,12.136 z"
       inkscape:connector-curvature="0"
       style="fill:#ff0000" />
  </g>
</svg>
