<?xml version="1.0" encoding="UTF-8" standalone="no"?>
<!-- Created with Inkscape (http://www.inkscape.org/) -->

<svg
   xmlns:dc="http://purl.org/dc/elements/1.1/"
   xmlns:cc="http://creativecommons.org/ns#"
   xmlns:rdf="http://www.w3.org/1999/02/22-rdf-syntax-ns#"
   xmlns:svg="http://www.w3.org/2000/svg"
   xmlns="http://www.w3.org/2000/svg"
   xmlns:sodipodi="http://sodipodi.sourceforge.net/DTD/sodipodi-0.dtd"
   xmlns:inkscape="http://www.inkscape.org/namespaces/inkscape"
   id="svg2"
   version="1.1"
   inkscape:version="0.48.4 r9939"
   width="64"
   height="64"
   sodipodi:docname="pidgin.svg">
  <metadata
     id="metadata8">
    <rdf:RDF>
      <cc:Work
         rdf:about="">
        <dc:format>image/svg+xml</dc:format>
        <dc:type
           rdf:resource="http://purl.org/dc/dcmitype/StillImage" />
        <dc:title></dc:title>
      </cc:Work>
    </rdf:RDF>
  </metadata>
  <defs
     id="defs6">
    <clipPath
       id="clipPath-344280877">
      <g
         id="g4606"
         transform="translate(0,-1004.3622)">
        <path
           id="path4608"
           fill="#1890d0"
           transform="matrix(15.333333,0,0,11.5,414.99999,878.8622)"
           d="m -24 13 c 0 1.105 -0.672 2 -1.5 2 -0.828 0 -1.5 -0.895 -1.5 -2 0 -1.105 0.672 -2 1.5 -2 0.828 0 1.5 0.895 1.5 2 z" />
      </g>
    </clipPath>
    <clipPath
       id="clipPath-330866059">
      <g
         id="g4601"
         transform="translate(0,-1004.3622)">
        <path
           id="path4603"
           fill="#1890d0"
           transform="matrix(15.333333,0,0,11.5,414.99999,878.8622)"
           d="m -24 13 c 0 1.105 -0.672 2 -1.5 2 -0.828 0 -1.5 -0.895 -1.5 -2 0 -1.105 0.672 -2 1.5 -2 0.828 0 1.5 0.895 1.5 2 z" />
      </g>
    </clipPath>
    <linearGradient
       gradientTransform="matrix(0,-1,1,0,-1.5e-6,47.999998)"
       gradientUnits="userSpaceOnUse"
       x2="47"
       x1="1"
       id="linearGradient3764">
      <stop
         id="stop4596"
         stop-opacity="1"
         stop-color="#6d4c74" />
      <stop
         id="stop4598"
         stop-opacity="1"
         stop-color="#77547f"
         offset="1" />
    </linearGradient>
    <clipPath
       id="clipPath-344280877-3">
      <g
         id="g5307"
         transform="translate(0,-1004.3622)">
        <path
           id="path5309"
           fill="#1890d0"
           transform="matrix(15.333333,0,0,11.5,414.99999,878.8622)"
           d="m -24 13 c 0 1.105 -0.672 2 -1.5 2 -0.828 0 -1.5 -0.895 -1.5 -2 0 -1.105 0.672 -2 1.5 -2 0.828 0 1.5 0.895 1.5 2 z" />
      </g>
    </clipPath>
    <clipPath
       id="clipPath-330866059-6">
      <g
         id="g5302"
         transform="translate(0,-1004.3622)">
        <path
           id="path5304"
           fill="#1890d0"
           transform="matrix(15.333333,0,0,11.5,414.99999,878.8622)"
           d="m -24 13 c 0 1.105 -0.672 2 -1.5 2 -0.828 0 -1.5 -0.895 -1.5 -2 0 -1.105 0.672 -2 1.5 -2 0.828 0 1.5 0.895 1.5 2 z" />
      </g>
    </clipPath>
    <linearGradient
       gradientTransform="matrix(0,-1,1,0,-1.5e-6,47.999998)"
       gradientUnits="userSpaceOnUse"
       x2="47"
       x1="1"
       id="linearGradient3764-6">
      <stop
         id="stop5297"
         stop-opacity="1"
         stop-color="#6d4c74" />
      <stop
         id="stop5299"
         stop-opacity="1"
         stop-color="#77547f"
         offset="1" />
    </linearGradient>
  </defs>
  <sodipodi:namedview
     pagecolor="#ffffff"
     bordercolor="#666666"
     borderopacity="1"
     objecttolerance="10"
     gridtolerance="10"
     guidetolerance="10"
     inkscape:pageopacity="0"
     inkscape:pageshadow="2"
     inkscape:window-width="1316"
     inkscape:window-height="674"
     id="namedview4"
     showgrid="false"
     inkscape:zoom="3.6875"
     inkscape:cx="-19.932204"
     inkscape:cy="32"
     inkscape:window-x="44"
     inkscape:window-y="29"
     inkscape:window-maximized="1"
     inkscape:current-layer="svg2" />
  <rect
     style="fill:#000000;fill-opacity:1;stroke:#000000;stroke-width:0.53665989999999997;stroke-linecap:round;stroke-linejoin:round;stroke-miterlimit:4;stroke-opacity:1;stroke-dasharray:none"
     id="rect3005"
     width="59.081985"
     height="59.624359"
     x="2.4590092"
     y="2.1878221"
     ry="5.9392786"
     rx="5.9392786" />
  <g
     id="g8444"
     transform="matrix(1.3239171,0,0,1.4832774,8.5762709,8.1430932)"
     style="fill:#ffffff">
    <g
       id="icomoon-ignore"
       style="fill:#ffffff" />
    <path
       id="path8436"
       d="m 34,28.161 c 0,1.422 0.813,2.653 2,3.256 v 0.498 c -0.332,0.045 -0.671,0.07 -1.016,0.07 -2.125,0 -4.042,-0.892 -5.398,-2.321 C 28.767,29.882 27.898,30 26.999,30 c -4.971,0 -9,-3.582 -9,-8 0,-4.418 4.029,-8 9,-8 4.971,0 9,3.582 9,8 0,1.73 -0.618,3.331 -1.667,4.64 -0.213,0.463 -0.333,0.979 -0.333,1.522 z M 16,0 C 24.702,0 31.781,5.644 31.995,12.672 30.458,11.987 28.758,11.625 27,11.625 c -2.986,0 -5.807,1.045 -7.942,2.943 -2.214,1.968 -3.433,4.607 -3.433,7.432 0,1.396 0.298,2.747 0.867,3.993 C 16.329,25.997 16.165,26 16,26 15.151,26 14.318,25.946 13.505,25.842 10.068,29.279 5.966,29.895 2,29.986 V 29.145 C 4.142,28.096 6,26.184 6,24 6,23.695 5.976,23.396 5.932,23.103 2.313,20.72 0,17.079 0,13 0,5.82 7.163,0 16,0 z"
       inkscape:connector-curvature="0"
       style="fill:#ffffff" />
  </g>
  <g
     id="g4622"
     transform="translate(-98.668492,7.2288136)" />
  <g
     id="g5323"
     transform="translate(-94.871882,4.7881356)" />
  <g
     id="g5563"
     transform="matrix(0.90289869,0.42985341,-0.42985341,0.90289869,11.131138,-10.134148)">
    <text
       transform="scale(1.0910723,0.91652952)"
       sodipodi:linespacing="125%"
       id="text5555"
       y="24.472651"
       x="16.712721"
       style="font-size:29.3724823px;font-style:normal;font-variant:normal;font-weight:bold;font-stretch:normal;line-height:125%;letter-spacing:0px;word-spacing:0px;fill:#000000;fill-opacity:1;stroke:none;font-family:Amaze;-inkscape-font-specification:Amaze Bold"
       xml:space="preserve"><tspan
         y="24.472651"
         x="16.712721"
         id="tspan5557"
         sodipodi:role="line">;</tspan></text>
    <text
       transform="scale(1.2420653,0.80511065)"
       sodipodi:linespacing="125%"
       id="text5559"
       y="27.283335"
       x="21.128719"
       style="font-size:12.42065334px;font-style:normal;font-variant:normal;font-weight:bold;font-stretch:normal;line-height:125%;letter-spacing:0px;word-spacing:0px;fill:#000000;fill-opacity:1;stroke:none;font-family:Amaze;-inkscape-font-specification:Amaze Bold"
       xml:space="preserve"><tspan
         y="27.283335"
         x="21.128719"
         id="tspan5561"
         sodipodi:role="line">-)</tspan></text>
  </g>
</svg>
