<?xml version="1.0" encoding="UTF-8" standalone="no"?>
<!-- Created with Inkscape (http://www.inkscape.org/) -->

<svg
   xmlns:dc="http://purl.org/dc/elements/1.1/"
   xmlns:cc="http://creativecommons.org/ns#"
   xmlns:rdf="http://www.w3.org/1999/02/22-rdf-syntax-ns#"
   xmlns:svg="http://www.w3.org/2000/svg"
   xmlns="http://www.w3.org/2000/svg"
   xmlns:sodipodi="http://sodipodi.sourceforge.net/DTD/sodipodi-0.dtd"
   xmlns:inkscape="http://www.inkscape.org/namespaces/inkscape"
   id="svg2"
   version="1.1"
   inkscape:version="0.48.4 r9939"
   width="64"
   height="64"
   sodipodi:docname="srw-iron.svg">
  <metadata
     id="metadata8">
    <rdf:RDF>
      <cc:Work
         rdf:about="">
        <dc:format>image/svg+xml</dc:format>
        <dc:type
           rdf:resource="http://purl.org/dc/dcmitype/StillImage" />
        <dc:title></dc:title>
      </cc:Work>
    </rdf:RDF>
  </metadata>
  <defs
     id="defs6" />
  <sodipodi:namedview
     pagecolor="#ffffff"
     bordercolor="#666666"
     borderopacity="1"
     objecttolerance="10"
     gridtolerance="10"
     guidetolerance="10"
     inkscape:pageopacity="0"
     inkscape:pageshadow="2"
     inkscape:window-width="1316"
     inkscape:window-height="674"
     id="namedview4"
     showgrid="false"
     inkscape:zoom="3.6875"
     inkscape:cx="-15.186441"
     inkscape:cy="32"
     inkscape:window-x="44"
     inkscape:window-y="29"
     inkscape:window-maximized="1"
     inkscape:current-layer="svg2" />
  <rect
     style="fill:#000000;fill-opacity:1;stroke:#000000;stroke-width:0.53665989999999997;stroke-linecap:round;stroke-linejoin:round;stroke-miterlimit:4;stroke-opacity:1;stroke-dasharray:none"
     id="rect3005"
     width="59.081985"
     height="59.624359"
     x="2.4590092"
     y="2.1878221"
     ry="5.9392786"
     rx="5.9392786" />
  <g
     id="g7707"
     transform="matrix(1.4406779,0,0,1.503632,8.6779656,7.3995158)"
     style="fill:#ffffff">
    <g
       id="icomoon-ignore"
       style="fill:#ffffff" />
    <path
       id="path7699"
       d="m 32,16 v 2 h -7.328 c 0.86,1.203 1.328,2.584 1.328,4 0,2.215 -1.146,4.345 -3.143,5.843 C 21.002,29.234 18.567,30 16,30 13.433,30 10.998,29.234 9.143,27.843 7.145,26.345 6,24.215 6,22 h 4 c 0,2.168 2.748,4 6,4 3.252,0 6,-1.832 6,-4 0,-2.168 -2.748,-4 -6,-4 H 0 V 16 H 9.36 C 9.287,15.948 9.214,15.896 9.143,15.843 7.145,14.345 6,12.215 6,10 6,7.785 7.146,5.655 9.143,4.157 10.998,2.766 13.433,2 16,2 18.567,2 21.002,2.766 22.857,4.157 24.854,5.655 26,7.785 26,10 h -4 c 0,-2.168 -2.748,-4 -6,-4 -3.252,0 -6,1.832 -6,4 0,2.168 2.748,4 6,4 2.468,0 4.814,0.709 6.64,2 H 32 z"
       inkscape:connector-curvature="0"
       style="fill:#ffffff" />
  </g>
</svg>
