<?xml version="1.0" encoding="UTF-8" standalone="no"?>
<!-- Created with Inkscape (http://www.inkscape.org/) -->

<svg
   xmlns:dc="http://purl.org/dc/elements/1.1/"
   xmlns:cc="http://creativecommons.org/ns#"
   xmlns:rdf="http://www.w3.org/1999/02/22-rdf-syntax-ns#"
   xmlns:svg="http://www.w3.org/2000/svg"
   xmlns="http://www.w3.org/2000/svg"
   xmlns:sodipodi="http://sodipodi.sourceforge.net/DTD/sodipodi-0.dtd"
   xmlns:inkscape="http://www.inkscape.org/namespaces/inkscape"
   id="svg2"
   version="1.1"
   inkscape:version="0.48.4 r9939"
   width="64"
   height="64"
   sodipodi:docname="XFCE.svg">
  <metadata
     id="metadata8">
    <rdf:RDF>
      <cc:Work
         rdf:about="">
        <dc:format>image/svg+xml</dc:format>
        <dc:type
           rdf:resource="http://purl.org/dc/dcmitype/StillImage" />
        <dc:title></dc:title>
      </cc:Work>
    </rdf:RDF>
  </metadata>
  <defs
     id="defs6">
    <clipPath
       id="clipPath-900365933">
      <g
         id="g3319"
         transform="translate(0,-1004.3622)">
        <path
           id="path3321"
           fill="#1890d0"
           transform="matrix(15.333333,0,0,11.5,414.99999,878.8622)"
           d="m -24 13 c 0 1.105 -0.672 2 -1.5 2 -0.828 0 -1.5 -0.895 -1.5 -2 0 -1.105 0.672 -2 1.5 -2 0.828 0 1.5 0.895 1.5 2 z" />
      </g>
    </clipPath>
    <clipPath
       id="clipPath-888996903">
      <g
         id="g3314"
         transform="translate(0,-1004.3622)">
        <path
           id="path3316"
           fill="#1890d0"
           transform="matrix(15.333333,0,0,11.5,414.99999,878.8622)"
           d="m -24 13 c 0 1.105 -0.672 2 -1.5 2 -0.828 0 -1.5 -0.895 -1.5 -2 0 -1.105 0.672 -2 1.5 -2 0.828 0 1.5 0.895 1.5 2 z" />
      </g>
    </clipPath>
    <linearGradient
       gradientTransform="matrix(0,-1,1,0,-1.5e-6,47.999998)"
       gradientUnits="userSpaceOnUse"
       x2="47"
       x1="1"
       id="linearGradient3764">
      <stop
         id="stop3309"
         stop-opacity="1"
         stop-color="#e7e7e7" />
      <stop
         id="stop3311"
         stop-opacity="1"
         stop-color="#f1f1f1"
         offset="1" />
    </linearGradient>
    <clipPath
       id="clipPath-824049301">
      <g
         id="g3669"
         transform="translate(0,-1004.3622)">
        <path
           id="path3671"
           fill="#1890d0"
           transform="matrix(15.333333,0,0,11.5,414.99999,878.8622)"
           d="m -24 13 c 0 1.105 -0.672 2 -1.5 2 -0.828 0 -1.5 -0.895 -1.5 -2 0 -1.105 0.672 -2 1.5 -2 0.828 0 1.5 0.895 1.5 2 z" />
      </g>
    </clipPath>
    <clipPath
       id="clipPath-818636847">
      <g
         id="g3664"
         transform="translate(0,-1004.3622)">
        <path
           id="path3666"
           fill="#1890d0"
           transform="matrix(15.333333,0,0,11.5,414.99999,878.8622)"
           d="m -24 13 c 0 1.105 -0.672 2 -1.5 2 -0.828 0 -1.5 -0.895 -1.5 -2 0 -1.105 0.672 -2 1.5 -2 0.828 0 1.5 0.895 1.5 2 z" />
      </g>
    </clipPath>
    <linearGradient
       gradientTransform="matrix(0,-1,1,0,-1.5e-6,47.999998)"
       gradientUnits="userSpaceOnUse"
       x2="47"
       x1="1"
       id="linearGradient3764-7">
      <stop
         id="stop3659"
         stop-opacity="1"
         stop-color="#70ba5e" />
      <stop
         id="stop3661"
         stop-opacity="1"
         stop-color="#7dc06d"
         offset="1" />
    </linearGradient>
    <linearGradient
       gradientTransform="matrix(3.729797,0,0,3.401575,-1.263157,-0.00000203445)"
       y2="10.518"
       x2="6.769"
       y1="3.487"
       x1="6.778"
       gradientUnits="userSpaceOnUse"
       id="linearGradient7524">
      <stop
         id="stop7526"
         stop-opacity="1"
         stop-color="#e24571" />
      <stop
         id="stop7528"
         stop-opacity="1"
         stop-color="#7f263e"
         offset="1" />
    </linearGradient>
    <linearGradient
       gradientTransform="matrix(3.729797,0,0,3.401575,-1.263157,-2.03445e-6)"
       y2="10.518"
       x2="6.769"
       y1="3.487"
       x1="6.778"
       gradientUnits="userSpaceOnUse"
       id="linear0">
      <stop
         id="stop7520"
         stop-opacity="1"
         stop-color="#e24571" />
      <stop
         id="stop7522"
         stop-opacity="1"
         stop-color="#7f263e"
         offset="1" />
    </linearGradient>
    <clipPath
       id="clipPath-402570221">
      <g
         id="g7515"
         transform="translate(0,-1004.3622)">
        <path
           id="path7517"
           fill="#1890d0"
           transform="matrix(15.333333,0,0,11.5,414.99999,878.8622)"
           d="m -24 13 c 0 1.105 -0.672 2 -1.5 2 -0.828 0 -1.5 -0.895 -1.5 -2 0 -1.105 0.672 -2 1.5 -2 0.828 0 1.5 0.895 1.5 2 z" />
      </g>
    </clipPath>
    <clipPath
       id="clipPath-392703927">
      <g
         id="g7510"
         transform="translate(0,-1004.3622)">
        <path
           id="path7512"
           fill="#1890d0"
           transform="matrix(15.333333,0,0,11.5,414.99999,878.8622)"
           d="m -24 13 c 0 1.105 -0.672 2 -1.5 2 -0.828 0 -1.5 -0.895 -1.5 -2 0 -1.105 0.672 -2 1.5 -2 0.828 0 1.5 0.895 1.5 2 z" />
      </g>
    </clipPath>
    <linearGradient
       gradientTransform="matrix(0,-1,1,0,-1.5e-6,47.999998)"
       gradientUnits="userSpaceOnUse"
       x2="47"
       x1="1"
       id="linearGradient3764-5">
      <stop
         id="stop7505"
         stop-opacity="1"
         stop-color="#e4e4e4" />
      <stop
         id="stop7507"
         stop-opacity="1"
         stop-color="#eee"
         offset="1" />
    </linearGradient>
    <clipPath
       id="clipPath-033233189">
      <g
         id="g8716"
         transform="translate(0,-1004.3622)">
        <path
           id="path8718"
           fill="#1890d0"
           transform="matrix(15.333333,0,0,11.5,414.99999,878.8622)"
           d="m -24 13 c 0 1.105 -0.672 2 -1.5 2 -0.828 0 -1.5 -0.895 -1.5 -2 0 -1.105 0.672 -2 1.5 -2 0.828 0 1.5 0.895 1.5 2 z" />
      </g>
    </clipPath>
    <clipPath
       id="clipPath-027103285">
      <g
         id="g8711"
         transform="translate(0,-1004.3622)">
        <path
           id="path8713"
           fill="#1890d0"
           transform="matrix(15.333333,0,0,11.5,414.99999,878.8622)"
           d="m -24 13 c 0 1.105 -0.672 2 -1.5 2 -0.828 0 -1.5 -0.895 -1.5 -2 0 -1.105 0.672 -2 1.5 -2 0.828 0 1.5 0.895 1.5 2 z" />
      </g>
    </clipPath>
    <linearGradient
       gradientTransform="matrix(0,-1,1,0,-1.5e-6,47.999998)"
       gradientUnits="userSpaceOnUse"
       x2="47"
       x1="1"
       id="linearGradient3764-4">
      <stop
         id="stop8706"
         stop-opacity="1"
         stop-color="#285da4" />
      <stop
         id="stop8708"
         stop-opacity="1"
         stop-color="#2c65b5"
         offset="1" />
    </linearGradient>
    <clipPath
       id="clipPath-849059674">
      <g
         id="g10131"
         transform="translate(0,-1004.3622)">
        <path
           id="path10133"
           fill="#1890d0"
           transform="matrix(15.333333,0,0,11.5,414.99999,878.8622)"
           d="m -24 13 c 0 1.105 -0.672 2 -1.5 2 -0.828 0 -1.5 -0.895 -1.5 -2 0 -1.105 0.672 -2 1.5 -2 0.828 0 1.5 0.895 1.5 2 z" />
      </g>
    </clipPath>
    <clipPath
       id="clipPath-840401912">
      <g
         id="g10126"
         transform="translate(0,-1004.3622)">
        <path
           id="path10128"
           fill="#1890d0"
           transform="matrix(15.333333,0,0,11.5,414.99999,878.8622)"
           d="m -24 13 c 0 1.105 -0.672 2 -1.5 2 -0.828 0 -1.5 -0.895 -1.5 -2 0 -1.105 0.672 -2 1.5 -2 0.828 0 1.5 0.895 1.5 2 z" />
      </g>
    </clipPath>
    <linearGradient
       gradientTransform="matrix(0,-1,1,0,-1.5e-6,47.999998)"
       gradientUnits="userSpaceOnUse"
       x2="47"
       x1="1"
       id="linearGradient3764-3">
      <stop
         id="stop10121"
         stop-opacity="1"
         stop-color="#0077b4" />
      <stop
         id="stop10123"
         stop-opacity="1"
         stop-color="#0084c8"
         offset="1" />
    </linearGradient>
  </defs>
  <sodipodi:namedview
     pagecolor="#ffffff"
     bordercolor="#666666"
     borderopacity="1"
     objecttolerance="10"
     gridtolerance="10"
     guidetolerance="10"
     inkscape:pageopacity="0"
     inkscape:pageshadow="2"
     inkscape:window-width="1316"
     inkscape:window-height="674"
     id="namedview4"
     showgrid="false"
     inkscape:zoom="3.6875"
     inkscape:cx="-19.932204"
     inkscape:cy="32"
     inkscape:window-x="44"
     inkscape:window-y="29"
     inkscape:window-maximized="1"
     inkscape:current-layer="svg2" />
  <rect
     style="fill:#000000;fill-opacity:1;stroke:#000000;stroke-width:0.53665989999999997;stroke-linecap:round;stroke-linejoin:round;stroke-miterlimit:4;stroke-opacity:1;stroke-dasharray:none"
     id="rect3005"
     width="59.081985"
     height="59.624359"
     x="2.4590092"
     y="2.1878221"
     ry="5.9392786"
     rx="5.9392786" />
  <g
     id="g3685"
     transform="translate(-102.87188,6.4152542)" />
  <g
     id="g7542"
     transform="translate(-127.14307,0.44915254)" />
  <g
     id="g8732"
     transform="translate(-104.09222,-1.1779661)" />
  <g
     id="g10147"
     transform="translate(-97.583746,-4.9745763)" />
  <path
     id="path10175"
     d="m 18.802527,19.649034 c 0.460313,0.279042 0.945711,1.004881 0.945711,1.004881 l 8.61801,2.192467 c 0,0 0.151765,-0.337174 0.313565,-0.629503 l 0.288479,-0.531508 5.369481,0 0.08278,-0.486661 0.08278,-0.480017 5.492398,0 0.0878,0.538151 0.08278,0.551438 1.763488,0.02658 1.763487,0.0382 0.02509,2.665841 0.02508,2.672485 -2.44455,0 0.09282,0.51988 0.09783,0.519881 7.538093,0 0.729979,4.451373 0.945711,0.07142 c 1.29314,0.220908 2.067018,0.817192 2.802013,2.180841 0.08278,0.15613 0.377532,1.219144 0.377532,1.998135 -0.04892,1.136096 -0.303531,2.056268 -0.758826,2.998033 -0.235801,0.493305 -0.549366,1.044743 -1.087442,1.511473 -0.264649,0.240839 -0.655978,0.661062 -0.901812,0.953391 -0.714928,0.868682 -1.538976,1.582895 -2.307836,2.341954 -0.441499,0.435172 -1.009678,0.720857 -1.621756,0.895258 -0.210716,0.05813 -6.178478,0.10464 -13.272564,0.09135 -11.812606,-0.01993 -12.935168,-0.04485 -13.419311,-0.240839 -0.798963,-0.323887 -1.631791,-0.960035 -1.901456,-1.310497 -1.126324,-1.225789 -2.802014,-3.011321 -3.454228,-3.56276 -0.655977,-0.544795 -0.842862,-1.147723 -1.072391,-1.694179 -0.102849,-0.234195 -0.210716,-0.707569 -0.249598,-1.0381 -0.0878,-0.765703 -0.122917,-1.408494 -0.03387,-2.12769 0.07902,-0.720857 0.495433,-1.875224 0.808997,-2.205755 0.706148,-0.745771 1.660638,-1.044744 3.439177,-1.044744 l 1.068628,-0.0066 -0.141731,-0.946747 3.528229,-3.147519 5.158765,-0.350463 -1.195308,-1.984847 0.886761,-1.582895 -7.716199,-2.607708 c 0,0 -0.612078,0.279042 -1.10751,0.220908 -0.490415,-0.05813 -1.69952,-0.616216 -1.69952,-0.616216 l 0.264648,-2.328666 c 0,0 1.166461,0.240839 1.724606,0.480017 m 30.808351,22.663801 c -0.406379,0 -0.568179,0.04485 -0.568179,0.169418 0,0.098 -0.102849,0.441815 -0.225766,0.772346 -0.131697,0.330531 -0.22075,0.602929 -0.215733,0.596285 0.005,0 0.122918,-0.122911 0.249598,-0.252466 0.127934,-0.142843 0.269665,-0.252466 0.30353,-0.252466 0.08278,-0.0066 1.019713,-0.908545 1.019713,-0.98661 0,-0.02658 -0.254615,-0.05149 -0.56818,-0.05149 m -30.945065,0.0066 c -0.0439,0 -0.09282,0 -0.151766,0 -0.249597,0 -0.455295,0.01993 -0.455295,0.04485 0,0.02658 0.24458,0.305616 0.549365,0.62286 0.293496,0.317243 0.652214,0.656079 0.778894,0.745771 l 0.235801,0.169418 -0.205698,-0.279042 c -0.117901,-0.149486 -0.264649,-0.506592 -0.328616,-0.785634 -0.09783,-0.448459 -0.112883,-0.506593 -0.421431,-0.51988 m 20.243732,1.415138 c -0.02007,0 -0.03386,0.05149 -0.06397,0.129555 -0.03387,0.109623 -0.230784,0.41524 -0.436482,0.680993 l -0.387566,0.480018 0.940694,-0.0066 0.935677,-0.0066 -0.235801,-0.25911 c -0.499195,-0.531507 -0.632146,-0.714212 -0.70113,-0.895257 -0.02509,-0.08471 -0.03888,-0.122911 -0.06397,-0.122911 m -4.831404,0.0066 c -0.02007,0 -0.03386,0.0382 -0.05895,0.122911 -0.08278,0.234195 -0.392583,0.642791 -0.706148,0.93512 -0.230783,0.20762 -0.210715,0.214264 0.706148,0.220908 l 0.945711,0.0066 -0.387566,-0.480018 c -0.210716,-0.265753 -0.411397,-0.57137 -0.441499,-0.680993 -0.02885,-0.07807 -0.0439,-0.109624 -0.06397,-0.109624 m 9.759385,0.0066 c -0.01505,0 -0.03386,0.03322 -0.05895,0.104641 -0.05393,0.1744 -0.181868,0.323887 -0.696114,0.901901 l -0.2358,0.25911 0.935677,0.0066 0.94571,0.0066 -0.382548,-0.480017 c -0.210716,-0.25911 -0.411397,-0.57137 -0.441499,-0.67435 -0.02885,-0.07142 -0.0439,-0.116267 -0.06898,-0.122911 m -19.523787,0.0066 c -0.02007,-0.0066 -0.03386,0.02658 -0.05393,0.09135 -0.122917,0.337175 -0.534314,0.928476 -0.660994,0.928476 -0.06898,0 -0.151765,0.05813 -0.18563,0.129555 -0.03386,0.08471 0.288479,0.122911 0.920626,0.122911 0.798962,-0.0066 0.940694,-0.03322 0.788928,-0.15613 -0.254614,-0.214264 -0.671028,-0.759059 -0.745029,-0.993254 -0.02007,-0.07807 -0.0439,-0.109623 -0.06397,-0.116267 m 4.782487,0.09135 c -0.01505,0 -0.02509,0.01329 -0.02885,0.03322 -0.02509,0.098 -0.210715,0.395308 -0.411396,0.661062 l -0.372515,0.480017 1.827454,0 -0.499194,-0.656079 C 29.330773,44.023624 29.160194,43.849223 29.09121,43.855867 m 0,0"
     inkscape:connector-curvature="0"
     style="fill:#ffffff;fill-opacity:1;fill-rule:nonzero;stroke:none" />
  <path
     id="path10177"
     d="m 26.277908,35.76533 c 0,1.66096 -0.323599,1.557981 -1.254259,1.66096 l -2.508517,0 0,1.66096 3.762776,0 0,3.321921 -6.266276,-0.0066 -0.005,-4.976237 c 0,-1.66096 0.617095,-1.66096 1.254259,-1.66096 l 1.63179,0 c 0.475364,0 0.714927,-0.04485 0.714927,-0.343819 l 0,-0.79726 c 0,-0.272398 -0.239563,-0.519881 -0.714927,-0.519881 l -2.886049,0 0.02509,-1.66096 c 1.641825,0 3.424126,0 4.988186,0.0066 1.254259,0 1.254259,1.24572 1.254259,1.66096 l 0,1.66096"
     inkscape:connector-curvature="0"
     style="fill:#000000;fill-opacity:1;fill-rule:nonzero;stroke:none" />
  <path
     id="path10179"
     d="m 32.5492,42.409171 -2.508517,0 0,-8.304801 -2.508517,0 0,-1.66096 5.012017,0 0,9.965761"
     inkscape:connector-curvature="0"
     style="fill:#000000;fill-opacity:1;fill-rule:nonzero;stroke:none" />
  <path
     id="path10181"
     d="m 40.040886,41.113622 c 0.03386,1.290566 -0.714927,1.290566 -1.161443,1.272295 l -3.762776,0 c -1.205342,0 -1.313208,-0.428528 -1.313208,-1.278939 l 0,-7.371341 c 0,-1.29721 0.88676,-1.29721 1.313208,-1.29721 l 3.703826,0.01993 c 1.254258,0 1.254258,0.79726 1.220393,1.317141 l 0,7.358053 m -2.479669,-0.857055 0,-5.643943 c 0,-0.305616 -0.136714,-0.51988 -0.622112,-0.51988 -0.475364,0 -0.627129,0.220907 -0.627129,0.51988 l 0,5.643943 c 0,0.245822 0.151765,0.46673 0.627129,0.46673 0.485398,0 0.622112,-0.220908 0.622112,-0.46673"
     inkscape:connector-curvature="0"
     style="fill:#000000;fill-opacity:1;fill-rule:nonzero;stroke:none" />
  <path
     id="path10183"
     d="m 47.600302,40.76482 c 0,0.357106 0,1.66096 -1.254258,1.66096 l -3.762776,0 c -1.254258,0 -1.254258,-1.024812 -1.254258,-1.66096 l 0,-7.025861 c 0,-1.283922 0.76886,-1.283922 1.254258,-1.283922 l 3.762776,0 c 0.2358,0 1.254258,0 1.254258,1.486559 m -2.508517,0.700925 c 0,-0.31226 -0.136714,-0.51988 -0.622112,-0.51988 -0.475364,0 -0.627129,0.31226 -0.627129,0.616216 l 0,5.502761 c 0,0.265753 0.151765,0.524863 0.627129,0.524863 0.485398,0 0.622112,-0.181045 0.622112,-0.453442"
     inkscape:connector-curvature="0"
     style="fill:#000000;fill-opacity:1;fill-rule:nonzero;stroke:none" />
</svg>
