<?xml version="1.0" encoding="UTF-8" standalone="no"?>
<!-- Created with Inkscape (http://www.inkscape.org/) -->

<svg
   xmlns:dc="http://purl.org/dc/elements/1.1/"
   xmlns:cc="http://creativecommons.org/ns#"
   xmlns:rdf="http://www.w3.org/1999/02/22-rdf-syntax-ns#"
   xmlns:svg="http://www.w3.org/2000/svg"
   xmlns="http://www.w3.org/2000/svg"
   xmlns:sodipodi="http://sodipodi.sourceforge.net/DTD/sodipodi-0.dtd"
   xmlns:inkscape="http://www.inkscape.org/namespaces/inkscape"
   width="48"
   height="48"
   id="svg2"
   version="1.1"
   inkscape:version="0.48.4 r9939"
   sodipodi:docname="audio-volume-medium.svg">
  <defs
     id="defs4" />
  <sodipodi:namedview
     id="base"
     pagecolor="#000000"
     bordercolor="#666666"
     borderopacity="1.0"
     inkscape:pageopacity="0"
     inkscape:pageshadow="2"
     inkscape:zoom="4.3097561"
     inkscape:cx="16.942128"
     inkscape:cy="29.284042"
     inkscape:document-units="px"
     inkscape:current-layer="layer1"
     showgrid="false"
     showguides="false"
     inkscape:window-width="1360"
     inkscape:window-height="717"
     inkscape:window-x="0"
     inkscape:window-y="24"
     inkscape:window-maximized="1">
    <sodipodi:guide
       position="9,39.000017"
       orientation="30,0"
       id="guide3267" />
    <sodipodi:guide
       position="9,9.0000174"
       orientation="0,30"
       id="guide3269" />
    <sodipodi:guide
       position="39,9.0000174"
       orientation="-30,0"
       id="guide3271" />
    <sodipodi:guide
       position="39,39.000017"
       orientation="0,-30"
       id="guide3273" />
    <sodipodi:guide
       position="28,21.999529"
       orientation="13,0"
       id="guide4255" />
    <sodipodi:guide
       position="28,8.9995291"
       orientation="0,11"
       id="guide4257" />
    <sodipodi:guide
       position="39,8.9995291"
       orientation="-13,0"
       id="guide4259" />
    <sodipodi:guide
       position="39,21.999529"
       orientation="0,-11"
       id="guide4261" />
    <sodipodi:guide
       position="9,39.000017"
       orientation="13,0"
       id="guide4291" />
    <sodipodi:guide
       position="9,26.000017"
       orientation="0,19.000002"
       id="guide4293" />
    <sodipodi:guide
       position="28.000002,26.000017"
       orientation="-13,0"
       id="guide4295" />
    <sodipodi:guide
       position="28.000002,39.000017"
       orientation="0,-19.000002"
       id="guide4297" />
  </sodipodi:namedview>
  <metadata
     id="metadata7">
    <rdf:RDF>
      <cc:Work
         rdf:about="">
        <dc:format>image/svg+xml</dc:format>
        <dc:type
           rdf:resource="http://purl.org/dc/dcmitype/StillImage" />
        <dc:title></dc:title>
      </cc:Work>
    </rdf:RDF>
  </metadata>
  <g
     inkscape:label="Capa 1"
     inkscape:groupmode="layer"
     id="layer1"
     transform="translate(0,-1004.3622)">
    <rect
       style="fill:none;stroke:none"
       id="rect3263"
       width="39.745331"
       height="40.209389"
       x="5.5195246"
       y="1008.4895" />
    <path
       sodipodi:type="arc"
       style="fill:none;stroke:none"
       id="path4242"
       sodipodi:cx="21.999308"
       sodipodi:cy="1028.3622"
       sodipodi:rx="1.0006928"
       sodipodi:ry="1.0000308"
       d="m 23,1028.3622 c 0,0.5523 -0.448025,1 -1.000692,1 -0.552668,0 -1.000693,-0.4477 -1.000693,-1 0,-0.5523 0.448025,-1 1.000693,-1 0.552667,0 1.000692,0.4477 1.000692,1 z"
       transform="matrix(1.3248444,0,0,1.340313,-3.6196938,-350.19707)" />
    <rect
       style="fill:none;stroke:none"
       id="rect3263-6"
       width="39.513302"
       height="39.97736"
       x="4.4944806"
       y="1008.3101" />
    <path
       inkscape:connector-curvature="0"
       style="fill:#ffffff;fill-opacity:1;fill-rule:evenodd;stroke:none"
       d="m 4.6977041,1025.6336 c -0.120929,0.8837 -0.203226,1.7723 -0.203226,2.6652 0,5.2326 2.128032,10.4323 5.7829359,14.1326 3.654904,3.7003 8.793358,5.8557 13.965997,5.8561 1.783818,1e-4 3.559245,-0.2728 5.276157,-0.76 3.261715,-0.9257 6.300013,-2.6692 8.697557,-5.0935 3.035073,-3.0689 4.9962,-7.1743 5.58485,-11.4701 l -5.319885,0 c -0.540469,2.8903 -1.931713,5.6203 -3.989917,7.7014 -1.408208,1.4239 -3.119297,2.5265 -4.972605,3.2612 -1.678623,0.6654 -3.47333,1.0307 -5.276157,1.0306 -3.793269,-2e-4 -7.560783,-1.5808 -10.241045,-4.2944 -2.680263,-2.7136 -4.2394479,-6.5267 -4.2394479,-10.3639 0,-0.8944 0.09341,-1.7871 0.2572469,-2.6652 l -5.3224609,0 z"
       id="path4325-6" />
    <path
       inkscape:connector-curvature="0"
       style="fill:#ff0000;fill-opacity:1;fill-rule:evenodd;stroke:none"
       d="m 24.011378,1008.0781 c -5.172638,3e-4 -10.311092,2.1557 -13.965996,5.8561 -3.0312626,3.0688 -4.9919236,7.1723 -5.5797096,11.4673 l 5.322461,0 c 0.5391506,-2.8895 1.9266196,-5.6176 3.9822006,-7.6987 2.680262,-2.7136 6.447776,-4.2942 10.241044,-4.2944 1.802827,-10e-5 3.597534,0.3652 5.276157,1.0306 1.853308,0.7347 3.564397,1.8372 4.972605,3.2612 2.058204,2.0811 3.449448,4.8111 3.989917,7.7013 l -8.962522,0 0,-9.0105 c -2.158981,0.5061 -4.182329,1.6095 -5.749494,3.1961 -1.075598,1.089 -1.926082,2.3976 -2.518459,3.8156 l -3.586036,0 0,9.328 3.586036,0 c 0.592377,1.418 1.442861,2.7266 2.518459,3.8155 1.567165,1.5867 3.590513,2.6901 5.749494,3.1962 l 0,-9.0106 14.488207,0 0,-5.3303 -0.2058,0 c -0.58865,-4.2957 -2.549777,-8.4011 -5.58485,-11.4699 -2.397544,-2.4243 -5.435842,-4.1678 -8.697557,-5.0935 -1.716912,-0.4873 -3.492339,-0.7601 -5.276157,-0.76 z"
       id="path4313" />
    <path
       sodipodi:type="arc"
       style="fill:none;stroke:none"
       id="path4242-1"
       sodipodi:cx="21.999308"
       sodipodi:cy="1028.3622"
       sodipodi:rx="1.0006928"
       sodipodi:ry="1.0000308"
       d="m 23,1028.3622 c 0,0.5523 -0.448025,1 -1.000692,1 -0.552668,0 -1.000693,-0.4477 -1.000693,-1 0,-0.5523 0.448025,-1 1.000693,-1 0.552667,0 1.000692,0.4477 1.000692,1 z"
       transform="matrix(1.31711,0,0,1.3325786,-7.3595117,-342.07453)" />
    <rect
       style="fill:none;stroke:none"
       id="rect3263-3"
       width="38.121113"
       height="39.049229"
       x="13.775747"
       y="1008.0781" />
    <path
       sodipodi:type="arc"
       style="fill:none;stroke:none"
       id="path4242-9"
       sodipodi:cx="21.999308"
       sodipodi:cy="1028.3622"
       sodipodi:rx="1.0006928"
       sodipodi:ry="1.0000308"
       d="m 23,1028.3622 c 0,0.5523 -0.448025,1 -1.000692,1 -0.552668,0 -1.000693,-0.4477 -1.000693,-1 0,-0.5523 0.448025,-1 1.000693,-1 0.552667,0 1.000692,0.4477 1.000692,1 z"
       transform="matrix(1.2707037,0,0,1.301641,5.1237931,-311.4197)" />
  </g>
</svg>
