<?xml version="1.0" encoding="UTF-8" standalone="no"?>
<!-- Created with Inkscape (http://www.inkscape.org/) -->

<svg
   xmlns:dc="http://purl.org/dc/elements/1.1/"
   xmlns:cc="http://creativecommons.org/ns#"
   xmlns:rdf="http://www.w3.org/1999/02/22-rdf-syntax-ns#"
   xmlns:svg="http://www.w3.org/2000/svg"
   xmlns="http://www.w3.org/2000/svg"
   xmlns:sodipodi="http://sodipodi.sourceforge.net/DTD/sodipodi-0.dtd"
   xmlns:inkscape="http://www.inkscape.org/namespaces/inkscape"
   width="48"
   height="48"
   id="svg2"
   version="1.1"
   inkscape:version="0.48.4 r9939"
   sodipodi:docname="audio-volume-medium.svg">
  <defs
     id="defs4" />
  <sodipodi:namedview
     id="base"
     pagecolor="#000000"
     bordercolor="#666666"
     borderopacity="1.0"
     inkscape:pageopacity="0"
     inkscape:pageshadow="2"
     inkscape:zoom="4.3097561"
     inkscape:cx="16.478065"
     inkscape:cy="29.284042"
     inkscape:document-units="px"
     inkscape:current-layer="layer1"
     showgrid="false"
     showguides="false"
     inkscape:window-width="1316"
     inkscape:window-height="674"
     inkscape:window-x="44"
     inkscape:window-y="29"
     inkscape:window-maximized="1">
    <sodipodi:guide
       position="9,39.000017"
       orientation="30,0"
       id="guide3267" />
    <sodipodi:guide
       position="9,9.0000174"
       orientation="0,30"
       id="guide3269" />
    <sodipodi:guide
       position="39,9.0000174"
       orientation="-30,0"
       id="guide3271" />
    <sodipodi:guide
       position="39,39.000017"
       orientation="0,-30"
       id="guide3273" />
    <sodipodi:guide
       position="28,21.999529"
       orientation="13,0"
       id="guide4255" />
    <sodipodi:guide
       position="28,8.9995291"
       orientation="0,11"
       id="guide4257" />
    <sodipodi:guide
       position="39,8.9995291"
       orientation="-13,0"
       id="guide4259" />
    <sodipodi:guide
       position="39,21.999529"
       orientation="0,-11"
       id="guide4261" />
    <sodipodi:guide
       position="9,39.000017"
       orientation="13,0"
       id="guide4291" />
    <sodipodi:guide
       position="9,26.000017"
       orientation="0,19.000002"
       id="guide4293" />
    <sodipodi:guide
       position="28.000002,26.000017"
       orientation="-13,0"
       id="guide4295" />
    <sodipodi:guide
       position="28.000002,39.000017"
       orientation="0,-19.000002"
       id="guide4297" />
  </sodipodi:namedview>
  <metadata
     id="metadata7">
    <rdf:RDF>
      <cc:Work
         rdf:about="">
        <dc:format>image/svg+xml</dc:format>
        <dc:type
           rdf:resource="http://purl.org/dc/dcmitype/StillImage" />
        <dc:title></dc:title>
      </cc:Work>
    </rdf:RDF>
  </metadata>
  <g
     inkscape:label="Capa 1"
     inkscape:groupmode="layer"
     id="layer1"
     transform="translate(0,-1004.3622)">
    <rect
       style="fill:#808080;fill-opacity:1;stroke:#000000;stroke-width:0.5;stroke-linecap:round;stroke-linejoin:round;stroke-miterlimit:4;stroke-opacity:1;stroke-dasharray:none"
       id="rect2998"
       width="48.262535"
       height="48.262562"
       x="-68.449348"
       y="1000.8512" />
    <rect
       style="fill:none;stroke:none"
       id="rect3263"
       width="39.745331"
       height="40.209389"
       x="5.5195246"
       y="1008.4895" />
    <path
       style="fill:#ffffff;fill-opacity:1;fill-rule:evenodd;stroke:none"
       d="m 111.70022,974.14881 c -5.20301,3e-4 -10.37164,2.1682 -14.048004,5.89 -3.049064,3.0868 -5.02124,7.2141 -5.612479,11.5341 -0.12162,0.8888 -0.204423,1.7826 -0.204423,2.6806 0,5.263 2.140525,10.49279 5.816902,14.21469 3.676364,3.7218 8.844994,5.8897 14.048004,5.89 1.79429,10e-5 3.58015,-0.2743 5.30714,-0.7644 3.28087,-0.9311 6.33701,-2.6846 8.74863,-5.123 3.0529,-3.0868 5.02554,-7.216 5.61765,-11.53669 l -5.35113,0 c -0.54365,2.907 -1.94305,5.65279 -4.01335,7.74609 -1.41647,1.4321 -3.13761,2.5411 -5.0018,3.2802 -1.68848,0.6692 -3.49372,1.0367 -5.30714,1.0366 -3.81554,-3e-4 -7.60518,-1.5901 -10.30119,-4.3195 -2.696001,-2.7292 -4.264338,-6.56439 -4.264338,-10.42399 0,-0.8995 0.09393,-1.7975 0.258755,-2.6806 0.542325,-2.9062 1.93793,-5.6502 4.005583,-7.7434 2.69601,-2.7294 6.48565,-4.3192 10.30119,-4.3194 1.81342,-2e-4 3.61866,0.3672 5.30714,1.0366 l 0,-5.6335 c -1.72699,-0.4901 -3.51285,-0.7645 -5.30714,-0.7644 z"
       id="path4325"
       inkscape:connector-curvature="0" />
    <path
       style="fill:#ff0000;fill-opacity:1;fill-rule:evenodd;stroke:none"
       d="m 120.02377,971.8968 0,5.6335 c 1.86419,0.739 3.58533,1.848 5.0018,3.2801 2.0703,2.0932 3.4697,4.8391 4.01335,7.7461 l -9.01515,0 0,-9.0628 c -2.17166,0.509 -4.20689,1.6188 -5.78325,3.2146 -1.08192,1.0953 -1.9374,2.4115 -2.53325,3.8377 l -3.6071,0 0,9.3822 3.6071,0 c 0.59585,1.4262 1.45133,2.7424 2.53325,3.8377 1.57636,1.5958 3.61159,2.7056 5.78325,3.2146 l 0,-9.0628 14.57329,0 0,-5.3612 -0.20701,0 c -0.59211,-4.3206 -2.56475,-8.4499 -5.61764,-11.5366 -2.41163,-2.4385 -5.46777,-4.192 -8.74864,-5.1231 z"
       id="path4320"
       inkscape:connector-curvature="0" />
    <path
       sodipodi:type="arc"
       style="fill:none;stroke:none"
       id="path4242"
       sodipodi:cx="21.999308"
       sodipodi:cy="1028.3622"
       sodipodi:rx="1.0006928"
       sodipodi:ry="1.0000308"
       d="m 23,1028.3622 a 1.0006928,1.0000308 0 1 1 -2.001385,0 1.0006928,1.0000308 0 1 1 2.001385,0 z"
       transform="matrix(1.3248444,0,0,1.340313,-3.6196938,-350.19707)" />
    <rect
       style="fill:none;stroke:none"
       id="rect3263-4"
       width="37.88908"
       height="38.8172"
       x="100.09154"
       y="1031.2812" />
    <path
       inkscape:connector-curvature="0"
       style="fill:#ff0000;fill-opacity:1;fill-rule:evenodd;stroke:none"
       d="m 119.02867,1031.2813 c -4.96001,3e-4 -9.88724,2.0931 -13.39191,5.6861 -2.90666,2.9799 -4.78673,6.9643 -5.35035,11.1346 -0.11596,0.858 -0.19488,1.7209 -0.19488,2.5879 0,5.0807 2.04056,10.1295 5.54523,13.7224 3.50467,3.593 8.4319,5.6859 13.39191,5.6862 1.7105,10e-5 3.41294,-0.2648 5.05928,-0.738 3.12764,-0.8988 6.04105,-2.5917 8.34004,-4.9456 2.91031,-2.9799 4.79082,-6.9662 5.35528,-11.1372 l 0.19734,0 0,-5.1757 -0.19734,0 c -0.56446,-4.171 -2.44497,-8.1573 -5.35528,-11.1372 -2.29899,-2.3539 -5.2124,-4.0468 -8.34004,-4.9456 -1.64634,-0.4731 -3.34878,-0.738 -5.05928,-0.7379 z m 0,5.1756 c 1.72873,-10e-5 3.44966,0.3546 5.05928,1.0007 1.77713,0.7134 3.41788,1.784 4.7682,3.1666 1.9736,2.0207 3.30766,4.6715 3.82591,7.4778 l -8.59411,0 0,-8.749 c -2.07023,0.4914 -4.01041,1.5628 -5.51316,3.1034 -1.03138,1.0573 -1.8469,2.3279 -2.41493,3.7048 l -3.43863,0 0,9.0573 3.43863,0 c 0.56803,1.3769 1.38355,2.6475 2.41493,3.7048 1.50275,1.5407 3.44293,2.612 5.51316,3.1034 l 0,-8.749 8.59411,0 c -0.51825,2.8064 -1.85231,5.4571 -3.82591,7.4778 -1.35032,1.3826 -2.99107,2.4532 -4.7682,3.1666 -1.60962,0.6461 -3.33055,1.0008 -5.05928,1.0007 -3.63734,-2e-4 -7.24999,-1.5349 -9.82008,-4.1698 -2.57008,-2.6348 -4.06518,-6.3373 -4.06518,-10.0631 0,-0.8684 0.0896,-1.7352 0.24668,-2.5879 0.51698,-2.8056 1.84742,-5.4546 3.8185,-7.4753 2.57009,-2.6348 6.18274,-4.1696 9.82008,-4.1698 z"
       id="path4325-1" />
    <path
       sodipodi:type="arc"
       style="fill:none;stroke:none"
       id="path4242-2"
       sodipodi:cx="21.999308"
       sodipodi:cy="1028.3622"
       sodipodi:rx="1.0006928"
       sodipodi:ry="1.0000308"
       d="m 23,1028.3622 a 1.0006928,1.0000308 0 1 1 -2.001385,0 1.0006928,1.0000308 0 1 1 2.001385,0 z"
       transform="matrix(1.2629693,0,0,1.2939066,88.724811,-279.91474)" />
    <rect
       style="fill:none;stroke:none"
       id="rect3263-6"
       width="39.513302"
       height="39.97736"
       x="4.4944806"
       y="1008.3101" />
    <path
       inkscape:connector-curvature="0"
       style="fill:#ffffff;fill-opacity:1;fill-rule:evenodd;stroke:none"
       d="m 4.6977041,1025.6336 c -0.120929,0.8837 -0.203226,1.7723 -0.203226,2.6652 0,5.2326 2.128032,10.4323 5.7829359,14.1326 3.654904,3.7003 8.793358,5.8557 13.965997,5.8561 1.783818,1e-4 3.559245,-0.2728 5.276157,-0.76 3.261715,-0.9257 6.300013,-2.6692 8.697557,-5.0935 3.035073,-3.0689 4.9962,-7.1743 5.58485,-11.4701 l -5.319885,0 c -0.540469,2.8903 -1.931713,5.6203 -3.989917,7.7014 -1.408208,1.4239 -3.119297,2.5265 -4.972605,3.2612 -1.678623,0.6654 -3.47333,1.0307 -5.276157,1.0306 -3.793269,-2e-4 -7.560783,-1.5808 -10.241045,-4.2944 -2.680263,-2.7136 -4.2394479,-6.5267 -4.2394479,-10.3639 0,-0.8944 0.09341,-1.7871 0.2572469,-2.6652 l -5.3224609,0 z"
       id="path4325-6" />
    <path
       inkscape:connector-curvature="0"
       style="fill:#ff0000;fill-opacity:1;fill-rule:evenodd;stroke:none"
       d="m 24.011378,1008.0781 c -5.172638,3e-4 -10.311092,2.1557 -13.965996,5.8561 -3.0312626,3.0688 -4.9919236,7.1723 -5.5797096,11.4673 l 5.322461,0 c 0.5391506,-2.8895 1.9266196,-5.6176 3.9822006,-7.6987 2.680262,-2.7136 6.447776,-4.2942 10.241044,-4.2944 1.802827,-10e-5 3.597534,0.3652 5.276157,1.0306 1.853308,0.7347 3.564397,1.8372 4.972605,3.2612 2.058204,2.0811 3.449448,4.8111 3.989917,7.7013 l -8.962522,0 0,-9.0105 c -2.158981,0.5061 -4.182329,1.6095 -5.749494,3.1961 -1.075598,1.089 -1.926082,2.3976 -2.518459,3.8156 l -3.586036,0 0,9.328 3.586036,0 c 0.592377,1.418 1.442861,2.7266 2.518459,3.8155 1.567165,1.5867 3.590513,2.6901 5.749494,3.1962 l 0,-9.0106 14.488207,0 0,-5.3303 -0.2058,0 c -0.58865,-4.2957 -2.549777,-8.4011 -5.58485,-11.4699 -2.397544,-2.4243 -5.435842,-4.1678 -8.697557,-5.0935 -1.716912,-0.4873 -3.492339,-0.7601 -5.276157,-0.76 z"
       id="path4313" />
    <path
       sodipodi:type="arc"
       style="fill:none;stroke:none"
       id="path4242-1"
       sodipodi:cx="21.999308"
       sodipodi:cy="1028.3622"
       sodipodi:rx="1.0006928"
       sodipodi:ry="1.0000308"
       d="m 23,1028.3622 a 1.0006928,1.0000308 0 1 1 -2.001385,0 1.0006928,1.0000308 0 1 1 2.001385,0 z"
       transform="matrix(1.31711,0,0,1.3325786,-7.3595117,-342.07453)" />
    <rect
       style="fill:none;stroke:none"
       id="rect3263-3"
       width="38.121113"
       height="39.049229"
       x="13.775747"
       y="1008.0781" />
    <path
       inkscape:connector-curvature="0"
       style="fill:#ffffff;fill-opacity:1;fill-rule:evenodd;stroke:none"
       d="m -37.955248,1013.6459 c -2.082912,0.4943 -4.034971,1.572 -5.546919,3.1219 -2.115677,2.1686 -3.348007,5.216 -3.348007,8.2827 0,3.0666 1.23233,6.114 3.348007,8.2827 1.511948,1.5498 3.464007,2.6275 5.546919,3.1219 l 0,-22.8092 z"
       id="path4225" />
    <rect
       style="fill:#ffffff;fill-opacity:1;fill-rule:evenodd;stroke:none"
       id="rect4237"
       width="5.0828147"
       height="9.1114874"
       x="-42.198597"
       y="1019.1026" />
    <path
       sodipodi:type="arc"
       style="fill:none;stroke:none"
       id="path4242-9"
       sodipodi:cx="21.999308"
       sodipodi:cy="1028.3622"
       sodipodi:rx="1.0006928"
       sodipodi:ry="1.0000308"
       d="m 23,1028.3622 a 1.0006928,1.0000308 0 1 1 -2.001385,0 1.0006928,1.0000308 0 1 1 2.001385,0 z"
       transform="matrix(1.2707037,0,0,1.301641,5.1237931,-311.4197)" />
    <path
       inkscape:connector-curvature="0"
       style="fill:#ffffff;fill-opacity:1;fill-rule:evenodd;stroke:none"
       d="m -35.15643,999.72496 c -4.990389,4e-4 -9.947798,2.10574 -13.473927,5.72024 -2.924461,2.9977 -4.816041,7.0059 -5.383118,11.2012 -0.116668,0.8631 -0.196065,1.7311 -0.196065,2.6033 0,5.1111 2.053054,10.19 5.579183,13.8045 3.526129,3.6144 8.483538,5.7198 13.473927,5.7201 1.720969,10e-5 3.43384,-0.2664 5.09026,-0.7424 3.146793,-0.9042 6.078042,-2.6072 8.391112,-4.9752 2.928137,-2.9976 4.820164,-7.0077 5.388081,-11.2038 l 0.198547,0 0,-5.2065 -0.198547,0 c -0.567917,-4.196 -2.459944,-8.2061 -5.388081,-11.2038 -2.31307,-2.368 -5.244319,-4.071 -8.391112,-4.9752 -1.65642,-0.47604 -3.369291,-0.74254 -5.09026,-0.74244 z m 0,5.20664 c 1.739307,-10e-5 3.470781,0.3567 5.09026,1.0068 1.788009,0.7176 3.438811,1.7946 4.797403,3.1854 1.985687,2.0328 3.327912,4.6994 3.849339,7.5226 l -8.646742,0 0,5.2065 8.646742,0 c -0.521427,2.8232 -1.863652,5.4898 -3.849339,7.5226 -1.358592,1.3909 -3.009394,2.4678 -4.797403,3.1855 -1.619479,0.65 -3.350953,1.0068 -5.09026,1.0067 -3.659619,-2e-4 -7.294391,-1.5441 -9.880218,-4.1947 -2.585828,-2.6506 -4.090078,-6.3752 -4.090078,-10.1233 0,-0.8736 0.09012,-1.7456 0.248184,-2.6033 0.520154,-2.8224 1.858737,-5.4872 3.841894,-7.52 2.585827,-2.6506 6.220599,-4.1946 9.880218,-4.1948 z"
       id="path4325-5" />
    <rect
       style="fill:#ff0000;fill-opacity:1;stroke:none"
       id="rect4271"
       width="8.8172045"
       height="5.336729"
       x="-42.925861"
       y="1030.7832" />
  </g>
</svg>
