<?xml version="1.0" encoding="UTF-8" standalone="no"?>
<svg
   xmlns:dc="http://purl.org/dc/elements/1.1/"
   xmlns:cc="http://creativecommons.org/ns#"
   xmlns:rdf="http://www.w3.org/1999/02/22-rdf-syntax-ns#"
   xmlns:svg="http://www.w3.org/2000/svg"
   xmlns="http://www.w3.org/2000/svg"
   xmlns:sodipodi="http://sodipodi.sourceforge.net/DTD/sodipodi-0.dtd"
   xmlns:inkscape="http://www.inkscape.org/namespaces/inkscape"
   width="24"
   height="24"
   viewBox="0 0 24 24"
   id="svg2"
   version="1.1"
   inkscape:version="0.48.4 r9939"
   sodipodi:docname="ethernet.svg">
  <metadata
     id="metadata16">
    <rdf:RDF>
      <cc:Work
         rdf:about="">
        <dc:format>image/svg+xml</dc:format>
        <dc:type
           rdf:resource="http://purl.org/dc/dcmitype/StillImage" />
        <dc:title></dc:title>
      </cc:Work>
    </rdf:RDF>
  </metadata>
  <defs
     id="defs14" />
  <sodipodi:namedview
     pagecolor="#ffffff"
     bordercolor="#666666"
     borderopacity="1"
     objecttolerance="10"
     gridtolerance="10"
     guidetolerance="10"
     inkscape:pageopacity="0"
     inkscape:pageshadow="2"
     inkscape:window-width="640"
     inkscape:window-height="480"
     id="namedview12"
     showgrid="false"
     inkscape:zoom="9.8333333"
     inkscape:cx="12"
     inkscape:cy="12"
     inkscape:window-x="2"
     inkscape:window-y="24"
     inkscape:window-maximized="0"
     inkscape:current-layer="svg2" />
  <path
     style="fill:#000;fill-opacity:.302"
     d="M 3.601562 4.363281 C 2.933594 4.363281 2.398438 4.898438 2.398438 5.558594 L 2.398438 16.261719 C 2.398438 16.921875 2.933594 17.453125 3.601562 17.453125 L 20.398438 17.453125 C 21.066406 17.453125 21.601562 16.921875 21.601562 16.261719 L 21.601562 5.558594 C 21.601562 4.898438 21.066406 4.363281 20.398438 4.363281 Z M 4.800781 6.546875 L 19.199219 6.546875 L 19.199219 15.273438 L 4.800781 15.273438 Z M 8.398438 18.546875 L 8.398438 19.636719 L 6 19.636719 L 6 21.816406 L 18 21.816406 L 18 19.636719 L 15.601562 19.636719 L 15.601562 18.546875 Z "
     id="path6" />
  <path
     style="fill:#ffffff"
     d="M 3.601562 3.273438 C 2.933594 3.273438 2.398438 3.804688 2.398438 4.464844 L 2.398438 15.171875 C 2.398438 15.832031 2.933594 16.363281 3.601562 16.363281 L 20.398438 16.363281 C 21.066406 16.363281 21.601562 15.832031 21.601562 15.171875 L 21.601562 4.464844 C 21.601562 3.808594 21.066406 3.273438 20.398438 3.273438 Z M 4.800781 5.453125 L 19.199219 5.453125 L 19.199219 14.183594 L 4.800781 14.183594 Z M 8.398438 17.453125 L 8.398438 18.546875 L 6 18.546875 L 6 20.726562 L 18 20.726562 L 18 18.546875 L 15.601562 18.546875 L 15.601562 17.453125 Z "
     id="path8" />
  <path
     style="fill:#ffffff;stroke:#dcdcdc;stroke-width:1.14415562;stroke-linecap:round"
     d="m 28.936109,1.4525387 c 0,0 0.597657,-1.09375179 2.996094,-1.09375179 2.398438,0 2.996094,1.13672059 2.996094,1.13672059 m -7.796875,-1.67187739 c 0,0 1.179688,-1.69140691 4.800781,-1.64453161 3.621094,0.046874 4.800781,1.64453161 4.800781,1.64453161 M 31.252516,3.1595707 c 0,0 -0.02344,-0.6171878 0.679687,-0.6171878 0.691407,0 0.578125,0.6171878 0.578125,0.6171878"
     id="path10"
     inkscape:connector-curvature="0" />
</svg>
