<?xml version="1.0" encoding="UTF-8" standalone="no"?>
<!-- Created with Inkscape (http://www.inkscape.org/) -->

<svg
   xmlns:dc="http://purl.org/dc/elements/1.1/"
   xmlns:cc="http://creativecommons.org/ns#"
   xmlns:rdf="http://www.w3.org/1999/02/22-rdf-syntax-ns#"
   xmlns:svg="http://www.w3.org/2000/svg"
   xmlns="http://www.w3.org/2000/svg"
   xmlns:sodipodi="http://sodipodi.sourceforge.net/DTD/sodipodi-0.dtd"
   xmlns:inkscape="http://www.inkscape.org/namespaces/inkscape"
   width="48"
   height="48"
   id="svg2"
   version="1.1"
   inkscape:version="0.48.4 r9939"
   sodipodi:docname="network-offline.svg">
  <defs
     id="defs4" />
  <sodipodi:namedview
     id="base"
     pagecolor="#ffffff"
     bordercolor="#666666"
     borderopacity="1.0"
     inkscape:pageopacity="0.0"
     inkscape:pageshadow="2"
     inkscape:zoom="5.7388375"
     inkscape:cx="16.278403"
     inkscape:cy="29.168296"
     inkscape:document-units="px"
     inkscape:current-layer="layer1"
     showgrid="false"
     inkscape:window-width="1316"
     inkscape:window-height="674"
     inkscape:window-x="44"
     inkscape:window-y="29"
     inkscape:window-maximized="1"
     showguides="false">
    <inkscape:grid
       type="xygrid"
       id="grid3013"
       empspacing="5"
       visible="true"
       enabled="true"
       snapvisiblegridlinesonly="true" />
    <sodipodi:guide
       position="9,39.000017"
       orientation="30,0"
       id="guide3265" />
    <sodipodi:guide
       position="9,9.0000174"
       orientation="0,30"
       id="guide3267" />
    <sodipodi:guide
       position="39,9.0000174"
       orientation="-30,0"
       id="guide3269" />
    <sodipodi:guide
       position="39,39.000017"
       orientation="0,-30"
       id="guide3271" />
    <sodipodi:guide
       position="9,20.000017"
       orientation="11,0"
       id="guide3352" />
    <sodipodi:guide
       position="9,9.0000174"
       orientation="0,11"
       id="guide3354" />
    <sodipodi:guide
       position="20,9.0000174"
       orientation="-11,0"
       id="guide3356" />
    <sodipodi:guide
       position="20,20.000017"
       orientation="0,-11"
       id="guide3358" />
    <sodipodi:guide
       position="28,39.000017"
       orientation="11,0"
       id="guide3366" />
    <sodipodi:guide
       position="28,28.000017"
       orientation="0,11"
       id="guide3368" />
    <sodipodi:guide
       position="39,28.000017"
       orientation="-11,0"
       id="guide3370" />
    <sodipodi:guide
       position="39,39.000017"
       orientation="0,-11"
       id="guide3372" />
  </sodipodi:namedview>
  <metadata
     id="metadata7">
    <rdf:RDF>
      <cc:Work
         rdf:about="">
        <dc:format>image/svg+xml</dc:format>
        <dc:type
           rdf:resource="http://purl.org/dc/dcmitype/StillImage" />
        <dc:title />
      </cc:Work>
    </rdf:RDF>
  </metadata>
  <g
     inkscape:label="Capa 1"
     inkscape:groupmode="layer"
     id="layer1"
     transform="translate(0,-1004.3622)">
    <rect
       style="fill:none;stroke:none"
       id="rect3261"
       width="39.409569"
       height="40.629314"
       x="4.2952199"
       y="1008.1346" />
    <rect
       y="1033.8666"
       x="4.2952199"
       height="14.897415"
       width="14.450174"
       id="rect3348"
       style="fill:none;stroke:none" />
    <path
       style="fill:#f1c40f;fill-opacity:1;fill-rule:evenodd;stroke:none"
       d="m 13.782188,1024.6188 c -3.8595484,3.9789 -3.8595484,10.3855 0,14.3646 3.859546,3.9789 10.073837,3.9789 13.933384,0 l 6.502247,-6.7035 c 3.859547,-3.979 3.859547,-10.3856 0,-14.3646 -3.859548,-3.9791 -10.073837,-3.9791 -13.933386,0 l -6.502245,6.7035 z m 3.713755,4.0044 6.672785,-6.8792 c 1.754339,-1.8087 4.579182,-1.8068 6.333522,0 1.75434,1.8086 1.754339,4.719 0,6.5277 l -6.672786,6.8792 c -1.75434,1.8087 -4.577367,1.8087 -6.331707,0 -1.75434,-1.8086 -1.756155,-4.7209 -0.0018,-6.5295 z"
       id="rect3336"
       inkscape:connector-curvature="0" />
    <path
       sodipodi:type="arc"
       style="fill:none;stroke:none"
       id="path3340"
       sodipodi:cx="-710.19269"
       sodipodi:cy="749.63245"
       sodipodi:rx="2.0013857"
       sodipodi:ry="2.0000615"
       d="m -708.1913,749.63245 a 2.0013857,2.0000615 0 1 1 -4.00277,0 2.0013857,2.0000615 0 1 1 4.00277,0 z"
       transform="matrix(0.92889235,-0.9576421,0.92889235,0.9576421,-7.5276492,-364.27235)" />
    <path
       d="m -699.1913,744.13245 a 2.0013857,2.0000615 0 1 1 -4.00277,0 2.0013857,2.0000615 0 1 1 4.00277,0 z"
       sodipodi:ry="2.0000615"
       sodipodi:rx="2.0013857"
       sodipodi:cy="744.13245"
       sodipodi:cx="-701.19269"
       id="path3342"
       style="fill:none;stroke:none"
       sodipodi:type="arc"
       transform="matrix(0.92889235,-0.9576421,0.92889235,0.9576421,-7.5276492,-364.27235)" />
    <path
       sodipodi:type="arc"
       style="fill:none;stroke:none"
       id="path3344"
       sodipodi:cx="-719.19269"
       sodipodi:cy="744.13245"
       sodipodi:rx="2.0013857"
       sodipodi:ry="2.0000615"
       d="m -717.1913,744.13245 a 2.0013857,2.0000615 0 1 1 -4.00277,0 2.0013857,2.0000615 0 1 1 4.00277,0 z"
       transform="matrix(0.92889235,-0.9576421,0.92889235,0.9576421,-7.5276492,-364.27235)" />
    <rect
       style="fill:#f1c40f;fill-opacity:1;fill-rule:evenodd;stroke:none"
       id="rect3346"
       width="5.3365445"
       height="15.418612"
       x="730.9574"
       y="-724.78839"
       ry="0"
       transform="matrix(0.69625001,0.71779936,0.69625001,-0.71779936,0,0)" />
    <rect
       style="fill:none;stroke:none"
       id="rect3362"
       width="14.450174"
       height="14.897415"
       x="29.254612"
       y="1008.1346" />
    <rect
       transform="matrix(0.69625001,0.71779936,0.69625001,-0.71779936,0,0)"
       ry="0"
       y="-688.94098"
       x="730.9574"
       height="15.418612"
       width="5.3365445"
       id="rect3360"
       style="fill:#f1c40f;fill-opacity:1;fill-rule:evenodd;stroke:none" />
  </g>
</svg>
