<?xml version="1.0" encoding="UTF-8" standalone="no"?>
<!-- Created with Inkscape (http://www.inkscape.org/) -->

<svg
   xmlns:dc="http://purl.org/dc/elements/1.1/"
   xmlns:cc="http://creativecommons.org/ns#"
   xmlns:rdf="http://www.w3.org/1999/02/22-rdf-syntax-ns#"
   xmlns:svg="http://www.w3.org/2000/svg"
   xmlns="http://www.w3.org/2000/svg"
   xmlns:sodipodi="http://sodipodi.sourceforge.net/DTD/sodipodi-0.dtd"
   xmlns:inkscape="http://www.inkscape.org/namespaces/inkscape"
   width="48"
   height="48"
   id="svg2"
   version="1.1"
   inkscape:version="0.48.4 r9939"
   sodipodi:docname="network-transmit.svg">
  <defs
     id="defs4" />
  <sodipodi:namedview
     id="base"
     pagecolor="#ffffff"
     bordercolor="#666666"
     borderopacity="1.0"
     inkscape:pageopacity="0.0"
     inkscape:pageshadow="2"
     inkscape:zoom="8.1159418"
     inkscape:cx="16.278403"
     inkscape:cy="29.168296"
     inkscape:document-units="px"
     inkscape:current-layer="layer1"
     showgrid="false"
     inkscape:window-width="1316"
     inkscape:window-height="674"
     inkscape:window-x="44"
     inkscape:window-y="29"
     inkscape:window-maximized="1"
     showguides="false">
    <inkscape:grid
       type="xygrid"
       id="grid3013"
       empspacing="5"
       visible="true"
       enabled="true"
       snapvisiblegridlinesonly="true" />
    <sodipodi:guide
       position="9,39.000017"
       orientation="30,0"
       id="guide3265" />
    <sodipodi:guide
       position="9,9.0000174"
       orientation="0,30"
       id="guide3267" />
    <sodipodi:guide
       position="39,9.0000174"
       orientation="-30,0"
       id="guide3269" />
    <sodipodi:guide
       position="39,39.000017"
       orientation="0,-30"
       id="guide3271" />
    <sodipodi:guide
       position="9,20.000017"
       orientation="11,0"
       id="guide3352" />
    <sodipodi:guide
       position="9,9.0000174"
       orientation="0,11"
       id="guide3354" />
    <sodipodi:guide
       position="20,9.0000174"
       orientation="-11,0"
       id="guide3356" />
    <sodipodi:guide
       position="20,20.000017"
       orientation="0,-11"
       id="guide3358" />
    <sodipodi:guide
       position="28,39.000017"
       orientation="11,0"
       id="guide3366" />
    <sodipodi:guide
       position="28,28.000017"
       orientation="0,11"
       id="guide3368" />
    <sodipodi:guide
       position="39,28.000017"
       orientation="-11,0"
       id="guide3370" />
    <sodipodi:guide
       position="39,39.000017"
       orientation="0,-11"
       id="guide3372" />
  </sodipodi:namedview>
  <metadata
     id="metadata7">
    <rdf:RDF>
      <cc:Work
         rdf:about="">
        <dc:format>image/svg+xml</dc:format>
        <dc:type
           rdf:resource="http://purl.org/dc/dcmitype/StillImage" />
        <dc:title />
      </cc:Work>
    </rdf:RDF>
  </metadata>
  <g
     inkscape:label="Capa 1"
     inkscape:groupmode="layer"
     id="layer1"
     transform="translate(0,-1004.3622)">
    <rect
       style="fill:none;stroke:none"
       id="rect3261"
       width="40.226784"
       height="40.719624"
       x="3.8249998"
       y="1007.9407" />
    <rect
       y="1033.7299"
       x="3.8249998"
       height="14.930529"
       width="14.749822"
       id="rect3348"
       style="fill:none;stroke:none" />
    <path
       style="fill:#2ecc71;fill-opacity:1;fill-rule:evenodd;stroke:none"
       d="m 13.508695,1024.4616 c -3.9395821,3.9878 -3.9395821,10.4086 0,14.3965 3.939581,3.9879 10.282735,3.9879 14.222316,0 l 6.637081,-6.7185 c 3.939581,-3.9877 3.939581,-10.4086 0,-14.3965 -3.939582,-3.9878 -10.282735,-3.9878 -14.222317,0 l -6.63708,6.7185 z m 3.790765,4.0133 6.811157,-6.8945 c 1.790718,-1.8127 4.674138,-1.8108 6.464857,0 1.79072,1.8126 1.790718,4.7294 0,6.5421 l -6.811156,6.8945 c -1.790719,1.8128 -4.672286,1.8128 -6.463005,0 -1.79072,-1.8125 -1.792572,-4.7313 -0.0018,-6.5441 z"
       id="rect3336"
       inkscape:connector-curvature="0" />
    <path
       sodipodi:type="arc"
       style="fill:none;stroke:none"
       id="path3340"
       sodipodi:cx="-710.19269"
       sodipodi:cy="749.63245"
       sodipodi:rx="2.0013857"
       sodipodi:ry="2.0000615"
       d="m -708.1913,749.63245 a 2.0013857,2.0000615 0 1 1 -4.00277,0 2.0013857,2.0000615 0 1 1 4.00277,0 z"
       transform="matrix(0.94815443,-0.95977072,0.94815443,0.95977072,-8.2430359,-367.51677)" />
    <path
       d="m -699.1913,744.13245 a 2.0013857,2.0000615 0 1 1 -4.00277,0 2.0013857,2.0000615 0 1 1 4.00277,0 z"
       sodipodi:ry="2.0000615"
       sodipodi:rx="2.0013857"
       sodipodi:cy="744.13245"
       sodipodi:cx="-701.19269"
       id="path3342"
       style="fill:none;stroke:none"
       sodipodi:type="arc"
       transform="matrix(0.94815443,-0.95977072,0.94815443,0.95977072,-8.2430359,-367.51677)" />
    <path
       sodipodi:type="arc"
       style="fill:none;stroke:none"
       id="path3344"
       sodipodi:cx="-719.19269"
       sodipodi:cy="744.13245"
       sodipodi:rx="2.0013857"
       sodipodi:ry="2.0000615"
       d="m -717.1913,744.13245 a 2.0013857,2.0000615 0 1 1 -4.00277,0 2.0013857,2.0000615 0 1 1 4.00277,0 z"
       transform="matrix(0.94815443,-0.95977072,0.94815443,0.95977072,-8.2430359,-367.51677)" />
    <rect
       style="fill:#2ecc71;fill-opacity:1;fill-rule:evenodd;stroke:none"
       id="rect3346"
       width="5.3965268"
       height="15.591916"
       x="737.06427"
       y="-731.62164"
       ry="0"
       transform="matrix(0.70278858,0.71139877,0.70278858,-0.71139877,0,0)" />
    <rect
       style="fill:none;stroke:none"
       id="rect3362"
       width="14.749822"
       height="14.930529"
       x="29.301966"
       y="1007.9407" />
    <rect
       transform="matrix(0.70278858,0.71139877,0.70278858,-0.71139877,0,0)"
       ry="0"
       y="-695.37128"
       x="737.06427"
       height="15.591916"
       width="5.3965268"
       id="rect3360"
       style="fill:#2ecc71;fill-opacity:1;fill-rule:evenodd;stroke:none" />
  </g>
</svg>
