<?xml version="1.0" encoding="UTF-8" standalone="no"?>
<!-- Created with Inkscape (http://www.inkscape.org/) -->

<svg
   xmlns:dc="http://purl.org/dc/elements/1.1/"
   xmlns:cc="http://creativecommons.org/ns#"
   xmlns:rdf="http://www.w3.org/1999/02/22-rdf-syntax-ns#"
   xmlns:svg="http://www.w3.org/2000/svg"
   xmlns="http://www.w3.org/2000/svg"
   xmlns:sodipodi="http://sodipodi.sourceforge.net/DTD/sodipodi-0.dtd"
   xmlns:inkscape="http://www.inkscape.org/namespaces/inkscape"
   width="48"
   height="48"
   id="svg2"
   version="1.1"
   inkscape:version="0.48.4 r9939"
   sodipodi:docname="network-idle.svg">
  <defs
     id="defs4" />
  <sodipodi:namedview
     id="base"
     pagecolor="#ffffff"
     bordercolor="#666666"
     borderopacity="1.0"
     inkscape:pageopacity="0.0"
     inkscape:pageshadow="2"
     inkscape:zoom="4.0579709"
     inkscape:cx="-26.969812"
     inkscape:cy="23.475278"
     inkscape:document-units="px"
     inkscape:current-layer="layer1"
     showgrid="false"
     inkscape:window-width="1316"
     inkscape:window-height="674"
     inkscape:window-x="44"
     inkscape:window-y="29"
     inkscape:window-maximized="1"
     showguides="false">
    <inkscape:grid
       type="xygrid"
       id="grid3013"
       empspacing="5"
       visible="true"
       enabled="true"
       snapvisiblegridlinesonly="true" />
    <sodipodi:guide
       position="9,39.000017"
       orientation="30,0"
       id="guide3265" />
    <sodipodi:guide
       position="9,9.0000174"
       orientation="0,30"
       id="guide3267" />
    <sodipodi:guide
       position="39,9.0000174"
       orientation="-30,0"
       id="guide3269" />
    <sodipodi:guide
       position="39,39.000017"
       orientation="0,-30"
       id="guide3271" />
    <sodipodi:guide
       position="9,20.000017"
       orientation="11,0"
       id="guide3352" />
    <sodipodi:guide
       position="9,9.0000174"
       orientation="0,11"
       id="guide3354" />
    <sodipodi:guide
       position="20,9.0000174"
       orientation="-11,0"
       id="guide3356" />
    <sodipodi:guide
       position="20,20.000017"
       orientation="0,-11"
       id="guide3358" />
    <sodipodi:guide
       position="28,39.000017"
       orientation="11,0"
       id="guide3366" />
    <sodipodi:guide
       position="28,28.000017"
       orientation="0,11"
       id="guide3368" />
    <sodipodi:guide
       position="39,28.000017"
       orientation="-11,0"
       id="guide3370" />
    <sodipodi:guide
       position="39,39.000017"
       orientation="0,-11"
       id="guide3372" />
  </sodipodi:namedview>
  <metadata
     id="metadata7">
    <rdf:RDF>
      <cc:Work
         rdf:about="">
        <dc:format>image/svg+xml</dc:format>
        <dc:type
           rdf:resource="http://purl.org/dc/dcmitype/StillImage" />
        <dc:title />
      </cc:Work>
    </rdf:RDF>
  </metadata>
  <g
     inkscape:label="Capa 1"
     inkscape:groupmode="layer"
     id="layer1"
     transform="translate(0,-1004.3622)">
    <rect
       style="fill:none;stroke:none"
       id="rect3261"
       width="41.828568"
       height="41.828564"
       x="3.8250043"
       y="1007.2015" />
    <rect
       y="1033.6929"
       x="3.8250043"
       height="15.337139"
       width="15.337142"
       id="rect3348"
       style="fill:none;stroke:none" />
    <path
       style="fill:#ffffff;fill-opacity:1;fill-rule:evenodd;stroke:none"
       d="m 13.894292,1024.1722 c -4.0964511,4.0964 -4.0964511,10.6921 0,14.7886 4.096451,4.0964 10.692181,4.0964 14.788631,0 l 6.901363,-6.9014 c 4.09645,-4.0964 4.09645,-10.6921 0,-14.7886 -4.096452,-4.0965 -10.692181,-4.0965 -14.788633,0 l -6.901361,6.9014 z m 3.94171,4.1226 7.082368,-7.0823 c 1.862023,-1.862 4.860257,-1.8601 6.722281,0 1.862024,1.862 1.862022,4.8583 0,6.7204 l -7.082369,7.0822 c -1.862024,1.8621 -4.858331,1.8621 -6.720355,0 -1.862023,-1.8619 -1.863949,-4.8602 -0.002,-6.7222 z"
       id="rect3336"
       inkscape:connector-curvature="0" />
    <path
       sodipodi:type="arc"
       style="fill:none;stroke:none"
       id="path3340"
       sodipodi:cx="-710.19269"
       sodipodi:cy="749.63245"
       sodipodi:rx="2.0013857"
       sodipodi:ry="2.0000615"
       d="m -708.1913,749.63245 a 2.0013857,2.0000615 0 1 1 -4.00277,0 2.0013857,2.0000615 0 1 1 4.00277,0 z"
       transform="matrix(0.9859088,-0.98590866,0.9859088,0.98590866,-8.723566,-405.71462)" />
    <path
       d="m -699.1913,744.13245 a 2.0013857,2.0000615 0 1 1 -4.00277,0 2.0013857,2.0000615 0 1 1 4.00277,0 z"
       sodipodi:ry="2.0000615"
       sodipodi:rx="2.0013857"
       sodipodi:cy="744.13245"
       sodipodi:cx="-701.19269"
       id="path3342"
       style="fill:none;stroke:none"
       sodipodi:type="arc"
       transform="matrix(0.9859088,-0.98590866,0.9859088,0.98590866,-8.723566,-405.71462)" />
    <path
       sodipodi:type="arc"
       style="fill:none;stroke:none"
       id="path3344"
       sodipodi:cx="-719.19269"
       sodipodi:cy="744.13245"
       sodipodi:rx="2.0013857"
       sodipodi:ry="2.0000615"
       d="m -717.1913,744.13245 a 2.0013857,2.0000615 0 1 1 -4.00277,0 2.0013857,2.0000615 0 1 1 4.00277,0 z"
       transform="matrix(0.9859088,-0.98590866,0.9859088,0.98590866,-8.723566,-405.71462)" />
    <rect
       style="fill:#ffffff;fill-opacity:1;fill-rule:evenodd;stroke:none"
       id="rect3346"
       width="5.5771418"
       height="16.113758"
       x="741.69244"
       y="-736.28308"
       ry="0"
       transform="matrix(0.70710683,0.70710673,0.70710683,-0.70710673,0,0)" />
    <rect
       style="fill:none;stroke:none"
       id="rect3362"
       width="15.337142"
       height="15.337139"
       x="30.316431"
       y="1007.2015" />
    <rect
       transform="matrix(0.70710683,0.70710673,0.70710683,-0.70710673,0,0)"
       ry="0"
       y="-698.81952"
       x="741.69244"
       height="16.113758"
       width="5.5771418"
       id="rect3360"
       style="fill:#ffffff;fill-opacity:1;fill-rule:evenodd;stroke:none" />
  </g>
</svg>
