<?xml version="1.0" encoding="UTF-8" standalone="no"?>
<!-- Created with Inkscape (http://www.inkscape.org/) -->

<svg
   xmlns:dc="http://purl.org/dc/elements/1.1/"
   xmlns:cc="http://creativecommons.org/ns#"
   xmlns:rdf="http://www.w3.org/1999/02/22-rdf-syntax-ns#"
   xmlns:svg="http://www.w3.org/2000/svg"
   xmlns="http://www.w3.org/2000/svg"
   xmlns:sodipodi="http://sodipodi.sourceforge.net/DTD/sodipodi-0.dtd"
   xmlns:inkscape="http://www.inkscape.org/namespaces/inkscape"
   width="48"
   height="48"
   id="svg2"
   version="1.1"
   inkscape:version="0.48.4 r9939"
   sodipodi:docname="network-error.svg">
  <defs
     id="defs4" />
  <sodipodi:namedview
     id="base"
     pagecolor="#ffffff"
     bordercolor="#666666"
     borderopacity="1.0"
     inkscape:pageopacity="0.0"
     inkscape:pageshadow="2"
     inkscape:zoom="2.8694188"
     inkscape:cx="16.278403"
     inkscape:cy="29.168296"
     inkscape:document-units="px"
     inkscape:current-layer="layer1"
     showgrid="false"
     inkscape:window-width="1316"
     inkscape:window-height="674"
     inkscape:window-x="44"
     inkscape:window-y="29"
     inkscape:window-maximized="1"
     showguides="false">
    <inkscape:grid
       type="xygrid"
       id="grid3013"
       empspacing="5"
       visible="true"
       enabled="true"
       snapvisiblegridlinesonly="true" />
    <sodipodi:guide
       position="9,39.000017"
       orientation="30,0"
       id="guide3265" />
    <sodipodi:guide
       position="9,9.0000174"
       orientation="0,30"
       id="guide3267" />
    <sodipodi:guide
       position="39,9.0000174"
       orientation="-30,0"
       id="guide3269" />
    <sodipodi:guide
       position="39,39.000017"
       orientation="0,-30"
       id="guide3271" />
    <sodipodi:guide
       position="9,20.000017"
       orientation="11,0"
       id="guide3352" />
    <sodipodi:guide
       position="9,9.0000174"
       orientation="0,11"
       id="guide3354" />
    <sodipodi:guide
       position="20,9.0000174"
       orientation="-11,0"
       id="guide3356" />
    <sodipodi:guide
       position="20,20.000017"
       orientation="0,-11"
       id="guide3358" />
    <sodipodi:guide
       position="28,39.000017"
       orientation="11,0"
       id="guide3366" />
    <sodipodi:guide
       position="28,28.000017"
       orientation="0,11"
       id="guide3368" />
    <sodipodi:guide
       position="39,28.000017"
       orientation="-11,0"
       id="guide3370" />
    <sodipodi:guide
       position="39,39.000017"
       orientation="0,-11"
       id="guide3372" />
  </sodipodi:namedview>
  <metadata
     id="metadata7">
    <rdf:RDF>
      <cc:Work
         rdf:about="">
        <dc:format>image/svg+xml</dc:format>
        <dc:type
           rdf:resource="http://purl.org/dc/dcmitype/StillImage" />
        <dc:title />
      </cc:Work>
    </rdf:RDF>
  </metadata>
  <g
     inkscape:label="Capa 1"
     inkscape:groupmode="layer"
     id="layer1"
     transform="translate(0,-1004.3622)">
    <rect
       style="fill:none;stroke:none"
       id="rect3261"
       width="38.712566"
       height="40.803562"
       x="5.5149746"
       y="1007.7861" />
    <rect
       y="1033.6284"
       x="5.5149746"
       height="14.961306"
       width="14.194608"
       id="rect3348"
       style="fill:none;stroke:none" />
    <path
       style="fill:#e74c3c;fill-opacity:1;fill-rule:evenodd;stroke:none"
       d="m 14.834154,1024.341 c -3.791287,3.9961 -3.791287,10.4301 0,14.4262 3.791287,3.9961 9.895672,3.9961 13.686958,0 l 6.387248,-6.7323 c 3.791287,-3.996 3.791287,-10.43 0,-14.4262 -3.791287,-3.996 -9.895671,-3.996 -13.686959,0 l -6.387247,6.7323 z m 3.648074,4.0215 6.55477,-6.9087 c 1.723312,-1.8164 4.498194,-1.8144 6.221507,0 1.723313,1.8163 1.723312,4.7393 0,6.5557 l -6.55477,6.9087 c -1.723313,1.8164 -4.496412,1.8164 -6.219725,0 -1.723313,-1.8163 -1.725095,-4.7411 -0.0018,-6.5575 z"
       id="rect3336"
       inkscape:connector-curvature="0" />
    <path
       sodipodi:type="arc"
       style="fill:none;stroke:none"
       id="path3340"
       sodipodi:cx="-710.19269"
       sodipodi:cy="749.63245"
       sodipodi:rx="2.0013857"
       sodipodi:ry="2.0000615"
       d="m -708.1913,749.63245 a 2.0013857,2.0000615 0 1 1 -4.00277,0 2.0013857,2.0000615 0 1 1 4.00277,0 z"
       transform="matrix(0.91246391,-0.96174912,0.91246391,0.96174912,-6.0987951,-370.50666)" />
    <path
       d="m -699.1913,744.13245 a 2.0013857,2.0000615 0 1 1 -4.00277,0 2.0013857,2.0000615 0 1 1 4.00277,0 z"
       sodipodi:ry="2.0000615"
       sodipodi:rx="2.0013857"
       sodipodi:cy="744.13245"
       sodipodi:cx="-701.19269"
       id="path3342"
       style="fill:none;stroke:none"
       sodipodi:type="arc"
       transform="matrix(0.91246391,-0.96174912,0.91246391,0.96174912,-6.0987951,-370.50666)" />
    <path
       sodipodi:type="arc"
       style="fill:none;stroke:none"
       id="path3344"
       sodipodi:cx="-719.19269"
       sodipodi:cy="744.13245"
       sodipodi:rx="2.0013857"
       sodipodi:ry="2.0000615"
       d="m -717.1913,744.13245 a 2.0013857,2.0000615 0 1 1 -4.00277,0 2.0013857,2.0000615 0 1 1 4.00277,0 z"
       transform="matrix(0.91246391,-0.96174912,0.91246391,0.96174912,-6.0987951,-370.50666)" />
    <rect
       style="fill:#e74c3c;fill-opacity:1;fill-rule:evenodd;stroke:none"
       id="rect3346"
       width="5.3029075"
       height="15.321425"
       x="724.07129"
       y="-716.05853"
       ry="0"
       transform="matrix(0.68827443,0.72545042,0.68827443,-0.72545042,0,0)" />
    <rect
       style="fill:none;stroke:none"
       id="rect3362"
       width="14.194608"
       height="14.961306"
       x="30.032932"
       y="1007.7861" />
    <rect
       transform="matrix(0.68827443,0.72545042,0.68827443,-0.72545042,0,0)"
       ry="0"
       y="-680.43707"
       x="724.07129"
       height="15.321425"
       width="5.3029075"
       id="rect3360"
       style="fill:#e74c3c;fill-opacity:1;fill-rule:evenodd;stroke:none" />
  </g>
</svg>
