<?xml version="1.0" encoding="UTF-8" standalone="no"?>
<!-- Created with Inkscape (http://www.inkscape.org/) -->

<svg
   xmlns:dc="http://purl.org/dc/elements/1.1/"
   xmlns:cc="http://creativecommons.org/ns#"
   xmlns:rdf="http://www.w3.org/1999/02/22-rdf-syntax-ns#"
   xmlns:svg="http://www.w3.org/2000/svg"
   xmlns="http://www.w3.org/2000/svg"
   xmlns:sodipodi="http://sodipodi.sourceforge.net/DTD/sodipodi-0.dtd"
   xmlns:inkscape="http://www.inkscape.org/namespaces/inkscape"
   id="svg2"
   version="1.1"
   inkscape:version="0.48.4 r9939"
   width="64"
   height="64"
   sodipodi:docname="gnome-mime-application-x-deb.svg">
  <metadata
     id="metadata8">
    <rdf:RDF>
      <cc:Work
         rdf:about="">
        <dc:format>image/svg+xml</dc:format>
        <dc:type
           rdf:resource="http://purl.org/dc/dcmitype/StillImage" />
        <dc:title></dc:title>
      </cc:Work>
    </rdf:RDF>
  </metadata>
  <defs
     id="defs6">
    <clipPath
       id="clipPath-055917835">
      <g
         id="g4144"
         transform="translate(0,-1004.3622)">
        <path
           id="path4146"
           fill="#1890d0"
           transform="matrix(15.333333,0,0,11.5,414.99999,878.8622)"
           d="m -24 13 c 0 1.105 -0.672 2 -1.5 2 -0.828 0 -1.5 -0.895 -1.5 -2 0 -1.105 0.672 -2 1.5 -2 0.828 0 1.5 0.895 1.5 2 z" />
      </g>
    </clipPath>
    <clipPath
       id="clipPath-046900192">
      <g
         id="g4139"
         transform="translate(0,-1004.3622)">
        <path
           id="path4141"
           fill="#1890d0"
           transform="matrix(15.333333,0,0,11.5,414.99999,878.8622)"
           d="m -24 13 c 0 1.105 -0.672 2 -1.5 2 -0.828 0 -1.5 -0.895 -1.5 -2 0 -1.105 0.672 -2 1.5 -2 0.828 0 1.5 0.895 1.5 2 z" />
      </g>
    </clipPath>
    <linearGradient
       gradientTransform="matrix(0,-1,1,0,-1.5e-6,47.999998)"
       gradientUnits="userSpaceOnUse"
       x2="47"
       x1="1"
       id="linearGradient3764">
      <stop
         id="stop4134"
         stop-opacity="1"
         stop-color="#e4e4e4" />
      <stop
         id="stop4136"
         stop-opacity="1"
         stop-color="#eee"
         offset="1" />
    </linearGradient>
    <clipPath
       id="clipPath-183935099">
      <g
         id="g4609"
         transform="translate(0,-1004.3622)">
        <path
           id="path4611"
           fill="#1890d0"
           transform="matrix(15.333333,0,0,11.5,414.99999,878.8622)"
           d="m -24 13 c 0 1.105 -0.672 2 -1.5 2 -0.828 0 -1.5 -0.895 -1.5 -2 0 -1.105 0.672 -2 1.5 -2 0.828 0 1.5 0.895 1.5 2 z" />
      </g>
    </clipPath>
    <clipPath
       id="clipPath-172451806">
      <g
         id="g4604"
         transform="translate(0,-1004.3622)">
        <path
           id="path4606"
           fill="#1890d0"
           transform="matrix(15.333333,0,0,11.5,414.99999,878.8622)"
           d="m -24 13 c 0 1.105 -0.672 2 -1.5 2 -0.828 0 -1.5 -0.895 -1.5 -2 0 -1.105 0.672 -2 1.5 -2 0.828 0 1.5 0.895 1.5 2 z" />
      </g>
    </clipPath>
    <linearGradient
       gradientTransform="matrix(0,-1,1,0,-1.5e-6,47.999998)"
       gradientUnits="userSpaceOnUse"
       x2="47"
       x1="1"
       id="linearGradient3764-9">
      <stop
         id="stop4599"
         stop-opacity="1"
         stop-color="#97b2d3" />
      <stop
         id="stop4601"
         stop-opacity="1"
         stop-color="#a5bcd9"
         offset="1" />
    </linearGradient>
    <clipPath
       id="clipPath-239231159">
      <g
         id="g5340"
         transform="translate(0,-1004.3622)">
        <path
           id="path5342"
           fill="#1890d0"
           transform="matrix(15.333333,0,0,11.5,414.99999,878.8622)"
           d="m -24 13 c 0 1.105 -0.672 2 -1.5 2 -0.828 0 -1.5 -0.895 -1.5 -2 0 -1.105 0.672 -2 1.5 -2 0.828 0 1.5 0.895 1.5 2 z" />
      </g>
    </clipPath>
    <clipPath
       id="clipPath-233610327">
      <g
         id="g5335"
         transform="translate(0,-1004.3622)">
        <path
           id="path5337"
           fill="#1890d0"
           transform="matrix(15.333333,0,0,11.5,414.99999,878.8622)"
           d="m -24 13 c 0 1.105 -0.672 2 -1.5 2 -0.828 0 -1.5 -0.895 -1.5 -2 0 -1.105 0.672 -2 1.5 -2 0.828 0 1.5 0.895 1.5 2 z" />
      </g>
    </clipPath>
    <linearGradient
       gradientTransform="matrix(0,-1,1,0,-1.5e-6,47.999998)"
       gradientUnits="userSpaceOnUse"
       x2="47"
       x1="1"
       id="linearGradient3764-1">
      <stop
         id="stop5330"
         stop-opacity="1"
         stop-color="#b93b3b" />
      <stop
         id="stop5332"
         stop-opacity="1"
         stop-color="#c34545"
         offset="1" />
    </linearGradient>
    <clipPath
       id="clipPath-483879499">
      <g
         id="g7096"
         transform="translate(0,-1004.3622)">
        <path
           id="path7098"
           fill="#1890d0"
           transform="matrix(15.333333,0,0,11.5,414.99999,878.8622)"
           d="m -24 13 c 0 1.105 -0.672 2 -1.5 2 -0.828 0 -1.5 -0.895 -1.5 -2 0 -1.105 0.672 -2 1.5 -2 0.828 0 1.5 0.895 1.5 2 z" />
      </g>
    </clipPath>
    <clipPath
       id="clipPath-478329641">
      <g
         id="g7091"
         transform="translate(0,-1004.3622)">
        <path
           id="path7093"
           fill="#1890d0"
           transform="matrix(15.333333,0,0,11.5,414.99999,878.8622)"
           d="m -24 13 c 0 1.105 -0.672 2 -1.5 2 -0.828 0 -1.5 -0.895 -1.5 -2 0 -1.105 0.672 -2 1.5 -2 0.828 0 1.5 0.895 1.5 2 z" />
      </g>
    </clipPath>
    <linearGradient
       gradientTransform="matrix(0,-1,1,0,-1.5e-6,47.999998)"
       gradientUnits="userSpaceOnUse"
       x2="47"
       x1="1"
       id="linearGradient3764-5">
      <stop
         id="stop7086"
         stop-opacity="1"
         stop-color="#333" />
      <stop
         id="stop7088"
         stop-opacity="1"
         stop-color="#3d3d3d"
         offset="1" />
    </linearGradient>
    <clipPath
       id="clipPath-139920786">
      <g
         id="g7899"
         transform="translate(0,-1004.3622)">
        <path
           id="path7901"
           fill="#1890d0"
           transform="matrix(15.333333,0,0,11.5,414.99999,878.8622)"
           d="m -24 13 c 0 1.105 -0.672 2 -1.5 2 -0.828 0 -1.5 -0.895 -1.5 -2 0 -1.105 0.672 -2 1.5 -2 0.828 0 1.5 0.895 1.5 2 z" />
      </g>
    </clipPath>
    <clipPath
       id="clipPath-128127935">
      <g
         id="g7894"
         transform="translate(0,-1004.3622)">
        <path
           id="path7896"
           fill="#1890d0"
           transform="matrix(15.333333,0,0,11.5,414.99999,878.8622)"
           d="m -24 13 c 0 1.105 -0.672 2 -1.5 2 -0.828 0 -1.5 -0.895 -1.5 -2 0 -1.105 0.672 -2 1.5 -2 0.828 0 1.5 0.895 1.5 2 z" />
      </g>
    </clipPath>
    <linearGradient
       gradientTransform="matrix(0,-1,1,0,-1.5e-6,47.999998)"
       gradientUnits="userSpaceOnUse"
       x2="47"
       x1="1"
       id="linearGradient3764-8">
      <stop
         id="stop7889"
         stop-opacity="1"
         stop-color="#e33562" />
      <stop
         id="stop7891"
         stop-opacity="1"
         stop-color="#e64772"
         offset="1" />
    </linearGradient>
    <clipPath
       id="clipPath-291383647">
      <g
         id="g8425"
         transform="translate(0,-1004.3622)">
        <path
           id="path8427"
           fill="#1890d0"
           transform="matrix(15.333333,0,0,11.5,414.99999,878.8622)"
           d="m -24 13 c 0 1.105 -0.672 2 -1.5 2 -0.828 0 -1.5 -0.895 -1.5 -2 0 -1.105 0.672 -2 1.5 -2 0.828 0 1.5 0.895 1.5 2 z" />
      </g>
    </clipPath>
    <clipPath
       id="clipPath-285700110">
      <g
         id="g8420"
         transform="translate(0,-1004.3622)">
        <path
           id="path8422"
           fill="#1890d0"
           transform="matrix(15.333333,0,0,11.5,414.99999,878.8622)"
           d="m -24 13 c 0 1.105 -0.672 2 -1.5 2 -0.828 0 -1.5 -0.895 -1.5 -2 0 -1.105 0.672 -2 1.5 -2 0.828 0 1.5 0.895 1.5 2 z" />
      </g>
    </clipPath>
    <linearGradient
       gradientTransform="matrix(0,-1,1,0,-1.5e-6,47.999998)"
       gradientUnits="userSpaceOnUse"
       x2="47"
       x1="1"
       id="linearGradient3764-13">
      <stop
         id="stop8415"
         stop-opacity="1"
         stop-color="#b93b3b" />
      <stop
         id="stop8417"
         stop-opacity="1"
         stop-color="#c34545"
         offset="1" />
    </linearGradient>
    <clipPath
       id="clipPath-898578971">
      <g
         id="g9278"
         transform="translate(0,-1004.3622)">
        <path
           id="path9280"
           fill="#1890d0"
           transform="matrix(15.333333,0,0,11.5,414.99999,878.8622)"
           d="m -24 13 c 0 1.105 -0.672 2 -1.5 2 -0.828 0 -1.5 -0.895 -1.5 -2 0 -1.105 0.672 -2 1.5 -2 0.828 0 1.5 0.895 1.5 2 z" />
      </g>
    </clipPath>
    <clipPath
       id="clipPath-887079119">
      <g
         id="g9273"
         transform="translate(0,-1004.3622)">
        <path
           id="path9275"
           fill="#1890d0"
           transform="matrix(15.333333,0,0,11.5,414.99999,878.8622)"
           d="m -24 13 c 0 1.105 -0.672 2 -1.5 2 -0.828 0 -1.5 -0.895 -1.5 -2 0 -1.105 0.672 -2 1.5 -2 0.828 0 1.5 0.895 1.5 2 z" />
      </g>
    </clipPath>
    <linearGradient
       gradientTransform="matrix(0,-1,1,0,-1.5e-6,47.999998)"
       gradientUnits="userSpaceOnUse"
       x2="47"
       x1="1"
       id="linearGradient3764-7">
      <stop
         id="stop9268"
         stop-opacity="1"
         stop-color="#b93b3b" />
      <stop
         id="stop9270"
         stop-opacity="1"
         stop-color="#c34545"
         offset="1" />
    </linearGradient>
    <clipPath
       id="clipPath-262930867">
      <g
         id="g10787"
         transform="translate(0,-1004.3622)">
        <path
           id="path10789"
           fill="#1890d0"
           transform="matrix(15.333333,0,0,11.5,414.99999,878.8622)"
           d="m -24 13 c 0 1.105 -0.672 2 -1.5 2 -0.828 0 -1.5 -0.895 -1.5 -2 0 -1.105 0.672 -2 1.5 -2 0.828 0 1.5 0.895 1.5 2 z" />
      </g>
    </clipPath>
    <clipPath
       id="clipPath-253146245">
      <g
         id="g10782"
         transform="translate(0,-1004.3622)">
        <path
           id="path10784"
           fill="#1890d0"
           transform="matrix(15.333333,0,0,11.5,414.99999,878.8622)"
           d="m -24 13 c 0 1.105 -0.672 2 -1.5 2 -0.828 0 -1.5 -0.895 -1.5 -2 0 -1.105 0.672 -2 1.5 -2 0.828 0 1.5 0.895 1.5 2 z" />
      </g>
    </clipPath>
    <linearGradient
       gradientTransform="matrix(0,-1,1,0,-1.5e-6,47.999998)"
       gradientUnits="userSpaceOnUse"
       x2="47"
       x1="1"
       id="linearGradient3764-72">
      <stop
         id="stop10777"
         stop-opacity="1"
         stop-color="#333" />
      <stop
         id="stop10779"
         stop-opacity="1"
         stop-color="#3d3d3d"
         offset="1" />
    </linearGradient>
    <clipPath
       id="clipPath-054702263">
      <g
         id="g14438"
         transform="translate(0,-1004.3622)">
        <path
           id="path14440"
           fill="#1890d0"
           transform="matrix(15.333333,0,0,11.5,414.99999,878.8622)"
           d="m -24 13 c 0 1.105 -0.672 2 -1.5 2 -0.828 0 -1.5 -0.895 -1.5 -2 0 -1.105 0.672 -2 1.5 -2 0.828 0 1.5 0.895 1.5 2 z" />
      </g>
    </clipPath>
    <clipPath
       id="clipPath-042046698">
      <g
         id="g14433"
         transform="translate(0,-1004.3622)">
        <path
           id="path14435"
           fill="#1890d0"
           transform="matrix(15.333333,0,0,11.5,414.99999,878.8622)"
           d="m -24 13 c 0 1.105 -0.672 2 -1.5 2 -0.828 0 -1.5 -0.895 -1.5 -2 0 -1.105 0.672 -2 1.5 -2 0.828 0 1.5 0.895 1.5 2 z" />
      </g>
    </clipPath>
    <linearGradient
       gradientTransform="matrix(0,-1,1,0,-1.5e-6,47.999998)"
       gradientUnits="userSpaceOnUse"
       x2="47"
       x1="1"
       id="linearGradient3764-2">
      <stop
         id="stop14428"
         stop-opacity="1"
         stop-color="#ec9b28" />
      <stop
         id="stop14430"
         stop-opacity="1"
         stop-color="#eea53a"
         offset="1" />
    </linearGradient>
    <clipPath
       id="clipPath-448465917">
      <g
         id="g16334"
         transform="translate(0,-1004.3622)">
        <path
           id="path16336"
           fill="#1890d0"
           transform="matrix(15.333333,0,0,11.5,414.99999,878.8622)"
           d="m -24 13 c 0 1.105 -0.672 2 -1.5 2 -0.828 0 -1.5 -0.895 -1.5 -2 0 -1.105 0.672 -2 1.5 -2 0.828 0 1.5 0.895 1.5 2 z" />
      </g>
    </clipPath>
    <clipPath
       id="clipPath-441467043">
      <g
         id="g16329"
         transform="translate(0,-1004.3622)">
        <path
           id="path16331"
           fill="#1890d0"
           transform="matrix(15.333333,0,0,11.5,414.99999,878.8622)"
           d="m -24 13 c 0 1.105 -0.672 2 -1.5 2 -0.828 0 -1.5 -0.895 -1.5 -2 0 -1.105 0.672 -2 1.5 -2 0.828 0 1.5 0.895 1.5 2 z" />
      </g>
    </clipPath>
    <linearGradient
       gradientTransform="matrix(0,-1,1,0,-1.5e-6,47.999998)"
       gradientUnits="userSpaceOnUse"
       x2="47"
       x1="1"
       id="linearGradient3764-27">
      <stop
         id="stop16324"
         stop-opacity="1"
         stop-color="#527fb2" />
      <stop
         id="stop16326"
         stop-opacity="1"
         stop-color="#5f88b8"
         offset="1" />
    </linearGradient>
    <clipPath
       id="clipPath-895829878">
      <g
         id="g20152"
         transform="translate(0,-1004.3622)">
        <path
           id="path20154"
           fill="#1890d0"
           transform="matrix(15.333333,0,0,11.5,414.99999,878.8622)"
           d="m -24 13 c 0 1.105 -0.672 2 -1.5 2 -0.828 0 -1.5 -0.895 -1.5 -2 0 -1.105 0.672 -2 1.5 -2 0.828 0 1.5 0.895 1.5 2 z" />
      </g>
    </clipPath>
    <clipPath
       id="clipPath-886701251">
      <g
         id="g20147"
         transform="translate(0,-1004.3622)">
        <path
           id="path20149"
           fill="#1890d0"
           transform="matrix(15.333333,0,0,11.5,414.99999,878.8622)"
           d="m -24 13 c 0 1.105 -0.672 2 -1.5 2 -0.828 0 -1.5 -0.895 -1.5 -2 0 -1.105 0.672 -2 1.5 -2 0.828 0 1.5 0.895 1.5 2 z" />
      </g>
    </clipPath>
    <linearGradient
       gradientTransform="matrix(0,-1,1,0,-1.5e-6,47.999998)"
       gradientUnits="userSpaceOnUse"
       x2="47"
       x1="1"
       id="linearGradient3764-4">
      <stop
         id="stop20142"
         stop-opacity="1"
         stop-color="#008bb8" />
      <stop
         id="stop20144"
         stop-opacity="1"
         stop-color="#009acd"
         offset="1" />
    </linearGradient>
    <clipPath
       id="clipPath-626667287">
      <g
         id="g24492"
         transform="translate(0,-1004.3622)">
        <path
           id="path24494"
           fill="#1890d0"
           transform="matrix(15.333333,0,0,11.5,414.99999,878.8622)"
           d="m -24 13 c 0 1.105 -0.672 2 -1.5 2 -0.828 0 -1.5 -0.895 -1.5 -2 0 -1.105 0.672 -2 1.5 -2 0.828 0 1.5 0.895 1.5 2 z" />
      </g>
    </clipPath>
    <clipPath
       id="clipPath-617306126">
      <g
         id="g24487"
         transform="translate(0,-1004.3622)">
        <path
           id="path24489"
           fill="#1890d0"
           transform="matrix(15.333333,0,0,11.5,414.99999,878.8622)"
           d="m -24 13 c 0 1.105 -0.672 2 -1.5 2 -0.828 0 -1.5 -0.895 -1.5 -2 0 -1.105 0.672 -2 1.5 -2 0.828 0 1.5 0.895 1.5 2 z" />
      </g>
    </clipPath>
    <linearGradient
       gradientTransform="matrix(0,-1,1,0,-1.5e-6,47.999998)"
       gradientUnits="userSpaceOnUse"
       x2="47"
       x1="1"
       id="linearGradient3764-80">
      <stop
         id="stop24482"
         stop-opacity="1"
         stop-color="#1791d1" />
      <stop
         id="stop24484"
         stop-opacity="1"
         stop-color="#19a0e3"
         offset="1" />
    </linearGradient>
  </defs>
  <sodipodi:namedview
     pagecolor="#ffffff"
     bordercolor="#666666"
     borderopacity="1"
     objecttolerance="10"
     gridtolerance="10"
     guidetolerance="10"
     inkscape:pageopacity="0"
     inkscape:pageshadow="2"
     inkscape:window-width="1316"
     inkscape:window-height="674"
     id="namedview4"
     showgrid="false"
     inkscape:zoom="3.6875"
     inkscape:cx="-19.932204"
     inkscape:cy="32"
     inkscape:window-x="44"
     inkscape:window-y="29"
     inkscape:window-maximized="1"
     inkscape:current-layer="svg2" />
  <rect
     style="fill:#000000;fill-opacity:1;stroke:#000000;stroke-width:0.53665989999999997;stroke-linecap:round;stroke-linejoin:round;stroke-miterlimit:4;stroke-opacity:1;stroke-dasharray:none"
     id="rect3005"
     width="59.081985"
     height="59.624359"
     x="2.4590092"
     y="2.1878221"
     ry="5.9392786"
     rx="5.9392786" />
  <g
     id="g4160"
     transform="translate(-138.39731,-16.90678)" />
  <g
     id="g4625"
     transform="translate(-87.414255,-10.940679)" />
  <g
     id="g5356"
     transform="translate(-107.21086,-6.8728814)" />
  <g
     id="g7112"
     transform="translate(-106.80409,-6.6016949)" />
  <g
     id="g7915"
     transform="translate(-147.21087,-13.381356)" />
  <g
     id="g8441"
     transform="translate(-104.36341,-3.0762712)" />
  <g
     id="g9294"
     transform="translate(-132.83798,-14.737288)" />
  <g
     id="g10803"
     transform="translate(-81.854938,-12.838983)" />
  <g
     id="g14454"
     transform="translate(-119.82103,-4.1610169)" />
  <g
     id="g20168"
     transform="translate(-123.07527,-6.8728814)" />
  <g
     id="g24508"
     transform="translate(-44.431204,7.5)" />
  <g
     id="g24522"
     transform="matrix(1.4632769,0,0,1.6776837,-2.5328989,-6.5988712)">
    <g
       clip-path="url(#clipPath-626667287)"
       id="g24524">
      <!-- color: #19a0e3 -->
      <g
         id="g24526">
        <path
           style="fill:#f9f9f9;fill-opacity:1;fill-rule:evenodd;stroke:none"
           inkscape:connector-curvature="0"
           d="m 24,10 c -1.07,2.617 -1.715,4.332 -2.902,6.875 0.727,0.77 1.621,1.672 3.078,2.688 C 22.61,18.922 21.547,18.274 20.75,17.606 19.227,20.782 16.84,25.305 12,34.001 15.805,31.806 18.754,30.45 21.504,29.935 21.383,29.427 21.316,28.88 21.32,28.306 l 0.004,-0.121 c 0.063,-2.438 1.328,-4.313 2.832,-4.184 1.5,0.125 2.668,2.207 2.609,4.645 -0.012,0.457 -0.063,0.898 -0.156,1.309 2.719,0.531 5.637,1.887 9.391,4.055 -0.738,-1.363 -1.402,-2.598 -2.031,-3.766 -0.992,-0.77 -2.031,-1.77 -4.145,-2.852 1.453,0.379 2.492,0.813 3.305,1.301 C 26.715,16.752 26.195,15.17 23.996,10.009 m 0.004,0"
           id="path24528" />
      </g>
    </g>
  </g>
</svg>
