<?xml version="1.0" encoding="UTF-8" standalone="no"?>
<!-- Created with Inkscape (http://www.inkscape.org/) -->

<svg
   xmlns:dc="http://purl.org/dc/elements/1.1/"
   xmlns:cc="http://creativecommons.org/ns#"
   xmlns:rdf="http://www.w3.org/1999/02/22-rdf-syntax-ns#"
   xmlns:svg="http://www.w3.org/2000/svg"
   xmlns="http://www.w3.org/2000/svg"
   xmlns:sodipodi="http://sodipodi.sourceforge.net/DTD/sodipodi-0.dtd"
   xmlns:inkscape="http://www.inkscape.org/namespaces/inkscape"
   id="svg2"
   version="1.1"
   inkscape:version="0.48.4 r9939"
   width="64"
   height="64"
   sodipodi:docname="accessories-character-map.svg">
  <metadata
     id="metadata8">
    <rdf:RDF>
      <cc:Work
         rdf:about="">
        <dc:format>image/svg+xml</dc:format>
        <dc:type
           rdf:resource="http://purl.org/dc/dcmitype/StillImage" />
        <dc:title></dc:title>
      </cc:Work>
    </rdf:RDF>
  </metadata>
  <defs
     id="defs6">
    <clipPath
       id="clipPath-366353717">
      <g
         id="g10276"
         transform="translate(0,-1004.3622)">
        <path
           id="path10278"
           fill="#1890d0"
           transform="matrix(15.333333,0,0,11.5,414.99999,878.8622)"
           d="m -24 13 c 0 1.105 -0.672 2 -1.5 2 -0.828 0 -1.5 -0.895 -1.5 -2 0 -1.105 0.672 -2 1.5 -2 0.828 0 1.5 0.895 1.5 2 z" />
      </g>
    </clipPath>
    <clipPath
       id="clipPath-360660436">
      <g
         id="g10271"
         transform="translate(0,-1004.3622)">
        <path
           id="path10273"
           fill="#1890d0"
           transform="matrix(15.333333,0,0,11.5,414.99999,878.8622)"
           d="m -24 13 c 0 1.105 -0.672 2 -1.5 2 -0.828 0 -1.5 -0.895 -1.5 -2 0 -1.105 0.672 -2 1.5 -2 0.828 0 1.5 0.895 1.5 2 z" />
      </g>
    </clipPath>
    <linearGradient
       gradientTransform="matrix(0,-1,1,0,-1.5e-6,47.999998)"
       gradientUnits="userSpaceOnUse"
       x2="47"
       x1="1"
       id="linearGradient3764">
      <stop
         id="stop10266"
         stop-opacity="1"
         stop-color="#d62e2e" />
      <stop
         id="stop10268"
         stop-opacity="1"
         stop-color="#d93f3f"
         offset="1" />
    </linearGradient>
  </defs>
  <sodipodi:namedview
     pagecolor="#ffffff"
     bordercolor="#666666"
     borderopacity="1"
     objecttolerance="10"
     gridtolerance="10"
     guidetolerance="10"
     inkscape:pageopacity="0"
     inkscape:pageshadow="2"
     inkscape:window-width="1316"
     inkscape:window-height="669"
     id="namedview4"
     showgrid="false"
     inkscape:zoom="3.6875"
     inkscape:cx="-15.186441"
     inkscape:cy="32"
     inkscape:window-x="44"
     inkscape:window-y="29"
     inkscape:window-maximized="1"
     inkscape:current-layer="svg2" />
  <rect
     style="fill:#000000;fill-opacity:1;stroke:#000000;stroke-width:0.53665989999999997;stroke-linecap:round;stroke-linejoin:round;stroke-miterlimit:4;stroke-opacity:1;stroke-dasharray:none"
     id="rect3005"
     width="59.081985"
     height="59.624359"
     x="2.4590092"
     y="2.1878221"
     ry="5.9392786"
     rx="5.9392786" />
  <g
     id="g10292"
     transform="translate(-113.44815,-0.90677966)" />
  <path
     id="path10318"
     d="m 11.36541,40.558986 c 0,0 0,9.458031 10.949152,9.458031 l 21.898306,0 c 10.949153,0 10.949153,-9.458031 10.949153,-9.458031 l 0,-18.922992 c 0,-9.458029 -10.949153,-9.458029 -10.949153,-9.458029 l -21.898306,0 c -10.949152,0 -10.949152,9.458028 -10.949152,9.458028 m 0,18.922993"
     inkscape:connector-curvature="0"
     style="fill:#f9f9f9;fill-opacity:1;fill-rule:nonzero;stroke:none" />
  <path
     id="path10320"
     d="m 44.212868,53.805083 c 10.949153,0 10.949153,-13.246097 10.949153,-13.246097 0,0 0,9.458031 -10.949153,9.458031 l -21.898306,0 c -10.949152,0 -10.949152,-9.458031 -10.949152,-9.458031 0,0 0,13.246097 10.949152,13.246097 m 21.898306,0"
     inkscape:connector-curvature="0"
     style="fill:#dcdcdc;fill-opacity:1;fill-rule:nonzero;stroke:none" />
  <rect
     style="fill:#ececec;fill-opacity:1;stroke:none"
     id="rect10420"
     width="33.869377"
     height="28.861469"
     x="16.850716"
     y="16.652882"
     ry="4.985702"
     rx="4.985702" />
  <text
     xml:space="preserve"
     style="font-size:31.03783226px;font-style:normal;font-variant:normal;font-weight:bold;font-stretch:normal;line-height:125%;letter-spacing:0px;word-spacing:0px;fill:#000000;fill-opacity:1;stroke:none;font-family:Sans;-inkscape-font-specification:Sans Bold"
     x="18.453131"
     y="50.998913"
     id="text10410"
     sodipodi:linespacing="125%"
     transform="scale(1.1931833,0.83809417)"><tspan
       sodipodi:role="line"
       id="tspan10412"
       x="18.453131"
       y="50.998913">รก</tspan></text>
</svg>
