<?xml version="1.0" encoding="UTF-8" standalone="no"?>
<!-- Created with Inkscape (http://www.inkscape.org/) -->

<svg
   xmlns:dc="http://purl.org/dc/elements/1.1/"
   xmlns:cc="http://creativecommons.org/ns#"
   xmlns:rdf="http://www.w3.org/1999/02/22-rdf-syntax-ns#"
   xmlns:svg="http://www.w3.org/2000/svg"
   xmlns="http://www.w3.org/2000/svg"
   xmlns:sodipodi="http://sodipodi.sourceforge.net/DTD/sodipodi-0.dtd"
   xmlns:inkscape="http://www.inkscape.org/namespaces/inkscape"
   id="svg2"
   version="1.1"
   inkscape:version="0.48.4 r9939"
   width="64"
   height="64"
   sodipodi:docname="geary.svg">
  <metadata
     id="metadata8">
    <rdf:RDF>
      <cc:Work
         rdf:about="">
        <dc:format>image/svg+xml</dc:format>
        <dc:type
           rdf:resource="http://purl.org/dc/dcmitype/StillImage" />
        <dc:title></dc:title>
      </cc:Work>
    </rdf:RDF>
  </metadata>
  <defs
     id="defs6" />
  <sodipodi:namedview
     pagecolor="#ffffff"
     bordercolor="#666666"
     borderopacity="1"
     objecttolerance="10"
     gridtolerance="10"
     guidetolerance="10"
     inkscape:pageopacity="0"
     inkscape:pageshadow="2"
     inkscape:window-width="1317"
     inkscape:window-height="715"
     id="namedview4"
     showgrid="false"
     inkscape:zoom="3.6875"
     inkscape:cx="-14.644068"
     inkscape:cy="32"
     inkscape:window-x="43"
     inkscape:window-y="24"
     inkscape:window-maximized="1"
     inkscape:current-layer="svg2" />
  <rect
     style="fill:#000000;fill-opacity:1;stroke:#000000;stroke-width:0.53665989999999997;stroke-linecap:round;stroke-linejoin:round;stroke-miterlimit:4;stroke-opacity:1;stroke-dasharray:none"
     id="rect3005"
     width="59.081985"
     height="59.624359"
     x="2.4590092"
     y="2.1878221"
     ry="5.9392786"
     rx="5.9392786" />
  <g
     id="g8369"
     transform="matrix(1.4322034,0,0,1.3451464,80,6.4206472)"
     style="fill:#ffffff">
    <g
       id="icomoon-ignore"
       style="fill:#ffffff" />
    <path
       id="path8361"
       d="M 22,6 H 10 L 0,18 v 8 c 0,1.105 0.895,2 2,2 h 28 c 1.105,0 2,-0.895 2,-2 V 18 L 22,6 z m 2,12 -4,4 H 12 L 8,18 H 2.603 L 10.936,8 h 10.127 l 8.333,10 h -5.397 z"
       inkscape:connector-curvature="0"
       style="fill:#ffffff" />
  </g>
  <g
     id="g3056"
     transform="matrix(1.4576271,0,0,1.0968523,8.4067798,13.365616)"
     style="fill:#ffffff">
    <g
       id="icomoon-ignore-4"
       style="fill:#ffffff" />
    <path
       id="path3048"
       d="M 31.924,18.455 27.922,3.449 C 27.68,2.596 26.889,2 26,2 H 6 C 5.11,2 4.32,2.596 4.078,3.449 L 0.076,18.455 C 0.025,18.637 0,18.82 0,19 v 7 c 0,2.209 1.791,4 4,4 h 24 c 2.209,0 4,-1.791 4,-4 v -7 c 0,-0.18 -0.025,-0.363 -0.076,-0.545 z M 30,26 c 0,1.102 -0.898,2 -2,2 H 4 C 2.897,28 2,27.102 2,26 V 19 L 6.001,3.999 H 25.998 L 30,19 v 7 z M 23.742,6 H 8.258 C 7.805,6 7.408,6.305 7.291,6.743 l -3.445,12 C 3.767,19.044 3.83,19.364 4.02,19.61 4.21,19.856 4.502,20 4.812,20 H 9.38 l 1.447,2.895 c 0.34,0.677 1.032,1.105 1.79,1.105 h 6.766 c 0.758,0 1.449,-0.428 1.789,-1.105 L 22.619,20 h 4.568 c 0.311,0 0.604,-0.145 0.793,-0.391 0.189,-0.246 0.252,-0.566 0.174,-0.867 l -3.445,-12 C 24.592,6.304 24.195,6 23.742,6 z m 0.539,12 h -1.662 c -0.762,0 -1.447,0.422 -1.789,1.105 L 19.383,22 H 12.617 L 11.17,19.105 C 10.828,18.422 10.143,18 9.381,18 H 5.334 L 8.258,7 h 15.484 l 2.924,11 h -2.385 z"
       inkscape:connector-curvature="0"
       style="fill:#ffffff" />
  </g>
  <g
     id="g3112"
     transform="translate(-30.644068,16)">
    <g
       id="icomoon-ignore-0" />
    <path
       id="path3104"
       d="M 58.779661,8.1951611 V 6.940678 c 0,-0.6868305 -0.536119,-1.2457627 -1.194915,-1.2457627 -0.658797,0 -1.194916,0.5589322 -1.194916,1.2457627 v 1.2544831 c -0.481152,0.3799577 -0.79661,0.9750169 -0.79661,1.6522969 0,0.67728 0.315458,1.272339 0.79661,1.651465 v 6.238366 c 0,0.68683 0.536119,1.245762 1.194916,1.245762 0.658796,0 1.194915,-0.558932 1.194915,-1.245762 v -6.238366 c 0.481153,-0.378711 0.79661,-0.974185 0.79661,-1.651465 0,-0.67728 -0.315457,-1.2723392 -0.79661,-1.6522969 z M 57.186441,6.940678 c 0,-0.2296355 0.178042,-0.4152541 0.398305,-0.4152541 0.220262,0 0.398305,0.1856186 0.398305,0.4152541 v 0.8720339 c -0.128653,-0.026992 -0.261687,-0.041525 -0.398305,-0.041525 -0.136619,0 -0.269653,0.014534 -0.398305,0.041525 V 6.940678 z m 0.79661,10.796611 c 0,0.229634 -0.178043,0.415253 -0.398305,0.415253 -0.220263,0 -0.398305,-0.185619 -0.398305,-0.415253 v -5.855916 c 0.128652,0.02782 0.261686,0.04236 0.398305,0.04236 0.136618,0 0.269652,-0.01453 0.398305,-0.04236 v 5.855916 z m 0.742839,-7.541017 c -0.0064,0.02201 -0.01195,0.0436 -0.01952,0.06561 -0.03784,0.109627 -0.08643,0.21344 -0.150559,0.305627 -0.0016,0.0024 -0.004,0.0042 -0.0056,0.0067 -0.0693,0.09883 -0.151754,0.186449 -0.245356,0.260363 -0.0016,0.0017 -0.0028,0.0025 -0.004,0.0033 -0.09599,0.07558 -0.203135,0.136204 -0.318246,0.17856 -0.124669,0.04692 -0.257305,0.07682 -0.397906,0.07682 -0.140602,0 -0.273238,-0.0299 -0.398305,-0.07724 -0.115111,-0.04236 -0.222255,-0.102984 -0.318246,-0.178559 -0.0012,-8.17e-4 -0.0024,-0.0017 -0.004,-0.0033 -0.0936,-0.07391 -0.176051,-0.161535 -0.245356,-0.260365 -0.0016,-0.0025 -0.004,-0.0042 -0.0056,-0.0067 -0.06413,-0.0926 -0.112721,-0.196415 -0.15056,-0.305626 -0.0076,-0.02201 -0.01314,-0.0436 -0.01952,-0.06561 -0.03147,-0.110874 -0.05337,-0.2267293 -0.05337,-0.3483987 0,-0.1225 0.02191,-0.2383565 0.05377,-0.3496444 0.0064,-0.022009 0.01195,-0.043602 0.01952,-0.064778 0.03744,-0.1096272 0.08603,-0.2134411 0.150559,-0.306458 0.0016,-0.00249 0.004,-0.00415 0.0056,-0.00664 0.0693,-0.098 0.151754,-0.1864492 0.245356,-0.2603644 0.0016,-8.33e-4 0.0028,-0.00249 0.004,-0.00332 0.09559,-0.074331 0.202737,-0.1353729 0.317848,-0.178144 0.125067,-0.046509 0.257703,-0.076407 0.398305,-0.076407 0.140601,0 0.273237,0.029898 0.398305,0.076407 0.11511,0.043187 0.222254,0.1038135 0.318246,0.1785593 0.0012,8.33e-4 0.0024,0.00249 0.004,0.00332 0.0936,0.073915 0.17605,0.1623645 0.245356,0.2603645 0.0016,0.00249 0.004,0.00415 0.0056,0.00664 0.06413,0.092601 0.11272,0.1964154 0.150161,0.3060426 0.0076,0.021176 0.01354,0.042769 0.01952,0.064778 0.03186,0.1112879 0.05377,0.2271444 0.05377,0.3496444 0,0.1216694 -0.02191,0.2375247 -0.05377,0.3488127 z M 67.542373,8.1951611 V 6.940678 c 0,-0.6868305 -0.536119,-1.2457627 -1.194915,-1.2457627 -0.658797,0 -1.194916,0.5589322 -1.194916,1.2457627 v 1.2544831 c -0.481551,0.3799577 -0.79661,0.9750169 -0.79661,1.6522969 0,0.67728 0.315059,1.272339 0.79661,1.651465 v 6.238366 c 0,0.68683 0.536119,1.245762 1.194916,1.245762 0.658796,0 1.194915,-0.558932 1.194915,-1.245762 v -6.238366 c 0.480754,-0.378711 0.79661,-0.974185 0.79661,-1.651465 0,-0.67728 -0.315856,-1.2723392 -0.79661,-1.6522969 z M 65.949152,6.940678 c 0,-0.2296355 0.178043,-0.4152541 0.398306,-0.4152541 0.220262,0 0.398305,0.1856186 0.398305,0.4152541 v 0.8720339 c -0.129051,-0.026992 -0.262085,-0.041525 -0.398305,-0.041525 -0.137017,0 -0.270051,0.014534 -0.398306,0.041525 V 6.940678 z m 0.796611,10.796611 c 0,0.229634 -0.178043,0.415253 -0.398305,0.415253 -0.220263,0 -0.398306,-0.185619 -0.398306,-0.415253 v -5.855916 c 0.128255,0.02782 0.261289,0.04236 0.398306,0.04236 0.13622,0 0.269254,-0.01453 0.398305,-0.04236 v 5.855916 z m 0.742839,-7.541017 c -0.0064,0.02201 -0.01235,0.0436 -0.01952,0.06561 -0.03824,0.109627 -0.08643,0.21344 -0.150958,0.305627 -0.0016,0.0024 -0.004,0.0042 -0.0056,0.0067 -0.0693,0.09883 -0.151754,0.186449 -0.244958,0.260363 -0.0016,0.0017 -0.0032,0.0025 -0.004,0.0033 -0.09639,0.07558 -0.203135,0.136204 -0.318246,0.17856 -0.124669,0.04692 -0.257703,0.07682 -0.397906,0.07682 -0.141,0 -0.273238,-0.0299 -0.398306,-0.07724 -0.11511,-0.04236 -0.222652,-0.102984 -0.318245,-0.178559 -0.0016,-8.17e-4 -0.0024,-0.0017 -0.004,-0.0033 -0.094,-0.07391 -0.176449,-0.161535 -0.245755,-0.260365 -0.0016,-0.0025 -0.004,-0.0042 -0.0056,-0.0067 -0.06373,-0.0926 -0.11272,-0.196415 -0.150161,-0.305626 -0.008,-0.02201 -0.01314,-0.0436 -0.01952,-0.06561 -0.03147,-0.110874 -0.05337,-0.2267293 -0.05337,-0.3483987 0,-0.1225 0.02191,-0.2383565 0.05377,-0.3496444 0.0064,-0.022009 0.01155,-0.043602 0.01952,-0.064778 0.03744,-0.1096272 0.08643,-0.2134411 0.150161,-0.306458 0.0016,-0.00249 0.004,-0.00415 0.0056,-0.00664 0.0693,-0.098 0.151754,-0.1864492 0.245754,-0.2603644 0.0016,-8.33e-4 0.0024,-0.00249 0.004,-0.00332 0.09559,-0.074746 0.203136,-0.1353729 0.318246,-0.1785592 0.124669,-0.046093 0.256907,-0.075991 0.397907,-0.075991 0.140203,0 0.273237,0.029898 0.398305,0.076407 0.11511,0.043187 0.221856,0.1038135 0.318245,0.1785592 7.97e-4,8.33e-4 0.0024,0.00249 0.004,0.00332 0.0932,0.073915 0.175653,0.1623645 0.244958,0.2603645 0.0016,0.00249 0.004,0.00415 0.0056,0.00664 0.06453,0.093432 0.112721,0.1972455 0.150958,0.3064579 0.0072,0.021176 0.01314,0.043186 0.01952,0.064778 0.03147,0.1108731 0.05337,0.2267287 0.05337,0.3492287 0,0.1216694 -0.02191,0.2375259 -0.05377,0.3488139 z m -4.327585,2.98194 V 6.940678 c 0,-0.6868305 -0.536119,-1.2457627 -1.194915,-1.2457627 -0.658797,0 -1.194916,0.5589322 -1.194916,1.2457627 v 6.237534 c -0.481152,0.379542 -0.79661,0.975017 -0.79661,1.652297 0,0.67728 0.315458,1.272339 0.79661,1.651465 v 1.255315 c 0,0.68683 0.536119,1.245762 1.194916,1.245762 0.658796,0 1.194915,-0.558932 1.194915,-1.245762 v -1.255315 c 0.480754,-0.378712 0.79661,-0.974185 0.79661,-1.651465 0,-0.67728 -0.315856,-1.272339 -0.79661,-1.652297 z m -1.59322,-6.237534 c 0,-0.2296355 0.178042,-0.4152541 0.398305,-0.4152541 0.220262,0 0.398305,0.1856186 0.398305,0.4152541 v 5.855085 c -0.129051,-0.02658 -0.262085,-0.04152 -0.398305,-0.04152 -0.136619,0 -0.269653,0.01453 -0.398305,0.04152 V 6.940678 z m 0.79661,10.796611 c 0,0.229634 -0.178043,0.415253 -0.398305,0.415253 -0.220263,0 -0.398305,-0.185619 -0.398305,-0.415253 v -0.872866 c 0.128652,0.02782 0.261686,0.04236 0.398305,0.04236 0.13622,0 0.269254,-0.01453 0.398305,-0.04236 v 0.872866 z m 0.742839,-2.557967 c -0.0064,0.02201 -0.01235,0.0436 -0.01952,0.06561 -0.03824,0.109628 -0.08643,0.21344 -0.150958,0.305628 -0.0016,0.0024 -0.004,0.0041 -0.0056,0.0066 -0.0693,0.09883 -0.151754,0.186449 -0.244958,0.260364 -0.0016,0.0017 -0.0032,0.0025 -0.004,0.0033 -0.09639,0.07558 -0.203135,0.136203 -0.318246,0.178559 -0.124669,0.04692 -0.257703,0.07682 -0.397906,0.07682 -0.140204,0 -0.273238,-0.0299 -0.398305,-0.07724 -0.115111,-0.04236 -0.222255,-0.102984 -0.318246,-0.178559 -0.0012,-8.17e-4 -0.0024,-0.0017 -0.004,-0.0033 -0.0936,-0.07392 -0.176051,-0.161534 -0.245356,-0.260364 -0.0016,-0.0025 -0.004,-0.0042 -0.0056,-0.0067 -0.06413,-0.0926 -0.112721,-0.196415 -0.15056,-0.305627 -0.0076,-0.02201 -0.01314,-0.0436 -0.01952,-0.06561 -0.03147,-0.110873 -0.05337,-0.226728 -0.05337,-0.348398 0,-0.1225 0.02191,-0.238357 0.05377,-0.349645 0.0064,-0.02201 0.01195,-0.0436 0.01952,-0.06478 0.03784,-0.109626 0.08643,-0.213441 0.150559,-0.306457 0.0016,-0.0025 0.004,-0.0041 0.0056,-0.0067 0.0693,-0.098 0.151754,-0.186449 0.245356,-0.260364 0.0016,-8.16e-4 0.0028,-0.0025 0.004,-0.0033 0.09599,-0.07474 0.203136,-0.135373 0.318246,-0.178559 0.124669,-0.04609 0.257305,-0.07599 0.397907,-0.07599 0.140203,0 0.273237,0.0299 0.398305,0.07641 0.11511,0.04319 0.221856,0.103813 0.318245,0.178559 7.97e-4,8.17e-4 0.0024,0.0025 0.004,0.0033 0.0932,0.07392 0.175652,0.162364 0.244957,0.260364 0.0016,0.0025 0.004,0.0041 0.0056,0.0067 0.06453,0.09343 0.112721,0.197247 0.150958,0.306459 0.0072,0.02118 0.01314,0.04319 0.01952,0.06478 0.03147,0.110872 0.05337,0.226729 0.05337,0.349229 0,0.121669 -0.02191,0.237524 -0.05377,0.348812 z"
       inkscape:connector-curvature="0"
       style="fill:#ffffff" />
  </g>
</svg>
