<?xml version="1.0" encoding="UTF-8" standalone="no"?>
<!-- Created with Inkscape (http://www.inkscape.org/) -->

<svg
   xmlns:dc="http://purl.org/dc/elements/1.1/"
   xmlns:cc="http://creativecommons.org/ns#"
   xmlns:rdf="http://www.w3.org/1999/02/22-rdf-syntax-ns#"
   xmlns:svg="http://www.w3.org/2000/svg"
   xmlns="http://www.w3.org/2000/svg"
   xmlns:sodipodi="http://sodipodi.sourceforge.net/DTD/sodipodi-0.dtd"
   xmlns:inkscape="http://www.inkscape.org/namespaces/inkscape"
   id="svg2"
   version="1.1"
   inkscape:version="0.48.4 r9939"
   width="64"
   height="64"
   sodipodi:docname="base.svg">
  <metadata
     id="metadata8">
    <rdf:RDF>
      <cc:Work
         rdf:about="">
        <dc:format>image/svg+xml</dc:format>
        <dc:type
           rdf:resource="http://purl.org/dc/dcmitype/StillImage" />
        <dc:title></dc:title>
      </cc:Work>
    </rdf:RDF>
  </metadata>
  <defs
     id="defs6">
    <clipPath
       id="clipPath-900365933">
      <g
         id="g3319"
         transform="translate(0,-1004.3622)">
        <path
           id="path3321"
           fill="#1890d0"
           transform="matrix(15.333333,0,0,11.5,414.99999,878.8622)"
           d="m -24 13 c 0 1.105 -0.672 2 -1.5 2 -0.828 0 -1.5 -0.895 -1.5 -2 0 -1.105 0.672 -2 1.5 -2 0.828 0 1.5 0.895 1.5 2 z" />
      </g>
    </clipPath>
    <clipPath
       id="clipPath-888996903">
      <g
         id="g3314"
         transform="translate(0,-1004.3622)">
        <path
           id="path3316"
           fill="#1890d0"
           transform="matrix(15.333333,0,0,11.5,414.99999,878.8622)"
           d="m -24 13 c 0 1.105 -0.672 2 -1.5 2 -0.828 0 -1.5 -0.895 -1.5 -2 0 -1.105 0.672 -2 1.5 -2 0.828 0 1.5 0.895 1.5 2 z" />
      </g>
    </clipPath>
    <linearGradient
       gradientTransform="matrix(0,-1,1,0,-1.5e-6,47.999998)"
       gradientUnits="userSpaceOnUse"
       x2="47"
       x1="1"
       id="linearGradient3764">
      <stop
         id="stop3309"
         stop-opacity="1"
         stop-color="#e7e7e7" />
      <stop
         id="stop3311"
         stop-opacity="1"
         stop-color="#f1f1f1"
         offset="1" />
    </linearGradient>
  </defs>
  <sodipodi:namedview
     pagecolor="#ffffff"
     bordercolor="#666666"
     borderopacity="1"
     objecttolerance="10"
     gridtolerance="10"
     guidetolerance="10"
     inkscape:pageopacity="0"
     inkscape:pageshadow="2"
     inkscape:window-width="1316"
     inkscape:window-height="674"
     id="namedview4"
     showgrid="false"
     inkscape:zoom="3.6875"
     inkscape:cx="-15.186441"
     inkscape:cy="32"
     inkscape:window-x="44"
     inkscape:window-y="29"
     inkscape:window-maximized="1"
     inkscape:current-layer="svg2" />
  <rect
     style="fill:#000000;fill-opacity:1;stroke:#000000;stroke-width:0.53665989999999997;stroke-linecap:round;stroke-linejoin:round;stroke-miterlimit:4;stroke-opacity:1;stroke-dasharray:none"
     id="rect3005"
     width="59.081985"
     height="59.624359"
     x="2.4590092"
     y="2.1878221"
     ry="5.9392786"
     rx="5.9392786" />
  <g
     id="g3347"
     transform="translate(8.0433695,7.5)"
     style="fill:#ffffff">
    <g
       clip-path="url(#clipPath-900365933)"
       id="g3349"
       style="fill:#ffffff">
      <!-- color: #f1f1f1 -->
      <g
         id="g3351"
         style="fill:#ffffff">
        <path
           style="fill:#ffffff;fill-opacity:1;fill-rule:nonzero;stroke:none"
           inkscape:connector-curvature="0"
           d="M 24,1 C 11.297,1 1,11.297 1,24 1,36.703 11.297,47 24,47 36.703,47 47,36.703 47,24 47,11.297 36.703,1 24,1 m 0,2.871 c 11.11,0 20.13,9.01 20.13,20.13 0,9.504 -6.59,17.48 -15.453,19.586 -0.09,-0.18 -0.199,-0.371 -0.18,-0.648 0.051,-0.797 0.082,-1.832 0.18,-2.727 0.102,-0.898 0.465,-8.43 1.762,-10.426 1.297,-1.996 4.992,-4.387 6.289,-4.633 1.297,-0.25 1.078,-0.77 1.078,-1.223 0,-0.453 -0.227,-1.434 -0.574,-1.582 -0.352,-0.148 -1.707,0.727 -2.16,0.824 -0.449,0.102 -2.602,0.285 -2.91,-0.215 -0.297,-0.5 2.414,-5.586 2.773,-6.18 0.352,-0.598 0.504,-1.418 -0.148,-2.266 -0.645,-0.844 -1.082,-1.688 -1.328,-1.688 -0.82,0 -2.422,1.891 -3.02,2.191 -0.598,0.301 -5.336,3.68 -5.785,4.273 -0.449,0.602 -1.043,0.844 -1.688,0.789 -0.648,-0.047 -2.723,-0.07 -3.414,0.324 -0.699,0.398 -3.91,3.66 -4.711,4.063 -0.805,0.398 -1.844,0.637 -2.344,0.688 -0.5,0.047 -2.137,1.875 -2.586,2.227 -0.441,0.352 -3.984,1.891 -4.484,2.195 -0.5,0.297 3.645,4.5 4.234,4.598 0.566,0.094 -0.32,2.125 -1.395,2.336 -2.738,-3.438 -4.383,-7.773 -4.383,-12.508 0,-11.12 9.01,-20.13 20.13,-20.13 m -1.652,18.332 c 0.637,-0.063 1.152,0.035 1.152,0.035 0.227,0.531 -0.844,2.18 -1.832,2.41 -0.988,0.227 -3.266,3.598 -3.34,2.836 -0.078,-0.762 0.906,-3.281 2.047,-4.418 0.57,-0.57 1.34,-0.797 1.977,-0.859 m -0.004,-0.004"
           id="path3353" />
      </g>
    </g>
  </g>
</svg>
