<?xml version="1.0" encoding="UTF-8" standalone="no"?>
<!-- Created with Inkscape (http://www.inkscape.org/) -->

<svg
   xmlns:dc="http://purl.org/dc/elements/1.1/"
   xmlns:cc="http://creativecommons.org/ns#"
   xmlns:rdf="http://www.w3.org/1999/02/22-rdf-syntax-ns#"
   xmlns:svg="http://www.w3.org/2000/svg"
   xmlns="http://www.w3.org/2000/svg"
   xmlns:sodipodi="http://sodipodi.sourceforge.net/DTD/sodipodi-0.dtd"
   xmlns:inkscape="http://www.inkscape.org/namespaces/inkscape"
   id="svg2"
   version="1.1"
   inkscape:version="0.48.4 r9939"
   width="64"
   height="64"
   sodipodi:docname="agave.svg">
  <metadata
     id="metadata8">
    <rdf:RDF>
      <cc:Work
         rdf:about="">
        <dc:format>image/svg+xml</dc:format>
        <dc:type
           rdf:resource="http://purl.org/dc/dcmitype/StillImage" />
        <dc:title></dc:title>
      </cc:Work>
    </rdf:RDF>
  </metadata>
  <defs
     id="defs6">
    <clipPath
       id="clipPath-055917835">
      <g
         id="g4144"
         transform="translate(0,-1004.3622)">
        <path
           id="path4146"
           fill="#1890d0"
           transform="matrix(15.333333,0,0,11.5,414.99999,878.8622)"
           d="m -24 13 c 0 1.105 -0.672 2 -1.5 2 -0.828 0 -1.5 -0.895 -1.5 -2 0 -1.105 0.672 -2 1.5 -2 0.828 0 1.5 0.895 1.5 2 z" />
      </g>
    </clipPath>
    <clipPath
       id="clipPath-046900192">
      <g
         id="g4139"
         transform="translate(0,-1004.3622)">
        <path
           id="path4141"
           fill="#1890d0"
           transform="matrix(15.333333,0,0,11.5,414.99999,878.8622)"
           d="m -24 13 c 0 1.105 -0.672 2 -1.5 2 -0.828 0 -1.5 -0.895 -1.5 -2 0 -1.105 0.672 -2 1.5 -2 0.828 0 1.5 0.895 1.5 2 z" />
      </g>
    </clipPath>
    <linearGradient
       gradientTransform="matrix(0,-1,1,0,-1.5e-6,47.999998)"
       gradientUnits="userSpaceOnUse"
       x2="47"
       x1="1"
       id="linearGradient3764">
      <stop
         id="stop4134"
         stop-opacity="1"
         stop-color="#e4e4e4" />
      <stop
         id="stop4136"
         stop-opacity="1"
         stop-color="#eee"
         offset="1" />
    </linearGradient>
    <clipPath
       id="clipPath-183935099">
      <g
         id="g4609"
         transform="translate(0,-1004.3622)">
        <path
           id="path4611"
           fill="#1890d0"
           transform="matrix(15.333333,0,0,11.5,414.99999,878.8622)"
           d="m -24 13 c 0 1.105 -0.672 2 -1.5 2 -0.828 0 -1.5 -0.895 -1.5 -2 0 -1.105 0.672 -2 1.5 -2 0.828 0 1.5 0.895 1.5 2 z" />
      </g>
    </clipPath>
    <clipPath
       id="clipPath-172451806">
      <g
         id="g4604"
         transform="translate(0,-1004.3622)">
        <path
           id="path4606"
           fill="#1890d0"
           transform="matrix(15.333333,0,0,11.5,414.99999,878.8622)"
           d="m -24 13 c 0 1.105 -0.672 2 -1.5 2 -0.828 0 -1.5 -0.895 -1.5 -2 0 -1.105 0.672 -2 1.5 -2 0.828 0 1.5 0.895 1.5 2 z" />
      </g>
    </clipPath>
    <linearGradient
       gradientTransform="matrix(0,-1,1,0,-1.5e-6,47.999998)"
       gradientUnits="userSpaceOnUse"
       x2="47"
       x1="1"
       id="linearGradient3764-9">
      <stop
         id="stop4599"
         stop-opacity="1"
         stop-color="#97b2d3" />
      <stop
         id="stop4601"
         stop-opacity="1"
         stop-color="#a5bcd9"
         offset="1" />
    </linearGradient>
    <clipPath
       id="clipPath-239231159">
      <g
         id="g5340"
         transform="translate(0,-1004.3622)">
        <path
           id="path5342"
           fill="#1890d0"
           transform="matrix(15.333333,0,0,11.5,414.99999,878.8622)"
           d="m -24 13 c 0 1.105 -0.672 2 -1.5 2 -0.828 0 -1.5 -0.895 -1.5 -2 0 -1.105 0.672 -2 1.5 -2 0.828 0 1.5 0.895 1.5 2 z" />
      </g>
    </clipPath>
    <clipPath
       id="clipPath-233610327">
      <g
         id="g5335"
         transform="translate(0,-1004.3622)">
        <path
           id="path5337"
           fill="#1890d0"
           transform="matrix(15.333333,0,0,11.5,414.99999,878.8622)"
           d="m -24 13 c 0 1.105 -0.672 2 -1.5 2 -0.828 0 -1.5 -0.895 -1.5 -2 0 -1.105 0.672 -2 1.5 -2 0.828 0 1.5 0.895 1.5 2 z" />
      </g>
    </clipPath>
    <linearGradient
       gradientTransform="matrix(0,-1,1,0,-1.5e-6,47.999998)"
       gradientUnits="userSpaceOnUse"
       x2="47"
       x1="1"
       id="linearGradient3764-1">
      <stop
         id="stop5330"
         stop-opacity="1"
         stop-color="#b93b3b" />
      <stop
         id="stop5332"
         stop-opacity="1"
         stop-color="#c34545"
         offset="1" />
    </linearGradient>
    <clipPath
       id="clipPath-483879499">
      <g
         id="g7096"
         transform="translate(0,-1004.3622)">
        <path
           id="path7098"
           fill="#1890d0"
           transform="matrix(15.333333,0,0,11.5,414.99999,878.8622)"
           d="m -24 13 c 0 1.105 -0.672 2 -1.5 2 -0.828 0 -1.5 -0.895 -1.5 -2 0 -1.105 0.672 -2 1.5 -2 0.828 0 1.5 0.895 1.5 2 z" />
      </g>
    </clipPath>
    <clipPath
       id="clipPath-478329641">
      <g
         id="g7091"
         transform="translate(0,-1004.3622)">
        <path
           id="path7093"
           fill="#1890d0"
           transform="matrix(15.333333,0,0,11.5,414.99999,878.8622)"
           d="m -24 13 c 0 1.105 -0.672 2 -1.5 2 -0.828 0 -1.5 -0.895 -1.5 -2 0 -1.105 0.672 -2 1.5 -2 0.828 0 1.5 0.895 1.5 2 z" />
      </g>
    </clipPath>
    <linearGradient
       gradientTransform="matrix(0,-1,1,0,-1.5e-6,47.999998)"
       gradientUnits="userSpaceOnUse"
       x2="47"
       x1="1"
       id="linearGradient3764-5">
      <stop
         id="stop7086"
         stop-opacity="1"
         stop-color="#333" />
      <stop
         id="stop7088"
         stop-opacity="1"
         stop-color="#3d3d3d"
         offset="1" />
    </linearGradient>
    <clipPath
       id="clipPath-139920786">
      <g
         id="g7899"
         transform="translate(0,-1004.3622)">
        <path
           id="path7901"
           fill="#1890d0"
           transform="matrix(15.333333,0,0,11.5,414.99999,878.8622)"
           d="m -24 13 c 0 1.105 -0.672 2 -1.5 2 -0.828 0 -1.5 -0.895 -1.5 -2 0 -1.105 0.672 -2 1.5 -2 0.828 0 1.5 0.895 1.5 2 z" />
      </g>
    </clipPath>
    <clipPath
       id="clipPath-128127935">
      <g
         id="g7894"
         transform="translate(0,-1004.3622)">
        <path
           id="path7896"
           fill="#1890d0"
           transform="matrix(15.333333,0,0,11.5,414.99999,878.8622)"
           d="m -24 13 c 0 1.105 -0.672 2 -1.5 2 -0.828 0 -1.5 -0.895 -1.5 -2 0 -1.105 0.672 -2 1.5 -2 0.828 0 1.5 0.895 1.5 2 z" />
      </g>
    </clipPath>
    <linearGradient
       gradientTransform="matrix(0,-1,1,0,-1.5e-6,47.999998)"
       gradientUnits="userSpaceOnUse"
       x2="47"
       x1="1"
       id="linearGradient3764-8">
      <stop
         id="stop7889"
         stop-opacity="1"
         stop-color="#e33562" />
      <stop
         id="stop7891"
         stop-opacity="1"
         stop-color="#e64772"
         offset="1" />
    </linearGradient>
    <clipPath
       id="clipPath-291383647">
      <g
         id="g8425"
         transform="translate(0,-1004.3622)">
        <path
           id="path8427"
           fill="#1890d0"
           transform="matrix(15.333333,0,0,11.5,414.99999,878.8622)"
           d="m -24 13 c 0 1.105 -0.672 2 -1.5 2 -0.828 0 -1.5 -0.895 -1.5 -2 0 -1.105 0.672 -2 1.5 -2 0.828 0 1.5 0.895 1.5 2 z" />
      </g>
    </clipPath>
    <clipPath
       id="clipPath-285700110">
      <g
         id="g8420"
         transform="translate(0,-1004.3622)">
        <path
           id="path8422"
           fill="#1890d0"
           transform="matrix(15.333333,0,0,11.5,414.99999,878.8622)"
           d="m -24 13 c 0 1.105 -0.672 2 -1.5 2 -0.828 0 -1.5 -0.895 -1.5 -2 0 -1.105 0.672 -2 1.5 -2 0.828 0 1.5 0.895 1.5 2 z" />
      </g>
    </clipPath>
    <linearGradient
       gradientTransform="matrix(0,-1,1,0,-1.5e-6,47.999998)"
       gradientUnits="userSpaceOnUse"
       x2="47"
       x1="1"
       id="linearGradient3764-13">
      <stop
         id="stop8415"
         stop-opacity="1"
         stop-color="#b93b3b" />
      <stop
         id="stop8417"
         stop-opacity="1"
         stop-color="#c34545"
         offset="1" />
    </linearGradient>
    <clipPath
       id="clipPath-898578971">
      <g
         id="g9278"
         transform="translate(0,-1004.3622)">
        <path
           id="path9280"
           fill="#1890d0"
           transform="matrix(15.333333,0,0,11.5,414.99999,878.8622)"
           d="m -24 13 c 0 1.105 -0.672 2 -1.5 2 -0.828 0 -1.5 -0.895 -1.5 -2 0 -1.105 0.672 -2 1.5 -2 0.828 0 1.5 0.895 1.5 2 z" />
      </g>
    </clipPath>
    <clipPath
       id="clipPath-887079119">
      <g
         id="g9273"
         transform="translate(0,-1004.3622)">
        <path
           id="path9275"
           fill="#1890d0"
           transform="matrix(15.333333,0,0,11.5,414.99999,878.8622)"
           d="m -24 13 c 0 1.105 -0.672 2 -1.5 2 -0.828 0 -1.5 -0.895 -1.5 -2 0 -1.105 0.672 -2 1.5 -2 0.828 0 1.5 0.895 1.5 2 z" />
      </g>
    </clipPath>
    <linearGradient
       gradientTransform="matrix(0,-1,1,0,-1.5e-6,47.999998)"
       gradientUnits="userSpaceOnUse"
       x2="47"
       x1="1"
       id="linearGradient3764-7">
      <stop
         id="stop9268"
         stop-opacity="1"
         stop-color="#b93b3b" />
      <stop
         id="stop9270"
         stop-opacity="1"
         stop-color="#c34545"
         offset="1" />
    </linearGradient>
    <clipPath
       id="clipPath-262930867">
      <g
         id="g10787"
         transform="translate(0,-1004.3622)">
        <path
           id="path10789"
           fill="#1890d0"
           transform="matrix(15.333333,0,0,11.5,414.99999,878.8622)"
           d="m -24 13 c 0 1.105 -0.672 2 -1.5 2 -0.828 0 -1.5 -0.895 -1.5 -2 0 -1.105 0.672 -2 1.5 -2 0.828 0 1.5 0.895 1.5 2 z" />
      </g>
    </clipPath>
    <clipPath
       id="clipPath-253146245">
      <g
         id="g10782"
         transform="translate(0,-1004.3622)">
        <path
           id="path10784"
           fill="#1890d0"
           transform="matrix(15.333333,0,0,11.5,414.99999,878.8622)"
           d="m -24 13 c 0 1.105 -0.672 2 -1.5 2 -0.828 0 -1.5 -0.895 -1.5 -2 0 -1.105 0.672 -2 1.5 -2 0.828 0 1.5 0.895 1.5 2 z" />
      </g>
    </clipPath>
    <linearGradient
       gradientTransform="matrix(0,-1,1,0,-1.5e-6,47.999998)"
       gradientUnits="userSpaceOnUse"
       x2="47"
       x1="1"
       id="linearGradient3764-72">
      <stop
         id="stop10777"
         stop-opacity="1"
         stop-color="#333" />
      <stop
         id="stop10779"
         stop-opacity="1"
         stop-color="#3d3d3d"
         offset="1" />
    </linearGradient>
    <clipPath
       id="clipPath-054702263">
      <g
         id="g14438"
         transform="translate(0,-1004.3622)">
        <path
           id="path14440"
           fill="#1890d0"
           transform="matrix(15.333333,0,0,11.5,414.99999,878.8622)"
           d="m -24 13 c 0 1.105 -0.672 2 -1.5 2 -0.828 0 -1.5 -0.895 -1.5 -2 0 -1.105 0.672 -2 1.5 -2 0.828 0 1.5 0.895 1.5 2 z" />
      </g>
    </clipPath>
    <clipPath
       id="clipPath-042046698">
      <g
         id="g14433"
         transform="translate(0,-1004.3622)">
        <path
           id="path14435"
           fill="#1890d0"
           transform="matrix(15.333333,0,0,11.5,414.99999,878.8622)"
           d="m -24 13 c 0 1.105 -0.672 2 -1.5 2 -0.828 0 -1.5 -0.895 -1.5 -2 0 -1.105 0.672 -2 1.5 -2 0.828 0 1.5 0.895 1.5 2 z" />
      </g>
    </clipPath>
    <linearGradient
       gradientTransform="matrix(0,-1,1,0,-1.5e-6,47.999998)"
       gradientUnits="userSpaceOnUse"
       x2="47"
       x1="1"
       id="linearGradient3764-2">
      <stop
         id="stop14428"
         stop-opacity="1"
         stop-color="#ec9b28" />
      <stop
         id="stop14430"
         stop-opacity="1"
         stop-color="#eea53a"
         offset="1" />
    </linearGradient>
  </defs>
  <sodipodi:namedview
     pagecolor="#ffffff"
     bordercolor="#666666"
     borderopacity="1"
     objecttolerance="10"
     gridtolerance="10"
     guidetolerance="10"
     inkscape:pageopacity="0"
     inkscape:pageshadow="2"
     inkscape:window-width="1316"
     inkscape:window-height="674"
     id="namedview4"
     showgrid="false"
     inkscape:zoom="3.6875"
     inkscape:cx="-19.932204"
     inkscape:cy="32"
     inkscape:window-x="44"
     inkscape:window-y="29"
     inkscape:window-maximized="1"
     inkscape:current-layer="svg2" />
  <rect
     style="fill:#000000;fill-opacity:1;stroke:#000000;stroke-width:0.53665989999999997;stroke-linecap:round;stroke-linejoin:round;stroke-miterlimit:4;stroke-opacity:1;stroke-dasharray:none"
     id="rect3005"
     width="59.081985"
     height="59.624359"
     x="2.4590092"
     y="2.1878221"
     ry="5.9392786"
     rx="5.9392786" />
  <g
     id="g4160"
     transform="translate(-138.39731,-16.90678)" />
  <g
     id="g4625"
     transform="translate(-87.414255,-10.940679)" />
  <g
     id="g5356"
     transform="translate(-107.21086,-6.8728814)" />
  <g
     id="g7112"
     transform="translate(-106.80409,-6.6016949)" />
  <g
     id="g7915"
     transform="translate(-147.21087,-13.381356)" />
  <g
     id="g8441"
     transform="translate(-104.36341,-3.0762712)" />
  <g
     id="g9294"
     transform="translate(-132.83798,-14.737288)" />
  <g
     id="g10803"
     transform="translate(-81.854938,-12.838983)" />
  <g
     id="g14454"
     transform="translate(-119.82103,-4.1610169)" />
  <g
     id="g14468"
     transform="matrix(1.5326899,0,0,1.8185393,-4.7372468,-8.9860126)">
    <g
       clip-path="url(#clipPath-054702263)"
       id="g14470">
      <!-- color: #eea53a -->
      <g
         id="g14472">
        <path
           style="fill:#ffffff;fill-opacity:1;fill-rule:nonzero;stroke:none"
           inkscape:connector-curvature="0"
           d="m 23.992,9.539 c -1.926,0 -3.484,1.559 -3.484,3.484 0,1.621 1.137,2.961 2.637,3.352 l 0,1.789 c -3.449,0.418 -6.117,3.336 -6.117,6.898 0,0.961 0.199,1.867 0.551,2.699 l -1.172,0.684 c -1.09,-1.074 -2.777,-1.352 -4.168,-0.551 -1.664,0.957 -2.23,3.086 -1.27,4.75 0.961,1.664 3.086,2.23 4.754,1.27 1.426,-0.828 2.047,-2.492 1.594,-4 l 1.137,-0.652 c 1.273,1.676 3.266,2.766 5.531,2.766 2.422,0 4.543,-1.219 5.793,-3.09 l 1.465,0.848 c -0.535,1.547 0.059,3.285 1.531,4.133 1.664,0.961 3.785,0.395 4.75,-1.27 0.961,-1.664 0.398,-3.789 -1.27,-4.75 -1.348,-0.781 -2.977,-0.547 -4.066,0.457 l -1.66,-0.945 c 0.266,-0.73 0.422,-1.52 0.422,-2.34 0,-3.543 -2.652,-6.469 -6.082,-6.898 l 0,-1.789 c 1.5,-0.391 2.605,-1.73 2.605,-3.355 0,-1.922 -1.559,-3.477 -3.484,-3.477 m 0.98,11.316 c 0.477,0 0.875,0.043 1.207,0.164 0.332,0.117 0.602,0.273 0.813,0.457 0.219,0.191 0.395,0.418 0.488,0.652 0.098,0.227 0.133,0.457 0.133,0.684 0,0.391 -0.078,0.73 -0.258,1.039 -0.18,0.316 -0.461,0.598 -0.848,0.816 -0.387,0.219 -0.895,0.367 -1.496,0.488 -0.602,0.121 -1.305,0.195 -2.145,0.195 l -0.914,0 c -0.039,0.188 -0.078,0.344 -0.098,0.52 -0.012,0.18 0,0.371 0,0.523 0,0.566 0.145,1 0.422,1.301 0.285,0.301 0.738,0.422 1.367,0.422 0.363,0 0.688,-0.016 0.977,-0.066 0.293,-0.055 0.539,-0.098 0.75,-0.164 0.215,-0.063 0.387,-0.145 0.52,-0.188 0.137,-0.063 0.242,-0.066 0.293,-0.066 0.051,0 0.078,0.027 0.102,0.066 0.027,0.031 0.031,0.063 0.031,0.129 0,0.059 0.012,0.145 0,0.227 -0.012,0.078 -0.043,0.145 -0.063,0.227 -0.023,0.078 -0.059,0.156 -0.102,0.227 -0.035,0.074 -0.051,0.148 -0.098,0.195 -0.066,0.066 -0.18,0.129 -0.359,0.195 -0.168,0.063 -0.379,0.137 -0.617,0.195 -0.234,0.051 -0.496,0.094 -0.777,0.133 -0.285,0.035 -0.563,0.031 -0.848,0.031 -0.504,0 -0.953,-0.051 -1.336,-0.164 -0.379,-0.113 -0.688,-0.285 -0.941,-0.52 -0.25,-0.238 -0.461,-0.531 -0.586,-0.883 -0.125,-0.352 -0.164,-0.762 -0.164,-1.234 0,-0.367 0.031,-0.781 0.102,-1.203 0.074,-0.426 0.172,-0.824 0.324,-1.238 0.152,-0.414 0.344,-0.824 0.586,-1.203 0.246,-0.379 0.547,-0.719 0.879,-1.012 0.34,-0.289 0.73,-0.508 1.172,-0.684 0.445,-0.18 0.941,-0.262 1.496,-0.262 m -0.109,1.105 c -0.367,0 -0.695,0.063 -0.98,0.195 -0.281,0.125 -0.559,0.273 -0.777,0.488 -0.215,0.215 -0.395,0.492 -0.555,0.781 -0.152,0.281 -0.262,0.559 -0.355,0.879 l 0.855,0 c 0.594,0 1.098,-0.027 1.492,-0.102 0.398,-0.074 0.73,-0.168 0.977,-0.293 0.242,-0.137 0.391,-0.289 0.488,-0.457 0.102,-0.176 0.164,-0.332 0.164,-0.523 0,-0.289 -0.133,-0.535 -0.359,-0.715 -0.227,-0.18 -0.52,-0.258 -0.938,-0.258 m -0.012,0.004"
           id="path14474" />
      </g>
    </g>
  </g>
</svg>
