<?xml version="1.0" encoding="UTF-8" standalone="no"?>
<!-- Created with Inkscape (http://www.inkscape.org/) -->

<svg
   xmlns:dc="http://purl.org/dc/elements/1.1/"
   xmlns:cc="http://creativecommons.org/ns#"
   xmlns:rdf="http://www.w3.org/1999/02/22-rdf-syntax-ns#"
   xmlns:svg="http://www.w3.org/2000/svg"
   xmlns="http://www.w3.org/2000/svg"
   xmlns:sodipodi="http://sodipodi.sourceforge.net/DTD/sodipodi-0.dtd"
   xmlns:inkscape="http://www.inkscape.org/namespaces/inkscape"
   id="svg2"
   version="1.1"
   inkscape:version="0.48.4 r9939"
   width="64"
   height="64"
   sodipodi:docname="virtualbox.svg">
  <metadata
     id="metadata8">
    <rdf:RDF>
      <cc:Work
         rdf:about="">
        <dc:format>image/svg+xml</dc:format>
        <dc:type
           rdf:resource="http://purl.org/dc/dcmitype/StillImage" />
        <dc:title></dc:title>
      </cc:Work>
    </rdf:RDF>
  </metadata>
  <defs
     id="defs6">
    <inkscape:path-effect
       effect="bend_path"
       id="path-effect11280"
       is_visible="true"
       bendpath="m 16.271188,16.271186 32,0"
       prop_scale="1"
       scale_y_rel="false"
       vertical="false" />
    <clipPath
       id="clipPath-900365933">
      <g
         id="g3319"
         transform="translate(0,-1004.3622)">
        <path
           id="path3321"
           fill="#1890d0"
           transform="matrix(15.333333,0,0,11.5,414.99999,878.8622)"
           d="m -24 13 c 0 1.105 -0.672 2 -1.5 2 -0.828 0 -1.5 -0.895 -1.5 -2 0 -1.105 0.672 -2 1.5 -2 0.828 0 1.5 0.895 1.5 2 z" />
      </g>
    </clipPath>
    <clipPath
       id="clipPath-888996903">
      <g
         id="g3314"
         transform="translate(0,-1004.3622)">
        <path
           id="path3316"
           fill="#1890d0"
           transform="matrix(15.333333,0,0,11.5,414.99999,878.8622)"
           d="m -24 13 c 0 1.105 -0.672 2 -1.5 2 -0.828 0 -1.5 -0.895 -1.5 -2 0 -1.105 0.672 -2 1.5 -2 0.828 0 1.5 0.895 1.5 2 z" />
      </g>
    </clipPath>
    <linearGradient
       gradientTransform="matrix(0,-1,1,0,-1.5e-6,47.999998)"
       gradientUnits="userSpaceOnUse"
       x2="47"
       x1="1"
       id="linearGradient3764">
      <stop
         id="stop3309"
         stop-opacity="1"
         stop-color="#e7e7e7" />
      <stop
         id="stop3311"
         stop-opacity="1"
         stop-color="#f1f1f1"
         offset="1" />
    </linearGradient>
    <clipPath
       id="clipPath-824049301">
      <g
         id="g3669"
         transform="translate(0,-1004.3622)">
        <path
           id="path3671"
           fill="#1890d0"
           transform="matrix(15.333333,0,0,11.5,414.99999,878.8622)"
           d="m -24 13 c 0 1.105 -0.672 2 -1.5 2 -0.828 0 -1.5 -0.895 -1.5 -2 0 -1.105 0.672 -2 1.5 -2 0.828 0 1.5 0.895 1.5 2 z" />
      </g>
    </clipPath>
    <clipPath
       id="clipPath-818636847">
      <g
         id="g3664"
         transform="translate(0,-1004.3622)">
        <path
           id="path3666"
           fill="#1890d0"
           transform="matrix(15.333333,0,0,11.5,414.99999,878.8622)"
           d="m -24 13 c 0 1.105 -0.672 2 -1.5 2 -0.828 0 -1.5 -0.895 -1.5 -2 0 -1.105 0.672 -2 1.5 -2 0.828 0 1.5 0.895 1.5 2 z" />
      </g>
    </clipPath>
    <linearGradient
       gradientTransform="matrix(0,-1,1,0,-1.5e-6,47.999998)"
       gradientUnits="userSpaceOnUse"
       x2="47"
       x1="1"
       id="linearGradient3764-7">
      <stop
         id="stop3659"
         stop-opacity="1"
         stop-color="#70ba5e" />
      <stop
         id="stop3661"
         stop-opacity="1"
         stop-color="#7dc06d"
         offset="1" />
    </linearGradient>
    <linearGradient
       gradientTransform="matrix(3.729797,0,0,3.401575,-1.263157,-0.00000203445)"
       y2="10.518"
       x2="6.769"
       y1="3.487"
       x1="6.778"
       gradientUnits="userSpaceOnUse"
       id="linearGradient7524">
      <stop
         id="stop7526"
         stop-opacity="1"
         stop-color="#e24571" />
      <stop
         id="stop7528"
         stop-opacity="1"
         stop-color="#7f263e"
         offset="1" />
    </linearGradient>
    <linearGradient
       gradientTransform="matrix(3.729797,0,0,3.401575,-1.263157,-2.03445e-6)"
       y2="10.518"
       x2="6.769"
       y1="3.487"
       x1="6.778"
       gradientUnits="userSpaceOnUse"
       id="linear0">
      <stop
         id="stop7520"
         stop-opacity="1"
         stop-color="#e24571" />
      <stop
         id="stop7522"
         stop-opacity="1"
         stop-color="#7f263e"
         offset="1" />
    </linearGradient>
    <clipPath
       id="clipPath-402570221">
      <g
         id="g7515"
         transform="translate(0,-1004.3622)">
        <path
           id="path7517"
           fill="#1890d0"
           transform="matrix(15.333333,0,0,11.5,414.99999,878.8622)"
           d="m -24 13 c 0 1.105 -0.672 2 -1.5 2 -0.828 0 -1.5 -0.895 -1.5 -2 0 -1.105 0.672 -2 1.5 -2 0.828 0 1.5 0.895 1.5 2 z" />
      </g>
    </clipPath>
    <clipPath
       id="clipPath-392703927">
      <g
         id="g7510"
         transform="translate(0,-1004.3622)">
        <path
           id="path7512"
           fill="#1890d0"
           transform="matrix(15.333333,0,0,11.5,414.99999,878.8622)"
           d="m -24 13 c 0 1.105 -0.672 2 -1.5 2 -0.828 0 -1.5 -0.895 -1.5 -2 0 -1.105 0.672 -2 1.5 -2 0.828 0 1.5 0.895 1.5 2 z" />
      </g>
    </clipPath>
    <linearGradient
       gradientTransform="matrix(0,-1,1,0,-1.5e-6,47.999998)"
       gradientUnits="userSpaceOnUse"
       x2="47"
       x1="1"
       id="linearGradient3764-5">
      <stop
         id="stop7505"
         stop-opacity="1"
         stop-color="#e4e4e4" />
      <stop
         id="stop7507"
         stop-opacity="1"
         stop-color="#eee"
         offset="1" />
    </linearGradient>
    <clipPath
       id="clipPath-033233189">
      <g
         id="g8716"
         transform="translate(0,-1004.3622)">
        <path
           id="path8718"
           fill="#1890d0"
           transform="matrix(15.333333,0,0,11.5,414.99999,878.8622)"
           d="m -24 13 c 0 1.105 -0.672 2 -1.5 2 -0.828 0 -1.5 -0.895 -1.5 -2 0 -1.105 0.672 -2 1.5 -2 0.828 0 1.5 0.895 1.5 2 z" />
      </g>
    </clipPath>
    <clipPath
       id="clipPath-027103285">
      <g
         id="g8711"
         transform="translate(0,-1004.3622)">
        <path
           id="path8713"
           fill="#1890d0"
           transform="matrix(15.333333,0,0,11.5,414.99999,878.8622)"
           d="m -24 13 c 0 1.105 -0.672 2 -1.5 2 -0.828 0 -1.5 -0.895 -1.5 -2 0 -1.105 0.672 -2 1.5 -2 0.828 0 1.5 0.895 1.5 2 z" />
      </g>
    </clipPath>
    <linearGradient
       gradientTransform="matrix(0,-1,1,0,-1.5e-6,47.999998)"
       gradientUnits="userSpaceOnUse"
       x2="47"
       x1="1"
       id="linearGradient3764-4">
      <stop
         id="stop8706"
         stop-opacity="1"
         stop-color="#285da4" />
      <stop
         id="stop8708"
         stop-opacity="1"
         stop-color="#2c65b5"
         offset="1" />
    </linearGradient>
    <clipPath
       id="clipPath-849059674">
      <g
         id="g10131"
         transform="translate(0,-1004.3622)">
        <path
           id="path10133"
           fill="#1890d0"
           transform="matrix(15.333333,0,0,11.5,414.99999,878.8622)"
           d="m -24 13 c 0 1.105 -0.672 2 -1.5 2 -0.828 0 -1.5 -0.895 -1.5 -2 0 -1.105 0.672 -2 1.5 -2 0.828 0 1.5 0.895 1.5 2 z" />
      </g>
    </clipPath>
    <clipPath
       id="clipPath-840401912">
      <g
         id="g10126"
         transform="translate(0,-1004.3622)">
        <path
           id="path10128"
           fill="#1890d0"
           transform="matrix(15.333333,0,0,11.5,414.99999,878.8622)"
           d="m -24 13 c 0 1.105 -0.672 2 -1.5 2 -0.828 0 -1.5 -0.895 -1.5 -2 0 -1.105 0.672 -2 1.5 -2 0.828 0 1.5 0.895 1.5 2 z" />
      </g>
    </clipPath>
    <linearGradient
       gradientTransform="matrix(0,-1,1,0,-1.5e-6,47.999998)"
       gradientUnits="userSpaceOnUse"
       x2="47"
       x1="1"
       id="linearGradient3764-3">
      <stop
         id="stop10121"
         stop-opacity="1"
         stop-color="#0077b4" />
      <stop
         id="stop10123"
         stop-opacity="1"
         stop-color="#0084c8"
         offset="1" />
    </linearGradient>
    <clipPath
       id="clipPath-419917221">
      <g
         id="g11174"
         transform="translate(0,-1004.3622)">
        <path
           id="path11176"
           fill="#1890d0"
           transform="matrix(15.333333,0,0,11.5,414.99999,878.8622)"
           d="m -24 13 c 0 1.105 -0.672 2 -1.5 2 -0.828 0 -1.5 -0.895 -1.5 -2 0 -1.105 0.672 -2 1.5 -2 0.828 0 1.5 0.895 1.5 2 z" />
      </g>
    </clipPath>
    <clipPath
       id="clipPath-412789426">
      <g
         id="g11169"
         transform="translate(0,-1004.3622)">
        <path
           id="path11171"
           fill="#1890d0"
           transform="matrix(15.333333,0,0,11.5,414.99999,878.8622)"
           d="m -24 13 c 0 1.105 -0.672 2 -1.5 2 -0.828 0 -1.5 -0.895 -1.5 -2 0 -1.105 0.672 -2 1.5 -2 0.828 0 1.5 0.895 1.5 2 z" />
      </g>
    </clipPath>
    <linearGradient
       gradientTransform="matrix(0,-1,1,0,-1.5e-6,47.999998)"
       gradientUnits="userSpaceOnUse"
       x2="47"
       x1="1"
       id="linearGradient3764-50">
      <stop
         id="stop11164"
         stop-opacity="1"
         stop-color="#10a3e0" />
      <stop
         id="stop11166"
         stop-opacity="1"
         stop-color="#16afef"
         offset="1" />
    </linearGradient>
    <clipPath
       id="clipPath-426603399">
      <g
         id="g29621"
         transform="translate(0,-1004.3622)">
        <path
           id="path29623"
           fill="#1890d0"
           transform="matrix(15.333333,0,0,11.5,414.99999,878.8622)"
           d="m -24 13 c 0 1.105 -0.672 2 -1.5 2 -0.828 0 -1.5 -0.895 -1.5 -2 0 -1.105 0.672 -2 1.5 -2 0.828 0 1.5 0.895 1.5 2 z" />
      </g>
    </clipPath>
    <clipPath
       id="clipPath-421287351">
      <g
         id="g29616"
         transform="translate(0,-1004.3622)">
        <path
           id="path29618"
           fill="#1890d0"
           transform="matrix(15.333333,0,0,11.5,414.99999,878.8622)"
           d="m -24 13 c 0 1.105 -0.672 2 -1.5 2 -0.828 0 -1.5 -0.895 -1.5 -2 0 -1.105 0.672 -2 1.5 -2 0.828 0 1.5 0.895 1.5 2 z" />
      </g>
    </clipPath>
    <linearGradient
       gradientTransform="matrix(0,-1,1,0,-1.5e-6,47.999998)"
       gradientUnits="userSpaceOnUse"
       x2="47"
       x1="1"
       id="linearGradient3764-0">
      <stop
         id="stop29611"
         stop-opacity="1"
         stop-color="#1f8fed" />
      <stop
         id="stop29613"
         stop-opacity="1"
         stop-color="#3298ef"
         offset="1" />
    </linearGradient>
    <clipPath
       id="clipPath-218378187">
      <g
         id="g30071"
         transform="translate(0,-1004.3622)">
        <path
           id="path30073"
           fill="#1890d0"
           transform="matrix(15.333333,0,0,11.5,414.99999,878.8622)"
           d="m -24 13 c 0 1.105 -0.672 2 -1.5 2 -0.828 0 -1.5 -0.895 -1.5 -2 0 -1.105 0.672 -2 1.5 -2 0.828 0 1.5 0.895 1.5 2 z" />
      </g>
    </clipPath>
    <clipPath
       id="clipPath-212226052">
      <g
         id="g30066"
         transform="translate(0,-1004.3622)">
        <path
           id="path30068"
           fill="#1890d0"
           transform="matrix(15.333333,0,0,11.5,414.99999,878.8622)"
           d="m -24 13 c 0 1.105 -0.672 2 -1.5 2 -0.828 0 -1.5 -0.895 -1.5 -2 0 -1.105 0.672 -2 1.5 -2 0.828 0 1.5 0.895 1.5 2 z" />
      </g>
    </clipPath>
    <linearGradient
       gradientTransform="matrix(0,-1,1,0,-1.5e-6,47.999998)"
       gradientUnits="userSpaceOnUse"
       x2="47"
       x1="1"
       id="linearGradient3764-73">
      <stop
         id="stop30061"
         stop-opacity="1"
         stop-color="#ffb109" />
      <stop
         id="stop30063"
         stop-opacity="1"
         stop-color="#ffb61d"
         offset="1" />
    </linearGradient>
  </defs>
  <sodipodi:namedview
     pagecolor="#ffffff"
     bordercolor="#666666"
     borderopacity="1"
     objecttolerance="10"
     gridtolerance="10"
     guidetolerance="10"
     inkscape:pageopacity="0"
     inkscape:pageshadow="2"
     inkscape:window-width="1316"
     inkscape:window-height="674"
     id="namedview4"
     showgrid="false"
     inkscape:zoom="3.6875"
     inkscape:cx="-19.932204"
     inkscape:cy="32"
     inkscape:window-x="44"
     inkscape:window-y="29"
     inkscape:window-maximized="1"
     inkscape:current-layer="svg2" />
  <rect
     style="fill:#000000;fill-opacity:1;stroke:#000000;stroke-width:0.53665989999999997;stroke-linecap:round;stroke-linejoin:round;stroke-miterlimit:4;stroke-opacity:1;stroke-dasharray:none"
     id="rect3005"
     width="59.081985"
     height="59.624359"
     x="2.4590092"
     y="2.1878221"
     ry="5.9392786"
     rx="5.9392786" />
  <g
     id="g3685"
     transform="translate(-102.87188,6.4152542)" />
  <g
     id="g7542"
     transform="translate(-127.14307,0.44915254)" />
  <g
     id="g8732"
     transform="translate(-104.09222,-1.1779661)" />
  <g
     id="g10147"
     transform="translate(-97.583746,-4.9745763)" />
  <g
     id="g11190"
     transform="translate(-110.05832,3.9745763)" />
  <g
     id="g29637"
     transform="translate(-131.48205,-15.822034)" />
  <g
     id="g30087"
     transform="translate(-115.21087,-6.8728814)" />
  <g
     id="g30101"
     transform="matrix(1.5986269,0,0,1.5307646,-6.0555688,-4.0223982)">
    <g
       clip-path="url(#clipPath-218378187)"
       id="g30103">
      <!-- color: #ffb61d -->
      <g
         id="g30105">
        <path
           style="fill:#f9f9f9;fill-opacity:1;fill-rule:nonzero;stroke:none"
           inkscape:connector-curvature="0"
           d="m 31.29,12.01 c -0.414,-0.031 -0.844,0.02 -1.266,0.164 -0.504,0.168 -0.852,0.387 -1.242,0.77 -0.504,0.504 -0.77,1.039 -0.891,1.758 -0.066,0.398 -0.117,0.551 -0.234,0.801 -0.449,0.949 -1.434,1.613 -2.414,1.613 -0.082,0 -0.34,-0.016 -0.586,-0.047 -0.984,-0.129 -1.434,-0.145 -2.461,-0.047 -0.277,0.027 -0.613,0.047 -0.727,0.047 -0.488,0 -0.785,-0.184 -0.984,-0.586 -0.125,-0.25 -0.168,-0.375 -0.164,-0.82 0.004,-0.367 0.012,-0.41 -0.047,-0.586 -0.098,-0.27 -0.188,-0.395 -0.398,-0.605 -0.309,-0.309 -0.633,-0.445 -1.055,-0.445 -0.277,0 -0.473,0.043 -0.703,0.164 -0.488,0.254 -0.793,0.727 -0.82,1.266 -0.02,0.375 0.055,0.602 0.258,0.914 0.148,0.227 0.328,0.391 0.656,0.563 0.355,0.184 0.543,0.359 0.703,0.68 0.102,0.203 0.094,0.223 0.094,0.445 0,0.211 0,0.234 -0.07,0.375 -0.043,0.086 -0.164,0.246 -0.258,0.352 -0.879,0.977 -1.414,2.031 -1.641,3.164 -0.109,0.535 -0.141,0.824 -0.117,1.406 0.012,0.277 0.023,0.586 0.023,0.68 -0.008,0.531 -0.387,0.895 -1.195,1.172 -0.195,0.066 -0.285,0.082 -0.539,0.094 -0.199,0.008 -0.355,0 -0.469,-0.023 -0.102,-0.02 -0.309,-0.02 -0.516,-0.02 -0.395,0 -0.582,0.043 -0.891,0.188 -1.148,0.531 -1.656,1.867 -1.125,3 0.68,1.445 2.602,1.758 3.703,0.609 0.164,-0.172 0.246,-0.301 0.422,-0.609 0.055,-0.102 0.172,-0.238 0.258,-0.328 0.391,-0.41 0.926,-0.605 1.547,-0.605 0.445,0 0.707,0.094 1.055,0.375 0.578,0.465 1.379,0.871 2.086,1.078 0.781,0.227 1.223,0.262 2.531,0.23 0.383,-0.012 0.504,0.012 0.68,0.043 0.492,0.102 0.969,0.289 1.383,0.566 0.305,0.203 0.805,0.703 1.012,1.01 0.273,0.41 0.473,0.926 0.539,1.336 0.109,0.688 0.242,1.098 0.469,1.547 0.617,1.215 1.727,2.027 3.094,2.273 0.375,0.066 1.191,0.055 1.57,-0.023 1.301,-0.266 2.383,-1.086 2.977,-2.25 0.32,-0.633 0.473,-1.211 0.473,-1.945 0.004,-1.715 -0.996,-3.234 -2.578,-3.914 -0.363,-0.152 -0.629,-0.219 -1.125,-0.305 -0.492,-0.082 -0.82,-0.191 -1.172,-0.375 -0.824,-0.426 -1.488,-1.215 -1.781,-2.082 -0.16,-0.484 -0.23,-0.957 -0.191,-1.523 0.023,-0.359 0.016,-1.563 -0.02,-2.391 -0.023,-0.535 0.055,-0.859 0.281,-1.313 0.258,-0.52 0.688,-0.949 1.219,-1.219 0.273,-0.141 0.477,-0.191 0.867,-0.258 0.414,-0.07 0.711,-0.164 1.027,-0.328 0.742,-0.383 1.309,-1.031 1.57,-1.828 0.113,-0.34 0.141,-0.617 0.141,-1.012 0,-0.391 -0.051,-0.664 -0.16,-1.012 -0.426,-1.258 -1.547,-2.086 -2.789,-2.18 m -8.625,6.891 c 1.445,-0.098 2.898,0.594 3.727,1.828 0.297,0.445 0.535,1.039 0.633,1.57 0.07,0.367 0.051,1.199 -0.023,1.547 -0.215,1 -0.742,1.848 -1.523,2.457 -0.645,0.508 -1.375,0.777 -2.227,0.844 -0.172,0.016 -0.348,0.027 -0.375,0.023 -0.309,-0.02 -0.543,-0.051 -0.75,-0.094 -1.715,-0.348 -2.977,-1.695 -3.258,-3.441 -0.039,-0.25 -0.039,-0.988 0,-1.219 0.164,-0.941 0.508,-1.637 1.148,-2.273 0.371,-0.371 0.676,-0.586 1.102,-0.797 0.355,-0.176 0.574,-0.27 0.938,-0.352 0.207,-0.047 0.402,-0.082 0.609,-0.094 m 0.445,1.57 c -1.215,-0.074 -2.324,0.703 -2.648,1.922 -0.059,0.215 -0.07,0.266 -0.07,0.633 0,0.363 0.012,0.438 0.07,0.656 0.133,0.496 0.449,0.996 0.82,1.313 0.285,0.238 0.633,0.422 0.891,0.465 0.703,0.125 1.395,-0.355 1.5,-1.051 l 0,-0.094 -0.445,0 c -0.32,0 -0.488,-0.004 -0.586,-0.023 -0.57,-0.152 -0.961,-0.668 -0.961,-1.242 0,-0.355 0.121,-0.66 0.375,-0.914 0.242,-0.242 0.566,-0.375 0.891,-0.375 0.578,0 1.148,0.438 1.27,1.012 0.023,0.125 0.02,0.406 0.02,1.316 l 0,1.145 0.145,0 c 0.293,-0.031 0.605,-0.176 0.797,-0.375 0.109,-0.113 0.227,-0.363 0.281,-0.535 0.043,-0.141 0.047,-0.227 0.047,-0.867 0,-0.922 -0.031,-1.137 -0.281,-1.617 -0.316,-0.605 -0.941,-1.098 -1.594,-1.266 -0.18,-0.047 -0.348,-0.086 -0.52,-0.094 m 0,0"
           id="path30107" />
      </g>
    </g>
  </g>
</svg>
