<?xml version="1.0" encoding="UTF-8" standalone="no"?>
<!-- Created with Inkscape (http://www.inkscape.org/) -->

<svg
   xmlns:dc="http://purl.org/dc/elements/1.1/"
   xmlns:cc="http://creativecommons.org/ns#"
   xmlns:rdf="http://www.w3.org/1999/02/22-rdf-syntax-ns#"
   xmlns:svg="http://www.w3.org/2000/svg"
   xmlns="http://www.w3.org/2000/svg"
   xmlns:sodipodi="http://sodipodi.sourceforge.net/DTD/sodipodi-0.dtd"
   xmlns:inkscape="http://www.inkscape.org/namespaces/inkscape"
   id="svg2"
   version="1.1"
   inkscape:version="0.48.4 r9939"
   width="64"
   height="64"
   sodipodi:docname="APLICACIONES PREFERIDAS.svg">
  <metadata
     id="metadata8">
    <rdf:RDF>
      <cc:Work
         rdf:about="">
        <dc:format>image/svg+xml</dc:format>
        <dc:type
           rdf:resource="http://purl.org/dc/dcmitype/StillImage" />
        <dc:title></dc:title>
      </cc:Work>
    </rdf:RDF>
  </metadata>
  <defs
     id="defs6" />
  <sodipodi:namedview
     pagecolor="#ffffff"
     bordercolor="#666666"
     borderopacity="1"
     objecttolerance="10"
     gridtolerance="10"
     guidetolerance="10"
     inkscape:pageopacity="0"
     inkscape:pageshadow="2"
     inkscape:window-width="1316"
     inkscape:window-height="674"
     id="namedview4"
     showgrid="false"
     inkscape:zoom="3.6875"
     inkscape:cx="-15.186441"
     inkscape:cy="32"
     inkscape:window-x="44"
     inkscape:window-y="29"
     inkscape:window-maximized="1"
     inkscape:current-layer="svg2" />
  <rect
     style="fill:#000000;fill-opacity:1;stroke:#000000;stroke-width:0.53665989999999997;stroke-linecap:round;stroke-linejoin:round;stroke-miterlimit:4;stroke-opacity:1;stroke-dasharray:none"
     id="rect3005"
     width="59.081985"
     height="59.624359"
     x="2.4590092"
     y="2.1878221"
     ry="5.9392786"
     rx="5.9392786" />
  <g
     id="g4630"
     transform="matrix(1.3983051,0,0,1.4971751,9.7627112,9.4082769)"
     style="fill:#ffffff">
    <g
       id="icomoon-ignore"
       style="fill:#ffffff" />
    <path
       id="path4622"
       d="m 26.229,9.263 c 2.426,1.72 4.418,4.034 5.771,6.737 -2.973,5.936 -9.021,10 -16,10 -1.955,0 -3.837,-0.319 -5.599,-0.909 l 2.436,-2.436 C 13.87,22.883 14.93,23 16,23 c 2.799,0 5.527,-0.796 7.889,-2.303 1.88,-1.199 3.473,-2.805 4.67,-4.697 -1.158,-1.83 -2.688,-3.392 -4.489,-4.578 L 26.229,9.263 z M 16,21.813 c -0.71,0 -1.399,-0.093 -2.054,-0.267 l 9.787,-9.787 c 0.174,0.655 0.267,1.344 0.267,2.054 0,4.418 -3.582,8 -8,8 z M 30,0 H 28.321 L 21.458,6.863 C 19.737,6.303 17.903,6 16,6 9.021,6 2.972,10.064 0,16 c 1.333,2.662 3.285,4.947 5.662,6.658 L 0,28.32 v 1.679 H 1.679 L 30,1.678 V -0.001 z M 13,9.813 c 1.501,0 2.745,1.103 2.965,2.543 l -3.423,3.423 c -1.44,-0.22 -2.543,-1.464 -2.543,-2.965 0,-1.657 1.343,-3 3,-3 z M 3.441,16 C 4.638,14.109 6.231,12.502 8.111,11.303 8.233,11.225 8.357,11.149 8.482,11.075 8.171,11.929 8,12.851 8,13.812 c 0,1.829 0.614,3.514 1.647,4.861 l -1.83,1.83 C 6.065,19.327 4.575,17.791 3.441,16 z"
       inkscape:connector-curvature="0"
       style="fill:#ffffff" />
  </g>
</svg>
