<?xml version="1.0" encoding="UTF-8" standalone="no"?>
<!-- Created with Inkscape (http://www.inkscape.org/) -->

<svg
   xmlns:dc="http://purl.org/dc/elements/1.1/"
   xmlns:cc="http://creativecommons.org/ns#"
   xmlns:rdf="http://www.w3.org/1999/02/22-rdf-syntax-ns#"
   xmlns:svg="http://www.w3.org/2000/svg"
   xmlns="http://www.w3.org/2000/svg"
   xmlns:sodipodi="http://sodipodi.sourceforge.net/DTD/sodipodi-0.dtd"
   xmlns:inkscape="http://www.inkscape.org/namespaces/inkscape"
   id="svg2"
   version="1.1"
   inkscape:version="0.48.4 r9939"
   width="64"
   height="64"
   sodipodi:docname="buscador-archivos.svg">
  <metadata
     id="metadata8">
    <rdf:RDF>
      <cc:Work
         rdf:about="">
        <dc:format>image/svg+xml</dc:format>
        <dc:type
           rdf:resource="http://purl.org/dc/dcmitype/StillImage" />
        <dc:title></dc:title>
      </cc:Work>
    </rdf:RDF>
  </metadata>
  <defs
     id="defs6" />
  <sodipodi:namedview
     pagecolor="#ffffff"
     bordercolor="#666666"
     borderopacity="1"
     objecttolerance="10"
     gridtolerance="10"
     guidetolerance="10"
     inkscape:pageopacity="0"
     inkscape:pageshadow="2"
     inkscape:window-width="1316"
     inkscape:window-height="674"
     id="namedview4"
     showgrid="false"
     inkscape:zoom="3.6875"
     inkscape:cx="-15.186441"
     inkscape:cy="32"
     inkscape:window-x="44"
     inkscape:window-y="29"
     inkscape:window-maximized="1"
     inkscape:current-layer="svg2" />
  <rect
     style="fill:#000000;fill-opacity:1;stroke:#000000;stroke-width:0.53665989999999997;stroke-linecap:round;stroke-linejoin:round;stroke-miterlimit:4;stroke-opacity:1;stroke-dasharray:none"
     id="rect3005"
     width="59.081985"
     height="59.624359"
     x="2.4590092"
     y="2.1878221"
     ry="5.9392786"
     rx="5.9392786" />
  <g
     id="g3458"
     transform="matrix(1.4811372,0,0,1.5861126,9.1779656,7.0084743)"
     style="fill:#ffffff">
    <g
       id="icomoon-ignore"
       style="fill:#ffffff" />
    <path
       id="path3450"
       d="M 15.5,0 C 6.939,0 0,6.939 0,15.5 0,24.061 6.939,31 15.5,31 24.061,31 31,24.061 31,15.5 31,6.939 24.061,0 15.5,0 z M 28.975,15 H 22.979 C 22.924,12.785 22.53,10.669 21.831,8.732 23.181,8.169 24.429,7.42 25.567,6.535 27.59,8.806 28.855,11.755 28.975,15 z M 14.947,28.972 C 13.285,27.588 11.891,25.791 10.871,23.704 12.18,23.295 13.567,23.071 15,23.025 v 5.949 c -0.018,0 -0.035,-0.001 -0.053,-0.002 z M 16.051,2.028 c 1.886,1.57 3.425,3.673 4.466,6.126 -1.426,0.487 -2.941,0.77 -4.518,0.82 V 2.025 c 0.019,10e-4 0.035,0.002 0.052,0.003 z m 1.666,0.17 c 2.76,0.459 5.236,1.748 7.164,3.614 C 23.834,6.615 22.69,7.295 21.453,7.81 20.543,5.653 19.266,3.746 17.717,2.198 z M 15,2.025 V 8.974 C 13.423,8.923 11.907,8.641 10.482,8.154 11.523,5.701 13.062,3.598 14.948,2.028 14.966,2.027 14.982,2.026 15,2.025 z M 9.546,7.811 C 8.311,7.296 7.166,6.616 6.119,5.813 8.046,3.947 10.523,2.658 13.283,2.199 11.733,3.746 10.457,5.653 9.546,7.811 z m 0.559,1.265 C 11.647,9.611 13.29,9.923 15,9.975 V 15 H 9.021 C 9.075,12.906 9.446,10.905 10.105,9.076 z M 15,16 v 6.025 c -1.577,0.048 -3.102,0.306 -4.539,0.769 C 9.595,20.732 9.084,18.435 9.021,16 H 15 z M 13.283,28.802 C 10.81,28.391 8.564,27.314 6.738,25.75 c 0.985,-0.683 2.05,-1.261 3.188,-1.7 0.872,1.808 2.013,3.413 3.357,4.752 z M 16,28.975 v -5.949 c 1.432,0.046 2.82,0.27 4.129,0.679 -1.021,2.087 -2.414,3.884 -4.076,5.268 -0.017,0 -0.035,0.001 -0.053,0.002 z m 5.074,-4.925 c 1.137,0.439 2.201,1.018 3.188,1.7 -1.826,1.563 -4.072,2.641 -6.545,3.052 1.344,-1.339 2.484,-2.944 3.357,-4.752 z M 20.539,22.794 C 19.101,22.331 17.576,22.073 16,22.025 V 16 h 5.979 c -0.063,2.435 -0.575,4.732 -1.44,6.794 z M 16,15 V 9.975 c 1.709,-0.052 3.352,-0.363 4.895,-0.898 0.658,1.829 1.029,3.83 1.084,5.924 H 16 z M 5.434,6.535 C 6.572,7.42 7.82,8.169 9.169,8.732 8.47,10.669 8.076,12.785 8.021,15 H 2.025 C 2.145,11.755 3.41,8.806 5.434,6.535 z M 2.025,16 h 5.996 c 0.062,2.555 0.596,4.968 1.503,7.137 C 8.257,23.631 7.076,24.289 5.986,25.068 3.638,22.731 2.156,19.536 2.025,16 z m 22.989,9.067 c -1.09,-0.778 -2.271,-1.437 -3.539,-1.931 0.908,-2.169 1.441,-4.582 1.504,-7.137 h 5.996 c -0.131,3.537 -1.614,6.732 -3.961,9.068 z"
       inkscape:connector-curvature="0"
       style="fill:#ffffff" />
  </g>
</svg>
