<?xml version="1.0" encoding="UTF-8" standalone="no"?>
<!-- Created with Inkscape (http://www.inkscape.org/) -->

<svg
   xmlns:dc="http://purl.org/dc/elements/1.1/"
   xmlns:cc="http://creativecommons.org/ns#"
   xmlns:rdf="http://www.w3.org/1999/02/22-rdf-syntax-ns#"
   xmlns:svg="http://www.w3.org/2000/svg"
   xmlns="http://www.w3.org/2000/svg"
   xmlns:sodipodi="http://sodipodi.sourceforge.net/DTD/sodipodi-0.dtd"
   xmlns:inkscape="http://www.inkscape.org/namespaces/inkscape"
   id="svg2"
   version="1.1"
   inkscape:version="0.48.4 r9939"
   width="64"
   height="64"
   sodipodi:docname="chrome.svg">
  <metadata
     id="metadata8">
    <rdf:RDF>
      <cc:Work
         rdf:about="">
        <dc:format>image/svg+xml</dc:format>
        <dc:type
           rdf:resource="http://purl.org/dc/dcmitype/StillImage" />
        <dc:title />
      </cc:Work>
    </rdf:RDF>
  </metadata>
  <defs
     id="defs6" />
  <sodipodi:namedview
     pagecolor="#ffffff"
     bordercolor="#666666"
     borderopacity="1"
     objecttolerance="10"
     gridtolerance="10"
     guidetolerance="10"
     inkscape:pageopacity="0"
     inkscape:pageshadow="2"
     inkscape:window-width="1316"
     inkscape:window-height="674"
     id="namedview4"
     showgrid="false"
     inkscape:zoom="3.6875"
     inkscape:cx="-15.186441"
     inkscape:cy="32"
     inkscape:window-x="44"
     inkscape:window-y="29"
     inkscape:window-maximized="1"
     inkscape:current-layer="svg2" />
  <rect
     style="fill:#000000;fill-opacity:1;stroke:#000000;stroke-width:0.53665989999999997;stroke-linecap:round;stroke-linejoin:round;stroke-miterlimit:4;stroke-opacity:1;stroke-dasharray:none"
     id="rect3005"
     width="59.081985"
     height="59.624359"
     x="2.4590092"
     y="2.1878221"
     ry="5.9392786"
     rx="5.9392786" />
  <g
     id="g7218"
     transform="matrix(1.4660871,0,0,1.5424068,8.4077454,7.0518475)"
     style="fill:#ffffff">
    <g
       id="icomoon-ignore"
       style="fill:#ffffff" />
    <path
       id="path7210"
       d="M 8.071,13.954 3.492,6.023 C 6.424,2.352 10.937,0 16,0 21.857,0 26.978,3.148 29.767,7.844 H 16.712 C 16.477,7.824 16.24,7.813 16.001,7.813 c -3.809,0 -7.018,2.614 -7.929,6.142 z m 13.657,-3.798 h 9.171 C 31.61,11.966 32,13.937 32,16 32,24.776 24.934,31.9 16.182,31.998 l 6.544,-11.334 c 0.921,-1.324 1.462,-2.932 1.462,-4.664 0,-2.287 -0.943,-4.357 -2.459,-5.844 z M 10.188,16 c 0,-3.205 2.607,-5.813 5.813,-5.813 3.206,0 5.813,2.607 5.813,5.813 0,3.205 -2.608,5.813 -5.813,5.813 -3.205,0 -5.813,-2.608 -5.813,-5.813 z m 8.005,7.889 -4.581,7.934 C 5.908,30.67 -0.001,24.026 -0.001,16.001 c 0,-2.851 0.746,-5.526 2.053,-7.845 L 8.584,19.47 c 1.308,2.785 4.14,4.718 7.415,4.718 0.759,0 1.495,-0.104 2.193,-0.299 z"
       inkscape:connector-curvature="0"
       style="fill:#ffffff" />
  </g>
  <path
     sodipodi:type="arc"
     style="fill:#ff0000;fill-opacity:1;stroke:#000000;stroke-width:0.40000001000000002;stroke-linecap:round;stroke-linejoin:round;stroke-miterlimit:4;stroke-opacity:1;stroke-dasharray:none"
     id="path2985"
     sodipodi:cx="31.864407"
     sodipodi:cy="31.457626"
     sodipodi:rx="6.1016951"
     sodipodi:ry="6.237288"
     d="m 37.966102,31.457626 a 6.1016951,6.237288 0 1 1 -12.20339,0 6.1016951,6.237288 0 1 1 12.20339,0 z" />
</svg>
