<?xml version="1.0" encoding="UTF-8" standalone="no"?>
<!-- Created with Inkscape (http://www.inkscape.org/) -->

<svg
   xmlns:dc="http://purl.org/dc/elements/1.1/"
   xmlns:cc="http://creativecommons.org/ns#"
   xmlns:rdf="http://www.w3.org/1999/02/22-rdf-syntax-ns#"
   xmlns:svg="http://www.w3.org/2000/svg"
   xmlns="http://www.w3.org/2000/svg"
   xmlns:xlink="http://www.w3.org/1999/xlink"
   xmlns:sodipodi="http://sodipodi.sourceforge.net/DTD/sodipodi-0.dtd"
   xmlns:inkscape="http://www.inkscape.org/namespaces/inkscape"
   id="svg2"
   version="1.1"
   inkscape:version="0.48.4 r9939"
   width="64"
   height="64"
   sodipodi:docname="SHUTTER.svg">
  <metadata
     id="metadata8">
    <rdf:RDF>
      <cc:Work
         rdf:about="">
        <dc:format>image/svg+xml</dc:format>
        <dc:type
           rdf:resource="http://purl.org/dc/dcmitype/StillImage" />
        <dc:title></dc:title>
      </cc:Work>
    </rdf:RDF>
  </metadata>
  <defs
     id="defs6">
    <linearGradient
       xlink:href="#linear0"
       gradientTransform="matrix(2.109118,0,0,2.14076,-18.761917,-596.802139)"
       x2="25.532"
       x1="21.358"
       gradientUnits="userSpaceOnUse"
       id="linearGradient11016" />
    <linearGradient
       xlink:href="#linear0"
       gradientTransform="matrix(2.109118,0,0,2.14076,-18.761917,-596.802139)"
       x2="23.508"
       x1="19.678"
       gradientUnits="userSpaceOnUse"
       id="linearGradient11014" />
    <linearGradient
       xlink:href="#linear0"
       gradientTransform="matrix(2.109118,0,0,2.14076,-18.761917,-596.802139)"
       x2="21.51"
       x1="15.259"
       gradientUnits="userSpaceOnUse"
       id="linearGradient11012" />
    <linearGradient
       xlink:href="#linear2"
       gradientTransform="matrix(2.109118,0,0,2.14076,-18.761917,-596.802139)"
       x2="19.854"
       x1="14.11"
       gradientUnits="userSpaceOnUse"
       id="linearGradient11010" />
    <linearGradient
       gradientTransform="matrix(2.109118,0,0,2.14076,-18.761917,-596.802139)"
       x2="18.59"
       x1="15.448"
       gradientUnits="userSpaceOnUse"
       id="linearGradient11004">
      <stop
         id="stop11006"
         stop-opacity="1"
         stop-color="#787878" />
      <stop
         id="stop11008"
         stop-opacity="1"
         stop-color="#9c9c9c"
         offset="1" />
    </linearGradient>
    <linearGradient
       xlink:href="#linear0"
       gradientTransform="matrix(2.109118,0,0,2.14076,-18.761917,-596.802139)"
       x2="26.439"
       x1="18.15"
       gradientUnits="userSpaceOnUse"
       id="linearGradient11002" />
    <linearGradient
       gradientTransform="matrix(2.109118,0,0,2.14076,-18.761917,-596.802139)"
       x2="26.06"
       x1="19.54"
       gradientUnits="userSpaceOnUse"
       id="linearGradient10996">
      <stop
         id="stop10998"
         stop-opacity="1"
         stop-color="#369dcf" />
      <stop
         id="stop11000"
         stop-opacity="1"
         stop-color="#116995"
         offset="1" />
    </linearGradient>
    <linearGradient
       xlink:href="#linear0"
       gradientTransform="matrix(2.109118,0,0,2.14076,-18.761917,-596.80214)"
       x2="25.532"
       x1="21.358"
       gradientUnits="userSpaceOnUse"
       id="linear6" />
    <linearGradient
       xlink:href="#linear0"
       gradientTransform="matrix(2.109118,0,0,2.14076,-18.761917,-596.80214)"
       x2="23.508"
       x1="19.678"
       gradientUnits="userSpaceOnUse"
       id="linear5" />
    <linearGradient
       xlink:href="#linear0"
       gradientTransform="matrix(2.109118,0,0,2.14076,-18.761917,-596.80214)"
       x2="21.51"
       x1="15.259"
       gradientUnits="userSpaceOnUse"
       id="linear4" />
    <linearGradient
       xlink:href="#linear2"
       gradientTransform="matrix(2.109118,0,0,2.14076,-18.761917,-596.80214)"
       x2="19.854"
       x1="14.11"
       gradientUnits="userSpaceOnUse"
       id="linear3" />
    <linearGradient
       gradientTransform="matrix(2.109118,0,0,2.14076,-18.761917,-596.802139)"
       x2="18.59"
       x1="15.448"
       gradientUnits="userSpaceOnUse"
       id="linear2">
      <stop
         id="stop10988"
         stop-opacity="1"
         stop-color="#787878" />
      <stop
         id="stop10990"
         stop-opacity="1"
         stop-color="#9c9c9c"
         offset="1" />
    </linearGradient>
    <linearGradient
       xlink:href="#linear0"
       gradientTransform="matrix(2.109118,0,0,2.14076,-18.761917,-596.80214)"
       x2="26.439"
       x1="18.15"
       gradientUnits="userSpaceOnUse"
       id="linear1" />
    <linearGradient
       gradientTransform="matrix(2.109118,0,0,2.14076,-18.761917,-596.802139)"
       x2="26.06"
       x1="19.54"
       gradientUnits="userSpaceOnUse"
       id="linear0">
      <stop
         id="stop10982"
         stop-opacity="1"
         stop-color="#369dcf" />
      <stop
         id="stop10984"
         stop-opacity="1"
         stop-color="#116995"
         offset="1" />
    </linearGradient>
    <clipPath
       id="clipPath-429196716">
      <g
         id="g10977"
         transform="translate(0,-1004.3622)">
        <path
           id="path10979"
           fill="#1890d0"
           transform="matrix(15.333333,0,0,11.5,414.99999,878.8622)"
           d="m -24 13 c 0 1.105 -0.672 2 -1.5 2 -0.828 0 -1.5 -0.895 -1.5 -2 0 -1.105 0.672 -2 1.5 -2 0.828 0 1.5 0.895 1.5 2 z" />
      </g>
    </clipPath>
    <clipPath
       id="clipPath-420376025">
      <g
         id="g10972"
         transform="translate(0,-1004.3622)">
        <path
           id="path10974"
           fill="#1890d0"
           transform="matrix(15.333333,0,0,11.5,414.99999,878.8622)"
           d="m -24 13 c 0 1.105 -0.672 2 -1.5 2 -0.828 0 -1.5 -0.895 -1.5 -2 0 -1.105 0.672 -2 1.5 -2 0.828 0 1.5 0.895 1.5 2 z" />
      </g>
    </clipPath>
    <linearGradient
       gradientTransform="matrix(0,-1,1,0,-1.5e-6,47.999998)"
       gradientUnits="userSpaceOnUse"
       x2="47"
       x1="1"
       id="linearGradient3764">
      <stop
         id="stop10967"
         stop-opacity="1"
         stop-color="#e4e4e4" />
      <stop
         id="stop10969"
         stop-opacity="1"
         stop-color="#eee"
         offset="1" />
    </linearGradient>
    <clipPath
       id="clipPath-070355160">
      <g
         id="g11986"
         transform="translate(0,-1004.3622)">
        <path
           id="path11988"
           fill="#1890d0"
           transform="matrix(15.333333,0,0,11.5,414.99999,878.8622)"
           d="m -24 13 c 0 1.105 -0.672 2 -1.5 2 -0.828 0 -1.5 -0.895 -1.5 -2 0 -1.105 0.672 -2 1.5 -2 0.828 0 1.5 0.895 1.5 2 z" />
      </g>
    </clipPath>
    <clipPath
       id="clipPath-065329906">
      <g
         id="g11981"
         transform="translate(0,-1004.3622)">
        <path
           id="path11983"
           fill="#1890d0"
           transform="matrix(15.333333,0,0,11.5,414.99999,878.8622)"
           d="m -24 13 c 0 1.105 -0.672 2 -1.5 2 -0.828 0 -1.5 -0.895 -1.5 -2 0 -1.105 0.672 -2 1.5 -2 0.828 0 1.5 0.895 1.5 2 z" />
      </g>
    </clipPath>
    <linearGradient
       gradientTransform="matrix(0,-1,1,0,-1.5e-6,47.999998)"
       gradientUnits="userSpaceOnUse"
       x2="47"
       x1="1"
       id="linearGradient3764-6">
      <stop
         id="stop11976"
         stop-opacity="1"
         stop-color="#bdc7db" />
      <stop
         id="stop11978"
         stop-opacity="1"
         stop-color="#cad2e2"
         offset="1" />
    </linearGradient>
  </defs>
  <sodipodi:namedview
     pagecolor="#ffffff"
     bordercolor="#666666"
     borderopacity="1"
     objecttolerance="10"
     gridtolerance="10"
     guidetolerance="10"
     inkscape:pageopacity="0"
     inkscape:pageshadow="2"
     inkscape:window-width="1316"
     inkscape:window-height="674"
     id="namedview4"
     showgrid="false"
     inkscape:zoom="3.6875"
     inkscape:cx="-15.186441"
     inkscape:cy="32"
     inkscape:window-x="44"
     inkscape:window-y="29"
     inkscape:window-maximized="1"
     inkscape:current-layer="svg2" />
  <rect
     style="fill:#000000;fill-opacity:1;stroke:#000000;stroke-width:0.53665989999999997;stroke-linecap:round;stroke-linejoin:round;stroke-miterlimit:4;stroke-opacity:1;stroke-dasharray:none"
     id="rect3005"
     width="59.081985"
     height="59.624359"
     x="2.4590092"
     y="2.1878221"
     ry="5.9392786"
     rx="5.9392786" />
  <g
     id="g11030"
     transform="translate(-116.4312,-10.669492)" />
  <g
     id="g12002"
     transform="translate(-120.22781,-23.957627)" />
  <g
     id="g12016"
     transform="matrix(1.6467499,0,0,2.30176,-7.2084071,-24.283962)"
     style="fill:#ffffff">
    <g
       clip-path="url(#clipPath-070355160)"
       id="g12018"
       style="fill:#ffffff">
      <!-- color: #cad2e2 -->
      <g
         id="g12020"
         style="fill:#ffffff">
        <path
           style="fill:#ffffff;fill-opacity:1;fill-rule:nonzero;stroke:none"
           inkscape:connector-curvature="0"
           d="m 28.332,14 2.891,0 c 4.336,0 4.336,4.285 4.336,4.285 l 0,4.238 c 0,1.43 -2.895,4.336 -2.895,4.336 l 0,1.426 4.336,2.855 0,2.859 -15.891,0 0,-2.859 5.781,-2.855 0,-1.426 c 0,0 -2.902,-2.902 -2.891,-4.336 l 0,-4.238 c 0,0 0,-4.285 4.332,-4.285 m -10.11,2.859 2.887,0 0,5.668 c 0,1.43 2.895,4.336 2.895,4.336 l -5.777,2.855 0,2.859 -7.223,-0.043 0,-1.43 5.773,-2.816 0,-1.426 c 0,0 -2.898,-2.898 -2.887,-4.332 l 0,-1.387 c 0,-4.281 4.332,-4.281 4.332,-4.281 m 0,-0.008"
           id="path12022" />
      </g>
    </g>
  </g>
</svg>
