<?xml version="1.0" encoding="UTF-8" standalone="no"?>
<!-- Created with Inkscape (http://www.inkscape.org/) -->

<svg
   xmlns:dc="http://purl.org/dc/elements/1.1/"
   xmlns:cc="http://creativecommons.org/ns#"
   xmlns:rdf="http://www.w3.org/1999/02/22-rdf-syntax-ns#"
   xmlns:svg="http://www.w3.org/2000/svg"
   xmlns="http://www.w3.org/2000/svg"
   xmlns:xlink="http://www.w3.org/1999/xlink"
   xmlns:sodipodi="http://sodipodi.sourceforge.net/DTD/sodipodi-0.dtd"
   xmlns:inkscape="http://www.inkscape.org/namespaces/inkscape"
   id="svg2"
   version="1.1"
   inkscape:version="0.48.4 r9939"
   width="64"
   height="64"
   sodipodi:docname="UBUNTU_TWEAKS.svg">
  <metadata
     id="metadata8">
    <rdf:RDF>
      <cc:Work
         rdf:about="">
        <dc:format>image/svg+xml</dc:format>
        <dc:type
           rdf:resource="http://purl.org/dc/dcmitype/StillImage" />
        <dc:title></dc:title>
      </cc:Work>
    </rdf:RDF>
  </metadata>
  <defs
     id="defs6">
    <linearGradient
       xlink:href="#linear0"
       gradientTransform="matrix(2.109118,0,0,2.14076,-18.761917,-596.802139)"
       x2="25.532"
       x1="21.358"
       gradientUnits="userSpaceOnUse"
       id="linearGradient11016" />
    <linearGradient
       xlink:href="#linear0"
       gradientTransform="matrix(2.109118,0,0,2.14076,-18.761917,-596.802139)"
       x2="23.508"
       x1="19.678"
       gradientUnits="userSpaceOnUse"
       id="linearGradient11014" />
    <linearGradient
       xlink:href="#linear0"
       gradientTransform="matrix(2.109118,0,0,2.14076,-18.761917,-596.802139)"
       x2="21.51"
       x1="15.259"
       gradientUnits="userSpaceOnUse"
       id="linearGradient11012" />
    <linearGradient
       xlink:href="#linear2"
       gradientTransform="matrix(2.109118,0,0,2.14076,-18.761917,-596.802139)"
       x2="19.854"
       x1="14.11"
       gradientUnits="userSpaceOnUse"
       id="linearGradient11010" />
    <linearGradient
       gradientTransform="matrix(2.109118,0,0,2.14076,-18.761917,-596.802139)"
       x2="18.59"
       x1="15.448"
       gradientUnits="userSpaceOnUse"
       id="linearGradient11004">
      <stop
         id="stop11006"
         stop-opacity="1"
         stop-color="#787878" />
      <stop
         id="stop11008"
         stop-opacity="1"
         stop-color="#9c9c9c"
         offset="1" />
    </linearGradient>
    <linearGradient
       xlink:href="#linear0"
       gradientTransform="matrix(2.109118,0,0,2.14076,-18.761917,-596.802139)"
       x2="26.439"
       x1="18.15"
       gradientUnits="userSpaceOnUse"
       id="linearGradient11002" />
    <linearGradient
       gradientTransform="matrix(2.109118,0,0,2.14076,-18.761917,-596.802139)"
       x2="26.06"
       x1="19.54"
       gradientUnits="userSpaceOnUse"
       id="linearGradient10996">
      <stop
         id="stop10998"
         stop-opacity="1"
         stop-color="#369dcf" />
      <stop
         id="stop11000"
         stop-opacity="1"
         stop-color="#116995"
         offset="1" />
    </linearGradient>
    <linearGradient
       xlink:href="#linear0"
       gradientTransform="matrix(2.109118,0,0,2.14076,-18.761917,-596.80214)"
       x2="25.532"
       x1="21.358"
       gradientUnits="userSpaceOnUse"
       id="linear6" />
    <linearGradient
       xlink:href="#linear0"
       gradientTransform="matrix(2.109118,0,0,2.14076,-18.761917,-596.80214)"
       x2="23.508"
       x1="19.678"
       gradientUnits="userSpaceOnUse"
       id="linear5" />
    <linearGradient
       xlink:href="#linear0"
       gradientTransform="matrix(2.109118,0,0,2.14076,-18.761917,-596.80214)"
       x2="21.51"
       x1="15.259"
       gradientUnits="userSpaceOnUse"
       id="linear4" />
    <linearGradient
       xlink:href="#linear2"
       gradientTransform="matrix(2.109118,0,0,2.14076,-18.761917,-596.80214)"
       x2="19.854"
       x1="14.11"
       gradientUnits="userSpaceOnUse"
       id="linear3" />
    <linearGradient
       gradientTransform="matrix(2.109118,0,0,2.14076,-18.761917,-596.802139)"
       x2="18.59"
       x1="15.448"
       gradientUnits="userSpaceOnUse"
       id="linear2">
      <stop
         id="stop10988"
         stop-opacity="1"
         stop-color="#787878" />
      <stop
         id="stop10990"
         stop-opacity="1"
         stop-color="#9c9c9c"
         offset="1" />
    </linearGradient>
    <linearGradient
       xlink:href="#linear0"
       gradientTransform="matrix(2.109118,0,0,2.14076,-18.761917,-596.80214)"
       x2="26.439"
       x1="18.15"
       gradientUnits="userSpaceOnUse"
       id="linear1" />
    <linearGradient
       gradientTransform="matrix(2.109118,0,0,2.14076,-18.761917,-596.802139)"
       x2="26.06"
       x1="19.54"
       gradientUnits="userSpaceOnUse"
       id="linear0">
      <stop
         id="stop10982"
         stop-opacity="1"
         stop-color="#369dcf" />
      <stop
         id="stop10984"
         stop-opacity="1"
         stop-color="#116995"
         offset="1" />
    </linearGradient>
    <clipPath
       id="clipPath-429196716">
      <g
         id="g10977"
         transform="translate(0,-1004.3622)">
        <path
           id="path10979"
           fill="#1890d0"
           transform="matrix(15.333333,0,0,11.5,414.99999,878.8622)"
           d="m -24 13 c 0 1.105 -0.672 2 -1.5 2 -0.828 0 -1.5 -0.895 -1.5 -2 0 -1.105 0.672 -2 1.5 -2 0.828 0 1.5 0.895 1.5 2 z" />
      </g>
    </clipPath>
    <clipPath
       id="clipPath-420376025">
      <g
         id="g10972"
         transform="translate(0,-1004.3622)">
        <path
           id="path10974"
           fill="#1890d0"
           transform="matrix(15.333333,0,0,11.5,414.99999,878.8622)"
           d="m -24 13 c 0 1.105 -0.672 2 -1.5 2 -0.828 0 -1.5 -0.895 -1.5 -2 0 -1.105 0.672 -2 1.5 -2 0.828 0 1.5 0.895 1.5 2 z" />
      </g>
    </clipPath>
    <linearGradient
       gradientTransform="matrix(0,-1,1,0,-1.5e-6,47.999998)"
       gradientUnits="userSpaceOnUse"
       x2="47"
       x1="1"
       id="linearGradient3764">
      <stop
         id="stop10967"
         stop-opacity="1"
         stop-color="#e4e4e4" />
      <stop
         id="stop10969"
         stop-opacity="1"
         stop-color="#eee"
         offset="1" />
    </linearGradient>
    <clipPath
       id="clipPath-070355160">
      <g
         id="g11986"
         transform="translate(0,-1004.3622)">
        <path
           id="path11988"
           fill="#1890d0"
           transform="matrix(15.333333,0,0,11.5,414.99999,878.8622)"
           d="m -24 13 c 0 1.105 -0.672 2 -1.5 2 -0.828 0 -1.5 -0.895 -1.5 -2 0 -1.105 0.672 -2 1.5 -2 0.828 0 1.5 0.895 1.5 2 z" />
      </g>
    </clipPath>
    <clipPath
       id="clipPath-065329906">
      <g
         id="g11981"
         transform="translate(0,-1004.3622)">
        <path
           id="path11983"
           fill="#1890d0"
           transform="matrix(15.333333,0,0,11.5,414.99999,878.8622)"
           d="m -24 13 c 0 1.105 -0.672 2 -1.5 2 -0.828 0 -1.5 -0.895 -1.5 -2 0 -1.105 0.672 -2 1.5 -2 0.828 0 1.5 0.895 1.5 2 z" />
      </g>
    </clipPath>
    <linearGradient
       gradientTransform="matrix(0,-1,1,0,-1.5e-6,47.999998)"
       gradientUnits="userSpaceOnUse"
       x2="47"
       x1="1"
       id="linearGradient3764-6">
      <stop
         id="stop11976"
         stop-opacity="1"
         stop-color="#bdc7db" />
      <stop
         id="stop11978"
         stop-opacity="1"
         stop-color="#cad2e2"
         offset="1" />
    </linearGradient>
    <clipPath
       id="clipPath-034436465">
      <g
         id="g17318"
         transform="translate(0,-1004.3622)">
        <path
           id="path17320"
           fill="#1890d0"
           transform="matrix(15.333333,0,0,11.5,414.99999,878.8622)"
           d="m -24 13 c 0 1.105 -0.672 2 -1.5 2 -0.828 0 -1.5 -0.895 -1.5 -2 0 -1.105 0.672 -2 1.5 -2 0.828 0 1.5 0.895 1.5 2 z" />
      </g>
    </clipPath>
    <clipPath
       id="clipPath-023986373">
      <g
         id="g17313"
         transform="translate(0,-1004.3622)">
        <path
           id="path17315"
           fill="#1890d0"
           transform="matrix(15.333333,0,0,11.5,414.99999,878.8622)"
           d="m -24 13 c 0 1.105 -0.672 2 -1.5 2 -0.828 0 -1.5 -0.895 -1.5 -2 0 -1.105 0.672 -2 1.5 -2 0.828 0 1.5 0.895 1.5 2 z" />
      </g>
    </clipPath>
    <linearGradient
       gradientTransform="matrix(0,-1,1,0,-1.5e-6,47.999998)"
       gradientUnits="userSpaceOnUse"
       x2="47"
       x1="1"
       id="linearGradient3764-2">
      <stop
         id="stop17308"
         stop-opacity="1"
         stop-color="#73cf19" />
      <stop
         id="stop17310"
         stop-opacity="1"
         stop-color="#7de21b"
         offset="1" />
    </linearGradient>
    <clipPath
       id="clipPath-831301061">
      <g
         id="g17782"
         transform="translate(0,-1004.3622)">
        <path
           id="path17784"
           fill="#1890d0"
           transform="matrix(15.333333,0,0,11.5,414.99999,878.8622)"
           d="m -24 13 c 0 1.105 -0.672 2 -1.5 2 -0.828 0 -1.5 -0.895 -1.5 -2 0 -1.105 0.672 -2 1.5 -2 0.828 0 1.5 0.895 1.5 2 z" />
      </g>
    </clipPath>
    <clipPath
       id="clipPath-821841841">
      <g
         id="g17777"
         transform="translate(0,-1004.3622)">
        <path
           id="path17779"
           fill="#1890d0"
           transform="matrix(15.333333,0,0,11.5,414.99999,878.8622)"
           d="m -24 13 c 0 1.105 -0.672 2 -1.5 2 -0.828 0 -1.5 -0.895 -1.5 -2 0 -1.105 0.672 -2 1.5 -2 0.828 0 1.5 0.895 1.5 2 z" />
      </g>
    </clipPath>
    <linearGradient
       gradientTransform="matrix(0,-1,1,0,-1.5e-6,47.999998)"
       gradientUnits="userSpaceOnUse"
       x2="47"
       x1="1"
       id="linearGradient3764-7">
      <stop
         id="stop17772"
         stop-opacity="1"
         stop-color="#f2521a" />
      <stop
         id="stop17774"
         stop-opacity="1"
         stop-color="#f3612d"
         offset="1" />
    </linearGradient>
    <clipPath
       id="clipPath-396658615">
      <g
         id="g20210"
         transform="translate(0,-1004.3622)">
        <path
           id="path20212"
           fill="#1890d0"
           transform="matrix(15.333333,0,0,11.5,414.99999,878.8622)"
           d="m -24 13 c 0 1.105 -0.672 2 -1.5 2 -0.828 0 -1.5 -0.895 -1.5 -2 0 -1.105 0.672 -2 1.5 -2 0.828 0 1.5 0.895 1.5 2 z" />
      </g>
    </clipPath>
    <clipPath
       id="clipPath-384477835">
      <g
         id="g20205"
         transform="translate(0,-1004.3622)">
        <path
           id="path20207"
           fill="#1890d0"
           transform="matrix(15.333333,0,0,11.5,414.99999,878.8622)"
           d="m -24 13 c 0 1.105 -0.672 2 -1.5 2 -0.828 0 -1.5 -0.895 -1.5 -2 0 -1.105 0.672 -2 1.5 -2 0.828 0 1.5 0.895 1.5 2 z" />
      </g>
    </clipPath>
    <linearGradient
       gradientTransform="matrix(0,-1,1,0,-1.5e-6,47.999998)"
       gradientUnits="userSpaceOnUse"
       x2="47"
       x1="1"
       id="linearGradient3764-1">
      <stop
         id="stop20200"
         stop-opacity="1"
         stop-color="#e4e4e4" />
      <stop
         id="stop20202"
         stop-opacity="1"
         stop-color="#eee"
         offset="1" />
    </linearGradient>
  </defs>
  <sodipodi:namedview
     pagecolor="#ffffff"
     bordercolor="#666666"
     borderopacity="1"
     objecttolerance="10"
     gridtolerance="10"
     guidetolerance="10"
     inkscape:pageopacity="0"
     inkscape:pageshadow="2"
     inkscape:window-width="1316"
     inkscape:window-height="674"
     id="namedview4"
     showgrid="false"
     inkscape:zoom="3.6875"
     inkscape:cx="-15.186441"
     inkscape:cy="32"
     inkscape:window-x="44"
     inkscape:window-y="29"
     inkscape:window-maximized="1"
     inkscape:current-layer="svg2" />
  <rect
     style="fill:#000000;fill-opacity:1;stroke:#000000;stroke-width:0.53665989999999997;stroke-linecap:round;stroke-linejoin:round;stroke-miterlimit:4;stroke-opacity:1;stroke-dasharray:none"
     id="rect3005"
     width="59.081985"
     height="59.624359"
     x="2.4590092"
     y="2.1878221"
     ry="5.9392786"
     rx="5.9392786" />
  <g
     id="g11030"
     transform="translate(-116.4312,-10.669492)" />
  <g
     id="g12002"
     transform="translate(-120.22781,-23.957627)" />
  <g
     id="g17334"
     transform="translate(-122.12612,-7.1440678)" />
  <g
     id="g17798"
     transform="translate(-107.21086,-6.059322)" />
  <g
     id="g20226"
     transform="translate(-113.44815,-13.652542)" />
  <g
     id="g20256"
     transform="matrix(1.4609768,0,0,1.5152356,-2.6131805,-6.0862645)"
     style="fill:#ffffff">
    <g
       clip-path="url(#clipPath-396658615)"
       id="g20258"
       style="fill:#ffffff">
      <!-- color: #eeeeee -->
      <g
         id="g20260"
         style="fill:#ffffff">
        <path
           style="fill:#ffffff;fill-opacity:1;fill-rule:nonzero;stroke:none"
           inkscape:connector-curvature="0"
           d="m 19.969,9.555 c 2.566,-0.719 5.332,-0.758 8.03,-0.008 l -1.402,3.398 c -1.754,-0.418 -3.539,-0.395 -5.219,0.004 m -1.41,-3.395"
           id="path20262" />
        <path
           style="fill:#ffffff;fill-opacity:1;fill-rule:nonzero;stroke:none"
           inkscape:connector-curvature="0"
           d="m 29.961,14.332 c 1.535,0.941 2.785,2.215 3.691,3.688 l 3.395,-1.41 c -1.309,-2.32 -3.242,-4.305 -5.684,-5.676 m -1.402,3.398"
           id="path20264" />
        <path
           style="fill:#ffffff;fill-opacity:1;fill-rule:nonzero;stroke:none"
           inkscape:connector-curvature="0"
           d="m 37.07,31.367 -3.398,-1.406 c -0.941,1.535 -2.215,2.785 -3.684,3.695 l 1.41,3.391 c 2.316,-1.309 4.301,-3.242 5.672,-5.68 m 0,0"
           id="path20266" />
        <path
           style="fill:#ffffff;fill-opacity:1;fill-rule:nonzero;stroke:none"
           inkscape:connector-curvature="0"
           d="m 35.05,21.379 c 0.398,1.68 0.422,3.465 0.008,5.219 L 38.456,28 c 0.75,-2.695 0.707,-5.469 -0.012,-8.03 m -3.395,1.41"
           id="path20268" />
        <path
           style="fill:#ffffff;fill-opacity:1;fill-rule:nonzero;stroke:none"
           inkscape:connector-curvature="0"
           d="m 14.332,18.04 c 0.941,-1.535 2.215,-2.785 3.684,-3.691 l -1.41,-3.395 c -2.316,1.309 -4.301,3.246 -5.672,5.684 m 3.398,1.402"
           id="path20270" />
        <path
           style="fill:#ffffff;fill-opacity:1;fill-rule:nonzero;stroke:none"
           inkscape:connector-curvature="0"
           d="m 26.621,35.05 c -1.68,0.398 -3.465,0.422 -5.215,0.008 L 20,38.456 c 2.699,0.75 5.469,0.707 8.03,-0.012 m -1.41,-3.395"
           id="path20272" />
        <path
           style="fill:#ffffff;fill-opacity:1;fill-rule:nonzero;stroke:none"
           inkscape:connector-curvature="0"
           d="m 18.04,33.668 c -1.535,-0.941 -2.785,-2.215 -3.691,-3.684 l -3.395,1.41 c 1.309,2.316 3.246,4.301 5.684,5.672 m 1.402,-3.398"
           id="path20274" />
        <path
           style="fill:#ffffff;fill-opacity:1;fill-rule:nonzero;stroke:none"
           inkscape:connector-curvature="0"
           d="m 12.949,26.621 c -0.398,-1.68 -0.422,-3.465 -0.004,-5.215 L 9.547,20.004 c -0.754,2.695 -0.711,5.465 0.008,8.03 m 3.395,-1.41"
           id="path20276" />
        <path
           style="fill:#ffffff;fill-opacity:1;fill-rule:nonzero;stroke:none"
           inkscape:connector-curvature="0"
           d="m 24.13,10.563 -1.125,4.5 c -4.508,0.492 -8,4.301 -8,8.938 0,4.973 4.03,9 9,9 3.512,0 6.484,-2.066 7.969,-5 L 28.443,26.22 c -0.824,1.629 -2.477,2.781 -4.438,2.781 -2.762,0 -5,-2.238 -5,-5 0,-2.762 2.238,-5 5,-5 1.949,0 3.613,1.152 4.438,2.781 l 3.5,-1.75 C 30.638,17.466 28.228,15.544 25.255,15.126 M 24.13,10.563"
           id="path20278" />
      </g>
    </g>
  </g>
</svg>
