<?xml version="1.0" encoding="UTF-8" standalone="no"?>
<!-- Created with Inkscape (http://www.inkscape.org/) -->

<svg
   xmlns:dc="http://purl.org/dc/elements/1.1/"
   xmlns:cc="http://creativecommons.org/ns#"
   xmlns:rdf="http://www.w3.org/1999/02/22-rdf-syntax-ns#"
   xmlns:svg="http://www.w3.org/2000/svg"
   xmlns="http://www.w3.org/2000/svg"
   xmlns:sodipodi="http://sodipodi.sourceforge.net/DTD/sodipodi-0.dtd"
   xmlns:inkscape="http://www.inkscape.org/namespaces/inkscape"
   id="svg2"
   version="1.1"
   inkscape:version="0.48.4 r9939"
   width="64"
   height="64"
   sodipodi:docname="base.svg">
  <metadata
     id="metadata8">
    <rdf:RDF>
      <cc:Work
         rdf:about="">
        <dc:format>image/svg+xml</dc:format>
        <dc:type
           rdf:resource="http://purl.org/dc/dcmitype/StillImage" />
        <dc:title></dc:title>
      </cc:Work>
    </rdf:RDF>
  </metadata>
  <defs
     id="defs6" />
  <sodipodi:namedview
     pagecolor="#ffffff"
     bordercolor="#666666"
     borderopacity="1"
     objecttolerance="10"
     gridtolerance="10"
     guidetolerance="10"
     inkscape:pageopacity="0"
     inkscape:pageshadow="2"
     inkscape:window-width="1316"
     inkscape:window-height="674"
     id="namedview4"
     showgrid="false"
     inkscape:zoom="3.6875"
     inkscape:cx="-15.186441"
     inkscape:cy="32"
     inkscape:window-x="44"
     inkscape:window-y="29"
     inkscape:window-maximized="1"
     inkscape:current-layer="svg2" />
  <rect
     style="fill:#000000;fill-opacity:1;stroke:#000000;stroke-width:0.53665989999999997;stroke-linecap:round;stroke-linejoin:round;stroke-miterlimit:4;stroke-opacity:1;stroke-dasharray:none"
     id="rect3005"
     width="59.081985"
     height="59.624359"
     x="2.4590092"
     y="2.1878221"
     ry="5.9392786"
     rx="5.9392786" />
  <g
     id="g3765"
     transform="matrix(1.4490322,0,0,1.4659843,9.4877566,7.5899673)"
     style="fill:#ffffff">
    <g
       id="icomoon-ignore"
       style="fill:#ffffff" />
    <path
       id="path3757"
       d="m 21.951,1.15 c -8.202,-3.284 -17.515,0.702 -20.8,8.905 -3.286,8.204 0.702,17.518 8.905,20.802 8.203,3.284 17.516,-0.702 20.801,-8.905 C 34.143,13.748 30.154,4.436 21.951,1.15 z M 10.8,29.001 C 3.634,26.131 0.138,17.967 3.007,10.8 5.876,3.633 14.042,0.137 21.209,3.008 28.375,5.877 31.871,14.042 29.002,21.208 26.131,28.375 17.967,31.87 10.8,29.001 z m 5.949,-14.854 c -1.025,-0.411 -2.19,0.088 -2.601,1.113 -0.411,1.025 0.088,2.189 1.112,2.6 1.025,0.411 2.191,-0.088 2.601,-1.112 0.41,-1.024 -0.088,-2.189 -1.112,-2.601 z m -1.117,2.786 c -0.512,-0.206 -0.761,-0.788 -0.557,-1.301 0.206,-0.512 0.789,-0.761 1.301,-0.557 0.511,0.205 0.76,0.788 0.556,1.301 -0.204,0.513 -0.788,0.761 -1.3,0.557 z m 2.602,-6.498 c -3.076,-1.232 -6.568,0.264 -7.8,3.339 -1.232,3.075 0.264,6.568 3.339,7.8 3.076,1.232 6.568,-0.263 7.8,-3.339 1.232,-3.076 -0.262,-6.569 -3.339,-7.8 z m -3.716,9.282 c -2.048,-0.819 -3.046,-3.153 -2.227,-5.2 0.82,-2.047 3.152,-3.046 5.199,-2.227 2.049,0.82 3.047,3.154 2.229,5.201 -0.821,2.047 -3.154,3.047 -5.201,2.226 z m 8.914,-0.739 H 23.43 c -0.817,2.039 -2.383,3.556 -4.256,4.366 -0.007,0.003 -0.011,0.011 -0.021,0.015 -0.254,0.108 -0.547,-0.009 -0.656,-0.264 -0.109,-0.253 0.01,-0.547 0.262,-0.655 1.646,-0.705 3.025,-2.038 3.744,-3.834 v 10e-4 c 0.103,-0.257 0.394,-0.382 0.65,-0.278 0.256,0.102 0.381,0.393 0.279,0.649 z m 3.433,0.836 c 0.256,0.103 0.381,0.394 0.279,0.65 -1.225,3.058 -3.576,5.335 -6.385,6.548 -0.012,0.005 -0.021,0.016 -0.033,0.022 -0.254,0.108 -0.547,-0.008 -0.656,-0.263 -0.109,-0.254 0.01,-0.548 0.262,-0.656 2.588,-1.108 4.754,-3.203 5.883,-6.023 0.103,-0.256 0.394,-0.381 0.65,-0.278 z m -1.857,-0.743 c 0.256,0.103 0.381,0.394 0.279,0.65 -1.021,2.549 -2.98,4.445 -5.32,5.456 -0.011,0.006 -0.017,0.015 -0.027,0.02 -0.254,0.108 -0.547,-0.009 -0.656,-0.263 -0.109,-0.254 0.01,-0.548 0.264,-0.657 h -0.002 c 2.119,-0.907 3.89,-2.62 4.812,-4.928 0.103,-0.257 0.394,-0.381 0.65,-0.278 z M 13.513,8.912 C 13.622,9.167 13.504,9.46 13.25,9.57 11.604,10.274 10.225,11.608 9.507,13.402 H 9.506 C 9.404,13.658 9.113,13.783 8.856,13.68 8.599,13.577 8.475,13.287 8.578,13.03 H 8.579 C 9.395,10.992 10.962,9.474 12.835,8.664 12.842,8.661 12.847,8.653 12.856,8.65 13.11,8.541 13.404,8.657 13.513,8.912 z M 11.938,5.235 C 12.047,5.489 11.929,5.782 11.676,5.892 9.088,7 6.923,9.095 5.793,11.914 5.69,12.171 5.399,12.295 5.143,12.192 4.887,12.089 4.761,11.799 4.865,11.541 6.09,8.483 8.44,6.207 11.25,4.993 c 0.01,-0.005 0.019,-0.016 0.031,-0.021 0.254,-0.108 0.548,0.009 0.657,0.263 z m 0.524,2.494 V 7.732 C 10.345,8.638 8.573,10.352 7.65,12.66 7.547,12.917 7.256,13.04 7,12.938 6.745,12.834 6.619,12.544 6.723,12.287 c 1.02,-2.548 2.979,-4.446 5.32,-5.458 0.01,-0.004 0.016,-0.014 0.026,-0.018 0.254,-0.109 0.548,0.009 0.657,0.262 0.109,0.255 -0.01,0.548 -0.263,0.656 z"
       inkscape:connector-curvature="0"
       style="fill:#ffffff" />
  </g>
</svg>
