<?xml version="1.0" encoding="UTF-8" standalone="no"?>
<!-- Created with Inkscape (http://www.inkscape.org/) -->

<svg
   xmlns:dc="http://purl.org/dc/elements/1.1/"
   xmlns:cc="http://creativecommons.org/ns#"
   xmlns:rdf="http://www.w3.org/1999/02/22-rdf-syntax-ns#"
   xmlns:svg="http://www.w3.org/2000/svg"
   xmlns="http://www.w3.org/2000/svg"
   xmlns:sodipodi="http://sodipodi.sourceforge.net/DTD/sodipodi-0.dtd"
   xmlns:inkscape="http://www.inkscape.org/namespaces/inkscape"
   id="svg2"
   version="1.1"
   inkscape:version="0.48.4 r9939"
   width="64"
   height="64"
   sodipodi:docname="dconf-editor.svg">
  <metadata
     id="metadata8">
    <rdf:RDF>
      <cc:Work
         rdf:about="">
        <dc:format>image/svg+xml</dc:format>
        <dc:type
           rdf:resource="http://purl.org/dc/dcmitype/StillImage" />
        <dc:title />
      </cc:Work>
    </rdf:RDF>
  </metadata>
  <defs
     id="defs6" />
  <sodipodi:namedview
     pagecolor="#ffffff"
     bordercolor="#666666"
     borderopacity="1"
     objecttolerance="10"
     gridtolerance="10"
     guidetolerance="10"
     inkscape:pageopacity="0"
     inkscape:pageshadow="2"
     inkscape:window-width="1322"
     inkscape:window-height="717"
     id="namedview4"
     showgrid="false"
     inkscape:zoom="3.6875"
     inkscape:cx="-14.644068"
     inkscape:cy="32"
     inkscape:window-x="38"
     inkscape:window-y="24"
     inkscape:window-maximized="1"
     inkscape:current-layer="g3690" />
  <rect
     style="fill:#000000;fill-opacity:1;stroke:#000000;stroke-width:0.53665989999999997;stroke-linecap:round;stroke-linejoin:round;stroke-miterlimit:4;stroke-opacity:1;stroke-dasharray:none"
     id="rect3005"
     width="59.081985"
     height="59.624359"
     x="2.4590092"
     y="2.1878221"
     ry="5.9392786"
     rx="5.9392786" />
  <rect
     style="fill:#000000;fill-opacity:1;stroke:#ffffff;stroke-width:2.12879419;stroke-miterlimit:4;stroke-opacity:0.97560975;stroke-dasharray:none"
     id="rect2985"
     width="48.413582"
     height="50.583069"
     x="8.1999893"
     y="6.5728707"
     rx="6.3491631"
     ry="6.2944565" />
  <g
     id="g3690"
     transform="matrix(1.1355932,0,0,1.1271187,14.915254,14.915254)"
     style="fill:#ffffff">
    <g
       id="icomoon-ignore"
       style="fill:#ffffff" />
    <path
       id="path3682"
       d="M 6.1556712,24.134671 3.1572999,24.1573 c -1.6416108,0.01239 -2.96744643,1.378554 -2.95505717,3.044943 0.0123893,1.666389 1.35838927,3.012389 3.00000007,3 l 2.9983713,-0.02263 c 0.9171947,1.210195 2.3453933,1.997393 3.9641759,1.985176 1.618784,-0.01222 3.035117,-0.820883 3.93223,-2.04477 l 14.910471,-0.11253 c 1.64161,-0.01239 2.967446,-1.378553 2.955057,-3.044943 -0.01239,-1.666389 -1.358389,-3.012389 -3,-3 l -14.910471,0.11253 C 13.13786,22.86486 11.708669,22.077669 10.089886,22.089886 8.4711026,22.102103 7.0547689,22.910769 6.1556712,24.134671 z m -2.9684094,4.052591 c -0.5488578,0.0041 -0.9958578,-0.442858 -1,-1 -0.00414,-0.557142 0.4361613,-1.010839 0.9850191,-1.014981 l 2.08427,-0.01573 c -0.062094,0.325906 -0.09433,0.66267 -0.09176,1.008239 0.00257,0.34557 0.039809,0.681809 0.1067414,1.006742 l -2.08427,0.01573 z M 28.977529,25.977528 c 0.548858,-0.0041 0.995858,0.442858 1,1 0.0041,0.557143 -0.436161,1.010839 -0.985019,1.014981 L 14.99614,28.09814 c 0.06408,-0.325921 0.09631,-0.662685 0.09375,-1.008254 -0.0026,-0.34557 -0.03981,-0.681809 -0.108727,-1.006727 l 13.99637,-0.105631 z M 10.939586,24.234586 c 0.05272,0.01572 0.104438,0.02944 0.157183,0.04818 0.262735,0.09373 0.511776,0.214776 0.733319,0.375319 0.006,0.004 0.01,0.01 0.01599,0.01399 0.23752,0.17352 0.448491,0.38049 0.626917,0.615917 0.004,0.004 0.006,0.007 0.008,0.01001 0.182442,0.241442 0.329364,0.511364 0.432764,0.801764 0.114499,0.314498 0.188454,0.649453 0.191098,1.005098 0.0026,0.355644 -0.06632,0.691677 -0.177117,1.008883 -0.09907,0.291929 -0.241962,0.564038 -0.420794,0.808206 -0.002,0.003 -0.0039,0.0061 -0.0079,0.01013 -0.174906,0.238093 -0.382775,0.448224 -0.617689,0.625311 -0.0059,0.0041 -0.0099,0.01015 -0.01578,0.01422 -0.220123,0.163877 -0.467337,0.288663 -0.727655,0.386345 -0.05246,0.01954 -0.103967,0.03403 -0.15645,0.05055 -0.264408,0.08159 -0.540906,0.139094 -0.831711,0.141288 -0.2927908,0.0022 -0.5701129,-0.05111 -0.8367047,-0.129704 -0.052723,-0.01572 -0.1044382,-0.02944 -0.1551985,-0.0482 -0.2627267,-0.09273 -0.5117679,-0.213768 -0.7353035,-0.375304 -0.00599,-0.004 -0.01,-0.01 -0.015985,-0.01399 -0.2355356,-0.173535 -0.4484906,-0.38049 -0.6269176,-0.615917 -0.00202,-0.004 -0.00601,-0.007 -0.00802,-0.01001 C 7.5922288,28.716229 7.4443149,28.446315 7.3399217,28.155922 7.2264086,27.840409 7.1524536,27.505454 7.1498095,27.149809 c -0.00264,-0.355644 0.066322,-0.691677 0.1751313,-1.008868 0.1010562,-0.291944 0.2439476,-0.564053 0.4207942,-0.808206 0.00196,-0.003 0.00591,-0.0061 0.00787,-0.01013 0.1749065,-0.238093 0.3847605,-0.448239 0.6176894,-0.625311 0.00593,-0.0041 0.00985,-0.01015 0.015775,-0.01422 0.2201236,-0.163877 0.4673372,-0.288663 0.7286556,-0.385345 0.050476,-0.01952 0.1019738,-0.03503 0.1544644,-0.05053 0.2653933,-0.08261 0.5418915,-0.140109 0.8346822,-0.142318 0.290805,-0.0022 0.568127,0.05113 0.834719,0.129719 z M 5.9908806,1.969881 2.9925093,1.9925098 C 1.3508985,2.004899 0.02506287,3.3710634 0.03745213,5.0374526 c 0.01238925,1.6663892 1.35838927,3.0123892 3.00000007,3 L 6.0358235,8.0148238 C 6.9530257,9.226026 8.3812168,10.012217 9.9999999,10 11.618783,9.9877831 13.035124,9.1801243 13.932229,7.9552295 L 28.8427,7.8427 c 1.641611,-0.012389 2.967447,-1.3785536 2.955057,-3.0449428 -0.01239,-1.6663892 -1.358389,-3.0123892 -3,-3 L 13.887286,1.9102867 C 12.973077,0.70107708 11.543878,-0.08712151 9.9250951,-0.07490453 8.306312,-0.06268756 6.8899858,0.74698624 5.9908806,1.969881 z M 3.0224712,6.0224716 c -0.5488578,0.00414 -0.9958578,-0.4428577 -1,-1 C 2.018329,4.4653294 2.4586325,4.0116329 3.0074903,4.0074907 l 2.08427,-0.01573 c -0.062086,0.3269138 -0.094322,0.6636778 -0.09176,1.0082395 0.00258,0.3465767 0.039816,0.6828164 0.1067414,1.0067414 l -2.08427,0.01573 z M 28.812738,3.8127382 c 0.548858,-0.00414 0.995858,0.4428577 1,0.9999999 0.0041,0.5571423 -0.436161,1.0108388 -0.985019,1.014981 L 14.83135,5.9333499 c 0.06409,-0.3249138 0.09632,-0.6616778 0.09375,-1.0082545 -0.0026,-0.3445618 -0.0398,-0.6808014 -0.108726,-1.0067265 L 28.812738,3.8127382 z M 10.774795,2.0697956 c 0.05272,0.015723 0.104446,0.030446 0.157184,0.048183 0.262741,0.094742 0.511775,0.2147754 0.733326,0.3763259 0.006,0.00399 0.01,0.01 0.01599,0.013985 0.23752,0.1735206 0.44849,0.3804906 0.62691,0.6149101 0.004,0.004 0.006,0.00801 0.008,0.010015 0.182449,0.2424495 0.329363,0.5113633 0.432764,0.801764 0.114498,0.3144981 0.18846,0.6504606 0.191097,1.0050972 0.0027,0.3566517 -0.06632,0.6916778 -0.177116,1.0088837 -0.09907,0.2919288 -0.241955,0.5650448 -0.420794,0.8082058 -0.002,0.00404 -0.0039,0.00607 -0.0079,0.010135 -0.174899,0.239101 -0.382768,0.449232 -0.617681,0.6263181 -0.0059,0.00407 -0.0099,0.01015 -0.01578,0.014225 -0.220131,0.1628689 -0.467337,0.2886628 -0.727663,0.3853369 -0.05245,0.020547 -0.103966,0.034034 -0.156449,0.05055 C 10.552322,7.9253226 10.275824,7.9828245 9.9850189,7.9850192 9.6922286,7.9872289 9.4149065,7.9339067 9.1483147,7.855315 9.0955918,7.8395921 9.043884,7.8268842 8.9931162,7.8071164 8.7303895,7.7143898 8.4813408,7.5923411 8.2578202,7.4328205 c -0.00598,-0.00399 -0.01,-0.01 -0.015985,-0.013985 C 8.0062996,7.2452999 7.7933445,7.0383448 7.6149101,6.8019104 c -0.00202,-0.00401 -0.006,-0.006 -0.00802,-0.010015 C 7.4264457,6.551446 7.2795169,6.2805172 7.1741311,5.9901314 7.061618,5.6756184 6.9876705,5.3416709 6.9850189,4.9850192 6.9823822,4.6303826 7.0513411,4.2933415 7.1601501,3.9761505 7.2612064,3.6842068 7.4041053,3.4131057 7.5809444,3.1679447 c 0.00197,-0.00203 0.00591,-0.00609 0.00787,-0.010135 0.1749139,-0.2370861 0.384768,-0.4472321 0.6176969,-0.6243032 0.00593,-0.00407 0.00985,-0.01015 0.015775,-0.014225 C 8.4443828,2.3543832 8.6916039,2.2306042 8.9519148,2.1319152 9.0023979,2.1133983 9.0548886,2.097889 9.1063792,2.0813796 9.3707875,1.9997879 9.6472857,1.9422861 9.940076,1.9400764 c 0.290805,-0.00219 0.568127,0.051127 0.834719,0.1297192 z M 17.98339,12.96239 3.0749046,13.074905 c -1.6416108,0.01239 -2.96744643,1.378553 -2.95505717,3.044943 0.0123892,1.666389 1.35838927,3.012389 3.00000007,3 L 18.028333,19.007333 c 0.916202,1.210202 2.345394,1.997393 3.964177,1.985176 1.618783,-0.01222 3.035116,-0.820883 3.932229,-2.04477 l 3.000356,-0.02264 c 1.641611,-0.01239 2.967447,-1.378553 2.955058,-3.044943 -0.01239,-1.666389 -1.35839,-3.012389 -3,-3 l -3.000357,0.02264 c -0.91421,-1.20921 -2.343408,-1.997408 -3.962191,-1.985191 -1.618783,0.01222 -3.035109,0.821891 -3.934215,2.044785 z M 3.1048665,17.104867 c -0.5488578,0.0041 -0.9958578,-0.442858 -1,-1 -0.00414,-0.557142 0.4361613,-1.010839 0.9850191,-1.014981 L 17.08427,14.98427 c -0.06109,0.326906 -0.09432,0.663678 -0.09176,1.00824 0.0026,0.345569 0.03981,0.681808 0.106741,1.006741 L 3.1048665,17.104867 z M 28.895133,14.895133 c 0.548858,-0.0041 0.995858,0.442858 1.000001,1 0.0041,0.557142 -0.436162,1.010839 -0.98502,1.014981 l -2.086255,0.01574 c 0.06408,-0.325921 0.09632,-0.662685 0.09375,-1.008254 -0.0026,-0.344562 -0.0398,-0.680802 -0.108727,-1.006727 l 2.086255,-0.01575 z m -6.127828,-1.832828 c 0.05272,0.01572 0.104446,0.03045 0.157184,0.04818 0.262741,0.09474 0.511775,0.214776 0.733325,0.376326 0.006,0.004 0.01,0.01 0.01599,0.01398 0.237521,0.173521 0.448491,0.380491 0.626911,0.61491 0.004,0.004 0.006,0.008 0.008,0.01001 0.182449,0.24245 0.329363,0.511364 0.432764,0.801764 0.114498,0.314499 0.18846,0.650461 0.191097,1.005098 0.0026,0.354636 -0.06632,0.691677 -0.177116,1.008883 -0.09907,0.291929 -0.241963,0.564038 -0.420795,0.808206 -0.002,0.003 -0.0039,0.0061 -0.0079,0.01014 -0.174906,0.238094 -0.382775,0.448225 -0.617689,0.625311 -0.0059,0.0041 -0.0099,0.01015 -0.01578,0.01422 -0.220124,0.163877 -0.467338,0.288663 -0.727656,0.386345 -0.05246,0.01954 -0.103966,0.03403 -0.15645,0.05055 -0.264408,0.08159 -0.540906,0.139094 -0.831711,0.141288 -0.292791,0.0022 -0.570113,-0.05111 -0.836705,-0.129704 -0.05272,-0.01572 -0.104438,-0.02944 -0.155198,-0.0482 -0.262734,-0.09373 -0.511775,-0.214776 -0.735304,-0.375304 -0.006,-0.004 -0.01,-0.01 -0.01599,-0.01399 -0.235535,-0.173535 -0.44849,-0.38049 -0.626917,-0.615917 -0.002,-0.004 -0.006,-0.007 -0.008,-0.01001 -0.180457,-0.241457 -0.327378,-0.511378 -0.432764,-0.801764 -0.112513,-0.314513 -0.186468,-0.649468 -0.189112,-1.005112 -0.0026,-0.354637 0.06632,-0.691678 0.175131,-1.008869 0.101056,-0.291944 0.243955,-0.563045 0.420794,-0.808206 0.002,-0.002 0.0059,-0.0061 0.0079,-0.01014 0.174914,-0.237086 0.384768,-0.447232 0.617697,-0.624303 0.0059,-0.0041 0.0099,-0.01015 0.01578,-0.01422 0.222102,-0.164898 0.469323,-0.288677 0.729634,-0.387367 0.05048,-0.01852 0.102973,-0.03403 0.154464,-0.05053 0.264408,-0.08159 0.540906,-0.139094 0.833697,-0.141303 0.290805,-0.0022 0.568127,0.05113 0.834719,0.129719 z"
       inkscape:connector-curvature="0"
       style="fill:#ffffff" />
  </g>
</svg>
