<?xml version="1.0" encoding="UTF-8" standalone="no"?>
<!-- Created with Inkscape (http://www.inkscape.org/) -->

<svg
   xmlns:dc="http://purl.org/dc/elements/1.1/"
   xmlns:cc="http://creativecommons.org/ns#"
   xmlns:rdf="http://www.w3.org/1999/02/22-rdf-syntax-ns#"
   xmlns:svg="http://www.w3.org/2000/svg"
   xmlns="http://www.w3.org/2000/svg"
   xmlns:sodipodi="http://sodipodi.sourceforge.net/DTD/sodipodi-0.dtd"
   xmlns:inkscape="http://www.inkscape.org/namespaces/inkscape"
   id="svg2"
   version="1.1"
   inkscape:version="0.48.4 r9939"
   width="64"
   height="64"
   sodipodi:docname="emesene.svg">
  <metadata
     id="metadata8">
    <rdf:RDF>
      <cc:Work
         rdf:about="">
        <dc:format>image/svg+xml</dc:format>
        <dc:type
           rdf:resource="http://purl.org/dc/dcmitype/StillImage" />
        <dc:title />
      </cc:Work>
    </rdf:RDF>
  </metadata>
  <defs
     id="defs6" />
  <sodipodi:namedview
     pagecolor="#ffffff"
     bordercolor="#666666"
     borderopacity="1"
     objecttolerance="10"
     gridtolerance="10"
     guidetolerance="10"
     inkscape:pageopacity="0"
     inkscape:pageshadow="2"
     inkscape:window-width="1316"
     inkscape:window-height="674"
     id="namedview4"
     showgrid="false"
     inkscape:zoom="3.6875"
     inkscape:cx="-15.186441"
     inkscape:cy="42.847458"
     inkscape:window-x="44"
     inkscape:window-y="29"
     inkscape:window-maximized="1"
     inkscape:current-layer="svg2" />
  <rect
     style="fill:#000000;fill-opacity:1;stroke:#000000;stroke-width:0.53665989999999997;stroke-linecap:round;stroke-linejoin:round;stroke-miterlimit:4;stroke-opacity:1;stroke-dasharray:none"
     id="rect3005"
     width="59.081985"
     height="59.624359"
     x="2.4590092"
     y="2.1878221"
     ry="5.9392786"
     rx="5.9392786" />
  <g
     id="g86235"
     transform="matrix(1.7050848,0,0,1.2311248,10.067796,31.214176)"
     style="fill:#ffffff">
    <g
       id="icomoon-ignore"
       style="fill:#ffffff" />
    <path
       id="path86227"
       d="m 20,18.8 c 0,0 -0.039,-3.787 -0.271,-4.179 -0.345,-0.585 -1.146,-0.986 -2.634,-1.608 -1.483,-0.62 -1.958,-1.144 -1.958,-2.263 0,-0.673 0.453,-0.453 0.652,-1.684 0.082,-0.511 0.482,-0.009 0.559,-1.174 0,-0.465 -0.218,-0.581 -0.218,-0.581 0,0 0.11,-0.688 0.154,-1.217 0.054,-0.66 -0.333,-2.363 -2.392,-2.363 -2.059,0 -2.444,1.704 -2.391,2.363 0.043,0.529 0.153,1.217 0.153,1.217 0,0 -0.218,0.116 -0.218,0.581 0.077,1.166 0.477,0.664 0.56,1.174 0.198,1.231 0.651,1.011 0.651,1.684 0,0.761 -0.22,1.247 -0.827,1.674 3.24,1.622 3.675,1.953 3.675,3.403 V 18.8 H 20 z M 10.224,13.575 C 8.245,12.749 7.614,12.051 7.614,10.558 7.614,9.662 8.218,9.954 8.483,8.312 8.592,7.631 9.127,8.301 9.228,6.747 c 0,-0.62 -0.291,-0.774 -0.291,-0.774 0,0 0.148,-0.917 0.206,-1.623 C 9.215,3.472 8.699,1.2 5.954,1.2 c -2.745,0 -3.26,2.271 -3.188,3.15 0.058,0.706 0.205,1.623 0.205,1.623 0,0 -0.29,0.154 -0.29,0.774 0.103,1.555 0.636,0.885 0.746,1.565 0.265,1.642 0.869,1.349 0.869,2.246 0,1.493 -0.633,2.191 -2.61,3.017 C 1.083,13.827 0,14.218 0,15.156 V 18.8 h 13.894 c 0,0 0,-2.155 0,-2.731 0,-0.857 -1.687,-1.664 -3.67,-2.494 z"
       inkscape:connector-curvature="0"
       style="fill:#ffffff" />
  </g>
  <g
     id="g86453"
     transform="translate(23.491525,4.6101696)"
     style="fill:#ff0000">
    <g
       id="icomoon-ignore-2"
       style="fill:#ff0000" />
    <path
       id="path86445"
       d="M 15,4 C 13.417,4 11.888,4.248 10.457,4.738 9.116,5.197 7.922,5.845 6.91,6.664 5.034,8.182 4,10.127 4,12.138 c 0,1.125 0.315,2.217 0.935,3.247 0.646,1.073 1.622,2.056 2.821,2.842 0.951,0.624 1.592,1.623 1.761,2.748 0.028,0.187 0.051,0.375 0.068,0.564 0.085,-0.079 0.169,-0.16 0.254,-0.244 0.754,-0.751 1.771,-1.166 2.823,-1.166 0.167,0 0.335,0.011 0.503,0.032 0.605,0.077 1.223,0.116 1.836,0.116 1.583,0 3.112,-0.248 4.543,-0.738 1.341,-0.459 2.535,-1.107 3.547,-1.926 1.876,-1.518 2.91,-3.463 2.91,-5.474 0,-2.011 -1.033,-3.956 -2.91,-5.474 C 22.079,5.846 20.885,5.198 19.544,4.739 18.113,4.249 16.584,4.001 15.001,4.001 z m 0,-4 v 0 c 8.284,0 15,5.435 15,12.139 0,6.704 -6.716,12.139 -15,12.139 -0.796,0 -1.576,-0.051 -2.339,-0.147 C 9.439,27.34 5.718,27.916 2,28 V 27.215 C 4.008,26.235 5.625,24.45 5.625,22.411 5.625,22.126 5.603,21.847 5.562,21.574 2.17,19.349 0,15.949 0,12.14 0,5.436 6.716,0.001 15,0.001 z m 16.125,27.209 c 0,1.748 1.135,3.278 2.875,4.118 V 32 C 30.777,31.928 27.819,31.434 25.027,28.684 24.366,28.767 23.69,28.81 23,28.81 c -2.983,0 -5.732,-0.805 -7.925,-2.157 4.521,-0.016 8.789,-1.464 12.026,-4.084 1.631,-1.32 2.919,-2.87 3.825,-4.605 0.961,-1.84 1.449,-3.799 1.449,-5.825 0,-0.326 -0.014,-0.651 -0.039,-0.974 2.268,1.873 3.664,4.426 3.664,7.24 0,3.265 -1.88,6.179 -4.82,8.086 -0.036,0.234 -0.055,0.474 -0.055,0.718 z"
       inkscape:connector-curvature="0"
       style="fill:#ff0000" />
  </g>
</svg>
