<?xml version="1.0" encoding="UTF-8" standalone="no"?>
<!-- Created with Inkscape (http://www.inkscape.org/) -->

<svg
   xmlns:dc="http://purl.org/dc/elements/1.1/"
   xmlns:cc="http://creativecommons.org/ns#"
   xmlns:rdf="http://www.w3.org/1999/02/22-rdf-syntax-ns#"
   xmlns:svg="http://www.w3.org/2000/svg"
   xmlns="http://www.w3.org/2000/svg"
   xmlns:xlink="http://www.w3.org/1999/xlink"
   xmlns:sodipodi="http://sodipodi.sourceforge.net/DTD/sodipodi-0.dtd"
   xmlns:inkscape="http://www.inkscape.org/namespaces/inkscape"
   id="svg2"
   version="1.1"
   inkscape:version="0.48.4 r9939"
   width="64"
   height="64"
   sodipodi:docname="USB.svg">
  <metadata
     id="metadata8">
    <rdf:RDF>
      <cc:Work
         rdf:about="">
        <dc:format>image/svg+xml</dc:format>
        <dc:type
           rdf:resource="http://purl.org/dc/dcmitype/StillImage" />
        <dc:title></dc:title>
      </cc:Work>
    </rdf:RDF>
  </metadata>
  <defs
     id="defs6">
    <inkscape:perspective
       id="perspective3009"
       inkscape:persp3d-origin="12 : 8 : 1"
       inkscape:vp_z="24 : 12 : 1"
       inkscape:vp_y="0 : 1000 : 0"
       inkscape:vp_x="0 : 12 : 1"
       sodipodi:type="inkscape:persp3d" />
    <clipPath
       id="clipPath-121758028">
      <g
         id="g3177"
         transform="translate(0,-1004.3622)">
        <path
           id="path3179"
           fill="#1890d0"
           transform="matrix(15.333333,0,0,11.5,414.99999,878.8622)"
           d="m -24 13 c 0 1.105 -0.672 2 -1.5 2 -0.828 0 -1.5 -0.895 -1.5 -2 0 -1.105 0.672 -2 1.5 -2 0.828 0 1.5 0.895 1.5 2 z" />
      </g>
    </clipPath>
    <clipPath
       id="clipPath-113117232">
      <g
         id="g3172"
         transform="translate(0,-1004.3622)">
        <path
           id="path3174"
           fill="#1890d0"
           transform="matrix(15.333333,0,0,11.5,414.99999,878.8622)"
           d="m -24 13 c 0 1.105 -0.672 2 -1.5 2 -0.828 0 -1.5 -0.895 -1.5 -2 0 -1.105 0.672 -2 1.5 -2 0.828 0 1.5 0.895 1.5 2 z" />
      </g>
    </clipPath>
    <linearGradient
       gradientTransform="matrix(0,-1,1,0,-1.5e-6,47.999998)"
       gradientUnits="userSpaceOnUse"
       x2="47"
       x1="1"
       id="linearGradient3764">
      <stop
         id="stop3167"
         stop-opacity="1"
         stop-color="#f0e9c8" />
      <stop
         id="stop3169"
         stop-opacity="1"
         stop-color="#f4efd8"
         offset="1" />
    </linearGradient>
    <clipPath
       id="clipPath-580235580">
      <g
         id="g5359"
         transform="translate(0,-1004.3622)">
        <path
           id="path5361"
           fill="#1890d0"
           transform="matrix(15.333333,0,0,11.5,414.99999,878.8622)"
           d="m -24 13 c 0 1.105 -0.672 2 -1.5 2 -0.828 0 -1.5 -0.895 -1.5 -2 0 -1.105 0.672 -2 1.5 -2 0.828 0 1.5 0.895 1.5 2 z" />
      </g>
    </clipPath>
    <clipPath
       id="clipPath-568471406">
      <g
         id="g5354"
         transform="translate(0,-1004.3622)">
        <path
           id="path5356"
           fill="#1890d0"
           transform="matrix(15.333333,0,0,11.5,414.99999,878.8622)"
           d="m -24 13 c 0 1.105 -0.672 2 -1.5 2 -0.828 0 -1.5 -0.895 -1.5 -2 0 -1.105 0.672 -2 1.5 -2 0.828 0 1.5 0.895 1.5 2 z" />
      </g>
    </clipPath>
    <linearGradient
       gradientTransform="matrix(0,-1,1,0,-1.5e-6,47.999998)"
       gradientUnits="userSpaceOnUse"
       x2="47"
       x1="1"
       id="linearGradient3764-7">
      <stop
         id="stop5349"
         stop-opacity="1"
         stop-color="#e04c8b" />
      <stop
         id="stop5351"
         stop-opacity="1"
         stop-color="#e35e97"
         offset="1" />
    </linearGradient>
    <clipPath
       id="clipPath-588794431">
      <g
         id="g6710"
         transform="translate(0,-1004.3622)">
        <path
           id="path6712"
           fill="#1890d0"
           transform="matrix(15.333333,0,0,11.5,414.99999,878.8622)"
           d="m -24 13 c 0 1.105 -0.672 2 -1.5 2 -0.828 0 -1.5 -0.895 -1.5 -2 0 -1.105 0.672 -2 1.5 -2 0.828 0 1.5 0.895 1.5 2 z" />
      </g>
    </clipPath>
    <clipPath
       id="clipPath-580766965">
      <g
         id="g6705"
         transform="translate(0,-1004.3622)">
        <path
           id="path6707"
           fill="#1890d0"
           transform="matrix(15.333333,0,0,11.5,414.99999,878.8622)"
           d="m -24 13 c 0 1.105 -0.672 2 -1.5 2 -0.828 0 -1.5 -0.895 -1.5 -2 0 -1.105 0.672 -2 1.5 -2 0.828 0 1.5 0.895 1.5 2 z" />
      </g>
    </clipPath>
    <linearGradient
       gradientTransform="matrix(0,-1,1,0,-1.5e-6,47.999998)"
       gradientUnits="userSpaceOnUse"
       x2="47"
       x1="1"
       id="linearGradient3764-76">
      <stop
         id="stop6700"
         stop-opacity="1"
         stop-color="#b0e648" />
      <stop
         id="stop6702"
         stop-opacity="1"
         stop-color="#b9e85a"
         offset="1" />
    </linearGradient>
    <linearGradient
       gradientTransform="translate(78.991532,-26.983333)"
       gradientUnits="userSpaceOnUse"
       y2="1007.4026"
       x2="27.568569"
       y1="1049.1152"
       x1="27.568569"
       id="linearGradient7156"
       xlink:href="#linearGradient7150"
       inkscape:collect="always" />
    <linearGradient
       id="linearGradient7150"
       inkscape:collect="always">
      <stop
         id="stop7152"
         offset="0"
         style="stop-color:#8796a4;stop-opacity:1" />
      <stop
         id="stop7154"
         offset="1"
         style="stop-color:#b0b7c5;stop-opacity:1" />
    </linearGradient>
    <clipPath
       id="clipPath-134152248">
      <g
         id="g16639"
         transform="translate(0,-1004.3622)">
        <path
           id="path16641"
           fill="#1890d0"
           transform="matrix(15.333333,0,0,11.5,414.99999,878.8622)"
           d="m -24 13 c 0 1.105 -0.672 2 -1.5 2 -0.828 0 -1.5 -0.895 -1.5 -2 0 -1.105 0.672 -2 1.5 -2 0.828 0 1.5 0.895 1.5 2 z" />
      </g>
    </clipPath>
    <clipPath
       id="clipPath-128722483">
      <g
         id="g16634"
         transform="translate(0,-1004.3622)">
        <path
           id="path16636"
           fill="#1890d0"
           transform="matrix(15.333333,0,0,11.5,414.99999,878.8622)"
           d="m -24 13 c 0 1.105 -0.672 2 -1.5 2 -0.828 0 -1.5 -0.895 -1.5 -2 0 -1.105 0.672 -2 1.5 -2 0.828 0 1.5 0.895 1.5 2 z" />
      </g>
    </clipPath>
    <linearGradient
       gradientTransform="matrix(0,-1,1,0,-1.5e-6,47.999998)"
       gradientUnits="userSpaceOnUse"
       x2="47"
       x1="1"
       id="linearGradient3764-2">
      <stop
         id="stop16629"
         stop-opacity="1"
         stop-color="#e4e4e4" />
      <stop
         id="stop16631"
         stop-opacity="1"
         stop-color="#eee"
         offset="1" />
    </linearGradient>
  </defs>
  <sodipodi:namedview
     pagecolor="#ffffff"
     bordercolor="#666666"
     borderopacity="1"
     objecttolerance="10"
     gridtolerance="10"
     guidetolerance="10"
     inkscape:pageopacity="0"
     inkscape:pageshadow="2"
     inkscape:window-width="1316"
     inkscape:window-height="674"
     id="namedview4"
     showgrid="false"
     inkscape:zoom="2.6074563"
     inkscape:cx="13.036789"
     inkscape:cy="30.372881"
     inkscape:window-x="44"
     inkscape:window-y="29"
     inkscape:window-maximized="1"
     inkscape:current-layer="svg2" />
  <g
     id="g3193"
     transform="translate(-49.176966,-14.466102)" />
  <g
     id="g5375"
     transform="translate(-86.823015,-1.227801)" />
  <g
     id="g6726"
     transform="translate(-103.6977,-1.9948321)" />
  <rect
     rx="5.9392786"
     ry="5.9392786"
     y="2.6643925"
     x="1.7127833"
     height="59.624359"
     width="59.081985"
     id="rect3005"
     style="fill:#000000;fill-opacity:1;stroke:#000000;stroke-width:0.5366599;stroke-linecap:round;stroke-linejoin:round;stroke-miterlimit:4;stroke-opacity:1;stroke-dasharray:none" />
  <g
     transform="matrix(0.63269678,0,0,-0.48489936,-176.28726,-0.67886402)"
     id="g312"
     style="fill:#ffffff;fill-opacity:1" />
  <g
     transform="matrix(0.63269678,0,0,-0.48489936,-156.38945,-15.929504)"
     id="g316"
     style="fill:#ffffff;fill-opacity:1" />
  <g
     id="g16655"
     transform="translate(-105.80703,-8.5145963)" />
  <g
     id="g16955"
     transform="matrix(2.0163162,0,0,2.6717344,11.474131,5.3757128)"
     style="fill:#ffffff">
    <g
       id="icomoon-ignore"
       style="fill:#ffffff" />
    <path
       id="path16947"
       d="M 15,15.8 H 2 v -9 h 2.595 c 0,0 0.689,-0.896 2.17,-2 H 1 c -0.552,0 -1,0.448 -1,1 v 11 c 0,0.553 0.448,1 1,1 h 15 c 0.553,0 1,-0.447 1,-1 v -3.746 l -2,1.645 V 15.8 z M 13.362,8.85 V 12.4 L 20,7.199 13.362,2.2 V 5.33 C 5.3,5.331 5.3,13.3 5.3,13.3 7.582,9.552 8.986,8.85 13.362,8.85 z"
       inkscape:connector-curvature="0"
       style="fill:#ffffff" />
  </g>
</svg>
