<?xml version="1.0" encoding="UTF-8" standalone="no"?>
<!-- Created with Inkscape (http://www.inkscape.org/) -->

<svg
   xmlns:dc="http://purl.org/dc/elements/1.1/"
   xmlns:cc="http://creativecommons.org/ns#"
   xmlns:rdf="http://www.w3.org/1999/02/22-rdf-syntax-ns#"
   xmlns:svg="http://www.w3.org/2000/svg"
   xmlns="http://www.w3.org/2000/svg"
   xmlns:sodipodi="http://sodipodi.sourceforge.net/DTD/sodipodi-0.dtd"
   xmlns:inkscape="http://www.inkscape.org/namespaces/inkscape"
   id="svg2"
   version="1.1"
   inkscape:version="0.48.4 r9939"
   width="64"
   height="64"
   sodipodi:docname="LIBRERIA.svg">
  <metadata
     id="metadata8">
    <rdf:RDF>
      <cc:Work
         rdf:about="">
        <dc:format>image/svg+xml</dc:format>
        <dc:type
           rdf:resource="http://purl.org/dc/dcmitype/StillImage" />
        <dc:title></dc:title>
      </cc:Work>
    </rdf:RDF>
  </metadata>
  <defs
     id="defs6" />
  <sodipodi:namedview
     pagecolor="#ffffff"
     bordercolor="#666666"
     borderopacity="1"
     objecttolerance="10"
     gridtolerance="10"
     guidetolerance="10"
     inkscape:pageopacity="0"
     inkscape:pageshadow="2"
     inkscape:window-width="1316"
     inkscape:window-height="674"
     id="namedview4"
     showgrid="false"
     inkscape:zoom="3.6875"
     inkscape:cx="-15.186441"
     inkscape:cy="32"
     inkscape:window-x="44"
     inkscape:window-y="29"
     inkscape:window-maximized="1"
     inkscape:current-layer="svg2" />
  <rect
     style="fill:#000000;fill-opacity:1;stroke:#000000;stroke-width:0.53665989999999997;stroke-linecap:round;stroke-linejoin:round;stroke-miterlimit:4;stroke-opacity:1;stroke-dasharray:none"
     id="rect3005"
     width="59.081985"
     height="59.624359"
     x="2.4590092"
     y="2.1878221"
     ry="5.9392786"
     rx="5.9392786" />
  <g
     id="g13959"
     transform="matrix(1.4830508,0,0,2.0718321,8.677966,-0.24899111)"
     style="fill:#ffffff">
    <g
       id="icomoon-ignore"
       style="fill:#ffffff" />
    <path
       id="path13951"
       d="m 16,10 c -6.543,0 -12.351,3.142 -16,8 3.649,4.858 9.457,8 16,8 6.543,0 12.351,-3.142 16,-8 -3.649,-4.858 -9.457,-8 -16,-8 z m -2,4 c 1.105,0 2,0.895 2,2 0,1.105 -0.895,2 -2,2 -1.105,0 -2,-0.895 -2,-2 0,-1.105 0.895,-2 2,-2 z m 10.175,8.041 C 22.936,22.674 21.623,23.162 20.274,23.49 18.884,23.829 17.446,24 16,24 14.554,24 13.116,23.828 11.726,23.49 10.376,23.161 9.064,22.674 7.825,22.041 5.856,21.035 4.068,19.653 2.586,18 c 1.482,-1.653 3.269,-3.034 5.239,-4.041 1.011,-0.516 2.07,-0.936 3.159,-1.251 -0.621,0.945 -0.983,2.076 -0.983,3.292 0,3.314 2.686,6 6,6 3.314,0 6,-2.686 6,-6 0,-1.216 -0.362,-2.347 -0.983,-3.292 1.089,0.316 2.148,0.735 3.159,1.251 1.969,1.006 3.757,2.388 5.239,4.041 -1.482,1.653 -3.269,3.034 -5.239,4.041 z M 26.904,7.616 C 23.506,5.88 19.838,5 16,5 12.162,5 8.494,5.88 5.096,7.616 3.259,8.554 1.542,9.738 0,11.118 v 3.413 C 1.729,12.701 3.772,11.164 6.006,10.022 9.119,8.431 12.482,7.625 16,7.625 c 3.518,0 6.881,0.807 9.994,2.397 2.234,1.142 4.277,2.679 6.006,4.509 V 11.118 C 30.458,9.738 28.74,8.554 26.904,7.616 z"
       inkscape:connector-curvature="0"
       style="fill:#ffffff" />
  </g>
</svg>
