<?xml version="1.0" encoding="UTF-8" standalone="no"?>
<!-- Created with Inkscape (http://www.inkscape.org/) -->

<svg
   xmlns:dc="http://purl.org/dc/elements/1.1/"
   xmlns:cc="http://creativecommons.org/ns#"
   xmlns:rdf="http://www.w3.org/1999/02/22-rdf-syntax-ns#"
   xmlns:svg="http://www.w3.org/2000/svg"
   xmlns="http://www.w3.org/2000/svg"
   xmlns:sodipodi="http://sodipodi.sourceforge.net/DTD/sodipodi-0.dtd"
   xmlns:inkscape="http://www.inkscape.org/namespaces/inkscape"
   id="svg2"
   version="1.1"
   inkscape:version="0.48.4 r9939"
   width="64"
   height="64"
   sodipodi:docname="TORRENTS.svg">
  <metadata
     id="metadata8">
    <rdf:RDF>
      <cc:Work
         rdf:about="">
        <dc:format>image/svg+xml</dc:format>
        <dc:type
           rdf:resource="http://purl.org/dc/dcmitype/StillImage" />
        <dc:title></dc:title>
      </cc:Work>
    </rdf:RDF>
  </metadata>
  <defs
     id="defs6" />
  <sodipodi:namedview
     pagecolor="#ffffff"
     bordercolor="#666666"
     borderopacity="1"
     objecttolerance="10"
     gridtolerance="10"
     guidetolerance="10"
     inkscape:pageopacity="0"
     inkscape:pageshadow="2"
     inkscape:window-width="1316"
     inkscape:window-height="674"
     id="namedview4"
     showgrid="false"
     inkscape:zoom="3.6875"
     inkscape:cx="-15.186441"
     inkscape:cy="32"
     inkscape:window-x="44"
     inkscape:window-y="29"
     inkscape:window-maximized="1"
     inkscape:current-layer="svg2" />
  <rect
     style="fill:#000000;fill-opacity:1;stroke:#000000;stroke-width:0.53665989999999997;stroke-linecap:round;stroke-linejoin:round;stroke-miterlimit:4;stroke-opacity:1;stroke-dasharray:none"
     id="rect3005"
     width="59.081985"
     height="59.624359"
     x="2.4590092"
     y="2.1878221"
     ry="5.9392786"
     rx="5.9392786" />
  <g
     id="g11197"
     transform="matrix(1.4661,0,0,1.6868782,9.4973305,4.4673553)"
     style="fill:#ffffff">
    <g
       id="icomoon-ignore"
       style="fill:#ffffff" />
    <path
       id="path11189"
       d="m 31.954,10.442 -0.371,2.377 c 0,0 -0.53,-4.402 -1.179,-6.047 -0.995,-2.521 -1.438,-2.501 -1.441,-2.498 0.667,1.694 0.546,2.604 0.546,2.604 0,0 -1.181,-3.219 -4.303,-4.243 -3.459,-1.134 -5.33,-0.824 -5.547,-0.765 -0.033,0 -0.064,0 -0.095,0 0.026,0.002 0.05,0.005 0.076,0.007 -0.001,10e-4 -0.003,10e-4 -0.003,0.002 0.014,0.017 3.822,0.666 4.497,1.594 0,0 -1.617,0 -3.227,0.464 -0.073,0.021 5.923,0.749 7.148,6.74 0,0 -0.657,-1.371 -1.47,-1.604 0.535,1.626 0.397,4.712 -0.112,6.245 -0.066,0.197 -0.133,-0.853 -1.135,-1.305 0.321,2.301 -0.019,5.952 -1.616,6.957 -0.124,0.078 1.001,-3.603 0.226,-2.18 -4.46,6.838 -9.731,3.155 -12.101,1.535 1.215,0.264 3.52,-0.041 4.541,-0.8 10e-4,-10e-4 0.002,-0.002 0.004,-0.003 1.108,-0.758 1.765,-1.311 2.354,-1.18 0.589,0.131 0.982,-0.46 0.524,-0.985 -0.459,-0.526 -1.572,-1.249 -3.079,-0.855 -1.063,0.278 -2.379,1.454 -4.389,0.264 -1.543,-0.914 -1.688,-1.673 -1.702,-2.199 0.038,-0.186 0.086,-0.361 0.143,-0.52 0.178,-0.496 0.716,-0.646 1.015,-0.764 0.508,0.087 0.946,0.246 1.405,0.481 0.006,-0.153 0.008,-0.356 -10e-4,-0.586 0.044,-0.088 0.017,-0.352 -0.054,-0.674 -0.041,-0.322 -0.107,-0.655 -0.211,-0.959 0,0 10e-4,0 10e-4,0 0.002,-10e-4 0.003,-10e-4 0.005,-0.002 0.002,-10e-4 0.005,-0.004 0.007,-0.006 0,-0.001 10e-4,-0.001 10e-4,-0.002 0.003,-0.004 0.005,-0.008 0.006,-0.015 0.032,-0.144 0.376,-0.423 0.804,-0.722 0.383,-0.268 0.834,-0.553 1.19,-0.774 0.314,-0.195 0.554,-0.34 0.605,-0.378 0.019,-0.015 0.042,-0.032 0.068,-0.051 0.005,-0.004 0.009,-0.007 0.014,-0.011 0.003,-0.002 0.006,-0.005 0.009,-0.007 0.169,-0.135 0.421,-0.389 0.474,-0.924 0,-0.001 0,-0.002 0,-0.004 0.002,-0.016 0.003,-0.032 0.004,-0.048 10e-4,-0.011 0.002,-0.023 0.002,-0.034 0,-0.009 10e-4,-0.018 10e-4,-0.027 0.001,-0.021 0.002,-0.043 0.002,-0.065 0,-10e-4 0,-0.002 0,-0.004 10e-4,-0.052 0,-0.106 -0.003,-0.163 C 15.585,8.276 15.583,8.248 15.578,8.222 15.578,8.221 15.577,8.219 15.577,8.218 15.576,8.215 15.576,8.213 15.575,8.21 15.574,8.205 15.573,8.201 15.571,8.197 c 0,-10e-4 0,-10e-4 -10e-4,-10e-4 -0.002,-0.005 -0.004,-0.01 -0.005,-0.014 0,0 0,0 0,-0.001 -0.055,-0.128 -0.26,-0.177 -1.108,-0.191 -0.001,0 -0.002,0 -0.002,0 v 0 C 14.109,7.984 13.657,7.984 13.064,7.986 12.025,7.99 11.451,6.97 11.267,6.576 11.518,5.187 12.244,4.197 13.437,3.525 13.46,3.512 13.455,3.502 13.428,3.494 13.661,3.353 10.608,3.49 9.203,5.276 7.956,4.966 6.87,4.987 5.934,5.207 5.754,5.202 5.53,5.18 5.264,5.124 4.641,4.56 3.75,3.518 3.702,2.274 c 0,0 -0.003,0.002 -0.008,0.006 C 3.693,2.268 3.692,2.256 3.692,2.244 c 0,0 -1.897,1.458 -1.613,5.434 C 2.078,7.742 2.077,7.803 2.075,7.862 1.561,8.558 1.307,9.144 1.288,9.273 c -0.455,0.926 -0.917,2.32 -1.292,4.437 0,0 0.263,-0.833 0.79,-1.777 -0.388,1.188 -0.693,3.036 -0.514,5.808 0,0 0.047,-0.615 0.215,-1.5 0.131,1.719 0.704,3.841 2.152,6.337 2.78,4.791 7.052,7.211 11.775,7.582 0.839,0.069 1.689,0.071 2.544,0.006 0.079,-0.006 0.157,-0.011 0.236,-0.018 0.968,-0.068 1.942,-0.214 2.914,-0.449 C 33.395,26.487 31.95,10.443 31.95,10.443 z"
       inkscape:connector-curvature="0"
       style="fill:#ffffff" />
  </g>
</svg>
