<?xml version="1.0" encoding="UTF-8" standalone="no"?>
<!-- Created with Inkscape (http://www.inkscape.org/) -->

<svg
   xmlns:dc="http://purl.org/dc/elements/1.1/"
   xmlns:cc="http://creativecommons.org/ns#"
   xmlns:rdf="http://www.w3.org/1999/02/22-rdf-syntax-ns#"
   xmlns:svg="http://www.w3.org/2000/svg"
   xmlns="http://www.w3.org/2000/svg"
   xmlns:sodipodi="http://sodipodi.sourceforge.net/DTD/sodipodi-0.dtd"
   xmlns:inkscape="http://www.inkscape.org/namespaces/inkscape"
   id="svg2"
   version="1.1"
   inkscape:version="0.48.4 r9939"
   width="64"
   height="64"
   sodipodi:docname="base.svg">
  <metadata
     id="metadata8">
    <rdf:RDF>
      <cc:Work
         rdf:about="">
        <dc:format>image/svg+xml</dc:format>
        <dc:type
           rdf:resource="http://purl.org/dc/dcmitype/StillImage" />
        <dc:title></dc:title>
      </cc:Work>
    </rdf:RDF>
  </metadata>
  <defs
     id="defs6" />
  <sodipodi:namedview
     pagecolor="#ffffff"
     bordercolor="#666666"
     borderopacity="1"
     objecttolerance="10"
     gridtolerance="10"
     guidetolerance="10"
     inkscape:pageopacity="0"
     inkscape:pageshadow="2"
     inkscape:window-width="1318"
     inkscape:window-height="669"
     id="namedview4"
     showgrid="false"
     inkscape:zoom="3.6875"
     inkscape:cx="-15.186441"
     inkscape:cy="32"
     inkscape:window-x="42"
     inkscape:window-y="29"
     inkscape:window-maximized="1"
     inkscape:current-layer="svg2" />
  <rect
     style="fill:#000000;fill-opacity:1;stroke:#000000;stroke-width:0.53665989999999997;stroke-linecap:round;stroke-linejoin:round;stroke-miterlimit:4;stroke-opacity:1;stroke-dasharray:none"
     id="rect3005"
     width="59.081985"
     height="59.624359"
     x="2.4590092"
     y="2.1878221"
     ry="5.9392786"
     rx="5.9392786" />
  <g
     id="g3075"
     transform="matrix(2.0028248,0,0,2.2429378,12.920903,9.0282486)"
     style="fill:#ffffff">
    <g
       id="icomoon-ignore"
       style="fill:#ffffff" />
    <path
       id="path3067"
       d="m 10,0.4 c -5.302,0 -9.6,4.298 -9.6,9.6 0,5.302 4.298,9.6 9.6,9.6 5.303,0 9.6,-4.298 9.6,-9.6 0,-5.302 -4.297,-9.6 -9.6,-9.6 z m 5.166,4.436 -0.002,-0.002 c 0,0.001 0.002,0.002 0.002,0.002 z M 2.696,10 c 0,-4.034 3.27,-7.304 7.304,-7.304 1.754,0 3.364,0.618 4.624,1.648 L 4.345,14.622 C 3.314,13.363 2.696,11.754 2.696,10 z m 2.138,5.164 0.002,0.002 C 4.835,15.165 4.835,15.165 4.834,15.164 z M 10,17.305 c -1.754,0 -3.363,-0.619 -4.622,-1.649 L 15.654,5.378 c 1.031,1.259 1.65,2.868 1.65,4.622 0.001,4.034 -3.271,7.305 -7.304,7.305 z"
       inkscape:connector-curvature="0"
       style="fill:#ffffff" />
  </g>
</svg>
