<?xml version="1.0" encoding="UTF-8" standalone="no"?>
<!-- Created with Inkscape (http://www.inkscape.org/) -->

<svg
   xmlns:dc="http://purl.org/dc/elements/1.1/"
   xmlns:cc="http://creativecommons.org/ns#"
   xmlns:rdf="http://www.w3.org/1999/02/22-rdf-syntax-ns#"
   xmlns:svg="http://www.w3.org/2000/svg"
   xmlns="http://www.w3.org/2000/svg"
   xmlns:sodipodi="http://sodipodi.sourceforge.net/DTD/sodipodi-0.dtd"
   xmlns:inkscape="http://www.inkscape.org/namespaces/inkscape"
   id="svg2"
   version="1.1"
   inkscape:version="0.48.4 r9939"
   width="64"
   height="64"
   sodipodi:docname="mahjong.svg">
  <metadata
     id="metadata8">
    <rdf:RDF>
      <cc:Work
         rdf:about="">
        <dc:format>image/svg+xml</dc:format>
        <dc:type
           rdf:resource="http://purl.org/dc/dcmitype/StillImage" />
        <dc:title></dc:title>
      </cc:Work>
    </rdf:RDF>
  </metadata>
  <defs
     id="defs6">
    <inkscape:perspective
       id="perspective3009"
       inkscape:persp3d-origin="12 : 8 : 1"
       inkscape:vp_z="24 : 12 : 1"
       inkscape:vp_y="0 : 1000 : 0"
       inkscape:vp_x="0 : 12 : 1"
       sodipodi:type="inkscape:persp3d" />
    <clipPath
       id="clipPath-121758028">
      <g
         id="g3177"
         transform="translate(0,-1004.3622)">
        <path
           id="path3179"
           fill="#1890d0"
           transform="matrix(15.333333,0,0,11.5,414.99999,878.8622)"
           d="m -24 13 c 0 1.105 -0.672 2 -1.5 2 -0.828 0 -1.5 -0.895 -1.5 -2 0 -1.105 0.672 -2 1.5 -2 0.828 0 1.5 0.895 1.5 2 z" />
      </g>
    </clipPath>
    <clipPath
       id="clipPath-113117232">
      <g
         id="g3172"
         transform="translate(0,-1004.3622)">
        <path
           id="path3174"
           fill="#1890d0"
           transform="matrix(15.333333,0,0,11.5,414.99999,878.8622)"
           d="m -24 13 c 0 1.105 -0.672 2 -1.5 2 -0.828 0 -1.5 -0.895 -1.5 -2 0 -1.105 0.672 -2 1.5 -2 0.828 0 1.5 0.895 1.5 2 z" />
      </g>
    </clipPath>
    <linearGradient
       gradientTransform="matrix(0,-1,1,0,-1.5e-6,47.999998)"
       gradientUnits="userSpaceOnUse"
       x2="47"
       x1="1"
       id="linearGradient3764">
      <stop
         id="stop3167"
         stop-opacity="1"
         stop-color="#f0e9c8" />
      <stop
         id="stop3169"
         stop-opacity="1"
         stop-color="#f4efd8"
         offset="1" />
    </linearGradient>
  </defs>
  <sodipodi:namedview
     pagecolor="#ffffff"
     bordercolor="#666666"
     borderopacity="1"
     objecttolerance="10"
     gridtolerance="10"
     guidetolerance="10"
     inkscape:pageopacity="0"
     inkscape:pageshadow="2"
     inkscape:window-width="1316"
     inkscape:window-height="674"
     id="namedview4"
     showgrid="false"
     inkscape:zoom="3.6875"
     inkscape:cx="-6.5084749"
     inkscape:cy="30.372881"
     inkscape:window-x="44"
     inkscape:window-y="29"
     inkscape:window-maximized="1"
     inkscape:current-layer="svg2" />
  <rect
     style="fill:#000000;fill-opacity:1;stroke:#000000;stroke-width:0.53665989999999997;stroke-linecap:round;stroke-linejoin:round;stroke-miterlimit:4;stroke-opacity:1;stroke-dasharray:none"
     id="rect3005"
     width="59.081985"
     height="59.624359"
     x="2.4590092"
     y="2.1878221"
     ry="5.9392786"
     rx="5.9392786" />
  <g
     id="g3193"
     transform="translate(-49.176966,-14.466102)" />
  <g
     id="g3207"
     transform="matrix(1.8137672,0,0,1.6779654,-10.952135,-7.6826097)"
     style="fill:#ff0000">
    <g
       clip-path="url(#clipPath-121758028)"
       id="g3209"
       style="fill:#ff0000">
      <!-- color: #f4efd8 -->
      <g
         id="g3211"
         style="fill:#ff0000">
        <path
           style="fill:#ff0000;fill-opacity:1;fill-rule:nonzero;stroke:none"
           inkscape:connector-curvature="0"
           d="m 15.34,14.246 c 0.473,0.48 0.953,0.988 1.445,1.523 0.285,0.32 0.598,0.465 0.938,0.449 0.246,-0.023 0.418,-0.18 0.512,-0.48 0.113,-0.316 0.078,-0.824 -0.113,-1.52 -0.113,-0.379 -0.465,-0.719 -1.051,-1.016 -1.48,-0.594 -2.344,-0.805 -2.59,-0.625 -0.113,0.082 -0.148,0.27 -0.113,0.566 0.078,0.258 0.398,0.625 0.969,1.102 m -2.785,5.668 c 0.91,1.098 1.734,1.852 2.477,2.27 0.301,0.059 0.566,-0.059 0.773,-0.355 0.133,-0.258 0.18,-0.59 0.145,-0.984 -0.227,-0.957 -1.195,-1.68 -2.902,-2.18 -0.016,-0.023 -0.035,-0.031 -0.055,-0.031 -0.359,-0.082 -0.633,-0.09 -0.82,-0.031 -0.133,0.023 -0.184,0.172 -0.145,0.449 0.02,0.258 0.199,0.551 0.539,0.863 m 0.051,11.582 c -0.246,0.078 -0.328,0.297 -0.258,0.656 0.418,1.574 0.949,2.496 1.594,2.777 0.133,0.137 0.301,0.18 0.512,0.117 0.133,-0.059 0.207,-0.352 0.227,-0.863 0.02,-0.777 0.816,-3.801 2.387,-9.07 0.113,-0.32 0.16,-0.547 0.145,-0.688 -0.02,-0.199 -0.125,-0.227 -0.313,-0.086 -0.23,0.18 -1.309,2.125 -3.242,5.848 -0.188,0.438 -0.539,0.875 -1.051,1.313 m 13.02,-1.074 c 0.016,0.023 0.047,0.047 0.082,0.086 2.445,3.285 4.02,5.04 4.715,5.254 0.969,0.355 2.625,0.297 4.977,-0.18 0.359,-0.023 0.559,-0.09 0.594,-0.211 0.02,-0.137 -0.102,-0.266 -0.371,-0.387 -3.41,-1.156 -5.699,-2.172 -6.879,-3.043 -0.852,-0.563 -1.559,-1.105 -2.129,-1.645 1.609,-0.199 3.578,-0.32 5.91,-0.355 1.152,0.059 1.809,-0.031 1.957,-0.27 0.078,-0.199 -0.035,-0.438 -0.34,-0.719 -0.969,-0.715 -1.789,-0.996 -2.473,-0.832 -1.441,0.355 -3.402,0.746 -5.883,1.164 0.113,-0.617 0.211,-1.242 0.281,-1.879 1.215,-0.238 2.363,-0.438 3.441,-0.594 0.477,-0.082 0.625,-0.258 0.457,-0.539 -0.191,-0.316 -0.547,-0.523 -1.082,-0.625 -0.684,-0.078 -1.59,0.082 -2.727,0.48 0.02,-0.566 0.047,-1.105 0.086,-1.609 1.363,-0.242 2.973,-0.449 4.828,-0.625 0.191,-0.023 0.301,-0.113 0.344,-0.27 0,-0.148 -0.238,-0.387 -0.711,-0.727 0.398,-0.832 0.836,-1.379 1.309,-1.641 0.344,-0.32 0.379,-0.66 0.113,-1.016 -0.281,-0.258 -0.891,-0.656 -1.82,-1.195 -0.301,-0.141 -0.66,-0.148 -1.078,-0.027 -0.93,0.379 -1.852,0.695 -2.758,0.953 0.02,-0.137 0.066,-0.297 0.145,-0.477 0.074,-0.238 0.035,-0.418 -0.117,-0.535 -0.281,-0.242 -0.641,-0.449 -1.078,-0.625 0.641,-0.141 1.629,-0.27 2.953,-0.391 0.191,-0.023 0.297,-0.117 0.313,-0.297 0.02,-0.141 -0.246,-0.391 -0.793,-0.746 -0.02,-0.023 -0.055,-0.031 -0.113,-0.031 0.168,-0.793 0.348,-1.563 0.539,-2.297 1.156,-0.199 2.246,-0.355 3.27,-0.477 0.191,0.02 0.371,-0.09 0.539,-0.328 0.02,-0.199 -0.18,-0.41 -0.594,-0.625 -0.57,-0.438 -1.543,-0.418 -2.926,0.059 0.016,-0.082 0.047,-0.168 0.082,-0.27 0,-0.078 0.164,-0.516 0.484,-1.313 0.074,-0.18 -0.039,-0.426 -0.344,-0.746 -0.57,-0.418 -1.051,-0.691 -1.449,-0.832 -0.246,-0.082 -0.453,-0.059 -0.625,0.059 -0.133,0.117 -0.148,0.32 -0.055,0.594 0.191,0.379 0.285,0.707 0.285,0.984 -0.02,0.621 -0.051,1.273 -0.086,1.973 -0.168,0 -1.195,0.219 -3.07,0.656 0,-1.313 -0.035,-2.01 -0.113,-2.086 -0.02,-0.023 -0.035,-0.031 -0.055,-0.031 -0.246,-0.199 -0.605,-0.367 -1.082,-0.508 -0.359,-0.078 -0.699,-0.027 -1.02,0.148 -0.172,0.141 -0.133,0.328 0.113,0.566 0.301,0.477 0.57,1.172 0.793,2.086 -0.906,0.059 -1.867,0.184 -2.871,0.359 -0.512,0.059 -0.57,0.258 -0.168,0.594 0.527,0.477 1.176,0.625 1.934,0.449 0.398,-0.117 0.84,-0.211 1.336,-0.27 0.301,2.031 0.527,3.195 0.684,3.492 0.129,0.18 0.254,0.199 0.371,0.059 0.055,-0.078 0.113,-0.219 0.168,-0.418 0.512,0.535 0.805,1.086 0.883,1.641 -1.156,0.199 -2.332,0.387 -3.527,0.566 -0.074,-0.18 -0.547,-0.309 -1.422,-0.391 -0.227,-0.059 -0.359,-0.031 -0.398,0.086 -0.113,0.121 -0.082,0.32 0.086,0.598 0.477,0.836 0.891,1.949 1.25,3.34 0.078,0.422 0.246,0.758 0.512,1.016 0.34,0.379 0.547,0.426 0.625,0.148 0.02,-0.141 0.035,-0.32 0.055,-0.539 0.113,0.023 0.273,0.008 0.457,-0.027 0.648,-0.18 1.445,-0.34 2.414,-0.48 -0.02,0.598 -0.047,1.176 -0.086,1.734 -1.211,0.258 -2.367,0.535 -3.465,0.832 -0.344,0.082 -0.301,0.281 0.113,0.598 0.227,0.18 1.316,0.098 3.27,-0.238 -0.02,0.137 -0.039,0.309 -0.059,0.504 -0.016,0.48 -0.094,0.934 -0.227,1.371 -2.066,0.32 -4.27,0.648 -6.621,0.988 -0.395,0.059 -0.441,0.25 -0.141,0.563 0.246,0.258 0.539,0.438 0.883,0.539 0.395,0.082 0.738,0.082 1.02,0 1.383,-0.418 2.859,-0.727 4.434,-0.926 -0.906,1.492 -2.121,2.633 -3.641,3.434 -0.641,0.32 -1.438,0.688 -2.383,1.102 -0.23,0.082 -0.379,0.152 -0.457,0.211 -0.078,0.078 0.02,0.156 0.281,0.238 1.762,0.117 3.773,-0.625 6.03,-2.238 0.281,-0.238 0.539,-0.496 0.766,-0.777 0.457,-0.617 0.789,-1.363 0.996,-2.238 m -0.68,-6.582 c -1.078,0.188 -2.082,0.355 -3.01,0.516 -0.23,-1.105 -0.371,-1.902 -0.426,-2.43 0.129,-0.02 0.301,-0.063 0.508,-0.145 0.93,-0.199 1.887,-0.398 2.871,-0.598 0.02,0.918 0.039,1.801 0.055,2.656 m 1.367,-1.699 c 0,-0.418 0.031,-0.84 0.086,-1.258 0.684,-0.141 1.363,-0.281 2.047,-0.445 0.531,-0.141 0.922,-0.086 1.168,0.145 0.113,0.117 0.141,0.316 0.082,0.566 -0.133,0.617 -0.281,1.184 -0.453,1.703 -1.043,0.238 -2.02,0.465 -2.93,0.688 0,-0.5 0,-0.965 0,-1.406 m -2.27,-4.504 c -0.02,-0.297 -0.035,-0.566 -0.055,-0.832 -0.02,-0.496 -0.039,-0.965 -0.055,-1.398 0.871,-0.199 1.867,-0.398 2.984,-0.566 -0.078,0.676 -0.152,1.383 -0.23,2.117 -0.984,0.301 -1.867,0.527 -2.641,0.688 m -0.004,0"
           id="path3213" />
      </g>
    </g>
  </g>
</svg>
