<?xml version="1.0" encoding="UTF-8" standalone="no"?>
<!-- Created with Inkscape (http://www.inkscape.org/) -->

<svg
   xmlns:dc="http://purl.org/dc/elements/1.1/"
   xmlns:cc="http://creativecommons.org/ns#"
   xmlns:rdf="http://www.w3.org/1999/02/22-rdf-syntax-ns#"
   xmlns:svg="http://www.w3.org/2000/svg"
   xmlns="http://www.w3.org/2000/svg"
   xmlns:sodipodi="http://sodipodi.sourceforge.net/DTD/sodipodi-0.dtd"
   xmlns:inkscape="http://www.inkscape.org/namespaces/inkscape"
   id="svg2"
   version="1.1"
   inkscape:version="0.48.4 r9939"
   width="64"
   height="64"
   sodipodi:docname="HARDWARE.svg">
  <metadata
     id="metadata8">
    <rdf:RDF>
      <cc:Work
         rdf:about="">
        <dc:format>image/svg+xml</dc:format>
        <dc:type
           rdf:resource="http://purl.org/dc/dcmitype/StillImage" />
        <dc:title></dc:title>
      </cc:Work>
    </rdf:RDF>
  </metadata>
  <defs
     id="defs6">
    <inkscape:perspective
       id="perspective3009"
       inkscape:persp3d-origin="12 : 8 : 1"
       inkscape:vp_z="24 : 12 : 1"
       inkscape:vp_y="0 : 1000 : 0"
       inkscape:vp_x="0 : 12 : 1"
       sodipodi:type="inkscape:persp3d" />
    <clipPath
       id="clipPath-272651492">
      <g
         id="g3618"
         transform="translate(0,-1004.3622)">
        <path
           id="path3620"
           fill="#1890d0"
           transform="matrix(15.333333,0,0,11.5,414.99999,878.8622)"
           d="m -24 13 c 0 1.105 -0.672 2 -1.5 2 -0.828 0 -1.5 -0.895 -1.5 -2 0 -1.105 0.672 -2 1.5 -2 0.828 0 1.5 0.895 1.5 2 z" />
      </g>
    </clipPath>
    <clipPath
       id="clipPath-264175639">
      <g
         id="g3613"
         transform="translate(0,-1004.3622)">
        <path
           id="path3615"
           fill="#1890d0"
           transform="matrix(15.333333,0,0,11.5,414.99999,878.8622)"
           d="m -24 13 c 0 1.105 -0.672 2 -1.5 2 -0.828 0 -1.5 -0.895 -1.5 -2 0 -1.105 0.672 -2 1.5 -2 0.828 0 1.5 0.895 1.5 2 z" />
      </g>
    </clipPath>
    <linearGradient
       gradientTransform="matrix(0,-1,1,0,-1.5e-6,47.999998)"
       gradientUnits="userSpaceOnUse"
       x2="47"
       x1="1"
       id="linearGradient3764">
      <stop
         id="stop3608"
         stop-opacity="1"
         stop-color="#dea700" />
      <stop
         id="stop3610"
         stop-opacity="1"
         stop-color="#f2b700"
         offset="1" />
    </linearGradient>
    <clipPath
       id="clipPath-667606058">
      <g
         id="g4297"
         transform="translate(0,-1004.3622)">
        <path
           id="path4299"
           fill="#1890d0"
           transform="matrix(15.333333,0,0,11.5,414.99999,878.8622)"
           d="m -24 13 c 0 1.105 -0.672 2 -1.5 2 -0.828 0 -1.5 -0.895 -1.5 -2 0 -1.105 0.672 -2 1.5 -2 0.828 0 1.5 0.895 1.5 2 z" />
      </g>
    </clipPath>
    <clipPath
       id="clipPath-659501462">
      <g
         id="g4292"
         transform="translate(0,-1004.3622)">
        <path
           id="path4294"
           fill="#1890d0"
           transform="matrix(15.333333,0,0,11.5,414.99999,878.8622)"
           d="m -24 13 c 0 1.105 -0.672 2 -1.5 2 -0.828 0 -1.5 -0.895 -1.5 -2 0 -1.105 0.672 -2 1.5 -2 0.828 0 1.5 0.895 1.5 2 z" />
      </g>
    </clipPath>
    <linearGradient
       gradientTransform="matrix(0,-1,1,0,-1.5e-6,47.999998)"
       gradientUnits="userSpaceOnUse"
       x2="47"
       x1="1"
       id="linearGradient3764-8">
      <stop
         id="stop4287"
         stop-opacity="1"
         stop-color="#333" />
      <stop
         id="stop4289"
         stop-opacity="1"
         stop-color="#3d3d3d"
         offset="1" />
    </linearGradient>
  </defs>
  <sodipodi:namedview
     pagecolor="#ffffff"
     bordercolor="#666666"
     borderopacity="1"
     objecttolerance="10"
     gridtolerance="10"
     guidetolerance="10"
     inkscape:pageopacity="0"
     inkscape:pageshadow="2"
     inkscape:window-width="1316"
     inkscape:window-height="674"
     id="namedview4"
     showgrid="false"
     inkscape:zoom="3.6875"
     inkscape:cx="-15.186441"
     inkscape:cy="30.915254"
     inkscape:window-x="44"
     inkscape:window-y="29"
     inkscape:window-maximized="1"
     inkscape:current-layer="svg2" />
  <rect
     style="fill:#000000;fill-opacity:1;stroke:#000000;stroke-width:0.53665989999999997;stroke-linecap:round;stroke-linejoin:round;stroke-miterlimit:4;stroke-opacity:1;stroke-dasharray:none"
     id="rect3005"
     width="59.081985"
     height="59.624359"
     x="2.4590092"
     y="2.1878221"
     ry="5.9392786"
     rx="5.9392786" />
  <g
     id="g3634"
     transform="translate(-124.29561,-1.4491525)" />
  <g
     id="g4313"
     transform="translate(-126.4651,-4.9745762)" />
  <g
     id="g4327"
     transform="matrix(1.80016,0,0,1.8475989,-10.4817,-12.430508)">
    <g
       clip-path="url(#clipPath-667606058)"
       id="g4329">
      <!-- color: #3d3d3d -->
      <g
         id="g4331">
        <path
           style="fill:#f9f9f9;fill-opacity:1;fill-rule:nonzero;stroke:none"
           inkscape:connector-curvature="0"
           d="m 17.563,11.996 c -0.313,0 -0.566,0.25 -0.566,0.566 l 0,4.875 c 0,0.313 0.25,0.563 0.566,0.563 l 0.434,0 -1,1 1,1 -0.906,10.996 -0.094,0 c -1.109,0 -1.996,0.895 -1.996,2 0,0.363 0.109,0.703 0.277,1 l -0.277,0 -1,1.996 19.996,0 -0.996,-1.996 -0.281,0 c 0.172,-0.297 0.281,-0.637 0.281,-1 0,-1.109 -0.895,-2 -2,-2 l -0.09,0 -0.91,-10.996 1,-1 -1,-1 0.438,0 c 0.316,0 0.566,-0.246 0.566,-0.563 l 0,-4.875 c 0,-0.313 -0.246,-0.566 -0.566,-0.566 l -1.438,0 0,2 -2,0 0,-2 -2,0 0,2 -1.996,0 0,-2 -2,0 0,2 -1.996,0 0,-2 m -1.445,0"
           id="path4333" />
      </g>
    </g>
  </g>
</svg>
