<?xml version="1.0" encoding="UTF-8" standalone="no"?>
<!-- Created with Inkscape (http://www.inkscape.org/) -->

<svg
   xmlns:dc="http://purl.org/dc/elements/1.1/"
   xmlns:cc="http://creativecommons.org/ns#"
   xmlns:rdf="http://www.w3.org/1999/02/22-rdf-syntax-ns#"
   xmlns:svg="http://www.w3.org/2000/svg"
   xmlns="http://www.w3.org/2000/svg"
   xmlns:sodipodi="http://sodipodi.sourceforge.net/DTD/sodipodi-0.dtd"
   xmlns:inkscape="http://www.inkscape.org/namespaces/inkscape"
   id="svg2"
   version="1.1"
   inkscape:version="0.48.4 r9939"
   width="64"
   height="64"
   sodipodi:docname="agave.svg">
  <metadata
     id="metadata8">
    <rdf:RDF>
      <cc:Work
         rdf:about="">
        <dc:format>image/svg+xml</dc:format>
        <dc:type
           rdf:resource="http://purl.org/dc/dcmitype/StillImage" />
        <dc:title></dc:title>
      </cc:Work>
    </rdf:RDF>
  </metadata>
  <defs
     id="defs6">
    <inkscape:perspective
       id="perspective3009"
       inkscape:persp3d-origin="12 : 8 : 1"
       inkscape:vp_z="24 : 12 : 1"
       inkscape:vp_y="0 : 1000 : 0"
       inkscape:vp_x="0 : 12 : 1"
       sodipodi:type="inkscape:persp3d" />
    <clipPath
       id="clipPath-121758028">
      <g
         id="g3177"
         transform="translate(0,-1004.3622)">
        <path
           id="path3179"
           fill="#1890d0"
           transform="matrix(15.333333,0,0,11.5,414.99999,878.8622)"
           d="m -24 13 c 0 1.105 -0.672 2 -1.5 2 -0.828 0 -1.5 -0.895 -1.5 -2 0 -1.105 0.672 -2 1.5 -2 0.828 0 1.5 0.895 1.5 2 z" />
      </g>
    </clipPath>
    <clipPath
       id="clipPath-113117232">
      <g
         id="g3172"
         transform="translate(0,-1004.3622)">
        <path
           id="path3174"
           fill="#1890d0"
           transform="matrix(15.333333,0,0,11.5,414.99999,878.8622)"
           d="m -24 13 c 0 1.105 -0.672 2 -1.5 2 -0.828 0 -1.5 -0.895 -1.5 -2 0 -1.105 0.672 -2 1.5 -2 0.828 0 1.5 0.895 1.5 2 z" />
      </g>
    </clipPath>
    <linearGradient
       gradientTransform="matrix(0,-1,1,0,-1.5e-6,47.999998)"
       gradientUnits="userSpaceOnUse"
       x2="47"
       x1="1"
       id="linearGradient3764">
      <stop
         id="stop3167"
         stop-opacity="1"
         stop-color="#f0e9c8" />
      <stop
         id="stop3169"
         stop-opacity="1"
         stop-color="#f4efd8"
         offset="1" />
    </linearGradient>
  </defs>
  <sodipodi:namedview
     pagecolor="#ffffff"
     bordercolor="#666666"
     borderopacity="1"
     objecttolerance="10"
     gridtolerance="10"
     guidetolerance="10"
     inkscape:pageopacity="0"
     inkscape:pageshadow="2"
     inkscape:window-width="1316"
     inkscape:window-height="674"
     id="namedview4"
     showgrid="false"
     inkscape:zoom="2.6074563"
     inkscape:cx="6.3252668"
     inkscape:cy="30.372881"
     inkscape:window-x="44"
     inkscape:window-y="29"
     inkscape:window-maximized="1"
     inkscape:current-layer="svg2" />
  <rect
     style="fill:#000000;fill-opacity:1;stroke:#000000;stroke-width:0.53665989999999997;stroke-linecap:round;stroke-linejoin:round;stroke-miterlimit:4;stroke-opacity:1;stroke-dasharray:none"
     id="rect3005"
     width="59.081985"
     height="59.624359"
     x="2.4590092"
     y="2.1878221"
     ry="5.9392786"
     rx="5.9392786" />
  <g
     id="g3193"
     transform="translate(-49.176966,-14.466102)" />
  <g
     id="g3557"
     transform="matrix(1.2899532,0,0,0.86516164,98.515364,3.956606)"
     style="fill:#ffffff;fill-opacity:1;stroke:none;stroke-width:0.09465954000000000;stroke-miterlimit:4;stroke-dasharray:none;stroke-opacity:1">
    <path
       style="fill:#ffffff;fill-opacity:1;stroke:none;stroke-width:0.09465954000000000;stroke-miterlimit:4;stroke-dasharray:none;stroke-opacity:1"
       d="m -67.38201,56.997896 c -0.652183,-0.989296 -1.185787,-2.132993 -1.185787,-2.541548 0,-0.408556 0.372706,-1.439653 0.828236,-2.291326 0.45553,-0.851673 1.106563,-2.681122 1.446739,-4.065444 0.571326,-2.324968 1.166238,-3.338028 7.799535,-13.28163 7.10398,-10.649174 7.176138,-10.775084 6.724871,-11.734229 -0.799524,-1.699347 -0.56941,-2.839404 1.063915,-5.27097 1.392767,-2.073443 1.616774,-2.254477 2.674655,-2.161552 1.11138,0.09763 1.25861,-0.05074 3.935155,-3.965566 l 2.780579,-4.0669853 2.082371,0.00157 c 3.612979,0.00272 5.038181,2.1244495 5.040007,7.5031673 l 0.0011,3.100075 -2.731865,4.139506 c -2.629652,3.984632 -2.729315,4.203816 -2.663736,5.858353 0.06242,1.57489 -0.05918,1.908374 -1.451952,3.981817 -1.633326,2.431566 -2.399121,2.774142 -3.540601,1.583873 -0.644348,-0.671812 -0.728924,-0.564388 -7.882157,10.011462 -6.679287,9.875134 -7.359778,10.760793 -8.921498,11.611338 -0.929873,0.506427 -2.158746,1.475637 -2.730829,2.153791 -0.572083,0.678158 -1.274787,1.233015 -1.561564,1.233015 -0.286777,0 -1.055018,-0.809421 -1.707201,-1.798716 z m 2.474305,-3.019979 c 0.191259,-0.343077 1.126091,-1.034013 2.077405,-1.53541 1.621131,-0.854433 2.167269,-1.558193 8.70371,-11.215709 3.835725,-5.667241 6.974046,-10.489904 6.974046,-10.717028 0,-0.56499 -2.013796,-3.594514 -2.389357,-3.594514 -0.16639,0 -3.417168,4.672087 -7.223951,10.382415 -6.48712,9.730943 -6.959848,10.543991 -7.533783,12.957402 -0.336798,1.416245 -0.800911,2.80795 -1.031362,3.09268 -0.463122,0.572199 -0.556486,1.253944 -0.171727,1.253944 0.136003,0 0.403761,-0.280703 0.595019,-0.62378 z m 19.804268,-30.090077 -3.155847,-4.698179 -0.723349,1.011662 -0.723348,1.011662 3.173232,4.7375 3.173232,4.7375 0.705963,-1.050983 0.705964,-1.050983 -3.155847,-4.698179 z m 6.365447,-3.464862 c 2.200339,-3.412037 2.448612,-4.091576 2.302526,-6.302214 -0.143907,-2.177742 -1.723088,-3.683373 -3.371321,-3.214307 -0.721446,0.205314 -5.373302,6.569228 -5.373302,7.350877 0,0.610062 3.419383,5.721481 3.827495,5.721481 0.176842,0 1.353413,-1.600126 2.614602,-3.555837 z"
       id="path3571"
       inkscape:connector-curvature="0" />
    <path
       style="fill:#ffffff;fill-opacity:1;stroke:none;stroke-width:0.09465954000000000;stroke-miterlimit:4;stroke-dasharray:none;stroke-opacity:1"
       d="m -67.242602,56.786342 c -0.573879,-0.874929 -1.043416,-1.911539 -1.043416,-2.303575 0,-0.392036 0.443803,-1.578358 0.986229,-2.636265 0.542426,-1.057912 0.986229,-2.210838 0.986229,-2.562057 0,-1.867187 1.483573,-4.512465 8.113367,-14.466497 7.092418,-10.648621 7.164801,-10.775134 6.713557,-11.734229 -0.751116,-1.596457 -0.552569,-2.762833 0.850406,-4.995756 1.202682,-1.914146 1.410417,-2.079487 2.612682,-2.079487 1.267409,0 1.37691,-0.10699 3.695021,-3.610282 1.313899,-1.985655 2.796937,-3.8733667 3.295639,-4.194915 4.01414,-2.5881905 8.188032,3.625574 6.4495,9.60151 -0.21599,0.74243 -1.483998,2.950261 -2.817797,4.90629 -2.35322,3.451023 -2.425088,3.61404 -2.425088,5.500859 0,1.789839 -0.111064,2.099099 -1.396827,3.889558 -1.499893,2.088639 -2.283367,2.38422 -3.355735,1.266018 -0.644241,-0.671777 -0.729222,-0.564019 -7.882083,9.994619 -6.686294,9.86992 -8.463172,12.078547 -9.717394,12.078547 -0.235921,0 -1.01036,0.660699 -1.720976,1.468221 -0.710617,0.807521 -1.518801,1.46822 -1.795965,1.46822 -0.277164,0 -0.973471,-0.71585 -1.547349,-1.590779 z m 2.334897,-2.388933 c 0.191259,-0.343077 1.126091,-1.033954 2.077405,-1.535284 1.623286,-0.855444 2.167245,-1.558143 8.844599,-11.425663 3.913215,-5.782789 7.114937,-10.700709 7.114937,-10.928712 0,-0.55956 -2.295238,-4.011985 -2.667245,-4.011985 -0.162618,0 -3.430795,4.672086 -7.262616,10.382415 -6.476674,9.651793 -7.016618,10.571558 -7.672806,13.070198 -0.388224,1.47828 -0.910092,3.02375 -1.159709,3.434373 -0.249616,0.410624 -0.370542,0.947254 -0.268724,1.192514 0.25591,0.616434 0.584091,0.557727 0.994159,-0.177856 z m 22.85123,-25.032063 c 0.288391,-0.802217 0.01102,-1.344703 -2.913776,-5.698918 -2.924801,-4.354215 -3.289198,-4.767135 -3.82806,-4.337802 -0.327555,0.260976 -0.73334,0.857781 -0.901745,1.326233 -0.271909,0.75637 0.05695,1.392341 2.937207,5.680249 2.880261,4.287908 3.307454,4.777482 3.815521,4.372685 0.314667,-0.250708 0.715551,-0.854809 0.890853,-1.342447 z m 3.121251,-8.218098 c 2.446135,-3.706028 2.772086,-4.48345 2.772086,-6.611683 0,-3.035216 -2.384501,-4.9769582 -4.315664,-3.514323 -0.788568,0.597251 -4.983064,6.720199 -4.983064,7.274069 0,0.561466 3.709057,6.102996 4.084858,6.102996 0.16277,0 1.261575,-1.462977 2.441784,-3.251059 z"
       id="path3569"
       inkscape:connector-curvature="0" />
    <path
       style="fill:#ffffff;fill-opacity:1;stroke:none;stroke-width:0.09465954000000000;stroke-miterlimit:4;stroke-dasharray:none;stroke-opacity:1"
       d="m -66.994724,57.09281 c -1.448311,-1.893107 -1.505477,-2.645393 -0.366421,-4.821946 0.535523,-1.023299 1.137055,-2.758002 1.336737,-3.854898 0.327199,-1.797371 1.08701,-3.080369 7.692724,-12.989748 l 7.329665,-10.995394 -0.496621,-1.63954 c -0.456693,-1.507724 -0.461002,-1.742082 -0.0536,-2.914946 0.243663,-0.701473 0.921171,-1.870593 1.505575,-2.598044 0.874484,-1.088537 1.234061,-1.283233 2.031553,-1.1 0.912729,0.209711 1.127426,-0.0062 3.696977,-3.71817 2.105538,-3.0416437 3.003736,-4.0513559 3.936565,-4.4252995 3.662766,-1.4682974 6.897614,3.3474925 5.911334,8.8003325 -0.251184,1.38872 -0.929425,2.725888 -2.97255,5.860448 -2.493383,3.825348 -2.638424,4.144972 -2.497559,5.503771 0.123081,1.187245 -0.0077,1.722555 -0.738889,3.024419 -0.488642,0.870014 -1.273959,1.878636 -1.74515,2.241381 -0.787833,0.606512 -0.945255,0.600097 -1.958019,-0.07979 l -1.101308,-0.73933 -7.385794,10.911833 c -6.675234,9.862044 -7.515549,10.964195 -8.734496,11.456103 -0.741786,0.299345 -1.882993,1.176678 -2.536017,1.949629 -0.653023,0.772947 -1.341404,1.407193 -1.529735,1.409429 -0.188331,0.0021 -0.784569,-0.573865 -1.324973,-1.280238 z m 2.864809,-3.10589 c 0.73623,-0.568852 1.909204,-1.414056 2.606609,-1.878232 0.922143,-0.613762 3.150342,-3.649695 8.169,-11.13031 l 6.900992,-10.286349 -1.618077,-2.408866 -1.618076,-2.408866 -6.909517,10.273658 c -5.024857,7.471385 -7.064147,10.788555 -7.476419,12.161369 -0.311797,1.038242 -0.879535,2.784472 -1.261641,3.880515 -1.114531,3.196953 -0.940319,3.456308 1.207129,1.797081 z m 21.679019,-23.788855 c 0.358691,-0.501658 0.652165,-1.206468 0.652165,-1.566243 0,-0.827145 -5.906533,-9.686905 -6.457965,-9.686905 -0.483246,0 -1.713645,1.629066 -1.713645,2.26889 0,0.552904 6.230379,9.896364 6.599065,9.896364 0.147518,0 0.561689,-0.410447 0.92038,-0.912106 z m 3.515179,-9.050817 c 1.335728,-2.018803 2.581,-4.115164 2.76727,-4.658578 0.772722,-2.254281 -0.543048,-5.655229 -2.387166,-6.170266 -1.299196,-0.3628474 -2.155555,0.43847 -4.927159,4.610466 l -2.38849,3.595311 2.099658,3.146808 c 1.154812,1.730745 2.168876,3.146809 2.253476,3.146809 0.0846,0 1.246685,-1.651747 2.582411,-3.67055 z"
       id="path3567"
       inkscape:connector-curvature="0" />
    <path
       style="fill:#ffffff;fill-opacity:1;stroke:none;stroke-width:0.09465954000000000;stroke-miterlimit:4;stroke-dasharray:none;stroke-opacity:1"
       d="m -67.103623,56.57431 c -1.110297,-1.705384 -1.124534,-2.435132 -0.08603,-4.409288 0.448024,-0.851673 0.972828,-2.303579 1.166232,-3.226461 0.193403,-0.922881 0.607918,-2.244279 0.921145,-2.93644 0.313226,-0.692161 3.679629,-5.92377 7.480895,-11.625797 6.611196,-9.917015 6.890739,-10.401299 6.435876,-11.149557 -0.861239,-1.416755 -0.60287,-3.082112 0.795042,-5.124559 1.137351,-1.66175 1.397387,-1.848158 2.480272,-1.777996 1.168152,0.07569 1.291493,-0.04472 3.59014,-3.504865 2.790466,-4.2004737 3.432204,-4.7812098 5.283451,-4.7812098 2.526183,0 4.564137,3.0339468 4.564137,6.7947318 0,2.75599 -0.39009,3.711361 -3.21162,7.865589 -2.324237,3.422046 -2.405119,3.605666 -2.354278,5.34472 0.04713,1.612114 -0.07808,1.999234 -1.194311,3.692434 -1.371947,2.081102 -2.490595,2.465742 -3.442254,1.183596 -0.502618,-0.677164 -0.827919,-0.261001 -7.489348,9.58123 -3.83015,5.659028 -7.344311,10.670667 -7.809247,11.136974 -0.464937,0.466307 -1.352542,1.083404 -1.972458,1.371326 -0.619915,0.287927 -1.595186,1.069213 -2.167269,1.736196 -1.336901,1.558671 -1.884869,1.527406 -2.990378,-0.170624 z m 2.647772,-2.181687 c 0.570569,-0.576428 1.558906,-1.253034 2.196306,-1.503571 0.981012,-0.385593 2.2727,-2.106565 8.414734,-11.211336 3.990704,-5.915702 7.255826,-10.942939 7.255826,-11.171638 0,-0.563419 -2.579424,-4.429805 -2.955304,-4.429805 -0.164771,0 -3.550774,4.860858 -7.524452,10.801907 -6.11583,9.143781 -7.271838,11.066744 -7.530848,12.5272 -0.168287,0.948911 -0.630062,2.436252 -1.026165,3.305207 -0.684493,1.501608 -0.750012,2.730093 -0.145604,2.730093 0.15296,0 0.744938,-0.471626 1.315507,-1.048057 z m 22.304896,-24.256964 c 0.348702,-0.467335 0.634004,-1.049924 0.634004,-1.294641 0,-0.61197 -6.532607,-10.315593 -6.944593,-10.315593 -0.18237,0 -0.659399,0.579992 -1.060066,1.288869 -0.534698,0.946011 -0.660021,1.476068 -0.471117,1.992585 0.141553,0.387044 1.655729,2.750568 3.364836,5.252276 3.222339,4.716705 3.242673,4.730677 4.476936,3.076504 z m 3.356359,-8.778666 c 2.592615,-3.922857 2.913238,-4.674671 2.913238,-6.831108 0,-2.17036 -1.488873,-4.39029 -2.944502,-4.39029 -1.462771,0 -2.257083,0.755825 -4.763835,4.533013 -1.723053,2.596308 -2.174262,3.520188 -2.03598,4.168807 0.22554,1.057908 3.650475,5.980383 4.161,5.980383 0.210559,0 1.412096,-1.557362 2.670079,-3.460805 z"
       id="path3565"
       inkscape:connector-curvature="0" />
    <path
       style="fill:#ffffff;fill-opacity:1;stroke:none;stroke-width:0.09465954000000000;stroke-miterlimit:4;stroke-dasharray:none;stroke-opacity:1"
       d="m -66.840439,56.890477 c -1.278836,-1.601967 -1.343396,-2.459702 -0.328695,-4.367 0.48167,-0.90538 1.074207,-2.648678 1.316747,-3.874003 0.409534,-2.068975 0.9664,-3.01434 7.808221,-13.255644 l 7.367238,-11.027783 -0.492045,-1.27634 c -0.736595,-1.910689 -0.621941,-2.517638 0.896068,-4.743549 1.242731,-1.822262 1.483172,-2.007137 2.295745,-1.765198 0.849321,0.252881 1.077192,0.02604 3.546931,-3.530885 3.557435,-5.1234275 4.861381,-5.8668913 7.345486,-4.1881318 1.979924,1.3380348 3.000406,4.8222548 2.353635,8.0359998 -0.230837,1.14701 -1.140791,2.902657 -2.995273,5.779027 -2.489833,3.86182 -2.651932,4.219159 -2.48331,5.474315 0.161113,1.199257 0.03424,1.563724 -1.186844,3.409321 -1.495182,2.259893 -1.90288,2.430581 -3.186322,1.333996 l -0.85734,-0.732519 -7.40755,10.967768 c -6.87926,10.185572 -7.514278,11.014588 -8.904043,11.624268 -0.823071,0.361078 -1.982526,1.22958 -2.576567,1.930005 -0.59404,0.70043 -1.210598,1.273505 -1.370129,1.273505 -0.15953,0 -0.673409,-0.480217 -1.141953,-1.067152 z m 2.59005,-2.451975 c 0.647512,-0.551199 1.684498,-1.236707 2.304413,-1.52335 0.898289,-0.415359 2.600212,-2.699356 8.382945,-11.249983 3.990704,-5.900849 7.255826,-10.907204 7.255826,-11.125234 0,-0.516807 -2.93295,-4.883153 -3.280098,-4.883153 -0.146454,0 -3.509309,4.860858 -7.47301,10.801906 -5.743604,8.608881 -7.277803,11.142572 -7.556807,12.479873 -0.192543,0.922882 -0.663322,2.492867 -1.046177,3.488853 -0.676558,1.760044 -0.707867,3.013266 -0.07528,3.013266 0.17099,0 0.840674,-0.450983 1.488187,-1.002178 z m 21.943125,-24.036051 c 0.434672,-0.619967 0.790313,-1.41929 0.790313,-1.776275 0,-0.825869 -6.191393,-10.100751 -6.742697,-10.100751 -0.478742,0 -1.992472,2.046701 -1.992472,2.694005 0,0.551767 6.515383,10.310233 6.883778,10.310233 0.148921,0 0.626406,-0.507245 1.061078,-1.127212 z m 3.528726,-9.045458 c 1.422517,-2.134163 2.716562,-4.399336 2.875655,-5.033718 0.628278,-2.505227 -0.674567,-5.786675 -2.515081,-6.3346775 -1.375479,-0.4095412 -2.463954,0.5765605 -5.206091,4.7164495 l -2.529774,3.819277 2.241383,3.356483 c 1.232761,1.846066 2.310263,3.356483 2.394449,3.356483 0.08419,0 1.316943,-1.746134 2.739459,-3.880297 z"
       id="path3563"
       inkscape:connector-curvature="0" />
    <path
       style="fill:#ffffff;fill-opacity:1;stroke:none;stroke-width:0.09465954000000000;stroke-miterlimit:4;stroke-dasharray:none;stroke-opacity:1"
       d="m -66.577833,56.866461 c -1.480159,-1.854161 -1.533181,-2.365308 -0.455646,-4.392467 0.526496,-0.990495 1.11542,-2.6631 1.308718,-3.716896 0.3105,-1.692738 1.216012,-3.216758 7.771156,-13.079222 4.080838,-6.139776 7.415672,-11.330983 7.410744,-11.536017 -0.0049,-0.205034 -0.19513,-0.739219 -0.42267,-1.187077 -0.684936,-1.348137 -0.485256,-2.669689 0.685765,-4.538624 0.995505,-1.588815 1.216721,-1.74715 2.339382,-1.674411 1.206252,0.07816 1.304522,-0.01693 3.620336,-3.502909 2.782941,-4.1891474 3.434444,-4.7817516 5.254676,-4.7796412 2.531962,0.00294 4.308106,2.6471232 4.310079,6.4165102 0.0014,2.70982 -0.396645,3.679724 -3.210567,7.822751 -2.341594,3.447602 -2.405462,3.593899 -2.352964,5.389673 0.04886,1.671329 -0.0575,2.000658 -1.124729,3.482688 -1.255397,1.743325 -2.143106,2.040593 -3.048673,1.020914 -0.300834,-0.338743 -0.659655,-0.6219 -0.79738,-0.629237 -0.137724,-0.0073 -3.624748,4.953295 -7.74894,11.023628 -6.527394,9.607568 -7.662752,11.106088 -8.76654,11.570658 -0.697404,0.293527 -1.711811,1.049253 -2.254237,1.679388 -1.532556,1.780369 -1.589112,1.794522 -2.51851,0.630291 z m 2.133173,-2.065652 c 0.576723,-0.582649 1.37486,-1.175453 1.773636,-1.317346 0.398777,-0.141889 1.105451,-0.541253 1.570387,-0.887472 1.1223,-0.835732 14.793432,-21.043357 14.793432,-21.866523 0,-0.858472 -2.818703,-5.072686 -3.392897,-5.072686 -0.716273,0 -14.464201,20.916461 -14.889015,22.652542 -0.459587,1.878185 -1.342925,4.62356 -1.777087,5.523101 -0.264469,0.547953 -0.257331,0.842478 0.03304,1.363348 0.491989,0.88253 0.658465,0.847712 1.888503,-0.394964 z m 22.213455,-24.153585 c 0.547818,-0.716062 0.996033,-1.515614 0.996033,-1.776782 0,-0.628372 -6.800803,-10.764508 -7.222407,-10.764508 -0.179994,0 -0.722105,0.66948 -1.204691,1.487733 -0.663929,1.125731 -0.813788,1.661612 -0.615883,2.20233 0.304448,0.831813 6.617637,10.153157 6.876562,10.153157 0.09589,0 0.622567,-0.585868 1.170386,-1.30193 z m 3.741903,-9.308208 c 1.41235,-2.144051 2.654271,-4.410546 2.759829,-5.036656 0.644943,-3.825511 -1.719848,-7.3547754 -4.285691,-6.3960592 -0.903546,0.3376052 -6.010262,7.6291562 -6.010262,8.5816662 0,0.857477 3.945714,6.749323 4.519957,6.749323 0.246543,0 1.603817,-1.754223 3.016167,-3.898274 z"
       id="path3561"
       inkscape:connector-curvature="0" />
    <path
       style="fill:#ffffff;fill-opacity:1;stroke:none;stroke-width:0.09465954000000000;stroke-miterlimit:4;stroke-dasharray:none;stroke-opacity:1"
       d="m -66.821844,56.154818 c -0.495338,-0.760823 -0.900614,-1.526978 -0.900614,-1.702565 0,-0.175582 0.372706,-1.016067 0.828236,-1.86774 0.45553,-0.851672 1.108163,-2.681121 1.450296,-4.065443 0.573222,-2.319346 1.182928,-3.358663 7.766043,-13.238154 3.929191,-5.896663 7.13995,-10.993485 7.135022,-11.326271 -0.0049,-0.332787 -0.19513,-0.971496 -0.42267,-1.419355 -0.62564,-1.231426 -0.519258,-1.760682 0.77362,-3.848773 1.120004,-1.808888 1.25031,-1.902627 2.298102,-1.653194 1.101014,0.262104 1.135765,0.22789 3.95515,-3.894043 2.019118,-2.951944 3.116472,-4.2461279 3.782188,-4.4605944 3.063866,-0.9870497 5.848697,3.0260634 5.272556,7.5980764 -0.162409,1.288814 -0.758531,2.448737 -3.005489,5.848044 -2.779309,4.204668 -2.801403,4.254272 -2.625277,5.893988 0.167549,1.55987 0.104583,1.753859 -1.110478,3.421234 -1.402607,1.924735 -1.758117,2.083109 -2.585287,1.151705 -0.300834,-0.338743 -0.729866,-0.6219 -0.953405,-0.629237 -0.223538,-0.0073 -3.647161,4.77259 -7.60805,10.622063 -6.636224,9.800427 -7.334351,10.708111 -8.892295,11.561478 -0.929873,0.509338 -2.158746,1.480931 -2.730829,2.159085 -0.572082,0.678159 -1.149512,1.233016 -1.283177,1.233016 -0.133665,0 -0.648303,-0.622492 -1.143642,-1.38332 z m 2.195919,-0.918426 c 0.191258,-0.343077 1.12609,-1.033845 2.077405,-1.535037 1.627342,-0.857353 2.167227,-1.558092 9.126379,-11.845555 4.068193,-6.013864 7.396715,-11.122337 7.396715,-11.352163 0,-0.562652 -3.144376,-5.266347 -3.520503,-5.266347 -0.163724,0 -3.602819,4.955244 -7.642434,11.011653 -6.910265,10.360242 -7.380965,11.16398 -7.956862,13.586638 -0.336659,1.416246 -0.80066,2.807951 -1.031111,3.092681 -0.428167,0.529012 -0.569334,2.148786 -0.231151,2.652247 0.338184,0.503461 1.426215,0.293305 1.781562,-0.344117 z m 22.600441,-24.414449 c 0.434672,-0.619967 0.790312,-1.513795 0.790312,-1.986285 0,-1.135095 -6.407514,-10.729724 -7.165557,-10.729724 -0.737564,0 -2.133171,2.036976 -2.133171,3.113496 0,1.135096 6.407515,10.729724 7.165558,10.729724 0.3039,0 0.908186,-0.507245 1.342858,-1.127211 z m 3.664014,-9.272284 c 2.04002,-3.129795 2.722152,-4.465073 2.866604,-5.611372 0.467441,-3.709414 -1.782071,-7.0768973 -4.264332,-6.3836367 -0.794501,0.2218925 -1.661878,1.2000517 -3.789183,4.2731407 -1.517353,2.191956 -2.758824,4.274342 -2.758824,4.627522 0,0.836892 4.275195,7.201469 4.83735,7.201469 0.237236,0 1.63601,-1.848206 3.108385,-4.107123 z"
       id="path3559"
       inkscape:connector-curvature="0" />
  </g>
</svg>
