<?xml version="1.0" encoding="UTF-8" standalone="no"?>
<!-- Created with Inkscape (http://www.inkscape.org/) -->

<svg
   xmlns:dc="http://purl.org/dc/elements/1.1/"
   xmlns:cc="http://creativecommons.org/ns#"
   xmlns:rdf="http://www.w3.org/1999/02/22-rdf-syntax-ns#"
   xmlns:svg="http://www.w3.org/2000/svg"
   xmlns="http://www.w3.org/2000/svg"
   xmlns:sodipodi="http://sodipodi.sourceforge.net/DTD/sodipodi-0.dtd"
   xmlns:inkscape="http://www.inkscape.org/namespaces/inkscape"
   id="svg2"
   version="1.1"
   inkscape:version="0.48.4 r9939"
   width="64"
   height="64"
   sodipodi:docname="gtk-theme-config.svg">
  <metadata
     id="metadata8">
    <rdf:RDF>
      <cc:Work
         rdf:about="">
        <dc:format>image/svg+xml</dc:format>
        <dc:type
           rdf:resource="http://purl.org/dc/dcmitype/StillImage" />
        <dc:title />
      </cc:Work>
    </rdf:RDF>
  </metadata>
  <defs
     id="defs6" />
  <sodipodi:namedview
     pagecolor="#ffffff"
     bordercolor="#666666"
     borderopacity="1"
     objecttolerance="10"
     gridtolerance="10"
     guidetolerance="10"
     inkscape:pageopacity="0"
     inkscape:pageshadow="2"
     inkscape:window-width="1316"
     inkscape:window-height="674"
     id="namedview4"
     showgrid="false"
     inkscape:zoom="3.6875"
     inkscape:cx="-19.932204"
     inkscape:cy="32"
     inkscape:window-x="44"
     inkscape:window-y="29"
     inkscape:window-maximized="1"
     inkscape:current-layer="svg2" />
  <rect
     style="fill:#000000;fill-opacity:1;stroke:#000000;stroke-width:0.53665989999999997;stroke-linecap:round;stroke-linejoin:round;stroke-miterlimit:4;stroke-opacity:1;stroke-dasharray:none"
     id="rect3005"
     width="59.081985"
     height="59.624359"
     x="2.4590092"
     y="2.1878221"
     ry="5.9392786"
     rx="5.9392786" />
  <g
     id="g5255"
     transform="matrix(1.3813559,0,0,1.4152542,9.7627108,8.6779661)"
     style="fill:#ffffff">
    <g
       id="icomoon-ignore"
       style="fill:#ffffff" />
    <path
       id="path5247"
       d="M 26.668,0 H 5.334 C 2.4,0 0,2.401 0,5.334 V 26.666 C 0,29.601 2.4,32 5.334,32 H 26.668 C 29.602,32 32,29.602 32,26.666 V 5.334 C 32,2.4 29.602,0 26.668,0 z M 30,26.666 c 0,0.885 -0.348,1.721 -0.98,2.354 C 28.388,29.653 27.553,30 26.668,30 H 16 V 16 H 2 V 5.334 C 2,4.449 2.348,3.614 2.981,2.981 3.614,2.348 4.449,2 5.334,2 H 16 v 14 h 14 v 10.666 z"
       inkscape:connector-curvature="0"
       style="fill:#ffffff" />
  </g>
  <g
     id="g3147"
     transform="matrix(-0.03008281,1.2487918,-1.2589308,-0.02984054,53.429996,10.795169)"
     style="fill:#ff0000;stroke:#ffffff;stroke-opacity:1;stroke-width:1.71741715;stroke-miterlimit:4;stroke-dasharray:none">
    <g
       id="icomoon-ignore-2"
       style="fill:#ff0000;stroke:#ffffff;stroke-opacity:1;stroke-width:1.71741715;stroke-miterlimit:4;stroke-dasharray:none" />
    <path
       id="path3139"
       d="M 31.342,25.559 16.95,13.223 c 0.67,-1.259 1.051,-2.696 1.051,-4.222 0,-4.971 -4.029,-9 -9,-9 -0.909,0 -1.787,0.135 -2.614,0.386 l 5.2,5.2 c 0.778,0.778 0.778,2.051 0,2.828 l -3.172,3.172 c -0.778,0.778 -2.051,0.778 -2.828,0 l -5.2,-5.2 C 0.136,7.214 0.001,8.092 0.001,9.001 c 0,4.971 4.029,9 9,9 1.526,0 2.963,-0.38 4.222,-1.051 l 12.336,14.392 c 0.716,0.835 1.938,0.882 2.716,0.104 l 3.172,-3.172 c 0.778,-0.778 0.731,-2 -0.104,-2.716 z"
       inkscape:connector-curvature="0"
       style="fill:#ff0000;stroke:#ffffff;stroke-opacity:1;stroke-width:1.71741715;stroke-miterlimit:4;stroke-dasharray:none" />
  </g>
</svg>
