<?xml version="1.0" encoding="UTF-8" standalone="no"?>
<!-- Created with Inkscape (http://www.inkscape.org/) -->

<svg
   xmlns:dc="http://purl.org/dc/elements/1.1/"
   xmlns:cc="http://creativecommons.org/ns#"
   xmlns:rdf="http://www.w3.org/1999/02/22-rdf-syntax-ns#"
   xmlns:svg="http://www.w3.org/2000/svg"
   xmlns="http://www.w3.org/2000/svg"
   xmlns:sodipodi="http://sodipodi.sourceforge.net/DTD/sodipodi-0.dtd"
   xmlns:inkscape="http://www.inkscape.org/namespaces/inkscape"
   id="svg2"
   version="1.1"
   inkscape:version="0.48.4 r9939"
   width="64"
   height="64"
   sodipodi:docname="base-multiple-mono-3.svg">
  <metadata
     id="metadata8">
    <rdf:RDF>
      <cc:Work
         rdf:about="">
        <dc:format>image/svg+xml</dc:format>
        <dc:type
           rdf:resource="http://purl.org/dc/dcmitype/StillImage" />
        <dc:title></dc:title>
      </cc:Work>
    </rdf:RDF>
  </metadata>
  <defs
     id="defs6" />
  <sodipodi:namedview
     pagecolor="#ffffff"
     bordercolor="#666666"
     borderopacity="1"
     objecttolerance="10"
     gridtolerance="10"
     guidetolerance="10"
     inkscape:pageopacity="0"
     inkscape:pageshadow="2"
     inkscape:window-width="1317"
     inkscape:window-height="713"
     id="namedview4"
     showgrid="false"
     inkscape:zoom="3.6875"
     inkscape:cx="-14.101695"
     inkscape:cy="32"
     inkscape:window-x="43"
     inkscape:window-y="24"
     inkscape:window-maximized="1"
     inkscape:current-layer="svg2" />
  <rect
     style="fill:#000000;fill-opacity:1;stroke:#000000;stroke-width:0.53665989999999997;stroke-linecap:round;stroke-linejoin:round;stroke-miterlimit:4;stroke-opacity:1;stroke-dasharray:none"
     id="rect3005"
     width="59.081985"
     height="59.624359"
     x="2.4590092"
     y="2.1878221"
     ry="5.9392786"
     rx="5.9392786" />
  <path
     id="path9920"
     d="m 37.032785,43.618607 3.230131,1.85429 -0.52857,0.06784 0.52857,0.30341 c -5.157128,0.669884 -9.055864,0.923819 -11.958871,0.906953 -8.601087,0.03355 -8.946984,-2.209707 -7.187646,-3.334518 0.404658,-0.418478 1.084785,-0.75834 1.842696,-0.910701 0,2.967015 8.536502,1.854478 14.07369,1.112724 z m 1.153465,-5.192276 2.768585,1.483601 c -5.999891,1.667727 -9.677605,1.766585 -12.949131,1.749905 -8.780037,0.0283 -9.970819,-1.983882 -8.326292,-2.896175 0.248771,-0.314374 0.760813,-0.572994 1.43396,-0.708209 0.922861,2.967015 8.305773,1.483508 17.072878,0.370878 z m 5.075873,2.596137 c 0,0 2.81429,-1.459144 4.931298,-3.101291 0.856764,-0.71458 1.53609,-1.445371 1.759232,-2.091079 1.153697,-3.337985 -5.306353,-3.337985 -5.306353,-3.337985 0.453977,-0.132682 8.767445,-2.78345 8.188147,2.453241 0.155493,2.461862 -2.815233,5.672411 -9.430099,6.370687 -0.197832,0.02792 -0.312555,-0.07384 -0.142136,-0.293573 z m 0.922862,-25.219718 -0.60297,0.39627 -0.0244,0.09942 0.627336,-0.12453 c -1.698726,1.365348 -9.054013,4.020612 -9.325654,7.295349 l 0.09707,0.492877 c 0.580705,1.86694 3.536647,3.220013 3.349183,5.260399 0.117549,1.275954 -0.952606,2.811841 -4.733485,4.938996 l 0.156919,-0.357291 c -0.197599,0.117139 -0.403607,0.236038 -0.618465,0.356916 l 1.384302,-3.152547 c 0.922861,-2.225261 -3.691465,-2.967015 -3.691465,-5.93403 0,-2.050223 1.203712,-3.678127 2.876326,-4.950521 3.739484,-3.177472 10.505338,-4.321305 10.505338,-4.321305 z M 36.802056,6.1600464 c 1.598928,1.4279409 2.205977,2.8008776 2.142319,4.1161886 0.277591,5.686747 -12.334159,10.318304 -12.524652,13.686179 0.160125,2.979196 3.959829,7.447429 4.845145,8.159011 l -0.992451,-0.650862 0.992451,1.022019 c 0,0 -0.539881,-0.331801 -1.336264,-0.888304 0.37867,0.427659 0.690049,0.739504 0.874717,0.887835 0,0 -7.844458,-4.821305 -7.844458,-8.530072 0,-1.446121 0.926015,-3.103634 3.695651,-5.273048 1.526881,-1.259371 3.690876,-2.694622 6.686699,-4.369657 0.370834,-0.207366 0.706828,-0.425599 1.010868,-0.652174 3.45924,-2.998779 1.988428,-7.1364278 1.988428,-7.1364278 0.22583,0.2016501 0.431713,0.4021753 0.618821,0.6015755 C 36.88114,6.7534678 36.802056,6.5312034 36.802056,6.5312034 l 0.134125,0.1216314 -0.134125,-0.492783 z M 23.881957,32.121425 22.188128,32.654219 c 0.751731,-0.104203 1.232281,-0.162102 1.232281,-0.162102 -0.126997,0.03833 -0.25333,0.07656 -0.378652,0.114874 l 0.8402,-0.114421 c -2.584042,0.778859 -4.857275,1.55772 -5.335617,2.113942 0.818522,0.693403 7.23253,0.667915 25.407934,-1.001593 l -1.039454,0.423632 c 0.191312,-0.01739 0.384013,-0.03505 0.469596,-5.63e-4 l 0.569858,-0.0519 c 0,0 -5.264282,2.729758 -18.415449,2.685717 -2.299825,0.0036 -4.846782,-0.07795 -7.655604,-0.27558 -4.646493,-0.600169 -5.234768,-1.272302 -4.082833,-1.886993 0.736697,-1.251219 10.081569,-2.377809 10.081569,-2.377809 z m -6.46005,14.093226 -0.780638,0.374719 c 0.108116,-0.0025 0.214628,-0.004 0.283879,0.01123 l 0.496759,-0.01467 c 0,0 -2.318349,0.978073 -2.629052,1.87631 0.22512,0.567372 1.602777,1.034014 5.397637,1.090424 24.917356,0.370782 30.454542,-2.596233 30.454542,-2.596233 l -0.781687,0.678973 0.781687,-0.30772 c -2.894493,2.908074 -9.193438,3.991938 -20.676444,3.966733 -3.276067,0.0015 -6.98269,0.280546 -11.162506,0.112537 C 8.8356218,51.006279 7.4826861,49.368818 9.2192968,48.288889 10.154288,47.220207 14.538706,46.214678 17.421907,46.214678 z m 36.914824,3.709237 c -2.977157,3.418382 -11.777605,4.687122 -19.406278,4.661446 -9.087819,0.01467 -17.508778,-0.952677 -17.508778,-1.323836 0,0 22.148058,1.668852 36.915056,-3.33761 z"
     inkscape:connector-curvature="0"
     style="fill:#ffffff;fill-opacity:1;stroke-width:0.2;stroke-linejoin:round" />
</svg>
