<?xml version="1.0" encoding="UTF-8" standalone="no"?>
<!-- Created with Inkscape (http://www.inkscape.org/) -->

<svg
   xmlns:dc="http://purl.org/dc/elements/1.1/"
   xmlns:cc="http://creativecommons.org/ns#"
   xmlns:rdf="http://www.w3.org/1999/02/22-rdf-syntax-ns#"
   xmlns:svg="http://www.w3.org/2000/svg"
   xmlns="http://www.w3.org/2000/svg"
   xmlns:xlink="http://www.w3.org/1999/xlink"
   xmlns:sodipodi="http://sodipodi.sourceforge.net/DTD/sodipodi-0.dtd"
   xmlns:inkscape="http://www.inkscape.org/namespaces/inkscape"
   id="svg2"
   version="1.1"
   inkscape:version="0.48.4 r9939"
   width="64"
   height="64"
   sodipodi:docname="jabber.svg">
  <metadata
     id="metadata8">
    <rdf:RDF>
      <cc:Work
         rdf:about="">
        <dc:format>image/svg+xml</dc:format>
        <dc:type
           rdf:resource="http://purl.org/dc/dcmitype/StillImage" />
        <dc:title></dc:title>
      </cc:Work>
    </rdf:RDF>
  </metadata>
  <defs
     id="defs6">
    <clipPath
       id="clipPath-054510414">
      <g
         id="g5365"
         transform="translate(0,-1004.3622)">
        <path
           id="path5367"
           fill="#1890d0"
           transform="matrix(15.333333,0,0,11.5,414.99999,878.8622)"
           d="m -24 13 c 0 1.105 -0.672 2 -1.5 2 -0.828 0 -1.5 -0.895 -1.5 -2 0 -1.105 0.672 -2 1.5 -2 0.828 0 1.5 0.895 1.5 2 z" />
      </g>
    </clipPath>
    <clipPath
       id="clipPath-049320422">
      <g
         id="g5360"
         transform="translate(0,-1004.3622)">
        <path
           id="path5362"
           fill="#1890d0"
           transform="matrix(15.333333,0,0,11.5,414.99999,878.8622)"
           d="m -24 13 c 0 1.105 -0.672 2 -1.5 2 -0.828 0 -1.5 -0.895 -1.5 -2 0 -1.105 0.672 -2 1.5 -2 0.828 0 1.5 0.895 1.5 2 z" />
      </g>
    </clipPath>
    <linearGradient
       gradientTransform="matrix(0,-1,1,0,-1.5e-6,47.999998)"
       gradientUnits="userSpaceOnUse"
       x2="47"
       x1="1"
       id="linearGradient3764">
      <stop
         id="stop5355"
         stop-opacity="1"
         stop-color="#e4e4e4" />
      <stop
         id="stop5357"
         stop-opacity="1"
         stop-color="#eee"
         offset="1" />
    </linearGradient>
    <clipPath
       id="clipPath-623308171">
      <g
         id="g8802"
         transform="translate(0,-1004.3622)">
        <path
           id="path8804"
           fill="#1890d0"
           transform="matrix(15.333333,0,0,11.5,414.99999,878.8622)"
           d="m -24 13 c 0 1.105 -0.672 2 -1.5 2 -0.828 0 -1.5 -0.895 -1.5 -2 0 -1.105 0.672 -2 1.5 -2 0.828 0 1.5 0.895 1.5 2 z" />
      </g>
    </clipPath>
    <clipPath
       id="clipPath-610374986">
      <g
         id="g8797"
         transform="translate(0,-1004.3622)">
        <path
           id="path8799"
           fill="#1890d0"
           transform="matrix(15.333333,0,0,11.5,414.99999,878.8622)"
           d="m -24 13 c 0 1.105 -0.672 2 -1.5 2 -0.828 0 -1.5 -0.895 -1.5 -2 0 -1.105 0.672 -2 1.5 -2 0.828 0 1.5 0.895 1.5 2 z" />
      </g>
    </clipPath>
    <linearGradient
       gradientTransform="matrix(0,-1,1,0,-1.5e-6,47.999998)"
       gradientUnits="userSpaceOnUse"
       x2="47"
       x1="1"
       id="linearGradient3764-8">
      <stop
         id="stop8792"
         stop-opacity="1"
         stop-color="#e6a712" />
      <stop
         id="stop8794"
         stop-opacity="1"
         stop-color="#edb020"
         offset="1" />
    </linearGradient>
    <linearGradient
       x2="47"
       x1="1"
       gradientTransform="matrix(0,-1,1,0,-1.5e-6,47.999998)"
       gradientUnits="userSpaceOnUse"
       id="linearGradient3126">
      <stop
         id="stop22448"
         stop-opacity="1"
         stop-color="#5ab133" />
      <stop
         id="stop22450"
         stop-opacity="1"
         stop-color="#63c038"
         offset="1" />
    </linearGradient>
    <clipPath
       id="clipPath22441">
      <g
         id="g22443"
         transform="translate(0,-1004.3622)">
        <path
           id="path22445"
           fill="#1890d0"
           transform="matrix(15.333333,0,0,11.5,414.99999,878.8622)"
           d="m -24 13 c 0 1.105 -0.672 2 -1.5 2 -0.828 0 -1.5 -0.895 -1.5 -2 0 -1.105 0.672 -2 1.5 -2 0.828 0 1.5 0.895 1.5 2 z" />
      </g>
    </clipPath>
    <clipPath
       id="clipPath-324598080">
      <g
         id="g22437"
         transform="translate(0,-1004.3622)">
        <path
           id="path22439"
           fill="#1890d0"
           transform="matrix(15.333333,0,0,11.5,414.99999,878.8622)"
           d="m -24 13 c 0 1.105 -0.672 2 -1.5 2 -0.828 0 -1.5 -0.895 -1.5 -2 0 -1.105 0.672 -2 1.5 -2 0.828 0 1.5 0.895 1.5 2 z" />
      </g>
    </clipPath>
    <linearGradient
       gradientTransform="matrix(0.115078,2.68729,-3.550921,0.0870898,-92.13101,122.46896)"
       x2="1"
       x1="0"
       gradientUnits="userSpaceOnUse"
       id="linearGradient24539">
      <stop
         id="stop24541"
         stop-opacity="1"
         stop-color="#fade17" />
      <stop
         id="stop24543"
         stop-opacity="1"
         stop-color="#f1511a"
         offset="1" />
    </linearGradient>
    <linearGradient
       gradientTransform="matrix(-0.0328728,-4.018518,5.309974,-0.0248777,-91.154216,125.14714)"
       x2="1"
       x1="0"
       gradientUnits="userSpaceOnUse"
       id="linearGradient24533">
      <stop
         id="stop24535"
         stop-opacity="1"
         stop-color="#ec2c20" />
      <stop
         id="stop24537"
         stop-opacity="1"
         stop-color="#fab218"
         offset="1" />
    </linearGradient>
    <linearGradient
       gradientTransform="matrix(0.115078,2.68729,-3.550921,0.0870898,-92.13101,122.46896)"
       x2="1"
       x1="0"
       gradientUnits="userSpaceOnUse"
       id="linear1">
      <stop
         id="stop24529"
         stop-opacity="1"
         stop-color="#fade17" />
      <stop
         id="stop24531"
         stop-opacity="1"
         stop-color="#f1511a"
         offset="1" />
    </linearGradient>
    <linearGradient
       gradientTransform="matrix(-0.0328728,-4.018518,5.309974,-0.0248777,-91.154216,125.14714)"
       x2="1"
       x1="0"
       gradientUnits="userSpaceOnUse"
       id="linear0">
      <stop
         id="stop24524"
         stop-opacity="1"
         stop-color="#ec2c20" />
      <stop
         id="stop24526"
         stop-opacity="1"
         stop-color="#fab218"
         offset="1" />
    </linearGradient>
    <clipPath
       id="clipPath-315841711">
      <g
         id="g24519"
         transform="translate(0,-1004.3622)">
        <path
           id="path24521"
           fill="#1890d0"
           transform="matrix(15.333333,0,0,11.5,414.99999,878.8622)"
           d="m -24 13 c 0 1.105 -0.672 2 -1.5 2 -0.828 0 -1.5 -0.895 -1.5 -2 0 -1.105 0.672 -2 1.5 -2 0.828 0 1.5 0.895 1.5 2 z" />
      </g>
    </clipPath>
    <clipPath
       id="clipPath-309962591">
      <g
         id="g24514"
         transform="translate(0,-1004.3622)">
        <path
           id="path24516"
           fill="#1890d0"
           transform="matrix(15.333333,0,0,11.5,414.99999,878.8622)"
           d="m -24 13 c 0 1.105 -0.672 2 -1.5 2 -0.828 0 -1.5 -0.895 -1.5 -2 0 -1.105 0.672 -2 1.5 -2 0.828 0 1.5 0.895 1.5 2 z" />
      </g>
    </clipPath>
    <linearGradient
       gradientTransform="matrix(0,-1,1,0,-1.5e-6,47.999998)"
       gradientUnits="userSpaceOnUse"
       x2="47"
       x1="1"
       id="linearGradient3764-4">
      <stop
         id="stop24509"
         stop-opacity="1"
         stop-color="#434343" />
      <stop
         id="stop24511"
         stop-opacity="1"
         stop-color="#4d4d4d"
         offset="1" />
    </linearGradient>
    <linearGradient
       inkscape:collect="always"
       xlink:href="#linear0"
       id="linearGradient24664"
       gradientUnits="userSpaceOnUse"
       gradientTransform="matrix(-0.0328728,-4.018518,5.309974,-0.0248777,-91.154216,125.14714)"
       x1="0"
       x2="1" />
    <linearGradient
       inkscape:collect="always"
       xlink:href="#linear1"
       id="linearGradient24666"
       gradientUnits="userSpaceOnUse"
       gradientTransform="matrix(0.115078,2.68729,-3.550921,0.0870898,-92.13101,122.46896)"
       x1="0"
       x2="1" />
    <linearGradient
       inkscape:collect="always"
       xlink:href="#linear0"
       id="linearGradient24673"
       gradientUnits="userSpaceOnUse"
       gradientTransform="matrix(-0.0328728,-4.018518,5.309974,-0.0248777,-91.154216,125.14714)"
       x1="0"
       x2="1" />
    <linearGradient
       inkscape:collect="always"
       xlink:href="#linear1"
       id="linearGradient24675"
       gradientUnits="userSpaceOnUse"
       gradientTransform="matrix(0.115078,2.68729,-3.550921,0.0870898,-92.13101,122.46896)"
       x1="0"
       x2="1" />
    <linearGradient
       inkscape:collect="always"
       xlink:href="#linear0"
       id="linearGradient24681"
       gradientUnits="userSpaceOnUse"
       gradientTransform="matrix(-0.0328728,-4.018518,5.309974,-0.0248777,-91.154216,125.14714)"
       x1="0"
       x2="1" />
    <linearGradient
       inkscape:collect="always"
       xlink:href="#linear1"
       id="linearGradient24683"
       gradientUnits="userSpaceOnUse"
       gradientTransform="matrix(0.115078,2.68729,-3.550921,0.0870898,-92.13101,122.46896)"
       x1="0"
       x2="1" />
  </defs>
  <sodipodi:namedview
     pagecolor="#ffffff"
     bordercolor="#666666"
     borderopacity="1"
     objecttolerance="10"
     gridtolerance="10"
     guidetolerance="10"
     inkscape:pageopacity="0"
     inkscape:pageshadow="2"
     inkscape:window-width="1316"
     inkscape:window-height="674"
     id="namedview4"
     showgrid="false"
     inkscape:zoom="3.6875"
     inkscape:cx="-15.186441"
     inkscape:cy="32"
     inkscape:window-x="44"
     inkscape:window-y="29"
     inkscape:window-maximized="1"
     inkscape:current-layer="svg2" />
  <rect
     style="fill:#000000;fill-opacity:1;stroke:#000000;stroke-width:0.53665989999999997;stroke-linecap:round;stroke-linejoin:round;stroke-miterlimit:4;stroke-opacity:1;stroke-dasharray:none"
     id="rect3005"
     width="59.081985"
     height="59.624359"
     x="2.4590092"
     y="2.1878221"
     ry="5.9392786"
     rx="5.9392786" />
  <g
     id="g5381"
     transform="translate(-113.17697,2.0762712)" />
  <g
     id="g8818"
     transform="translate(-110.73629,2.6186441)" />
  <g
     id="g24557"
     transform="translate(-104.22781,3.9745763)" />
  <path
     sodipodi:type="arc"
     style="fill:#ffffff;fill-opacity:1;stroke:#000000;stroke-width:0.40000001;stroke-linecap:round;stroke-linejoin:round;stroke-miterlimit:4;stroke-opacity:1;stroke-dasharray:none"
     id="path24697"
     sodipodi:cx="31.728813"
     sodipodi:cy="30.644068"
     sodipodi:rx="20.61017"
     sodipodi:ry="21.694916"
     d="m 52.338984,30.644068 a 20.61017,21.694916 0 1 1 -41.220341,0 20.61017,21.694916 0 1 1 41.220341,0 z"
     transform="matrix(1.1696318,0,0,1.1236503,-4.8398449,-2.7044016)" />
  <g
     id="g24702"
     transform="matrix(1,0,0,0.84400003,0,7.9857281)">
    <path
       style="fill:#ffffff;fill-opacity:0.49800002;fill-rule:nonzero;stroke:none"
       inkscape:connector-curvature="0"
       d="m 32.856935,24.974576 c 0.828,0 1.582,0.332 2.125,0.875 0.543,0.543 0.875,1.297 0.875,2.125 0,0.828 -0.332,1.582 -0.875,2.125 -0.543,0.543 -1.297,0.875 -2.125,0.875 -0.828,0 -1.582,-0.332 -2.125,-0.875 -0.543,-0.543 -0.875,-1.297 -0.875,-2.125 0,-0.828 0.332,-1.582 0.875,-2.125 0.543,-0.543 1.297,-0.875 2.125,-0.875 m 0,0"
       id="path24581" />
    <path
       style="fill:#000000;fill-rule:nonzero;stroke:none"
       inkscape:connector-curvature="0"
       d="m 29.637935,9.474576 c 4.367,7.113 0.426,8.25 -0.406,13.813 0.406,-0.313 0.801,-0.641 1.281,-0.844 0.719,-0.305 1.516,-0.469 2.344,-0.469 0.828,0 1.625,0.164 2.344,0.469 0.719,0.305 1.363,0.738 1.906,1.281 0.543,0.543 0.977,1.188 1.281,1.906 0.305,0.719 0.469,1.516 0.469,2.344 0,0.828 -0.164,1.625 -0.469,2.344 -0.305,0.719 -0.738,1.363 -1.281,1.906 -0.543,0.543 -1.188,0.977 -1.906,1.281 -0.719,0.305 -1.516,0.469 -2.344,0.469 -0.828,0 -1.625,-0.164 -2.344,-0.469 -0.719,-0.305 -1.363,-0.738 -1.906,-1.281 -0.543,-0.543 -0.977,-1.188 -1.281,-1.906 -0.305,-0.719 -0.469,-1.516 -0.469,-2.344 0,-0.828 0.164,-1.625 0.469,-2.344 0.125,-0.297 0.363,-0.512 0.531,-0.781 -0.566,-0.84 -1.313,-1.504 -3,-1.875 4,7 -4.77,6.219 -3.938,12.313 -1.078,-0.297 -2.066,-2.305 -1.25,-4.781 -2.816,3.477 -1.813,6.469 0.188,9.469 -2,-2 -5.27,-1.992 -6.27,-4.805 -1.48,8.57 9.27,16.02 19.832,16.02 l 0.75,0 c 6.621,0 16.465,-5.938 16.734,-13.27 -0.93,1.379 -5.05,4.051 -6.891,4.051 4.848,-4 5.852,-10 1.531,-15.75 0.32,3.75 -1.699,5.754 -3.469,7.03 2.77,-5.281 2.77,-11.297 -2.656,-16.594 0.434,1.297 0.766,2.313 0.469,3.5 0.301,-1.453 -4.03,-8.184 -10.25,-10.688 m 0,0.004"
       id="path24583" />
    <path
       style="fill:#ff0000;fill-rule:nonzero;stroke:none"
       inkscape:connector-curvature="0"
       d="m 28.856935,32.380576 c -2.098,2.176 -4,4.5 -4,7.594 0,5 3.387,9 8.188,9 l 0.188,0 c 5.742,-0.195 9.102,-6.703 4.438,-12.188 -0.801,-0.82 -0.813,-2.813 0.191,-4.813 -2,1 -3,3 -2,5 -1.078,-0.809 -1.328,-1.992 -1.281,-3.344 -0.555,0.168 -1.113,0.344 -1.719,0.344 -0.832,0 -1.629,-0.164 -2.348,-0.469 -0.625,-0.266 -1.16,-0.676 -1.652,-1.125 m -0.004,0"
       id="path24585" />
  </g>
</svg>
