<?xml version="1.0" encoding="UTF-8" standalone="no"?>
<!-- Created with Inkscape (http://www.inkscape.org/) -->

<svg
   xmlns:dc="http://purl.org/dc/elements/1.1/"
   xmlns:cc="http://creativecommons.org/ns#"
   xmlns:rdf="http://www.w3.org/1999/02/22-rdf-syntax-ns#"
   xmlns:svg="http://www.w3.org/2000/svg"
   xmlns="http://www.w3.org/2000/svg"
   xmlns:sodipodi="http://sodipodi.sourceforge.net/DTD/sodipodi-0.dtd"
   xmlns:inkscape="http://www.inkscape.org/namespaces/inkscape"
   id="svg2"
   version="1.1"
   inkscape:version="0.48.4 r9939"
   width="64"
   height="64"
   sodipodi:docname="DRAW.svg">
  <metadata
     id="metadata8">
    <rdf:RDF>
      <cc:Work
         rdf:about="">
        <dc:format>image/svg+xml</dc:format>
        <dc:type
           rdf:resource="http://purl.org/dc/dcmitype/StillImage" />
        <dc:title />
      </cc:Work>
    </rdf:RDF>
  </metadata>
  <defs
     id="defs6">
    <inkscape:perspective
       id="perspective3009"
       inkscape:persp3d-origin="12 : 8 : 1"
       inkscape:vp_z="24 : 12 : 1"
       inkscape:vp_y="0 : 1000 : 0"
       inkscape:vp_x="0 : 12 : 1"
       sodipodi:type="inkscape:persp3d" />
    <clipPath
       id="clipPath-121758028">
      <g
         id="g3177"
         transform="translate(0,-1004.3622)">
        <path
           id="path3179"
           fill="#1890d0"
           transform="matrix(15.333333,0,0,11.5,414.99999,878.8622)"
           d="m -24 13 c 0 1.105 -0.672 2 -1.5 2 -0.828 0 -1.5 -0.895 -1.5 -2 0 -1.105 0.672 -2 1.5 -2 0.828 0 1.5 0.895 1.5 2 z" />
      </g>
    </clipPath>
    <clipPath
       id="clipPath-113117232">
      <g
         id="g3172"
         transform="translate(0,-1004.3622)">
        <path
           id="path3174"
           fill="#1890d0"
           transform="matrix(15.333333,0,0,11.5,414.99999,878.8622)"
           d="m -24 13 c 0 1.105 -0.672 2 -1.5 2 -0.828 0 -1.5 -0.895 -1.5 -2 0 -1.105 0.672 -2 1.5 -2 0.828 0 1.5 0.895 1.5 2 z" />
      </g>
    </clipPath>
    <linearGradient
       gradientTransform="matrix(0,-1,1,0,-1.5e-6,47.999998)"
       gradientUnits="userSpaceOnUse"
       x2="47"
       x1="1"
       id="linearGradient3764">
      <stop
         id="stop3167"
         stop-opacity="1"
         stop-color="#f0e9c8" />
      <stop
         id="stop3169"
         stop-opacity="1"
         stop-color="#f4efd8"
         offset="1" />
    </linearGradient>
    <clipPath
       id="clipPath-580235580">
      <g
         id="g5359"
         transform="translate(0,-1004.3622)">
        <path
           id="path5361"
           fill="#1890d0"
           transform="matrix(15.333333,0,0,11.5,414.99999,878.8622)"
           d="m -24 13 c 0 1.105 -0.672 2 -1.5 2 -0.828 0 -1.5 -0.895 -1.5 -2 0 -1.105 0.672 -2 1.5 -2 0.828 0 1.5 0.895 1.5 2 z" />
      </g>
    </clipPath>
    <clipPath
       id="clipPath-568471406">
      <g
         id="g5354"
         transform="translate(0,-1004.3622)">
        <path
           id="path5356"
           fill="#1890d0"
           transform="matrix(15.333333,0,0,11.5,414.99999,878.8622)"
           d="m -24 13 c 0 1.105 -0.672 2 -1.5 2 -0.828 0 -1.5 -0.895 -1.5 -2 0 -1.105 0.672 -2 1.5 -2 0.828 0 1.5 0.895 1.5 2 z" />
      </g>
    </clipPath>
    <linearGradient
       gradientTransform="matrix(0,-1,1,0,-1.5e-6,47.999998)"
       gradientUnits="userSpaceOnUse"
       x2="47"
       x1="1"
       id="linearGradient3764-7">
      <stop
         id="stop5349"
         stop-opacity="1"
         stop-color="#e04c8b" />
      <stop
         id="stop5351"
         stop-opacity="1"
         stop-color="#e35e97"
         offset="1" />
    </linearGradient>
    <clipPath
       id="clipPath-588794431">
      <g
         id="g6710"
         transform="translate(0,-1004.3622)">
        <path
           id="path6712"
           fill="#1890d0"
           transform="matrix(15.333333,0,0,11.5,414.99999,878.8622)"
           d="m -24 13 c 0 1.105 -0.672 2 -1.5 2 -0.828 0 -1.5 -0.895 -1.5 -2 0 -1.105 0.672 -2 1.5 -2 0.828 0 1.5 0.895 1.5 2 z" />
      </g>
    </clipPath>
    <clipPath
       id="clipPath-580766965">
      <g
         id="g6705"
         transform="translate(0,-1004.3622)">
        <path
           id="path6707"
           fill="#1890d0"
           transform="matrix(15.333333,0,0,11.5,414.99999,878.8622)"
           d="m -24 13 c 0 1.105 -0.672 2 -1.5 2 -0.828 0 -1.5 -0.895 -1.5 -2 0 -1.105 0.672 -2 1.5 -2 0.828 0 1.5 0.895 1.5 2 z" />
      </g>
    </clipPath>
    <linearGradient
       gradientTransform="matrix(0,-1,1,0,-1.5e-6,47.999998)"
       gradientUnits="userSpaceOnUse"
       x2="47"
       x1="1"
       id="linearGradient3764-76">
      <stop
         id="stop6700"
         stop-opacity="1"
         stop-color="#b0e648" />
      <stop
         id="stop6702"
         stop-opacity="1"
         stop-color="#b9e85a"
         offset="1" />
    </linearGradient>
  </defs>
  <sodipodi:namedview
     pagecolor="#ffffff"
     bordercolor="#666666"
     borderopacity="1"
     objecttolerance="10"
     gridtolerance="10"
     guidetolerance="10"
     inkscape:pageopacity="0"
     inkscape:pageshadow="2"
     inkscape:window-width="1316"
     inkscape:window-height="674"
     id="namedview4"
     showgrid="false"
     inkscape:zoom="2.6074563"
     inkscape:cx="6.3252668"
     inkscape:cy="30.372881"
     inkscape:window-x="44"
     inkscape:window-y="29"
     inkscape:window-maximized="1"
     inkscape:current-layer="svg2" />
  <rect
     style="fill:#000000;fill-opacity:1;stroke:#000000;stroke-width:0.53665989999999997;stroke-linecap:round;stroke-linejoin:round;stroke-miterlimit:4;stroke-opacity:1;stroke-dasharray:none"
     id="rect3005"
     width="59.081985"
     height="59.624359"
     x="2.4590092"
     y="2.1878221"
     ry="5.9392786"
     rx="5.9392786" />
  <g
     id="g3193"
     transform="translate(-49.176966,-14.466102)" />
  <path
     style="fill:#ffffff;stroke:#000000;stroke-width:1px;stroke-linecap:butt;stroke-linejoin:miter;stroke-opacity:1"
     d="M 35.283429,3.7880591 59.061393,26.031962 58.677878,6.4726691 54.459207,3.7880601 z"
     id="path4360"
     inkscape:connector-curvature="0"
     sodipodi:nodetypes="ccccc" />
  <g
     id="g5375"
     transform="translate(-86.823015,-1.227801)" />
  <g
     id="g6726"
     transform="translate(-103.6977,-1.9948321)" />
  <g
     id="g6855"
     transform="matrix(0.46918741,0,0,0.45011618,29.332585,31.795279)">
    <path
       style="fill:#ffffff;fill-opacity:1;fill-rule:nonzero;stroke:none"
       inkscape:connector-curvature="0"
       d="m 10.715938,-26.127716 0,8.177421 c 0,2.483379 -1.2129899,4.49289 -2.7258199,4.49289 -1.5019268,0 -2.72582,-2.009511 -2.72582,-4.49289 l 0,-8.177421 m 5.4516399,0"
       id="path6754" />
    <path
       style="fill:#ffffff;fill-opacity:1;fill-rule:nonzero;stroke:none"
       inkscape:connector-curvature="0"
       d="m 10.661422,-26.127716 c 0,1.396268 -1.2238936,2.534062 -2.7258203,2.534062 -1.5019268,0 -2.72582,-1.137794 -2.72582,-2.534062 0,-1.396268 1.2238932,-2.534062 2.72582,-2.534062 1.5019267,0 2.7258203,1.137794 2.7258203,2.534062 m 0,0"
       id="path6756" />
    <path
       style="fill:#ffffff;fill-opacity:1;fill-rule:nonzero;stroke:none"
       inkscape:connector-curvature="0"
       d="M 2.4839618,4.2810301 -22.048418,47.360087 -4.3305881,-3.3110176 m 6.8145499,7.5920477"
       id="path6758" />
    <path
       style="fill:#ffffff;fill-opacity:1;fill-rule:nonzero;stroke:none"
       inkscape:connector-curvature="0"
       d="M 13.387242,4.2810301 37.919621,47.360087 20.212695,-3.3110176 m -6.825453,7.5920477"
       id="path6760" />
    <path
       style="fill:#ffffff;fill-opacity:1;fill-rule:nonzero;stroke:none"
       inkscape:connector-curvature="0"
       d="m 7.9356017,-18.525529 c -7.52871472,0 -13.6290997,5.671231 -13.6290997,12.6703105 0,6.9990797 6.10038498,12.6703108 13.6290997,12.6703108 7.5178113,0 13.6290993,-5.6712311 13.6290993,-12.6703108 0,-6.9990795 -6.111288,-12.6703105 -13.6290993,-12.6703105 m 0,5.068124 c 4.5139573,0 8.1774593,3.395646 8.1774593,7.6021865 0,4.2065457 -3.663502,7.6021865 -8.1774593,7.6021865 -4.5248611,0 -8.17745986,-3.3956408 -8.17745986,-7.6021865 0,-4.2065405 3.66350196,-7.6021865 8.17745986,-7.6021865 m 0,0"
       id="path6762" />
  </g>
</svg>
