<?xml version="1.0" encoding="UTF-8" standalone="no"?>
<!-- Created with Inkscape (http://www.inkscape.org/) -->

<svg
   xmlns:dc="http://purl.org/dc/elements/1.1/"
   xmlns:cc="http://creativecommons.org/ns#"
   xmlns:rdf="http://www.w3.org/1999/02/22-rdf-syntax-ns#"
   xmlns:svg="http://www.w3.org/2000/svg"
   xmlns="http://www.w3.org/2000/svg"
   xmlns:sodipodi="http://sodipodi.sourceforge.net/DTD/sodipodi-0.dtd"
   xmlns:inkscape="http://www.inkscape.org/namespaces/inkscape"
   id="svg2"
   version="1.1"
   inkscape:version="0.48.4 r9939"
   width="64"
   height="64"
   sodipodi:docname="mate-cpu-frequency-applet.svg">
  <metadata
     id="metadata8">
    <rdf:RDF>
      <cc:Work
         rdf:about="">
        <dc:format>image/svg+xml</dc:format>
        <dc:type
           rdf:resource="http://purl.org/dc/dcmitype/StillImage" />
        <dc:title></dc:title>
      </cc:Work>
    </rdf:RDF>
  </metadata>
  <defs
     id="defs6">
    <linearGradient
       id="linearGradient3764"
       x1="1"
       x2="47"
       gradientUnits="userSpaceOnUse"
       gradientTransform="matrix(0,-1,1,0,-1.5e-6,47.999998)">
      <stop
         stop-color="#dea700"
         stop-opacity="1"
         id="stop3608" />
      <stop
         offset="1"
         stop-color="#f2b700"
         stop-opacity="1"
         id="stop3610" />
    </linearGradient>
    <clipPath
       id="clipPath-264175639">
      <g
         transform="translate(0,-1004.3622)"
         id="g3613">
        <path
           d="m -24 13 c 0 1.105 -0.672 2 -1.5 2 -0.828 0 -1.5 -0.895 -1.5 -2 0 -1.105 0.672 -2 1.5 -2 0.828 0 1.5 0.895 1.5 2 z"
           transform="matrix(15.333333,0,0,11.5,414.99999,878.8622)"
           fill="#1890d0"
           id="path3615" />
      </g>
    </clipPath>
    <clipPath
       id="clipPath-272651492">
      <g
         transform="translate(0,-1004.3622)"
         id="g3618">
        <path
           d="m -24 13 c 0 1.105 -0.672 2 -1.5 2 -0.828 0 -1.5 -0.895 -1.5 -2 0 -1.105 0.672 -2 1.5 -2 0.828 0 1.5 0.895 1.5 2 z"
           transform="matrix(15.333333,0,0,11.5,414.99999,878.8622)"
           fill="#1890d0"
           id="path3620" />
      </g>
    </clipPath>
    <inkscape:perspective
       sodipodi:type="inkscape:persp3d"
       inkscape:vp_x="0 : 12 : 1"
       inkscape:vp_y="0 : 1000 : 0"
       inkscape:vp_z="24 : 12 : 1"
       inkscape:persp3d-origin="12 : 8 : 1"
       id="perspective3009" />
  </defs>
  <sodipodi:namedview
     pagecolor="#ffffff"
     bordercolor="#666666"
     borderopacity="1"
     objecttolerance="10"
     gridtolerance="10"
     guidetolerance="10"
     inkscape:pageopacity="0"
     inkscape:pageshadow="2"
     inkscape:window-width="1317"
     inkscape:window-height="717"
     id="namedview4"
     showgrid="false"
     inkscape:zoom="3.6875"
     inkscape:cx="-14.644068"
     inkscape:cy="32"
     inkscape:window-x="43"
     inkscape:window-y="24"
     inkscape:window-maximized="1"
     inkscape:current-layer="svg2" />
  <rect
     style="fill:#000000;fill-opacity:1;stroke:#000000;stroke-width:0.53665989999999997;stroke-linecap:round;stroke-linejoin:round;stroke-miterlimit:4;stroke-opacity:1;stroke-dasharray:none"
     id="rect3005"
     width="59.081985"
     height="59.624359"
     x="2.4590092"
     y="2.1878221"
     ry="5.9392786"
     rx="5.9392786" />
  <g
     id="g3634"
     transform="translate(-259.61765,-13.923731)" />
  <g
     id="g3650"
     transform="matrix(1.5694725,0,0,1.650739,-5.4886627,-9.4752971)">
    <g
       clip-path="url(#clipPath-272651492)"
       id="g3652">
      <!-- color: #f2b700 -->
      <g
         id="g3654">
        <path
           style="fill:#f2f2f2;fill-opacity:1;fill-rule:nonzero;stroke:none"
           inkscape:connector-curvature="0"
           d="M 19.875,9 C 19.383,9 19,9.383 19,9.875 L 19,13 17.344,13 c -2.398,0 -4.313,1.914 -4.313,4.313 l 0,0.688 -3.156,0 C 9.383,18.001 9,18.388 9,18.876 l 0,0.25 c 0,0.492 0.383,0.875 0.875,0.875 l 3.156,0 0,2 -3.156,0 C 9.383,22.001 9,22.388 9,22.876 l 0,0.25 c 0,0.492 0.383,0.875 0.875,0.875 l 3.156,0 0,2 -3.156,0 C 9.383,26.001 9,26.388 9,26.876 l 0,0.25 c 0,0.492 0.383,0.875 0.875,0.875 l 3.156,0 0,2.688 c 0,2.398 1.914,4.316 4.313,4.316 l 1.656,0 0,3.125 c 0,0.488 0.383,0.875 0.875,0.875 l 0.25,0 C 20.617,39.005 21,38.618 21,38.13 l 0,-3.125 2,0 0,3.125 c 0,0.488 0.383,0.875 0.875,0.875 l 0.25,0 C 24.617,39.005 25,38.618 25,38.13 l 0,-3.125 2,0 0,3.125 c 0,0.488 0.383,0.875 0.875,0.875 l 0.25,0 C 28.617,39.005 29,38.618 29,38.13 l 0,-3.125 1.688,0 c 2.398,0 4.313,-1.914 4.313,-4.316 l 0,-2.688 3.125,0 c 0.492,0 0.875,-0.383 0.875,-0.875 l 0,-0.25 c 0,-0.488 -0.383,-0.875 -0.875,-0.875 l -3.125,0 0,-2 3.125,0 c 0.492,0 0.875,-0.383 0.875,-0.875 l 0,-0.25 c 0,-0.488 -0.383,-0.875 -0.875,-0.875 l -3.125,0 0,-2 3.125,0 c 0.492,0 0.875,-0.383 0.875,-0.875 l 0,-0.25 c 0,-0.488 -0.383,-0.875 -0.875,-0.875 l -3.125,0 0,-0.688 C 35.001,14.915 33.087,13 30.688,13 L 29,13 29,9.875 C 29,9.383 28.617,9 28.125,9 l -0.25,0 C 27.383,9 27,9.383 27,9.875 L 27,13 25,13 25,9.875 C 25,9.383 24.617,9 24.125,9 l -0.25,0 C 23.383,9 23,9.383 23,9.875 L 23,13 21,13 21,9.875 C 21,9.383 20.617,9 20.125,9 m -1.594,6 10.938,0 C 31.43,15 33,16.57 33,18.531 l 0,10.938 C 33,31.43 31.43,33 29.469,33 l -10.938,0 c -1.961,0 -3.5,-1.57 -3.5,-3.531 l 0,-10.938 C 15.031,16.57 16.57,15 18.531,15 m 0,0"
           id="path3656" />
        <path
           style="fill:#f2f2f2;fill-opacity:1;fill-rule:nonzero;stroke:none"
           inkscape:connector-curvature="0"
           d="m 19.762,17 c -1.527,0 -2.746,1.219 -2.746,2.746 l 0,8.5 c 0,1.527 1.219,2.746 2.746,2.746 l 8.5,0 c 1.527,0 2.746,-1.219 2.746,-2.746 l 0,-8.5 C 31.008,18.219 29.789,17 28.262,17 m -8.5,0"
           id="path3658" />
      </g>
    </g>
  </g>
  <g
     id="g4148"
     transform="matrix(0.55084742,0,0,0.51694922,23.322033,21.966101)"
     style="fill:#000000">
    <g
       id="icomoon-ignore"
       style="fill:#000000" />
    <path
       id="path4140"
       d="M 16,0 C 7.163,0 0,7.163 0,16 0,24.837 7.163,32 16,32 24.837,32 32,24.837 32,16 32,7.163 24.837,0 16,0 z m 0,28 C 9.373,28 4,22.627 4,16 4,9.373 9.373,4 16,4 22.627,4 28,9.373 28,16 28,22.627 22.627,28 16,28 z M 14,8 c 0,-1.105 0.895,-2 2,-2 1.105,0 2,0.895 2,2 0,1.105 -0.895,2 -2,2 -1.105,0 -2,-0.895 -2,-2 z m 6,2 c 0,-1.105 0.895,-2 2,-2 1.105,0 2,0.895 2,2 0,1.105 -0.895,2 -2,2 -1.105,0 -2,-0.895 -2,-2 z M 8,10 c 0,-1.105 0.895,-2 2,-2 1.105,0 2,0.895 2,2 0,1.105 -0.895,2 -2,2 -1.105,0 -2,-0.895 -2,-2 z m 6,12 v 2 h 4 V 22 L 16,12 z"
       inkscape:connector-curvature="0"
       style="fill:#000000" />
  </g>
</svg>
