<?xml version="1.0" encoding="UTF-8" standalone="no"?>
<!-- Created with Inkscape (http://www.inkscape.org/) -->

<svg
   xmlns:dc="http://purl.org/dc/elements/1.1/"
   xmlns:cc="http://creativecommons.org/ns#"
   xmlns:rdf="http://www.w3.org/1999/02/22-rdf-syntax-ns#"
   xmlns:svg="http://www.w3.org/2000/svg"
   xmlns="http://www.w3.org/2000/svg"
   xmlns:sodipodi="http://sodipodi.sourceforge.net/DTD/sodipodi-0.dtd"
   xmlns:inkscape="http://www.inkscape.org/namespaces/inkscape"
   id="svg2"
   version="1.1"
   inkscape:version="0.48.4 r9939"
   width="64"
   height="64"
   sodipodi:docname="CONFIGURACION_TEMA.svg">
  <metadata
     id="metadata8">
    <rdf:RDF>
      <cc:Work
         rdf:about="">
        <dc:format>image/svg+xml</dc:format>
        <dc:type
           rdf:resource="http://purl.org/dc/dcmitype/StillImage" />
        <dc:title></dc:title>
      </cc:Work>
    </rdf:RDF>
  </metadata>
  <defs
     id="defs6" />
  <sodipodi:namedview
     pagecolor="#ffffff"
     bordercolor="#666666"
     borderopacity="1"
     objecttolerance="10"
     gridtolerance="10"
     guidetolerance="10"
     inkscape:pageopacity="0"
     inkscape:pageshadow="2"
     inkscape:window-width="1316"
     inkscape:window-height="674"
     id="namedview4"
     showgrid="false"
     inkscape:zoom="3.6875"
     inkscape:cx="-15.186441"
     inkscape:cy="32"
     inkscape:window-x="44"
     inkscape:window-y="29"
     inkscape:window-maximized="1"
     inkscape:current-layer="svg2" />
  <rect
     style="fill:#000000;fill-opacity:1;stroke:#000000;stroke-width:0.53665989999999997;stroke-linecap:round;stroke-linejoin:round;stroke-miterlimit:4;stroke-opacity:1;stroke-dasharray:none"
     id="rect3005"
     width="59.081985"
     height="59.624359"
     x="2.4590092"
     y="2.1878221"
     ry="5.9392786"
     rx="5.9392786" />
  <g
     id="g7460"
     transform="matrix(1.3728813,0,0,1.3559322,10.847456,10.033898)"
     style="fill:#ffffff">
    <g
       id="icomoon-ignore-8"
       style="fill:#ffffff" />
    <path
       id="path7452"
       d="M 26.672,0 H 5.289 C 2.348,0 0,2.431 0,5.371 V 26.632 C 0,29.645 2.348,32 5.289,32 H 26.672 C 29.613,32 32,29.645 32,26.632 V 5.371 C 32,2.431 29.613,0 26.672,0 z M 22,1 V 6 H 17 V 1 h 5 z M 15,1 V 6 H 10 V 1 h 5 z M 1,6 V 5.371 C 1,2.961 2.924,1 5.289,1 H 8 V 6 H 1 z m 23,14 h -6 v 6 H 14 V 20 H 8 v -4 h 6 v -6 h 4 v 6 h 6 v 4 z M 31,6 H 24 V 1 h 2.672 C 29.058,1 31,2.961 31,5.371 V 6 z"
       inkscape:connector-curvature="0"
       style="fill:#ffffff" />
  </g>
</svg>
