<?xml version="1.0" encoding="UTF-8" standalone="no"?>
<!-- Created with Inkscape (http://www.inkscape.org/) -->

<svg
   xmlns:dc="http://purl.org/dc/elements/1.1/"
   xmlns:cc="http://creativecommons.org/ns#"
   xmlns:rdf="http://www.w3.org/1999/02/22-rdf-syntax-ns#"
   xmlns:svg="http://www.w3.org/2000/svg"
   xmlns="http://www.w3.org/2000/svg"
   xmlns:sodipodi="http://sodipodi.sourceforge.net/DTD/sodipodi-0.dtd"
   xmlns:inkscape="http://www.inkscape.org/namespaces/inkscape"
   id="svg2"
   version="1.1"
   inkscape:version="0.48.4 r9939"
   width="64"
   height="64"
   sodipodi:docname="PANEL-CONFIG.svg">
  <metadata
     id="metadata8">
    <rdf:RDF>
      <cc:Work
         rdf:about="">
        <dc:format>image/svg+xml</dc:format>
        <dc:type
           rdf:resource="http://purl.org/dc/dcmitype/StillImage" />
        <dc:title></dc:title>
      </cc:Work>
    </rdf:RDF>
  </metadata>
  <defs
     id="defs6" />
  <sodipodi:namedview
     pagecolor="#ffffff"
     bordercolor="#666666"
     borderopacity="1"
     objecttolerance="10"
     gridtolerance="10"
     guidetolerance="10"
     inkscape:pageopacity="0"
     inkscape:pageshadow="2"
     inkscape:window-width="1316"
     inkscape:window-height="674"
     id="namedview4"
     showgrid="false"
     inkscape:zoom="3.6875"
     inkscape:cx="-19.932204"
     inkscape:cy="32"
     inkscape:window-x="44"
     inkscape:window-y="29"
     inkscape:window-maximized="1"
     inkscape:current-layer="svg2" />
  <rect
     style="fill:#000000;fill-opacity:1;stroke:#000000;stroke-width:0.53665989999999997;stroke-linecap:round;stroke-linejoin:round;stroke-miterlimit:4;stroke-opacity:1;stroke-dasharray:none"
     id="rect3005"
     width="59.081985"
     height="59.624359"
     x="2.4590092"
     y="2.1878221"
     ry="5.9392786"
     rx="5.9392786" />
  <rect
     style="fill:#ffffff;fill-opacity:1;stroke:#000000;stroke-width:1.0730691;stroke-linecap:round;stroke-linejoin:round;stroke-miterlimit:4;stroke-opacity:1;stroke-dasharray:none"
     id="rect4955"
     width="51.152355"
     height="10.203203"
     x="6.6950078"
     y="49.000099" />
  <g
     id="g5972"
     transform="matrix(0.30266344,0,0,0.38983051,8.039043,7.0508474)"
     style="fill:#ffffff">
    <g
       id="icomoon-ignore"
       style="fill:#ffffff" />
    <path
       id="path5964"
       d="M 28.232,6.232 23.767,1.768 C 22.795,0.796 20.874,0 19.499,0 h -15 c -1.375,0 -2.5,1.125 -2.5,2.5 v 27 c 0,1.375 1.125,2.5 2.5,2.5 h 23 c 1.375,0 2.5,-1.125 2.5,-2.5 v -19 c 0,-1.375 -0.796,-3.296 -1.768,-4.268 z M 26.818,7.646 C 26.916,7.744 27.013,7.864 27.108,8 H 22 V 2.892 c 0.136,0.095 0.256,0.192 0.354,0.29 l 4.465,4.464 z M 28,29.5 C 28,29.771 27.771,30 27.5,30 H 4.5 C 4.229,30 4,29.771 4,29.5 V 2.5 C 4,2.229 4.229,2 4.5,2 h 15 c 0.151,0 0.32,0.019 0.5,0.053 V 10 h 7.947 C 27.981,10.18 28,10.349 28,10.5 v 19 z"
       inkscape:connector-curvature="0"
       style="fill:#ffffff" />
  </g>
  <g
     style="fill:#ffffff"
     transform="matrix(0.30266344,0,0,0.38983051,8.3102294,23.864407)"
     id="g5976">
    <g
       style="fill:#ffffff"
       id="g5978" />
    <path
       style="fill:#ffffff"
       inkscape:connector-curvature="0"
       d="M 28.232,6.232 23.767,1.768 C 22.795,0.796 20.874,0 19.499,0 h -15 c -1.375,0 -2.5,1.125 -2.5,2.5 v 27 c 0,1.375 1.125,2.5 2.5,2.5 h 23 c 1.375,0 2.5,-1.125 2.5,-2.5 v -19 c 0,-1.375 -0.796,-3.296 -1.768,-4.268 z M 26.818,7.646 C 26.916,7.744 27.013,7.864 27.108,8 H 22 V 2.892 c 0.136,0.095 0.256,0.192 0.354,0.29 l 4.465,4.464 z M 28,29.5 C 28,29.771 27.771,30 27.5,30 H 4.5 C 4.229,30 4,29.771 4,29.5 V 2.5 C 4,2.229 4.229,2 4.5,2 h 15 c 0.151,0 0.32,0.019 0.5,0.053 V 10 h 7.947 C 27.981,10.18 28,10.349 28,10.5 v 19 z"
       id="path5980" />
  </g>
</svg>
