<?xml version="1.0" encoding="UTF-8" standalone="no"?>
<!-- Created with Inkscape (http://www.inkscape.org/) -->

<svg
   xmlns:dc="http://purl.org/dc/elements/1.1/"
   xmlns:cc="http://creativecommons.org/ns#"
   xmlns:rdf="http://www.w3.org/1999/02/22-rdf-syntax-ns#"
   xmlns:svg="http://www.w3.org/2000/svg"
   xmlns="http://www.w3.org/2000/svg"
   xmlns:sodipodi="http://sodipodi.sourceforge.net/DTD/sodipodi-0.dtd"
   xmlns:inkscape="http://www.inkscape.org/namespaces/inkscape"
   id="svg2"
   version="1.1"
   inkscape:version="0.48.4 r9939"
   width="64"
   height="64"
   sodipodi:docname="base.svg">
  <metadata
     id="metadata8">
    <rdf:RDF>
      <cc:Work
         rdf:about="">
        <dc:format>image/svg+xml</dc:format>
        <dc:type
           rdf:resource="http://purl.org/dc/dcmitype/StillImage" />
        <dc:title></dc:title>
      </cc:Work>
    </rdf:RDF>
  </metadata>
  <defs
     id="defs6" />
  <sodipodi:namedview
     pagecolor="#ffffff"
     bordercolor="#666666"
     borderopacity="1"
     objecttolerance="10"
     gridtolerance="10"
     guidetolerance="10"
     inkscape:pageopacity="0"
     inkscape:pageshadow="2"
     inkscape:window-width="1316"
     inkscape:window-height="674"
     id="namedview4"
     showgrid="false"
     inkscape:zoom="3.6875"
     inkscape:cx="-15.186441"
     inkscape:cy="32"
     inkscape:window-x="44"
     inkscape:window-y="29"
     inkscape:window-maximized="1"
     inkscape:current-layer="svg2" />
  <rect
     style="fill:#000000;fill-opacity:1;stroke:#000000;stroke-width:0.53665989999999997;stroke-linecap:round;stroke-linejoin:round;stroke-miterlimit:4;stroke-opacity:1;stroke-dasharray:none"
     id="rect3005"
     width="59.081985"
     height="59.624359"
     x="2.4590092"
     y="2.1878221"
     ry="5.9392786"
     rx="5.9392786" />
  <path
     inkscape:connector-curvature="0"
     style="fill:#000000;fill-opacity:0.30199998"
     d="m 11.410829,24.211368 c -0.667968,0 -1.203124,0.535157 -1.203124,1.195313 l 0,10.703125 c 0,0.660156 0.535156,1.191406 1.203124,1.191406 l 16.796876,0 c 0.667968,0 1.203124,-0.53125 1.203124,-1.191406 l 0,-10.703125 c 0,-0.660156 -0.535156,-1.195313 -1.203124,-1.195313 z m 1.199219,2.183594 14.398438,0 0,8.726563 -14.398438,0 z m 3.597657,12 0,1.089844 -2.398438,0 0,2.179687 12,0 0,-2.179687 -2.398438,0 0,-1.089844 z"
     id="path6" />
  <path
     inkscape:connector-curvature="0"
     style="fill:#ffffff"
     d="m 14.346217,11.460508 c -1.394312,0 -2.511394,1.224633 -2.511394,2.746419 l 0,24.681752 c 0,1.521785 1.117082,2.746418 2.511394,2.746418 l 35.061693,0 c 1.394311,0 2.511393,-1.224633 2.511393,-2.746418 l 0,-24.681752 c 0,-1.512782 -1.117082,-2.746419 -2.511393,-2.746419 z m 2.503242,5.024596 30.055209,0 0,20.125398 -30.055209,0 z m 7.509727,27.662292 0,2.521302 -5.006484,0 0,5.024595 25.048724,0 0,-5.024595 -5.006484,0 0,-2.521302 z"
     id="path8" />
</svg>
