<?xml version="1.0" encoding="UTF-8" standalone="no"?>
<!-- Created with Inkscape (http://www.inkscape.org/) -->

<svg
   xmlns:dc="http://purl.org/dc/elements/1.1/"
   xmlns:cc="http://creativecommons.org/ns#"
   xmlns:rdf="http://www.w3.org/1999/02/22-rdf-syntax-ns#"
   xmlns:svg="http://www.w3.org/2000/svg"
   xmlns="http://www.w3.org/2000/svg"
   xmlns:sodipodi="http://sodipodi.sourceforge.net/DTD/sodipodi-0.dtd"
   xmlns:inkscape="http://www.inkscape.org/namespaces/inkscape"
   id="svg2"
   version="1.1"
   inkscape:version="0.48.4 r9939"
   width="64"
   height="64"
   sodipodi:docname="base.svg">
  <metadata
     id="metadata8">
    <rdf:RDF>
      <cc:Work
         rdf:about="">
        <dc:format>image/svg+xml</dc:format>
        <dc:type
           rdf:resource="http://purl.org/dc/dcmitype/StillImage" />
        <dc:title></dc:title>
      </cc:Work>
    </rdf:RDF>
  </metadata>
  <defs
     id="defs6" />
  <sodipodi:namedview
     pagecolor="#ffffff"
     bordercolor="#666666"
     borderopacity="1"
     objecttolerance="10"
     gridtolerance="10"
     guidetolerance="10"
     inkscape:pageopacity="0"
     inkscape:pageshadow="2"
     inkscape:window-width="1317"
     inkscape:window-height="717"
     id="namedview4"
     showgrid="false"
     inkscape:zoom="3.6875"
     inkscape:cx="-14.644068"
     inkscape:cy="32"
     inkscape:window-x="43"
     inkscape:window-y="24"
     inkscape:window-maximized="1"
     inkscape:current-layer="svg2" />
  <rect
     style="fill:#000000;fill-opacity:1;stroke:#000000;stroke-width:0.53665989999999997;stroke-linecap:round;stroke-linejoin:round;stroke-miterlimit:4;stroke-opacity:1;stroke-dasharray:none"
     id="rect3005"
     width="59.081985"
     height="59.624359"
     x="2.4590092"
     y="2.1878221"
     ry="5.9392786"
     rx="5.9392786" />
  <g
     id="g3182"
     transform="matrix(1.4576271,0,0,1.4661017,8.9491527,7.0508475)"
     style="fill:#ffffff">
    <g
       id="icomoon-ignore"
       style="fill:#ffffff" />
    <path
       id="path3174"
       d="m 16,8 c -4.418,0 -8,3.582 -8,8 0,4.418 3.582,8 8,8 4.418,0 8,-3.582 8,-8 0,-4.418 -3.582,-8 -8,-8 z m 0,13 V 11 c 2.757,0 5,2.243 5,5 0,2.757 -2.243,5 -5,5 z m 0,5 c 1.105,0 2,0.895 2,2 v 2 c 0,1.105 -0.895,2 -2,2 -1.105,0 -2,-0.895 -2,-2 v -2 c 0,-1.105 0.895,-2 2,-2 z M 16,6 C 14.895,6 14,5.105 14,4 V 2 c 0,-1.105 0.895,-2 2,-2 1.105,0 2,0.895 2,2 v 2 c 0,1.105 -0.895,2 -2,2 z m 14,8 c 1.105,0 2,0.895 2,2 0,1.105 -0.895,2 -2,2 h -2 c -1.105,0 -2,-0.895 -2,-2 0,-1.105 0.895,-2 2,-2 h 2 z M 6,16 c 0,1.105 -0.895,2 -2,2 H 2 C 0.895,18 0,17.105 0,16 0,14.895 0.895,14 2,14 h 2 c 1.105,0 2,0.895 2,2 z m 19.899,7.071 1.414,1.414 c 0.781,0.781 0.781,2.047 0,2.828 -0.781,0.781 -2.047,0.781 -2.828,0 l -1.414,-1.414 c -0.781,-0.781 -0.781,-2.047 0,-2.828 0.781,-0.781 2.047,-0.781 2.828,0 z M 6.101,8.929 4.687,7.515 c -0.781,-0.781 -0.781,-2.047 0,-2.828 0.781,-0.781 2.047,-0.781 2.828,0 l 1.414,1.414 c 0.781,0.781 0.781,2.047 0,2.828 -0.781,0.781 -2.047,0.781 -2.828,0 z m 19.798,0 c -0.781,0.781 -2.047,0.781 -2.828,0 -0.781,-0.781 -0.781,-2.047 0,-2.828 l 1.414,-1.414 c 0.781,-0.781 2.047,-0.781 2.828,0 0.781,0.781 0.781,2.047 0,2.828 L 25.899,8.929 z M 6.101,23.071 c 0.781,-0.781 2.047,-0.781 2.828,0 0.781,0.781 0.781,2.047 0,2.828 l -1.414,1.414 c -0.781,0.781 -2.047,0.781 -2.828,0 -0.781,-0.781 -0.781,-2.047 0,-2.828 l 1.414,-1.414 z"
       inkscape:connector-curvature="0"
       style="fill:#ffffff" />
  </g>
</svg>
