<?xml version="1.0" encoding="UTF-8" standalone="no"?>
<!-- Created with Inkscape (http://www.inkscape.org/) -->

<svg
   xmlns:dc="http://purl.org/dc/elements/1.1/"
   xmlns:cc="http://creativecommons.org/ns#"
   xmlns:rdf="http://www.w3.org/1999/02/22-rdf-syntax-ns#"
   xmlns:svg="http://www.w3.org/2000/svg"
   xmlns="http://www.w3.org/2000/svg"
   xmlns:sodipodi="http://sodipodi.sourceforge.net/DTD/sodipodi-0.dtd"
   xmlns:inkscape="http://www.inkscape.org/namespaces/inkscape"
   id="svg2"
   version="1.1"
   inkscape:version="0.48.4 r9939"
   width="64"
   height="64"
   sodipodi:docname="mate-network-properties.svg">
  <metadata
     id="metadata8">
    <rdf:RDF>
      <cc:Work
         rdf:about="">
        <dc:format>image/svg+xml</dc:format>
        <dc:type
           rdf:resource="http://purl.org/dc/dcmitype/StillImage" />
        <dc:title></dc:title>
      </cc:Work>
    </rdf:RDF>
  </metadata>
  <defs
     id="defs6">
    <clipPath
       id="clipPath-004379514">
      <g
         id="g7157"
         transform="translate(0,-1004.3622)">
        <path
           id="path7159"
           fill="#1890d0"
           transform="matrix(15.333333,0,0,11.5,414.99999,878.8622)"
           d="m -24 13 c 0 1.105 -0.672 2 -1.5 2 -0.828 0 -1.5 -0.895 -1.5 -2 0 -1.105 0.672 -2 1.5 -2 0.828 0 1.5 0.895 1.5 2 z" />
      </g>
    </clipPath>
    <clipPath
       id="clipPath-998868648">
      <g
         id="g7152"
         transform="translate(0,-1004.3622)">
        <path
           id="path7154"
           fill="#1890d0"
           transform="matrix(15.333333,0,0,11.5,414.99999,878.8622)"
           d="m -24 13 c 0 1.105 -0.672 2 -1.5 2 -0.828 0 -1.5 -0.895 -1.5 -2 0 -1.105 0.672 -2 1.5 -2 0.828 0 1.5 0.895 1.5 2 z" />
      </g>
    </clipPath>
    <linearGradient
       gradientTransform="matrix(0,-1,1,0,-1.5e-6,47.999998)"
       gradientUnits="userSpaceOnUse"
       x2="47"
       x1="1"
       id="linearGradient3764">
      <stop
         id="stop7147"
         stop-opacity="1"
         stop-color="#8cd644" />
      <stop
         id="stop7149"
         stop-opacity="1"
         stop-color="#97da54"
         offset="1" />
    </linearGradient>
  </defs>
  <sodipodi:namedview
     pagecolor="#ffffff"
     bordercolor="#666666"
     borderopacity="1"
     objecttolerance="10"
     gridtolerance="10"
     guidetolerance="10"
     inkscape:pageopacity="0"
     inkscape:pageshadow="2"
     inkscape:window-width="1316"
     inkscape:window-height="674"
     id="namedview4"
     showgrid="false"
     inkscape:zoom="3.6875"
     inkscape:cx="-15.186441"
     inkscape:cy="30.915254"
     inkscape:window-x="44"
     inkscape:window-y="29"
     inkscape:window-maximized="1"
     inkscape:current-layer="svg2" />
  <rect
     style="fill:#000000;fill-opacity:1;stroke:#000000;stroke-width:0.53665989999999997;stroke-linecap:round;stroke-linejoin:round;stroke-miterlimit:4;stroke-opacity:1;stroke-dasharray:none"
     id="rect3005"
     width="59.081985"
     height="59.624359"
     x="2.4590092"
     y="2.1878221"
     ry="5.9392786"
     rx="5.9392786" />
  <g
     id="g7173"
     transform="translate(-146.26171,-15.822034)" />
  <g
     id="g7191"
     transform="matrix(1.6078142,0,0,1.8132544,-5.7683932,-13.367124)">
    <g
       clip-path="url(#clipPath-004379514)"
       id="g7193">
      <!-- color: #97da54 -->
      <g
         id="g7195">
        <path
           style="fill:#f9f9f9;fill-opacity:1;fill-rule:evenodd;stroke:none"
           inkscape:connector-curvature="0"
           d="m 25.17,18.11 c -0.941,0 -1.777,0.352 -2.449,1.027 -0.668,0.676 -1.023,1.523 -1.023,2.48 l 0,4.828 2.191,0 0,-4.828 c 0,-0.363 0.117,-0.652 0.379,-0.918 0.262,-0.266 0.539,-0.387 0.895,-0.387 0.367,0 0.645,0.121 0.902,0.387 0.262,0.266 0.379,0.551 0.379,0.918 l 0,4.828 2.191,0 0,-4.828 c 0,-0.363 0.121,-0.652 0.379,-0.918 0.262,-0.266 0.535,-0.387 0.898,-0.387 0.363,0 0.645,0.121 0.902,0.387 0.262,0.266 0.379,0.551 0.379,0.918 l 0.016,5.641 c 0,1.207 -1.148,2.219 -2.621,2.219 l -7.06,-0.027 c -1.137,0 -2.105,-1.105 -2.105,-2.527 l 0,-10.621 -2.07,0 0,11.03 c 0,1.172 0.43,2.199 1.262,3.03 0.711,0.703 1.57,1.16 2.527,1.262 l 7.863,0 c 1.211,0 2.273,-0.449 3.125,-1.324 l 0.004,0 c 0.73,-0.746 1.156,-1.641 1.258,-2.652 l -0.008,-6.03 c 0,-0.957 -0.348,-1.801 -1.023,-2.48 -0.672,-0.676 -1.504,-1.027 -2.445,-1.027 -0.926,0 -1.73,0.344 -2.387,0.98 -0.648,-0.637 -1.453,-0.98 -2.379,-0.98 m 0.023,0"
           id="path7197" />
        <path
           style="fill:#000000;fill-opacity:0.19200003;fill-rule:evenodd;stroke:none"
           inkscape:connector-curvature="0"
           d="m 23.883,29.457 0,2.16 5.145,0 c 1.207,0 2.262,-0.449 3.121,-1.32 l 0.008,0 c 0.73,-0.75 1.152,-1.645 1.258,-2.656 l 0,-1.227 -2.188,0 0,0.84 c 0,1.207 -1.145,2.215 -2.613,2.215 l -4.727,-0.012 m -0.004,0"
           id="SVGCleanerId_0" />
        <path
           style="fill:#f9f9f9;fill-opacity:1;fill-rule:evenodd;stroke:none"
           inkscape:connector-curvature="0"
           d="m 22.688,35.996 c -4.977,0 -9.297,-3.773 -9.297,-8.75 l -0.004,-6.04 0,-1.543 -3.156,0 0,-7.676 13.309,0.066 4.164,0.008 c 4.98,0 9.297,3.77 9.297,8.746 l 0,15.18 -14.316,0 m 12.289,-4.066 c 0,-3.305 0,-11.11 0,-11.11 0,-3.711 -3.258,-6.719 -7.27,-6.719 l -4.168,0 0,-0.008 -11.273,-0.055 0,3.605 c 0,0 0.457,0 1.262,0 0.859,0 1.891,0.805 1.891,1.988 l 0.02,7.609 c 0,3.711 3.254,6.723 7.266,6.723 l 9.902,0 c 1.27,0 2.383,-0.809 2.383,-2.039 m -0.004,0"
           id="path7200" />
      </g>
    </g>
  </g>
</svg>
