<?xml version="1.0" encoding="UTF-8" standalone="no"?>
<!-- Created with Inkscape (http://www.inkscape.org/) -->

<svg
   xmlns:dc="http://purl.org/dc/elements/1.1/"
   xmlns:cc="http://creativecommons.org/ns#"
   xmlns:rdf="http://www.w3.org/1999/02/22-rdf-syntax-ns#"
   xmlns:svg="http://www.w3.org/2000/svg"
   xmlns="http://www.w3.org/2000/svg"
   xmlns:sodipodi="http://sodipodi.sourceforge.net/DTD/sodipodi-0.dtd"
   xmlns:inkscape="http://www.inkscape.org/namespaces/inkscape"
   id="svg2"
   version="1.1"
   inkscape:version="0.48.4 r9939"
   width="64"
   height="64"
   sodipodi:docname="mdmflexiserver.svg">
  <metadata
     id="metadata8">
    <rdf:RDF>
      <cc:Work
         rdf:about="">
        <dc:format>image/svg+xml</dc:format>
        <dc:type
           rdf:resource="http://purl.org/dc/dcmitype/StillImage" />
        <dc:title></dc:title>
      </cc:Work>
    </rdf:RDF>
  </metadata>
  <defs
     id="defs6">
    <clipPath
       id="clipPath-029055699">
      <g
         id="g3415"
         transform="translate(0,-1004.3622)">
        <path
           id="path3417"
           fill="#1890d0"
           transform="matrix(15.333333,0,0,11.5,414.99999,878.8622)"
           d="m -24 13 c 0 1.105 -0.672 2 -1.5 2 -0.828 0 -1.5 -0.895 -1.5 -2 0 -1.105 0.672 -2 1.5 -2 0.828 0 1.5 0.895 1.5 2 z" />
      </g>
    </clipPath>
    <clipPath
       id="clipPath-023416868">
      <g
         id="g3410"
         transform="translate(0,-1004.3622)">
        <path
           id="path3412"
           fill="#1890d0"
           transform="matrix(15.333333,0,0,11.5,414.99999,878.8622)"
           d="m -24 13 c 0 1.105 -0.672 2 -1.5 2 -0.828 0 -1.5 -0.895 -1.5 -2 0 -1.105 0.672 -2 1.5 -2 0.828 0 1.5 0.895 1.5 2 z" />
      </g>
    </clipPath>
    <linearGradient
       gradientTransform="matrix(0,-1,1,0,-1.5e-6,47.999998)"
       gradientUnits="userSpaceOnUse"
       x2="47"
       x1="1"
       id="linearGradient3764">
      <stop
         id="stop3405"
         stop-opacity="1"
         stop-color="#a4c5d4" />
      <stop
         id="stop3407"
         stop-opacity="1"
         stop-color="#b2cedb"
         offset="1" />
    </linearGradient>
    <clipPath
       id="clipPath-029055699-0">
      <g
         id="g3771"
         transform="translate(0,-1004.3622)">
        <path
           id="path3773"
           fill="#1890d0"
           transform="matrix(15.333333,0,0,11.5,414.99999,878.8622)"
           d="m -24 13 c 0 1.105 -0.672 2 -1.5 2 -0.828 0 -1.5 -0.895 -1.5 -2 0 -1.105 0.672 -2 1.5 -2 0.828 0 1.5 0.895 1.5 2 z" />
      </g>
    </clipPath>
    <clipPath
       id="clipPath-023416868-8">
      <g
         id="g3766"
         transform="translate(0,-1004.3622)">
        <path
           id="path3768"
           fill="#1890d0"
           transform="matrix(15.333333,0,0,11.5,414.99999,878.8622)"
           d="m -24 13 c 0 1.105 -0.672 2 -1.5 2 -0.828 0 -1.5 -0.895 -1.5 -2 0 -1.105 0.672 -2 1.5 -2 0.828 0 1.5 0.895 1.5 2 z" />
      </g>
    </clipPath>
    <linearGradient
       gradientTransform="matrix(0,-1,1,0,-1.5e-6,47.999998)"
       gradientUnits="userSpaceOnUse"
       x2="47"
       x1="1"
       id="linearGradient3764-1">
      <stop
         id="stop3761"
         stop-opacity="1"
         stop-color="#a4c5d4" />
      <stop
         id="stop3763"
         stop-opacity="1"
         stop-color="#b2cedb"
         offset="1" />
    </linearGradient>
    <clipPath
       id="clipPath-787446318">
      <g
         id="g4235"
         transform="translate(0,-1004.3622)">
        <path
           id="path4237"
           fill="#1890d0"
           transform="matrix(15.333333,0,0,11.5,414.99999,878.8622)"
           d="m -24 13 c 0 1.105 -0.672 2 -1.5 2 -0.828 0 -1.5 -0.895 -1.5 -2 0 -1.105 0.672 -2 1.5 -2 0.828 0 1.5 0.895 1.5 2 z" />
      </g>
    </clipPath>
    <clipPath
       id="clipPath-780220428">
      <g
         id="g4230"
         transform="translate(0,-1004.3622)">
        <path
           id="path4232"
           fill="#1890d0"
           transform="matrix(15.333333,0,0,11.5,414.99999,878.8622)"
           d="m -24 13 c 0 1.105 -0.672 2 -1.5 2 -0.828 0 -1.5 -0.895 -1.5 -2 0 -1.105 0.672 -2 1.5 -2 0.828 0 1.5 0.895 1.5 2 z" />
      </g>
    </clipPath>
    <linearGradient
       gradientTransform="matrix(0,-1,1,0,-1.5e-6,47.999998)"
       gradientUnits="userSpaceOnUse"
       x2="47"
       x1="1"
       id="linearGradient3764-2">
      <stop
         id="stop4225"
         stop-opacity="1"
         stop-color="#6086b4" />
      <stop
         id="stop4227"
         stop-opacity="1"
         stop-color="#6e90bb"
         offset="1" />
    </linearGradient>
  </defs>
  <sodipodi:namedview
     pagecolor="#ffffff"
     bordercolor="#666666"
     borderopacity="1"
     objecttolerance="10"
     gridtolerance="10"
     guidetolerance="10"
     inkscape:pageopacity="0"
     inkscape:pageshadow="2"
     inkscape:window-width="1316"
     inkscape:window-height="674"
     id="namedview4"
     showgrid="false"
     inkscape:zoom="3.6875"
     inkscape:cx="27.63268"
     inkscape:cy="32"
     inkscape:window-x="44"
     inkscape:window-y="29"
     inkscape:window-maximized="1"
     inkscape:current-layer="svg2" />
  <rect
     style="fill:#000000;fill-opacity:1;stroke:#000000;stroke-width:0.53665989999999997;stroke-linecap:round;stroke-linejoin:round;stroke-miterlimit:4;stroke-opacity:1;stroke-dasharray:none"
     id="rect3005"
     width="59.081985"
     height="59.624359"
     x="2.4590092"
     y="2.1878221"
     ry="5.9392786"
     rx="5.9392786" />
  <g
     id="g3431"
     transform="translate(-115.34646,-11.754237)" />
  <g
     id="g3451"
     transform="matrix(1.4380704,0,0,1.0677966,76.716122,4.2457625)">
    <g
       clip-path="url(#clipPath-029055699)"
       id="g3453">
      <!-- color: #b2cedb -->
      <g
         id="g3455">
        <path
           style="fill:#2d2d2d;fill-opacity:1;fill-rule:nonzero;stroke:none"
           inkscape:connector-curvature="0"
           d="m 11,20 0,8 26,0 0,-8 m -26,0"
           id="path3457" />
        <path
           style="fill:#f9f9f9;fill-opacity:1;fill-rule:nonzero;stroke:none"
           inkscape:connector-curvature="0"
           d="m 13.328,21 3.344,0 C 17.406,21 18,21.598 18,22.328 l 0,3.344 C 18,26.406 17.406,27 16.672,27 l -3.344,0 C 12.598,27 12,26.406 12,25.672 l 0,-3.344 C 12,21.598 12.598,21 13.328,21 m 0,0"
           id="path3459" />
        <path
           style="fill:#f9f9f9;fill-opacity:1;fill-rule:nonzero;stroke:none"
           inkscape:connector-curvature="0"
           d="m 22.328,21 3.344,0 C 26.406,21 27,21.598 27,22.328 l 0,3.344 C 27,26.406 26.406,27 25.672,27 l -3.344,0 C 21.598,27 21,26.406 21,25.672 l 0,-3.344 C 21,21.598 21.598,21 22.328,21 m 0,0"
           id="path3461" />
        <path
           style="fill:#f9f9f9;fill-opacity:1;fill-rule:nonzero;stroke:none"
           inkscape:connector-curvature="0"
           d="m 31.33,21 3.352,0 c 0.727,0 1.328,0.598 1.328,1.328 l 0,3.344 C 36.01,26.406 35.408,27 34.682,27 l -3.352,0 c -0.727,0 -1.32,-0.594 -1.32,-1.328 l 0,-3.344 C 30.01,21.598 30.608,21 31.33,21 m 0,0"
           id="path3463" />
      </g>
    </g>
  </g>
  <text
     xml:space="preserve"
     style="font-size:11.9158802px;font-style:normal;font-variant:normal;font-weight:normal;font-stretch:normal;line-height:125%;letter-spacing:0px;word-spacing:0px;fill:#ffffff;fill-opacity:1;stroke:none;font-family:Bitstream Charter;-inkscape-font-specification:Bitstream Charter"
     x="161.57903"
     y="9.382225"
     id="text3534"
     sodipodi:linespacing="125%"
     transform="scale(0.65617961,1.523973)"><tspan
       sodipodi:role="line"
       id="tspan3536"
       x="161.57903"
       y="9.382225">Password:</tspan></text>
  <g
     id="g4251"
     transform="translate(-84.188354,-10.127119)" />
  <g
     id="g4265"
     transform="matrix(1.7343169,0,0,1.814058,-10.020777,-12.560516)">
    <g
       clip-path="url(#clipPath-787446318)"
       id="g4267">
      <!-- color: #6e90bb -->
      <g
         id="g4269">
        <path
           style="fill:#ffffff;fill-opacity:1;fill-rule:nonzero;stroke:none"
           inkscape:connector-curvature="0"
           d="m 14.04,35.926 c 0,-0.148 5.01,-6.172 5.117,-6.148 0.059,0.016 2.301,0.965 4.973,2.113 4.57,1.961 4.875,2.078 4.996,1.914 0.188,-0.254 0.832,-1.598 1.172,-2.449 l 0.289,-0.723 -0.484,-0.266 c -0.691,-0.375 -1.703,-1.215 -2.336,-1.938 -0.578,-0.66 -1.621,-2.25 -1.621,-2.473 0,-0.074 0.332,0.262 0.738,0.746 1.137,1.352 3.758,3.477 3.922,3.176 0.195,-0.359 0.324,-1.414 0.316,-2.641 -0.008,-1.496 -0.203,-2.66 -0.719,-4.266 l -0.289,-0.902 -1.422,-0.445 c -0.785,-0.25 -1.57,-0.492 -1.746,-0.551 -0.617,-0.195 -0.23,-0.184 0.668,0.02 1.078,0.242 2.176,0.441 2.852,0.527 0.602,0.074 0.73,-0.043 0.793,-0.703 0.082,-0.848 -0.461,-3.191 -1.016,-4.352 -0.219,-0.465 -0.32,-0.57 -0.762,-0.77 -1.465,-0.684 -6.06,-1.309 -8.01,-1.105 -0.844,0.086 -1.707,0.293 -1.98,0.465 -0.074,0.059 0.469,0.191 1.402,0.363 0.84,0.156 1.453,0.293 1.363,0.316 -0.102,0.016 -1.414,-0.129 -2.941,-0.324 -2.672,-0.344 -2.77,-0.352 -2.965,-0.18 -0.391,0.352 -0.945,1.309 -1.063,1.824 -0.109,0.496 -0.102,0.555 0.145,1.059 0.422,0.863 1.211,1.492 2.996,2.395 0.844,0.438 1.516,0.797 1.492,0.824 -0.027,0.023 -0.75,-0.246 -1.602,-0.602 l -1.559,-0.645 -2.285,0.641 c -1.254,0.348 -2.324,0.637 -2.375,0.637 -0.063,0 -0.094,-1.516 -0.094,-4.086 0,-3.934 0.008,-4.098 0.203,-4.5 0.117,-0.246 0.348,-0.508 0.555,-0.633 l 0.359,-0.223 10.461,-0.031 c 5.75,-0.016 10.699,0 10.977,0.031 0.641,0.078 1.219,0.547 1.371,1.113 0.066,0.246 0.09,3.969 0.074,11.05 l -0.027,10.668 -0.223,0.355 c -0.129,0.211 -0.391,0.441 -0.633,0.559 -0.41,0.199 -0.492,0.203 -10.738,0.203 -5.68,0 -10.332,-0.035 -10.332,-0.074 m -0.02,0.02"
           id="path4271" />
      </g>
    </g>
  </g>
</svg>
