<?xml version="1.0" encoding="UTF-8" standalone="no"?>
<!-- Created with Inkscape (http://www.inkscape.org/) -->

<svg
   xmlns:dc="http://purl.org/dc/elements/1.1/"
   xmlns:cc="http://creativecommons.org/ns#"
   xmlns:rdf="http://www.w3.org/1999/02/22-rdf-syntax-ns#"
   xmlns:svg="http://www.w3.org/2000/svg"
   xmlns="http://www.w3.org/2000/svg"
   xmlns:sodipodi="http://sodipodi.sourceforge.net/DTD/sodipodi-0.dtd"
   xmlns:inkscape="http://www.inkscape.org/namespaces/inkscape"
   id="svg2"
   version="1.1"
   inkscape:version="0.48.4 r9939"
   width="64"
   height="64"
   sodipodi:docname="QT4.svg">
  <metadata
     id="metadata8">
    <rdf:RDF>
      <cc:Work
         rdf:about="">
        <dc:format>image/svg+xml</dc:format>
        <dc:type
           rdf:resource="http://purl.org/dc/dcmitype/StillImage" />
        <dc:title></dc:title>
      </cc:Work>
    </rdf:RDF>
  </metadata>
  <defs
     id="defs6" />
  <sodipodi:namedview
     pagecolor="#ffffff"
     bordercolor="#666666"
     borderopacity="1"
     objecttolerance="10"
     gridtolerance="10"
     guidetolerance="10"
     inkscape:pageopacity="0"
     inkscape:pageshadow="2"
     inkscape:window-width="1316"
     inkscape:window-height="674"
     id="namedview4"
     showgrid="false"
     inkscape:zoom="3.6875"
     inkscape:cx="-15.186441"
     inkscape:cy="32"
     inkscape:window-x="44"
     inkscape:window-y="29"
     inkscape:window-maximized="1"
     inkscape:current-layer="svg2" />
  <rect
     style="fill:#000000;fill-opacity:1;stroke:#000000;stroke-width:0.53665989999999997;stroke-linecap:round;stroke-linejoin:round;stroke-miterlimit:4;stroke-opacity:1;stroke-dasharray:none"
     id="rect3005"
     width="59.081985"
     height="59.624359"
     x="2.4590092"
     y="2.1878221"
     ry="5.9392786"
     rx="5.9392786" />
  <g
     id="g3120"
     transform="matrix(2.2474576,0,0,4.0372881,9.7966099,-8.1016951)"
     style="fill:#ffffff">
    <g
       id="icomoon-ignore"
       style="fill:#ffffff" />
    <path
       id="path3112"
       d="M 7,9 H 1 c -0.552,0 -1,0.448 -1,1 0,0.552 0.448,1 1,1 H 7 C 7.552,11 8,10.552 8,10 8,9.448 7.552,9 7,9 z m 0,4 H 1 c -0.552,0 -1,0.447 -1,1 0,0.553 0.448,1 1,1 H 7 C 7.552,15 8,14.553 8,14 8,13.447 7.552,13 7,13 z M 19.4,9 H 16 V 5.6 C 16,5.048 15.553,5 15,5 14.447,5 14,5.048 14,5.6 V 9 h -3.3 c -0.553,0 -0.6,0.448 -0.6,1 0,0.552 0.048,1 0.601,1 H 14 v 3.4 c 0,0.552 0.447,0.6 1,0.6 0.553,0 1,-0.048 1,-0.6 V 11 h 3.4 C 19.952,11 20,10.552 20,10 20,9.448 19.952,9 19.4,9 z M 7,5 H 1 C 0.448,5 0,5.448 0,6 0,6.552 0.448,7 1,7 H 7 C 7.552,7 8,6.552 8,6 8,5.448 7.552,5 7,5 z"
       inkscape:connector-curvature="0"
       style="fill:#ffffff" />
  </g>
</svg>
