<?xml version="1.0" encoding="UTF-8" standalone="no"?>
<!-- Created with Inkscape (http://www.inkscape.org/) -->

<svg
   xmlns:dc="http://purl.org/dc/elements/1.1/"
   xmlns:cc="http://creativecommons.org/ns#"
   xmlns:rdf="http://www.w3.org/1999/02/22-rdf-syntax-ns#"
   xmlns:svg="http://www.w3.org/2000/svg"
   xmlns="http://www.w3.org/2000/svg"
   xmlns:sodipodi="http://sodipodi.sourceforge.net/DTD/sodipodi-0.dtd"
   xmlns:inkscape="http://www.inkscape.org/namespaces/inkscape"
   id="svg2"
   version="1.1"
   inkscape:version="0.48.4 r9939"
   width="64"
   height="64"
   sodipodi:docname="BRASERO.svg">
  <metadata
     id="metadata8">
    <rdf:RDF>
      <cc:Work
         rdf:about="">
        <dc:format>image/svg+xml</dc:format>
        <dc:type
           rdf:resource="http://purl.org/dc/dcmitype/StillImage" />
        <dc:title></dc:title>
      </cc:Work>
    </rdf:RDF>
  </metadata>
  <defs
     id="defs6">
    <inkscape:perspective
       id="perspective3009"
       inkscape:persp3d-origin="12 : 8 : 1"
       inkscape:vp_z="24 : 12 : 1"
       inkscape:vp_y="0 : 1000 : 0"
       inkscape:vp_x="0 : 12 : 1"
       sodipodi:type="inkscape:persp3d" />
    <clipPath
       id="clipPath-121758028">
      <g
         id="g3177"
         transform="translate(0,-1004.3622)">
        <path
           id="path3179"
           fill="#1890d0"
           transform="matrix(15.333333,0,0,11.5,414.99999,878.8622)"
           d="m -24 13 c 0 1.105 -0.672 2 -1.5 2 -0.828 0 -1.5 -0.895 -1.5 -2 0 -1.105 0.672 -2 1.5 -2 0.828 0 1.5 0.895 1.5 2 z" />
      </g>
    </clipPath>
    <clipPath
       id="clipPath-113117232">
      <g
         id="g3172"
         transform="translate(0,-1004.3622)">
        <path
           id="path3174"
           fill="#1890d0"
           transform="matrix(15.333333,0,0,11.5,414.99999,878.8622)"
           d="m -24 13 c 0 1.105 -0.672 2 -1.5 2 -0.828 0 -1.5 -0.895 -1.5 -2 0 -1.105 0.672 -2 1.5 -2 0.828 0 1.5 0.895 1.5 2 z" />
      </g>
    </clipPath>
    <linearGradient
       gradientTransform="matrix(0,-1,1,0,-1.5e-6,47.999998)"
       gradientUnits="userSpaceOnUse"
       x2="47"
       x1="1"
       id="linearGradient3764">
      <stop
         id="stop3167"
         stop-opacity="1"
         stop-color="#f0e9c8" />
      <stop
         id="stop3169"
         stop-opacity="1"
         stop-color="#f4efd8"
         offset="1" />
    </linearGradient>
    <clipPath
       id="clipPath-580235580">
      <g
         id="g5359"
         transform="translate(0,-1004.3622)">
        <path
           id="path5361"
           fill="#1890d0"
           transform="matrix(15.333333,0,0,11.5,414.99999,878.8622)"
           d="m -24 13 c 0 1.105 -0.672 2 -1.5 2 -0.828 0 -1.5 -0.895 -1.5 -2 0 -1.105 0.672 -2 1.5 -2 0.828 0 1.5 0.895 1.5 2 z" />
      </g>
    </clipPath>
    <clipPath
       id="clipPath-568471406">
      <g
         id="g5354"
         transform="translate(0,-1004.3622)">
        <path
           id="path5356"
           fill="#1890d0"
           transform="matrix(15.333333,0,0,11.5,414.99999,878.8622)"
           d="m -24 13 c 0 1.105 -0.672 2 -1.5 2 -0.828 0 -1.5 -0.895 -1.5 -2 0 -1.105 0.672 -2 1.5 -2 0.828 0 1.5 0.895 1.5 2 z" />
      </g>
    </clipPath>
    <linearGradient
       gradientTransform="matrix(0,-1,1,0,-1.5e-6,47.999998)"
       gradientUnits="userSpaceOnUse"
       x2="47"
       x1="1"
       id="linearGradient3764-7">
      <stop
         id="stop5349"
         stop-opacity="1"
         stop-color="#e04c8b" />
      <stop
         id="stop5351"
         stop-opacity="1"
         stop-color="#e35e97"
         offset="1" />
    </linearGradient>
    <clipPath
       id="clipPath-588794431">
      <g
         id="g6710"
         transform="translate(0,-1004.3622)">
        <path
           id="path6712"
           fill="#1890d0"
           transform="matrix(15.333333,0,0,11.5,414.99999,878.8622)"
           d="m -24 13 c 0 1.105 -0.672 2 -1.5 2 -0.828 0 -1.5 -0.895 -1.5 -2 0 -1.105 0.672 -2 1.5 -2 0.828 0 1.5 0.895 1.5 2 z" />
      </g>
    </clipPath>
    <clipPath
       id="clipPath-580766965">
      <g
         id="g6705"
         transform="translate(0,-1004.3622)">
        <path
           id="path6707"
           fill="#1890d0"
           transform="matrix(15.333333,0,0,11.5,414.99999,878.8622)"
           d="m -24 13 c 0 1.105 -0.672 2 -1.5 2 -0.828 0 -1.5 -0.895 -1.5 -2 0 -1.105 0.672 -2 1.5 -2 0.828 0 1.5 0.895 1.5 2 z" />
      </g>
    </clipPath>
    <linearGradient
       gradientTransform="matrix(0,-1,1,0,-1.5e-6,47.999998)"
       gradientUnits="userSpaceOnUse"
       x2="47"
       x1="1"
       id="linearGradient3764-76">
      <stop
         id="stop6700"
         stop-opacity="1"
         stop-color="#b0e648" />
      <stop
         id="stop6702"
         stop-opacity="1"
         stop-color="#b9e85a"
         offset="1" />
    </linearGradient>
  </defs>
  <sodipodi:namedview
     pagecolor="#ffffff"
     bordercolor="#666666"
     borderopacity="1"
     objecttolerance="10"
     gridtolerance="10"
     guidetolerance="10"
     inkscape:pageopacity="0"
     inkscape:pageshadow="2"
     inkscape:window-width="1316"
     inkscape:window-height="674"
     id="namedview4"
     showgrid="false"
     inkscape:zoom="2.6074563"
     inkscape:cx="6.3252668"
     inkscape:cy="30.372881"
     inkscape:window-x="44"
     inkscape:window-y="29"
     inkscape:window-maximized="1"
     inkscape:current-layer="svg2" />
  <g
     id="g3193"
     transform="translate(-49.176966,-14.466102)" />
  <g
     id="g5375"
     transform="translate(-86.823015,-1.227801)" />
  <g
     id="g6726"
     transform="translate(-103.6977,-1.9948321)" />
  <rect
     rx="5.9392786"
     ry="5.9392786"
     y="2.6643925"
     x="1.7127833"
     height="59.624359"
     width="59.081985"
     id="rect3005"
     style="fill:#000000;fill-opacity:1;stroke:#000000;stroke-width:0.5366599;stroke-linecap:round;stroke-linejoin:round;stroke-miterlimit:4;stroke-opacity:1;stroke-dasharray:none" />
  <g
     id="g14668"
     transform="matrix(2.5831968,0,0,2.4061795,5.9951345,8.0313391)"
     style="fill:#ffffff">
    <g
       id="icomoon-ignore-8"
       style="fill:#ffffff" />
    <path
       id="path14660"
       d="M 17.223,7.029 C 15.64,3.344 13.091,0.538 11.802,1.063 c -2.189,0.89 1.305,5.164 -9.446,9.534 -0.929,0.377 -1.164,1.888 -0.775,2.791 0.389,0.903 1.658,1.802 2.587,1.425 0.16,-0.065 0.751,-0.255 0.751,-0.255 0.663,0.89 1.357,0.362 1.604,0.928 0.296,0.68 0.939,2.157 1.157,2.659 0.22,0.502 0.716,0.968 1.076,0.831 0.358,-0.137 1.581,-0.603 2.049,-0.78 0.468,-0.177 0.58,-0.595 0.437,-0.924 -0.154,-0.354 -0.786,-0.458 -0.966,-0.872 -0.18,-0.414 -0.77,-1.739 -0.939,-2.157 -0.23,-0.568 0.259,-1.03 0.97,-1.104 4.894,-0.51 5.809,2.513 7.475,1.835 1.286,-0.526 1.024,-4.26 -0.559,-7.945 z m -0.551,5.977 c -0.286,0.116 -2.212,-1.402 -3.443,-4.267 -1.23,-2.864 -1.075,-5.482 -0.79,-5.598 0.285,-0.116 2.165,1.716 3.396,4.58 1.229,2.863 1.123,5.169 0.837,5.285 z"
       inkscape:connector-curvature="0"
       style="fill:#ffffff" />
  </g>
</svg>
