<?xml version="1.0" encoding="UTF-8" standalone="no"?>
<!-- Created with Inkscape (http://www.inkscape.org/) -->

<svg
   xmlns:dc="http://purl.org/dc/elements/1.1/"
   xmlns:cc="http://creativecommons.org/ns#"
   xmlns:rdf="http://www.w3.org/1999/02/22-rdf-syntax-ns#"
   xmlns:svg="http://www.w3.org/2000/svg"
   xmlns="http://www.w3.org/2000/svg"
   xmlns:xlink="http://www.w3.org/1999/xlink"
   xmlns:sodipodi="http://sodipodi.sourceforge.net/DTD/sodipodi-0.dtd"
   xmlns:inkscape="http://www.inkscape.org/namespaces/inkscape"
   id="svg2"
   version="1.1"
   inkscape:version="0.48.4 r9939"
   width="64"
   height="64"
   sodipodi:docname="multimedia-volume-control.svg">
  <metadata
     id="metadata8">
    <rdf:RDF>
      <cc:Work
         rdf:about="">
        <dc:format>image/svg+xml</dc:format>
        <dc:type
           rdf:resource="http://purl.org/dc/dcmitype/StillImage" />
        <dc:title></dc:title>
      </cc:Work>
    </rdf:RDF>
  </metadata>
  <defs
     id="defs6">
    <inkscape:perspective
       id="perspective3009"
       inkscape:persp3d-origin="12 : 8 : 1"
       inkscape:vp_z="24 : 12 : 1"
       inkscape:vp_y="0 : 1000 : 0"
       inkscape:vp_x="0 : 12 : 1"
       sodipodi:type="inkscape:persp3d" />
    <clipPath
       id="clipPath-121758028">
      <g
         id="g3177"
         transform="translate(0,-1004.3622)">
        <path
           id="path3179"
           fill="#1890d0"
           transform="matrix(15.333333,0,0,11.5,414.99999,878.8622)"
           d="m -24 13 c 0 1.105 -0.672 2 -1.5 2 -0.828 0 -1.5 -0.895 -1.5 -2 0 -1.105 0.672 -2 1.5 -2 0.828 0 1.5 0.895 1.5 2 z" />
      </g>
    </clipPath>
    <clipPath
       id="clipPath-113117232">
      <g
         id="g3172"
         transform="translate(0,-1004.3622)">
        <path
           id="path3174"
           fill="#1890d0"
           transform="matrix(15.333333,0,0,11.5,414.99999,878.8622)"
           d="m -24 13 c 0 1.105 -0.672 2 -1.5 2 -0.828 0 -1.5 -0.895 -1.5 -2 0 -1.105 0.672 -2 1.5 -2 0.828 0 1.5 0.895 1.5 2 z" />
      </g>
    </clipPath>
    <linearGradient
       gradientTransform="matrix(0,-1,1,0,-1.5e-6,47.999998)"
       gradientUnits="userSpaceOnUse"
       x2="47"
       x1="1"
       id="linearGradient3764">
      <stop
         id="stop3167"
         stop-opacity="1"
         stop-color="#f0e9c8" />
      <stop
         id="stop3169"
         stop-opacity="1"
         stop-color="#f4efd8"
         offset="1" />
    </linearGradient>
    <clipPath
       id="clipPath-580235580">
      <g
         id="g5359"
         transform="translate(0,-1004.3622)">
        <path
           id="path5361"
           fill="#1890d0"
           transform="matrix(15.333333,0,0,11.5,414.99999,878.8622)"
           d="m -24 13 c 0 1.105 -0.672 2 -1.5 2 -0.828 0 -1.5 -0.895 -1.5 -2 0 -1.105 0.672 -2 1.5 -2 0.828 0 1.5 0.895 1.5 2 z" />
      </g>
    </clipPath>
    <clipPath
       id="clipPath-568471406">
      <g
         id="g5354"
         transform="translate(0,-1004.3622)">
        <path
           id="path5356"
           fill="#1890d0"
           transform="matrix(15.333333,0,0,11.5,414.99999,878.8622)"
           d="m -24 13 c 0 1.105 -0.672 2 -1.5 2 -0.828 0 -1.5 -0.895 -1.5 -2 0 -1.105 0.672 -2 1.5 -2 0.828 0 1.5 0.895 1.5 2 z" />
      </g>
    </clipPath>
    <linearGradient
       gradientTransform="matrix(0,-1,1,0,-1.5e-6,47.999998)"
       gradientUnits="userSpaceOnUse"
       x2="47"
       x1="1"
       id="linearGradient3764-7">
      <stop
         id="stop5349"
         stop-opacity="1"
         stop-color="#e04c8b" />
      <stop
         id="stop5351"
         stop-opacity="1"
         stop-color="#e35e97"
         offset="1" />
    </linearGradient>
    <clipPath
       id="clipPath-588794431">
      <g
         id="g6710"
         transform="translate(0,-1004.3622)">
        <path
           id="path6712"
           fill="#1890d0"
           transform="matrix(15.333333,0,0,11.5,414.99999,878.8622)"
           d="m -24 13 c 0 1.105 -0.672 2 -1.5 2 -0.828 0 -1.5 -0.895 -1.5 -2 0 -1.105 0.672 -2 1.5 -2 0.828 0 1.5 0.895 1.5 2 z" />
      </g>
    </clipPath>
    <clipPath
       id="clipPath-580766965">
      <g
         id="g6705"
         transform="translate(0,-1004.3622)">
        <path
           id="path6707"
           fill="#1890d0"
           transform="matrix(15.333333,0,0,11.5,414.99999,878.8622)"
           d="m -24 13 c 0 1.105 -0.672 2 -1.5 2 -0.828 0 -1.5 -0.895 -1.5 -2 0 -1.105 0.672 -2 1.5 -2 0.828 0 1.5 0.895 1.5 2 z" />
      </g>
    </clipPath>
    <linearGradient
       gradientTransform="matrix(0,-1,1,0,-1.5e-6,47.999998)"
       gradientUnits="userSpaceOnUse"
       x2="47"
       x1="1"
       id="linearGradient3764-76">
      <stop
         id="stop6700"
         stop-opacity="1"
         stop-color="#b0e648" />
      <stop
         id="stop6702"
         stop-opacity="1"
         stop-color="#b9e85a"
         offset="1" />
    </linearGradient>
    <linearGradient
       y2="1029.4803"
       x2="44.956501"
       y1="1029.4803"
       x1="2.9250314"
       gradientTransform="matrix(0.8095238,0,0,0.8095238,-1047.7907,-808.48368)"
       gradientUnits="userSpaceOnUse"
       id="linearGradient3056"
       xlink:href="#linearGradient3419"
       inkscape:collect="always" />
    <linearGradient
       y2="1029.4803"
       x2="44.956501"
       y1="1029.4803"
       x1="2.9250314"
       gradientTransform="matrix(0.69047615,0,0,0.69047615,-1044.9332,-686.05959)"
       gradientUnits="userSpaceOnUse"
       id="linearGradient3051"
       xlink:href="#linearGradient3419"
       inkscape:collect="always" />
    <linearGradient
       y2="1031.2874"
       x2="41.929218"
       y1="1031.2874"
       x1="2.9281611"
       gradientTransform="matrix(0,-1,1,0,-1004.3621,1106.5249)"
       gradientUnits="userSpaceOnUse"
       id="linearGradient3043"
       xlink:href="#linearGradient4019"
       inkscape:collect="always" />
    <linearGradient
       y2="1029.4803"
       x2="44.956501"
       y1="1029.4803"
       x1="2.9250314"
       gradientTransform="matrix(0.69047615,0,0,0.69047615,-1099.0959,-686.05959)"
       gradientUnits="userSpaceOnUse"
       id="linearGradient3041"
       xlink:href="#linearGradient3419"
       inkscape:collect="always" />
    <linearGradient
       y2="1029.4803"
       x2="44.956501"
       y1="1029.4803"
       x1="2.9250314"
       gradientTransform="matrix(0.8095238,0,0,0.8095238,-1101.9534,-808.48368)"
       gradientUnits="userSpaceOnUse"
       id="linearGradient3039"
       xlink:href="#linearGradient3419"
       inkscape:collect="always" />
    <linearGradient
       inkscape:collect="always"
       id="linearGradient4019">
      <stop
         style="stop-color:#4292cc;stop-opacity:1"
         offset="0"
         id="stop4021" />
      <stop
         style="stop-color:#a7d7f3;stop-opacity:1"
         offset="1"
         id="stop4023" />
    </linearGradient>
    <linearGradient
       inkscape:collect="always"
       xlink:href="#linearGradient4019"
       id="linearGradient4057"
       gradientUnits="userSpaceOnUse"
       gradientTransform="matrix(0,-1,1,0,-1004.3621,1106.5249)"
       x1="2.9281611"
       y1="1031.2874"
       x2="41.929218"
       y2="1031.2874" />
    <linearGradient
       inkscape:collect="always"
       xlink:href="#linearGradient3419"
       id="linearGradient4055"
       gradientUnits="userSpaceOnUse"
       gradientTransform="matrix(0.69047615,0,0,0.69047615,-1099.0959,-686.05959)"
       x1="2.9250314"
       y1="1029.4803"
       x2="44.956501"
       y2="1029.4803" />
    <linearGradient
       inkscape:collect="always"
       id="linearGradient3419">
      <stop
         style="stop-color:#d3d3d4;stop-opacity:1"
         offset="0"
         id="stop3421" />
      <stop
         style="stop-color:#f4f4f4;stop-opacity:1"
         offset="1"
         id="stop3423" />
    </linearGradient>
    <linearGradient
       inkscape:collect="always"
       xlink:href="#linearGradient3419"
       id="linearGradient4053"
       gradientUnits="userSpaceOnUse"
       gradientTransform="matrix(0.8095238,0,0,0.8095238,-1101.9534,-808.48368)"
       x1="2.9250314"
       y1="1029.4803"
       x2="44.956501"
       y2="1029.4803" />
  </defs>
  <sodipodi:namedview
     pagecolor="#ffffff"
     bordercolor="#666666"
     borderopacity="1"
     objecttolerance="10"
     gridtolerance="10"
     guidetolerance="10"
     inkscape:pageopacity="0"
     inkscape:pageshadow="2"
     inkscape:window-width="1316"
     inkscape:window-height="674"
     id="namedview4"
     showgrid="false"
     inkscape:zoom="2.6074563"
     inkscape:cx="6.3252668"
     inkscape:cy="30.372881"
     inkscape:window-x="44"
     inkscape:window-y="29"
     inkscape:window-maximized="1"
     inkscape:current-layer="svg2" />
  <g
     id="g3193"
     transform="translate(-49.176966,-14.466102)" />
  <g
     id="g5375"
     transform="translate(-86.823015,-1.227801)" />
  <g
     id="g6726"
     transform="translate(-103.6977,-1.9948321)" />
  <rect
     rx="5.9392786"
     ry="5.9392786"
     y="2.6643925"
     x="1.7127833"
     height="59.624359"
     width="59.081985"
     id="rect3005"
     style="fill:#000000;fill-opacity:1;stroke:#000000;stroke-width:0.5366599;stroke-linecap:round;stroke-linejoin:round;stroke-miterlimit:4;stroke-opacity:1;stroke-dasharray:none" />
  <g
     id="g14668"
     transform="matrix(2.5831968,0,0,2.4061795,5.9951345,8.0313391)"
     style="fill:#ffffff">
    <g
       id="icomoon-ignore-8"
       style="fill:#ffffff" />
    <path
       id="path14660"
       d="M 17.223,7.029 C 15.64,3.344 13.091,0.538 11.802,1.063 c -2.189,0.89 1.305,5.164 -9.446,9.534 -0.929,0.377 -1.164,1.888 -0.775,2.791 0.389,0.903 1.658,1.802 2.587,1.425 0.16,-0.065 0.751,-0.255 0.751,-0.255 0.663,0.89 1.357,0.362 1.604,0.928 0.296,0.68 0.939,2.157 1.157,2.659 0.22,0.502 0.716,0.968 1.076,0.831 0.358,-0.137 1.581,-0.603 2.049,-0.78 0.468,-0.177 0.58,-0.595 0.437,-0.924 -0.154,-0.354 -0.786,-0.458 -0.966,-0.872 -0.18,-0.414 -0.77,-1.739 -0.939,-2.157 -0.23,-0.568 0.259,-1.03 0.97,-1.104 4.894,-0.51 5.809,2.513 7.475,1.835 1.286,-0.526 1.024,-4.26 -0.559,-7.945 z m -0.551,5.977 c -0.286,0.116 -2.212,-1.402 -3.443,-4.267 -1.23,-2.864 -1.075,-5.482 -0.79,-5.598 0.285,-0.116 2.165,1.716 3.396,4.58 1.229,2.863 1.123,5.169 0.837,5.285 z"
       inkscape:connector-curvature="0"
       style="fill:#ffffff" />
  </g>
  <g
     transform="matrix(1.3282343,0,0,1.3627853,-0.62384656,-1368.5767)"
     id="layer1"
     inkscape:label="Capa 1">
    <path
       inkscape:connector-curvature="0"
       id="path906-9"
       d=""
       style="fill:#000000" />
    <rect
       style="fill:#000000;fill-opacity:0.01960784;stroke:none"
       id="rect4025"
       width="44.399963"
       height="44.399963"
       x="1.8000183"
       y="1006.1622"
       ry="4.6072297"
       rx="4.7270756" />
    <rect
       ry="4.54497"
       y="1006.4623"
       x="2.1000061"
       height="43.799973"
       width="43.799973"
       id="rect4027"
       style="fill:#000000;fill-opacity:0.03921569;stroke:none"
       rx="4.6631966" />
    <rect
       style="fill:#000000;fill-opacity:0.07843137;stroke:none"
       id="rect4029"
       width="43.199982"
       height="43.199982"
       x="2.3999939"
       y="1006.7626"
       ry="4.4827104"
       rx="4.5993176" />
    <rect
       ry="4.4204507"
       y="1007.0624"
       x="2.7000122"
       height="42.599991"
       width="42.599991"
       id="rect4031"
       style="fill:#000000;fill-opacity:0.15686275;stroke:none"
       rx="4.535439" />
    <rect
       style="fill:#333333;fill-opacity:1;stroke:none"
       id="rect4033"
       width="42"
       height="42"
       x="-1049.3622"
       y="3.0000219"
       ry="4.47156"
       transform="matrix(0,-1,1,0,0,0)"
       rx="4.358192" />
    <rect
       style="opacity:0.1;fill:#000000;fill-opacity:1;stroke:none"
       id="rect4035"
       width="37.000004"
       height="37.000004"
       x="-1046.8622"
       y="5.50002"
       ry="3.9392312"
       transform="matrix(0,-1,1,0,0,0)"
       rx="3.8393588" />
    <rect
       transform="matrix(0,-1,1,0,0,0)"
       ry="3.8114727"
       y="6.1000223"
       x="-1046.2622"
       height="35.799999"
       width="35.799999"
       id="rect4037"
       style="opacity:0.03999999;fill:#000000;fill-opacity:1;stroke:none"
       rx="3.7148395" />
    <rect
       transform="matrix(0,-1,1,0,0,0)"
       ry="3.6198344"
       y="7.0000219"
       x="-1045.3622"
       height="34"
       width="34"
       id="rect4039"
       style="fill:url(#linearGradient3056);fill-opacity:1;stroke:none"
       rx="3.52806" />
    <rect
       transform="matrix(0,-1,1,0,0,0)"
       ry="3.3004372"
       y="8.50002"
       x="-1043.8622"
       height="31.000004"
       width="31.000004"
       id="rect4041"
       style="opacity:0.1;fill:#000000;fill-opacity:1;stroke:none"
       rx="3.2167606" />
    <rect
       style="opacity:0.05;fill:#000000;fill-opacity:1;stroke:none"
       id="rect4043"
       width="30"
       height="30"
       x="-1043.3622"
       y="9.0000219"
       ry="3.1939719"
       transform="matrix(0,-1,1,0,0,0)"
       rx="3.1129944" />
    <rect
       style="fill:url(#linearGradient3051);fill-opacity:1;stroke:none"
       id="rect4045"
       width="29.000004"
       height="29.000004"
       x="-1042.8622"
       y="9.50002"
       ry="3.0875061"
       transform="matrix(0,-1,1,0,0,0)"
       rx="3.0092278" />
    <path
       inkscape:connector-curvature="0"
       style="fill:#1a1a1a;fill-opacity:1;stroke:none"
       d="m 2.9999782,1043.4228 c 0,3.2903 2.6491,5.9394 5.9395,5.9394 l 30.1209998,0 c 3.2904,0 5.9395,-2.6491 5.9395,-5.9394 l 0,-13.0606 0,-10 0,-2 c 0,-0.1385 -0.014,-0.2738 -0.041,-0.4043 -0.1859,-0.913 -0.9895,-1.5957 -1.959,-1.5957 l -18.7129,0 -2.4863,-4.9023 c -0.1007,-0.1985 -0.2352,-0.3657 -0.3848,-0.5137 -0.089,-0.088 -0.1836,-0.1658 -0.2851,-0.2344 -0.01,0 -0.014,-0.011 -0.021,-0.016 -0.092,-0.06 -0.1887,-0.112 -0.2891,-0.1562 -0.025,-0.011 -0.049,-0.021 -0.074,-0.031 -0.089,-0.035 -0.1787,-0.062 -0.2715,-0.084 -0.039,-0.01 -0.077,-0.018 -0.1172,-0.025 -0.083,-0.014 -0.1656,-0.022 -0.25,-0.025 -0.036,0 -0.071,-0.012 -0.1074,-0.012 l -14.9999998,0 c -1.108,0 -2,0.892 -2,2 l 0,2 0,10 0,19.0606 z"
       id="path4047" />
    <path
       inkscape:connector-curvature="0"
       style="fill:#000000;fill-opacity:0.11764706;stroke:none"
       d="m 3.0000004,1040.9247 0,2.5 c 0,3.2904 2.64714,5.9375 5.9375,5.9375 l 30.1249996,0 c 3.29036,0 5.9375,-2.6471 5.9375,-5.9375 l 0,-2.5 c 0,3.2904 -2.64714,5.9375 -5.9375,5.9375 l -30.1249996,0 c -3.29036,0 -5.9375,-2.6471 -5.9375,-5.9375 z"
       id="path4049" />
    <path
       inkscape:connector-curvature="0"
       style="fill:#000000;fill-opacity:0.09803922;stroke:none"
       d="m 3.0000004,1042.9247 0,0.5 c 0,3.2904 2.64714,5.9375 5.9375,5.9375 l 30.1249996,0 c 3.29036,0 5.9375,-2.6471 5.9375,-5.9375 l 0,-0.5 c 0,3.2904 -2.64714,5.9375 -5.9375,5.9375 l -30.1249996,0 c -3.29036,0 -5.9375,-2.6471 -5.9375,-5.9375 z"
       id="path4051" />
    <g
       style="fill:#ffffff"
       transform="matrix(0.87123707,0,0,0.80405029,10.770565,1019.8921)"
       id="g3200">
      <g
         style="fill:#ffffff"
         id="icomoon-ignore" />
      <path
         style="fill:#ffffff"
         inkscape:connector-curvature="0"
         d="M 31.342,25.559 16.95,13.223 c 0.67,-1.259 1.051,-2.696 1.051,-4.222 0,-4.971 -4.029,-9 -9,-9 -0.909,0 -1.787,0.135 -2.614,0.386 l 5.2,5.2 c 0.778,0.778 0.778,2.051 0,2.828 l -3.172,3.172 c -0.778,0.778 -2.051,0.778 -2.828,0 l -5.2,-5.2 C 0.136,7.214 0.001,8.092 0.001,9.001 c 0,4.971 4.029,9 9,9 1.526,0 2.963,-0.38 4.222,-1.051 l 12.336,14.392 c 0.716,0.835 1.938,0.882 2.716,0.104 l 3.172,-3.172 c 0.778,-0.778 0.731,-2 -0.104,-2.716 z"
         id="path3192" />
    </g>
  </g>
</svg>
