<?xml version="1.0" encoding="UTF-8" standalone="no"?>
<!-- Created with Inkscape (http://www.inkscape.org/) -->

<svg
   xmlns:dc="http://purl.org/dc/elements/1.1/"
   xmlns:cc="http://creativecommons.org/ns#"
   xmlns:rdf="http://www.w3.org/1999/02/22-rdf-syntax-ns#"
   xmlns:svg="http://www.w3.org/2000/svg"
   xmlns="http://www.w3.org/2000/svg"
   xmlns:sodipodi="http://sodipodi.sourceforge.net/DTD/sodipodi-0.dtd"
   xmlns:inkscape="http://www.inkscape.org/namespaces/inkscape"
   id="svg2"
   version="1.1"
   inkscape:version="0.48.4 r9939"
   width="64"
   height="64"
   sodipodi:docname="NETWORK_SERVER.svg">
  <metadata
     id="metadata8">
    <rdf:RDF>
      <cc:Work
         rdf:about="">
        <dc:format>image/svg+xml</dc:format>
        <dc:type
           rdf:resource="http://purl.org/dc/dcmitype/StillImage" />
        <dc:title></dc:title>
      </cc:Work>
    </rdf:RDF>
  </metadata>
  <defs
     id="defs6">
    <clipPath
       id="clipPath-004379514">
      <g
         id="g7157"
         transform="translate(0,-1004.3622)">
        <path
           id="path7159"
           fill="#1890d0"
           transform="matrix(15.333333,0,0,11.5,414.99999,878.8622)"
           d="m -24 13 c 0 1.105 -0.672 2 -1.5 2 -0.828 0 -1.5 -0.895 -1.5 -2 0 -1.105 0.672 -2 1.5 -2 0.828 0 1.5 0.895 1.5 2 z" />
      </g>
    </clipPath>
    <clipPath
       id="clipPath-998868648">
      <g
         id="g7152"
         transform="translate(0,-1004.3622)">
        <path
           id="path7154"
           fill="#1890d0"
           transform="matrix(15.333333,0,0,11.5,414.99999,878.8622)"
           d="m -24 13 c 0 1.105 -0.672 2 -1.5 2 -0.828 0 -1.5 -0.895 -1.5 -2 0 -1.105 0.672 -2 1.5 -2 0.828 0 1.5 0.895 1.5 2 z" />
      </g>
    </clipPath>
    <linearGradient
       gradientTransform="matrix(0,-1,1,0,-1.5e-6,47.999998)"
       gradientUnits="userSpaceOnUse"
       x2="47"
       x1="1"
       id="linearGradient3764">
      <stop
         id="stop7147"
         stop-opacity="1"
         stop-color="#8cd644" />
      <stop
         id="stop7149"
         stop-opacity="1"
         stop-color="#97da54"
         offset="1" />
    </linearGradient>
  </defs>
  <sodipodi:namedview
     pagecolor="#ffffff"
     bordercolor="#666666"
     borderopacity="1"
     objecttolerance="10"
     gridtolerance="10"
     guidetolerance="10"
     inkscape:pageopacity="0"
     inkscape:pageshadow="2"
     inkscape:window-width="1316"
     inkscape:window-height="674"
     id="namedview4"
     showgrid="false"
     inkscape:zoom="3.6875"
     inkscape:cx="-19.932204"
     inkscape:cy="30.915254"
     inkscape:window-x="44"
     inkscape:window-y="29"
     inkscape:window-maximized="1"
     inkscape:current-layer="svg2" />
  <rect
     style="fill:#000000;fill-opacity:1;stroke:#000000;stroke-width:0.53665989999999997;stroke-linecap:round;stroke-linejoin:round;stroke-miterlimit:4;stroke-opacity:1;stroke-dasharray:none"
     id="rect3005"
     width="59.081985"
     height="59.624359"
     x="2.4590092"
     y="2.1878221"
     ry="5.9392786"
     rx="5.9392786" />
  <g
     id="g7173"
     transform="translate(-146.26171,-15.822034)" />
  <g
     transform="matrix(1.0462222,0,0,1.0840578,7.2974468,-1082.3972)"
     id="layer1"
     inkscape:label="Layer 1"
     style="fill:#ffffff;stroke:#000000;stroke-width:1.47797315;stroke-miterlimit:4;stroke-opacity:1;stroke-dasharray:none">
    <rect
       style="fill:#ffffff;fill-opacity:1;stroke:#000000;stroke-width:1.47797315;stroke-miterlimit:4;stroke-opacity:1;stroke-dasharray:none"
       id="rect3804"
       width="2"
       height="5"
       x="23"
       y="1032.3622" />
    <rect
       y="1019.3622"
       x="23"
       height="5"
       width="2"
       id="rect3802"
       style="fill:#ffffff;fill-opacity:1;stroke:#000000;stroke-width:1.47797315;stroke-miterlimit:4;stroke-opacity:1;stroke-dasharray:none" />
    <rect
       ry="1.8449203"
       rx="1.9116398"
       y="1036.3622"
       x="3"
       height="10"
       width="42"
       id="rect3000"
       style="fill:#ffffff;fill-opacity:1;stroke:#000000;stroke-width:1.47797315;stroke-miterlimit:4;stroke-opacity:1;stroke-dasharray:none" />
    <rect
       style="fill:#ffffff;fill-opacity:1;stroke:#000000;stroke-width:1.47797315;stroke-miterlimit:4;stroke-opacity:1;stroke-dasharray:none"
       id="rect2998"
       width="42"
       height="10"
       x="3"
       y="1023.3622"
       rx="1.9116398"
       ry="1.8449203" />
    <rect
       ry="1.8449203"
       rx="1.9116398"
       y="1010.3622"
       x="3"
       height="10"
       width="42"
       id="rect2992"
       style="fill:#ffffff;fill-opacity:1;stroke:#000000;stroke-width:1.47797315;stroke-miterlimit:4;stroke-opacity:1;stroke-dasharray:none" />
    <rect
       y="1013.3622"
       x="6"
       height="3.9999826"
       width="21"
       id="rect3806"
       style="fill:#ffffff;fill-opacity:1;stroke:#000000;stroke-width:1.47797315;stroke-miterlimit:4;stroke-opacity:1;stroke-dasharray:none" />
    <path
       transform="translate(40,998.3622)"
       d="m -5,17 c 0,1.104569 -0.8954305,2 -2,2 -1.1045695,0 -2,-0.895431 -2,-2 0,-1.104569 0.8954305,-2 2,-2 1.1045695,0 2,0.895431 2,2 z"
       sodipodi:ry="2"
       sodipodi:rx="2"
       sodipodi:cy="17"
       sodipodi:cx="-7"
       id="path3808"
       style="fill:#ffffff;fill-opacity:1;stroke:#000000;stroke-width:1.47797315;stroke-miterlimit:4;stroke-opacity:1;stroke-dasharray:none"
       sodipodi:type="arc" />
    <path
       sodipodi:type="arc"
       style="fill:#ffffff;fill-opacity:1;stroke:#000000;stroke-width:1.47797315;stroke-miterlimit:4;stroke-opacity:1;stroke-dasharray:none"
       id="path3810"
       sodipodi:cx="-7"
       sodipodi:cy="17"
       sodipodi:rx="2"
       sodipodi:ry="2"
       d="m -5,17 c 0,1.104569 -0.8954305,2 -2,2 -1.1045695,0 -2,-0.895431 -2,-2 0,-1.104569 0.8954305,-2 2,-2 1.1045695,0 2,0.895431 2,2 z"
       transform="translate(47,998.3622)" />
    <rect
       style="fill:#ffffff;fill-opacity:1;stroke:#000000;stroke-width:1.47797315;stroke-miterlimit:4;stroke-opacity:1;stroke-dasharray:none"
       id="rect3812"
       width="21"
       height="3.9999826"
       x="6"
       y="1039.3622" />
    <path
       sodipodi:type="arc"
       style="fill:#ffffff;fill-opacity:1;stroke:#000000;stroke-width:1.47797315;stroke-miterlimit:4;stroke-opacity:1;stroke-dasharray:none"
       id="path3814"
       sodipodi:cx="-7"
       sodipodi:cy="17"
       sodipodi:rx="2"
       sodipodi:ry="2"
       d="m -5,17 c 0,1.104569 -0.8954305,2 -2,2 -1.1045695,0 -2,-0.895431 -2,-2 0,-1.104569 0.8954305,-2 2,-2 1.1045695,0 2,0.895431 2,2 z"
       transform="translate(40,1024.3622)" />
    <path
       transform="translate(47,1024.3622)"
       d="m -5,17 c 0,1.104569 -0.8954305,2 -2,2 -1.1045695,0 -2,-0.895431 -2,-2 0,-1.104569 0.8954305,-2 2,-2 1.1045695,0 2,0.895431 2,2 z"
       sodipodi:ry="2"
       sodipodi:rx="2"
       sodipodi:cy="17"
       sodipodi:cx="-7"
       id="path3816"
       style="fill:#ffffff;fill-opacity:1;stroke:#000000;stroke-width:1.47797315;stroke-miterlimit:4;stroke-opacity:1;stroke-dasharray:none"
       sodipodi:type="arc" />
    <rect
       y="1026.3622"
       x="6"
       height="3.9999826"
       width="21"
       id="rect3818"
       style="fill:#ffffff;fill-opacity:1;stroke:#000000;stroke-width:1.47797315;stroke-miterlimit:4;stroke-opacity:1;stroke-dasharray:none" />
    <path
       transform="translate(40,1011.3622)"
       d="m -5,17 c 0,1.104569 -0.8954305,2 -2,2 -1.1045695,0 -2,-0.895431 -2,-2 0,-1.104569 0.8954305,-2 2,-2 1.1045695,0 2,0.895431 2,2 z"
       sodipodi:ry="2"
       sodipodi:rx="2"
       sodipodi:cy="17"
       sodipodi:cx="-7"
       id="path3820"
       style="fill:#ffffff;fill-opacity:1;stroke:#000000;stroke-width:1.47797315;stroke-miterlimit:4;stroke-opacity:1;stroke-dasharray:none"
       sodipodi:type="arc" />
    <path
       sodipodi:type="arc"
       style="fill:#ffffff;fill-opacity:1;stroke:#000000;stroke-width:1.47797315;stroke-miterlimit:4;stroke-opacity:1;stroke-dasharray:none"
       id="path3822"
       sodipodi:cx="-7"
       sodipodi:cy="17"
       sodipodi:rx="2"
       sodipodi:ry="2"
       d="m -5,17 c 0,1.104569 -0.8954305,2 -2,2 -1.1045695,0 -2,-0.895431 -2,-2 0,-1.104569 0.8954305,-2 2,-2 1.1045695,0 2,0.895431 2,2 z"
       transform="translate(47,1011.3622)" />
  </g>
</svg>
