<?xml version="1.0" encoding="UTF-8" standalone="no"?>
<!-- Created with Inkscape (http://www.inkscape.org/) -->

<svg
   xmlns:dc="http://purl.org/dc/elements/1.1/"
   xmlns:cc="http://creativecommons.org/ns#"
   xmlns:rdf="http://www.w3.org/1999/02/22-rdf-syntax-ns#"
   xmlns:svg="http://www.w3.org/2000/svg"
   xmlns="http://www.w3.org/2000/svg"
   xmlns:sodipodi="http://sodipodi.sourceforge.net/DTD/sodipodi-0.dtd"
   xmlns:inkscape="http://www.inkscape.org/namespaces/inkscape"
   id="svg2"
   version="1.1"
   inkscape:version="0.48.4 r9939"
   width="64"
   height="64"
   sodipodi:docname="caffeine.svg">
  <metadata
     id="metadata8">
    <rdf:RDF>
      <cc:Work
         rdf:about="">
        <dc:format>image/svg+xml</dc:format>
        <dc:type
           rdf:resource="http://purl.org/dc/dcmitype/StillImage" />
        <dc:title></dc:title>
      </cc:Work>
    </rdf:RDF>
  </metadata>
  <defs
     id="defs6">
    <inkscape:perspective
       id="perspective3009"
       inkscape:persp3d-origin="12 : 8 : 1"
       inkscape:vp_z="24 : 12 : 1"
       inkscape:vp_y="0 : 1000 : 0"
       inkscape:vp_x="0 : 12 : 1"
       sodipodi:type="inkscape:persp3d" />
  </defs>
  <sodipodi:namedview
     pagecolor="#ffffff"
     bordercolor="#666666"
     borderopacity="1"
     objecttolerance="10"
     gridtolerance="10"
     guidetolerance="10"
     inkscape:pageopacity="0"
     inkscape:pageshadow="2"
     inkscape:window-width="1317"
     inkscape:window-height="717"
     id="namedview4"
     showgrid="false"
     inkscape:zoom="3.6875"
     inkscape:cx="-14.644068"
     inkscape:cy="32"
     inkscape:window-x="43"
     inkscape:window-y="24"
     inkscape:window-maximized="1"
     inkscape:current-layer="svg2" />
  <rect
     style="fill:#000000;fill-opacity:1;stroke:#000000;stroke-width:0.53665989999999997;stroke-linecap:round;stroke-linejoin:round;stroke-miterlimit:4;stroke-opacity:1;stroke-dasharray:none"
     id="rect3005"
     width="59.081985"
     height="59.624359"
     x="2.4590092"
     y="2.1878221"
     ry="5.9392786"
     rx="5.9392786" />
  <path
     inkscape:connector-curvature="0"
     style="fill:#000000;fill-opacity:0.30199998"
     d="m 14.638728,14.214119 c -1.413179,0 -2.545375,1.145627 -2.545375,2.558844 l 0,22.912514 c 0,1.413216 1.132196,2.55048 2.545375,2.55048 l 35.536106,0 c 1.413178,0 2.545374,-1.137264 2.545374,-2.55048 l 0,-22.912514 c 0,-1.413217 -1.132196,-2.558844 -2.545374,-2.558844 z m 2.537113,4.674488 30.46188,0 0,18.681226 -30.46188,0 z m 7.611339,25.688774 0,2.333063 -5.074226,0 0,4.666124 25.387654,0 0,-4.666124 -5.074227,0 0,-2.333063 z"
     id="path6" />
  <path
     inkscape:connector-curvature="0"
     style="fill:#ffffff"
     d="m 14.638728,11.881058 c -1.413179,0 -2.545375,1.137264 -2.545375,2.55048 l 0,22.920876 c 0,1.413216 1.132196,2.55048 2.545375,2.55048 l 35.536106,0 c 1.413178,0 2.545374,-1.137264 2.545374,-2.55048 l 0,-22.920876 c 0,-1.404855 -1.132196,-2.55048 -2.545374,-2.55048 z m 2.537113,4.666124 30.46188,0 0,18.689588 -30.46188,0 z m 7.611339,25.688775 0,2.341424 -5.074226,0 0,4.666124 25.387654,0 0,-4.666124 -5.074227,0 0,-2.341424 z"
     id="path8" />
  <g
     id="g3229"
     transform="matrix(0.92373139,0,0,0.55933226,17.627497,17.084933)"
     style="fill:#ffffff">
    <g
       id="icomoon-ignore"
       style="fill:#ffffff" />
    <path
       id="path3221"
       d="m 31.008,27.231 -7.58,-6.447 c -0.784,-0.705 -1.622,-1.029 -2.299,-0.998 1.789,-2.096 2.87,-4.815 2.87,-7.787 0,-6.627 -5.373,-12 -12,-12 -6.627,0 -12,5.373 -12,12 0,6.627 5.373,12 12,12 2.972,0 5.691,-1.081 7.787,-2.87 -0.031,0.677 0.293,1.515 0.998,2.299 l 6.447,7.58 c 1.104,1.226 2.907,1.33 4.007,0.23 1.1,-1.1 0.997,-2.903 -0.23,-4.007 z M 12,20 C 7.582,20 4,16.418 4,12 4,7.582 7.582,4 12,4 c 4.418,0 8,3.582 8,8 0,4.418 -3.582,8 -8,8 z"
       inkscape:connector-curvature="0"
       style="fill:#ffffff" />
  </g>
</svg>
