<?xml version="1.0" encoding="UTF-8" standalone="no"?>
<!-- Created with Inkscape (http://www.inkscape.org/) -->

<svg
   xmlns:dc="http://purl.org/dc/elements/1.1/"
   xmlns:cc="http://creativecommons.org/ns#"
   xmlns:rdf="http://www.w3.org/1999/02/22-rdf-syntax-ns#"
   xmlns:svg="http://www.w3.org/2000/svg"
   xmlns="http://www.w3.org/2000/svg"
   xmlns:sodipodi="http://sodipodi.sourceforge.net/DTD/sodipodi-0.dtd"
   xmlns:inkscape="http://www.inkscape.org/namespaces/inkscape"
   id="svg2"
   version="1.1"
   inkscape:version="0.48.4 r9939"
   width="64"
   height="64"
   sodipodi:docname="GESTOR ACTUALIZACIONES.svg">
  <metadata
     id="metadata8">
    <rdf:RDF>
      <cc:Work
         rdf:about="">
        <dc:format>image/svg+xml</dc:format>
        <dc:type
           rdf:resource="http://purl.org/dc/dcmitype/StillImage" />
        <dc:title></dc:title>
      </cc:Work>
    </rdf:RDF>
  </metadata>
  <defs
     id="defs6" />
  <sodipodi:namedview
     pagecolor="#ffffff"
     bordercolor="#666666"
     borderopacity="1"
     objecttolerance="10"
     gridtolerance="10"
     guidetolerance="10"
     inkscape:pageopacity="0"
     inkscape:pageshadow="2"
     inkscape:window-width="1316"
     inkscape:window-height="674"
     id="namedview4"
     showgrid="false"
     inkscape:zoom="3.6875"
     inkscape:cx="-15.186441"
     inkscape:cy="32"
     inkscape:window-x="44"
     inkscape:window-y="29"
     inkscape:window-maximized="1"
     inkscape:current-layer="svg2" />
  <rect
     style="fill:#000000;fill-opacity:1;stroke:#000000;stroke-width:0.53665989999999997;stroke-linecap:round;stroke-linejoin:round;stroke-miterlimit:4;stroke-opacity:1;stroke-dasharray:none"
     id="rect3005"
     width="59.081985"
     height="59.624359"
     x="2.4590092"
     y="2.1878221"
     ry="5.9392786"
     rx="5.9392786" />
  <g
     id="g3743"
     transform="matrix(1.5811138,0,0,1.4830508,7.5157381,7.5932203)"
     style="fill:#ffffff">
    <g
       id="icomoon-ignore"
       style="fill:#ffffff" />
    <path
       id="path3735"
       d="M 16,4 C 8.268,4 2,10.268 2,18 2,25.732 8.268,32 16,32 23.732,32 30,25.732 30,18 30,10.268 23.732,4 16,4 z m 0,25.25 C 9.787,29.25 4.75,24.213 4.75,18 4.75,11.787 9.787,6.75 16,6.75 c 6.213,0 11.25,5.037 11.25,11.25 0,6.213 -5.037,11.25 -11.25,11.25 z M 29.212,8.974 C 29.713,8.097 30,7.082 30,6 30,2.686 27.314,0 24,0 c -1.932,0 -3.65,0.913 -4.747,2.331 4.121,0.851 7.663,3.287 9.96,6.643 z M 12.748,2.331 C 11.651,0.913 9.932,0 8,0 4.686,0 2,2.686 2,6 2,7.082 2.287,8.098 2.788,8.974 5.085,5.618 8.626,3.182 12.748,2.331 z M 14,10 h 2 V 20 H 14 V 10 z m 2,8 h 6 v 2 h -6 v -2 z"
       inkscape:connector-curvature="0"
       style="fill:#ffffff" />
  </g>
</svg>
