<?xml version="1.0" encoding="UTF-8" standalone="no"?>
<!-- Created with Inkscape (http://www.inkscape.org/) -->

<svg
   xmlns:dc="http://purl.org/dc/elements/1.1/"
   xmlns:cc="http://creativecommons.org/ns#"
   xmlns:rdf="http://www.w3.org/1999/02/22-rdf-syntax-ns#"
   xmlns:svg="http://www.w3.org/2000/svg"
   xmlns="http://www.w3.org/2000/svg"
   xmlns:sodipodi="http://sodipodi.sourceforge.net/DTD/sodipodi-0.dtd"
   xmlns:inkscape="http://www.inkscape.org/namespaces/inkscape"
   id="svg2"
   version="1.1"
   inkscape:version="0.48.4 r9939"
   width="64"
   height="64"
   sodipodi:docname="parcellite.svg">
  <metadata
     id="metadata8">
    <rdf:RDF>
      <cc:Work
         rdf:about="">
        <dc:format>image/svg+xml</dc:format>
        <dc:type
           rdf:resource="http://purl.org/dc/dcmitype/StillImage" />
        <dc:title />
      </cc:Work>
    </rdf:RDF>
  </metadata>
  <defs
     id="defs6">
    <clipPath
       id="clipPath-815853310">
      <g
         id="g3299"
         transform="translate(0,-1004.3622)">
        <path
           id="path3301"
           fill="#1890d0"
           transform="matrix(15.333333,0,0,11.5,414.99999,878.8622)"
           d="m -24 13 c 0 1.105 -0.672 2 -1.5 2 -0.828 0 -1.5 -0.895 -1.5 -2 0 -1.105 0.672 -2 1.5 -2 0.828 0 1.5 0.895 1.5 2 z" />
      </g>
    </clipPath>
    <clipPath
       id="clipPath-810667775">
      <g
         id="g3294"
         transform="translate(0,-1004.3622)">
        <path
           id="path3296"
           fill="#1890d0"
           transform="matrix(15.333333,0,0,11.5,414.99999,878.8622)"
           d="m -24 13 c 0 1.105 -0.672 2 -1.5 2 -0.828 0 -1.5 -0.895 -1.5 -2 0 -1.105 0.672 -2 1.5 -2 0.828 0 1.5 0.895 1.5 2 z" />
      </g>
    </clipPath>
    <linearGradient
       gradientTransform="matrix(0,-1,1,0,-1.5e-6,47.999998)"
       gradientUnits="userSpaceOnUse"
       x2="47"
       x1="1"
       id="linearGradient3764">
      <stop
         id="stop3289"
         stop-opacity="1"
         stop-color="#e4e4e4" />
      <stop
         id="stop3291"
         stop-opacity="1"
         stop-color="#eee"
         offset="1" />
    </linearGradient>
  </defs>
  <sodipodi:namedview
     pagecolor="#ffffff"
     bordercolor="#666666"
     borderopacity="1"
     objecttolerance="10"
     gridtolerance="10"
     guidetolerance="10"
     inkscape:pageopacity="0"
     inkscape:pageshadow="2"
     inkscape:window-width="1316"
     inkscape:window-height="674"
     id="namedview4"
     showgrid="false"
     inkscape:zoom="3.6875"
     inkscape:cx="-15.186441"
     inkscape:cy="32"
     inkscape:window-x="44"
     inkscape:window-y="29"
     inkscape:window-maximized="1"
     inkscape:current-layer="svg2" />
  <rect
     style="fill:#000000;fill-opacity:1;stroke:#000000;stroke-width:0.53665989999999997;stroke-linecap:round;stroke-linejoin:round;stroke-miterlimit:4;stroke-opacity:1;stroke-dasharray:none"
     id="rect3005"
     width="59.081985"
     height="59.624359"
     x="2.4590092"
     y="2.1878221"
     ry="5.9392786"
     rx="5.9392786" />
  <g
     id="g3315"
     transform="translate(-128.63459,0.44915254)" />
  <g
     id="g3329"
     transform="matrix(1.9829689,0,0,1.8031291,-15.144048,-10.825945)"
     style="fill:#ffffff">
    <g
       clip-path="url(#clipPath-815853310)"
       id="g3331"
       style="fill:#ffffff">
      <!-- color: #eeeeee -->
      <g
         id="g3333"
         style="fill:#ffffff">
        <path
           style="fill:#ffffff;fill-opacity:0.94100001;fill-rule:nonzero;stroke:none"
           inkscape:connector-curvature="0"
           d="m 36,32.32 c 0,1.328 -0.453,2.441 -1.355,3.336 C 33.743,36.551 32.625,37 31.29,37 29.747,37 28.403,36.434 27.26,35.297 L 13.94,22.094 c -1.289,-1.305 -1.938,-2.84 -1.938,-4.609 0,-1.805 0.629,-3.34 1.887,-4.598 C 15.147,11.629 16.682,11 18.491,11 c 1.813,0 3.363,0.641 4.688,1.922 L 33.55,23.235 c 0.105,0.113 0.172,0.238 0.172,0.375 0,0.18 -0.176,0.445 -0.523,0.789 -0.352,0.344 -0.617,0.52 -0.801,0.52 -0.148,0 -0.277,-0.059 -0.391,-0.172 L 21.609,14.419 c -0.895,-0.875 -1.938,-1.313 -3.102,-1.313 -1.215,0 -2.234,0.426 -3.07,1.277 -0.832,0.852 -1.25,1.875 -1.25,3.078 0,1.191 0.441,2.219 1.305,3.078 l 13.309,13.223 c 0.719,0.715 1.551,1.074 2.48,1.074 0.73,0 1.336,-0.242 1.816,-0.719 0.48,-0.477 0.719,-1.078 0.719,-1.801 0,-0.934 -0.352,-1.754 -1.082,-2.469 l -9.957,-9.883 c -0.301,-0.273 -0.641,-0.41 -1.02,-0.41 -0.332,0 -0.605,0.109 -0.824,0.324 -0.215,0.215 -0.324,0.488 -0.324,0.816 0,0.363 0.141,0.699 0.426,1 l 7.03,6.977 c 0.113,0.113 0.172,0.238 0.172,0.375 0,0.184 -0.18,0.449 -0.531,0.801 -0.352,0.352 -0.625,0.527 -0.805,0.527 -0.137,0 -0.262,-0.055 -0.375,-0.168 l -7.03,-6.977 c -0.723,-0.691 -1.082,-1.539 -1.082,-2.539 0,-0.93 0.328,-1.719 0.98,-2.367 0.645,-0.645 1.445,-0.969 2.379,-0.969 1.01,0 1.859,0.355 2.555,1.074 l 9.961,9.883 c 1.145,1.113 1.715,2.449 1.715,4 m 0,0"
           id="path3335" />
      </g>
    </g>
  </g>
</svg>
