<?xml version="1.0" encoding="UTF-8" standalone="no"?>
<!-- Created with Inkscape (http://www.inkscape.org/) -->

<svg
   xmlns:dc="http://purl.org/dc/elements/1.1/"
   xmlns:cc="http://creativecommons.org/ns#"
   xmlns:rdf="http://www.w3.org/1999/02/22-rdf-syntax-ns#"
   xmlns:svg="http://www.w3.org/2000/svg"
   xmlns="http://www.w3.org/2000/svg"
   xmlns:sodipodi="http://sodipodi.sourceforge.net/DTD/sodipodi-0.dtd"
   xmlns:inkscape="http://www.inkscape.org/namespaces/inkscape"
   id="svg2"
   version="1.1"
   inkscape:version="0.48.4 r9939"
   width="64"
   height="64"
   sodipodi:docname="base.svg">
  <metadata
     id="metadata8">
    <rdf:RDF>
      <cc:Work
         rdf:about="">
        <dc:format>image/svg+xml</dc:format>
        <dc:type
           rdf:resource="http://purl.org/dc/dcmitype/StillImage" />
        <dc:title></dc:title>
      </cc:Work>
    </rdf:RDF>
  </metadata>
  <defs
     id="defs6" />
  <sodipodi:namedview
     pagecolor="#ffffff"
     bordercolor="#666666"
     borderopacity="1"
     objecttolerance="10"
     gridtolerance="10"
     guidetolerance="10"
     inkscape:pageopacity="0"
     inkscape:pageshadow="2"
     inkscape:window-width="1316"
     inkscape:window-height="674"
     id="namedview4"
     showgrid="false"
     inkscape:zoom="3.6875"
     inkscape:cx="-15.186441"
     inkscape:cy="32"
     inkscape:window-x="44"
     inkscape:window-y="29"
     inkscape:window-maximized="1"
     inkscape:current-layer="svg2" />
  <g
     id="g3235">
    <rect
       rx="5.9392786"
       ry="5.9392786"
       y="2.1878221"
       x="2.4590092"
       height="59.624359"
       width="59.081985"
       id="rect3005"
       style="fill:#000000;fill-opacity:1;stroke:#000000;stroke-width:0.53665989999999997;stroke-linecap:round;stroke-linejoin:round;stroke-miterlimit:4;stroke-opacity:1;stroke-dasharray:none" />
    <g
       style="fill:#ffffff"
       transform="matrix(1.2966102,0,0,1.6779661,10.847458,4.0677967)"
       id="g3227">
      <g
         style="fill:#ffffff"
         id="icomoon-ignore-4" />
      <path
         style="fill:#ffffff"
         inkscape:connector-curvature="0"
         d="M 0,4 V 28 H 32 V 4 H 0 z M 6,26 H 2 v -4 h 4 v 4 z M 6,18 H 2 v -4 h 4 v 4 z M 6,10 H 2 V 6 h 4 v 4 z M 24,26 H 8 V 6 h 16 v 20 z m 6,0 h -4 v -4 h 4 v 4 z m 0,-8 h -4 v -4 h 4 v 4 z m 0,-8 H 26 V 6 h 4 v 4 z m -18,0 v 12 l 8,-6 z"
         id="path3219" />
    </g>
    <path
       inkscape:connector-curvature="0"
       id="path3233"
       d="M 24.135593,18.983051 24.677966,44.20339 40.40678,30.915254 z"
       style="fill:#000000;stroke:#000000;stroke-width:1px;stroke-linecap:butt;stroke-linejoin:miter;stroke-opacity:1" />
  </g>
  <g
     id="g3138"
     transform="matrix(0.65132008,0,0,1,20.765835,13.915754)"
     style="fill:#ffffff">
    <g
       id="icomoon-ignore"
       style="fill:#ffffff" />
    <path
       id="path3130"
       d="M 27.837,22.161 C 26.41,20.737 24.596,20.002 22.901,20.002 h -0.91 l -1.997,-2 7.988,-8.001 C 29.979,8.001 29.979,4 27.982,2 L 16,14.002 4.018,2 c -1.997,2 -1.997,6.001 0,8.001 l 7.988,8.001 -1.997,2 h -0.91 c -1.694,0 -3.509,0.735 -4.936,2.159 -2.551,2.545 -2.895,6.328 -0.77,8.448 0.937,0.934 2.196,1.39 3.531,1.39 1.694,0 3.509,-0.735 4.936,-2.159 1.675,-1.671 2.398,-3.875 2.096,-5.792 l 2.043,-2.047 2.043,2.047 c -0.302,1.917 0.422,4.121 2.096,5.792 1.427,1.424 3.242,2.159 4.936,2.159 1.335,0 2.595,-0.456 3.531,-1.39 2.126,-2.121 1.781,-5.903 -0.77,-8.448 z m -16.805,4.262 c -0.241,0.559 -0.594,1.073 -1.051,1.529 -0.457,0.456 -0.974,0.81 -1.536,1.051 -0.504,0.216 -1.03,0.33 -1.521,0.33 -0.473,0 -1.144,-0.106 -1.652,-0.613 -0.504,-0.503 -0.61,-1.166 -0.61,-1.634 0,-0.486 0.114,-1.007 0.329,-1.507 0.241,-0.559 0.594,-1.073 1.051,-1.529 0.457,-0.456 0.974,-0.81 1.536,-1.051 0.504,-0.216 1.03,-0.33 1.521,-0.33 0.473,0 1.144,0.106 1.652,0.613 0.504,0.503 0.61,1.166 0.61,1.634 0,0.486 -0.114,1.007 -0.329,1.507 z M 16,20.831 c -1.56,0 -2.824,-1.267 -2.824,-2.829 0,-1.562 1.264,-2.829 2.824,-2.829 1.56,0 2.824,1.267 2.824,2.829 0,1.562 -1.264,2.829 -2.824,2.829 z m 10.727,7.889 c -0.508,0.506 -1.178,0.613 -1.652,0.613 -0.491,0 -1.017,-0.114 -1.521,-0.33 -0.562,-0.241 -1.078,-0.594 -1.536,-1.051 -0.458,-0.457 -0.81,-0.97 -1.051,-1.529 -0.215,-0.5 -0.329,-1.021 -0.329,-1.507 0,-0.468 0.106,-1.131 0.61,-1.634 0.508,-0.506 1.178,-0.613 1.652,-0.613 0.491,0 1.017,0.114 1.521,0.33 0.562,0.241 1.079,0.594 1.536,1.051 0.457,0.457 0.81,0.97 1.051,1.529 0.215,0.5 0.329,1.021 0.329,1.507 0,0.468 -0.106,1.131 -0.61,1.634 z"
       inkscape:connector-curvature="0"
       style="fill:#ffffff" />
  </g>
</svg>
