<?xml version="1.0" encoding="UTF-8" standalone="no"?>
<!-- Created with Inkscape (http://www.inkscape.org/) -->

<svg
   xmlns:dc="http://purl.org/dc/elements/1.1/"
   xmlns:cc="http://creativecommons.org/ns#"
   xmlns:rdf="http://www.w3.org/1999/02/22-rdf-syntax-ns#"
   xmlns:svg="http://www.w3.org/2000/svg"
   xmlns="http://www.w3.org/2000/svg"
   xmlns:sodipodi="http://sodipodi.sourceforge.net/DTD/sodipodi-0.dtd"
   xmlns:inkscape="http://www.inkscape.org/namespaces/inkscape"
   id="svg2"
   version="1.1"
   inkscape:version="0.48.4 r9939"
   width="64"
   height="64"
   sodipodi:docname="OFFICE-IMPRESS.svg">
  <metadata
     id="metadata8">
    <rdf:RDF>
      <cc:Work
         rdf:about="">
        <dc:format>image/svg+xml</dc:format>
        <dc:type
           rdf:resource="http://purl.org/dc/dcmitype/StillImage" />
        <dc:title></dc:title>
      </cc:Work>
    </rdf:RDF>
  </metadata>
  <defs
     id="defs6" />
  <sodipodi:namedview
     pagecolor="#ffffff"
     bordercolor="#666666"
     borderopacity="1"
     objecttolerance="10"
     gridtolerance="10"
     guidetolerance="10"
     inkscape:pageopacity="0"
     inkscape:pageshadow="2"
     inkscape:window-width="1316"
     inkscape:window-height="674"
     id="namedview4"
     showgrid="false"
     inkscape:zoom="3.6875"
     inkscape:cx="-15.186441"
     inkscape:cy="32"
     inkscape:window-x="44"
     inkscape:window-y="29"
     inkscape:window-maximized="1"
     inkscape:current-layer="svg2" />
  <rect
     style="fill:#000000;fill-opacity:1;stroke:#000000;stroke-width:0.53665989999999997;stroke-linecap:round;stroke-linejoin:round;stroke-miterlimit:4;stroke-opacity:1;stroke-dasharray:none"
     id="rect3005"
     width="59.081985"
     height="59.624359"
     x="2.4590092"
     y="2.1878221"
     ry="5.9392786"
     rx="5.9392786" />
  <g
     id="g31814"
     transform="matrix(1.7360775,0,0,1.4745763,4.2227599,8.1355932)"
     style="fill:#ffffff">
    <g
       id="icomoon-ignore"
       style="fill:#ffffff" />
    <path
       id="path31806"
       d="m 4,8 h 4 v 6 h 2 V 2 C 10,0.9 9.1,0 8,0 H 4 C 2.9,0 2,0.9 2,2 V 14 H 4 V 8 z M 4,2 H 8 V 6 H 4 V 2 z M 30,2 V 0 h -6 c -1.1,0 -2,0.9 -2,2 v 10 c 0,1.1 0.9,2 2,2 h 6 V 12 H 24 V 2 h 6 z M 20,5 V 2 C 20,0.9 19.1,0 18,0 h -6 v 14 h 6 c 1.1,0 2,-0.9 2,-2 V 9 C 20,7.9 19.725,7 18.625,7 19.725,7 20,6.1 20,5 z m -2,7 H 14 V 8 h 4 v 4 z M 18,6 H 14 V 2 h 4 v 4 z m 8,12 -13,14 -7,-9 2.563,-2.188 4.438,4.625 11,-9.438 z"
       inkscape:connector-curvature="0"
       style="fill:#ffffff" />
  </g>
</svg>
