<?xml version="1.0" encoding="UTF-8" standalone="no"?>
<!-- Created with Inkscape (http://www.inkscape.org/) -->

<svg
   xmlns:dc="http://purl.org/dc/elements/1.1/"
   xmlns:cc="http://creativecommons.org/ns#"
   xmlns:rdf="http://www.w3.org/1999/02/22-rdf-syntax-ns#"
   xmlns:svg="http://www.w3.org/2000/svg"
   xmlns="http://www.w3.org/2000/svg"
   xmlns:sodipodi="http://sodipodi.sourceforge.net/DTD/sodipodi-0.dtd"
   xmlns:inkscape="http://www.inkscape.org/namespaces/inkscape"
   id="svg2"
   version="1.1"
   inkscape:version="0.48.4 r9939"
   width="64"
   height="64"
   sodipodi:docname="FIREFOX.svg">
  <metadata
     id="metadata8">
    <rdf:RDF>
      <cc:Work
         rdf:about="">
        <dc:format>image/svg+xml</dc:format>
        <dc:type
           rdf:resource="http://purl.org/dc/dcmitype/StillImage" />
        <dc:title></dc:title>
      </cc:Work>
    </rdf:RDF>
  </metadata>
  <defs
     id="defs6" />
  <sodipodi:namedview
     pagecolor="#ffffff"
     bordercolor="#666666"
     borderopacity="1"
     objecttolerance="10"
     gridtolerance="10"
     guidetolerance="10"
     inkscape:pageopacity="0"
     inkscape:pageshadow="2"
     inkscape:window-width="1316"
     inkscape:window-height="674"
     id="namedview4"
     showgrid="false"
     inkscape:zoom="3.6875"
     inkscape:cx="-15.186441"
     inkscape:cy="32"
     inkscape:window-x="44"
     inkscape:window-y="29"
     inkscape:window-maximized="1"
     inkscape:current-layer="svg2" />
  <rect
     style="fill:#000000;fill-opacity:1;stroke:#000000;stroke-width:0.53665989999999997;stroke-linecap:round;stroke-linejoin:round;stroke-miterlimit:4;stroke-opacity:1;stroke-dasharray:none"
     id="rect3005"
     width="59.081985"
     height="59.624359"
     x="2.4590092"
     y="2.1878221"
     ry="5.9392786"
     rx="5.9392786" />
  <g
     id="g11404"
     transform="matrix(1.6237288,0,0,1.5,4.8033895,8.4067797)"
     style="fill:#ffffff">
    <g
       id="icomoon-ignore"
       style="fill:#ffffff" />
    <path
       id="path11396"
       d="m 26,5.385 c 2.39,0 4.534,-1.301 6,-2.285 V 21.715 C 30.534,22.699 28.39,24 26,24 c -2.39,0 -4.534,-0.708 -6,-1.692 -1.466,-0.984 -3.61,-1.692 -6,-1.692 -2.39,0 -4.534,1.216 -6,2.2 V 4.201 c 1.466,-0.984 3.61,-2.2 6,-2.2 2.39,0 4.534,0.708 6,1.692 1.466,0.984 3.61,1.692 6,1.692 z M 4,0 C 5.105,0 6,0.895 6,2 V 32 H 2 V 2 C 2,0.895 2.895,0 4,0 z"
       inkscape:connector-curvature="0"
       style="fill:#ffffff" />
  </g>
</svg>
