<?xml version="1.0" encoding="UTF-8" standalone="no"?>
<!-- Created with Inkscape (http://www.inkscape.org/) -->

<svg
   xmlns:dc="http://purl.org/dc/elements/1.1/"
   xmlns:cc="http://creativecommons.org/ns#"
   xmlns:rdf="http://www.w3.org/1999/02/22-rdf-syntax-ns#"
   xmlns:svg="http://www.w3.org/2000/svg"
   xmlns="http://www.w3.org/2000/svg"
   xmlns:sodipodi="http://sodipodi.sourceforge.net/DTD/sodipodi-0.dtd"
   xmlns:inkscape="http://www.inkscape.org/namespaces/inkscape"
   id="svg2"
   version="1.1"
   inkscape:version="0.48.4 r9939"
   width="64"
   height="64"
   sodipodi:docname="qbittorrent.svg">
  <metadata
     id="metadata8">
    <rdf:RDF>
      <cc:Work
         rdf:about="">
        <dc:format>image/svg+xml</dc:format>
        <dc:type
           rdf:resource="http://purl.org/dc/dcmitype/StillImage" />
        <dc:title />
      </cc:Work>
    </rdf:RDF>
  </metadata>
  <defs
     id="defs6" />
  <sodipodi:namedview
     pagecolor="#ffffff"
     bordercolor="#666666"
     borderopacity="1"
     objecttolerance="10"
     gridtolerance="10"
     guidetolerance="10"
     inkscape:pageopacity="0"
     inkscape:pageshadow="2"
     inkscape:window-width="1316"
     inkscape:window-height="674"
     id="namedview4"
     showgrid="false"
     inkscape:zoom="3.6875"
     inkscape:cx="-15.186441"
     inkscape:cy="32"
     inkscape:window-x="44"
     inkscape:window-y="29"
     inkscape:window-maximized="1"
     inkscape:current-layer="svg2" />
  <rect
     style="fill:#000000;fill-opacity:1;stroke:#000000;stroke-width:0.53665989999999997;stroke-linecap:round;stroke-linejoin:round;stroke-miterlimit:4;stroke-opacity:1;stroke-dasharray:none"
     id="rect3005"
     width="59.081985"
     height="59.624359"
     x="2.4590092"
     y="2.1878221"
     ry="5.9392786"
     rx="5.9392786" />
  <g
     id="g10154"
     transform="matrix(1.5,0,0,1.9065762,8.4037793,0.84105099)"
     style="fill:#ffffff">
    <g
       id="icomoon-ignore"
       style="fill:#ffffff" />
    <path
       id="path10146"
       d="M 27.844,11.252 C 27.743,7.23 24.455,4 20.411,4 18.042,4 15.934,5.109 14.572,6.835 13.808,5.848 12.613,5.211 11.269,5.211 8.962,5.211 7.093,7.082 7.093,9.39 7.093,9.591 7.108,9.789 7.136,9.982 6.785,9.919 6.425,9.884 6.056,9.884 c -3.344,0 -6.054,2.712 -6.054,6.058 0,3.346 2.71,6.058 6.054,6.058 l 3.118,0 6.828,6.828 6.828,-6.828 3.734,0 c 3.004,-0.006 5.438,-2.444 5.438,-5.451 0,-2.565 -1.771,-4.716 -4.156,-5.296 z M 16,26 l -6,-6 4,0 0,-6 4,-3.27146 0,9.27146 4,0 z"
       inkscape:connector-curvature="0"
       style="fill:#ffffff"
       sodipodi:nodetypes="cscsscsssccccscccccccccc" />
  </g>
  <text
     xml:space="preserve"
     style="font-size:22.69753647px;font-style:normal;font-variant:normal;font-weight:bold;font-stretch:normal;line-height:125%;letter-spacing:0px;word-spacing:0px;fill:#000000;fill-opacity:1;stroke:none;font-family:Sans;-inkscape-font-specification:Sans Bold"
     x="10.583017"
     y="42.441177"
     id="text2985"
     sodipodi:linespacing="125%"
     transform="scale(1.4177147,0.70536053)"><tspan
       sodipodi:role="line"
       id="tspan2987"
       x="10.583017"
       y="42.441177">q</tspan></text>
  <text
     xml:space="preserve"
     style="font-size:19.1374588px;font-style:normal;font-variant:normal;font-weight:bold;font-stretch:normal;line-height:125%;letter-spacing:0px;word-spacing:0px;fill:#000000;fill-opacity:1;stroke:none;font-family:Sans;-inkscape-font-specification:Sans Bold"
     x="38.532818"
     y="34.270817"
     id="text2989"
     sodipodi:linespacing="125%"
     transform="scale(0.93298339,1.0718304)"><tspan
       sodipodi:role="line"
       id="tspan2991"
       x="38.532818"
       y="34.270817">b</tspan></text>
</svg>
