<?xml version="1.0" encoding="UTF-8" standalone="no"?>
<!-- Created with Inkscape (http://www.inkscape.org/) -->

<svg
   xmlns:dc="http://purl.org/dc/elements/1.1/"
   xmlns:cc="http://creativecommons.org/ns#"
   xmlns:rdf="http://www.w3.org/1999/02/22-rdf-syntax-ns#"
   xmlns:svg="http://www.w3.org/2000/svg"
   xmlns="http://www.w3.org/2000/svg"
   xmlns:sodipodi="http://sodipodi.sourceforge.net/DTD/sodipodi-0.dtd"
   xmlns:inkscape="http://www.inkscape.org/namespaces/inkscape"
   id="svg2"
   version="1.1"
   inkscape:version="0.48.4 r9939"
   width="64"
   height="64"
   sodipodi:docname="base-multiple-mono-3.svg">
  <metadata
     id="metadata8">
    <rdf:RDF>
      <cc:Work
         rdf:about="">
        <dc:format>image/svg+xml</dc:format>
        <dc:type
           rdf:resource="http://purl.org/dc/dcmitype/StillImage" />
        <dc:title></dc:title>
      </cc:Work>
    </rdf:RDF>
  </metadata>
  <defs
     id="defs6" />
  <sodipodi:namedview
     pagecolor="#ffffff"
     bordercolor="#666666"
     borderopacity="1"
     objecttolerance="10"
     gridtolerance="10"
     guidetolerance="10"
     inkscape:pageopacity="0"
     inkscape:pageshadow="2"
     inkscape:window-width="1317"
     inkscape:window-height="713"
     id="namedview4"
     showgrid="false"
     inkscape:zoom="3.6875"
     inkscape:cx="-14.101695"
     inkscape:cy="32"
     inkscape:window-x="43"
     inkscape:window-y="24"
     inkscape:window-maximized="1"
     inkscape:current-layer="svg2" />
  <rect
     style="fill:#000000;fill-opacity:1;stroke:#000000;stroke-width:0.53665989999999997;stroke-linecap:round;stroke-linejoin:round;stroke-miterlimit:4;stroke-opacity:1;stroke-dasharray:none"
     id="rect3005"
     width="59.081985"
     height="59.624359"
     x="2.4590092"
     y="2.1878221"
     ry="5.9392786"
     rx="5.9392786" />
  <path
     id="path4923"
     d="M 21.417547,13.100281 32.431073,7.5762712 43.439141,13.13736 c -0.402129,0.590498 -0.804835,1.180996 -1.214291,1.767849 L 32.425471,9.9725777 c -3.263874,1.6459283 -6.528754,3.2913533 -9.79665,4.9312483 l -1.211274,-1.803545 z m 4.206343,3.209277 6.757043,-3.685019 6.765376,3.682003 -0.677255,0.94721 -3.399355,-1.719961 c -0.3642,2.984918 -0.753399,5.968831 -1.108119,8.953498 1.513123,0.774761 3.034578,1.537708 4.552154,2.306939 l 8.309388,-5.317498 -3.395905,-1.720841 c 0.198263,-0.327677 0.386901,-0.660633 0.589617,-0.9863 2.339939,1.100428 4.68591,2.1908 7.024555,3.292737 l -0.268086,6.972727 -1.26242,-0.04198 0,-3.438915 -9.428282,3.63801 0,4.571394 9.427707,3.636125 0,-3.439418 1.261845,-0.03909 c 0.09252,2.324788 0.184615,4.650077 0.266938,6.975367 L 44.01353,44.18526 c -0.193235,-0.330693 -0.394946,-0.657617 -0.584589,-0.989693 1.13398,-0.569256 2.263075,-1.145425 3.394756,-1.718075 l -8.354643,-5.35596 -4.558764,2.306939 1.159985,8.992085 3.399928,-1.719458 0.676106,0.945199 -6.715236,3.682505 -6.807758,-3.683511 0.678406,-0.945701 3.441161,1.720966 1.111424,-8.995102 c 0.01968,-0.04701 -0.04353,-0.05769 -0.0747,-0.07755 l -4.435064,-2.226371 -8.354788,5.356463 3.396769,1.75905 -0.630995,0.985797 c -2.329164,-1.095526 -4.658757,-2.18992 -6.983323,-3.292359 0.07327,-2.324159 0.145106,-4.648443 0.224699,-6.972727 l 1.29848,0.04098 0,3.443943 9.435753,-3.64153 -7.18e-4,-4.608976 -9.435035,-3.640021 0,3.441932 -1.29848,0.04097 c -0.07743,-2.312344 -0.155881,-4.625819 -0.222544,-6.938162 l 6.979012,-3.326296 0.633151,0.985294 -3.397775,1.720841 8.26715,5.317121 c 1.531655,-0.769231 3.06834,-1.531801 4.595542,-2.306562 -0.35472,-2.984667 -0.743775,-5.96858 -1.108119,-8.953498 l -3.442319,1.719458 C 26.070557,16.940908 25.849881,16.623789 25.62389,16.30956 z M 8.7676297,19.509283 c 3.6681583,-1.847412 7.3335863,-3.699725 10.9972923,-5.554175 0.414628,0.58459 0.81446,1.177979 1.213716,1.770363 l -9.842337,4.971092 -0.0011,9.900833 -2.3708266,5.03e-4 c 0.0023,-3.696331 -0.00388,-7.392788 0.0033,-11.088616 z m 35.1081213,-3.745854 1.210843,-1.807944 c 3.655085,1.849045 7.302986,3.707895 10.95922,5.553798 0.0075,3.695828 0.0013,7.392285 0.0036,11.088616 l -2.371114,-5.03e-4 -10e-4,-9.900833 -9.801535,-4.933134 z m -35.1114256,16.514963 2.3714016,0 0,9.892287 c 3.367747,1.727878 6.924131,3.506285 9.845784,4.980142 l -1.208113,1.806813 c -3.672756,-1.843892 -7.334162,-3.706638 -11.0063429,-5.552666 -0.00618,-3.708775 -0.00158,-7.417424 -0.00273,-11.126576 z m 44.9133906,0 2.371115,0 c -0.0011,3.709152 0.0045,7.418304 -0.0029,11.127078 -3.656378,1.846406 -7.304136,3.705381 -10.959364,5.554175 l -1.210843,-1.807818 c 3.26488,-1.662268 6.544413,-3.309579 9.799811,-4.981148 l 0.0021,-9.892287 z m -32.259739,17.49963 1.212568,-1.807442 9.794926,4.97147 9.800959,-4.97147 1.212711,1.807442 -11.008068,5.560962 -11.013096,-5.560962 z"
     inkscape:connector-curvature="0"
     style="fill:#ffffff;fill-opacity:1;stroke-linejoin:round" />
  <text
     xml:space="preserve"
     style="font-size:9.84054089px;font-style:normal;font-weight:normal;line-height:125%;letter-spacing:0px;word-spacing:0px;fill:#000000;fill-opacity:1;stroke:none;font-family:Sans"
     x="33.836239"
     y="28.330769"
     id="text4932"
     sodipodi:linespacing="125%"
     transform="scale(0.8054747,1.2415039)"><tspan
       sodipodi:role="line"
       id="tspan4934"
       x="33.836239"
       y="28.330769">Qz</tspan></text>
</svg>
