<?xml version="1.0" encoding="UTF-8" standalone="no"?>
<!-- Created with Inkscape (http://www.inkscape.org/) -->

<svg
   xmlns:dc="http://purl.org/dc/elements/1.1/"
   xmlns:cc="http://creativecommons.org/ns#"
   xmlns:rdf="http://www.w3.org/1999/02/22-rdf-syntax-ns#"
   xmlns:svg="http://www.w3.org/2000/svg"
   xmlns="http://www.w3.org/2000/svg"
   xmlns:xlink="http://www.w3.org/1999/xlink"
   xmlns:sodipodi="http://sodipodi.sourceforge.net/DTD/sodipodi-0.dtd"
   xmlns:inkscape="http://www.inkscape.org/namespaces/inkscape"
   id="svg2"
   version="1.1"
   inkscape:version="0.48.4 r9939"
   width="64"
   height="64"
   sodipodi:docname="rhythmbox.svg">
  <metadata
     id="metadata8">
    <rdf:RDF>
      <cc:Work
         rdf:about="">
        <dc:format>image/svg+xml</dc:format>
        <dc:type
           rdf:resource="http://purl.org/dc/dcmitype/StillImage" />
        <dc:title />
      </cc:Work>
    </rdf:RDF>
  </metadata>
  <defs
     id="defs6">
    <clipPath
       id="clipPath-651571626">
      <g
         id="g87223"
         transform="translate(0,-1004.3622)">
        <path
           id="path87225"
           fill="#1890d0"
           transform="matrix(15.333333,0,0,11.5,414.99999,878.8622)"
           d="m -24 13 c 0 1.105 -0.672 2 -1.5 2 -0.828 0 -1.5 -0.895 -1.5 -2 0 -1.105 0.672 -2 1.5 -2 0.828 0 1.5 0.895 1.5 2 z" />
      </g>
    </clipPath>
    <clipPath
       id="clipPath-643592050">
      <g
         id="g87218"
         transform="translate(0,-1004.3622)">
        <path
           id="path87220"
           fill="#1890d0"
           transform="matrix(15.333333,0,0,11.5,414.99999,878.8622)"
           d="m -24 13 c 0 1.105 -0.672 2 -1.5 2 -0.828 0 -1.5 -0.895 -1.5 -2 0 -1.105 0.672 -2 1.5 -2 0.828 0 1.5 0.895 1.5 2 z" />
      </g>
    </clipPath>
    <linearGradient
       gradientTransform="matrix(0,-1,1,0,-1.5e-6,47.999998)"
       gradientUnits="userSpaceOnUse"
       x2="47"
       x1="1"
       id="linearGradient3764">
      <stop
         id="stop87213"
         stop-opacity="1"
         stop-color="#3d3d3d" />
      <stop
         id="stop87215"
         stop-opacity="1"
         stop-color="#474747"
         offset="1" />
    </linearGradient>
    <linearGradient
       id="linearGradient4460-9">
      <stop
         offset="0"
         style="stop-color:#fda168;stop-opacity:1;"
         id="stop4454" />
      <stop
         offset="1"
         style="stop-color:#f6a370;stop-opacity:1;"
         id="stop4456" />
    </linearGradient>
    <linearGradient
       gradientTransform="matrix(1.10525,0,0,1.10525,-134.27874,-295.76183)"
       xlink:href="#linearGradient4460-9"
       id="linearGradient3853"
       y1="279.096"
       y2="268.33"
       gradientUnits="userSpaceOnUse"
       x2="0" />
    <linearGradient
       id="linearGradient4460-8">
      <stop
         id="stop7-8"
         style="stop-color:#9a773c"
         offset="0" />
      <stop
         id="stop9-81"
         style="stop-color:#bd9655"
         offset="1" />
    </linearGradient>
    <linearGradient
       y2="268.32999"
       x2="0"
       y1="279.09601"
       gradientTransform="matrix(1.10525,0,0,1.10525,-134.27874,-295.76183)"
       gradientUnits="userSpaceOnUse"
       id="linearGradient3018"
       xlink:href="#linearGradient4460-8"
       inkscape:collect="always" />
    <linearGradient
       inkscape:collect="always"
       xlink:href="#0-89"
       id="linearGradient3012"
       gradientUnits="userSpaceOnUse"
       x1="7.098"
       y1="13.146"
       x2="7.0599999"
       y2="1.05"
       gradientTransform="translate(-16.327402,-0.93584367)" />
    <linearGradient
       id="0-89">
      <stop
         id="stop7-5"
         stop-color="#00a6f7" />
      <stop
         id="stop9-1"
         stop-color="#00befa"
         offset="1" />
    </linearGradient>
    <linearGradient
       gradientUnits="userSpaceOnUse"
       y2="1.05"
       x2="7.0599999"
       y1="13.146"
       x1="7.098"
       id="1-9"
       xlink:href="#0-89" />
    <linearGradient
       inkscape:collect="always"
       xlink:href="#linearGradient4016"
       id="linearGradient3242"
       gradientUnits="userSpaceOnUse"
       x1="46.980675"
       y1="13.914126"
       x2="92.631325"
       y2="13.914126" />
    <linearGradient
       id="linearGradient4016">
      <stop
         id="stop4018"
         offset="0"
         style="stop-color:#005699;stop-opacity:1;" />
      <stop
         id="stop4020"
         offset="1"
         style="stop-color:#0061ac;stop-opacity:1;" />
    </linearGradient>
    <linearGradient
       gradientUnits="userSpaceOnUse"
       y2="13.914126"
       x2="92.631325"
       y1="13.914126"
       x1="46.980675"
       id="linearGradient4023"
       xlink:href="#linearGradient4016"
       inkscape:collect="always" />
    <linearGradient
       inkscape:collect="always"
       xlink:href="#linearGradient3988"
       id="linearGradient3246"
       gradientUnits="userSpaceOnUse"
       x1="46.980675"
       y1="13.914126"
       x2="92.631325"
       y2="13.914126" />
    <linearGradient
       id="linearGradient3988">
      <stop
         id="stop3990"
         offset="0"
         style="stop-color:#4ec5d6;stop-opacity:1;" />
      <stop
         id="stop3992"
         offset="1"
         style="stop-color:#5ecada;stop-opacity:1;" />
    </linearGradient>
    <linearGradient
       gradientUnits="userSpaceOnUse"
       y2="13.914126"
       x2="92.631325"
       y1="13.914126"
       x1="46.980675"
       id="linearGradient3994"
       xlink:href="#linearGradient3988"
       inkscape:collect="always" />
    <linearGradient
       inkscape:collect="always"
       xlink:href="#linearGradient3979"
       id="linearGradient3241"
       gradientUnits="userSpaceOnUse"
       x1="46.980675"
       y1="13.914126"
       x2="92.631325"
       y2="13.914126" />
    <linearGradient
       id="linearGradient3979">
      <stop
         id="stop3981"
         offset="0"
         style="stop-color:#00b6c0;stop-opacity:1;" />
      <stop
         id="stop3983"
         offset="1"
         style="stop-color:#00c9d4;stop-opacity:1;" />
    </linearGradient>
    <linearGradient
       gradientUnits="userSpaceOnUse"
       y2="13.914126"
       x2="92.631325"
       y1="13.914126"
       x1="46.980675"
       id="linearGradient3985"
       xlink:href="#linearGradient3979"
       inkscape:collect="always" />
    <linearGradient
       id="3-9">
      <stop
         id="stop3242" />
      <stop
         id="stop3244"
         stop-opacity="0"
         offset="1" />
    </linearGradient>
    <linearGradient
       gradientTransform="matrix(1,0,0,-1,0,1052.3622)"
       y2="1047.36"
       x2="0"
       y1="1028.36"
       gradientUnits="userSpaceOnUse"
       id="2-6"
       xlink:href="#3-9" />
    <linearGradient
       id="1-8">
      <stop
         id="stop3236"
         stop-color="#ffffff" />
      <stop
         id="stop3238"
         stop-opacity="0"
         stop-color="#ffffff"
         offset="1" />
    </linearGradient>
    <linearGradient
       xlink:href="#1-8"
       id="0-8"
       gradientUnits="userSpaceOnUse"
       y1="1028.36"
       x2="0"
       y2="1047.36"
       gradientTransform="translate(0,-1004.3622)" />
    <linearGradient
       inkscape:collect="always"
       xlink:href="#linearGradient3798"
       id="linearGradient3244"
       gradientUnits="userSpaceOnUse"
       x1="24"
       y1="47"
       x2="24"
       y2="1"
       gradientTransform="matrix(0.28222223,0,0,0.28222223,14.970031,0.21737973)" />
    <linearGradient
       id="linearGradient3798">
      <stop
         id="stop3800"
         offset="0"
         style="stop-color:#656565;stop-opacity:1;" />
      <stop
         id="stop3802"
         offset="1"
         style="stop-color:#6f6f6f;stop-opacity:1;" />
    </linearGradient>
    <linearGradient
       gradientUnits="userSpaceOnUse"
       y2="1"
       x2="24"
       y1="47"
       x1="24"
       id="linearGradient3804"
       xlink:href="#linearGradient3798"
       inkscape:collect="always" />
    <linearGradient
       id="linearGradient4460">
      <stop
         id="stop7-3"
         style="stop-color:#1d1d1d"
         offset="0" />
      <stop
         id="stop9-8"
         style="stop-color:#333"
         offset="1" />
    </linearGradient>
    <linearGradient
       y2="268.32999"
       x2="0"
       y1="279.09601"
       gradientTransform="matrix(1.10525,0,0,1.10525,-148.53723,-295.81487)"
       gradientUnits="userSpaceOnUse"
       id="linearGradient3019"
       xlink:href="#linearGradient4460"
       inkscape:collect="always" />
    <linearGradient
       y2="11"
       x2="-25.499998"
       y1="15"
       x1="-25.499998"
       gradientUnits="userSpaceOnUse"
       id="linearGradient4036"
       xlink:href="#linearGradient3944"
       inkscape:collect="always" />
    <linearGradient
       y2="11"
       x2="-25.499998"
       y1="15"
       x1="-25.499998"
       gradientUnits="userSpaceOnUse"
       id="linearGradient4031"
       xlink:href="#linearGradient3944"
       inkscape:collect="always" />
    <linearGradient
       gradientTransform="matrix(15.333333,0,0,11.5,414.99998,-125.5)"
       y2="11"
       x2="-25.499998"
       y1="15"
       x1="-25.499998"
       gradientUnits="userSpaceOnUse"
       id="linearGradient4024"
       xlink:href="#linearGradient3944"
       inkscape:collect="always" />
    <linearGradient
       y2="11"
       x2="-25.499998"
       y1="15"
       x1="-25.499998"
       gradientUnits="userSpaceOnUse"
       id="linearGradient4022"
       xlink:href="#linearGradient3944"
       inkscape:collect="always" />
    <linearGradient
       gradientTransform="matrix(15.333333,0,0,11.5,414.99998,-125.5)"
       y2="11"
       x2="-25.499998"
       y1="15"
       x1="-25.499998"
       gradientUnits="userSpaceOnUse"
       id="linearGradient4015"
       xlink:href="#linearGradient3944"
       inkscape:collect="always" />
    <linearGradient
       y2="11"
       x2="-25.499998"
       y1="15"
       x1="-25.499998"
       gradientUnits="userSpaceOnUse"
       id="linearGradient4013"
       xlink:href="#linearGradient3944"
       inkscape:collect="always" />
    <linearGradient
       y2="11"
       x2="-25.499998"
       y1="15"
       x1="-25.499998"
       gradientUnits="userSpaceOnUse"
       id="linearGradient4008"
       xlink:href="#linearGradient3944"
       inkscape:collect="always" />
    <linearGradient
       y2="11"
       x2="-25.499998"
       y1="15"
       x1="-25.499998"
       gradientUnits="userSpaceOnUse"
       id="linearGradient4001"
       xlink:href="#linearGradient3944"
       inkscape:collect="always" />
    <linearGradient
       gradientTransform="matrix(15.333333,0,0,11.5,414.99998,-125.5)"
       y2="11"
       x2="-25.499998"
       y1="15"
       x1="-25.499998"
       gradientUnits="userSpaceOnUse"
       id="linearGradient3992"
       xlink:href="#linearGradient3944"
       inkscape:collect="always" />
    <linearGradient
       y2="11"
       x2="-25.499998"
       y1="15"
       x1="-25.499998"
       gradientUnits="userSpaceOnUse"
       id="linearGradient3990"
       xlink:href="#linearGradient3944"
       inkscape:collect="always" />
    <linearGradient
       gradientUnits="userSpaceOnUse"
       y2="0.28222224"
       x2="6.7733335"
       y1="13.264444"
       x1="7.0555558"
       id="linearGradient3938"
       xlink:href="#1"
       inkscape:collect="always" />
    <linearGradient
       id="W-1">
      <stop
         id="stop307-9"
         stop-color="#c7c7c7" />
      <stop
         id="stop309-6"
         stop-color="#dedede"
         offset="1" />
    </linearGradient>
    <linearGradient
       gradientTransform="matrix(0.23630483,0,0,0.18633729,-11.350379,4.8349746)"
       y2="-24.433001"
       x2="0"
       y1="46.751999"
       gradientUnits="userSpaceOnUse"
       id="linearGradient3312-3"
       xlink:href="#W-1"
       inkscape:collect="always" />
    <linearGradient
       gradientTransform="matrix(0.23630483,0,0,0.18633729,-11.350379,4.8349746)"
       y2="-24.433"
       x2="0"
       y1="46.752"
       gradientUnits="userSpaceOnUse"
       id="linearGradient3312"
       xlink:href="#W"
       inkscape:collect="always" />
    <linearGradient
       id="W">
      <stop
         id="stop307"
         stop-color="#c7c7c7" />
      <stop
         id="stop309"
         stop-color="#dedede"
         offset="1" />
    </linearGradient>
    <linearGradient
       gradientUnits="userSpaceOnUse"
       y2="-24.433"
       x2="0"
       y1="46.752"
       id="V"
       xlink:href="#W" />
    <path
       color="#000000"
       d="m 296,26 a 10,10 0 1 1 -20,0 10,10 0 1 1 20,0 z"
       id="U" />
    <linearGradient
       y2="268.33"
       x2="0"
       y1="279.1"
       gradientTransform="matrix(1.210546,0,0,1.212299,-131.34805,-325.07347)"
       gradientUnits="userSpaceOnUse"
       id="T"
       xlink:href="#0" />
    <clipPath
       id="clipPath299">
      <rect
         id="rect301"
         color="#bebebe"
         fill="url(#P)"
         width="42"
         x="307"
         y="223"
         rx="9"
         height="42"
         transform="rotate(90)" />
    </clipPath>
    <clipPath
       id="clipPath295">
      <rect
         id="rect297"
         color="#bebebe"
         fill="#986767"
         width="240"
         x="24"
         y="36"
         rx="50"
         height="240" />
    </clipPath>
    <clipPath
       id="clipPath291">
      <rect
         id="rect293"
         color="#bebebe"
         fill="#6d6d6d"
         opacity="0.2"
         width="16"
         x="432"
         y="116"
         rx="2"
         height="16" />
    </clipPath>
    <clipPath
       id="clipPath287">
      <path
         id="path289"
         d="m 98.03125,23.191212 c -41.492132,1.05238 -74.84375,35.06824 -74.84375,76.812498 0,42.40687 34.405632,76.8125 76.8125,76.8125 42.40687,0 76.8125,-34.40563 76.8125,-76.8125 0,-42.406866 -34.40563,-76.812498 -76.8125,-76.812498 -0.662607,0 -1.310145,-0.0167 -1.96875,0 z M 100,50.659962 c 27.24464,0 49.34375,22.099114 49.34375,49.343748 -1e-5,27.24464 -22.09911,49.34375 -49.34375,49.34375 -27.244636,-1e-5 -49.34375,-22.09911 -49.34375,-49.34375 0,-27.244634 22.099114,-49.343748 49.34375,-49.343748 z" />
    </clipPath>
    <clipPath
       id="clipPath283">
      <path
         id="path285"
         d="m 145,215 c 33.13708,0 60,-26.86292 60,-60 0,-33.13708 -26.86292,-60 -60,-60 -33.13708,0 -60,26.86292 -60,60 0,12.50698 3.8285,24.10633 10.375,33.71875 L 89,211 111.28125,204.625 C 120.89367,211.1715 132.49302,215 145,215 z" />
    </clipPath>
    <clipPath
       id="clipPath279">
      <rect
         id="rect281"
         color="#bebebe"
         width="16"
         x="432"
         y="116"
         rx="3"
         height="16" />
    </clipPath>
    <clipPath
       id="clipPath275">
      <path
         id="path277"
         d="m 152,204 a 8,8 0 1 1 -16,0 8,8 0 1 1 16,0 z" />
    </clipPath>
    <clipPath
       id="clipPath271">
      <path
         id="path273"
         d="m 144,70 c -49.705627,0 -90,40.29437 -90,90 0,49.70563 40.294373,90 90,90 49.70563,0 90,-40.29437 90,-90 0,-49.70563 -40.29437,-90 -90,-90 z m 0,32.1875 c 32.03251,0 58,25.96748 58,58 0,32.03252 -25.96749,58 -58,58 -32.03251,0 -58,-25.96748 -58,-58 0,-32.03252 25.96749,-58 58,-58 z" />
    </clipPath>
    <clipPath
       id="clipPath267">
      <rect
         id="rect269"
         color="#bebebe"
         fill="#6d6d6d"
         opacity="0.2"
         width="22"
         x="433"
         y="77"
         rx="3"
         height="22" />
    </clipPath>
    <clipPath
       id="clipPath263">
      <rect
         id="rect265"
         color="#bebebe"
         fill="#6d6d6d"
         opacity="0.2"
         width="30"
         x="433"
         y="29"
         rx="4"
         height="30" />
    </clipPath>
    <clipPath
       id="clipPath259">
      <rect
         id="rect261"
         color="#bebebe"
         fill="url(#R)"
         width="90"
         x="307"
         y="31"
         rx="18.75"
         height="90" />
    </clipPath>
    <clipPath
       id="clipPath255">
      <rect
         id="rect257"
         color="#bebebe"
         fill="url(#S)"
         width="60"
         x="306"
         y="142"
         rx="12.5"
         height="60"
         transform="matrix(0 -1 1 0 0 0)" />
    </clipPath>
    <clipPath
       id="clipPath251">
      <rect
         id="rect253"
         color="#bebebe"
         width="30"
         x="433"
         y="29"
         rx="6"
         height="30" />
    </clipPath>
    <clipPath
       id="clipPath247">
      <rect
         id="rect249"
         color="#bebebe"
         width="22"
         x="433"
         y="77"
         rx="5"
         height="22" />
    </clipPath>
    <clipPath
       id="clipPath243">
      <rect
         id="rect245"
         color="#bebebe"
         width="22"
         x="433"
         y="77"
         rx="4"
         height="22" />
    </clipPath>
    <clipPath
       id="clipPath239">
      <rect
         id="rect241"
         color="#bebebe"
         width="20"
         x="434"
         y="78"
         rx="4"
         height="20" />
    </clipPath>
    <linearGradient
       gradientTransform="matrix(.25 0 0 .25 299.99999 131.99999)"
       id="S"
       xlink:href="#Q"
       y1="230"
       y2="90"
       x2="0"
       gradientUnits="userSpaceOnUse" />
    <linearGradient
       gradientTransform="matrix(.375 0 0 .375 298 16)"
       id="R"
       xlink:href="#Q"
       y1="230"
       y2="90"
       x2="0"
       gradientUnits="userSpaceOnUse" />
    <linearGradient
       id="Q">
      <stop
         id="stop233"
         stop-color="#151515" />
      <stop
         id="stop235"
         stop-color="#222"
         offset="1" />
    </linearGradient>
    <linearGradient
       gradientTransform="matrix(.175 0 0 .175 302.79999 215.99997)"
       id="P"
       xlink:href="#Q"
       y1="280"
       y2="40"
       x2="0"
       gradientUnits="userSpaceOnUse" />
    <clipPath
       id="clipPath227">
      <path
         id="path229"
         d="m 296,26 a 10,10 0 1 1 -20,0 10,10 0 1 1 20,0 z" />
    </clipPath>
    <clipPath
       id="clipPath223">
      <use
         id="use225"
         xlink:href="#O"
         transform="matrix(8,0,0,8,-2141.5757,-54.424243)" />
    </clipPath>
    <clipPath
       id="clipPath219">
      <use
         id="use221"
         xlink:href="#O" />
    </clipPath>
    <use
       xlink:href="#U"
       fill="none"
       id="O" />
    <clipPath
       id="clipPath214">
      <use
         id="use216"
         xlink:href="#N"
         transform="matrix(8,0,0,8,-2141.5757,-54.424243)" />
    </clipPath>
    <clipPath
       id="clipPath210">
      <use
         id="use212"
         xlink:href="#N" />
    </clipPath>
    <use
       xlink:href="#U"
       fill="none"
       id="N" />
    <clipPath
       id="clipPath205">
      <use
         id="use207"
         xlink:href="#M"
         transform="matrix(8,0,0,8,-2141.5757,-54.424243)" />
    </clipPath>
    <clipPath
       id="clipPath201">
      <use
         id="use203"
         xlink:href="#M" />
    </clipPath>
    <use
       xlink:href="#U"
       fill="none"
       id="M" />
    <clipPath
       id="clipPath196">
      <use
         id="use198"
         xlink:href="#L"
         transform="matrix(8,0,0,8,-2141.5757,-54.424243)" />
    </clipPath>
    <clipPath
       id="clipPath192">
      <use
         id="use194"
         xlink:href="#L" />
    </clipPath>
    <use
       xlink:href="#U"
       fill="none"
       id="L" />
    <clipPath
       id="clipPath187">
      <use
         id="use189"
         xlink:href="#K"
         transform="matrix(8,0,0,8,-2141.5757,-54.424243)" />
    </clipPath>
    <clipPath
       id="clipPath183">
      <use
         id="use185"
         xlink:href="#K" />
    </clipPath>
    <use
       xlink:href="#U"
       fill="none"
       id="K" />
    <clipPath
       id="clipPath178">
      <use
         id="use180"
         xlink:href="#J"
         transform="matrix(8,0,0,8,-2141.5757,-54.424243)" />
    </clipPath>
    <clipPath
       id="clipPath174">
      <use
         id="use176"
         xlink:href="#J" />
    </clipPath>
    <use
       xlink:href="#U"
       fill="none"
       id="J" />
    <clipPath
       id="clipPath169">
      <use
         id="use171"
         xlink:href="#I"
         transform="matrix(8,0,0,8,-2141.5757,-54.424243)" />
    </clipPath>
    <clipPath
       id="clipPath165">
      <rect
         id="rect167"
         rx="7"
         color="#bebebe"
         fill="url(#A)"
         y="53"
         x="417"
         height="30"
         width="30" />
    </clipPath>
    <clipPath
       id="clipPath161">
      <rect
         id="rect163"
         rx="5"
         color="#bebebe"
         fill="url(#9)"
         width="22"
         height="22"
         x="417"
         y="101" />
    </clipPath>
    <clipPath
       id="clipPath157">
      <rect
         id="rect159"
         rx="18"
         color="#bebebe"
         fill="url(#8)"
         y="32"
         x="292"
         height="88"
         width="88" />
    </clipPath>
    <clipPath
       id="clipPath153">
      <rect
         id="rect155"
         rx="12.5"
         color="#bebebe"
         fill="url(#7)"
         width="60"
         height="60"
         x="290"
         y="142" />
    </clipPath>
    <clipPath
       id="clipPath149">
      <rect
         id="rect151"
         rx="50"
         color="#bebebe"
         fill="url(#6)"
         width="220"
         height="220"
         x="34"
         y="46" />
    </clipPath>
    <clipPath
       id="clipPath145">
      <rect
         id="rect147"
         rx="3"
         color="#bebebe"
         fill="url(#5)"
         transform="matrix(0,1,-1,0,0,0)"
         y="212"
         x="304"
         height="16"
         width="16" />
    </clipPath>
    <clipPath
       id="clipPath141">
      <rect
         id="rect143"
         rx="6"
         color="#bebebe"
         fill="url(#4)"
         y="37"
         x="433"
         height="30"
         width="30" />
    </clipPath>
    <clipPath
       id="clipPath137">
      <rect
         id="rect139"
         rx="4"
         color="#bebebe"
         fill="url(#3)"
         width="22"
         height="22"
         x="433"
         y="85" />
    </clipPath>
    <clipPath
       id="clipPath133">
      <rect
         id="rect135"
         rx="9"
         color="#bebebe"
         fill="url(#2)"
         transform="matrix(0,1,-1,0,0,0)"
         width="42"
         height="42"
         x="307"
         y="223" />
    </clipPath>
    <clipPath
       id="clipPath129">
      <use
         id="use131"
         xlink:href="#I" />
    </clipPath>
    <use
       xlink:href="#U"
       fill="none"
       id="I" />
    <clipPath
       id="clipPath124">
      <use
         id="use126"
         xlink:href="#H"
         transform="matrix(8,0,0,8,-2141.5757,-54.424243)" />
    </clipPath>
    <clipPath
       id="clipPath120">
      <use
         id="use122"
         xlink:href="#H" />
    </clipPath>
    <use
       xlink:href="#U"
       fill="none"
       id="H" />
    <clipPath
       id="clipPath115">
      <use
         id="use117"
         xlink:href="#G"
         transform="matrix(8,0,0,8,-2141.5757,-54.424243)" />
    </clipPath>
    <clipPath
       id="clipPath111">
      <use
         id="use113"
         xlink:href="#G" />
    </clipPath>
    <use
       xlink:href="#U"
       fill="none"
       id="G" />
    <clipPath
       id="clipPath106">
      <use
         id="use108"
         xlink:href="#F"
         transform="matrix(8,0,0,8,-2141.5757,-54.424243)" />
    </clipPath>
    <clipPath
       id="clipPath102">
      <use
         id="use104"
         xlink:href="#F" />
    </clipPath>
    <use
       xlink:href="#U"
       fill="none"
       id="F" />
    <clipPath
       id="clipPath97">
      <use
         id="use99"
         xlink:href="#E"
         transform="matrix(8,0,0,8,-2141.5757,-54.424243)" />
    </clipPath>
    <clipPath
       id="clipPath93">
      <use
         id="use95"
         xlink:href="#E" />
    </clipPath>
    <use
       xlink:href="#U"
       fill="none"
       id="E" />
    <clipPath
       id="clipPath88">
      <use
         id="use90"
         xlink:href="#D"
         transform="matrix(8,0,0,8,-2141.5757,-54.424243)" />
    </clipPath>
    <clipPath
       id="clipPath84">
      <use
         id="use86"
         xlink:href="#D" />
    </clipPath>
    <use
       xlink:href="#U"
       fill="none"
       id="D" />
    <clipPath
       id="clipPath79">
      <use
         id="use81"
         xlink:href="#C"
         transform="matrix(8,0,0,8,-2141.5757,-54.424243)" />
    </clipPath>
    <clipPath
       id="clipPath75">
      <use
         id="use77"
         xlink:href="#C" />
    </clipPath>
    <use
       xlink:href="#U"
       fill="none"
       id="C" />
    <clipPath
       id="clipPath70">
      <use
         id="use72"
         xlink:href="#B" />
    </clipPath>
    <clipPath
       id="clipPath66">
      <use
         id="use68"
         transform="matrix(8,0,0,8,-2141.5757,-54.424243)"
         xlink:href="#B" />
    </clipPath>
    <use
       xlink:href="#U"
       fill="#ffffff"
       opacity="0.2"
       id="B" />
    <linearGradient
       y2="31.619"
       x2="0"
       y1="299.81"
       gradientTransform="matrix(0.11931818,0,0,0.11931818,414.13636,48.22727)"
       gradientUnits="userSpaceOnUse"
       id="A"
       xlink:href="#1" />
    <clipPath
       id="clipPath60">
      <rect
         id="rect62"
         rx="7"
         color="#bebebe"
         fill="url(#A)"
         y="53"
         x="417"
         height="30"
         width="30" />
    </clipPath>
    <linearGradient
       y2="28.571"
       x2="0"
       y1="302.86"
       gradientTransform="matrix(0.0875,0,0,0.0875,414.9,97.5)"
       gradientUnits="userSpaceOnUse"
       id="9"
       xlink:href="#1" />
    <clipPath
       id="clipPath55">
      <rect
         id="rect57"
         rx="5"
         color="#bebebe"
         fill="url(#9)"
         width="22"
         height="22"
         x="417"
         y="101" />
    </clipPath>
    <linearGradient
       y2="28"
       x2="0"
       y1="124"
       gradientUnits="userSpaceOnUse"
       id="8"
       xlink:href="#1" />
    <clipPath
       id="clipPath50">
      <rect
         id="rect52"
         rx="18"
         color="#bebebe"
         fill="url(#8)"
         y="32"
         x="292"
         height="88"
         width="88" />
    </clipPath>
    <linearGradient
       y2="140"
       x2="0"
       y1="204"
       gradientUnits="userSpaceOnUse"
       id="7"
       xlink:href="#1" />
    <clipPath
       id="clipPath45">
      <rect
         id="rect47"
         rx="12.5"
         color="#bebebe"
         fill="url(#7)"
         width="60"
         height="60"
         x="290"
         y="142" />
    </clipPath>
    <linearGradient
       y2="40"
       x2="0"
       y1="280"
       gradientTransform="translate(0,-4)"
       gradientUnits="userSpaceOnUse"
       id="6"
       xlink:href="#1" />
    <clipPath
       id="clipPath40">
      <rect
         id="rect42"
         rx="50"
         color="#bebebe"
         fill="url(#6)"
         width="220"
         height="220"
         x="34"
         y="46" />
    </clipPath>
    <linearGradient
       y2="40"
       x2="0"
       y1="280"
       gradientTransform="matrix(0.06666667,0,0,0.06666667,302.4,209.33333)"
       gradientUnits="userSpaceOnUse"
       id="5"
       xlink:href="#1" />
    <clipPath
       id="clipPath35">
      <rect
         id="rect37"
         rx="3"
         color="#bebebe"
         fill="url(#5)"
         transform="matrix(0,1,-1,0,0,0)"
         y="212"
         x="304"
         height="16"
         width="16" />
    </clipPath>
    <linearGradient
       y2="40"
       x2="0"
       y1="291.43"
       gradientTransform="matrix(0.11931818,0,0,0.11931818,430.13636,32.227267)"
       gradientUnits="userSpaceOnUse"
       id="4"
       xlink:href="#1" />
    <clipPath
       id="clipPath30">
      <rect
         id="rect32"
         rx="6"
         color="#bebebe"
         fill="url(#4)"
         y="37"
         x="433"
         height="30"
         width="30" />
    </clipPath>
    <linearGradient
       y2="40"
       x2="0"
       y1="291.43"
       gradientTransform="matrix(0.0875,0,0,0.0875,430.9,81.499996)"
       gradientUnits="userSpaceOnUse"
       id="3"
       xlink:href="#1" />
    <clipPath
       id="clipPath25">
      <rect
         id="rect27"
         rx="4"
         color="#bebebe"
         fill="url(#3)"
         width="22"
         height="22"
         x="433"
         y="85" />
    </clipPath>
    <linearGradient
       y2="40"
       x2="0"
       y1="280"
       gradientTransform="matrix(0.175,0,0,0.175,302.79999,215.99997)"
       gradientUnits="userSpaceOnUse"
       id="2"
       xlink:href="#1" />
    <clipPath
       id="clipPath20">
      <rect
         id="rect22"
         rx="9"
         color="#bebebe"
         fill="url(#2)"
         transform="matrix(0,1,-1,0,0,0)"
         width="42"
         height="42"
         x="307"
         y="223" />
    </clipPath>
    <linearGradient
       id="1">
      <stop
         style="stop-color:#f96963;stop-opacity:1;"
         offset="0"
         id="stop16"
         stop-color="#620000" />
      <stop
         style="stop-color:#f96963;stop-opacity:1;"
         id="stop18"
         stop-color="#dd0f0f"
         offset="1" />
    </linearGradient>
    <clipPath
       id="clipPath11">
      <path
         id="path13"
         d="m 489.217,197.275 c -2.603,0 -3.953,-1.367 -3.953,-3.971 l 0,0 0,-1.034 c 0,-2.604 1.35,-3.971 3.953,-3.971 l 0,0 1.035,0 c 2.62,0 3.97,1.367 3.97,3.971 l 0,0 0,1.034 c 0,2.604 -1.35,3.971 -3.97,3.971 l 0,0 -1.035,0 z" />
    </clipPath>
    <linearGradient
       id="0">
      <stop
         id="stop7"
         stop-color="#198ba6" />
      <stop
         id="stop9"
         stop-color="#42c9e7"
         offset="1" />
    </linearGradient>
    <linearGradient
       id="linearGradient3944">
      <stop
         id="stop3946"
         offset="0"
         style="stop-color:#333333;stop-opacity:1;" />
      <stop
         id="stop3948"
         offset="1"
         style="stop-color:#3d3d3d;stop-opacity:1;" />
    </linearGradient>
    <linearGradient
       id="linearGradient4006">
      <stop
         id="stop4008"
         offset="0"
         style="stop-color:#d70909;stop-opacity:1;" />
      <stop
         id="stop4010"
         offset="1"
         style="stop-color:#ea0a0a;stop-opacity:1;" />
    </linearGradient>
    <linearGradient
       id="linearGradient4011">
      <stop
         id="stop4013"
         offset="0"
         style="stop-color:#4f4f4f;stop-opacity:1;" />
      <stop
         id="stop4015"
         offset="1"
         style="stop-color:#595959;stop-opacity:1;" />
    </linearGradient>
    <linearGradient
       id="linearGradient4026">
      <stop
         id="stop4028"
         offset="0"
         style="stop-color:#666666;stop-opacity:1;" />
      <stop
         id="stop4030"
         offset="1"
         style="stop-color:#707070;stop-opacity:1;" />
    </linearGradient>
    <linearGradient
       id="linearGradient4027">
      <stop
         id="stop4029"
         offset="0"
         style="stop-color:#fe876a;stop-opacity:1;" />
      <stop
         id="stop4031"
         offset="1"
         style="stop-color:#ff9278;stop-opacity:1;" />
    </linearGradient>
  </defs>
  <sodipodi:namedview
     pagecolor="#ffffff"
     bordercolor="#666666"
     borderopacity="1"
     objecttolerance="10"
     gridtolerance="10"
     guidetolerance="10"
     inkscape:pageopacity="0"
     inkscape:pageshadow="2"
     inkscape:window-width="1317"
     inkscape:window-height="717"
     id="namedview4"
     showgrid="false"
     inkscape:zoom="3.6875"
     inkscape:cx="-19.389831"
     inkscape:cy="42.847458"
     inkscape:window-x="43"
     inkscape:window-y="24"
     inkscape:window-maximized="1"
     inkscape:current-layer="svg2" />
  <rect
     style="fill:#000000;fill-opacity:1;stroke:#000000;stroke-width:0.53665989999999997;stroke-linecap:round;stroke-linejoin:round;stroke-miterlimit:4;stroke-opacity:1;stroke-dasharray:none"
     id="rect3005"
     width="59.081985"
     height="59.624359"
     x="2.4590092"
     y="2.1878221"
     ry="5.9392786"
     rx="5.9392786" />
  <g
     id="g87239"
     transform="translate(-96.499001,-11.483051)" />
  <rect
     style="opacity:0.1;fill:#000000;fill-opacity:1;stroke:none"
     id="rect4053"
     width="30.041267"
     height="39.318268"
     x="18.204498"
     y="12.961396"
     rx="2.6574805"
     ry="2.6574802" />
  <rect
     ry="3.2073565"
     rx="2.6574805"
     y="7.6525464"
     x="16.838987"
     height="47.453861"
     width="30.041267"
     id="rect3238"
     style="fill:#ffffff;fill-opacity:1;stroke:none" />
  <rect
     style="fill:#000000;fill-opacity:1;stroke:none"
     id="rect4027"
     width="24.579218"
     height="40.153267"
     x="19.570011"
     y="11.302843"
     rx="2.6574805"
     ry="3.2073565" />
  <g
     id="g3266"
     transform="matrix(1.3376147,0,0,1,-10.349495,0)">
    <path
       transform="matrix(6.8275606,0,0,9.1257421,86.480103,-107.3318)"
       d="m -7,16 c 0,0.552285 -0.4477153,1 -1,1 -0.5522847,0 -1,-0.447715 -1,-1 0,-0.552285 0.4477153,-1 1,-1 0.5522847,0 1,0.447715 1,1 z"
       sodipodi:ry="1"
       sodipodi:rx="1"
       sodipodi:cy="16"
       sodipodi:cx="-8"
       id="path4039"
       style="fill:#ffffff;fill-opacity:1;stroke:none"
       sodipodi:type="arc" />
    <path
       sodipodi:type="arc"
       style="fill:#ffffff;fill-opacity:1;stroke:none"
       id="path4041"
       sodipodi:cx="-8"
       sodipodi:cy="16"
       sodipodi:rx="1"
       sodipodi:ry="1"
       d="m -7,16 c 0,0.552285 -0.4477153,1 -1,1 -0.5522847,0 -1,-0.447715 -1,-1 0,-0.552285 0.4477153,-1 1,-1 0.5522847,0 1,0.447715 1,1 z"
       transform="matrix(5.4620486,0,0,7.3005938,75.55601,-78.12943)" />
    <path
       transform="matrix(2.7310243,0,0,3.6502969,53.707814,-19.724683)"
       d="m -7,16 c 0,0.552285 -0.4477153,1 -1,1 -0.5522847,0 -1,-0.447715 -1,-1 0,-0.552285 0.4477153,-1 1,-1 0.5522847,0 1,0.447715 1,1 z"
       sodipodi:ry="1"
       sodipodi:rx="1"
       sodipodi:cy="16"
       sodipodi:cx="-8"
       id="path4043"
       style="fill:#000000;fill-opacity:1;stroke:none"
       sodipodi:type="arc" />
    <path
       sodipodi:type="arc"
       style="fill:#f0f0f0;fill-opacity:1;stroke:none"
       id="path4045"
       sodipodi:cx="-8"
       sodipodi:cy="16"
       sodipodi:rx="1"
       sodipodi:ry="1"
       d="m -7,16 c 0,0.552285 -0.4477153,1 -1,1 -0.5522847,0 -1,-0.447715 -1,-1 0,-0.552285 0.4477153,-1 1,-1 0.5522847,0 1,0.447715 1,1 z"
       transform="matrix(1.3655122,0,0,1.8251486,42.783717,9.4776931)" />
  </g>
  <g
     id="g3272"
     transform="matrix(1.3309948,0,0,1,-10.274182,-0.81355932)">
    <path
       sodipodi:type="arc"
       style="fill:#ffffff;fill-opacity:1;stroke:none"
       id="path4047"
       sodipodi:cx="-8"
       sodipodi:cy="16"
       sodipodi:rx="1"
       sodipodi:ry="1"
       d="m -7,16 c 0,0.552285 -0.4477153,1 -1,1 -0.5522847,0 -1,-0.447715 -1,-1 0,-0.552285 0.4477153,-1 1,-1 0.5522847,0 1,0.447715 1,1 z"
       transform="matrix(4.0965365,0,0,5.4754455,64.631912,-67.178542)" />
    <path
       sodipodi:type="arc"
       style="fill:#ffffff;fill-opacity:1;stroke:none"
       id="path4049"
       sodipodi:cx="-8"
       sodipodi:cy="16"
       sodipodi:rx="1"
       sodipodi:ry="1"
       d="m -7,16 c 0,0.552285 -0.4477153,1 -1,1 -0.5522847,0 -1,-0.447715 -1,-1 0,-0.552285 0.4477153,-1 1,-1 0.5522847,0 1,0.447715 1,1 z"
       transform="matrix(2.7310243,0,0,3.6502969,53.707814,-37.976169)" />
    <path
       transform="matrix(1.3655122,0,0,1.8251486,43.054902,-8.7737934)"
       d="m -7,16 c 0,0.552285 -0.4477153,1 -1,1 -0.5522847,0 -1,-0.447715 -1,-1 0,-0.552285 0.4477153,-1 1,-1 0.5522847,0 1,0.447715 1,1 z"
       sodipodi:ry="1"
       sodipodi:rx="1"
       sodipodi:cy="16"
       sodipodi:cx="-8"
       id="path4051"
       style="fill:#000000;fill-opacity:1;stroke:none"
       sodipodi:type="arc" />
  </g>
</svg>
