<?xml version="1.0" encoding="UTF-8" standalone="no"?>
<!-- Created with Inkscape (http://www.inkscape.org/) -->

<svg
   xmlns:dc="http://purl.org/dc/elements/1.1/"
   xmlns:cc="http://creativecommons.org/ns#"
   xmlns:rdf="http://www.w3.org/1999/02/22-rdf-syntax-ns#"
   xmlns:svg="http://www.w3.org/2000/svg"
   xmlns="http://www.w3.org/2000/svg"
   xmlns:sodipodi="http://sodipodi.sourceforge.net/DTD/sodipodi-0.dtd"
   xmlns:inkscape="http://www.inkscape.org/namespaces/inkscape"
   id="svg2"
   version="1.1"
   inkscape:version="0.48.4 r9939"
   width="64"
   height="64"
   sodipodi:docname="midori.svg">
  <metadata
     id="metadata8">
    <rdf:RDF>
      <cc:Work
         rdf:about="">
        <dc:format>image/svg+xml</dc:format>
        <dc:type
           rdf:resource="http://purl.org/dc/dcmitype/StillImage" />
        <dc:title />
      </cc:Work>
    </rdf:RDF>
  </metadata>
  <defs
     id="defs6" />
  <sodipodi:namedview
     pagecolor="#ffffff"
     bordercolor="#666666"
     borderopacity="1"
     objecttolerance="10"
     gridtolerance="10"
     guidetolerance="10"
     inkscape:pageopacity="0"
     inkscape:pageshadow="2"
     inkscape:window-width="1318"
     inkscape:window-height="669"
     id="namedview4"
     showgrid="false"
     inkscape:zoom="3.6875"
     inkscape:cx="-15.186441"
     inkscape:cy="32"
     inkscape:window-x="42"
     inkscape:window-y="29"
     inkscape:window-maximized="1"
     inkscape:current-layer="svg2" />
  <rect
     style="fill:#000000;fill-opacity:1;stroke:#000000;stroke-width:0.53665989999999997;stroke-linecap:round;stroke-linejoin:round;stroke-miterlimit:4;stroke-opacity:1;stroke-dasharray:none"
     id="rect3005"
     width="59.081985"
     height="59.624359"
     x="2.4590092"
     y="2.1878221"
     ry="5.9392786"
     rx="5.9392786" />
  <g
     id="g3202"
     transform="matrix(1.578531,0,0,1.5423728,7.8266704,7.3220339)"
     style="fill:#ffffff">
    <g
       id="icomoon-ignore"
       style="fill:#ffffff" />
    <path
       id="path3194"
       d="M 16,2 C 15.248,2 14.509,2.056 13.787,2.163 13.778,2.139 13.767,2.115 13.756,2.091 14.157,1.778 14.367,1.346 14.276,0.918 14.159,0.369 13.576,0 12.825,0 c -0.162,0 -0.327,0.018 -0.49,0.052 -0.943,0.2 -1.567,0.894 -1.421,1.58 0.089,0.417 0.447,0.729 0.943,0.856 -10e-4,0.03 -10e-4,0.061 0.001,0.092 C 5.589,4.378 1.001,10.153 1.001,17 c 0,8.284 6.716,15 15,15 8.284,0 15,-6.716 15,-15 0,-8.284 -6.716,-15 -15,-15 z M 11.403,1.528 C 11.318,1.13 11.793,0.678 12.439,0.541 12.568,0.514 12.698,0.5 12.825,0.5 c 0.501,0 0.897,0.215 0.962,0.522 0.05,0.235 -0.096,0.488 -0.356,0.684 C 13.211,1.551 12.93,1.483 12.647,1.544 12.364,1.604 12.136,1.779 11.998,2.008 11.68,1.931 11.451,1.755 11.403,1.528 z m 12.64,23.515 c -1.374,1.374 -3.038,2.352 -4.853,2.88 l -1.325,-2.149 -0.336,2.499 C 17.026,28.34 16.516,28.375 16,28.375 12.962,28.375 10.105,27.192 7.957,25.043 6.583,23.669 5.605,22.005 5.077,20.19 L 7.226,18.865 4.727,18.529 C 4.66,18.026 4.625,17.516 4.625,17 c 0,-3.038 1.183,-5.895 3.332,-8.043 1.374,-1.374 3.038,-2.352 4.853,-2.88 l 1.325,2.149 0.336,-2.499 C 14.974,5.66 15.484,5.625 16,5.625 c 3.038,0 5.895,1.183 8.043,3.332 1.374,1.374 2.352,3.038 2.88,4.853 l -2.149,1.325 2.499,0.336 c 0.067,0.503 0.102,1.013 0.102,1.529 0,3.038 -1.183,5.895 -3.332,8.043 z M 23.778,9.222 17.622,13.9 C 17.164,13.661 16.657,13.523 16.14,13.502 l -1.596,-3.349 -0.096,3.708 c -0.415,0.204 -0.784,0.489 -1.09,0.842 l -1.972,-0.699 1.44,1.517 c -0.198,0.422 -0.308,0.876 -0.326,1.338 l -3.349,1.596 3.711,0.096 c 0.012,0.024 0.024,0.048 0.037,0.071 L 8.221,24.778 14.377,20.1 c 0.458,0.239 0.965,0.377 1.482,0.398 l 1.596,3.349 0.096,-3.708 c 0.415,-0.204 0.785,-0.489 1.09,-0.842 l 1.972,0.699 -1.44,-1.517 c 0.198,-0.422 0.308,-0.876 0.326,-1.338 l 3.349,-1.596 -3.71,-0.096 c -0.012,-0.024 -0.024,-0.048 -0.037,-0.071 l 4.678,-6.156 z m -7.775,4.67 v 0 z m -0.627,0.174 C 15.586,14.021 15.796,14 16.003,14 c 0.13,0 0.258,0.008 0.384,0.025 l 0.003,10e-4 0,-10e-4 c 0.273,0.036 0.537,0.109 0.785,0.216 l -2.236,1.699 -1.699,2.236 c -0.074,-0.175 -0.133,-0.359 -0.174,-0.552 -0.345,-1.621 0.69,-3.214 2.311,-3.558 z m 2.19,5.493 v 0 0 c -0.283,0.173 -0.599,0.303 -0.942,0.376 -0.21,0.045 -0.42,0.066 -0.627,0.066 -0.13,0 -0.258,-0.009 -0.385,-0.025 l -0.002,0 C 15.337,19.94 15.073,19.867 14.825,19.761 l 2.236,-1.699 1.699,-2.236 c 0.074,0.175 0.133,0.359 0.174,0.552 0.272,1.278 -0.314,2.538 -1.368,3.183 z"
       inkscape:connector-curvature="0"
       style="fill:#ffffff" />
  </g>
</svg>
