<?xml version="1.0" encoding="UTF-8" standalone="no"?>
<!-- Created with Inkscape (http://www.inkscape.org/) -->

<svg
   xmlns:dc="http://purl.org/dc/elements/1.1/"
   xmlns:cc="http://creativecommons.org/ns#"
   xmlns:rdf="http://www.w3.org/1999/02/22-rdf-syntax-ns#"
   xmlns:svg="http://www.w3.org/2000/svg"
   xmlns="http://www.w3.org/2000/svg"
   xmlns:sodipodi="http://sodipodi.sourceforge.net/DTD/sodipodi-0.dtd"
   xmlns:inkscape="http://www.inkscape.org/namespaces/inkscape"
   id="svg2"
   version="1.1"
   inkscape:version="0.48.4 r9939"
   width="64"
   height="64"
   sodipodi:docname="base.svg">
  <metadata
     id="metadata8">
    <rdf:RDF>
      <cc:Work
         rdf:about="">
        <dc:format>image/svg+xml</dc:format>
        <dc:type
           rdf:resource="http://purl.org/dc/dcmitype/StillImage" />
        <dc:title></dc:title>
      </cc:Work>
    </rdf:RDF>
  </metadata>
  <defs
     id="defs6" />
  <sodipodi:namedview
     pagecolor="#ffffff"
     bordercolor="#666666"
     borderopacity="1"
     objecttolerance="10"
     gridtolerance="10"
     guidetolerance="10"
     inkscape:pageopacity="0"
     inkscape:pageshadow="2"
     inkscape:window-width="1360"
     inkscape:window-height="717"
     id="namedview4"
     showgrid="false"
     inkscape:zoom="3.6875"
     inkscape:cx="-14.644068"
     inkscape:cy="32"
     inkscape:window-x="0"
     inkscape:window-y="24"
     inkscape:window-maximized="1"
     inkscape:current-layer="svg2" />
  <rect
     style="fill:#000000;fill-opacity:1;stroke:#000000;stroke-width:0.53665989999999997;stroke-linecap:round;stroke-linejoin:round;stroke-miterlimit:4;stroke-opacity:1;stroke-dasharray:none"
     id="rect3005"
     width="59.081985"
     height="59.624359"
     x="2.4590092"
     y="2.1878221"
     ry="5.9392786"
     rx="5.9392786" />
  <g
     id="g3157"
     transform="matrix(1.2627139,0,0,1.2457678,13.019598,10.575773)"
     style="fill:#ffffff">
    <g
       id="icomoon-ignore"
       style="fill:#ffffff" />
    <path
       id="path3149"
       d="M 31.317,9.82 28.157,6.661 C 27.382,5.886 26.114,4.618 25.339,3.843 L 22.179,0.684 C 21.404,-0.091 20.024,-0.227 19.112,0.38 L 10.473,6.139 C 9.561,6.747 9.216,8.046 9.706,9.026 l 2.203,4.405 c 0.067,0.135 0.145,0.278 0.231,0.427 L 0.998,25 l -1,7 h 6 v -2 h 4 v -4 h 4 v -4 h 4 v -2.225 c 0.2,0.119 0.392,0.226 0.569,0.314 l 4.405,2.203 c 0.98,0.49 2.279,0.145 2.887,-0.767 l 5.759,-8.639 C 32.226,11.974 32.089,10.594 31.314,9.82 z M 4.707,26.707 3.293,25.293 13.03,15.556 14.444,16.97 4.707,26.707 z m 23.95,-13.464 -1.414,1.414 c -0.389,0.389 -1.025,0.389 -1.414,0 L 17.344,6.172 c -0.389,-0.389 -0.389,-1.025 0,-1.414 l 1.414,-1.414 c 0.389,-0.389 1.025,-0.389 1.414,0 l 8.485,8.485 c 0.389,0.389 0.389,1.025 0,1.414 z"
       inkscape:connector-curvature="0"
       style="fill:#ffffff" />
  </g>
</svg>
