<?xml version="1.0" encoding="UTF-8" standalone="no"?>
<!-- Created with Inkscape (http://www.inkscape.org/) -->

<svg
   xmlns:dc="http://purl.org/dc/elements/1.1/"
   xmlns:cc="http://creativecommons.org/ns#"
   xmlns:rdf="http://www.w3.org/1999/02/22-rdf-syntax-ns#"
   xmlns:svg="http://www.w3.org/2000/svg"
   xmlns="http://www.w3.org/2000/svg"
   xmlns:xlink="http://www.w3.org/1999/xlink"
   xmlns:sodipodi="http://sodipodi.sourceforge.net/DTD/sodipodi-0.dtd"
   xmlns:inkscape="http://www.inkscape.org/namespaces/inkscape"
   id="svg2"
   version="1.1"
   inkscape:version="0.48.4 r9939"
   width="64"
   height="64"
   sodipodi:docname="GESTOR_SUBIDAS.svg">
  <metadata
     id="metadata8">
    <rdf:RDF>
      <cc:Work
         rdf:about="">
        <dc:format>image/svg+xml</dc:format>
        <dc:type
           rdf:resource="http://purl.org/dc/dcmitype/StillImage" />
        <dc:title></dc:title>
      </cc:Work>
    </rdf:RDF>
  </metadata>
  <defs
     id="defs6">
    <linearGradient
       xlink:href="#linear0"
       gradientTransform="matrix(2.109118,0,0,2.14076,-18.761917,-596.802139)"
       x2="25.532"
       x1="21.358"
       gradientUnits="userSpaceOnUse"
       id="linearGradient11016" />
    <linearGradient
       xlink:href="#linear0"
       gradientTransform="matrix(2.109118,0,0,2.14076,-18.761917,-596.802139)"
       x2="23.508"
       x1="19.678"
       gradientUnits="userSpaceOnUse"
       id="linearGradient11014" />
    <linearGradient
       xlink:href="#linear0"
       gradientTransform="matrix(2.109118,0,0,2.14076,-18.761917,-596.802139)"
       x2="21.51"
       x1="15.259"
       gradientUnits="userSpaceOnUse"
       id="linearGradient11012" />
    <linearGradient
       xlink:href="#linear2"
       gradientTransform="matrix(2.109118,0,0,2.14076,-18.761917,-596.802139)"
       x2="19.854"
       x1="14.11"
       gradientUnits="userSpaceOnUse"
       id="linearGradient11010" />
    <linearGradient
       gradientTransform="matrix(2.109118,0,0,2.14076,-18.761917,-596.802139)"
       x2="18.59"
       x1="15.448"
       gradientUnits="userSpaceOnUse"
       id="linearGradient11004">
      <stop
         id="stop11006"
         stop-opacity="1"
         stop-color="#787878" />
      <stop
         id="stop11008"
         stop-opacity="1"
         stop-color="#9c9c9c"
         offset="1" />
    </linearGradient>
    <linearGradient
       xlink:href="#linear0"
       gradientTransform="matrix(2.109118,0,0,2.14076,-18.761917,-596.802139)"
       x2="26.439"
       x1="18.15"
       gradientUnits="userSpaceOnUse"
       id="linearGradient11002" />
    <linearGradient
       gradientTransform="matrix(2.109118,0,0,2.14076,-18.761917,-596.802139)"
       x2="26.06"
       x1="19.54"
       gradientUnits="userSpaceOnUse"
       id="linearGradient10996">
      <stop
         id="stop10998"
         stop-opacity="1"
         stop-color="#369dcf" />
      <stop
         id="stop11000"
         stop-opacity="1"
         stop-color="#116995"
         offset="1" />
    </linearGradient>
    <linearGradient
       xlink:href="#linear0"
       gradientTransform="matrix(2.109118,0,0,2.14076,-18.761917,-596.80214)"
       x2="25.532"
       x1="21.358"
       gradientUnits="userSpaceOnUse"
       id="linear6" />
    <linearGradient
       xlink:href="#linear0"
       gradientTransform="matrix(2.109118,0,0,2.14076,-18.761917,-596.80214)"
       x2="23.508"
       x1="19.678"
       gradientUnits="userSpaceOnUse"
       id="linear5" />
    <linearGradient
       xlink:href="#linear0"
       gradientTransform="matrix(2.109118,0,0,2.14076,-18.761917,-596.80214)"
       x2="21.51"
       x1="15.259"
       gradientUnits="userSpaceOnUse"
       id="linear4" />
    <linearGradient
       xlink:href="#linear2"
       gradientTransform="matrix(2.109118,0,0,2.14076,-18.761917,-596.80214)"
       x2="19.854"
       x1="14.11"
       gradientUnits="userSpaceOnUse"
       id="linear3" />
    <linearGradient
       gradientTransform="matrix(2.109118,0,0,2.14076,-18.761917,-596.802139)"
       x2="18.59"
       x1="15.448"
       gradientUnits="userSpaceOnUse"
       id="linear2">
      <stop
         id="stop10988"
         stop-opacity="1"
         stop-color="#787878" />
      <stop
         id="stop10990"
         stop-opacity="1"
         stop-color="#9c9c9c"
         offset="1" />
    </linearGradient>
    <linearGradient
       xlink:href="#linear0"
       gradientTransform="matrix(2.109118,0,0,2.14076,-18.761917,-596.80214)"
       x2="26.439"
       x1="18.15"
       gradientUnits="userSpaceOnUse"
       id="linear1" />
    <linearGradient
       gradientTransform="matrix(2.109118,0,0,2.14076,-18.761917,-596.802139)"
       x2="26.06"
       x1="19.54"
       gradientUnits="userSpaceOnUse"
       id="linear0">
      <stop
         id="stop10982"
         stop-opacity="1"
         stop-color="#369dcf" />
      <stop
         id="stop10984"
         stop-opacity="1"
         stop-color="#116995"
         offset="1" />
    </linearGradient>
    <clipPath
       id="clipPath-429196716">
      <g
         id="g10977"
         transform="translate(0,-1004.3622)">
        <path
           id="path10979"
           fill="#1890d0"
           transform="matrix(15.333333,0,0,11.5,414.99999,878.8622)"
           d="m -24 13 c 0 1.105 -0.672 2 -1.5 2 -0.828 0 -1.5 -0.895 -1.5 -2 0 -1.105 0.672 -2 1.5 -2 0.828 0 1.5 0.895 1.5 2 z" />
      </g>
    </clipPath>
    <clipPath
       id="clipPath-420376025">
      <g
         id="g10972"
         transform="translate(0,-1004.3622)">
        <path
           id="path10974"
           fill="#1890d0"
           transform="matrix(15.333333,0,0,11.5,414.99999,878.8622)"
           d="m -24 13 c 0 1.105 -0.672 2 -1.5 2 -0.828 0 -1.5 -0.895 -1.5 -2 0 -1.105 0.672 -2 1.5 -2 0.828 0 1.5 0.895 1.5 2 z" />
      </g>
    </clipPath>
    <linearGradient
       gradientTransform="matrix(0,-1,1,0,-1.5e-6,47.999998)"
       gradientUnits="userSpaceOnUse"
       x2="47"
       x1="1"
       id="linearGradient3764">
      <stop
         id="stop10967"
         stop-opacity="1"
         stop-color="#e4e4e4" />
      <stop
         id="stop10969"
         stop-opacity="1"
         stop-color="#eee"
         offset="1" />
    </linearGradient>
    <linearGradient
       inkscape:collect="always"
       xlink:href="#linear0"
       id="linearGradient11148"
       gradientUnits="userSpaceOnUse"
       gradientTransform="matrix(2.109118,0,0,2.14076,-18.761917,-596.80214)"
       x1="19.54"
       x2="26.06" />
    <linearGradient
       inkscape:collect="always"
       xlink:href="#linear2"
       id="linearGradient11150"
       gradientUnits="userSpaceOnUse"
       gradientTransform="matrix(2.109118,0,0,2.14076,-18.761917,-596.80214)"
       x1="15.448"
       x2="18.59" />
  </defs>
  <sodipodi:namedview
     pagecolor="#ffffff"
     bordercolor="#666666"
     borderopacity="1"
     objecttolerance="10"
     gridtolerance="10"
     guidetolerance="10"
     inkscape:pageopacity="0"
     inkscape:pageshadow="2"
     inkscape:window-width="1316"
     inkscape:window-height="674"
     id="namedview4"
     showgrid="false"
     inkscape:zoom="3.6875"
     inkscape:cx="-15.186441"
     inkscape:cy="32"
     inkscape:window-x="44"
     inkscape:window-y="29"
     inkscape:window-maximized="1"
     inkscape:current-layer="svg2" />
  <rect
     style="fill:#000000;fill-opacity:1;stroke:#000000;stroke-width:0.53665989999999997;stroke-linecap:round;stroke-linejoin:round;stroke-miterlimit:4;stroke-opacity:1;stroke-dasharray:none"
     id="rect3005"
     width="59.081985"
     height="59.624359"
     x="2.4590092"
     y="2.1878221"
     ry="5.9392786"
     rx="5.9392786" />
  <g
     id="g11030"
     transform="translate(-116.4312,-10.669492)" />
  <g
     id="g11056"
     transform="matrix(1.5840806,0,0,1.495714,-6.2467966,-5.5911617)"
     style="fill:#ffffff">
    <g
       clip-path="url(#clipPath-429196716)"
       id="g11058"
       style="fill:#ffffff">
      <!-- color: #eeeeee -->
      <g
         id="g11060"
         style="fill:#ffffff">
        <path
           style="fill:#ffffff;fill-rule:nonzero;stroke:none"
           inkscape:connector-curvature="0"
           d="m 29.434,17.402 c -2.754,0.199 -7.598,4.906 -6.918,4.879 5.633,-0.195 9.152,0.129 13.547,1.5 0.652,0.203 -0.703,-5.918 -6.629,-6.379 m 0,0"
           id="path11062" />
        <path
           style="fill:#ffffff;fill-rule:nonzero;stroke:none"
           inkscape:connector-curvature="0"
           d="m 21.05,13.527 c -1.566,2.285 -1.766,11.227 -1.359,10.676 3.332,-4.539 11.32,-10.145 16.09,-12.398 5.887,-2.793 -11.238,-2.449 -14.727,1.723 m 0,0"
           id="path11064" />
        <path
           style="fill:#ffffff;fill-rule:nonzero;stroke:none"
           inkscape:connector-curvature="0"
           d="m 13.961,23.27 c 0.902,2.621 6.68,6.105 6.48,5.449 -1.641,-5.41 -2.234,-8.91 -2.051,-13.523 0.027,-0.684 -5.516,2.207 -4.43,8.07 m 0,0"
           id="path11066" />
        <path
           style="fill:#ffffff;fill-rule:nonzero;stroke:none"
           inkscape:connector-curvature="0"
           d="m 14.715,31.875 c 2.559,1.047 8.977,-1.016 8.355,-1.301 -5.137,-2.324 -8.148,-4.184 -11.484,-7.363 -0.492,-0.473 -1.98,5.617 3.129,8.664 m 0,0"
           id="path11068" />
        <path
           style="fill:#ffffff;fill-rule:nonzero;stroke:none"
           inkscape:connector-curvature="0"
           d="m 22.12,36.777 c 2.445,-1.289 5.01,-7.543 4.398,-7.25 -5.086,2.441 -8.441,3.559 -13.02,4.063 -0.676,0.078 3,5.145 8.617,3.188 m 0,0"
           id="path11070" />
        <path
           style="fill:#ffffff;fill-rule:nonzero;stroke:none"
           inkscape:connector-curvature="0"
           d="m 30.742,34.12 c 0.598,-2.707 -2.508,-8.711 -2.676,-8.05 -1.426,5.473 -2.742,8.766 -5.305,12.602 -0.383,0.566 5.848,1.016 7.98,-4.555 m 0,0"
           id="path11072" />
        <path
           style="fill:#ffffff;fill-rule:nonzero;stroke:none"
           inkscape:connector-curvature="0"
           d="m 34.13,25.602 c -1.66,-2.215 -8.223,-3.746 -7.832,-3.184 3.219,4.641 4.855,7.785 6.094,12.234 0.184,0.66 4.57,-3.805 1.738,-9.05 m 0,0"
           id="path11074" />
      </g>
    </g>
  </g>
</svg>
