<?xml version="1.0" encoding="UTF-8" standalone="no"?>
<!-- Created with Inkscape (http://www.inkscape.org/) -->

<svg
   xmlns:dc="http://purl.org/dc/elements/1.1/"
   xmlns:cc="http://creativecommons.org/ns#"
   xmlns:rdf="http://www.w3.org/1999/02/22-rdf-syntax-ns#"
   xmlns:svg="http://www.w3.org/2000/svg"
   xmlns="http://www.w3.org/2000/svg"
   xmlns:sodipodi="http://sodipodi.sourceforge.net/DTD/sodipodi-0.dtd"
   xmlns:inkscape="http://www.inkscape.org/namespaces/inkscape"
   id="svg2"
   version="1.1"
   inkscape:version="0.48.4 r9939"
   width="64"
   height="64"
   sodipodi:docname="emesene.svg">
  <metadata
     id="metadata8">
    <rdf:RDF>
      <cc:Work
         rdf:about="">
        <dc:format>image/svg+xml</dc:format>
        <dc:type
           rdf:resource="http://purl.org/dc/dcmitype/StillImage" />
        <dc:title></dc:title>
      </cc:Work>
    </rdf:RDF>
  </metadata>
  <defs
     id="defs6" />
  <sodipodi:namedview
     pagecolor="#ffffff"
     bordercolor="#666666"
     borderopacity="1"
     objecttolerance="10"
     gridtolerance="10"
     guidetolerance="10"
     inkscape:pageopacity="0"
     inkscape:pageshadow="2"
     inkscape:window-width="1316"
     inkscape:window-height="674"
     id="namedview4"
     showgrid="false"
     inkscape:zoom="3.6875"
     inkscape:cx="-15.186441"
     inkscape:cy="42.847458"
     inkscape:window-x="44"
     inkscape:window-y="29"
     inkscape:window-maximized="1"
     inkscape:current-layer="svg2" />
  <rect
     style="fill:#000000;fill-opacity:1;stroke:#000000;stroke-width:0.53665989999999997;stroke-linecap:round;stroke-linejoin:round;stroke-miterlimit:4;stroke-opacity:1;stroke-dasharray:none"
     id="rect3005"
     width="59.081985"
     height="59.624359"
     x="2.4590092"
     y="2.1878221"
     ry="5.9392786"
     rx="5.9392786" />
  <g
     id="g86539"
     transform="matrix(1.3559322,0,0,1.4728846,10.848814,8.5687026)"
     style="fill:#ffffff">
    <g
       id="icomoon-ignore"
       style="fill:#ffffff" />
    <path
       id="path86531"
       d="m 30.478,18.061 c 0.088,-0.65 0.138,-1.311 0.138,-1.983 0,-8.072 -6.579,-14.617 -14.694,-14.617 -0.806,0 -1.597,0.066 -2.367,0.192 C 12.175,0.754 10.534,0.23 8.767,0.23 c -4.845,0 -8.768,3.925 -8.768,8.769 0,1.762 0.519,3.4 1.412,4.774 -0.12,0.751 -0.182,1.52 -0.182,2.304 0,8.073 6.576,14.618 14.693,14.618 0.916,0 1.808,-0.089 2.675,-0.246 1.347,0.836 2.933,1.322 4.634,1.322 4.844,0 8.768,-3.926 8.768,-8.77 0,-1.831 -0.56,-3.533 -1.522,-4.94 z M 17.296,26.85 C 12.627,27.093 10.442,26.06 8.44,24.182 6.205,22.084 7.103,19.691 8.924,19.569 c 1.82,-0.122 2.913,2.063 3.884,2.671 0.97,0.605 4.662,1.985 6.612,-0.244 2.123,-2.427 -1.412,-3.683 -4.004,-4.063 -3.7,-0.548 -8.372,-2.55 -8.008,-6.494 0.364,-3.942 3.349,-5.963 6.491,-6.248 4.005,-0.364 6.612,0.607 8.674,2.366 2.384,2.033 1.094,4.306 -0.425,4.489 -1.513,0.182 -3.213,-3.344 -6.549,-3.397 -3.439,-0.054 -5.764,3.579 -1.518,4.612 4.248,1.032 8.797,1.455 10.435,5.339 1.639,3.884 -2.547,8.008 -7.22,8.251 z"
       inkscape:connector-curvature="0"
       style="fill:#ffffff" />
  </g>
</svg>
