<?xml version="1.0" encoding="UTF-8" standalone="no"?>
<!-- Created with Inkscape (http://www.inkscape.org/) -->

<svg
   xmlns:dc="http://purl.org/dc/elements/1.1/"
   xmlns:cc="http://creativecommons.org/ns#"
   xmlns:rdf="http://www.w3.org/1999/02/22-rdf-syntax-ns#"
   xmlns:svg="http://www.w3.org/2000/svg"
   xmlns="http://www.w3.org/2000/svg"
   xmlns:sodipodi="http://sodipodi.sourceforge.net/DTD/sodipodi-0.dtd"
   xmlns:inkscape="http://www.inkscape.org/namespaces/inkscape"
   id="svg2"
   version="1.1"
   inkscape:version="0.48.4 r9939"
   width="64"
   height="64"
   sodipodi:docname="FLASH.svg">
  <metadata
     id="metadata8">
    <rdf:RDF>
      <cc:Work
         rdf:about="">
        <dc:format>image/svg+xml</dc:format>
        <dc:type
           rdf:resource="http://purl.org/dc/dcmitype/StillImage" />
        <dc:title></dc:title>
      </cc:Work>
    </rdf:RDF>
  </metadata>
  <defs
     id="defs6">
    <clipPath
       id="clipPath-055917835">
      <g
         id="g4144"
         transform="translate(0,-1004.3622)">
        <path
           id="path4146"
           fill="#1890d0"
           transform="matrix(15.333333,0,0,11.5,414.99999,878.8622)"
           d="m -24 13 c 0 1.105 -0.672 2 -1.5 2 -0.828 0 -1.5 -0.895 -1.5 -2 0 -1.105 0.672 -2 1.5 -2 0.828 0 1.5 0.895 1.5 2 z" />
      </g>
    </clipPath>
    <clipPath
       id="clipPath-046900192">
      <g
         id="g4139"
         transform="translate(0,-1004.3622)">
        <path
           id="path4141"
           fill="#1890d0"
           transform="matrix(15.333333,0,0,11.5,414.99999,878.8622)"
           d="m -24 13 c 0 1.105 -0.672 2 -1.5 2 -0.828 0 -1.5 -0.895 -1.5 -2 0 -1.105 0.672 -2 1.5 -2 0.828 0 1.5 0.895 1.5 2 z" />
      </g>
    </clipPath>
    <linearGradient
       gradientTransform="matrix(0,-1,1,0,-1.5e-6,47.999998)"
       gradientUnits="userSpaceOnUse"
       x2="47"
       x1="1"
       id="linearGradient3764">
      <stop
         id="stop4134"
         stop-opacity="1"
         stop-color="#e4e4e4" />
      <stop
         id="stop4136"
         stop-opacity="1"
         stop-color="#eee"
         offset="1" />
    </linearGradient>
    <clipPath
       id="clipPath-183935099">
      <g
         id="g4609"
         transform="translate(0,-1004.3622)">
        <path
           id="path4611"
           fill="#1890d0"
           transform="matrix(15.333333,0,0,11.5,414.99999,878.8622)"
           d="m -24 13 c 0 1.105 -0.672 2 -1.5 2 -0.828 0 -1.5 -0.895 -1.5 -2 0 -1.105 0.672 -2 1.5 -2 0.828 0 1.5 0.895 1.5 2 z" />
      </g>
    </clipPath>
    <clipPath
       id="clipPath-172451806">
      <g
         id="g4604"
         transform="translate(0,-1004.3622)">
        <path
           id="path4606"
           fill="#1890d0"
           transform="matrix(15.333333,0,0,11.5,414.99999,878.8622)"
           d="m -24 13 c 0 1.105 -0.672 2 -1.5 2 -0.828 0 -1.5 -0.895 -1.5 -2 0 -1.105 0.672 -2 1.5 -2 0.828 0 1.5 0.895 1.5 2 z" />
      </g>
    </clipPath>
    <linearGradient
       gradientTransform="matrix(0,-1,1,0,-1.5e-6,47.999998)"
       gradientUnits="userSpaceOnUse"
       x2="47"
       x1="1"
       id="linearGradient3764-9">
      <stop
         id="stop4599"
         stop-opacity="1"
         stop-color="#97b2d3" />
      <stop
         id="stop4601"
         stop-opacity="1"
         stop-color="#a5bcd9"
         offset="1" />
    </linearGradient>
    <clipPath
       id="clipPath-239231159">
      <g
         id="g5340"
         transform="translate(0,-1004.3622)">
        <path
           id="path5342"
           fill="#1890d0"
           transform="matrix(15.333333,0,0,11.5,414.99999,878.8622)"
           d="m -24 13 c 0 1.105 -0.672 2 -1.5 2 -0.828 0 -1.5 -0.895 -1.5 -2 0 -1.105 0.672 -2 1.5 -2 0.828 0 1.5 0.895 1.5 2 z" />
      </g>
    </clipPath>
    <clipPath
       id="clipPath-233610327">
      <g
         id="g5335"
         transform="translate(0,-1004.3622)">
        <path
           id="path5337"
           fill="#1890d0"
           transform="matrix(15.333333,0,0,11.5,414.99999,878.8622)"
           d="m -24 13 c 0 1.105 -0.672 2 -1.5 2 -0.828 0 -1.5 -0.895 -1.5 -2 0 -1.105 0.672 -2 1.5 -2 0.828 0 1.5 0.895 1.5 2 z" />
      </g>
    </clipPath>
    <linearGradient
       gradientTransform="matrix(0,-1,1,0,-1.5e-6,47.999998)"
       gradientUnits="userSpaceOnUse"
       x2="47"
       x1="1"
       id="linearGradient3764-1">
      <stop
         id="stop5330"
         stop-opacity="1"
         stop-color="#b93b3b" />
      <stop
         id="stop5332"
         stop-opacity="1"
         stop-color="#c34545"
         offset="1" />
    </linearGradient>
    <clipPath
       id="clipPath-483879499">
      <g
         id="g7096"
         transform="translate(0,-1004.3622)">
        <path
           id="path7098"
           fill="#1890d0"
           transform="matrix(15.333333,0,0,11.5,414.99999,878.8622)"
           d="m -24 13 c 0 1.105 -0.672 2 -1.5 2 -0.828 0 -1.5 -0.895 -1.5 -2 0 -1.105 0.672 -2 1.5 -2 0.828 0 1.5 0.895 1.5 2 z" />
      </g>
    </clipPath>
    <clipPath
       id="clipPath-478329641">
      <g
         id="g7091"
         transform="translate(0,-1004.3622)">
        <path
           id="path7093"
           fill="#1890d0"
           transform="matrix(15.333333,0,0,11.5,414.99999,878.8622)"
           d="m -24 13 c 0 1.105 -0.672 2 -1.5 2 -0.828 0 -1.5 -0.895 -1.5 -2 0 -1.105 0.672 -2 1.5 -2 0.828 0 1.5 0.895 1.5 2 z" />
      </g>
    </clipPath>
    <linearGradient
       gradientTransform="matrix(0,-1,1,0,-1.5e-6,47.999998)"
       gradientUnits="userSpaceOnUse"
       x2="47"
       x1="1"
       id="linearGradient3764-5">
      <stop
         id="stop7086"
         stop-opacity="1"
         stop-color="#333" />
      <stop
         id="stop7088"
         stop-opacity="1"
         stop-color="#3d3d3d"
         offset="1" />
    </linearGradient>
  </defs>
  <sodipodi:namedview
     pagecolor="#ffffff"
     bordercolor="#666666"
     borderopacity="1"
     objecttolerance="10"
     gridtolerance="10"
     guidetolerance="10"
     inkscape:pageopacity="0"
     inkscape:pageshadow="2"
     inkscape:window-width="1316"
     inkscape:window-height="674"
     id="namedview4"
     showgrid="false"
     inkscape:zoom="3.6875"
     inkscape:cx="-19.932204"
     inkscape:cy="32"
     inkscape:window-x="44"
     inkscape:window-y="29"
     inkscape:window-maximized="1"
     inkscape:current-layer="svg2" />
  <rect
     style="fill:#000000;fill-opacity:1;stroke:#000000;stroke-width:0.53665989999999997;stroke-linecap:round;stroke-linejoin:round;stroke-miterlimit:4;stroke-opacity:1;stroke-dasharray:none"
     id="rect3005"
     width="59.081985"
     height="59.624359"
     x="2.4590092"
     y="2.1878221"
     ry="5.9392786"
     rx="5.9392786" />
  <g
     id="g4160"
     transform="translate(-138.39731,-16.90678)" />
  <g
     id="g4625"
     transform="translate(-87.414255,-10.940679)" />
  <g
     id="g5356"
     transform="translate(-107.21086,-6.8728814)" />
  <g
     id="g7112"
     transform="translate(-106.80409,-6.6016949)" />
  <g
     id="g7136"
     transform="matrix(1.5110625,0,0,1.6163328,-3.6784815,-5.8620955)">
    <g
       clip-path="url(#clipPath-483879499)"
       id="g7138">
      <!-- color: #3d3d3d -->
      <g
         id="g7140">
        <path
           style="fill:#f9f9f9;fill-opacity:1;fill-rule:nonzero;stroke:none"
           inkscape:connector-curvature="0"
           d="m 31.31,12 c -3.129,0 -5.691,2.477 -5.691,5.5 0,3.02 2.566,5.504 5.691,5.504 3.125,0 5.688,-2.48 5.688,-5.504 0,-3.02 -2.563,-5.5 -5.688,-5.5 m 0,1.848 c 2.102,0 3.777,1.621 3.777,3.652 0,2.035 -1.676,3.656 -3.777,3.656 -2.105,0 -3.781,-1.621 -3.781,-3.656 0,-2.031 1.676,-3.652 3.781,-3.652 m 0,0"
           id="path7142" />
        <path
           style="fill:#f9f9f9;fill-opacity:1;fill-rule:nonzero;stroke:none"
           inkscape:connector-curvature="0"
           d="m 33.746,17.496 c 0,1.301 -1.09,2.355 -2.438,2.355 -1.344,0 -2.438,-1.055 -2.438,-2.355 0,-1.305 1.094,-2.359 2.438,-2.359 1.348,0 2.438,1.055 2.438,2.359 m 0,0"
           id="path7144" />
        <path
           style="fill:#f9f9f9;fill-opacity:1;fill-rule:nonzero;stroke:none"
           inkscape:connector-curvature="0"
           d="m 26.434,19.852 0,7.07 4.063,0.785 3.473,-5.867 -3.625,0 m -3.91,-1.992"
           id="path7146" />
        <path
           style="fill:#f9f9f9;fill-opacity:1;fill-rule:nonzero;stroke:none"
           inkscape:connector-curvature="0"
           d="m 27.25,26.14 c -2.23,0 -4.063,1.77 -4.063,3.93 0,2.16 1.832,3.93 4.063,3.93 2.234,0 4.066,-1.77 4.066,-3.93 0,-2.16 -1.832,-3.93 -4.066,-3.93 m 0,1.32 c 1.504,0 2.699,1.156 2.699,2.609 0,1.453 -1.195,2.609 -2.699,2.609 -1.5,0 -2.699,-1.156 -2.699,-2.609 0,-1.453 1.199,-2.609 2.699,-2.609 m 0,0"
           id="path7148" />
        <path
           style="fill:#f9f9f9;fill-opacity:1;fill-rule:nonzero;stroke:none"
           inkscape:connector-curvature="0"
           d="m 15.06,20.637 c -2.23,0 -4.063,1.773 -4.063,3.93 0,2.16 1.832,3.934 4.063,3.934 2.234,0 4.066,-1.773 4.066,-3.934 0,-2.156 -1.832,-3.93 -4.066,-3.93 m -0.008,1.574 c 1.629,0 2.441,0.785 2.441,2.355 0,1.574 -0.813,2.359 -2.441,2.359 -1.625,0 -2.438,-0.785 -2.438,-2.359 0,-1.57 0.813,-2.355 2.438,-2.355 m 0,0"
           id="path7150" />
        <path
           style="fill:#f9f9f9;fill-opacity:1;fill-rule:nonzero;stroke:none"
           inkscape:connector-curvature="0"
           d="m 15.953,23.16 c -0.922,-0.379 -1.984,0.035 -2.375,0.93 -0.391,0.891 0.039,1.922 0.961,2.297 l 12.07,5.25 c 0.922,0.379 1.988,-0.035 2.379,-0.93 0.391,-0.891 -0.039,-1.922 -0.961,-2.297 m -12.08,-5.25"
           id="path7152" />
      </g>
    </g>
  </g>
</svg>
