<?xml version="1.0" encoding="UTF-8" standalone="no"?>
<!-- Created with Inkscape (http://www.inkscape.org/) -->

<svg
   xmlns:dc="http://purl.org/dc/elements/1.1/"
   xmlns:cc="http://creativecommons.org/ns#"
   xmlns:rdf="http://www.w3.org/1999/02/22-rdf-syntax-ns#"
   xmlns:svg="http://www.w3.org/2000/svg"
   xmlns="http://www.w3.org/2000/svg"
   xmlns:sodipodi="http://sodipodi.sourceforge.net/DTD/sodipodi-0.dtd"
   xmlns:inkscape="http://www.inkscape.org/namespaces/inkscape"
   id="svg2"
   version="1.1"
   inkscape:version="0.48.4 r9939"
   width="64"
   height="64"
   sodipodi:docname="caffeine.svg">
  <metadata
     id="metadata8">
    <rdf:RDF>
      <cc:Work
         rdf:about="">
        <dc:format>image/svg+xml</dc:format>
        <dc:type
           rdf:resource="http://purl.org/dc/dcmitype/StillImage" />
        <dc:title></dc:title>
      </cc:Work>
    </rdf:RDF>
  </metadata>
  <defs
     id="defs6">
    <inkscape:perspective
       id="perspective3009"
       inkscape:persp3d-origin="12 : 8 : 1"
       inkscape:vp_z="24 : 12 : 1"
       inkscape:vp_y="0 : 1000 : 0"
       inkscape:vp_x="0 : 12 : 1"
       sodipodi:type="inkscape:persp3d" />
  </defs>
  <sodipodi:namedview
     pagecolor="#ffffff"
     bordercolor="#666666"
     borderopacity="1"
     objecttolerance="10"
     gridtolerance="10"
     guidetolerance="10"
     inkscape:pageopacity="0"
     inkscape:pageshadow="2"
     inkscape:window-width="1318"
     inkscape:window-height="719"
     id="namedview4"
     showgrid="false"
     inkscape:zoom="3.6875"
     inkscape:cx="-14.644068"
     inkscape:cy="32"
     inkscape:window-x="42"
     inkscape:window-y="24"
     inkscape:window-maximized="1"
     inkscape:current-layer="svg2" />
  <rect
     style="fill:#000000;fill-opacity:1;stroke:#000000;stroke-width:0.53665989999999997;stroke-linecap:round;stroke-linejoin:round;stroke-miterlimit:4;stroke-opacity:1;stroke-dasharray:none"
     id="rect3005"
     width="59.081985"
     height="59.624359"
     x="2.4590092"
     y="2.1878221"
     ry="5.9392786"
     rx="5.9392786" />
  <g
     id="g3250"
     transform="matrix(1,0,0,0.85714286,0,1.2203389)">
    <path
       id="path6"
       d="m 14.638728,14.214119 c -1.413179,0 -2.545375,1.145627 -2.545375,2.558844 l 0,22.912514 c 0,1.413216 1.132196,2.55048 2.545375,2.55048 l 35.536106,0 c 1.413178,0 2.545374,-1.137264 2.545374,-2.55048 l 0,-22.912514 c 0,-1.413217 -1.132196,-2.558844 -2.545374,-2.558844 z m 2.537113,4.674488 30.46188,0 0,18.681226 -30.46188,0 z m 7.611339,25.688774 0,2.333063 -5.074226,0 0,4.666124 25.387654,0 0,-4.666124 -5.074227,0 0,-2.333063 z"
       style="fill:#000000;fill-opacity:0.30199998"
       inkscape:connector-curvature="0" />
    <path
       inkscape:connector-curvature="0"
       id="path2998"
       d="m 51.79661,46.644068 c 0.0904,-0.361582 0.198092,-0.719274 0.271187,-1.084746 0.04937,-0.246834 -0.07248,-1.210967 0,-1.355932 0.05717,-0.114342 0.214015,-0.156844 0.271186,-0.271187 0.08085,-0.161704 -0.127838,-0.414534 0,-0.542372 0.06392,-0.06392 0.207267,0.06392 0.271186,0 0.127839,-0.127839 -0.08085,-0.380669 0,-0.542373 0.05717,-0.114343 0.214016,-0.156845 0.271187,-0.271187 0.04127,-0.08253 0,-0.691428 0,-0.813559 0,-0.361582 0,-0.723164 0,-1.084746 0,-0.0904 0,-0.361582 0,-0.271186 0,0.180791 0,0.361582 0,0.542373 0,0.0904 -0.0904,-0.271187 0,-0.271187 0.0904,0 0,0.180791 0,0.271187 0,0.0904 0,0.180791 0,0.271186 0,0.09039 0.04043,0.190334 0,0.271186 -0.05717,0.114343 -0.214015,0.156845 -0.271187,0.271187 -0.04126,0.08253 0,0.691428 0,0.813559 0,0.723164 0,1.446328 0,2.169492"
       style="fill:#000000;stroke:#000000;stroke-width:1px;stroke-linecap:butt;stroke-linejoin:miter;stroke-opacity:1" />
    <g
       style="fill:#ffffff"
       transform="matrix(2.779661,0,0,2.8474576,4.8813554,2.8474572)"
       id="g3242">
      <g
         style="fill:#ffffff"
         id="icomoon-ignore" />
      <path
         style="fill:#ffffff"
         inkscape:connector-curvature="0"
         d="M 16,2 H 4 C 2.9,2 2,2.9 2,4 v 12 c 0,1.1 0.9,2 2,2 h 12 c 1.1,0 2,-0.9 2,-2 V 4 C 18,2.9 17.1,2 16,2 z m -1,9 H 5 V 9 h 10 v 2 z"
         id="path3234" />
      <path
         id="path3248"
         d="M 14.756097,3.6190476 H 5.2439024 c -0.8719512,0 -1.5853658,0.7125001 -1.5853658,1.5833333 v 9.5000001 c 0,0.870833 0.7134146,1.583333 1.5853658,1.583333 h 9.5121946 c 0.871952,0 1.585366,-0.7125 1.585366,-1.583333 V 5.2023809 c 0,-0.8708332 -0.713414,-1.5833333 -1.585366,-1.5833333 z M 13.963415,10.744048 H 6.0365854 V 9.1607143 h 7.9268296 v 1.5833337 z"
         inkscape:connector-curvature="0"
         style="fill:#000000" />
    </g>
    <g
       transform="translate(-4.0677992,8.4745764e-8)"
       id="g3000">
      <text
         xml:space="preserve"
         style="font-size:12.76909161px;font-style:normal;font-weight:normal;line-height:125%;letter-spacing:0px;word-spacing:0px;fill:#ffffff;fill-opacity:1;stroke:none;font-family:Sans"
         x="23.047392"
         y="22.678249"
         id="text2990"
         sodipodi:linespacing="125%"
         transform="scale(0.89920472,1.1120938)"><tspan
           sodipodi:role="line"
           id="tspan2992"
           x="23.047392"
           y="22.678249">&gt; </tspan></text>
      <text
         xml:space="preserve"
         style="font-size:26.0646286px;font-style:normal;font-weight:normal;line-height:125%;letter-spacing:0px;word-spacing:0px;fill:#ffffff;fill-opacity:1;stroke:none;font-family:Sans"
         x="22.806486"
         y="38.134346"
         id="text2994"
         sodipodi:linespacing="125%"
         transform="scale(1.292916,0.77344543)"><tspan
           sodipodi:role="line"
           id="tspan2996"
           x="22.806486"
           y="38.134346">-</tspan></text>
    </g>
  </g>
  <rect
     style="fill:#ffffff;fill-opacity:1;stroke:none"
     id="rect3263"
     width="8.3026953"
     height="10.927339"
     x="44.824139"
     y="-38.873032"
     rx="0"
     ry="10.927339"
     transform="matrix(0.0016799,0.99999859,-0.99999474,-0.00324392,0,0)"
     inkscape:transform-center-x="6.8761206"
     inkscape:transform-center-y="-0.00095156141" />
  <rect
     inkscape:transform-center-x="0.25737729"
     transform="matrix(-0.99999933,-0.00115391,-0.05966326,-0.99821856,0,0)"
     ry="4.9817729"
     rx="0"
     y="-56.371658"
     x="-44.022671"
     height="4.9817729"
     width="27.353418"
     id="rect4033"
     style="fill:#ffffff;fill-opacity:1;stroke:none"
     inkscape:transform-center-y="-3.129354" />
</svg>
