<?xml version="1.0" encoding="UTF-8" standalone="no"?>
<!-- Created with Inkscape (http://www.inkscape.org/) -->

<svg
   xmlns:dc="http://purl.org/dc/elements/1.1/"
   xmlns:cc="http://creativecommons.org/ns#"
   xmlns:rdf="http://www.w3.org/1999/02/22-rdf-syntax-ns#"
   xmlns:svg="http://www.w3.org/2000/svg"
   xmlns="http://www.w3.org/2000/svg"
   xmlns:sodipodi="http://sodipodi.sourceforge.net/DTD/sodipodi-0.dtd"
   xmlns:inkscape="http://www.inkscape.org/namespaces/inkscape"
   id="svg2"
   version="1.1"
   inkscape:version="0.48.4 r9939"
   width="64"
   height="64"
   sodipodi:docname="superbird.svg">
  <metadata
     id="metadata8">
    <rdf:RDF>
      <cc:Work
         rdf:about="">
        <dc:format>image/svg+xml</dc:format>
        <dc:type
           rdf:resource="http://purl.org/dc/dcmitype/StillImage" />
        <dc:title></dc:title>
      </cc:Work>
    </rdf:RDF>
  </metadata>
  <defs
     id="defs6" />
  <sodipodi:namedview
     pagecolor="#ffffff"
     bordercolor="#666666"
     borderopacity="1"
     objecttolerance="10"
     gridtolerance="10"
     guidetolerance="10"
     inkscape:pageopacity="0"
     inkscape:pageshadow="2"
     inkscape:window-width="1317"
     inkscape:window-height="713"
     id="namedview4"
     showgrid="false"
     inkscape:zoom="3.6875"
     inkscape:cx="-14.101695"
     inkscape:cy="15.607279"
     inkscape:window-x="43"
     inkscape:window-y="24"
     inkscape:window-maximized="1"
     inkscape:current-layer="svg2" />
  <rect
     style="fill:#000000;fill-opacity:1;stroke:#000000;stroke-width:0.53665989999999997;stroke-linecap:round;stroke-linejoin:round;stroke-miterlimit:4;stroke-opacity:1;stroke-dasharray:none"
     id="rect3005"
     width="59.081985"
     height="59.624359"
     x="2.4590092"
     y="2.1878221"
     ry="5.9392786"
     rx="5.9392786" />
  <path
     id="path9136"
     d="m 32.182414,35.515366 c 0.475164,0 0.860264,0.390128 0.860264,0.871495 0,0.481368 -0.3851,0.871616 -0.860264,0.871616 -0.475164,0 -0.860382,-0.390248 -0.860382,-0.871616 0,-0.481367 0.385218,-0.871495 0.860382,-0.871495 z m 0,3.195681 c 0.475164,0 0.860264,0.390247 0.860264,0.871613 0,0.481371 -0.3851,0.871615 -0.860264,0.871615 -0.475164,0 -0.860382,-0.390244 -0.860382,-0.871615 0,-0.481366 0.385218,-0.871613 0.860382,-0.871613 z M 16.016953,8.9322034 l 30.610165,0 0,4.7707406 -3.531942,0 c -0.59007,4.127049 -2.545001,14.836884 -8.272283,17.890276 5.727282,3.053394 7.682213,13.763229 8.272283,17.890278 l 3.531942,0 0,4.77074 -30.610165,0 0,-4.77074 3.53195,0 C 20.138964,45.356449 22.093883,34.646614 27.821055,31.59322 22.093883,28.539828 20.138964,17.829993 19.548903,13.702944 l -3.53195,0 0,-4.7707406 z m 7.652537,4.7707406 c 0,0 0.760782,5.633768 2.463648,10.039426 2.774223,-1.331393 8.237314,-3.482399 10.836118,-1.259951 1.397237,-4.074332 2.005319,-8.779475 2.005319,-8.779475 l -15.305085,0 z m 15.335344,35.780554 c 0,0 -2.520749,-16.147049 -7.682802,-16.147049 -4.469321,0 -7.064003,12.218583 -7.663843,15.375145 2.676388,-1.936684 6.94627,-5.49673 8.094034,-6.659478 0,0 3.183341,5.387714 6.242355,7.431382 l 1.010256,0 z"
     inkscape:connector-curvature="0"
     style="fill:#ffffff;fill-opacity:1;stroke-width:0.2;stroke-linejoin:round" />
</svg>
