<?xml version="1.0" encoding="UTF-8" standalone="no"?>
<!-- Created with Inkscape (http://www.inkscape.org/) -->

<svg
   xmlns:dc="http://purl.org/dc/elements/1.1/"
   xmlns:cc="http://creativecommons.org/ns#"
   xmlns:rdf="http://www.w3.org/1999/02/22-rdf-syntax-ns#"
   xmlns:svg="http://www.w3.org/2000/svg"
   xmlns="http://www.w3.org/2000/svg"
   xmlns:sodipodi="http://sodipodi.sourceforge.net/DTD/sodipodi-0.dtd"
   xmlns:inkscape="http://www.inkscape.org/namespaces/inkscape"
   id="svg2"
   version="1.1"
   inkscape:version="0.48.4 r9939"
   width="64"
   height="64"
   sodipodi:docname="osmo.svg">
  <metadata
     id="metadata8">
    <rdf:RDF>
      <cc:Work
         rdf:about="">
        <dc:format>image/svg+xml</dc:format>
        <dc:type
           rdf:resource="http://purl.org/dc/dcmitype/StillImage" />
        <dc:title></dc:title>
      </cc:Work>
    </rdf:RDF>
  </metadata>
  <defs
     id="defs6" />
  <sodipodi:namedview
     pagecolor="#ffffff"
     bordercolor="#666666"
     borderopacity="1"
     objecttolerance="10"
     gridtolerance="10"
     guidetolerance="10"
     inkscape:pageopacity="0"
     inkscape:pageshadow="2"
     inkscape:window-width="1316"
     inkscape:window-height="674"
     id="namedview4"
     showgrid="false"
     inkscape:zoom="3.6875"
     inkscape:cx="-19.932204"
     inkscape:cy="32"
     inkscape:window-x="44"
     inkscape:window-y="29"
     inkscape:window-maximized="1"
     inkscape:current-layer="svg2" />
  <rect
     style="fill:#000000;fill-opacity:1;stroke:#000000;stroke-width:0.53665989999999997;stroke-linecap:round;stroke-linejoin:round;stroke-miterlimit:4;stroke-opacity:1;stroke-dasharray:none"
     id="rect3005"
     width="59.081985"
     height="59.624359"
     x="2.4590092"
     y="2.1878221"
     ry="5.9392786"
     rx="5.9392786" />
  <g
     id="g4951"
     transform="matrix(1.4067797,0,0,1,9.4915246,9.7627119)"
     style="fill:#ffffff">
    <g
       id="icomoon-ignore"
       style="fill:#ffffff" />
    <path
       id="path4943"
       d="m 28,14 h 0.5 c 0.825,0 1.5,-0.675 1.5,-1.5 v -5 C 30,6.675 29.325,6 28.5,6 H 28 V 0 H 24 V 6 H 23.5 C 22.675,6 22,6.675 22,7.5 v 5 c 0,0.825 0.675,1.5 1.5,1.5 H 24 v 18 h 4 V 14 z M 24,8 h 4 v 4 H 24 V 8 z m -5.5,18 c 0.825,0 1.5,-0.675 1.5,-1.5 v -5 C 20,18.675 19.325,18 18.5,18 H 18 V 0 H 14 V 18 H 13.5 C 12.675,18 12,18.675 12,19.5 v 5 c 0,0.825 0.675,1.5 1.5,1.5 H 14 v 6 h 4 v -6 h 0.5 z M 14,20 h 4 v 4 H 14 V 20 z M 8.5,14 C 9.325,14 10,13.325 10,12.5 v -5 C 10,6.675 9.325,6 8.5,6 H 8 V 0 H 4 V 6 H 3.5 C 2.675,6 2,6.675 2,7.5 v 5 C 2,13.325 2.675,14 3.5,14 H 4 V 32 H 8 V 14 H 8.5 z M 4,8 h 4 v 4 H 4 V 8 z"
       inkscape:connector-curvature="0"
       style="fill:#ffffff" />
  </g>
  <rect
     style="fill:#ffffff;fill-opacity:1;stroke:#000000;stroke-width:0.69999999;stroke-linecap:round;stroke-linejoin:round;stroke-miterlimit:4;stroke-opacity:1;stroke-dasharray:none"
     id="rect4955"
     width="40.949154"
     height="5.4237289"
     x="13.016949"
     y="50.169491" />
</svg>
