<?xml version="1.0" encoding="UTF-8" standalone="no"?>
<!-- Created with Inkscape (http://www.inkscape.org/) -->

<svg
   xmlns:dc="http://purl.org/dc/elements/1.1/"
   xmlns:cc="http://creativecommons.org/ns#"
   xmlns:rdf="http://www.w3.org/1999/02/22-rdf-syntax-ns#"
   xmlns:svg="http://www.w3.org/2000/svg"
   xmlns="http://www.w3.org/2000/svg"
   xmlns:xlink="http://www.w3.org/1999/xlink"
   xmlns:sodipodi="http://sodipodi.sourceforge.net/DTD/sodipodi-0.dtd"
   xmlns:inkscape="http://www.inkscape.org/namespaces/inkscape"
   id="svg2"
   version="1.1"
   inkscape:version="0.48.4 r9939"
   width="64"
   height="64"
   sodipodi:docname="USUARIOS.svg">
  <metadata
     id="metadata8">
    <rdf:RDF>
      <cc:Work
         rdf:about="">
        <dc:format>image/svg+xml</dc:format>
        <dc:type
           rdf:resource="http://purl.org/dc/dcmitype/StillImage" />
        <dc:title></dc:title>
      </cc:Work>
    </rdf:RDF>
  </metadata>
  <defs
     id="defs6">
    <linearGradient
       xlink:href="#linear0"
       gradientTransform="matrix(2.109118,0,0,2.14076,-18.761917,-596.802139)"
       x2="25.532"
       x1="21.358"
       gradientUnits="userSpaceOnUse"
       id="linearGradient11016" />
    <linearGradient
       xlink:href="#linear0"
       gradientTransform="matrix(2.109118,0,0,2.14076,-18.761917,-596.802139)"
       x2="23.508"
       x1="19.678"
       gradientUnits="userSpaceOnUse"
       id="linearGradient11014" />
    <linearGradient
       xlink:href="#linear0"
       gradientTransform="matrix(2.109118,0,0,2.14076,-18.761917,-596.802139)"
       x2="21.51"
       x1="15.259"
       gradientUnits="userSpaceOnUse"
       id="linearGradient11012" />
    <linearGradient
       xlink:href="#linear2"
       gradientTransform="matrix(2.109118,0,0,2.14076,-18.761917,-596.802139)"
       x2="19.854"
       x1="14.11"
       gradientUnits="userSpaceOnUse"
       id="linearGradient11010" />
    <linearGradient
       gradientTransform="matrix(2.109118,0,0,2.14076,-18.761917,-596.802139)"
       x2="18.59"
       x1="15.448"
       gradientUnits="userSpaceOnUse"
       id="linearGradient11004">
      <stop
         id="stop11006"
         stop-opacity="1"
         stop-color="#787878" />
      <stop
         id="stop11008"
         stop-opacity="1"
         stop-color="#9c9c9c"
         offset="1" />
    </linearGradient>
    <linearGradient
       xlink:href="#linear0"
       gradientTransform="matrix(2.109118,0,0,2.14076,-18.761917,-596.802139)"
       x2="26.439"
       x1="18.15"
       gradientUnits="userSpaceOnUse"
       id="linearGradient11002" />
    <linearGradient
       gradientTransform="matrix(2.109118,0,0,2.14076,-18.761917,-596.802139)"
       x2="26.06"
       x1="19.54"
       gradientUnits="userSpaceOnUse"
       id="linearGradient10996">
      <stop
         id="stop10998"
         stop-opacity="1"
         stop-color="#369dcf" />
      <stop
         id="stop11000"
         stop-opacity="1"
         stop-color="#116995"
         offset="1" />
    </linearGradient>
    <linearGradient
       xlink:href="#linear0"
       gradientTransform="matrix(2.109118,0,0,2.14076,-18.761917,-596.80214)"
       x2="25.532"
       x1="21.358"
       gradientUnits="userSpaceOnUse"
       id="linear6" />
    <linearGradient
       xlink:href="#linear0"
       gradientTransform="matrix(2.109118,0,0,2.14076,-18.761917,-596.80214)"
       x2="23.508"
       x1="19.678"
       gradientUnits="userSpaceOnUse"
       id="linear5" />
    <linearGradient
       xlink:href="#linear0"
       gradientTransform="matrix(2.109118,0,0,2.14076,-18.761917,-596.80214)"
       x2="21.51"
       x1="15.259"
       gradientUnits="userSpaceOnUse"
       id="linear4" />
    <linearGradient
       xlink:href="#linear2"
       gradientTransform="matrix(2.109118,0,0,2.14076,-18.761917,-596.80214)"
       x2="19.854"
       x1="14.11"
       gradientUnits="userSpaceOnUse"
       id="linear3" />
    <linearGradient
       gradientTransform="matrix(2.109118,0,0,2.14076,-18.761917,-596.802139)"
       x2="18.59"
       x1="15.448"
       gradientUnits="userSpaceOnUse"
       id="linear2">
      <stop
         id="stop10988"
         stop-opacity="1"
         stop-color="#787878" />
      <stop
         id="stop10990"
         stop-opacity="1"
         stop-color="#9c9c9c"
         offset="1" />
    </linearGradient>
    <linearGradient
       xlink:href="#linear0"
       gradientTransform="matrix(2.109118,0,0,2.14076,-18.761917,-596.80214)"
       x2="26.439"
       x1="18.15"
       gradientUnits="userSpaceOnUse"
       id="linear1" />
    <linearGradient
       gradientTransform="matrix(2.109118,0,0,2.14076,-18.761917,-596.802139)"
       x2="26.06"
       x1="19.54"
       gradientUnits="userSpaceOnUse"
       id="linear0">
      <stop
         id="stop10982"
         stop-opacity="1"
         stop-color="#369dcf" />
      <stop
         id="stop10984"
         stop-opacity="1"
         stop-color="#116995"
         offset="1" />
    </linearGradient>
    <clipPath
       id="clipPath-429196716">
      <g
         id="g10977"
         transform="translate(0,-1004.3622)">
        <path
           id="path10979"
           fill="#1890d0"
           transform="matrix(15.333333,0,0,11.5,414.99999,878.8622)"
           d="m -24 13 c 0 1.105 -0.672 2 -1.5 2 -0.828 0 -1.5 -0.895 -1.5 -2 0 -1.105 0.672 -2 1.5 -2 0.828 0 1.5 0.895 1.5 2 z" />
      </g>
    </clipPath>
    <clipPath
       id="clipPath-420376025">
      <g
         id="g10972"
         transform="translate(0,-1004.3622)">
        <path
           id="path10974"
           fill="#1890d0"
           transform="matrix(15.333333,0,0,11.5,414.99999,878.8622)"
           d="m -24 13 c 0 1.105 -0.672 2 -1.5 2 -0.828 0 -1.5 -0.895 -1.5 -2 0 -1.105 0.672 -2 1.5 -2 0.828 0 1.5 0.895 1.5 2 z" />
      </g>
    </clipPath>
    <linearGradient
       gradientTransform="matrix(0,-1,1,0,-1.5e-6,47.999998)"
       gradientUnits="userSpaceOnUse"
       x2="47"
       x1="1"
       id="linearGradient3764">
      <stop
         id="stop10967"
         stop-opacity="1"
         stop-color="#e4e4e4" />
      <stop
         id="stop10969"
         stop-opacity="1"
         stop-color="#eee"
         offset="1" />
    </linearGradient>
    <clipPath
       id="clipPath-070355160">
      <g
         id="g11986"
         transform="translate(0,-1004.3622)">
        <path
           id="path11988"
           fill="#1890d0"
           transform="matrix(15.333333,0,0,11.5,414.99999,878.8622)"
           d="m -24 13 c 0 1.105 -0.672 2 -1.5 2 -0.828 0 -1.5 -0.895 -1.5 -2 0 -1.105 0.672 -2 1.5 -2 0.828 0 1.5 0.895 1.5 2 z" />
      </g>
    </clipPath>
    <clipPath
       id="clipPath-065329906">
      <g
         id="g11981"
         transform="translate(0,-1004.3622)">
        <path
           id="path11983"
           fill="#1890d0"
           transform="matrix(15.333333,0,0,11.5,414.99999,878.8622)"
           d="m -24 13 c 0 1.105 -0.672 2 -1.5 2 -0.828 0 -1.5 -0.895 -1.5 -2 0 -1.105 0.672 -2 1.5 -2 0.828 0 1.5 0.895 1.5 2 z" />
      </g>
    </clipPath>
    <linearGradient
       gradientTransform="matrix(0,-1,1,0,-1.5e-6,47.999998)"
       gradientUnits="userSpaceOnUse"
       x2="47"
       x1="1"
       id="linearGradient3764-6">
      <stop
         id="stop11976"
         stop-opacity="1"
         stop-color="#bdc7db" />
      <stop
         id="stop11978"
         stop-opacity="1"
         stop-color="#cad2e2"
         offset="1" />
    </linearGradient>
    <clipPath
       id="clipPath-034436465">
      <g
         id="g17318"
         transform="translate(0,-1004.3622)">
        <path
           id="path17320"
           fill="#1890d0"
           transform="matrix(15.333333,0,0,11.5,414.99999,878.8622)"
           d="m -24 13 c 0 1.105 -0.672 2 -1.5 2 -0.828 0 -1.5 -0.895 -1.5 -2 0 -1.105 0.672 -2 1.5 -2 0.828 0 1.5 0.895 1.5 2 z" />
      </g>
    </clipPath>
    <clipPath
       id="clipPath-023986373">
      <g
         id="g17313"
         transform="translate(0,-1004.3622)">
        <path
           id="path17315"
           fill="#1890d0"
           transform="matrix(15.333333,0,0,11.5,414.99999,878.8622)"
           d="m -24 13 c 0 1.105 -0.672 2 -1.5 2 -0.828 0 -1.5 -0.895 -1.5 -2 0 -1.105 0.672 -2 1.5 -2 0.828 0 1.5 0.895 1.5 2 z" />
      </g>
    </clipPath>
    <linearGradient
       gradientTransform="matrix(0,-1,1,0,-1.5e-6,47.999998)"
       gradientUnits="userSpaceOnUse"
       x2="47"
       x1="1"
       id="linearGradient3764-2">
      <stop
         id="stop17308"
         stop-opacity="1"
         stop-color="#73cf19" />
      <stop
         id="stop17310"
         stop-opacity="1"
         stop-color="#7de21b"
         offset="1" />
    </linearGradient>
    <clipPath
       id="clipPath-831301061">
      <g
         id="g17782"
         transform="translate(0,-1004.3622)">
        <path
           id="path17784"
           fill="#1890d0"
           transform="matrix(15.333333,0,0,11.5,414.99999,878.8622)"
           d="m -24 13 c 0 1.105 -0.672 2 -1.5 2 -0.828 0 -1.5 -0.895 -1.5 -2 0 -1.105 0.672 -2 1.5 -2 0.828 0 1.5 0.895 1.5 2 z" />
      </g>
    </clipPath>
    <clipPath
       id="clipPath-821841841">
      <g
         id="g17777"
         transform="translate(0,-1004.3622)">
        <path
           id="path17779"
           fill="#1890d0"
           transform="matrix(15.333333,0,0,11.5,414.99999,878.8622)"
           d="m -24 13 c 0 1.105 -0.672 2 -1.5 2 -0.828 0 -1.5 -0.895 -1.5 -2 0 -1.105 0.672 -2 1.5 -2 0.828 0 1.5 0.895 1.5 2 z" />
      </g>
    </clipPath>
    <linearGradient
       gradientTransform="matrix(0,-1,1,0,-1.5e-6,47.999998)"
       gradientUnits="userSpaceOnUse"
       x2="47"
       x1="1"
       id="linearGradient3764-7">
      <stop
         id="stop17772"
         stop-opacity="1"
         stop-color="#f2521a" />
      <stop
         id="stop17774"
         stop-opacity="1"
         stop-color="#f3612d"
         offset="1" />
    </linearGradient>
  </defs>
  <sodipodi:namedview
     pagecolor="#ffffff"
     bordercolor="#666666"
     borderopacity="1"
     objecttolerance="10"
     gridtolerance="10"
     guidetolerance="10"
     inkscape:pageopacity="0"
     inkscape:pageshadow="2"
     inkscape:window-width="1316"
     inkscape:window-height="674"
     id="namedview4"
     showgrid="false"
     inkscape:zoom="3.6875"
     inkscape:cx="-15.186441"
     inkscape:cy="32"
     inkscape:window-x="44"
     inkscape:window-y="29"
     inkscape:window-maximized="1"
     inkscape:current-layer="svg2" />
  <rect
     style="fill:#000000;fill-opacity:1;stroke:#000000;stroke-width:0.53665989999999997;stroke-linecap:round;stroke-linejoin:round;stroke-miterlimit:4;stroke-opacity:1;stroke-dasharray:none"
     id="rect3005"
     width="59.081985"
     height="59.624359"
     x="2.4590092"
     y="2.1878221"
     ry="5.9392786"
     rx="5.9392786" />
  <g
     id="g11030"
     transform="translate(-116.4312,-10.669492)" />
  <g
     id="g12002"
     transform="translate(-120.22781,-23.957627)" />
  <g
     id="g17334"
     transform="translate(-122.12612,-7.1440678)" />
  <g
     id="g17798"
     transform="translate(-107.21086,-6.059322)" />
  <g
     id="g17812"
     transform="matrix(1.5058943,0,0,1.4882495,-3.8347402,-4.7581644)">
    <g
       clip-path="url(#clipPath-831301061)"
       id="g17814">
      <!-- color: #f3612d -->
      <g
         id="g17816">
        <path
           style="fill:#f9f9f9;fill-opacity:1;fill-rule:nonzero;stroke:none"
           inkscape:connector-curvature="0"
           d="m 21.254,9 c -0.313,0 -0.586,0.379 -0.586,0.879 l 0,2.953 c 0,0.043 0.027,0.078 0.031,0.121 -0.863,0.242 -1.695,0.594 -2.469,1.012 L 16.312,12.11 c -0.125,-0.125 -0.246,-0.188 -0.391,-0.254 -0.316,-0.207 -0.629,-0.27 -0.809,-0.094 l -3.934,3.801 c -0.23,0.215 -0.105,0.684 0.258,1.039 l 2.02,1.949 c 0.027,0.023 0.039,0.039 0.066,0.063 -0.297,0.531 -0.574,1.086 -0.781,1.664 l -2.695,0 c -0.371,0 -0.68,0.172 -0.813,0.41 -0.137,0.117 -0.227,0.273 -0.227,0.441 l 0,6.438 c 0,0.371 0.379,0.66 0.879,0.66 l 2.762,0 c 0.105,0 0.203,-0.039 0.297,-0.066 0.219,0.543 0.48,1.066 0.777,1.566 -0.035,0.031 -0.066,0.066 -0.105,0.098 l -1.977,1.918 c -0.289,0.273 -0.398,0.578 -0.328,0.816 -0.035,0.172 -0.004,0.34 0.102,0.441 l 3.902,3.801 c 0.223,0.215 0.707,0.098 1.07,-0.25 l 2.02,-1.949 c 0.109,-0.109 0.164,-0.227 0.227,-0.348 0.656,0.32 1.355,0.582 2.078,0.785 -0.004,0.043 -0.031,0.082 -0.031,0.125 l 0,2.918 c 0,0.5 0.273,0.91 0.586,0.91 l 5.492,0 c 0.309,0 0.551,-0.41 0.551,-0.91 l 0,-2.918 c 0,-0.043 0.004,-0.082 0,-0.125 0.824,-0.23 1.629,-0.52 2.375,-0.91 0.055,0.16 0.141,0.328 0.293,0.473 l 2.02,1.949 c 0.363,0.352 0.82,0.465 1.043,0.25 L 36.973,33 c 0.109,-0.109 0.141,-0.289 0.098,-0.473 0.047,-0.234 -0.09,-0.523 -0.355,-0.785 l -1.984,-1.918 c -0.102,-0.098 -0.215,-0.195 -0.328,-0.25 0.262,-0.457 0.484,-0.922 0.691,-1.414 0.094,0.023 0.188,0.063 0.293,0.063 l 2.727,0 c 0.5,0 0.91,-0.293 0.91,-0.66 l 0,-6.438 c 0,-0.176 -0.109,-0.32 -0.258,-0.438 -0.004,-0.008 0.004,-0.027 0,-0.035 -0.012,-0.004 -0.023,-0.023 -0.031,-0.031 -0.145,-0.203 -0.445,-0.348 -0.781,-0.348 l -2.664,0 c -0.176,-0.5 -0.438,-0.977 -0.684,-1.445 0.125,-0.059 0.242,-0.141 0.355,-0.25 l 2.02,-1.949 c 0.363,-0.352 0.449,-0.82 0.23,-1.039 L 33.31,11.789 c -0.168,-0.164 -0.48,-0.137 -0.781,0.031 -0.168,0.055 -0.328,0.133 -0.488,0.285 l -1.98,1.914 c -0.02,0.02 -0.02,0.047 -0.031,0.066 -0.836,-0.477 -1.746,-0.867 -2.695,-1.133 0.004,-0.043 0,-0.082 0,-0.121 l 0,-2.953 c 0,-0.5 -0.242,-0.879 -0.555,-0.879 m 0.992,7 c 0.316,-0.02 0.652,0.059 0.941,0.223 0.781,0.434 1.031,1.41 0.586,2.168 -0.449,0.758 -1.43,1 -2.211,0.566 -0.781,-0.438 -1.07,-1.379 -0.617,-2.137 0.285,-0.477 0.773,-0.781 1.301,-0.82 m -3.773,1.539 c 0.531,0 1.059,0.043 1.563,0.156 0.043,0.738 0.457,1.457 1.172,1.852 0.715,0.402 1.559,0.402 2.242,0.066 1.063,1.094 1.688,2.469 1.816,3.957 l -2.797,0 c -0.273,-1.895 -1.961,-3.332 -3.996,-3.332 -0.527,0 -1.027,0.102 -1.492,0.285 l -1.434,-2.355 c 0.898,-0.41 1.902,-0.629 2.926,-0.629 m -3.898,1.164 1.395,2.355 c -0.938,0.715 -1.559,1.832 -1.559,3.078 0,1.246 0.617,2.355 1.559,3.078 l -1.395,2.352 c -0.324,-0.223 -0.652,-0.473 -0.941,-0.754 -0.813,-0.781 -1.367,-1.727 -1.691,-2.762 0.645,-0.406 1.074,-1.117 1.074,-1.918 0,-0.797 -0.426,-1.48 -1.074,-1.891 0.324,-1.027 0.879,-2.01 1.691,-2.793 0.289,-0.277 0.613,-0.527 0.941,-0.754 m -3.934,3.859 c 0.902,0 1.656,0.699 1.656,1.57 0,0.871 -0.754,1.57 -1.656,1.57 -0.902,0 -1.629,-0.699 -1.629,-1.57 0,-0.871 0.727,-1.57 1.629,-1.57 m 11.828,2.137 2.797,0 c -0.129,1.492 -0.75,2.863 -1.816,3.957 -0.688,-0.336 -1.531,-0.336 -2.242,0.066 -0.719,0.398 -1.133,1.113 -1.172,1.852 -0.508,0.113 -1.027,0.156 -1.563,0.156 -1.02,0 -2.023,-0.219 -2.926,-0.625 l 1.398,-2.328 c 0.465,0.191 0.996,0.285 1.523,0.285 2.035,0 3.727,-1.465 3.996,-3.363 m 0.035,4.398 c 0.527,0.035 1.023,0.313 1.301,0.785 0.453,0.754 0.168,1.73 -0.613,2.168 -0.781,0.438 -1.789,0.191 -2.242,-0.566 -0.449,-0.758 -0.164,-1.727 0.617,-2.168 0.293,-0.164 0.629,-0.242 0.938,-0.219 m 0,0"
           id="path17818" />
      </g>
    </g>
  </g>
</svg>
