<?xml version="1.0" encoding="UTF-8" standalone="no"?>
<!-- Created with Inkscape (http://www.inkscape.org/) -->

<svg
   xmlns:dc="http://purl.org/dc/elements/1.1/"
   xmlns:cc="http://creativecommons.org/ns#"
   xmlns:rdf="http://www.w3.org/1999/02/22-rdf-syntax-ns#"
   xmlns:svg="http://www.w3.org/2000/svg"
   xmlns="http://www.w3.org/2000/svg"
   xmlns:sodipodi="http://sodipodi.sourceforge.net/DTD/sodipodi-0.dtd"
   xmlns:inkscape="http://www.inkscape.org/namespaces/inkscape"
   id="svg2"
   version="1.1"
   inkscape:version="0.48.4 r9939"
   width="64"
   height="64"
   sodipodi:docname="base.svg">
  <metadata
     id="metadata8">
    <rdf:RDF>
      <cc:Work
         rdf:about="">
        <dc:format>image/svg+xml</dc:format>
        <dc:type
           rdf:resource="http://purl.org/dc/dcmitype/StillImage" />
        <dc:title></dc:title>
      </cc:Work>
    </rdf:RDF>
  </metadata>
  <defs
     id="defs6" />
  <sodipodi:namedview
     pagecolor="#ffffff"
     bordercolor="#666666"
     borderopacity="1"
     objecttolerance="10"
     gridtolerance="10"
     guidetolerance="10"
     inkscape:pageopacity="0"
     inkscape:pageshadow="2"
     inkscape:window-width="1316"
     inkscape:window-height="674"
     id="namedview4"
     showgrid="false"
     inkscape:zoom="3.6875"
     inkscape:cx="-15.186441"
     inkscape:cy="32"
     inkscape:window-x="44"
     inkscape:window-y="29"
     inkscape:window-maximized="1"
     inkscape:current-layer="svg2" />
  <rect
     style="fill:#000000;fill-opacity:1;stroke:#000000;stroke-width:0.53665989999999997;stroke-linecap:round;stroke-linejoin:round;stroke-miterlimit:4;stroke-opacity:1;stroke-dasharray:none"
     id="rect3005"
     width="59.081985"
     height="59.624359"
     x="2.4590092"
     y="2.1878221"
     ry="5.9392786"
     rx="5.9392786" />
  <g
     id="g4102"
     transform="matrix(2.0876064,0,0,2.4915876,11.530455,5.5935329)"
     style="fill:#ffffff">
    <g
       id="icomoon-ignore"
       style="fill:#ffffff" />
    <path
       id="path4094"
       d="m 10,12.079 c 2.39,0 4.391,-0.812 4.512,-1.873 C 14.157,9.209 13.769,8.122 13.388,7.053 13.124,7.815 11.663,8.353 10,8.353 8.337,8.353 6.877,7.816 6.611,7.054 6.23,8.123 5.844,9.209 5.488,10.207 5.609,11.267 7.609,12.079 10,12.079 z m 0,-6.705 c 1.123,0 2.167,-0.348 2.473,-0.888 C 12.052,3.303 11.69,2.289 11.461,1.649 11.31,1.222 10.621,1 10,1 9.379,1 8.69,1.222 8.539,1.648 8.31,2.288 7.949,3.303 7.527,4.485 7.833,5.026 8.877,5.374 10,5.374 z m 8.78,7.692 -3.755,-1.513 0.433,1.207 c -0.022,1.278 -2.505,2.298 -5.458,2.298 -2.953,0 -5.436,-1.02 -5.457,-2.298 L 4.975,11.553 1.22,13.066 c -1.053,0.425 -1.097,1.21 -0.099,1.745 l 7.062,3.787 c 0.999,0.535 2.634,0.535 3.633,0 l 7.062,-3.787 c 1,-0.535 0.955,-1.32 -0.098,-1.745 z"
       inkscape:connector-curvature="0"
       style="fill:#ffffff" />
  </g>
</svg>
