<?xml version="1.0" encoding="UTF-8" standalone="no"?>
<!-- Created with Inkscape (http://www.inkscape.org/) -->

<svg
   xmlns:dc="http://purl.org/dc/elements/1.1/"
   xmlns:cc="http://creativecommons.org/ns#"
   xmlns:rdf="http://www.w3.org/1999/02/22-rdf-syntax-ns#"
   xmlns:svg="http://www.w3.org/2000/svg"
   xmlns="http://www.w3.org/2000/svg"
   xmlns:sodipodi="http://sodipodi.sourceforge.net/DTD/sodipodi-0.dtd"
   xmlns:inkscape="http://www.inkscape.org/namespaces/inkscape"
   id="svg2"
   version="1.1"
   inkscape:version="0.48.4 r9939"
   width="64"
   height="64"
   sodipodi:docname="wine.svg">
  <metadata
     id="metadata8">
    <rdf:RDF>
      <cc:Work
         rdf:about="">
        <dc:format>image/svg+xml</dc:format>
        <dc:type
           rdf:resource="http://purl.org/dc/dcmitype/StillImage" />
        <dc:title />
      </cc:Work>
    </rdf:RDF>
  </metadata>
  <defs
     id="defs6" />
  <sodipodi:namedview
     pagecolor="#ffffff"
     bordercolor="#666666"
     borderopacity="1"
     objecttolerance="10"
     gridtolerance="10"
     guidetolerance="10"
     inkscape:pageopacity="0"
     inkscape:pageshadow="2"
     inkscape:window-width="1317"
     inkscape:window-height="713"
     id="namedview4"
     showgrid="false"
     inkscape:zoom="3.6875"
     inkscape:cx="-14.644068"
     inkscape:cy="32"
     inkscape:window-x="43"
     inkscape:window-y="24"
     inkscape:window-maximized="1"
     inkscape:current-layer="svg2" />
  <rect
     style="fill:#ffffff;fill-opacity:1;stroke:#000000;stroke-width:0.53665989999999997;stroke-linecap:round;stroke-linejoin:round;stroke-miterlimit:4;stroke-opacity:1;stroke-dasharray:none"
     id="rect3005"
     width="59.081985"
     height="59.624359"
     x="2.4590092"
     y="2.1878221"
     ry="5.9392786"
     rx="5.9392786" />
  <g
     id="g10879"
     transform="matrix(1.4322033,0,0,1.4459836,9.2097464,8.3526977)"
     style="fill:#000000">
    <g
       id="icomoon-ignore-0"
       style="fill:#000000" />
    <path
       id="path10871"
       d="m 12.882,15.997 c -1.491,-0.766 -2.94,-1.155 -4.309,-1.155 -0.186,0 -0.373,0.006 -0.561,0.022 -1.746,0.145 -3.341,0.605 -4.367,0.963 -0.272,0.1 -0.551,0.205 -0.838,0.322 L 0,25.88 c 1.928,-0.713 3.634,-1.061 5.196,-1.061 2.526,0 4.36,0.944 5.875,1.916 0.718,-2.435 2.439,-8.315 2.953,-10.073 -0.373,-0.228 -0.752,-0.455 -1.141,-0.666 z m 3.629,2.474 -2.826,9.817 c 0.838,0.48 3.659,2.002 5.819,2.002 1.744,0 3.695,-0.447 5.964,-1.369 l 2.699,-9.437 c -1.832,0.591 -3.59,0.891 -5.233,0.891 -2.998,0 -5.097,-0.972 -6.422,-1.905 z m -7.36,-6.946 c 2.41,0.025 4.192,0.944 5.669,1.891 L 17.719,3.499 C 17.108,3.149 15.506,2.277 14.348,1.98 13.586,1.802 12.785,1.711 11.935,1.711 10.316,1.741 8.548,2.147 6.532,2.955 l -2.764,9.706 c 2.025,-0.764 3.77,-1.136 5.378,-1.136 10e-4,0 0.004,0 0.004,0 z M 32,6.191 c -1.838,0.713 -3.631,1.077 -5.345,1.077 -2.865,0 -4.978,-0.994 -6.347,-1.949 l -2.873,9.945 c 1.93,1.241 4.009,1.871 6.191,1.871 1.78,0 3.623,-0.427 5.483,-1.271 l -0.006,-0.069 0.117,-0.028 2.779,-9.576 z"
       inkscape:connector-curvature="0"
       style="fill:#000000" />
  </g>
</svg>
