<?xml version="1.0" encoding="UTF-8" standalone="no"?>
<!-- Created with Inkscape (http://www.inkscape.org/) -->

<svg
   xmlns:dc="http://purl.org/dc/elements/1.1/"
   xmlns:cc="http://creativecommons.org/ns#"
   xmlns:rdf="http://www.w3.org/1999/02/22-rdf-syntax-ns#"
   xmlns:svg="http://www.w3.org/2000/svg"
   xmlns="http://www.w3.org/2000/svg"
   xmlns:sodipodi="http://sodipodi.sourceforge.net/DTD/sodipodi-0.dtd"
   xmlns:inkscape="http://www.inkscape.org/namespaces/inkscape"
   id="svg2"
   version="1.1"
   inkscape:version="0.48.4 r9939"
   width="64"
   height="64"
   sodipodi:docname="maps.svg">
  <metadata
     id="metadata8">
    <rdf:RDF>
      <cc:Work
         rdf:about="">
        <dc:format>image/svg+xml</dc:format>
        <dc:type
           rdf:resource="http://purl.org/dc/dcmitype/StillImage" />
        <dc:title></dc:title>
      </cc:Work>
    </rdf:RDF>
  </metadata>
  <defs
     id="defs6" />
  <sodipodi:namedview
     pagecolor="#ffffff"
     bordercolor="#666666"
     borderopacity="1"
     objecttolerance="10"
     gridtolerance="10"
     guidetolerance="10"
     inkscape:pageopacity="0"
     inkscape:pageshadow="2"
     inkscape:window-width="1316"
     inkscape:window-height="674"
     id="namedview4"
     showgrid="false"
     inkscape:zoom="3.6875"
     inkscape:cx="-15.186441"
     inkscape:cy="32"
     inkscape:window-x="44"
     inkscape:window-y="29"
     inkscape:window-maximized="1"
     inkscape:current-layer="svg2" />
  <rect
     style="fill:#000000;fill-opacity:1;stroke:#000000;stroke-width:0.53665989999999997;stroke-linecap:round;stroke-linejoin:round;stroke-miterlimit:4;stroke-opacity:1;stroke-dasharray:none"
     id="rect3005"
     width="59.081985"
     height="59.624359"
     x="2.4590092"
     y="2.1878221"
     ry="5.9392786"
     rx="5.9392786" />
  <path
     sodipodi:type="arc"
     style="fill:#ffffff;fill-opacity:1;stroke:none"
     id="path2986"
     sodipodi:cx="33.898304"
     sodipodi:cy="30.508474"
     sodipodi:rx="20.067797"
     sodipodi:ry="20.474577"
     d="m 53.966101,30.508474 a 20.067797,20.474577 0 1 1 -40.135594,0 20.067797,20.474577 0 1 1 40.135594,0 z"
     transform="matrix(1.0810811,0,0,1.1192053,-4.1044434,-2.2808394)" />
  <g
     id="g6704"
     transform="matrix(0.93220339,0,0,0.99152542,17.898305,15.728813)">
    <g
       id="icomoon-ignore" />
    <path
       id="path6696"
       d="M 27.313,4.687 C 24.418,1.791 20.418,0 16,0 9.141,0 3.291,4.316 1.016,10.381 l 3.746,1.405 C 6.468,7.238 10.856,4 16,4 c 3.314,0 6.313,1.344 8.485,3.515 L 20,12 H 32 V 0 L 27.313,4.687 z M 16,28 C 12.686,28 9.687,26.657 7.515,24.485 L 12,20 H 0 V 32 L 4.687,27.313 C 7.582,30.209 11.581,32 16,32 22.859,32 28.709,27.684 30.984,21.619 L 27.238,20.214 C 25.532,24.762 21.144,28 16,28 z"
       inkscape:connector-curvature="0"
       style="fill:#000000" />
  </g>
</svg>
