<?xml version="1.0" encoding="UTF-8" standalone="no"?>
<!-- Created with Inkscape (http://www.inkscape.org/) -->

<svg
   xmlns:dc="http://purl.org/dc/elements/1.1/"
   xmlns:cc="http://creativecommons.org/ns#"
   xmlns:rdf="http://www.w3.org/1999/02/22-rdf-syntax-ns#"
   xmlns:svg="http://www.w3.org/2000/svg"
   xmlns="http://www.w3.org/2000/svg"
   xmlns:sodipodi="http://sodipodi.sourceforge.net/DTD/sodipodi-0.dtd"
   xmlns:inkscape="http://www.inkscape.org/namespaces/inkscape"
   id="svg2"
   version="1.1"
   inkscape:version="0.48.4 r9939"
   width="64"
   height="64"
   sodipodi:docname="amsn.svg">
  <metadata
     id="metadata8">
    <rdf:RDF>
      <cc:Work
         rdf:about="">
        <dc:format>image/svg+xml</dc:format>
        <dc:type
           rdf:resource="http://purl.org/dc/dcmitype/StillImage" />
        <dc:title></dc:title>
      </cc:Work>
    </rdf:RDF>
  </metadata>
  <defs
     id="defs6" />
  <sodipodi:namedview
     pagecolor="#ffffff"
     bordercolor="#666666"
     borderopacity="1"
     objecttolerance="10"
     gridtolerance="10"
     guidetolerance="10"
     inkscape:pageopacity="0"
     inkscape:pageshadow="2"
     inkscape:window-width="1316"
     inkscape:window-height="674"
     id="namedview4"
     showgrid="false"
     inkscape:zoom="3.6875"
     inkscape:cx="-13.786441"
     inkscape:cy="32"
     inkscape:window-x="44"
     inkscape:window-y="29"
     inkscape:window-maximized="1"
     inkscape:current-layer="svg2" />
  <rect
     style="fill:#000000;fill-opacity:1;stroke:#000000;stroke-width:0.5366599;stroke-linecap:round;stroke-linejoin:round;stroke-miterlimit:4;stroke-opacity:1;stroke-dasharray:none"
     id="rect3005"
     width="59.081985"
     height="59.624359"
     x="2.4590082"
     y="2.7301934"
     ry="5.9392786"
     rx="5.9392786" />
  <path
     sodipodi:type="arc"
     style="fill:#ffffff;fill-opacity:1;stroke:none"
     id="path2986"
     sodipodi:cx="33.898304"
     sodipodi:cy="30.508474"
     sodipodi:rx="20.067797"
     sodipodi:ry="20.474577"
     d="m 53.966101,30.508474 a 20.067797,20.474577 0 1 1 -40.135594,0 20.067797,20.474577 0 1 1 40.135594,0 z"
     transform="matrix(1.0810811,0,0,1.1192053,-4.9180029,-2.009653)" />
  <g
     id="g12442"
     transform="translate(16.044067,15.457628)">
    <g
       id="icomoon-ignore" />
    <path
       id="path12434"
       d="M 20,4.581 V 8.83 c 1.131,0.494 2.172,1.2 3.071,2.099 C 24.96,12.818 26,15.329 26,18 26,20.671 24.96,23.182 23.071,25.071 21.182,26.96 18.671,28 16,28 13.329,28 10.818,26.96 8.929,25.071 7.04,23.182 6,20.671 6,18 6,15.329 7.04,12.818 8.929,10.929 9.828,10.03 10.869,9.323 12,8.83 V 4.581 C 6.217,6.302 2,11.658 2,18 2,25.732 8.268,32 16,32 23.732,32 30,25.732 30,18 30,11.658 25.783,6.302 20,4.581 z M 14,0 h 4 v 16 h -4 z"
       inkscape:connector-curvature="0"
       style="fill:#000000" />
  </g>
</svg>
