<?xml version="1.0" encoding="UTF-8" standalone="no"?>
<!-- Created with Inkscape (http://www.inkscape.org/) -->

<svg
   xmlns:dc="http://purl.org/dc/elements/1.1/"
   xmlns:cc="http://creativecommons.org/ns#"
   xmlns:rdf="http://www.w3.org/1999/02/22-rdf-syntax-ns#"
   xmlns:svg="http://www.w3.org/2000/svg"
   xmlns="http://www.w3.org/2000/svg"
   xmlns:sodipodi="http://sodipodi.sourceforge.net/DTD/sodipodi-0.dtd"
   xmlns:inkscape="http://www.inkscape.org/namespaces/inkscape"
   id="svg2"
   version="1.1"
   inkscape:version="0.48.4 r9939"
   width="64"
   height="64"
   sodipodi:docname="base-multiple-mono-3.svg">
  <metadata
     id="metadata8">
    <rdf:RDF>
      <cc:Work
         rdf:about="">
        <dc:format>image/svg+xml</dc:format>
        <dc:type
           rdf:resource="http://purl.org/dc/dcmitype/StillImage" />
        <dc:title />
      </cc:Work>
    </rdf:RDF>
  </metadata>
  <defs
     id="defs6" />
  <sodipodi:namedview
     pagecolor="#ffffff"
     bordercolor="#666666"
     borderopacity="1"
     objecttolerance="10"
     gridtolerance="10"
     guidetolerance="10"
     inkscape:pageopacity="0"
     inkscape:pageshadow="2"
     inkscape:window-width="1317"
     inkscape:window-height="713"
     id="namedview4"
     showgrid="false"
     inkscape:zoom="3.6875"
     inkscape:cx="-14.101695"
     inkscape:cy="32"
     inkscape:window-x="43"
     inkscape:window-y="24"
     inkscape:window-maximized="1"
     inkscape:current-layer="svg2" />
  <rect
     style="fill:#000000;fill-opacity:1;stroke:#000000;stroke-width:0.53665989999999997;stroke-linecap:round;stroke-linejoin:round;stroke-miterlimit:4;stroke-opacity:1;stroke-dasharray:none"
     id="rect3005"
     width="59.081985"
     height="59.624359"
     x="2.4590092"
     y="2.1878221"
     ry="5.9392786"
     rx="5.9392786" />
  <g
     id="g18535"
     transform="translate(-19.389331,1.219669)">
    <g
       id="icomoon-ignore" />
    <path
       id="path18527"
       d="M 14.779,12.779 C 13.308,14.772 10.748,16.024 8,16 5.252,16.023 2.691,14.771 1.221,12.779 L 0,14 v -4 h 4 l -1.1,1.099 c 0.882,1.46 2.357,2.509 4.1,2.807 V 7.859 C 5.277,7.413 4,5.862 4,4.001 c 0,-2.209 1.791,-4 4,-4 2.209,0 4,1.791 4,4 0,1.862 -1.277,3.413 -3,3.858 v 6.047 c 1.742,-0.297 3.218,-1.347 4.099,-2.807 L 11.999,10 h 4 v 4 L 14.778,12.779 z M 10,4 C 10,2.896 9.105,2 8,2 6.895,2 6,2.895 6,4 6,5.104 6.895,6 8,6 9.105,6 10,5.104 10,4 z"
       inkscape:connector-curvature="0"
       style="fill:#000000" />
  </g>
  <g
     id="g18690"
     transform="translate(-22.644068,24)">
    <g
       id="icomoon-ignore-1" />
    <path
       id="path18682"
       d="m 9.5,0 h -3 C 2.91,0 0,2.91 0,6.5 0,8.826 1.231,10.852 3.068,12 H 3 v 4 l 4.5,-3 h 2 C 13.09,13 16,10.09 16,6.5 16,2.91 13.09,0 9.5,0 z m 0,11 h -2 L 5,12.5 V 10.725 C 3.256,10.105 2,8.456 2,6.5 2,4.015 4.015,2 6.5,2 h 3 C 11.985,2 14,4.015 14,6.5 14,8.985 11.985,11 9.5,11 z"
       inkscape:connector-curvature="0"
       style="fill:#000000" />
  </g>
  <g
     id="g18867"
     transform="translate(-18.847458,41.084746)">
    <g
       id="icomoon-ignore-0" />
    <path
       id="path18859"
       d="m 4,7 h 8 V 9 H 4 z M 4,4 h 8 V 6 H 4 z M 15,0 H 1 C 0.447,0 0,0.447 0,1 v 11 c 0,0.553 0.447,1 1,1 h 2 v 3 L 7.5,13 H 15 c 0.553,0 1,-0.447 1,-1 V 1 C 16,0.447 15.553,0 15,0 z M 14,11 H 7.5 L 5,12.5 V 11 H 2 V 2 h 12 v 9 z"
       inkscape:connector-curvature="0"
       style="fill:#000000" />
  </g>
  <g
     id="g18956"
     transform="translate(-43.79661,0.6779661)">
    <g
       id="icomoon-ignore-3" />
    <path
       id="path18948"
       d="M 15,16 H 1 C 0.448,16 0,15.553 0,15 V 1 C 0,0.447 0.448,0 1,0 H 11 L 9,2 H 2 V 14 H 14 V 7 l 2,-2 v 10 c 0,0.553 -0.448,1 -1,1 z M 4,12 V 9 l 9,-9 h 1 l 2,2 V 3 L 7,12 H 4 z M 8.5,8.5 14,3 13,2 7.5,7.5 l 1,1 z M 6,9 5,10 v 1 H 6 L 7,10 6,9 z"
       inkscape:connector-curvature="0"
       style="fill:#000000" />
  </g>
  <g
     id="g19067"
     transform="translate(-44.881356,24.542373)">
    <g
       id="icomoon-ignore-9" />
    <path
       id="path19059"
       d="M 15,2 H 1 C 0.448,2 0,2.447 0,3 v 10 c 0,0.553 0.448,1 1,1 h 14 c 0.552,0 1,-0.447 1,-1 V 3 C 16,2.447 15.552,2 15,2 z M 13,4 8,8 3,4 h 10 z m 1,8 H 2 V 5 l 6,5 6,-5 v 7 z"
       inkscape:connector-curvature="0"
       style="fill:#000000" />
  </g>
  <g
     id="g19596"
     transform="translate(-43.254237,41.355932)">
    <g
       id="icomoon-ignore-99" />
    <path
       id="path19588"
       d="M 15,0 H 1 C 0.448,0 0,0.447 0,1 v 11 c 0,0.553 0.448,1 1,1 h 6 v 1 H 4 c -0.552,0 -1,0.447 -1,1 v 1 h 10 v -1 c 0,-0.553 -0.448,-1 -1,-1 H 9 v -1 h 6 c 0.552,0 1,-0.447 1,-1 V 1 C 16,0.447 15.552,0 15,0 z M 14,11 H 2 V 2 h 12 v 9 z"
       inkscape:connector-curvature="0"
       style="fill:#000000" />
  </g>
  <g
     id="g20092"
     transform="translate(-42.712865,60.881856)">
    <g
       id="icomoon-ignore-5" />
    <path
       id="path20084"
       d="m 16,7 v 2 h -2.091 c -0.149,0.886 -0.501,1.699 -0.995,2.407 l 2.097,1.823 -1.443,1.783 -2.312,-2.011 C 10.583,13.44 9.824,13.759 9,13.898 v 2.101 H 7 V 13.908 C 6.173,13.768 5.414,13.446 4.74,13.005 L 2.432,15.013 0.989,13.23 3.09,11.403 C 2.601,10.696 2.251,9.884 2.102,9 H 0.001 V 7 H 2.092 C 2.241,6.114 2.593,5.301 3.087,4.593 L 0.99,2.77 2.433,0.987 4.745,2.998 C 5.418,2.56 6.177,2.241 7.001,2.101 V 0 h 2 v 2.101 c 0.825,0.14 1.583,0.459 2.256,0.897 L 13.569,0.987 15.012,2.77 12.915,4.593 C 13.408,5.301 13.76,6.114 13.91,7 h 2.091 z M 8,5 C 6.343,5 5,6.343 5,8 5,9.657 6.343,11 8,11 9.657,11 11,9.657 11,8 11,6.343 9.657,5 8,5 z"
       inkscape:connector-curvature="0"
       style="fill:#000000" />
  </g>
  <path
     id="path3184"
     d="m -67.377392,17.934718 c -3.19872,1.255464 -3.585993,4.525577 -2.853651,3.793117 4.304919,-4.442591 6.71418,-8.055257 8.057545,-10.778929 -2.970939,-4.8712069 -2.810064,-10.86520399 0.661751,-9.6398595 2.693123,0.9504534 1.407911,3.2544705 1.407911,3.2544705 0,0 -0.35906,-2.8168929 -2.039433,-2.3750731 -0.401035,0.09232 -0.894944,3.6382789 0.739655,7.0175748 1.101881,-2.8424521 0.880146,-4.3186137 0.880146,-4.3186137 0,0 2.787206,0.6688811 0.252885,6.145443 0.308448,0.395209 0.655705,0.777692 1.045972,1.140607 0.578665,0.610605 1.158769,1.138381 1.732424,1.594306 1.707723,-0.568713 3.394603,-0.980361 4.710734,-0.980361 4.19552,0 4.0852,3.884006 4.0852,3.884006 -0.935134,-1.956851 -3.781243,-2.128817 -6.888413,-1.618062 3.629696,2.033739 6.586643,1.466935 6.586643,1.466935 -0.308966,2.350044 -4.357719,2.564379 -8.926406,-0.976543 -2.490158,0.621104 -4.886348,1.500077 -6.36203,2.084698 -3.798804,5.344683 -7.148092,7.96262 -7.867766,4.814256 -0.911699,-3.988044 4.776833,-4.507972 4.776833,-4.507972 z m 6.948871,-4.68312 -0.615458,-0.703137 -0.626167,1.078513 c -0.525289,0.866936 -1.051384,1.696701 -1.572874,2.48171 1.085875,-0.503701 2.492634,-1.129737 3.978219,-1.702003 -0.387043,-0.357506 -0.775641,-0.742217 -1.16372,-1.155083 z"
     inkscape:connector-curvature="0"
     style="fill:#000000;fill-opacity:1;stroke-width:0.2;stroke-linejoin:round" />
  <path
     id="path3574"
     d="m -63.143652,25.269068 4.551137,0 2.275605,0 c 0.314173,0 0.568883,0.335654 0.568883,0.74967 l 0,0.74967 c 0,0.414064 -0.25471,0.749718 -0.568883,0.749718 l -2.275605,0 c -0.31421,0 -0.568883,-0.335654 -0.568883,-0.74967 -0.0045,0 -1.14003,0.0014 -2.275569,0.74967 l -1.137802,0.74967 -0.568883,0 0,9.745904 0.568883,0 c 1.703128,1.496263 3.406293,1.499388 3.413371,1.499388 0,-0.414016 0.254709,-0.74967 0.568883,-0.74967 l 2.275605,0 c 0.314173,0 0.568883,0.335607 0.568883,0.74967 l 0,0.749671 c 0,0.414063 -0.25471,0.749717 -0.568883,0.749717 l -2.844488,0 -2.275569,0 c 0,0 -0.787123,0 -1.706685,-0.10786 l 0,0.857531 -0.28446,0 0,0.74967 3.850031,0 c 0.196718,-0.448155 0.564428,-0.74967 0.985566,-0.74967 0.628384,0 1.137802,0.671308 1.137802,1.499388 0,0.828079 -0.509418,1.49934 -1.137802,1.49934 -0.421138,0 -0.788848,-0.301516 -0.985566,-0.74967 l -2.996688,0 0,0.74967 c 0,0.414064 -0.25471,0.749718 -0.568883,0.749718 l -2.275605,0 c -0.314174,0 -0.568883,-0.335654 -0.568883,-0.749718 l 0,-0.74967 -0.72112,0 c -0.196718,0.448154 -0.564428,0.74967 -0.985566,0.74967 -0.628383,0 -1.137802,-0.671261 -1.137802,-1.49934 0,-0.82808 0.509419,-1.499388 1.137802,-1.499388 0.421138,0 0.788848,0.301515 0.985566,0.74967 l 1.574463,0 0,-0.74967 -0.28446,0 0,-1.45829 c -0.346475,-0.201137 -0.568883,-0.459329 -0.568883,-0.790769 l 0,-1.499388 0.568883,0 0,-9.745904 -0.568883,0 0,-2.249058 c 0,-0.74967 2.844488,-0.74967 2.844488,-0.74967 z m 3.413371,2.998728 3.840042,0 2.41778,3.186182 0,6.559722 -6.257822,0 0,-9.745904 z m 1.137766,1.499388 0,6.747175 3.98229,0 0,-2.998776 -2.844488,0 0,-3.748399 -1.137802,0 z m 2.275605,0 0,2.249059 1.706685,0 -1.706685,-2.249059 z"
     inkscape:connector-curvature="0"
     style="fill:#000000;fill-opacity:1;stroke-width:0.2;stroke-linejoin:round" />
  <path
     id="path5220"
     d="m -59.217885,52.319234 c 4.858474,0 8.797006,2.766918 8.797006,6.180187 0,2.164516 -1.583973,4.069169 -3.982021,5.173043 0.511237,1.120204 1.408746,2.352207 2.306255,3.903933 -1.866442,-0.739057 -4.657057,-1.453678 -6.313037,-2.922546 l -0.808203,0.02576 c -4.85842,0 -8.796951,-2.766978 -8.796951,-6.180188 0,-3.413269 3.938531,-6.180187 8.796951,-6.180187 z m 2.094523,14.737319 c 0,2.888143 -3.000761,5.229422 -6.702429,5.229422 l -0.509439,-0.01489 c -1.362506,1.431162 -3.25339,2.867308 -5.355214,2.867308 0.48944,-1.110958 1.550801,-2.221856 2.181713,-3.711979 -1.819038,-0.935095 -3.019543,-2.543081 -3.019543,-4.36986 0,-1.825999 1.199606,-3.433444 3.01748,-4.368779 1.556091,1.740859 4.313269,2.898049 7.455238,2.898049 l 0.808203,-0.02576 c 0.592819,0.525908 1.331132,0.955089 2.120394,1.323387 l 0.0036,0.173101 z"
     inkscape:connector-curvature="0"
     style="fill:#000000;fill-opacity:1;stroke-width:0.2;stroke-linejoin:round" />
  <path
     id="path7184"
     d="m -78.003069,4.7393692 c -2.68293,3.435633 -0.3162,6.4664068 -1.21053,7.6116348 l -3.57725,4.58081 -0.44716,-0.572563 -5.36587,9.161672 c -1.4905,-1.52692 -1.7886,-1.145177 -4.47153,-4.580861 -2.68294,-3.435634 -2.38487,-3.817377 -3.57726,-5.726039 l 7.15447,-6.8712668 -0.44712,-0.572614 3.57721,-4.580861 c 0.89433,-1.145229 3.41918,1.885545 6.10211,-1.550089 0.31161,-0.39908 0.70413,-0.99250996 1.12318,-1.66858996 0.93953,0.936917 1.78273,2.02476096 2.50735,3.23519796 -0.55467,0.579059 -1.04333,1.118326 -1.3676,1.533569 z m -10.82439,4.462308 -6.48376,6.2986528 c 0,0 2.23577,-0.858921 2.23577,0.286307 0,1.145228 -0.44717,1.717791 0.44716,1.717791 0.89432,0 2.01223,-0.85887 2.01223,0.286307 0,1.145228 -1.00612,1.288382 -0.11179,2.43361 0.89428,1.145177 2.57114,-2.147303 2.68293,-1.145228 0,1.145228 -0.44717,2.863019 0,3.435633 l 4.13616,-7.01442 -0.22354,-0.286307 -1.78864,2.290405 1.34148,-2.863019 -0.44716,-0.572614 -2.57118,2.147303 2.12402,-2.719866 -0.89433,-1.145228 -2.90651,3.72194 2.45935,-4.294554 -0.44712,-0.572614 -1.67686,2.433558 1.2297,-3.006173 -0.44716,-0.572614 -1.78861,1.145229 1.34144,-1.7177918 -0.22358,-0.286307 z m 0.66995,-1.442429 0.47428,-0.202481 c 0,0 1.10664,-1.619542 2.3714,-2.429365 1.26476,-0.809771 1.10664,-0.20243 3.00377,-0.20243 1.89712,0 4.11044,-3.846477 4.11044,-3.846477 l -0.47428,0 c 0,0 -1.42284,2.429365 -2.6876,3.239136 -1.26472,0.809771 -2.21333,0 -3.47805,0 -1.26476,0 -3.31996,3.441617 -3.31996,3.441617 z"
     inkscape:connector-curvature="0"
     style="fill:#000000;fill-opacity:1;stroke-width:0.2;stroke-linejoin:round" />
  <path
     id="path7516"
     d="m -86.545999,27.644068 6.09335,8.46753 -7.92135,10.007046 -6.70271,-8.467482 3.19901,-4.041313 c 0,0 7.00739,2.694176 7.76903,0.769758 1.21869,-2.309323 -1.828,-2.886653 -1.828,-2.116895 0.60936,0.769806 1.06632,1.73204 1.06632,1.73204 0,0 -7.76899,-0.192476 -8.98768,-4.041362 -0.60932,-3.07908 6.55035,-1.347089 6.55035,-1.347089 l 0.76168,-0.962233 z m -1.828,2.116894 c 0,0 -3.80834,-0.384854 -3.80834,0.384904 0,0.769757 2.28501,1.154661 2.28501,1.154661 l 1.52333,-1.539565 z m 7.92135,5.580878 -4.26534,-6.158208 c 0,0 3.38258,3.028177 3.96066,3.271556 0.457,0.192427 1.52336,-0.962234 2.74205,-0.192476 1.21864,0.769806 -4e-5,2.501798 -4e-5,1.73204 0,-0.769806 -1.82797,-0.192476 -1.82797,-0.192476 3.04665,0.769758 3.65598,2.309322 3.04665,3.07908 -0.60932,0.769806 -1.371,0.769806 -1.371,0 0,-0.769758 -2.28501,-1.539516 -2.28501,-1.539516 z"
     inkscape:connector-curvature="0"
     style="fill:#000000;fill-opacity:1;stroke-width:0.2;stroke-linejoin:round" />
  <path
     id="path9136"
     d="m -88.282552,62.944286 c 0.218375,0 0.395359,0.191708 0.395359,0.428251 0,0.236544 -0.176984,0.428311 -0.395359,0.428311 -0.218376,0 -0.395414,-0.191767 -0.395414,-0.428311 0,-0.236543 0.177038,-0.428251 0.395414,-0.428251 z m 0,1.570353 c 0.218375,0 0.395359,0.191767 0.395359,0.42831 0,0.236544 -0.176984,0.42831 -0.395359,0.42831 -0.218376,0 -0.395414,-0.191766 -0.395414,-0.42831 0,-0.236543 0.177038,-0.42831 0.395414,-0.42831 z m -7.429308,-14.633283 14.067792,0 0,2.344335 -1.623207,0 c -0.271184,2.028026 -1.169629,7.290825 -3.801768,8.791258 2.632139,1.500433 3.530584,6.763232 3.801768,8.791258 l 1.623207,0 0,2.344335 -14.067792,0 0,-2.344335 1.62321,0 c 0.27118,-2.028026 1.16962,-7.290825 3.801708,-8.791258 -2.632088,-1.500433 -3.530528,-6.763232 -3.801708,-8.791258 l -1.62321,0 0,-2.344335 z m 3.516946,2.344335 c 0,0 0.349639,2.768426 1.132241,4.933361 1.274975,-0.654245 3.785697,-1.711247 4.980053,-0.619139 0.642141,-2.002121 0.921603,-4.314222 0.921603,-4.314222 l -7.033897,0 z m 7.047803,17.582516 c 0,0 -1.158483,-7.934638 -3.530855,-7.934638 -2.054006,0 -3.246468,6.004195 -3.522142,7.555325 1.230012,-0.951683 3.192361,-2.701085 3.719849,-3.272458 0,0 1.462997,2.647516 2.868856,3.651771 l 0.464292,0 z"
     inkscape:connector-curvature="0"
     style="fill:#000000;fill-opacity:1;stroke-width:0.2;stroke-linejoin:round" />
  <path
     id="path9920"
     d="m -114.56481,20.599717 1.81352,1.02356 -0.29676,0.03745 0.29676,0.167481 c -2.89541,0.369773 -5.08431,0.509944 -6.71417,0.500634 -4.82898,0.01852 -5.02318,-1.219748 -4.03542,-1.840639 0.22719,-0.230998 0.60904,-0.4186 1.03456,-0.502703 0,1.637779 4.79272,1.023664 7.90151,0.614219 z m 0.6476,-2.866113 1.55439,0.818941 c -3.36857,0.920578 -5.43338,0.975147 -7.27014,0.96594 -4.92945,0.01562 -5.598,-1.095094 -4.6747,-1.598676 0.13967,-0.173533 0.42715,-0.31629 0.80508,-0.390928 0.51813,1.637779 4.66318,0.81889 9.58537,0.204723 z m 2.84979,1.433056 c 0,0 1.58005,-0.805441 2.76862,-1.711899 0.48102,-0.394445 0.86242,-0.797838 0.9877,-1.154266 0.64773,-1.842553 -2.97919,-1.842553 -2.97919,-1.842553 0.25488,-0.07324 4.92238,-1.536452 4.59714,1.354178 0.0873,1.358937 -1.58058,3.131146 -5.29442,3.516591 -0.11107,0.01541 -0.17548,-0.04076 -0.0798,-0.162051 z m 0.51813,-13.9211717 -0.33853,0.218739 -0.0137,0.05488 0.35221,-0.06874 c -0.95373,0.753666 -5.08327,2.21936 -5.23578,4.027 l 0.0545,0.272066 c 0.32603,1.0305427 1.98561,1.7774327 1.88036,2.9037167 0.066,0.704321 -0.53483,1.552124 -2.65756,2.726304 l 0.0881,-0.197223 c -0.11094,0.06466 -0.2266,0.130292 -0.34723,0.197016 l 0.7772,-1.740192 c 0.51813,-1.228334 -2.07253,-1.637779 -2.07253,-3.275558 0,-1.1317137 0.67581,-2.0303097 1.61488,-2.7326657 2.09949,-1.75395 5.8981,-2.385341 5.8981,-2.385341 z m -4.14506,-5.32272998 c 0.8977,0.788217 1.23852,1.54607198 1.20278,2.27211798 0.15585,3.139059 -6.92487,5.695658 -7.03182,7.55471 0.0899,1.6445027 2.2232,4.1109477 2.72025,4.5037377 l -0.5572,-0.359273 0.5572,0.56415 c 0,0 -0.30311,-0.183153 -0.75023,-0.49034 0.2126,0.236066 0.38742,0.408203 0.4911,0.490081 0,0 -4.40418,-2.661339 -4.40418,-4.7085617 0,-0.798252 0.5199,-1.713192 2.07488,-2.910699 0.85725,-0.695167 2.0722,-1.487419 3.75417,-2.412031 0.2082,-0.114465 0.39684,-0.234929 0.56754,-0.359997 1.94215,-1.655313 1.11638,-3.93927698 1.11638,-3.93927698 0.12679,0.11131 0.24238,0.221999 0.34743,0.332067 -0.0439,-0.209119 -0.0883,-0.331808 -0.0883,-0.331808 l 0.0753,0.06714 -0.0753,-0.272014 z m -7.25384,14.33056568 -0.95098,0.2941 c 0.42205,-0.05752 0.69185,-0.08948 0.69185,-0.08948 -0.0713,0.02116 -0.14223,0.04226 -0.21259,0.06341 l 0.47172,-0.06316 c -1.45078,0.429927 -2.72706,0.859855 -2.99562,1.166887 0.45955,0.382755 4.06062,0.368686 14.26499,-0.552875 l -0.58359,0.233843 c 0.10741,-0.0096 0.2156,-0.01935 0.26365,-3.11e-4 l 0.31994,-0.02865 c 0,0 -2.95557,1.506814 -10.33914,1.482504 -1.29121,0.002 -2.72117,-0.04303 -4.29815,-0.152119 -2.60872,-0.331291 -2.939,-0.702305 -2.29226,-1.041612 0.41361,-0.690667 5.66018,-1.31254 5.66018,-1.31254 z m -3.62692,7.779398 -0.43828,0.206843 c 0.0607,-0.0014 0.1205,-0.0022 0.15938,0.0062 l 0.2789,-0.0081 c 0,0 -1.30161,0.539892 -1.47605,1.035715 0.12639,0.313187 0.89986,0.570771 3.03044,0.601909 13.98956,0.20467 17.09835,-1.433109 17.09835,-1.433109 l -0.43887,0.37479 0.43887,-0.16986 c -1.62508,1.605244 -5.16155,2.203532 -11.60855,2.189619 -1.83931,8.27e-4 -3.92035,0.15486 -6.26706,0.06212 -5.5978,-0.221171 -6.35739,-1.125042 -5.38239,-1.721158 0.52494,-0.589908 2.98652,-1.144955 4.60526,-1.144955 z m 20.7254,2.047482 c -1.67149,1.886932 -6.6124,2.587271 -10.89543,2.573098 -5.10225,0.0081 -9.8301,-0.525874 -9.8301,-0.730752 0,0 12.43477,0.921199 20.72553,-1.842346 z"
     inkscape:connector-curvature="0"
     style="fill:#000000;fill-opacity:1;stroke-width:0.20000000000000001;stroke-linejoin:round" />
  <path
     id="path11306"
     d="m -113.5165,30.627119 -3.48483,0 -1.20629,3.76851 -3.70089,-1.99864 c -0.93115,0.598705 -1.73331,1.3282 -2.36615,2.155056 l 8.61365,4.498803 8.61365,-4.498803 c -0.63284,-0.826856 -1.435,-1.556351 -2.36615,-2.1551 l -3.70089,1.998684 -1.47435,-2.770963 c 0.53613,0 1.60838,0.221677 1.60833,0.221721 -0.53608,-1.108429 -0.53608,-1.219268 -0.53608,-1.219268 z m -9.77078,5.327344 -1.438,-0.751043 c -0.71729,1.153298 -1.12217,2.461281 -1.12217,3.847428 0,0.274126 0.0158,0.545148 0.0468,0.812579 l 2.51337,-3.908964 z m 0.90906,0.474788 -3.11217,4.840363 c 0.20716,0.629031 0.50026,1.2288 0.86821,1.790087 l 3.75558,-5.84097 -1.51162,-0.78948 z m 2.42073,1.264312 -4.00917,6.235333 c 0.41175,0.478556 0.88242,0.920005 1.40332,1.317073 l 4.29031,-6.672613 -1.68446,-0.879793 z m 2.59358,1.35458 -4.3561,6.77494 c 1.69336,1.037758 3.78951,1.651494 6.059,1.651494 2.26949,0 4.36564,-0.613736 6.059,-1.651494 l -4.3561,-6.77494 -1.7029,0.889413 -1.7029,-0.889413 z m 4.31492,-0.474787 4.29031,6.672613 c 0.5209,-0.397068 0.99157,-0.838517 1.40332,-1.317073 l -4.00917,-6.235333 -1.68446,0.879793 z m 2.59357,-1.354625 3.75558,5.84097 c 0.368,-0.561287 0.66105,-1.161056 0.86821,-1.790087 l -3.11223,-4.840363 -1.51156,0.78948 z m 2.42068,-1.264268 2.51336,3.908964 c 0.031,-0.267386 0.0468,-0.538453 0.0468,-0.812579 0,-1.386147 -0.40489,-2.69413 -1.12217,-3.847428 l -1.438,0.751043 z"
     inkscape:connector-curvature="0"
     style="fill:#000000;fill-opacity:1;stroke-width:0.2;stroke-linejoin:round" />
  <path
     id="path14777"
     d="m -104.98314,59.581226 -6.99665,-7.762524 c -0.36282,0.39513 -0.63334,0.831413 -0.8115,1.308908 -0.1781,0.477495 -0.2672,0.965936 -0.2672,1.465261 0,0.492048 0.0896,0.97682 0.26886,1.454315 l -4.3672,4.839279 c -0.36717,-0.210895 -0.74913,-0.369632 -1.14586,-0.476272 -0.39673,-0.10664 -0.79942,-0.160021 -1.20817,-0.160021 -0.64266,0 -1.26447,0.12908 -1.86555,0.387242 -0.60114,0.258162 -1.1377,0.647789 -1.60987,1.168943 l 3.72129,4.11573 -2.3885,3.048656 -1.79177,2.408756 -1.1328,1.676095 c -0.26335,0.431451 -0.39508,0.71505 -0.39508,0.850796 l -0.01,0.05815 0.0197,0.01094 0,0.03632 0.0196,-0.02544 0.0426,0.01088 c 0.12241,0 0.37815,-0.143573 0.76722,-0.43084 l 1.51149,-1.248923 2.17207,-1.994242 2.7623,-2.652303 3.69829,4.112122 c 0.47216,-0.5236 0.82406,-1.11862 1.05576,-1.785242 0.2317,-0.666561 0.34755,-1.354952 0.34755,-2.065111 0,-0.455727 -0.0476,-0.902893 -0.14265,-1.341621 -0.0951,-0.438728 -0.23881,-0.862904 -0.43064,-1.272526 l 4.36339,-4.839341 c 0.43059,0.196343 0.86774,0.294545 1.31145,0.294545 0.45248,0 0.89343,-0.09881 1.32297,-0.296318 0.42948,-0.197565 0.82241,-0.496328 1.17867,-0.896228 z"
     inkscape:connector-curvature="0"
     style="fill:#000000;fill-opacity:1;stroke-width:0.2;stroke-linejoin:round" />
  <path
     id="path17541"
     d="m -123.38134,97.915255 c 0,-1.037483 -0.73989,-1.878551 -1.65256,-1.878551 l 0,-1.878491 c 0.91267,0 1.65256,-0.841068 1.65256,-1.878551 0,-1.037483 -0.73989,-1.878551 -1.65256,-1.878551 l 0,-1.878492 c 0.91267,0 1.65256,-0.841067 1.65256,-1.87855 0,-1.037483 -0.73989,-1.878551 -1.65256,-1.878551 l 0,-1.878492 c 0.91267,0 1.65256,-0.841068 1.65256,-1.878551 0,-1.037483 -0.73989,-1.878551 -1.65256,-1.878551 l 0,-1.878491 c 0.91267,0 1.65256,-0.841068 1.65256,-1.878551 l 1.65251,0 c 0,1.037483 0.73988,1.878551 1.65256,1.878551 0.91267,0 1.65256,-0.841068 1.65256,-1.878551 l 1.65251,0 c 0,1.037483 0.73988,1.878551 1.65255,1.878551 0.91268,0 1.65256,-0.841068 1.65256,-1.878551 l 1.65251,0 c 0,1.037483 0.73989,1.878551 1.65256,1.878551 0.91268,0 1.65256,-0.841068 1.65256,-1.878551 l 1.65251,0 c 0,1.037483 0.73989,1.878551 1.65256,1.878551 l 0,1.878491 c -0.91267,0 -1.65256,0.841068 -1.65256,1.878551 0,1.037483 0.73989,1.878551 1.65256,1.878551 l 0,1.878492 c -0.91267,0 -1.65256,0.841068 -1.65256,1.878551 0,1.037483 0.73989,1.87855 1.65256,1.87855 l 0,1.878492 c -0.91267,0 -1.65256,0.841068 -1.65256,1.878551 0,1.037483 0.73989,1.878551 1.65256,1.878551 l 0,1.878491 c -0.91267,0 -1.65256,0.841068 -1.65256,1.878551 l -1.65251,0 c 0,-1.037483 -0.73988,-1.878551 -1.65256,-1.878551 -0.91267,0 -1.65256,0.841068 -1.65256,1.878551 l -1.65251,0 c 0,-1.037483 -0.73988,-1.878551 -1.65256,-1.878551 -0.91267,0 -1.65255,0.841068 -1.65255,1.878551 l -1.65251,0 c 0,-1.037483 -0.73989,-1.878551 -1.65256,-1.878551 -0.91268,0 -1.65256,0.841068 -1.65256,1.878551 l -1.65251,0 z m 9.2429,-11.266678 c -0.0869,0.593576 -0.26636,1.08411 -0.53835,1.471542 -0.27199,0.387433 -0.56924,0.588119 -0.89169,0.60206 -0.27794,-0.004 -0.48752,-0.112653 -0.62879,-0.325856 -0.14126,-0.213204 -0.21203,-0.50661 -0.21239,-0.88028 0.0133,-0.770474 0.2054,-1.418093 0.57623,-1.942856 0.37083,-0.524822 0.8405,-0.79794 1.40901,-0.819415 l 0.52154,0.07753 -0.23556,1.817271 z m 1.43004,4.898695 c -0.34312,0.18022 -0.7294,0.317788 -1.15873,0.412703 -0.42938,0.09498 -0.8619,0.142848 -1.29754,0.14356 -1.25126,-0.0046 -2.26402,-0.417094 -3.0383,-1.237577 -0.77427,-0.820423 -1.17282,-2.021398 -1.19567,-3.602805 0.0389,-1.859449 0.51444,-3.302339 1.42659,-4.328788 0.91215,-1.02639 2.02736,-1.547059 3.34572,-1.56189 1.30845,0.02509 2.30462,0.436492 2.98851,1.234255 0.6839,0.797703 1.02811,1.831093 1.0327,3.10005 -0.0228,1.101255 -0.20441,1.918178 -0.54481,2.450831 -0.34041,0.532652 -0.70289,0.788924 -1.08739,0.768813 -0.45986,0 -0.60003,-0.555076 -0.42062,-1.665347 l 0.50474,-3.537195 c -0.22116,-0.125229 -0.51486,-0.230585 -0.88115,-0.316008 -0.36629,-0.08542 -0.73989,-0.129916 -1.1209,-0.133416 -1.2189,0.03731 -2.16857,0.480805 -2.84912,1.330534 -0.6805,0.849729 -1.02623,1.881873 -1.03719,3.096373 0.0106,0.806424 0.18328,1.423788 0.518,1.852034 0.33466,0.428246 0.76765,0.644297 1.29895,0.648153 0.91413,-0.01216 1.64316,-0.480983 2.18715,-1.406407 l 0.0336,0 c 0.0477,0.460576 0.2005,0.807254 0.45845,1.040152 0.25801,0.232839 0.58746,0.349466 0.98845,0.349822 0.92358,-0.01376 1.66534,-0.420533 2.22535,-1.220313 0.55995,-0.799839 0.84749,-1.910051 0.86263,-3.330754 -0.0218,-1.603238 -0.48105,-2.891653 -1.37786,-3.865246 -0.89681,-0.973534 -2.10057,-1.473559 -3.61124,-1.500017 -1.88599,0.05464 -3.38637,0.757661 -4.50121,2.109195 -1.11484,1.351534 -1.68549,3.023881 -1.7119,5.017102 0.045,1.850788 0.5658,3.279084 1.56244,4.284889 0.99664,1.005746 2.19915,1.514848 3.60758,1.527187 0.59586,0.0034 1.13702,-0.04336 1.6235,-0.140178 0.48652,-0.09675 0.97722,-0.263627 1.4721,-0.500619 l -0.30283,-1.019093 z"
     inkscape:connector-curvature="0"
     style="fill:#000000;fill-opacity:1;stroke-width:0.2;stroke-linejoin:round" />
</svg>
