<?xml version="1.0" encoding="UTF-8" standalone="no"?>
<!-- Created with Inkscape (http://www.inkscape.org/) -->

<svg
   xmlns:dc="http://purl.org/dc/elements/1.1/"
   xmlns:cc="http://creativecommons.org/ns#"
   xmlns:rdf="http://www.w3.org/1999/02/22-rdf-syntax-ns#"
   xmlns:svg="http://www.w3.org/2000/svg"
   xmlns="http://www.w3.org/2000/svg"
   xmlns:sodipodi="http://sodipodi.sourceforge.net/DTD/sodipodi-0.dtd"
   xmlns:inkscape="http://www.inkscape.org/namespaces/inkscape"
   id="svg2"
   version="1.1"
   inkscape:version="0.48.4 r9939"
   width="64"
   height="64"
   sodipodi:docname="base-multiple-mono-2.svg">
  <metadata
     id="metadata8">
    <rdf:RDF>
      <cc:Work
         rdf:about="">
        <dc:format>image/svg+xml</dc:format>
        <dc:type
           rdf:resource="http://purl.org/dc/dcmitype/StillImage" />
        <dc:title></dc:title>
      </cc:Work>
    </rdf:RDF>
  </metadata>
  <defs
     id="defs6" />
  <sodipodi:namedview
     pagecolor="#ffffff"
     bordercolor="#666666"
     borderopacity="1"
     objecttolerance="10"
     gridtolerance="10"
     guidetolerance="10"
     inkscape:pageopacity="0"
     inkscape:pageshadow="2"
     inkscape:window-width="1317"
     inkscape:window-height="717"
     id="namedview4"
     showgrid="false"
     inkscape:zoom="3.6875"
     inkscape:cx="-14.101695"
     inkscape:cy="32"
     inkscape:window-x="43"
     inkscape:window-y="24"
     inkscape:window-maximized="1"
     inkscape:current-layer="svg2" />
  <rect
     style="fill:#000000;fill-opacity:1;stroke:#000000;stroke-width:0.53665989999999997;stroke-linecap:round;stroke-linejoin:round;stroke-miterlimit:4;stroke-opacity:1;stroke-dasharray:none"
     id="rect3005"
     width="59.081985"
     height="59.624359"
     x="2.4590092"
     y="2.1878221"
     ry="5.9392786"
     rx="5.9392786" />
  <g
     id="g10857"
     transform="matrix(0.38983051,0,0,0.49354897,-152.13559,-9.4716234)">
    <g
       id="icomoon-ignore" />
    <path
       id="path10849"
       d="m 16,2 c 8.837,0 16,5.82 16,13 0,7.18 -7.163,13 -16,13 -0.849,0 -1.682,-0.054 -2.495,-0.158 C 10.068,31.279 5.966,31.895 2,31.986 V 31.145 C 4.142,30.096 6,28.184 6,26 6,25.695 5.976,25.396 5.932,25.103 2.313,22.72 0,19.079 0,15 0,7.82 7.163,2 16,2 z"
       inkscape:connector-curvature="0"
       style="fill:#000000" />
  </g>
  <g
     id="g10968"
     transform="matrix(0.59322034,0,0,0.57627119,-103.42373,-7.5932201)">
    <g
       id="icomoon-ignore-2" />
    <path
       id="path10960"
       d="M 15,4 C 13.417,4 11.888,4.248 10.457,4.738 9.116,5.197 7.922,5.845 6.91,6.664 5.034,8.182 4,10.127 4,12.138 c 0,1.125 0.315,2.217 0.935,3.247 0.646,1.073 1.622,2.056 2.821,2.842 0.951,0.624 1.592,1.623 1.761,2.748 0.028,0.187 0.051,0.375 0.068,0.564 0.085,-0.079 0.169,-0.16 0.254,-0.244 0.754,-0.751 1.771,-1.166 2.823,-1.166 0.167,0 0.335,0.011 0.503,0.032 0.605,0.077 1.223,0.116 1.836,0.116 1.583,0 3.112,-0.248 4.543,-0.738 1.341,-0.459 2.535,-1.107 3.547,-1.926 1.876,-1.518 2.91,-3.463 2.91,-5.474 0,-2.011 -1.033,-3.956 -2.91,-5.474 C 22.079,5.846 20.885,5.198 19.544,4.739 18.113,4.249 16.584,4.001 15.001,4.001 z m 0,-4 v 0 c 8.284,0 15,5.435 15,12.139 0,6.704 -6.716,12.139 -15,12.139 -0.796,0 -1.576,-0.051 -2.339,-0.147 C 9.439,27.34 5.718,27.916 2,28 V 27.215 C 4.008,26.235 5.625,24.45 5.625,22.411 5.625,22.126 5.603,21.847 5.562,21.574 2.17,19.349 0,15.949 0,12.14 0,5.436 6.716,0.001 15,0.001 z m 16.125,27.209 c 0,1.748 1.135,3.278 2.875,4.118 V 32 C 30.777,31.928 27.819,31.434 25.027,28.684 24.366,28.767 23.69,28.81 23,28.81 c -2.983,0 -5.732,-0.805 -7.925,-2.157 4.521,-0.016 8.789,-1.464 12.026,-4.084 1.631,-1.32 2.919,-2.87 3.825,-4.605 0.961,-1.84 1.449,-3.799 1.449,-5.825 0,-0.326 -0.014,-0.651 -0.039,-0.974 2.268,1.873 3.664,4.426 3.664,7.24 0,3.265 -1.88,6.179 -4.82,8.086 -0.036,0.234 -0.055,0.474 -0.055,0.718 z"
       inkscape:connector-curvature="0"
       style="fill:#000000" />
  </g>
  <g
     id="g11057"
     transform="matrix(0.58568738,0,0,0.52520117,-132.44068,-7.5857203)">
    <g
       id="icomoon-ignore-6" />
    <path
       id="path11049"
       d="m 34,28.161 c 0,1.422 0.813,2.653 2,3.256 v 0.498 c -0.332,0.045 -0.671,0.07 -1.016,0.07 -2.125,0 -4.042,-0.892 -5.398,-2.321 C 28.767,29.882 27.898,30 26.999,30 c -4.971,0 -9,-3.582 -9,-8 0,-4.418 4.029,-8 9,-8 4.971,0 9,3.582 9,8 0,1.73 -0.618,3.331 -1.667,4.64 -0.213,0.463 -0.333,0.979 -0.333,1.522 z M 16,0 C 24.702,0 31.781,5.644 31.995,12.672 30.458,11.987 28.758,11.625 27,11.625 c -2.986,0 -5.807,1.045 -7.942,2.943 -2.214,1.968 -3.433,4.607 -3.433,7.432 0,1.396 0.298,2.747 0.867,3.993 C 16.329,25.997 16.165,26 16,26 15.151,26 14.318,25.946 13.505,25.842 10.068,29.279 5.966,29.895 2,29.986 V 29.145 C 4.142,28.096 6,26.184 6,24 6,23.695 5.976,23.396 5.932,23.103 2.313,20.72 0,17.079 0,13 0,5.82 7.163,0 16,0 z"
       inkscape:connector-curvature="0"
       style="fill:#000000" />
  </g>
  <g
     id="g11179"
     transform="matrix(0.54048964,0,0,0.53389831,-75.491527,-8.1355921)">
    <g
       id="icomoon-ignore-9" />
    <path
       id="path11171"
       d="m 15,0 v 0 c 8.284,0 15,5.435 15,12.139 0,6.704 -6.716,12.139 -15,12.139 -0.796,0 -1.576,-0.051 -2.339,-0.147 C 9.439,27.34 5.718,27.916 2,28 V 27.215 C 4.008,26.235 5.625,24.45 5.625,22.411 5.625,22.126 5.603,21.847 5.562,21.574 2.17,19.349 0,15.949 0,12.14 0,5.436 6.716,0.001 15,0.001 z m 16.125,27.209 c 0,1.748 1.135,3.278 2.875,4.118 V 32 C 30.777,31.928 27.819,31.434 25.027,28.684 24.366,28.767 23.69,28.81 23,28.81 c -2.983,0 -5.732,-0.805 -7.925,-2.157 4.521,-0.016 8.789,-1.464 12.026,-4.084 1.631,-1.32 2.919,-2.87 3.825,-4.605 0.961,-1.84 1.449,-3.799 1.449,-5.825 0,-0.326 -0.014,-0.651 -0.039,-0.974 2.268,1.873 3.664,4.426 3.664,7.24 0,3.265 -1.88,6.179 -4.82,8.086 -0.036,0.234 -0.055,0.474 -0.055,0.718 z"
       inkscape:connector-curvature="0"
       style="fill:#000000" />
  </g>
  <g
     id="g11345"
     transform="matrix(0.63559322,0,0,1,-102.77966,10.305084)">
    <g
       id="icomoon-ignore-5" />
    <path
       id="path11337"
       d="m 12,9 c 0,-2.761 2.239,-5 5,-5 2.761,0 5,2.239 5,5 0,2.761 -2.239,5 -5,5 -2.761,0 -5,-2.239 -5,-5 z M 0,9 C 0,6.239 2.239,4 5,4 7.761,4 10,6.239 10,9 10,11.761 7.761,14 5,14 2.239,14 0,11.761 0,9 z m 24,10 v -3 c 0,-1.1 -0.9,-2 -2,-2 H 2 c -1.1,0 -2,0.9 -2,2 v 10 c 0,1.1 0.9,2 2,2 h 20 c 1.1,0 2,-0.9 2,-2 v -3 l 8,5 V 14 l -8,5 z m -4,5 H 4 v -6 h 16 v 6 z"
       inkscape:connector-curvature="0"
       style="fill:#000000" />
  </g>
  <g
     id="g12820"
     transform="matrix(0.53389831,0,0,0.59322034,-74.305085,17.084746)">
    <g
       id="icomoon-ignore-4" />
    <path
       id="path12812"
       d="M 0,4 V 28 H 32 V 4 H 0 z M 6,26 H 2 v -4 h 4 v 4 z M 6,18 H 2 v -4 h 4 v 4 z M 6,10 H 2 V 6 h 4 v 4 z M 24,26 H 8 V 6 h 16 v 20 z m 6,0 h -4 v -4 h 4 v 4 z m 0,-8 h -4 v -4 h 4 v 4 z m 0,-8 H 26 V 6 h 4 v 4 z m -18,0 v 12 l 8,-6 z"
       inkscape:connector-curvature="0"
       style="fill:#000000" />
  </g>
  <g
     id="g13459"
     transform="matrix(0.38983051,0,0,0.47457627,-152.13559,-30.644069)">
    <g
       id="icomoon-ignore-22" />
    <path
       id="path13451"
       d="M 16,0 C 7.163,0 0,7.163 0,16 0,24.837 7.163,32 16,32 24.837,32 32,24.837 32,16 32,7.163 24.837,0 16,0 z m 0,28 C 9.373,28 4,22.627 4,16 4,9.373 9.373,4 16,4 22.627,4 28,9.373 28,16 28,22.627 22.627,28 16,28 z M 14,8 c 0,-1.105 0.895,-2 2,-2 1.105,0 2,0.895 2,2 0,1.105 -0.895,2 -2,2 -1.105,0 -2,-0.895 -2,-2 z m 6,2 c 0,-1.105 0.895,-2 2,-2 1.105,0 2,0.895 2,2 0,1.105 -0.895,2 -2,2 -1.105,0 -2,-0.895 -2,-2 z M 8,10 c 0,-1.105 0.895,-2 2,-2 1.105,0 2,0.895 2,2 0,1.105 -0.895,2 -2,2 -1.105,0 -2,-0.895 -2,-2 z m 6,12 v 2 h 4 V 22 L 16,12 z"
       inkscape:connector-curvature="0"
       style="fill:#000000" />
  </g>
  <g
     id="g14791"
     transform="matrix(0.55932203,0,0,0.60169492,-134.77966,-33.898305)">
    <g
       id="icomoon-ignore-8" />
    <path
       id="path14783"
       d="m 8.111,16 c 0,-2.044 1.657,-3.701 3.701,-3.701 2.044,0 3.701,1.657 3.701,3.701 0,2.044 -1.657,3.701 -3.701,3.701 C 9.768,19.701 8.111,18.044 8.111,16 z M 16,0 C 7.163,0 0,7.163 0,16 0,24.837 7.163,32 16,32 24.836,32 32,24.837 32,16 32,7.163 24.837,0 16,0 z M 11.856,29.978 C 7.045,27.179 3.81,21.968 3.81,16 c 0,-5.968 3.235,-11.178 8.046,-13.978 4.813,2.799 8.05,8.009 8.05,13.978 0,5.969 -3.237,11.179 -8.05,13.978 z"
       inkscape:connector-curvature="0"
       style="fill:#000000" />
  </g>
  <g
     id="g14924"
     transform="matrix(0.71186441,0,0,0.67666232,-110.1017,-33.333768)">
    <g
       id="icomoon-ignore-69" />
    <path
       id="path14916"
       d="M 0,4 V 30 H 32 V 4 H 0 z M 30,28 H 2 V 6 H 30 V 28 z M 22,11 c 0,-1.657 1.343,-3 3,-3 1.657,0 3,1.343 3,3 0,1.657 -1.343,3 -3,3 -1.657,0 -3,-1.343 -3,-3 z m 6,15 H 4 l 6,-16 8,10 4,-3 z"
       inkscape:connector-curvature="0"
       style="fill:#000000" />
  </g>
  <g
     id="g14991"
     transform="matrix(0.74576271,0,0,0.64164649,-81.084746,-31.825667)">
    <g
       id="icomoon-ignore-0" />
    <path
       id="path14983"
       d="M 28,6 H 4 V 26 H 28 V 6 z M 32,2 V 2 30 H 0 V 2 H 32 z M 26,24 H 6 V 20 L 12,10 20.219,20 26,16 v 2 z M 20,11 c 0,-1.657 1.343,-3 3,-3 1.657,0 3,1.343 3,3 0,1.657 -1.343,3 -3,3 -1.657,0 -3,-1.343 -3,-3 z"
       inkscape:connector-curvature="0"
       style="fill:#000000" />
  </g>
  <g
     id="g15476"
     transform="matrix(0.66949153,0,0,0.65254237,-48.271187,-32.000001)">
    <g
       id="icomoon-ignore-89" />
    <path
       id="path15468"
       d="M 26.666,0 H 5.334 C 2.4,0 0,2.4 0,5.333 V 26.666 C 0,29.6 2.4,32 5.334,32 H 26.666 C 29.602,32 32,29.6 32,26.666 V 5.333 C 32,2.399 29.602,0 26.666,0 z M 8,8 h 16 c 0.286,0 0.563,0.061 0.817,0.177 L 16,18.463 7.183,8.176 C 7.437,8.06 7.714,7.999 8,7.999 z M 6,22 V 10 C 6,9.958 6.002,9.916 6.004,9.875 l 5.864,6.842 -5.8,5.8 C 6.023,22.35 5.999,22.177 5.999,22 z m 18,2 H 8 C 7.823,24 7.65,23.976 7.483,23.931 L 13.174,18.24 16,21.537 18.826,18.24 24.517,23.931 C 24.35,23.976 24.177,24 24,24 z m 2,-2 c 0,0.177 -0.024,0.35 -0.069,0.517 l -5.8,-5.8 5.864,-6.842 c 0.003,0.041 0.004,0.083 0.004,0.125 v 12 z"
       inkscape:connector-curvature="0"
       style="fill:#000000" />
  </g>
  <g
     id="g15631"
     transform="matrix(0.55932203,0,0,0.63559322,-24.135594,-32.813559)">
    <g
       id="icomoon-ignore-3" />
    <path
       id="path15623"
       d="M 16,0 C 7.163,0 0,7.163 0,16 0,24.837 7.163,32 16,32 24.837,32 32,24.837 32,16 32,7.163 24.837,0 16,0 z M 9.464,26.067 C 9.811,25.11 10,24.077 10,23 10,19.114 7.537,15.803 4.087,14.544 4.406,11.89 5.595,9.435 7.514,7.515 9.781,5.249 12.794,4 15.999,4 c 3.205,0 6.219,1.248 8.485,3.515 1.92,1.92 3.108,4.375 3.428,7.029 -3.45,1.26 -5.913,4.57 -5.913,8.456 0,1.077 0.189,2.11 0.536,3.067 C 20.607,27.325 18.355,28 15.999,28 13.643,28 11.391,27.325 9.463,26.067 z m 7.778,-6.036 C 17.676,20.14 18,20.534 18,21 v 2 c 0,0.55 -0.45,1 -1,1 h -2 c -0.55,0 -1,-0.45 -1,-1 v -2 c 0,-0.466 0.324,-0.86 0.758,-0.969 L 15.5,6 h 1 l 0.742,14.031 z"
       inkscape:connector-curvature="0"
       style="fill:#000000" />
  </g>
  <g
     id="g15775"
     transform="matrix(0.41525424,0,0,0.47455985,-130.16949,18.712364)">
    <g
       id="icomoon-ignore-45" />
    <path
       id="path15767"
       d="M 10,6 32,0 v 23 c 0,2.761 -3.134,5 -7,5 -3.866,0 -7,-2.239 -7,-5 0,-2.761 3.134,-5 7,-5 1.074,0 2.091,0.173 3,0.481 v -10.3 l -14,3.818 v 15 c 0,2.761 -3.134,5 -7,5 -3.866,0 -7,-2.239 -7,-5 0,-2.761 3.134,-5 7,-5 1.074,0 2.091,0.173 3,0.481 V 5.999 z"
       inkscape:connector-curvature="0"
       style="fill:#000000" />
  </g>
  <g
     id="g16282"
     transform="matrix(0.53414193,0,0,0.69491525,-151.75353,13.830509)">
    <g
       id="icomoon-ignore-32" />
    <path
       id="path16274"
       d="M 14,18 V 4 C 6.268,4 0,10.268 0,18 c 0,7.732 6.268,14 14,14 7.732,0 14,-6.268 14,-14 0,-2.251 -0.532,-4.378 -1.476,-6.262 L 14,18 z M 28.524,7.738 C 26.225,3.15 21.481,0 16,0 V 14 L 28.524,7.738 z"
       inkscape:connector-curvature="0"
       style="fill:#000000" />
  </g>
  <g
     id="g16415"
     transform="matrix(0.6440678,0,0,0.79661017,-132.88136,37.152542)">
    <g
       id="icomoon-ignore-46" />
    <path
       id="path16407"
       d="M 30.662,5.003 C 26.174,4.358 21.214,4 16,4 10.786,4 5.826,4.358 1.338,5.003 0.478,8.369 0,12.089 0,16 0,19.911 0.477,23.63 1.338,26.997 5.827,27.642 10.786,28 16,28 21.214,28 26.174,27.642 30.662,26.997 31.522,23.631 32,19.911 32,16 32,12.089 31.523,8.37 30.662,5.003 z M 12,22 V 10 l 10,6 -10,6 z"
       inkscape:connector-curvature="0"
       style="fill:#000000" />
  </g>
  <g
     id="g16515"
     transform="matrix(0.48305085,0,0,0.60169492,-45.830509,-7.0508478)">
    <g
       id="icomoon-ignore-81" />
    <path
       id="path16507"
       d="M 16,0 C 7.163,0 0,7.163 0,16 0,24.837 7.163,32 16,32 24.837,32 32,24.837 32,16 32,7.163 24.837,0 16,0 z m 0,29 C 8.82,29 3,23.18 3,16 3,8.82 8.82,3 16,3 23.18,3 29,8.82 29,16 29,23.18 23.18,29 16,29 z M 12,9 24,16 12,23 z"
       inkscape:connector-curvature="0"
       style="fill:#000000" />
  </g>
  <g
     id="g16912"
     transform="matrix(0.38012459,0,0,0.53896768,-150.08169,38.973413)">
    <g
       id="icomoon-ignore-7" />
    <path
       id="path16904"
       d="M 27.837,22.161 C 26.41,20.737 24.596,20.002 22.901,20.002 h -0.91 l -1.997,-2 7.988,-8.001 C 29.979,8.001 29.979,4 27.982,2 L 16,14.002 4.018,2 c -1.997,2 -1.997,6.001 0,8.001 l 7.988,8.001 -1.997,2 h -0.91 c -1.694,0 -3.509,0.735 -4.936,2.159 -2.551,2.545 -2.895,6.328 -0.77,8.448 0.937,0.934 2.196,1.39 3.531,1.39 1.694,0 3.509,-0.735 4.936,-2.159 1.675,-1.671 2.398,-3.875 2.096,-5.792 l 2.043,-2.047 2.043,2.047 c -0.302,1.917 0.422,4.121 2.096,5.792 1.427,1.424 3.242,2.159 4.936,2.159 1.335,0 2.595,-0.456 3.531,-1.39 2.126,-2.121 1.781,-5.903 -0.77,-8.448 z m -16.805,4.262 c -0.241,0.559 -0.594,1.073 -1.051,1.529 -0.457,0.456 -0.974,0.81 -1.536,1.051 -0.504,0.216 -1.03,0.33 -1.521,0.33 -0.473,0 -1.144,-0.106 -1.652,-0.613 -0.504,-0.503 -0.61,-1.166 -0.61,-1.634 0,-0.486 0.114,-1.007 0.329,-1.507 0.241,-0.559 0.594,-1.073 1.051,-1.529 0.457,-0.456 0.974,-0.81 1.536,-1.051 0.504,-0.216 1.03,-0.33 1.521,-0.33 0.473,0 1.144,0.106 1.652,0.613 0.504,0.503 0.61,1.166 0.61,1.634 0,0.486 -0.114,1.007 -0.329,1.507 z M 16,20.831 c -1.56,0 -2.824,-1.267 -2.824,-2.829 0,-1.562 1.264,-2.829 2.824,-2.829 1.56,0 2.824,1.267 2.824,2.829 0,1.562 -1.264,2.829 -2.824,2.829 z m 10.727,7.889 c -0.508,0.506 -1.178,0.613 -1.652,0.613 -0.491,0 -1.017,-0.114 -1.521,-0.33 -0.562,-0.241 -1.078,-0.594 -1.536,-1.051 -0.458,-0.457 -0.81,-0.97 -1.051,-1.529 -0.215,-0.5 -0.329,-1.021 -0.329,-1.507 0,-0.468 0.106,-1.131 0.61,-1.634 0.508,-0.506 1.178,-0.613 1.652,-0.613 0.491,0 1.017,0.114 1.521,0.33 0.562,0.241 1.079,0.594 1.536,1.051 0.457,0.457 0.81,0.97 1.051,1.529 0.215,0.5 0.329,1.021 0.329,1.507 0,0.468 -0.106,1.131 -0.61,1.634 z"
       inkscape:connector-curvature="0"
       style="fill:#000000" />
  </g>
  <g
     id="g17276"
     transform="matrix(0.58474576,0,0,0.47699758,-25.22034,-5.4624699)">
    <g
       id="icomoon-ignore-95" />
    <path
       id="path17268"
       d="M 32,10 16,2 0,10 16,18 32,10 z M 16,4.655 26.689,10 16,15.345 5.311,10 16,4.655 z M 28.795,14.398 32,16 16,24 0,16 3.205,14.398 16,20.796 z m 0,6 L 32,22 16,30 0,22 3.205,20.398 16,26.796 z"
       inkscape:connector-curvature="0"
       style="fill:#000000" />
  </g>
  <g
     id="g17816"
     transform="matrix(0.6440678,0,0,0.54238718,-47.18644,18.711907)">
    <g
       id="icomoon-ignore-05" />
    <path
       id="path17808"
       d="M 30.662,9.003 C 27.887,8.604 24.931,8.315 21.847,8.152 L 27,2.999 l -2,-2 -7.017,7.017 C 17.327,8.005 16.666,7.999 16,7.999 v 0 l -8,-8 -2,2 6.069,6.069 C 8.29,8.201 4.683,8.522 1.338,9.003 0.478,12.369 0,16.089 0,20 0,23.911 0.477,27.63 1.338,30.997 5.827,31.642 10.786,32 16,32 21.214,32 26.173,31.642 30.662,30.997 31.522,27.631 32,23.911 32,20 32,16.089 31.523,12.37 30.662,9.003 z M 26.997,27.331 C 23.63,27.761 19.911,28 16,28 12.089,28 8.37,27.761 5.003,27.331 4.358,25.087 4,22.607 4,20 4,17.393 4.358,14.913 5.003,12.669 8.369,12.239 12.089,12 16,12 c 3.911,0 7.63,0.239 10.996,0.669 C 27.641,14.913 28,17.393 28,20 c 0,2.607 -0.358,5.087 -1.003,7.331 z"
       inkscape:connector-curvature="0"
       style="fill:#000000" />
  </g>
  <g
     id="g18279"
     transform="matrix(0.64407002,0,0,0.50846228,-23.051592,18.982942)">
    <g
       id="icomoon-ignore-41" />
    <path
       id="path18271"
       d="M 31.342,25.559 16.95,13.223 c 0.67,-1.259 1.051,-2.696 1.051,-4.222 0,-4.971 -4.029,-9 -9,-9 -0.909,0 -1.787,0.135 -2.614,0.386 l 5.2,5.2 c 0.778,0.778 0.778,2.051 0,2.828 l -3.172,3.172 c -0.778,0.778 -2.051,0.778 -2.828,0 l -5.2,-5.2 C 0.136,7.214 0.001,8.092 0.001,9.001 c 0,4.971 4.029,9 9,9 1.526,0 2.963,-0.38 4.222,-1.051 l 12.336,14.392 c 0.716,0.835 1.938,0.882 2.716,0.104 l 3.172,-3.172 c 0.778,-0.778 0.731,-2 -0.104,-2.716 z"
       inkscape:connector-curvature="0"
       style="fill:#000000" />
  </g>
  <g
     id="g4158"
     transform="matrix(1,0,0,0.56779661,-108.74626,43.118644)">
    <g
       id="icomoon-ignore-691" />
    <path
       id="path4150"
       d="m 11.366,22.564 1.291,-1.807 -1.414,-1.414 -1.807,1.291 C 9.101,20.447 8.742,20.297 8.365,20.19 L 8,18 H 6 L 5.635,20.19 C 5.258,20.297 4.899,20.446 4.564,20.634 L 2.757,19.343 1.343,20.757 2.634,22.564 C 2.447,22.899 2.297,23.258 2.191,23.635 L 0.001,24 v 2 l 2.19,0.365 c 0.107,0.377 0.256,0.736 0.444,1.071 l -1.291,1.807 1.414,1.414 1.807,-1.291 C 4.9,29.553 5.259,29.703 5.636,29.81 L 6.001,32 h 2 l 0.365,-2.19 c 0.377,-0.107 0.736,-0.256 1.071,-0.444 l 1.807,1.291 1.414,-1.414 -1.291,-1.807 c 0.187,-0.335 0.337,-0.694 0.444,-1.071 L 14.001,26 v -2 l -2.19,-0.365 C 11.704,23.258 11.555,22.899 11.367,22.564 z M 7,27 c -1.105,0 -2,-0.895 -2,-2 0,-1.105 0.895,-2 2,-2 1.105,0 2,0.895 2,2 0,1.105 -0.895,2 -2,2 z M 32,12 V 10 L 29.894,9.617 C 29.855,9.366 29.806,9.118 29.746,8.874 L 31.545,7.715 30.78,5.867 28.688,6.319 C 28.556,6.103 28.415,5.893 28.266,5.69 L 29.485,3.929 28.071,2.515 26.31,3.734 C 26.107,3.585 25.897,3.444 25.681,3.312 L 26.133,1.22 24.285,0.455 23.126,2.254 C 22.882,2.195 22.634,2.145 22.383,2.106 L 22,0 H 20 L 19.617,2.106 C 19.366,2.145 19.118,2.194 18.874,2.254 L 17.715,0.455 15.867,1.22 16.319,3.312 C 16.103,3.444 15.893,3.585 15.69,3.734 L 13.929,2.515 12.515,3.929 13.734,5.69 c -0.149,0.203 -0.29,0.413 -0.422,0.629 L 11.22,5.867 10.455,7.715 12.254,8.874 C 12.195,9.118 12.145,9.366 12.106,9.617 L 10,10 v 2 l 2.106,0.383 c 0.039,0.251 0.088,0.499 0.148,0.743 l -1.799,1.159 0.765,1.848 2.092,-0.452 c 0.132,0.216 0.273,0.426 0.422,0.629 l -1.219,1.761 1.414,1.414 1.761,-1.219 c 0.203,0.149 0.413,0.29 0.629,0.422 l -0.452,2.092 1.848,0.765 1.159,-1.799 c 0.244,0.059 0.492,0.109 0.743,0.148 L 20,22 h 2 l 0.383,-2.106 c 0.251,-0.039 0.499,-0.088 0.743,-0.148 l 1.159,1.799 1.848,-0.765 -0.452,-2.092 c 0.216,-0.132 0.426,-0.273 0.629,-0.422 l 1.761,1.219 1.414,-1.414 -1.219,-1.761 c 0.149,-0.203 0.29,-0.413 0.422,-0.629 l 2.092,0.452 0.765,-1.848 -1.799,-1.159 c 0.059,-0.244 0.109,-0.492 0.148,-0.743 L 32,12 z m -11,3.35 c -2.402,0 -4.35,-1.948 -4.35,-4.35 0,-2.402 1.948,-4.35 4.35,-4.35 2.402,0 4.35,1.948 4.35,4.35 0,2.402 -1.948,4.35 -4.35,4.35 z"
       inkscape:connector-curvature="0"
       style="fill:#000000" />
  </g>
  <g
     id="g4698"
     transform="matrix(0.78692494,0,0,0.60169492,-76.861986,37.423729)">
    <g
       id="icomoon-ignore-56" />
    <path
       id="path4690"
       d="m 28,14 h 0.5 c 0.825,0 1.5,-0.675 1.5,-1.5 v -5 C 30,6.675 29.325,6 28.5,6 H 28 V 0 H 24 V 6 H 23.5 C 22.675,6 22,6.675 22,7.5 v 5 c 0,0.825 0.675,1.5 1.5,1.5 H 24 v 18 h 4 V 14 z M 24,8 h 4 v 4 H 24 V 8 z m -5.5,18 c 0.825,0 1.5,-0.675 1.5,-1.5 v -5 C 20,18.675 19.325,18 18.5,18 H 18 V 0 H 14 V 18 H 13.5 C 12.675,18 12,18.675 12,19.5 v 5 c 0,0.825 0.675,1.5 1.5,1.5 H 14 v 6 h 4 v -6 h 0.5 z M 14,20 h 4 v 4 H 14 V 20 z M 8.5,14 C 9.325,14 10,13.325 10,12.5 v -5 C 10,6.675 9.325,6 8.5,6 H 8 V 0 H 4 V 6 H 3.5 C 2.675,6 2,6.675 2,7.5 v 5 C 2,13.325 2.675,14 3.5,14 H 4 V 32 H 8 V 14 H 8.5 z M 4,8 h 4 v 4 H 4 V 8 z"
       inkscape:connector-curvature="0"
       style="fill:#000000" />
  </g>
  <g
     id="g5821"
     transform="matrix(0.68644068,0,0,0.79661017,-48.271187,36.067796)">
    <g
       id="icomoon-ignore-1" />
    <path
       id="path5813"
       d="M 4,8 V 28 H 32 V 8 H 4 z M 30,24.667 26,18 21.467,21.778 18,16 6,26 V 10 H 30 V 24.667 z M 8,15 c 0,-1.657 1.343,-3 3,-3 1.657,0 3,1.343 3,3 0,1.657 -1.343,3 -3,3 C 9.343,18 8,16.657 8,15 z M 28,4 H 0 V 24 H 2 V 6 h 26 z"
       inkscape:connector-curvature="0"
       style="fill:#000000" />
  </g>
  <g
     id="g6790"
     transform="matrix(0.58474576,0,0,0.74576271,-154.03448,63.186441)">
    <g
       id="icomoon-ignore-20" />
    <path
       id="path6782"
       d="M 12,20 16,18 30,4 28,2 14,16 12,20 z M 9.041,27.097 C 8.052,25.012 6.989,23.948 4.904,22.96 l 3.097,-8.525 4,-2.435 12,-12 h -6 l -12,12 -6,20 20,-6 12,-12 V 8 l -12,12 -2.435,4 z"
       inkscape:connector-curvature="0"
       style="fill:#000000" />
  </g>
  <g
     id="g6901"
     transform="matrix(0.50847458,0,0,0.72033898,-130.44068,62.644068)">
    <g
       id="icomoon-ignore-898" />
    <path
       id="path6893"
       d="m 27,0 c 2.761,0 5,2.239 5,5 0,1.126 -0.372,2.164 -1,3 L 29,10 22,3 24,1 C 24.836,0.372 25.874,0 27,0 z M 2,23 0,32 9,30 27.5,11.5 20.5,4.5 2,23 z m 20.362,-11.638 -14,14 -1.724,-1.724 14,-14 1.724,1.724 z"
       inkscape:connector-curvature="0"
       style="fill:#000000" />
  </g>
  <g
     id="g7474"
     transform="matrix(0.53391416,0,0,0.72034547,-109.83052,62.37323)">
    <g
       id="icomoon-ignore-050" />
    <path
       id="path7466"
       d="m 31.008,27.231 -7.58,-6.447 c -0.784,-0.705 -1.622,-1.029 -2.299,-0.998 1.789,-2.096 2.87,-4.815 2.87,-7.787 0,-6.627 -5.373,-12 -12,-12 -6.627,0 -12,5.373 -12,12 0,6.627 5.373,12 12,12 2.972,0 5.691,-1.081 7.787,-2.87 -0.031,0.677 0.293,1.515 0.998,2.299 l 6.447,7.58 c 1.104,1.226 2.907,1.33 4.007,0.23 1.1,-1.1 0.997,-2.903 -0.23,-4.007 z M 12,20 C 7.582,20 4,16.418 4,12 4,7.582 7.582,4 12,4 c 4.418,0 8,3.582 8,8 0,4.418 -3.582,8 -8,8 z"
       inkscape:connector-curvature="0"
       style="fill:#000000" />
  </g>
  <g
     id="g7552"
     transform="matrix(0.59322034,0,0,0.86440678,-89.491525,59.389831)">
    <g
       id="icomoon-ignore-053" />
    <path
       id="path7544"
       d="M 14,4 V 3.5 C 14,2.675 13.325,2 12.5,2 h -5 C 6.675,2 6,2.675 6,3.5 V 4 H 0 V 8 H 6 V 8.5 C 6,9.325 6.675,10 7.5,10 h 5 C 13.325,10 14,9.325 14,8.5 V 8 H 32 V 4 H 14 z M 8,8 V 4 h 4 V 8 H 8 z m 18,5.5 C 26,12.675 25.325,12 24.5,12 h -5 C 18.675,12 18,12.675 18,13.5 V 14 H 0 v 4 h 18 v 0.5 c 0,0.825 0.675,1.5 1.5,1.5 h 5 C 25.325,20 26,19.325 26,18.5 V 18 h 6 V 14 H 26 V 13.5 z M 20,18 v -4 h 4 v 4 h -4 z m -6,5.5 C 14,22.675 13.325,22 12.5,22 h -5 C 6.675,22 6,22.675 6,23.5 V 24 H 0 v 4 h 6 v 0.5 C 6,29.325 6.675,30 7.5,30 h 5 C 13.325,30 14,29.325 14,28.5 V 28 H 32 V 24 H 14 V 23.5 z M 8,28 v -4 h 4 v 4 H 8 z"
       inkscape:connector-curvature="0"
       style="fill:#000000" />
  </g>
</svg>
