<?xml version="1.0" encoding="UTF-8" standalone="no"?>
<!-- Created with Inkscape (http://www.inkscape.org/) -->

<svg
   xmlns:dc="http://purl.org/dc/elements/1.1/"
   xmlns:cc="http://creativecommons.org/ns#"
   xmlns:rdf="http://www.w3.org/1999/02/22-rdf-syntax-ns#"
   xmlns:svg="http://www.w3.org/2000/svg"
   xmlns="http://www.w3.org/2000/svg"
   xmlns:sodipodi="http://sodipodi.sourceforge.net/DTD/sodipodi-0.dtd"
   xmlns:inkscape="http://www.inkscape.org/namespaces/inkscape"
   id="svg2"
   version="1.1"
   inkscape:version="0.48.4 r9939"
   width="64"
   height="64"
   sodipodi:docname="plantilla-mono-1.svg">
  <metadata
     id="metadata8">
    <rdf:RDF>
      <cc:Work
         rdf:about="">
        <dc:format>image/svg+xml</dc:format>
        <dc:type
           rdf:resource="http://purl.org/dc/dcmitype/StillImage" />
        <dc:title></dc:title>
      </cc:Work>
    </rdf:RDF>
  </metadata>
  <defs
     id="defs6" />
  <sodipodi:namedview
     pagecolor="#ffffff"
     bordercolor="#666666"
     borderopacity="1"
     objecttolerance="10"
     gridtolerance="10"
     guidetolerance="10"
     inkscape:pageopacity="0"
     inkscape:pageshadow="2"
     inkscape:window-width="1317"
     inkscape:window-height="713"
     id="namedview4"
     showgrid="false"
     inkscape:zoom="3.6875"
     inkscape:cx="-13.559322"
     inkscape:cy="32"
     inkscape:window-x="43"
     inkscape:window-y="24"
     inkscape:window-maximized="1"
     inkscape:current-layer="svg2" />
  <rect
     style="fill:#000000;fill-opacity:1;stroke:#000000;stroke-width:0.53665989999999997;stroke-linecap:round;stroke-linejoin:round;stroke-miterlimit:4;stroke-opacity:1;stroke-dasharray:none"
     id="rect3005"
     width="59.081985"
     height="59.624359"
     x="2.4590092"
     y="2.1878221"
     ry="5.9392786"
     rx="5.9392786" />
  <g
     id="g3229"
     transform="matrix(0.91698376,0,0,1.0968523,-133.10204,-37.138015)"
     style="fill:#000000">
    <g
       id="icomoon-ignore"
       style="fill:#000000" />
    <path
       id="path3221"
       d="M 19.8,5 V 3.8 C 19.8,3.358 19.441,3 19,3 H 1 C 0.558,3 0.2,3.358 0.2,3.8 V 5 h 2 v 2 h -2 v 2 h 2 v 2 h -2 v 2 h 2 v 2 h -2 v 1.2 C 0.2,16.642 0.558,17 1,17 h 18 c 0.441,0 0.8,-0.358 0.8,-0.8 V 15 h -2 v -2 h 2 v -2 h -2 V 9 h 2 V 7 h -2 V 5 h 2 z m -12,8 V 7 l 5,3 -5,3 z"
       inkscape:connector-curvature="0"
       style="fill:#000000" />
  </g>
  <g
     id="g3758"
     transform="translate(-61.79661,-15.10917)"
     style="fill:#000000">
    <g
       id="icomoon-ignore-8"
       style="fill:#000000" />
    <path
       id="path3750"
       d="m 15.213,7.639 c -0.275,0 -0.546,0.024 -0.809,0.068 -0.656,-2.145 -2.688,-3.708 -5.096,-3.708 -2.938,0 -5.319,2.328 -5.319,5.2 0,0.256 0.02,0.508 0.057,0.755 C 3.905,9.938 3.763,9.927 3.617,9.927 1.62,9.927 0,11.511 0,13.463 c 0,1.953 1.62,3.536 3.617,3.536 h 11.596 c 2.645,0 4.787,-2.096 4.787,-4.68 0,-2.584 -2.143,-4.68 -4.787,-4.68 z"
       inkscape:connector-curvature="0"
       style="fill:#000000" />
  </g>
  <g
     id="g4320"
     transform="translate(-39.016949,-13.525424)">
    <g
       id="icomoon-ignore-4" />
    <path
       id="path4312"
       d="M 16,3 H 4 C 2.9,3 2,3.9 2,5 v 7 c 0,1.1 0.9,2 2,2 h 4 l 4,3 v -3 h 4 c 1.1,0 2,-0.9 2,-2 V 5 C 18,3.9 17.1,3 16,3 z"
       inkscape:connector-curvature="0"
       style="fill:#000000" />
  </g>
  <g
     id="g5443"
     transform="translate(-47.152543,23.627119)">
    <g
       id="icomoon-ignore-9" />
    <path
       id="path5435"
       d="m -51.898305,-23.908475 c -0.987,0 -1.836,0.598 -2.204,1.45 h -3.296 c -1.412,0 -1.544,-1.192 -1.55,-1.55 v -3.868 c 0.431,0.199 0.943,0.318 1.55,0.318 h 3.296 c 0.368,0.853 1.217,1.45 2.204,1.45 1.325,0 2.4,-1.075 2.4,-2.4 0,-1.325 -1.075,-2.4 -2.4,-2.4 -0.987,0 -1.836,0.598 -2.204,1.45 h -3.296 c -1.412,0 -1.544,-1.192 -1.55,-1.55 v -2.296 c 0.853,-0.368 1.449,-1.217 1.449,-2.204 0,-1.325 -1.074,-2.4 -2.399,-2.4 -1.325,0 -2.4,1.075 -2.4,2.4 0,0.987 0.598,1.835 1.45,2.204 v 9.296 c 0,1.387 0.919,3.45 3.45,3.45 h 3.296 c 0.368,0.853 1.217,1.45 2.204,1.45 1.325,0 2.4,-1.074 2.4,-2.4 0,-1.326 -1.075,-2.4 -2.4,-2.4 z m 0,-5.985 c 0.765,0 1.385,0.62 1.385,1.385 0,0.765 -0.62,1.385 -1.385,1.385 -0.765,0 -1.385,-0.62 -1.385,-1.385 0,-0.765 0.62,-1.385 1.385,-1.385 z m -9.385,-5.615 c 0,-0.765 0.62,-1.385 1.385,-1.385 0.765,0 1.385,0.62 1.385,1.385 0,0.765 -0.62,1.385 -1.385,1.385 -0.765,0 -1.385,-0.62 -1.385,-1.385 z m 9.385,15.385 c -0.765,0 -1.385,-0.62 -1.385,-1.385 0,-0.765 0.62,-1.385 1.385,-1.385 0.765,0 1.385,0.62 1.385,1.385 0,0.765 -0.62,1.385 -1.385,1.385 z"
       inkscape:connector-curvature="0"
       style="fill:#000000" />
  </g>
  <g
     id="g5543"
     transform="translate(-134.74576,-13.525424)">
    <g
       id="icomoon-ignore-0" />
    <path
       id="path5535"
       d="m 16.4,4 c 0,-1.325 -1.074,-2.4 -2.4,-2.4 -1.326,0 -2.4,1.075 -2.4,2.4 0,0.973 0.58,1.809 1.412,2.186 C 12.785,8.134 11.53,8.527 9.717,9.093 8.837,9.368 7.814,9.688 6.95,10.31 V 6.204 C 7.803,5.835 8.4,4.987 8.4,4 8.4,2.675 7.325,1.6 6,1.6 4.675,1.6 3.6,2.675 3.6,4 c 0,0.987 0.597,1.835 1.45,2.204 v 7.593 C 4.197,14.164 3.6,15.012 3.6,16 c 0,1.325 1.074,2.4 2.4,2.4 1.326,0 2.4,-1.075 2.4,-2.4 0,-0.973 -0.58,-1.809 -1.413,-2.186 0.228,-1.948 1.484,-2.342 3.296,-2.907 1.843,-0.576 4.326,-1.353 4.634,-4.689 C 15.787,5.856 16.4,5 16.4,4 z M 4.615,4 C 4.615,3.235 5.235,2.615 6,2.615 6.765,2.615 7.385,3.235 7.385,4 7.385,4.765 6.765,5.385 6,5.385 5.235,5.385 4.615,4.765 4.615,4 z M 6,17.385 c -0.765,0 -1.385,-0.62 -1.385,-1.385 0,-0.765 0.62,-1.385 1.385,-1.385 0.765,0 1.385,0.62 1.385,1.385 0,0.765 -0.62,1.385 -1.385,1.385 z m 8,-12 c -0.764,0 -1.385,-0.62 -1.385,-1.385 0,-0.765 0.621,-1.385 1.385,-1.385 0.764,0 1.385,0.62 1.385,1.385 0,0.765 -0.621,1.385 -1.385,1.385 z"
       inkscape:connector-curvature="0"
       style="fill:#000000" />
  </g>
  <g
     id="g5654"
     transform="translate(-98.135594,-15.694916)">
    <g
       id="icomoon-ignore-6" />
    <path
       id="path5646"
       d="M 10.95,13.796 V 6.203 C 11.803,5.835 12.4,4.987 12.4,4 12.4,2.674 11.325,1.6 10,1.6 8.675,1.6 7.6,2.674 7.6,4 c 0,0.987 0.598,1.835 1.45,2.203 v 7.593 C 8.197,14.164 7.6,15.012 7.6,16 c 0,1.325 1.075,2.4 2.4,2.4 1.325,0 2.4,-1.075 2.4,-2.4 0,-0.988 -0.597,-1.836 -1.45,-2.204 z M 8.615,4 c 0,-0.765 0.62,-1.385 1.385,-1.385 0.765,0 1.385,0.62 1.385,1.385 0,0.765 -0.62,1.385 -1.385,1.385 C 9.235,5.385 8.615,4.765 8.615,4 z M 10,17.385 c -0.765,0 -1.385,-0.62 -1.385,-1.385 0,-0.765 0.62,-1.385 1.385,-1.385 0.765,0 1.385,0.62 1.385,1.385 0,0.765 -0.62,1.385 -1.385,1.385 z"
       inkscape:connector-curvature="0"
       style="fill:#000000" />
  </g>
  <g
     id="g5765"
     transform="translate(-160.23729,-13.79661)">
    <g
       id="icomoon-ignore-08" />
    <path
       id="path5757"
       d="M 8.4,4 C 8.4,2.674 7.325,1.6 6,1.6 4.675,1.6 3.6,2.674 3.6,4 c 0,0.987 0.597,1.835 1.45,2.203 v 7.593 C 4.197,14.164 3.6,15.012 3.6,16 c 0,1.325 1.075,2.4 2.4,2.4 1.325,0 2.4,-1.075 2.4,-2.4 0,-0.988 -0.598,-1.836 -1.45,-2.204 V 6.203 C 7.803,5.835 8.4,4.987 8.4,4 z M 7.385,16 c 0,0.765 -0.62,1.385 -1.385,1.385 -0.765,0 -1.384,-0.62 -1.384,-1.385 0,-0.765 0.62,-1.385 1.384,-1.385 0.765,0 1.385,0.62 1.385,1.385 z M 6,5.385 C 5.236,5.385 4.616,4.765 4.616,4 4.616,3.235 5.236,2.615 6,2.615 6.765,2.615 7.385,3.235 7.385,4 7.385,4.765 6.765,5.385 6,5.385 z m 8.951,8.411 V 6.203 C 15.803,5.835 16.4,4.987 16.4,4 16.4,2.674 15.326,1.6 14,1.6 c -1.324,0 -2.4,1.074 -2.4,2.4 0,0.987 0.598,1.835 1.451,2.203 v 7.593 C 12.197,14.164 11.6,15.012 11.6,16 c 0,1.325 1.076,2.4 2.4,2.4 1.326,0 2.4,-1.075 2.4,-2.4 0,-0.988 -0.597,-1.836 -1.449,-2.204 z M 12.615,4 c 0,-0.765 0.621,-1.385 1.385,-1.385 0.766,0 1.385,0.62 1.385,1.385 0,0.765 -0.619,1.385 -1.385,1.385 -0.764,0 -1.385,-0.62 -1.385,-1.385 z M 14,17.385 c -0.764,0 -1.385,-0.62 -1.385,-1.385 0,-0.765 0.621,-1.385 1.385,-1.385 0.766,0 1.385,0.62 1.385,1.385 0,0.765 -0.619,1.385 -1.385,1.385 z"
       inkscape:connector-curvature="0"
       style="fill:#000000" />
  </g>
  <g
     id="g5920"
     transform="translate(-47.152704,63.220339)">
    <g
       id="icomoon-ignore-88" />
    <path
       id="path5912"
       d="m -90.760508,-48.322034 h -18.140002 c -0.92,0 -0.967,0.448 -0.916,0.996 l 0.825,9.008 c 0.05,0.548 0.18,0.996 1.099,0.996 h 16.125002 c 0.938,0 1.049,-0.448 1.099,-0.996 l 0.825,-9.008 c 0.049,-0.548 0.004,-0.996 -0.917,-0.996 z m -0.666,-2.2 c -0.11,-0.44 -0.655,-0.8 -1.209,-0.8 h -6.814 c -0.555002,0 -1.329002,-0.317 -1.722002,-0.706 l -0.596,-0.588 c -0.392,-0.389 -1.167,-0.706 -1.721,-0.706 h -3.256 c -0.554,0 -1.058,0.447 -1.119,0.994 l -0.292,2.606 h 16.931002 l -0.202,-0.8 z"
       inkscape:connector-curvature="0"
       style="fill:#000000" />
  </g>
  <g
     id="g6031"
     transform="translate(-159.69492,-37.747388)">
    <g
       id="icomoon-ignore-00" />
    <path
       id="path6023"
       d="m 8.128,13.802 c -0.69,1.196 -0.226,2.18 0.731,2.732 0.957,0.552 2.042,0.464 2.732,-0.732 C 12.281,14.607 16.638,3.936 16.259,3.717 15.88,3.498 8.818,12.606 8.128,13.802 z M 10,6.202 c 0.438,0 0.865,0.038 1.281,0.108 C 11.719,5.762 12.21,5.158 12.687,4.583 11.835,4.336 10.936,4.202 10,4.202 4.393,4.202 0,8.93 0,14.966 c 0,0.372 0.017,0.743 0.049,1.105 0.049,0.55 0.54,0.955 1.085,0.907 0.55,-0.05 0.956,-0.535 0.907,-1.085 C 2.014,15.59 2,15.278 2,14.966 2,10.052 5.515,6.202 10,6.202 z m 7.219,1.249 c -0.279,0.75 -0.574,1.514 -0.834,2.175 1.017,1.47 1.615,3.313 1.615,5.34 0,0.317 -0.014,0.636 -0.042,0.945 -0.05,0.55 0.355,1.036 0.905,1.087 0.031,0.003 0.061,0.004 0.092,0.004 0.511,0 0.947,-0.391 0.994,-0.909 C 19.983,15.723 20,15.344 20,14.966 20,12.015 18.948,9.377 17.219,7.451 z"
       inkscape:connector-curvature="0"
       style="fill:#000000" />
  </g>
  <g
     id="g6208"
     transform="matrix(1,0,0,0.66101695,-113.59322,-33.322034)">
    <g
       id="icomoon-ignore-2" />
    <path
       id="path6200"
       d="m 15.6,4.578 c 0,-2.14 0,-2.349 0,-2.349 C 15.6,1.439 13.093,0 10,0 6.907,0 4.4,1.439 4.4,2.229 c 0,0 0,0.209 0,2.349 0,2.14 3.877,3.907 3.877,5.422 0,1.516 -3.877,3.282 -3.877,5.423 0,2.14 0,2.349 0,2.349 0,0.789 2.507,2.228 5.6,2.228 3.093,0 5.6,-1.439 5.6,-2.229 0,0 0,-0.209 0,-2.349 0,-2.14 -3.876,-3.907 -3.876,-5.423 0,-1.514 3.876,-3.282 3.876,-5.421 z M 5.94,2.329 C 6.636,1.89 7.941,1.246 10.054,1.246 c 2.113,0 4.006,1.083 4.006,1.083 0.142,0.086 0.698,0.384 0.317,0.609 -0.839,0.497 -2.479,1.02 -4.378,1.02 C 8.1,3.958 6.516,3.381 5.677,2.884 5.296,2.658 5.94,2.329 5.94,2.329 z M 10.501,10 c 0,1.193 0.996,1.961 2.052,2.986 0.771,0.749 1.825,1.774 1.825,2.437 v 1.328 c -0.969,-0.483 -3.871,-0.956 -3.871,-2.504 0,-0.784 -1.014,-0.784 -1.014,0 0,1.548 -2.902,2.021 -3.871,2.504 v -1.328 c 0,-0.662 1.055,-1.688 1.826,-2.437 C 8.503,11.961 9.499,11.193 9.499,10 9.499,8.807 8.503,8.039 7.448,7.014 6.677,6.265 5.622,5.239 5.622,4.578 l -0.047,-1 C 6.601,4.13 8.228,4.657 10,4.657 c 1.772,0 3.407,-0.527 4.433,-1.079 l -0.055,1 c 0,0.661 -1.055,1.687 -1.825,2.436 C 11.497,8.039 10.501,8.807 10.501,10 z"
       inkscape:connector-curvature="0"
       style="fill:#000000" />
  </g>
  <g
     id="g6374"
     transform="matrix(0.82313622,0,0,0.77892028,-94.46865,-33.958694)">
    <g
       id="icomoon-ignore-1" />
    <path
       id="path6366"
       d="m 9.877,0.801 c -5.08,0.068 -9.144,4.242 -9.076,9.323 0.068,5.078 4.242,9.143 9.322,9.075 5.08,-0.068 9.144,-4.242 9.076,-9.323 C 19.132,4.797 14.957,0.733 9.877,0.801 z m 1.02,3.066 c 0.935,0 1.211,0.542 1.211,1.163 0,0.775 -0.621,1.492 -1.68,1.492 -0.886,0 -1.307,-0.446 -1.282,-1.182 0,-0.621 0.52,-1.473 1.751,-1.473 z M 8.499,15.75 c -0.639,0 -1.107,-0.388 -0.66,-2.094 l 0.733,-3.024 c 0.127,-0.485 0.148,-0.679 0,-0.679 -0.191,0 -1.021,0.335 -1.512,0.665 L 6.741,10.095 c 1.555,-1.298 3.343,-2.06 4.109,-2.06 0.639,0 0.745,0.756 0.426,1.919 l -0.84,3.18 c -0.148,0.562 -0.084,0.756 0.064,0.756 0.191,0 0.82,-0.232 1.438,-0.718 l 0.361,0.485 c -1.511,1.511 -3.16,2.093 -3.8,2.093 z"
       inkscape:connector-curvature="0"
       style="fill:#000000" />
  </g>
  <g
     id="g6463"
     transform="matrix(0.74773354,0,0,0.74773354,-77.443437,-33.782421)">
    <g
       id="icomoon-ignore-63" />
    <path
       id="path6455"
       d="m 15.2,10 c 0,2.872 -2.329,5.2 -5.2,5.2 C 7.129,15.2 4.8,12.872 4.8,10 4.8,9.658 4.834,9.324 4.898,9 H 1.4 v 6.912 c 0,1.484 1.202,2.688 2.688,2.688 h 11.824 c 1.484,0 2.688,-1.203 2.688,-2.688 V 9 H 15.103 C 15.166,9.324 15.2,9.658 15.2,10 z M 15.912,1.4 H 4.088 C 2.603,1.4 1.4,2.604 1.4,4.088 V 7 H 5.754 C 6.695,5.67 8.246,4.8 10,4.8 c 1.754,0 3.305,0.87 4.246,2.2 H 18.6 V 4.088 C 18.6,2.604 17.396,1.4 15.912,1.4 z m 1.315,3.32 c 0,0.265 -0.216,0.48 -0.48,0.48 h -1.439 c -0.264,0 -0.48,-0.216 -0.48,-0.48 V 3.28 c 0,-0.265 0.217,-0.48 0.48,-0.48 h 1.439 c 0.265,0 0.48,0.216 0.48,0.48 V 4.72 z M 13.2,10 C 13.2,8.232 11.767,6.8 10,6.8 8.233,6.8 6.8,8.232 6.8,10 c 0,1.768 1.433,3.2 3.2,3.2 1.767,0 3.2,-1.432 3.2,-3.2 z"
       inkscape:connector-curvature="0"
       style="fill:#000000" />
  </g>
  <g
     id="g6651"
     transform="matrix(1,0,0,0.74945627,-61.796623,-34.47798)">
    <g
       id="icomoon-ignore-5" />
    <path
       id="path6643"
       d="m 9.877,0.801 c -5.08,0.068 -9.144,4.241 -9.076,9.322 0.068,5.081 4.242,9.144 9.322,9.077 5.081,-0.068 9.145,-4.242 9.076,-9.322 C 19.131,4.796 14.957,0.733 9.877,0.801 z M 9.894,2 c 1.37,-0.019 2.664,0.31 3.8,0.901 L 12.456,4.965 C 11.714,4.604 10.881,4.4 10,4.4 9.119,4.4 8.287,4.604 7.545,4.966 L 6.308,2.903 C 7.382,2.343 8.6,2.018 9.894,2 z M 4.966,12.455 2.904,13.691 C 2.344,12.618 2.019,11.4 2.002,10.107 1.983,8.736 2.312,7.442 2.903,6.307 L 4.966,7.546 C 4.604,8.287 4.4,9.119 4.4,10 c 0,0.881 0.204,1.713 0.566,2.455 z m 5.141,5.544 c -1.37,0.019 -2.665,-0.31 -3.8,-0.901 L 7.545,15.034 C 8.287,15.396 9.12,15.6 10,15.6 c 0.88,0 1.714,-0.203 2.455,-0.565 l 1.237,2.062 c -1.074,0.559 -2.291,0.884 -3.585,0.902 z M 10,14.399 c -2.43,0 -4.399,-1.97 -4.399,-4.399 0,-2.429 1.97,-4.4 4.399,-4.4 2.431,0 4.4,1.97 4.4,4.4 0,2.43 -1.969,4.399 -4.4,4.399 z m 5.034,-1.944 C 15.396,11.713 15.6,10.88 15.6,10 15.6,9.12 15.396,8.287 15.034,7.545 l 2.062,-1.238 c 0.56,1.074 0.886,2.291 0.903,3.585 0.018,1.371 -0.311,2.665 -0.902,3.8 l -2.063,-1.237 z"
       inkscape:connector-curvature="0"
       style="fill:#000000" />
  </g>
  <g
     id="g6729"
     transform="translate(-82.677964,-15.423469)">
    <g
       id="icomoon-ignore-21" />
    <path
       id="path6721"
       d="m 7.185,19.17 c 0.789,0.51 1.703,0.855 2.815,0.828 1.112,0.027 2.025,-0.318 2.814,-0.828 V 17.1 H 7.185 v 2.07 z m 5.511,-3.271 c 0,-4.356 4.631,-5.75 4.284,-10.089 C 16.762,3.072 14.907,0 10,0 5.093,0 3.238,3.072 3.02,5.81 2.673,10.15 7.303,11.543 7.303,15.899 h 5.393 z M 5.138,5.968 C 5.346,3.369 7.114,2.051 10,2.051 c 2.886,0 4.654,1.318 4.861,3.917 0.113,1.423 -0.705,2.372 -1.81,3.926 -0.813,1.146 -1.775,2.499 -2.225,4.261 H 9.173 C 8.723,12.393 7.762,11.041 6.947,9.894 5.843,8.339 5.025,7.391 5.138,5.968 z"
       inkscape:connector-curvature="0"
       style="fill:#000000" />
  </g>
  <g
     id="g6818"
     transform="translate(-61.79661,8.7117334)">
    <g
       id="icomoon-ignore-62" />
    <path
       id="path6810"
       d="m 7.859,14.694 -0.81,0.804 c -0.702,0.695 -1.843,0.696 -2.544,0 -0.337,-0.335 -0.522,-0.778 -0.522,-1.251 0,-0.473 0.186,-0.917 0.522,-1.252 l 2.98,-2.957 C 8.102,9.425 9.264,8.524 10.111,9.364 10.5,9.75 11.128,9.747 11.513,9.359 11.898,8.971 11.897,8.343 11.508,7.957 10.069,6.529 7.941,6.793 6.088,8.631 l -2.98,2.957 C 2.394,12.298 2,13.242 2,14.247 2,15.252 2.394,16.195 3.109,16.905 3.845,17.636 4.811,18 5.777,18 6.743,18 7.711,17.636 8.447,16.905 L 9.257,16.1 C 9.646,15.714 9.648,15.086 9.262,14.699 8.876,14.311 8.248,14.309 7.859,14.694 z M 16.891,3.209 C 15.345,1.675 13.184,1.592 11.752,3.012 l -1.009,1.001 c -0.389,0.386 -0.392,1.013 -0.006,1.402 0.386,0.389 1.014,0.391 1.402,0.005 l 1.009,-1.001 c 0.741,-0.736 1.712,-0.431 2.346,0.197 0.337,0.334 0.522,0.779 0.522,1.251 0,0.473 -0.186,0.917 -0.522,1.251 l -3.18,3.154 c -1.453,1.442 -2.136,0.766 -2.427,0.477 -0.389,-0.386 -1.016,-0.383 -1.401,0.005 -0.385,0.388 -0.384,1.017 0.005,1.402 0.667,0.662 1.43,0.99 2.228,0.99 0.978,0 2.011,-0.492 2.993,-1.467 L 16.891,8.525 C 17.606,7.816 18,6.872 18,5.868 18,4.864 17.606,3.919 16.891,3.209 z"
       inkscape:connector-curvature="0"
       style="fill:#000000" />
  </g>
  <g
     id="g7083"
     transform="translate(-37.932204,8.1694143)">
    <g
       id="icomoon-ignore-20" />
    <path
       id="path7075"
       d="m 12.164,17.859 c -0.028,0.31 0.217,0.584 0.546,0.611 l 3.985,0.327 c 0.328,0.027 0.621,-0.203 0.649,-0.513 l 0.312,-3.286 -5.181,-0.427 -0.311,3.288 z m -9.82,-2.86 0.311,3.286 c 0.029,0.31 0.322,0.54 0.65,0.513 L 7.29,18.471 C 7.618,18.444 7.864,18.169 7.835,17.86 L 7.523,14.573 2.344,14.999 z M 1.831,9.583 2.152,12.973 7.333,12.547 7.011,9.16 C 7.004,9.079 7,8.994 7,8.911 7,7.355 8.346,6.09 10,6.09 c 1.654,0 3,1.266 3,2.821 0,0.083 -0.004,0.167 -0.012,0.249 l -0.32,3.387 5.18,0.426 0.321,-3.39 C 18.189,9.359 18.2,9.134 18.2,8.911 18.2,4.659 14.521,1.2 10,1.2 5.479,1.2 1.8,4.659 1.8,8.911 c 0,0.223 0.011,0.448 0.031,0.672 z"
       inkscape:connector-curvature="0"
       style="fill:#000000" />
  </g>
  <g
     id="g7172"
     transform="translate(-157.25499,31.762744)">
    <g
       id="icomoon-ignore-04" />
    <path
       id="path7164"
       d="M 17.223,7.029 C 15.64,3.344 13.091,0.538 11.802,1.063 c -2.189,0.89 1.305,5.164 -9.446,9.534 -0.929,0.377 -1.164,1.888 -0.775,2.791 0.389,0.903 1.658,1.802 2.587,1.425 0.16,-0.065 0.751,-0.255 0.751,-0.255 0.663,0.89 1.357,0.362 1.604,0.928 0.296,0.68 0.939,2.157 1.157,2.659 0.22,0.502 0.716,0.968 1.076,0.831 0.358,-0.137 1.581,-0.603 2.049,-0.78 0.468,-0.177 0.58,-0.595 0.437,-0.924 -0.154,-0.354 -0.786,-0.458 -0.966,-0.872 -0.18,-0.414 -0.77,-1.739 -0.939,-2.157 -0.23,-0.568 0.259,-1.03 0.97,-1.104 4.894,-0.51 5.809,2.513 7.475,1.835 1.286,-0.526 1.024,-4.26 -0.559,-7.945 z m -0.551,5.977 c -0.286,0.116 -2.212,-1.402 -3.443,-4.267 -1.23,-2.864 -1.075,-5.482 -0.79,-5.598 0.285,-0.116 2.165,1.716 3.396,4.58 1.229,2.863 1.123,5.169 0.837,5.285 z"
       inkscape:connector-curvature="0"
       style="fill:#000000" />
  </g>
  <g
     id="g7283"
     transform="matrix(1,0,0,0.67457627,-26.81356,-34.406779)">
    <g
       id="icomoon-ignore-40" />
    <path
       id="path7275"
       d="m 16,7.243 h -0.6 c -0.221,0 -0.4,0.18 -0.4,0.4 V 10.4 C 15,11.737 13.947,14 10,14 6.053,14 5,11.737 5,10.4 V 7.643 C 5,7.423 4.819,7.243 4.6,7.243 H 4 c -0.22,0 -0.4,0.18 -0.4,0.4 V 10.4 c 0,2.237 1.644,4.63 5.4,4.96 V 18 H 6.399 C 6.18,18 6,18.18 6,18.4 v 1.2 C 6,19.82 6.18,20 6.399,20 h 7.2 c 0.221,0 0.4,-0.18 0.4,-0.4 v -1.2 c 0,-0.221 -0.18,-0.4 -0.4,-0.4 H 11 v -2.64 c 3.757,-0.33 5.4,-2.724 5.4,-4.96 V 7.643 c 0,-0.22 -0.18,-0.4 -0.4,-0.4 z M 10,12 c 2.347,0 3,-0.964 3,-1.6 V 7.243 H 7 V 10.4 C 7,11.036 7.653,12 10,12 z M 13,1.6 C 13,0.963 12.347,0 10,0 7.653,0 7,0.963 7,1.6 v 4.243 h 6 V 1.6 z"
       inkscape:connector-curvature="0"
       style="fill:#000000" />
  </g>
  <g
     id="g7438"
     transform="translate(-85.93251,29.26534)">
    <g
       id="icomoon-ignore-89" />
    <path
       id="path7430"
       d="M 11.799,1.199 H 10.195 V 14.271 C 9.308,13.929 8.16,13.924 7.028,14.336 5,15.074 3.791,16.87 4.328,18.346 c 0.538,1.477 2.618,2.075 4.646,1.337 1.723,-0.627 2.85,-2.017 2.822,-3.325 l 0.003,-10.69 c 2.797,0.44 2.988,3.977 2.653,4.969 -0.128,0.376 0.097,0.657 0.52,0 3.015,-4.693 -3.173,-6.762 -3.173,-9.438 z"
       inkscape:connector-curvature="0"
       style="fill:#000000" />
  </g>
  <g
     id="g7571"
     transform="translate(-110.82854,29.864978)">
    <g
       id="icomoon-ignore-25" />
    <path
       id="path7563"
       d="M 6.11,2.729 V 14.596 C 5.464,14.461 4.712,14.512 3.966,14.788 2.289,15.411 1.697,16.928 2.142,18.174 2.587,19.42 3.899,19.925 5.576,19.302 7,18.773 7.933,17.601 7.909,16.495 c 0,0 0,-6.293 0,-9.803 L 15.01,5.065 v 7.53 c -0.646,-0.135 -1.398,-0.084 -2.144,0.192 -1.678,0.623 -2.27,2.14 -1.825,3.386 0.445,1.246 1.757,1.751 3.435,1.128 1.425,-0.529 2.356,-1.701 2.334,-2.807 V 0.43 L 6.11,2.729 z"
       inkscape:connector-curvature="0"
       style="fill:#000000" />
  </g>
  <g
     id="g7649"
     transform="translate(-132.0339,30.406779)">
    <g
       id="icomoon-ignore-51" />
    <path
       id="path7641"
       d="M 15,1 H 5 C 3.9,1 3,1.9 3,3 v 14 c 0,1.1 0.9,2 2,2 h 10 c 1.101,0 2,-0.9 2,-2 V 3 C 17,1.9 16.101,1 15,1 z m -2.204,9.521 c -0.237,0.37 -0.363,0.212 -0.292,0 0.188,-0.558 0.181,-2.247 -1.392,-2.494 v 5.213 c 0,0.972 -0.56,1.582 -1.75,1.964 -1.156,0.37 -2.45,-0.015 -2.753,-0.846 -0.302,-0.83 0.378,-1.84 1.519,-2.256 0.637,-0.231 1.283,-0.229 1.781,-0.036 V 4.712 h 1.203 c 0,1.263 3.381,3.169 1.684,5.809 z"
       inkscape:connector-curvature="0"
       style="fill:#000000" />
  </g>
  <g
     id="g7804"
     transform="matrix(1.7471557,0,0,1.4282153,9.1040211,18.532162)"
     style="fill:#ffffff">
    <g
       id="icomoon-ignore-94"
       style="fill:#ffffff" />
    <path
       id="path7796"
       d="M 17.352,4.565 C 14.248,2.501 10.763,1.788 6.63,2.972 3.404,3.897 0.447,7.566 0.218,10.708 c -0.271,3.715 2.623,6.896 7.718,6.891 5.494,-0.006 7.55,-2.644 7.596,-3.445 0.046,-0.801 -2.144,-2.284 -0.735,-3.808 1.765,-1.909 3.336,-0.282 4.288,-0.512 0.952,-0.228 1.434,-3.161 -1.733,-5.269 z m -6.374,9.318 c -0.831,0 -1.505,-0.672 -1.505,-1.5 0,-0.828 0.674,-1.5 1.505,-1.5 0.831,0 1.504,0.671 1.504,1.5 -10e-4,0.828 -0.673,1.5 -1.504,1.5 z"
       inkscape:connector-curvature="0"
       style="fill:#ffffff" />
  </g>
  <g
     id="g8025"
     transform="translate(-132.30509,6.7574322)">
    <g
       id="icomoon-ignore-15" />
    <path
       id="path8017"
       d="M 8.966,2.198 C 5.112,2.656 2.058,5.711 1.6,9.564 H 8.966 V 2.198 z m 2.107,0.015 v 8.455 c 0,0.554 -0.449,1.003 -1.004,1.003 H 1.614 c 0.541,4.135 4.073,7.328 8.354,7.328 4.656,0 8.432,-3.774 8.432,-8.432 0,-4.281 -3.193,-7.813 -7.327,-8.354 z"
       inkscape:connector-curvature="0"
       style="fill:#000000" />
  </g>
  <g
     id="g8807"
     transform="matrix(0.75491411,0,0,0.73980479,-41.176357,-34.9238)"
     inkscape:transform-center-x="-38.07838"
     inkscape:transform-center-y="-6.5539742">
    <g
       id="icomoon-ignore-61" />
    <path
       id="path8799"
       d="M 3.134,6.89 C 4.068,6.165 4.842,6.664 5.875,7.86 5.992,7.994 6.148,7.837 6.236,7.76 6.324,7.682 7.688,6.456 7.754,6.399 7.821,6.34 7.901,6.23 7.795,6.107 7.689,5.984 7.301,5.482 7.052,5.157 5.244,2.792 11.998,1.188 10.96,1.163 10.433,1.149 8.314,1.125 7.998,1.158 6.715,1.294 5.104,2.493 4.293,3.051 3.233,3.78 2.836,4.203 2.771,4.262 2.471,4.525 2.723,5.129 2.179,5.606 1.604,6.11 1.246,5.729 0.913,6.021 0.747,6.167 0.286,6.512 0.153,6.629 0.021,6.745 -0.003,6.942 0.132,7.1 c 0,0 1.263,1.396 1.37,1.519 C 1.609,8.742 1.893,8.846 2.07,8.69 2.247,8.535 2.701,8.136 2.778,8.068 2.855,8 2.728,7.205 3.134,6.89 z M 8.843,7.406 C 8.723,7.267 8.575,7.264 8.446,7.378 L 7.011,8.629 c -0.112,0.1 -0.127,0.284 -0.026,0.4 l 8.294,9.438 c 0.193,0.224 0.529,0.247 0.752,0.053 l 0.971,-0.812 c 0.221,-0.194 0.244,-0.534 0.051,-0.757 L 8.843,7.406 z M 19.902,3.389 C 19.828,2.895 19.572,2.999 19.439,3.209 19.308,3.418 18.718,4.31 18.476,4.713 18.236,5.115 17.646,5.904 16.542,5.125 15.394,4.313 15.794,3.746 15.993,3.365 16.194,2.982 16.811,1.91 16.901,1.775 16.989,1.64 16.885,1.248 16.53,1.412 c -0.357,0.165 -2.523,1.026 -2.824,2.26 -0.307,1.257 0.258,2.379 -0.85,3.494 l -1.342,1.4 1.348,1.568 1.654,-1.571 c 0.395,-0.396 1.236,-0.781 1.998,-0.608 1.633,0.37 2.523,-0.244 3.061,-1.257 0.482,-0.907 0.402,-2.815 0.327,-3.309 z M 2.74,17.051 c -0.208,0.21 -0.208,0.55 0,0.759 l 0.951,0.93 c 0.208,0.209 0.538,0.121 0.746,-0.088 L 9.344,13.827 7.84,12.114 2.74,17.051 z"
       inkscape:connector-curvature="0"
       style="fill:#000000" />
  </g>
  <g
     id="g9886"
     transform="translate(-84.033899,6.6847457)">
    <g
       id="icomoon-ignore-46" />
    <path
       id="path9878"
       d="m 15.4,5.801 c -2.541,0 -4.601,2.06 -4.601,4.6 0,0.965 0.298,1.86 0.806,2.6 H 8.395 C 8.902,12.261 9.2,11.365 9.2,10.4 9.2,7.86 7.14,5.8 4.6,5.8 2.06,5.8 0,7.86 0,10.4 0,12.94 2.06,15 4.6,15 H 15.4 C 17.94,15 20,12.94 20,10.4 20,7.86 17.94,5.801 15.4,5.801 z M 2,10.4 C 2,8.964 3.164,7.8 4.6,7.8 6.036,7.8 7.2,8.964 7.2,10.4 7.2,11.837 6.036,13 4.6,13 3.164,13 2,11.837 2,10.4 z M 15.4,13 c -1.437,0 -2.601,-1.163 -2.601,-2.6 0,-1.437 1.164,-2.6 2.601,-2.6 1.436,0 2.6,1.164 2.6,2.6 0,1.436 -1.164,2.6 -2.6,2.6 z"
       inkscape:connector-curvature="0"
       style="fill:#000000" />
  </g>
  <g
     id="g3359"
     transform="translate(-65.321865,31.220297)">
    <g
       id="icomoon-ignore-84" />
    <path
       id="path3351"
       d="M 16.648,5.143 7.65,0.504 C 6.417,-0.145 3.987,1.109 3.289,2.213 2.978,2.707 3,3.063 3,3.265 L 3.111,13.74 c 0.007,0.223 0.288,0.522 0.527,0.67 0.499,0.306 8.06,5.025 8.273,5.159 0.115,0.072 0.252,0.105 0.386,0.105 0.114,0 0.229,-0.025 0.333,-0.077 C 12.858,19.485 13,19.269 13,19.032 V 8.031 C 13,7.802 12.866,7.591 12.648,7.476 L 4.47,2.91 C 4.562,2.73 4.926,2.35 5.595,2 6.3,1.63 6.827,1.77 6.948,1.817 c 0,0 7.85,4.201 8.09,4.326 0.24,0.125 0.244,0.144 0.244,0.357 0,0.214 0,10.44 0,10.44 0,0.521 0.528,0.734 0.917,0.734 0.387,0 0.801,-0.38 0.801,-0.734 V 5.698 C 17,5.469 16.865,5.257 16.648,5.143 z"
       inkscape:connector-curvature="0"
       style="fill:#000000" />
  </g>
  <g
     id="g3657"
     transform="translate(-41.186441,31.220339)">
    <g
       id="icomoon-ignore-7" />
    <path
       id="path3649"
       d="m 4,17 c 0,1.104 0.896,2 2,2 1.104,0 2,-0.896 2,-2 0,-1.104 -0.895,-2 -2,-2 -1.104,0 -2,0.896 -2,2 z m 10,0 c 0,1.104 0.896,2 2,2 1.104,0 2,-0.896 2,-2 0,-1.104 -0.895,-2 -2,-2 -1.104,0 -2,0.896 -2,2 z M 7.547,12.272 18.616,9.11 C 18.827,9.049 19,8.82 19,8.6 V 3.1 H 4.9 V 1.4 C 4.9,1.18 4.721,1 4.5,1 H 1.4 C 1.18,1 1,1.18 1,1.4 V 3 H 2.943 L 4.911,12.057 5.101,13 v 1.5 c 0,0.22 0.18,0.4 0.399,0.4 H 18.601 C 18.82,14.9 19,14.72 19,14.5 V 13 H 7.752 C 6.603,13 6.579,12.55 7.547,12.272 z"
       inkscape:connector-curvature="0"
       style="fill:#000000" />
  </g>
  <g
     id="g3900"
     transform="translate(-155.62712,54)">
    <g
       id="icomoon-ignore-467" />
    <path
       id="path3892"
       d="M 15.6,2 14.4,5 H 5.6 L 4.4,2 C 3.63,2 3,2.63 3,3.4 V 18.6 C 3,19.37 3.63,20 4.4,20 H 15.6 C 16.371,20 17,19.37 17,18.6 V 3.4 C 17,2.63 16.37,2 15.6,2 z m -2,2 0.9,-2 H 12.32 L 11.6,0 H 8.4 L 7.68,2 H 5.5 l 0.9,2 h 7.2 z"
       inkscape:connector-curvature="0"
       style="fill:#000000" />
  </g>
  <g
     id="g4011"
     transform="translate(-132.57677,54.541873)">
    <g
       id="icomoon-ignore-82" />
    <path
       id="path4003"
       d="M 16.785,10 C 16.785,8.952 17.43,8.125 18.4,7.557 18.224,6.973 17.994,6.412 17.709,5.885 16.619,6.17 15.738,5.743 14.998,5.003 14.256,4.262 14.029,3.38 14.314,2.292 13.787,2.007 13.228,1.774 12.642,1.6 12.074,2.571 11.047,3.216 10,3.216 8.953,3.216 7.927,2.571 7.358,1.6 6.772,1.774 6.213,2.007 5.686,2.291 5.97,3.38 5.744,4.262 5.003,5.003 4.262,5.744 3.38,6.17 2.292,5.886 2.007,6.412 1.775,6.973 1.6,7.557 2.571,8.125 3.216,8.952 3.216,10 c 0,1.047 -0.645,2.074 -1.616,2.643 0.175,0.585 0.407,1.145 0.692,1.672 1.089,-0.285 1.97,-0.058 2.711,0.683 0.741,0.741 0.967,1.622 0.683,2.711 0.527,0.285 1.087,0.518 1.672,0.692 0.569,-0.972 1.595,-1.616 2.642,-1.616 1.047,0 2.075,0.645 2.643,1.616 0.586,-0.175 1.145,-0.407 1.672,-0.692 -0.285,-1.089 -0.059,-1.97 0.684,-2.711 0.74,-0.74 1.621,-1.167 2.711,-0.883 0.285,-0.527 0.516,-1.087 0.691,-1.672 C 17.43,11.874 16.785,11.047 16.785,10 z M 10,13.653 C 7.983,13.653 6.348,12.017 6.348,10 6.348,7.983 7.983,6.347 10,6.347 c 2.018,0 3.653,1.636 3.653,3.653 0,2.017 -1.635,3.653 -3.653,3.653 z"
       inkscape:connector-curvature="0"
       style="fill:#000000" />
  </g>
  <g
     id="g4397"
     transform="translate(-109.7969,52.956627)">
    <g
       id="icomoon-ignore-216" />
    <path
       id="path4389"
       d="M 19.339,9.543 C 18.946,9.126 17.055,7.271 16.19,6.424 15.924,6.165 15.544,6 15.147,6 14.751,6 10.001,6 10.001,6 10.001,6 5.251,6 4.854,6 4.457,6 4.076,6.166 3.811,6.425 2.946,7.272 1.053,9.127 0.661,9.544 c -0.489,0.52 -0.757,0.935 -0.629,1.449 l 0.561,3.074 c 0.127,0.514 0.69,0.935 1.251,0.935 h 16.312 c 0.561,0 1.124,-0.421 1.251,-0.935 l 0.562,-3.074 c 0.127,-0.514 -0.141,-0.93 -0.63,-1.45 z m -5.291,0.666 c -0.102,0 -0.193,0.052 -0.239,0.133 l -0.817,2.036 H 7.009 L 6.192,10.342 C 6.147,10.261 6.054,10.209 5.953,10.209 H 2.408 L 4.449,7.9 h 11.104 l 2.04,2.309 h -3.545 z"
       inkscape:connector-curvature="0"
       style="fill:#000000" />
  </g>
  <g
     id="g4486"
     transform="translate(-85.389831,53.457627)">
    <g
       id="icomoon-ignore-43" />
    <path
       id="path4478"
       d="M 6.109,0.902 0.4,4.458 4.311,7.737 10,4.042 6.109,0.902 z m 7.343,15.092 c -0.102,0 -0.203,-0.035 -0.285,-0.104 L 10,13.264 6.833,15.891 c -0.082,0.068 -0.184,0.104 -0.285,0.104 -0.085,0 -0.17,-0.023 -0.244,-0.072 L 3.958,14.388 v 0.906 L 10,19.098 16.042,15.293 v -0.906 l -2.346,1.535 c -0.074,0.049 -0.159,0.072 -0.244,0.072 z M 19.6,4.458 13.891,0.902 10,4.042 15.688,7.736 19.6,4.458 z M 10,11.291 13.527,14.219 19.169,10.531 15.689,7.737 10,11.291 z M 6.473,14.219 10,11.291 4.312,7.736 l -3.48,2.795 5.641,3.688 z"
       inkscape:connector-curvature="0"
       style="fill:#000000" />
  </g>
  <g
     id="g5213"
     transform="translate(-63.152542,53.728814)">
    <g
       id="icomoon-ignore-65" />
    <path
       id="path5205"
       d="M 5,13 H 4 c -0.552,0 -1,0.447 -1,1 0,0.553 0.448,1 1,1 H 5 C 5.552,15 6,14.553 6,14 6,13.447 5.552,13 5,13 z M 5,9 H 4 c -0.552,0 -1,0.448 -1,1 0,0.552 0.448,1 1,1 H 5 C 5.552,11 6,10.552 6,10 6,9.448 5.552,9 5,9 z M 5,5 H 4 C 3.448,5 3,5.448 3,6 3,6.552 3.448,7 4,7 H 5 C 5.552,7 6,6.552 6,6 6,5.448 5.552,5 5,5 z m 4,2 h 7 C 16.553,7 17,6.552 17,6 17,5.448 16.553,5 16,5 H 9 C 8.448,5 8,5.448 8,6 8,6.552 8.448,7 9,7 z m 7,2 H 9 c -0.552,0 -1,0.448 -1,1 0,0.552 0.448,1 1,1 h 7 c 0.553,0 1,-0.448 1,-1 0,-0.552 -0.447,-1 -1,-1 z m 0,4 H 9 c -0.552,0 -1,0.447 -1,1 0,0.553 0.448,1 1,1 h 7 c 0.553,0 1,-0.447 1,-1 0,-0.553 -0.447,-1 -1,-1 z"
       inkscape:connector-curvature="0"
       style="fill:#000000" />
  </g>
  <g
     id="g5302"
     transform="translate(-40.644068,53.186441)">
    <g
       id="icomoon-ignore-85" />
    <path
       id="path5294"
       d="M 16,9 H 4 c -0.552,0 -1,0.448 -1,1 0,0.552 0.448,1 1,1 h 12 c 0.553,0 1,-0.448 1,-1 C 17,9.448 16.553,9 16,9 z M 4,7 H 16 C 16.553,7 17,6.552 17,6 17,5.448 16.553,5 16,5 H 4 C 3.448,5 3,5.448 3,6 3,6.552 3.448,7 4,7 z m 12,6 H 4 c -0.552,0 -1,0.447 -1,1 0,0.553 0.448,1 1,1 h 12 c 0.553,0 1,-0.447 1,-1 0,-0.553 -0.447,-1 -1,-1 z"
       inkscape:connector-curvature="0"
       style="fill:#000000" />
  </g>
  <g
     id="g5930"
     transform="translate(-155.89831,76.277661)">
    <g
       id="icomoon-ignore-3" />
    <path
       id="path5922"
       d="m 1.5,7.002 h 17 c 0.57,0 0.477,-0.608 0.193,-0.707 C 18.409,6.196 15.25,5.002 14.7,5.002 h -0.9 v -3 H 6.2 v 3 H 5.3 C 4.75,5.002 1.591,6.196 1.307,6.295 1.023,6.394 0.929,7.002 1.5,7.002 z m 17.2,1.1 H 1.3 c -0.55,0 -1.1,0.65 -1.1,1.2 v 3.5 c 0,0.55 0.55,1.2 1.1,1.2 h 1.982 l -0.882,5 h 15.2 l -0.882,-5 H 18.7 c 0.55,0 1.1,-0.65 1.1,-1.2 v -3.5 c 0,-0.55 -0.55,-1.2 -1.1,-1.2 z m -14.3,8.9 1.4,-6.5 h 8.4 l 1.399,6.5 H 4.4 z"
       inkscape:connector-curvature="0"
       style="fill:#000000" />
  </g>
  <g
     id="g6217"
     transform="translate(-132.0339,75.966102)">
    <g
       id="icomoon-ignore-91" />
    <path
       id="path6209"
       d="M 18,1.2 H 2 c -1.1,0 -2,0.9 -2,2 v 11 c 0,1.1 0.882,2.177 1.961,2.393 l 4.372,0.874 c 0,0 -3.763,1.333 -1.333,1.333 h 10 c 2.43,0 -1.333,-1.333 -1.333,-1.333 l 4.372,-0.874 C 19.117,16.377 20,15.3 20,14.2 v -11 c 0,-1.1 -0.9,-2 -2,-2 z m 0,12.9 H 2 V 3 h 16 v 11.1 z"
       inkscape:connector-curvature="0"
       style="fill:#000000" />
  </g>
  <g
     id="g6350"
     transform="translate(-108.71186,75.152542)">
    <g
       id="icomoon-ignore-55" />
    <path
       id="path6342"
       d="m 10,14 c -1.094,0 -1.979,0.896 -1.979,2 0,1.104 0.885,2 1.979,2 1.093,0 1.979,-0.896 1.979,-2 0,-1.104 -0.886,-2 -1.979,-2 z m -4.2,-2.242 1.4,1.414 c 1.546,-1.562 4.053,-1.562 5.6,0 l 1.4,-1.414 c -2.32,-2.344 -6.081,-2.344 -8.4,0 z M 3,8.929 4.399,10.343 c 3.093,-3.124 8.107,-3.124 11.2,0 L 17,8.929 C 13.134,5.024 6.866,5.024 3,8.929 z M 0.2,6.101 1.6,7.515 c 4.64,-4.686 12.161,-4.686 16.8,0 L 19.8,6.101 C 14.388,0.633 5.612,0.633 0.2,6.101 z"
       inkscape:connector-curvature="0"
       style="fill:#000000" />
  </g>
  <g
     id="g6417"
     transform="translate(-85.389719,75.423729)">
    <g
       id="icomoon-ignore-58" />
    <path
       id="path6409"
       d="M 17.545,15.468 13.766,11.689 C 14.336,10.752 14.664,9.654 14.664,8.477 14.664,5.061 11.703,2.1 8.286,2.1 4.87,2.1 2.1,4.87 2.1,8.286 c 0,3.416 2.96,6.378 6.377,6.378 1.136,0 2.2,-0.308 3.115,-0.843 l 3.799,3.8 c 0.373,0.372 0.975,0.372 1.346,0 l 0.943,-0.942 c 0.371,-0.372 0.236,-0.84 -0.135,-1.211 z M 4.004,8.286 c 0,-2.365 1.917,-4.283 4.282,-4.283 2.365,0 4.474,2.108 4.474,4.474 0,2.366 -1.917,4.283 -4.283,4.283 -2.366,0 -4.473,-2.108 -4.473,-4.474 z"
       inkscape:connector-curvature="0"
       style="fill:#000000" />
  </g>
  <g
     id="g7034"
     transform="translate(-61.79661,74.610169)">
    <g
       id="icomoon-ignore-28" />
    <path
       id="path7026"
       d="M 12.377,14.448 C 9.886,13.55 9.09,12.792 9.09,11.169 c 0,-0.974 0.761,-0.656 1.095,-2.44 0.139,-0.74 0.811,-0.012 0.938,-1.701 0,-0.673 -0.366,-0.841 -0.366,-0.841 0,0 0.187,-0.997 0.259,-1.763 C 11.106,3.468 10.458,1 7,1 3.542,1 2.894,3.468 2.984,4.424 c 0.073,0.767 0.26,1.763 0.26,1.763 0,0 -0.367,0.167 -0.367,0.841 0.129,1.689 0.801,0.961 0.938,1.701 0.335,1.784 1.096,1.466 1.096,2.44 0,1.623 -0.797,2.381 -3.288,3.279 C 1.323,14.555 0.608,14.723 0,14.986 V 19 h 16 c 0,0 0,-1.479 0,-2.105 0,-0.626 -1.123,-1.546 -3.623,-2.447 z M 17,9 V 6 h -2 v 3 h -3 v 2 h 3 v 3 h 2 v -3 h 3 V 9 h -3 z"
       inkscape:connector-curvature="0"
       style="fill:#000000" />
  </g>
  <g
     id="g7123"
     transform="translate(-38.474576,74.067797)">
    <g
       id="icomoon-ignore-155" />
    <path
       id="path7115"
       d="M 18,2 H 2 C 0.9,2 0,2.9 0,4 v 12 c 0,1.1 0.9,2 2,2 h 16 c 1.101,0 2,-0.9 2,-2 V 4 C 20,2.9 19.101,2 18,2 z m 0,14 H 2 V 4 H 18 V 16 z M 9,12.1 H 4 v 1.8 h 5 v -1.8 z m 0,-3 H 4 v 1.8 H 9 V 9.1 z m 0,-3 H 4 V 7.9 H 9 V 6.1 z m 6.9,6.4 c 0,0 -1.7,-0.444 -1.7,-1.318 0,-0.832 1.101,-1.182 1.101,-2.882 0,-1.38 -0.42,-2.2 -1.801,-2.2 -1.381,0 -1.8,0.819 -1.8,2.2 0,1.7 1.1,2.05 1.1,2.882 0,0.874 -1.699,1.318 -1.699,1.318 C 11,12.5 11,13.9 11,13.9 h 5 c 0,0 0,-1.4 -0.1,-1.4 z"
       inkscape:connector-curvature="0"
       style="fill:#000000" />
  </g>
</svg>
