<?xml version="1.0" encoding="UTF-8" standalone="no"?>
<!-- Created using Karbon, part of Calligra: http://www.calligra.org/karbon -->

<svg
   xmlns:dc="http://purl.org/dc/elements/1.1/"
   xmlns:cc="http://creativecommons.org/ns#"
   xmlns:rdf="http://www.w3.org/1999/02/22-rdf-syntax-ns#"
   xmlns:svg="http://www.w3.org/2000/svg"
   xmlns="http://www.w3.org/2000/svg"
   xmlns:sodipodi="http://sodipodi.sourceforge.net/DTD/sodipodi-0.dtd"
   xmlns:inkscape="http://www.inkscape.org/namespaces/inkscape"
   width="38.4pt"
   height="38.4pt"
   id="svg2"
   version="1.1"
   inkscape:version="0.48.4 r9939"
   sodipodi:docname="application-octet-stream.svg">
  <metadata
     id="metadata27">
    <rdf:RDF>
      <cc:Work
         rdf:about="">
        <dc:format>image/svg+xml</dc:format>
        <dc:type
           rdf:resource="http://purl.org/dc/dcmitype/StillImage" />
      </cc:Work>
    </rdf:RDF>
  </metadata>
  <sodipodi:namedview
     pagecolor="#ffffff"
     bordercolor="#666666"
     borderopacity="1"
     objecttolerance="10"
     gridtolerance="10"
     guidetolerance="10"
     inkscape:pageopacity="0"
     inkscape:pageshadow="2"
     inkscape:window-width="1680"
     inkscape:window-height="991"
     id="namedview25"
     showgrid="false"
     inkscape:zoom="11.187198"
     inkscape:cx="28.53935"
     inkscape:cy="19.883623"
     inkscape:current-layer="svg2"
     inkscape:window-x="0"
     inkscape:window-y="-3"
     inkscape:window-maximized="1" />
  <defs
     id="defs4" />
  <path
     style="fill:none"
     inkscape:connector-curvature="0"
     d="m 11.181014,31.89779 c 1.054278,0.21816 2.085909,-0.460219 2.304212,-1.515189 0.218304,-1.054975 -0.459386,-2.087054 -1.513664,-2.305214 -1.054275,-0.218158 -2.0859084,0.460213 -2.3042123,1.515189 -0.2183028,1.05497 0.4593893,2.087055 1.5136643,2.305214"
     id="ellipse3270" />
  <path
     style="fill:none"
     inkscape:connector-curvature="0"
     d="m 37.280595,16.397142 c 0.10908,-0.527138 -0.230104,-1.042953 -0.757594,-1.152105 -0.527488,-0.109152 -1.043527,0.229693 -1.152607,0.756831 -0.109081,0.527143 0.230106,1.042955 0.757594,1.152107 0.52749,0.109153 1.043527,-0.22969 1.152607,-0.756833"
     id="ellipse3309" />
  <path
     style="fill:none"
     inkscape:connector-curvature="0"
     d="m 36.293095,21.169242 c 0.10908,-0.527138 -0.230104,-1.042953 -0.757594,-1.152105 -0.527488,-0.109152 -1.043527,0.229693 -1.152607,0.756831 -0.109081,0.527143 0.230106,1.042955 0.757594,1.152107 0.52749,0.109153 1.043527,-0.22969 1.152607,-0.756833"
     id="ellipse3311" />
  <path
     style="fill:none"
     inkscape:connector-curvature="0"
     d="m 19.925336,39.54581 c 0.511055,-0.169103 0.788172,-0.720753 0.618956,-1.232149 -0.169216,-0.511395 -0.720684,-0.788876 -1.231739,-0.619772 -0.51106,0.169105 -0.788173,0.720756 -0.618958,1.23215 0.169216,0.511396 0.720681,0.788876 1.231741,0.619771"
     id="ellipse3326" />
  <path
     style="fill:none"
     inkscape:connector-curvature="0"
     d="m 23.032378,24.530175 c 0.401975,0.358035 0.437405,0.974359 0.07913,1.376602 -0.358272,0.402242 -0.974574,0.438079 -1.376549,0.08004 -0.401979,-0.358038 -0.437405,-0.974362 -0.07913,-1.376604 0.358274,-0.402243 0.974572,-0.43808 1.376551,-0.08004"
     id="ellipse3350" />
  <g
     id="g3004">
    <path
       id="rect4090"
       d="m 4.4999952,5.6271114 0,36.7457776 39.0000098,0 L 43.397471,5.7140865 30.882355,5.6271114 z"
       inkscape:connector-curvature="0"
       style="fill:#bdc3c7;fill-opacity:1"
       sodipodi:nodetypes="cccccc" />
    <path
       id="rect3313"
       d="m 39.937198,14.751326 c 0.408458,1.293042 0.816927,2.586077 1.225395,3.879121 L 33.88795,17.125121 c 0.691145,-0.797505 2.008006,-2.220724 2.699145,-3.018225 z"
       inkscape:connector-curvature="0"
       style="fill:#ffffff;fill-rule:evenodd"
       sodipodi:nodetypes="ccccc" />
    <path
       id="path3338"
       d="m 15.521195,37.88853 1.016758,2.985189 3.710036,1.015767 -2.372438,-6.96542 z"
       inkscape:connector-curvature="0"
       style="fill:#ffffff;fill-rule:evenodd"
       sodipodi:nodetypes="ccccc" />
    <path
       id="path3346"
       d="m 20.512238,19.756425 -2.13487,2.402751 0.970591,3.739206 4.981363,-5.606397 z"
       inkscape:connector-curvature="0"
       style="fill:#ffffff;fill-rule:evenodd"
       sodipodi:nodetypes="ccccc" />
    <path
       id="shape0"
       d="m 37.405685,18.124692 c -4.0546,-0.781667 -8.4278,-0.0021 -11.88591,2.117003 -3.45808,2.119198 -5.95969,5.551685 -6.798571,9.329646 -0.838852,3.777933 -0.0044,7.853802 2.267221,11.077892 0.38981,0.553377 0.82119,1.080195 1.28883,1.577843 4.97086,0.03392 8.49543,0.05881 10.57363,0.07455 -5.85589,-1.594897 -9.21959,-5.947176 -7.93526,-11.535747 0.50332,-2.266816 2.00269,-4.326613 4.07756,-5.598086 2.0748,-1.271519 4.6375,-1.60321 7.1328,-1.269981 2.5881,0.401175 5.0314,1.395027 7.2033,4.304806 l 0.0208,-7.65041 c -1.7779,-1.174878 -3.8099,-2.016042 -5.9444,-2.42752 z"
       inkscape:connector-curvature="0"
       style="fill:#ffffff;fill-rule:evenodd;stroke:#003bc3;stroke-width:0;stroke-linecap:square;stroke-linejoin:bevel"
       sodipodi:nodetypes="sssccccccccs" />
  </g>
</svg>
