<?xml version="1.0" encoding="UTF-8" standalone="no"?>
<!-- Created using Karbon, part of Calligra: http://www.calligra.org/karbon -->

<svg
   xmlns:dc="http://purl.org/dc/elements/1.1/"
   xmlns:cc="http://creativecommons.org/ns#"
   xmlns:rdf="http://www.w3.org/1999/02/22-rdf-syntax-ns#"
   xmlns:svg="http://www.w3.org/2000/svg"
   xmlns="http://www.w3.org/2000/svg"
   xmlns:sodipodi="http://sodipodi.sourceforge.net/DTD/sodipodi-0.dtd"
   xmlns:inkscape="http://www.inkscape.org/namespaces/inkscape"
   width="38.4pt"
   height="38.4pt"
   id="svg2"
   version="1.1"
   inkscape:version="0.48.4 r9939"
   sodipodi:docname="application-x-executable-script.svg">
  <metadata
     id="metadata30">
    <rdf:RDF>
      <cc:Work
         rdf:about="">
        <dc:format>image/svg+xml</dc:format>
        <dc:type
           rdf:resource="http://purl.org/dc/dcmitype/StillImage" />
      </cc:Work>
    </rdf:RDF>
  </metadata>
  <sodipodi:namedview
     pagecolor="#ffffff"
     bordercolor="#666666"
     borderopacity="1"
     objecttolerance="10"
     gridtolerance="10"
     guidetolerance="10"
     inkscape:pageopacity="0"
     inkscape:pageshadow="2"
     inkscape:window-width="640"
     inkscape:window-height="480"
     id="namedview28"
     showgrid="false"
     inkscape:zoom="4.9166667"
     inkscape:cx="-2.0338983"
     inkscape:cy="23.694915"
     inkscape:current-layer="svg2" />
  <defs
     id="defs4" />
  <path
     style="fill:#ecf0f1;fill-rule:evenodd"
     inkscape:connector-curvature="0"
     d="m 22.62325,17.297 c -2.88,1.71e-4 -5.49805,2.62044 -5.49805,5.5 0,2.87956 2.61805,5.4998 5.49805,5.5 2.87999,2e-4 5.50195,-2.62012 5.50195,-5.5 0,-2.87988 -2.62196,-5.500171 -5.50195,-5.5 z m 0,1 c 2.35635,-1.4e-4 4.50195,2.14373 4.50195,4.5 0,2.35627 -2.1456,4.5001 -4.50195,4.5 -2.35636,-1.4e-4 -4.49805,-2.144 -4.49805,-4.5 0,-2.356 2.14169,-4.49986 4.49805,-4.5 z"
     id="path3363" />
  <ellipse
     style="fill:none"
     sodipodi:ry="1.0000308"
     sodipodi:rx="1.0006927"
     sodipodi:cy="1.0000308"
     sodipodi:cx="1.0006927"
     cy="1.0000308"
     cx="1.0006927"
     ry="1.0000308"
     rx="1.0006927"
     transform="translate(21.6238,7.79699)"
     id="ellipse3311" />
  <ellipse
     style="fill:none"
     sodipodi:ry="1.0000308"
     sodipodi:rx="1.0006927"
     sodipodi:cy="1.0000308"
     sodipodi:cx="1.0006927"
     cy="1.0000308"
     cx="1.0006927"
     ry="1.0000308"
     rx="1.0006927"
     transform="translate(21.6238,40.797)"
     id="ellipse3316" />
  <ellipse
     style="fill:none"
     sodipodi:ry="1.0000308"
     sodipodi:rx="1.0006927"
     sodipodi:cy="1.0000308"
     sodipodi:cx="1.0006927"
     cy="1.0000308"
     cx="1.0006927"
     ry="1.0000308"
     rx="1.0006927"
     transform="translate(21.6238,35.797)"
     id="ellipse3318" />
  <rect
     style="fill:#203040"
     y="5.627111"
     x="4.4999952"
     height="36.745777"
     width="39.000011"
     id="rect813" />
  <rect
     style="fill:#ffffff"
     y="8.7136297"
     x="18.521879"
     height="11"
     width="4"
     id="rect868" />
  <ellipse
     style="fill:none"
     sodipodi:ry="1.0000308"
     sodipodi:rx="1.0006927"
     sodipodi:cy="1.0000308"
     sodipodi:cx="1.0006927"
     cy="1.0000308"
     cx="1.0006927"
     ry="1.0000308"
     rx="1.0006927"
     transform="matrix(0.5,0.866025,-0.866025,0.5,35.1149,14.4298)"
     id="ellipse3324" />
  <ellipse
     style="fill:none"
     sodipodi:ry="1.0000308"
     sodipodi:rx="1.0006927"
     sodipodi:cy="1.0000308"
     sodipodi:cx="1.0006927"
     cy="1.0000308"
     cx="1.0006927"
     ry="1.0000308"
     rx="1.0006927"
     transform="matrix(0.5,0.866025,-0.866025,0.5,10.8662,28.4298)"
     id="ellipse3326" />
  <ellipse
     style="fill:none"
     sodipodi:ry="1.0000308"
     sodipodi:rx="1.0006927"
     sodipodi:cy="1.0000308"
     sodipodi:cx="1.0006927"
     cy="1.0000308"
     cx="1.0006927"
     ry="1.0000308"
     rx="1.0006927"
     transform="matrix(0.5,-0.866025,-0.866025,-0.5,35.1147,31.164)"
     id="ellipse3348" />
  <ellipse
     style="fill:none"
     sodipodi:ry="1.0000308"
     sodipodi:rx="1.0006927"
     sodipodi:cy="1.0000308"
     sodipodi:cx="1.0006927"
     cy="1.0000308"
     cx="1.0006927"
     ry="1.0000308"
     rx="1.0006927"
     transform="matrix(0.5,-0.866025,-0.866025,-0.5,10.866,17.164)"
     id="ellipse3350" />
  <g
     style="fill:none"
     transform="translate(17.278781,2.9360305)"
     id="text854">
    <path
       style="fill:#ffffff"
       inkscape:connector-curvature="0"
       d="m 3.998,11.0058 0,1.4815 -1.05934,0 0,-1.4407 C 1.95668,11.0417 1.04245,10.8323 0.195922,10.4186 l 0,-1.89121 C 0.476475,8.7413 0.894898,8.93929 1.45118,9.12134 2.00747,9.30341 2.50329,9.40812 2.93866,9.43541 l 0,-2.48514 C 1.80672,6.55426 1.03276,6.12643 0.616754,5.66671 0.205585,5.20244 0,4.63805 0,3.97354 0,3.25894 0.268473,2.65129 0.805423,2.15062 1.34235,1.6454 2.05344,1.35182 2.93866,1.26989 L 2.93866,0 3.998,0 l 0,1.24257 c 1.02067,0.0455 1.78255,0.20025 2.28563,0.46427 l 0,1.84339 C 5.60642,3.16334 4.84455,2.92667 3.998,2.84019 l 0,2.58754 c 1.05938,0.3596 1.81884,0.77152 2.27836,1.23577 0.45956,0.45972 0.68933,1.01728 0.68933,1.67271 0,0.75557 -0.25637,1.36548 -0.76914,1.82969 -0.51276,0.4597 -1.24559,0.7397 -2.19855,0.8399 z m -1.05934,-5.97405 0,-2.16426 c -0.67239,0.11373 -1.0086,0.44373 -1.0086,0.98997 0,0.46883 0.33621,0.86026 1.0086,1.17429 z m 1.05934,2.30766 0,2.06871 C 4.68974,9.30798 5.03563,8.98254 5.03563,8.43179 5.03563,7.98575 4.68974,7.62162 3.998,7.33941 z"
       transform="translate(-7.75697,5.77765)"
       id="path815" />
  </g>
  <g
     id="g3053"
     transform="matrix(0.53939899,0,0,0.53939899,4.6654031,-0.66470012)">
    <path
       id="ellipse3292"
       d="m 46.773812,43.169277 c -3.927264,2.32e-4 -7.828574,1.617701 -10.603516,4.394531 -2.774942,2.77683 -4.390625,6.678795 -4.390625,10.605469 0,3.926674 1.615683,7.828639 4.390625,10.605469 2.774942,2.77683 6.676252,4.394298 10.603516,4.394531 3.927263,2.33e-4 7.830891,-1.615734 10.609375,-4.392578 2.778483,-2.776844 4.396484,-6.68031 4.396484,-10.607422 0,-3.927112 -1.618001,-7.830578 -4.396484,-10.607422 -2.778484,-2.776844 -6.682112,-4.392811 -10.609375,-4.392578 z m 0.002,6 c 2.356358,-1.4e-4 4.698144,0.970612 6.365234,2.636719 1.667043,1.666107 2.638625,4.007013 2.638625,6.363281 0,2.356268 -0.971582,4.697174 -2.638672,6.363281 -1.66709,1.666107 -4.008876,2.636859 -6.365234,2.636719 -2.356359,-1.4e-4 -4.698316,-0.97062 -6.363282,-2.636719 -1.664965,-1.666098 -2.632812,-4.007276 -2.632812,-6.363281 0,-2.356005 0.967847,-4.697183 2.632812,-6.363281 1.664966,-1.666099 4.006923,-2.636579 6.363282,-2.636719 z"
       style="fill:#bdc3c7;fill-opacity:1;stroke:none"
       inkscape:connector-curvature="0" />
    <path
       sodipodi:nodetypes="ccccc"
       inkscape:connector-curvature="0"
       id="rect3313"
       d="m 45.279661,40.169707 3,0 2,2.99957 -7,0 z"
       style="fill:#bdc3c7;fill-opacity:1;fill-rule:evenodd;stroke:none" />
    <path
       style="fill:#bdc3c7;fill-opacity:1;fill-rule:evenodd;stroke:none"
       d="m 45.279661,76.169277 3,0 2,-2.99957 -7,0 z"
       id="path3330"
       inkscape:connector-curvature="0"
       sodipodi:nodetypes="ccccc" />
    <path
       style="fill:#bdc3c7;fill-opacity:1;fill-rule:evenodd;stroke:none"
       d="m 61.617931,47.870557 1.5,2.59808 -1.5977,3.23183 -3.5,-6.06217 z"
       id="path3334"
       inkscape:connector-curvature="0"
       sodipodi:nodetypes="ccccc" />
    <path
       sodipodi:nodetypes="ccccc"
       inkscape:connector-curvature="0"
       id="path3338"
       d="m 30.441391,65.870337 1.5,2.59808 3.5977,0.23227 -3.5,-6.06218 z"
       style="fill:#bdc3c7;fill-opacity:1;fill-rule:evenodd;stroke:none" />
    <path
       sodipodi:nodetypes="ccccc"
       inkscape:connector-curvature="0"
       id="path3342"
       d="m 63.117931,65.870337 -1.5,2.59808 -3.5977,0.23227 3.49999,-6.06218 z"
       style="fill:#bdc3c7;fill-opacity:1;fill-rule:evenodd;stroke:none" />
    <path
       style="fill:#bdc3c7;fill-opacity:1;fill-rule:evenodd;stroke:none"
       d="m 31.941391,47.870557 -1.5,2.59808 1.5977,3.23183 3.5,-6.06218 z"
       id="path3346"
       inkscape:connector-curvature="0"
       sodipodi:nodetypes="ccccc" />
  </g>
</svg>
