<?xml version="1.0" encoding="UTF-8" standalone="no"?>
<!-- Created using Karbon, part of Calligra: http://www.calligra.org/karbon -->

<svg
   xmlns:dc="http://purl.org/dc/elements/1.1/"
   xmlns:cc="http://creativecommons.org/ns#"
   xmlns:rdf="http://www.w3.org/1999/02/22-rdf-syntax-ns#"
   xmlns:svg="http://www.w3.org/2000/svg"
   xmlns="http://www.w3.org/2000/svg"
   xmlns:sodipodi="http://sodipodi.sourceforge.net/DTD/sodipodi-0.dtd"
   xmlns:inkscape="http://www.inkscape.org/namespaces/inkscape"
   width="38.4pt"
   height="38.4pt"
   id="svg2"
   version="1.1"
   inkscape:version="0.48.4 r9939"
   sodipodi:docname="application-x-java-applet.svg">
  <metadata
     id="metadata15">
    <rdf:RDF>
      <cc:Work
         rdf:about="">
        <dc:format>image/svg+xml</dc:format>
        <dc:type
           rdf:resource="http://purl.org/dc/dcmitype/StillImage" />
        <dc:title />
      </cc:Work>
    </rdf:RDF>
  </metadata>
  <sodipodi:namedview
     pagecolor="#ffffff"
     bordercolor="#666666"
     borderopacity="1"
     objecttolerance="10"
     gridtolerance="10"
     guidetolerance="10"
     inkscape:pageopacity="0"
     inkscape:pageshadow="2"
     inkscape:window-width="1366"
     inkscape:window-height="709"
     id="namedview13"
     showgrid="false"
     inkscape:zoom="10.821656"
     inkscape:cx="20.956018"
     inkscape:cy="25.943787"
     inkscape:current-layer="svg2"
     showguides="true"
     inkscape:guide-bbox="true"
     inkscape:window-x="0"
     inkscape:window-y="-3"
     inkscape:window-maximized="1">
    <sodipodi:guide
       orientation="0,1"
       position="24.813559,28.677966"
       id="guide2986" />
    <sodipodi:guide
       orientation="1,0"
       position="12.422605,18.121864"
       id="guide3019" />
    <sodipodi:guide
       orientation="1,0"
       position="35.486795,20.303612"
       id="guide3021" />
    <sodipodi:guide
       orientation="0,1"
       position="24.489005,10.864213"
       id="guide3023" />
  </sodipodi:namedview>
  <defs
     id="defs4" />
  <path
     sodipodi:nodetypes="cccccc"
     style="fill:#0074bd;fill-opacity:1"
     inkscape:connector-curvature="0"
     d="m 4.499996,5.6271117 0,36.7457773 39.000009,0 -0.2333,-36.7302071 -12.38435,-0.01557 z"
     id="rect4090" />
  <g
     style="fill:#0074bd;fill-opacity:1"
     transform="matrix(1.1470591,0,0,0.91864444,9.0594412,16.753549)"
     id="logo" />
  <g
     transform="matrix(0.17241387,0,0,0.17241387,16.155905,18.188902)"
     id="layer5" />
  <g
     transform="matrix(0.43688402,0,0,0.43688402,2.9630556,2.5837355)"
     id="layer3">
    <g
       transform="matrix(1.1301798,0,0,1.1301798,137.30438,-15.095426)"
       id="g3678">
      <path
         d="m -86.682454,70.020561 c 0,0 -2.230343,1.298159 1.589079,1.736219 4.627848,0.528358 6.99267,0.452269 12.091002,-0.511436 0,0 1.343115,0.840206 3.215621,1.567893 -11.432816,4.898228 -25.874818,-0.283815 -16.895702,-2.792676 l 0,0 z"
         inkscape:connector-curvature="0"
         id="path3616"
         style="fill:#ffffff;fill-rule:evenodd" />
      <path
         d="m -88.080213,63.627558 c 0,0 -2.501885,1.852354 1.320378,2.247395 4.943959,0.510402 8.846833,0.552257 15.604261,-0.748227 0,0 0.932442,0.947169 2.400864,1.464804 -13.820761,4.04265 -29.214325,0.318049 -19.325503,-2.963972 l 0,0 z"
         inkscape:connector-curvature="0"
         id="path3618"
         style="fill:#ffffff;fill-rule:evenodd" />
      <path
         d="m -76.303512,52.781491 c 2.818512,3.244428 -0.739056,6.161637 -0.739056,6.161637 0,0 7.15247,-3.69166 3.868382,-8.316795 -3.068352,-4.311221 -5.420773,-6.452815 7.314724,-13.838589 1.29e-4,0 -19.991571,4.991756 -10.44405,15.993747 l 0,0 z"
         inkscape:connector-curvature="0"
         id="path3620"
         style="fill:#ea2d2e;fill-rule:evenodd" />
      <path
         d="m -61.182912,74.749947 c 0,0 1.651086,1.361071 -1.818508,2.413654 -6.5975,1.99833 -27.464801,2.601097 -33.260721,0.07996 -2.082041,-0.906864 1.824192,-2.163814 3.053238,-2.429285 1.281494,-0.277226 2.013186,-0.226586 2.013186,-0.226586 -2.317154,-1.63171 -14.976823,3.20464 -6.429691,4.591677 23.308341,3.778083 42.48761,-1.701727 36.442496,-4.429424 l 0,0 z"
         inkscape:connector-curvature="0"
         id="path3622"
         style="fill:#ffffff;fill-rule:evenodd" />
      <path
         d="m -85.609073,57.002801 c 0,0 -10.613022,2.521521 -3.758189,3.437944 2.895247,0.38742 8.663393,0.298283 14.040243,-0.152823 4.392994,-0.368688 8.801619,-1.157221 8.801619,-1.157221 0,0 -1.54787,0.664 -2.668531,1.428763 -10.779538,2.835177 -31.599689,1.514799 -25.604956,-1.383807 5.067458,-2.451504 9.189814,-2.172856 9.189814,-2.172856 l 0,0 z"
         inkscape:connector-curvature="0"
         id="path3624"
         style="fill:#ffffff;fill-rule:evenodd" />
      <path
         d="m -66.569322,67.644371 c 10.957035,-5.692186 5.890352,-11.162953 2.3541,-10.426093 -0.864751,0.180468 -1.252687,0.336779 -1.252687,0.336779 0,0 0.322182,-0.504717 0.935672,-0.721874 6.9959,-2.45835 12.374946,7.253103 -2.25605,11.099266 -1.3e-4,0 0.168196,-0.152436 0.218965,-0.288078 l 0,0 z"
         inkscape:connector-curvature="0"
         id="path3626"
         style="fill:#ffffff;fill-rule:evenodd" />
      <path
         d="m -73.174057,24.859253 c 0,0 6.066817,6.070304 -5.756002,15.40209 -9.481121,7.488603 -2.161747,11.756806 -0.0034,16.635915 -5.534841,-4.993307 -9.594543,-9.38953 -6.871497,-13.480494 3.998728,-6.004292 15.078099,-8.916333 12.630858,-18.557511 l 0,0 z"
         inkscape:connector-curvature="0"
         id="path3628"
         style="fill:#ea2d2e;fill-rule:evenodd" />
      <path
         d="m -84.531817,83.073848 c 10.5151,0.672267 26.666709,-0.374114 27.048961,-5.35011 0,0 -0.734792,1.886328 -8.690908,3.383041 -8.975758,1.689842 -20.048799,1.493096 -26.613745,0.409123 0,0 1.344923,1.113169 8.255692,1.557946 l 0,0 z"
         inkscape:connector-curvature="0"
         id="path3630"
         style="fill:#ffffff;fill-rule:evenodd" />
    </g>
  </g>
</svg>
