<?xml version="1.0" encoding="UTF-8" standalone="no"?>
<!-- Created using Karbon, part of Calligra: http://www.calligra.org/karbon -->

<svg
   xmlns:dc="http://purl.org/dc/elements/1.1/"
   xmlns:cc="http://creativecommons.org/ns#"
   xmlns:rdf="http://www.w3.org/1999/02/22-rdf-syntax-ns#"
   xmlns:svg="http://www.w3.org/2000/svg"
   xmlns="http://www.w3.org/2000/svg"
   xmlns:sodipodi="http://sodipodi.sourceforge.net/DTD/sodipodi-0.dtd"
   xmlns:inkscape="http://www.inkscape.org/namespaces/inkscape"
   width="38.4pt"
   height="38.4pt"
   id="svg2"
   version="1.1"
   inkscape:version="0.48.4 r9939"
   sodipodi:docname="application-vnd.oasis.opendocument.chart.svg">
  <metadata
     id="metadata15">
    <rdf:RDF>
      <cc:Work
         rdf:about="">
        <dc:format>image/svg+xml</dc:format>
        <dc:type
           rdf:resource="http://purl.org/dc/dcmitype/StillImage" />
      </cc:Work>
    </rdf:RDF>
  </metadata>
  <sodipodi:namedview
     pagecolor="#ffffff"
     bordercolor="#666666"
     borderopacity="1"
     objecttolerance="10"
     gridtolerance="10"
     guidetolerance="10"
     inkscape:pageopacity="0"
     inkscape:pageshadow="2"
     inkscape:window-width="640"
     inkscape:window-height="480"
     id="namedview13"
     showgrid="false"
     inkscape:zoom="11.949174"
     inkscape:cx="43.627119"
     inkscape:cy="22.067797"
     inkscape:current-layer="svg2" />
  <defs
     id="defs4" />
  <g
     id="layer1"
     transform="matrix(1.14144,0,0,0.91757116,-3.4063981,1.976364)">
    <path
       id="rect4090"
       transform="translate(7,4)"
       d="M 0,0 0,40 34,40 34.167376,-0.0467883 23,0 z"
       inkscape:connector-curvature="0"
       style="fill:#2980b9"
       sodipodi:nodetypes="cccccc" />
    <path
       id="shape0"
       transform="translate(12.053,26.9839)"
       stroke-miterlimit="2.01260191180"
       d="M 0,2.24493 C 0.772615,6.44255 3.64946,9.94791 7.61573,11.5245 11.582,13.1011 16.0803,12.5273 19.5238,10.0057 L 12.1967,0 z"
       inkscape:connector-curvature="0"
       style="fill:#e74c3c;fill-rule:evenodd;stroke:#003bc3;stroke-width:0;stroke-linecap:square;stroke-linejoin:miter;stroke-miterlimit:2.01260185" />
    <path
       id="shape1"
       transform="matrix(-1,0,0,-1,36.6306,37.1265)"
       stroke-miterlimit="2.00000000000"
       d="M 5.27698,0 C 0.796905,3.14507 -1.09137,8.85536 0.630498,14.0513 2.35237,19.2472 7.27711,22.6998 12.7488,22.5469 L 12.4025,10.1502 z"
       inkscape:connector-curvature="0"
       style="fill:#8bc941;fill-rule:evenodd;stroke:#003bc3;stroke-width:0;stroke-linecap:square;stroke-linejoin:miter;stroke-miterlimit:2" />
    <path
       id="shape2"
       transform="matrix(-1,0,0,-1,24.2377,29.2423)"
       stroke-miterlimit="2.00000000000"
       d="M 0.235555,14.6679 C 3.87998,14.5987 7.30941,12.9297 9.6125,10.1043 11.9156,7.27904 12.8591,3.58358 12.1923,0 L 0,2.26857 z"
       inkscape:connector-curvature="0"
       style="fill:#f1c40f;fill-rule:evenodd;stroke:#003bc3;stroke-width:0;stroke-linecap:square;stroke-linejoin:miter;stroke-miterlimit:2" />
  </g>
</svg>
