<?xml version="1.0" encoding="UTF-8" standalone="no"?>
<!-- Created using Karbon, part of Calligra: http://www.calligra.org/karbon -->

<svg
   xmlns:dc="http://purl.org/dc/elements/1.1/"
   xmlns:cc="http://creativecommons.org/ns#"
   xmlns:rdf="http://www.w3.org/1999/02/22-rdf-syntax-ns#"
   xmlns:svg="http://www.w3.org/2000/svg"
   xmlns="http://www.w3.org/2000/svg"
   xmlns:sodipodi="http://sodipodi.sourceforge.net/DTD/sodipodi-0.dtd"
   xmlns:inkscape="http://www.inkscape.org/namespaces/inkscape"
   width="38.4pt"
   height="38.4pt"
   id="svg2"
   version="1.1"
   inkscape:version="0.48.4 r9939"
   sodipodi:docname="application-x-dgn.svg">
  <metadata
     id="metadata15">
    <rdf:RDF>
      <cc:Work
         rdf:about="">
        <dc:format>image/svg+xml</dc:format>
        <dc:type
           rdf:resource="http://purl.org/dc/dcmitype/StillImage" />
      </cc:Work>
    </rdf:RDF>
  </metadata>
  <sodipodi:namedview
     pagecolor="#ffffff"
     bordercolor="#666666"
     borderopacity="1"
     objecttolerance="10"
     gridtolerance="10"
     guidetolerance="10"
     inkscape:pageopacity="0"
     inkscape:pageshadow="2"
     inkscape:window-width="640"
     inkscape:window-height="480"
     id="namedview13"
     showgrid="false"
     inkscape:zoom="12.252646"
     inkscape:cx="24.40678"
     inkscape:cy="21.905214"
     inkscape:current-layer="svg2" />
  <defs
     id="defs4" />
  <g
     id="layer1"
     transform="matrix(1.1415785,0,0,0.91852755,-3.4094389,1.9555463)">
    <path
       id="rect4090"
       transform="translate(7,4)"
       d="M 0,0 0,40 34,40 34.16323,0.14520134 23,0 z"
       inkscape:connector-curvature="0"
       style="fill:#33cc99"
       sodipodi:nodetypes="cccccc" />
    <path
       id="rect4254"
       transform="translate(16.2125,24.6476)"
       d="m 0,0 0,7.08663 7.08663,0 0,-7.08663 z m 1.77166,1.77166 3.54331,0 0,3.54331 -3.54331,0 z"
       inkscape:connector-curvature="0"
       style="fill:#c7f1e2" />
    <rect
       id="rect4281"
       transform="matrix(3.54331,0,0,3.54331,7.00253,27.7051)"
       width="9.5941267"
       height="0.28222656"
       rx="2.05125e-07"
       ry="6.6375001e-08"
       x="0"
       y="0"
       style="fill:#c7f1e2" />
    <rect
       id="rect4297"
       transform="matrix(0,3.54331,-3.54331,0,20.28,4.00253)"
       width="11.289602"
       height="0.28222656"
       rx="1.8965e-07"
       ry="6.6375001e-08"
       x="0"
       y="0"
       style="fill:#c7f1e2" />
  </g>
</svg>
