<?xml version="1.0" encoding="UTF-8" standalone="no"?>
<!-- Created using Karbon, part of Calligra: http://www.calligra.org/karbon -->

<svg
   xmlns:dc="http://purl.org/dc/elements/1.1/"
   xmlns:cc="http://creativecommons.org/ns#"
   xmlns:rdf="http://www.w3.org/1999/02/22-rdf-syntax-ns#"
   xmlns:svg="http://www.w3.org/2000/svg"
   xmlns="http://www.w3.org/2000/svg"
   xmlns:sodipodi="http://sodipodi.sourceforge.net/DTD/sodipodi-0.dtd"
   xmlns:inkscape="http://www.inkscape.org/namespaces/inkscape"
   width="38.4pt"
   height="38.4pt"
   id="svg2"
   version="1.1"
   inkscape:version="0.48.4 r9939"
   sodipodi:docname="application-pgp-keys.svg">
  <metadata
     id="metadata16">
    <rdf:RDF>
      <cc:Work
         rdf:about="">
        <dc:format>image/svg+xml</dc:format>
        <dc:type
           rdf:resource="http://purl.org/dc/dcmitype/StillImage" />
      </cc:Work>
    </rdf:RDF>
  </metadata>
  <sodipodi:namedview
     pagecolor="#ffffff"
     bordercolor="#666666"
     borderopacity="1"
     objecttolerance="10"
     gridtolerance="10"
     guidetolerance="10"
     inkscape:pageopacity="0"
     inkscape:pageshadow="2"
     inkscape:window-width="1366"
     inkscape:window-height="709"
     id="namedview14"
     showgrid="false"
     inkscape:zoom="10.516576"
     inkscape:cx="2.4032392"
     inkscape:cy="30.990003"
     inkscape:current-layer="svg2"
     inkscape:window-x="0"
     inkscape:window-y="-3"
     inkscape:window-maximized="1" />
  <defs
     id="defs4" />
  <g
     id="layer1"
     transform="matrix(1.1470591,0,0,0.91864123,-3.5294177,1.9526049)"
     style="fill:#1a1a1a;fill-opacity:1">
    <path
       id="rect4090"
       transform="translate(7,4)"
       d="M 0,0 0,40 34,40 34,0.02800576 23,0 z"
       inkscape:connector-curvature="0"
       style="fill:#1a1a1a;fill-opacity:1"
       sodipodi:nodetypes="cccccc" />
  </g>
  <path
     style="fill:#ffffff;fill-rule:evenodd"
     d="M 24 8.28125 C 19.933285 8.28125 16.625 10.930568 16.625 14.1875 C 16.625 17.444395 19.933285 20.0625 24 20.0625 C 28.06676 20.0625 31.375 17.444395 31.375 14.1875 C 31.375 10.930568 28.06676 8.28125 24 8.28125 z M 23.875 10.0625 C 27.025939 10.0625 29.5625 11.861835 29.5625 14.09375 C 29.5625 16.325665 27.025939 18.15625 23.875 18.15625 C 20.724061 18.15625 18.15625 16.325665 18.15625 14.09375 C 18.15625 11.861835 20.724061 10.0625 23.875 10.0625 z "
     id="rect3325" />
  <path
     id="rect3331"
     d="m 25.475927,39.687019 -2.84036,-0.103204 0.154372,-21.36828 c 0.629886,0.456526 1.716366,1.053665 2.714861,1.029871 0.0032,-1.9e-4 -0.0065,6.813701 -0.02887,20.441611 z"
     inkscape:connector-curvature="0"
     style="fill:#ffffff;fill-rule:evenodd"
     sodipodi:nodetypes="ccccc" />
  <rect
     style="color:#000000;fill:#ffffff;fill-opacity:1;fill-rule:nonzero;stroke:none;stroke-width:1.19111562;marker:none;visibility:visible;display:inline;overflow:visible;enable-background:accumulate"
     id="rect2995"
     width="4.1838713"
     height="2.6624634"
     x="25.092955"
     y="35.736801"
     rx="2.9864585"
     ry="0" />
  <rect
     ry="0"
     rx="2.5113406"
     y="30.129763"
     x="24.902779"
     height="3.0428154"
     width="3.5182552"
     id="rect2997"
     style="color:#000000;fill:#ffffff;fill-opacity:1;fill-rule:nonzero;stroke:none;stroke-width:1.19111562;marker:none;visibility:visible;display:inline;overflow:visible;enable-background:accumulate" />
</svg>
