<?xml version="1.0" encoding="UTF-8" standalone="no"?>
<!-- Created using Karbon, part of Calligra: http://www.calligra.org/karbon -->

<svg
   xmlns:dc="http://purl.org/dc/elements/1.1/"
   xmlns:cc="http://creativecommons.org/ns#"
   xmlns:rdf="http://www.w3.org/1999/02/22-rdf-syntax-ns#"
   xmlns:svg="http://www.w3.org/2000/svg"
   xmlns="http://www.w3.org/2000/svg"
   xmlns:sodipodi="http://sodipodi.sourceforge.net/DTD/sodipodi-0.dtd"
   xmlns:inkscape="http://www.inkscape.org/namespaces/inkscape"
   width="38.4pt"
   height="38.4pt"
   id="svg2"
   version="1.1"
   inkscape:version="0.48.4 r9939"
   sodipodi:docname="application-x-kdenlivetitle.svg">
  <metadata
     id="metadata15">
    <rdf:RDF>
      <cc:Work
         rdf:about="">
        <dc:format>image/svg+xml</dc:format>
        <dc:type
           rdf:resource="http://purl.org/dc/dcmitype/StillImage" />
        <dc:title />
      </cc:Work>
    </rdf:RDF>
  </metadata>
  <sodipodi:namedview
     pagecolor="#ffffff"
     bordercolor="#666666"
     borderopacity="1"
     objecttolerance="10"
     gridtolerance="10"
     guidetolerance="10"
     inkscape:pageopacity="0"
     inkscape:pageshadow="2"
     inkscape:window-width="1366"
     inkscape:window-height="709"
     id="namedview13"
     showgrid="false"
     inkscape:zoom="10.821656"
     inkscape:cx="20.956018"
     inkscape:cy="33.336371"
     inkscape:current-layer="svg2"
     showguides="true"
     inkscape:guide-bbox="true"
     inkscape:window-x="0"
     inkscape:window-y="-3"
     inkscape:window-maximized="1">
    <sodipodi:guide
       orientation="0,1"
       position="24.813559,28.677966"
       id="guide2986" />
    <sodipodi:guide
       orientation="1,0"
       position="12.422605,18.121864"
       id="guide3019" />
    <sodipodi:guide
       orientation="1,0"
       position="35.486795,20.303612"
       id="guide3021" />
    <sodipodi:guide
       orientation="0,1"
       position="24.489005,10.864213"
       id="guide3023" />
  </sodipodi:namedview>
  <defs
     id="defs4" />
  <g
     id="layer1"
     transform="matrix(1.1470591,0,0,0.91864444,-3.5294177,1.9525339)"
     style="fill:#134b73;fill-opacity:1">
    <path
       id="rect4090"
       transform="translate(7,4)"
       d="M 0,0 0,40 34,40 33.79661,0.01694915 23,0 z"
       inkscape:connector-curvature="0"
       style="fill:#134b73;fill-opacity:1"
       sodipodi:nodetypes="cccccc" />
    <g
       id="logo"
       transform="translate(10.9749,16.1118)"
       style="fill:#134b73;fill-opacity:1" />
  </g>
  <g
     transform="matrix(0.17241387,0,0,0.17241387,16.155905,18.188902)"
     id="layer5" />
  <g
     transform="matrix(0.28054317,0,0,0.28054317,10.467418,11.154881)"
     id="layer1-9">
    <rect
       width="84"
       height="86.964485"
       rx="6"
       ry="0"
       x="6"
       y="6"
       id="rect2419"
       style="fill:#134b73;fill-opacity:1;fill-rule:nonzero;stroke:none" />
    <path
       d="m 12,30 0,4 0,36 0,10 c 0,2.216 1.784,4 4,4 l 64,0 c 2.216,0 4,-1.784 4,-4 l 0,-10 0,-36 0,-4 -4,0 -64,0 -4,0 z"
       inkscape:connector-curvature="0"
       id="rect2980"
       style="fill:#134b73;fill-opacity:1;stroke:none" />
    <path
       d="m 58.964588,44.815416 -10e-7,22.000001 18,-11 z"
       id="path3496"
       style="fill:#ffffff;fill-opacity:1;fill-rule:evenodd;stroke:none;display:inline"
       inkscape:connector-curvature="0" />
    <path
       d="m 12,30 0,4 0,36 0,10 c 0,2.216 1.784,4 4,4 l 64,0 c 2.216,0 4,-1.784 4,-4 l 0,-10 0,-36 0,-4 -4,0 -64,0 -4,0 z m 3.09375,3.09375 0.90625,0 64,0 0.90625,0 0,0.90625 0,36 0,10 c 0,0.550784 -0.355466,0.90625 -0.90625,0.90625 l -64,0 c -0.550784,0 -0.90625,-0.355466 -0.90625,-0.90625 l 0,-10 0,-36 0,-0.90625 z"
       inkscape:connector-curvature="0"
       id="path3828"
       style="opacity:0.07999998;fill:#134b73;fill-opacity:1;stroke:none" />
  </g>
  <rect
     style="fill:#f9f9f9;fill-opacity:1;stroke:none"
     id="rect3169"
     width="2.8025162"
     height="11.605499"
     x="15.440562"
     y="20.901134" />
  <path
     style="fill:#f9f9f9;fill-opacity:1;stroke:none"
     d="m 23.097571,20.901134 1.685946,0 1.685946,0 -4.806756,5.802749 4.806756,5.80275 -1.685946,0 -1.685946,0 -4.806756,-5.80275 z"
     id="path3171"
     inkscape:connector-curvature="0"
     sodipodi:nodetypes="ccccccccc" />
  <text
     xml:space="preserve"
     style="font-size:6px;font-style:normal;font-variant:normal;font-weight:500;font-stretch:normal;line-height:125%;letter-spacing:0px;word-spacing:0px;fill:#000000;fill-opacity:1;stroke:none;font-family:Century Schoolbook L;-inkscape-font-specification:Century Schoolbook L Medium"
     x="15.154797"
     y="19.322035"
     id="text3903"
     sodipodi:linespacing="125%"><tspan
       sodipodi:role="line"
       id="tspan3905"
       x="15.154797"
       y="19.322035"
       style="font-style:normal;font-variant:normal;font-weight:normal;font-stretch:normal;fill:#ffffff;font-family:Sans;-inkscape-font-specification:ClearlyU">title</tspan></text>
</svg>
