<?xml version="1.0" encoding="UTF-8" standalone="no"?>
<!-- Created using Karbon, part of Calligra: http://www.calligra.org/karbon -->

<svg
   xmlns:dc="http://purl.org/dc/elements/1.1/"
   xmlns:cc="http://creativecommons.org/ns#"
   xmlns:rdf="http://www.w3.org/1999/02/22-rdf-syntax-ns#"
   xmlns:svg="http://www.w3.org/2000/svg"
   xmlns="http://www.w3.org/2000/svg"
   xmlns:sodipodi="http://sodipodi.sourceforge.net/DTD/sodipodi-0.dtd"
   xmlns:inkscape="http://www.inkscape.org/namespaces/inkscape"
   width="38.4pt"
   height="38.4pt"
   id="svg2"
   version="1.1"
   inkscape:version="0.48.4 r9939"
   sodipodi:docname="application-x-cue.svg">
  <metadata
     id="metadata18">
    <rdf:RDF>
      <cc:Work
         rdf:about="">
        <dc:format>image/svg+xml</dc:format>
        <dc:type
           rdf:resource="http://purl.org/dc/dcmitype/StillImage" />
      </cc:Work>
    </rdf:RDF>
  </metadata>
  <sodipodi:namedview
     pagecolor="#ffffff"
     bordercolor="#666666"
     borderopacity="1"
     objecttolerance="10"
     gridtolerance="10"
     guidetolerance="10"
     inkscape:pageopacity="0"
     inkscape:pageshadow="2"
     inkscape:window-width="1366"
     inkscape:window-height="709"
     id="namedview16"
     showgrid="false"
     inkscape:zoom="13.933514"
     inkscape:cx="24.681938"
     inkscape:cy="21.589248"
     inkscape:current-layer="svg2"
     inkscape:window-x="0"
     inkscape:window-y="-3"
     inkscape:window-maximized="1" />
  <defs
     id="defs4" />
  <path
     sodipodi:nodetypes="cccccc"
     style="fill:#34495e;fill-opacity:1"
     inkscape:connector-curvature="0"
     d="m 4.499996,5.6271117 0,36.7457773 39.000009,0 0,-36.7280649 -12.61765,-0.017712 z"
     id="rect4090" />
  <path
     style="fill:#ecf0f1;fill-rule:evenodd;stroke:#003bc3;stroke-width:0;stroke-linecap:square;stroke-linejoin:miter;stroke-miterlimit:2;fill-opacity:1"
     inkscape:connector-curvature="0"
     d="m 24.57743,15.650992 c -7.578918,0 -13.717909,4.91653 -13.717909,10.986253 0,6.069759 6.138991,10.986252 13.717909,10.986252 7.578964,0 13.717909,-4.916493 13.717909,-10.986252 0,-6.069723 -6.138945,-10.986253 -13.717909,-10.986253 z m 0,9.183808 c 1.247083,0 2.25053,0.803602 2.25053,1.802445 0,0.99875 -1.003447,1.80238 -2.25053,1.80238 -1.247197,0 -2.25061,-0.80363 -2.25061,-1.80238 0,-0.998843 1.003413,-1.802445 2.25061,-1.802445 z"
     stroke-miterlimit="2.00000000000"
     id="shape011" />
  <path
     style="fill:#1abc9c;fill-rule:evenodd;stroke:#003bc3;stroke-width:0;stroke-linecap:square;stroke-linejoin:miter;stroke-miterlimit:2"
     inkscape:connector-curvature="0"
     d="m 24.570926,22.373724 c -2.932537,0 -5.317112,1.909733 -5.317112,4.258312 0,2.348524 2.384575,4.258312 5.317112,4.258312 2.932468,0 5.317112,-1.909788 5.317112,-4.258312 0,-2.348579 -2.384644,-4.258312 -5.317112,-4.258312 z m 0,2.425837 c 1.267959,0 2.288062,0.816996 2.288062,1.832475 0,1.01547 -1.020103,1.832438 -2.288062,1.832438 -1.26797,0 -2.288107,-0.816968 -2.288107,-1.832438 0,-1.015479 1.020137,-1.832475 2.288107,-1.832475 z"
     stroke-miterlimit="2.00000000000"
     id="shape11" />
  <path
     style="fill:#34495e;fill-rule:evenodd;stroke:#003bc3;stroke-width:0;stroke-linecap:square;stroke-linejoin:bevel"
     inkscape:connector-curvature="0"
     d="m 28.01161,30.731735 c 0.932884,-0.521244 1.197725,-0.854218 1.566401,-1.224645 l 5.499437,3.159007 c -0.831205,1.037039 -1.813236,1.940985 -3.166869,2.560629 z"
     id="shape0" />
  <path
     style="fill:#34495e;fill-rule:evenodd;stroke:#003bc3;stroke-width:0;stroke-linecap:square;stroke-linejoin:bevel"
     inkscape:connector-curvature="0"
     d="m 21.13077,22.528038 c -0.961018,0.542726 -1.233846,0.889432 -1.613637,1.275125 L 13.851854,20.51392 c 0.856261,-1.079793 1.867928,-2.021009 3.262374,-2.666173 z"
     id="shape1" />
  <path
     style="fill:#e74c3c;fill-rule:evenodd;stroke:#003bc3;stroke-width:0;stroke-linecap:square;stroke-linejoin:bevel"
     inkscape:connector-curvature="0"
     d="m 20.829334,30.442601 1.215057,2.560684 2.608825,-3.66642 2.53733,3.520944 1.536646,-2.589797 c 8.854677,11.716382 -17.880472,11.172637 -7.897858,0.174589 z"
     id="shape0111" />
  <path
     style="fill:#f1c40f;fill-rule:evenodd;stroke:#003bc3;stroke-width:0;stroke-linecap:square;stroke-linejoin:bevel"
     inkscape:connector-curvature="0"
     d="m 24.633326,33.517616 c 8.581207,5.036183 -9.082265,5.090834 0,0 z"
     id="shape111" />
</svg>
