<?xml version="1.0" encoding="UTF-8" standalone="no"?>
<!-- Created using Karbon, part of Calligra: http://www.calligra.org/karbon -->

<svg
   xmlns:dc="http://purl.org/dc/elements/1.1/"
   xmlns:cc="http://creativecommons.org/ns#"
   xmlns:rdf="http://www.w3.org/1999/02/22-rdf-syntax-ns#"
   xmlns:svg="http://www.w3.org/2000/svg"
   xmlns="http://www.w3.org/2000/svg"
   xmlns:sodipodi="http://sodipodi.sourceforge.net/DTD/sodipodi-0.dtd"
   xmlns:inkscape="http://www.inkscape.org/namespaces/inkscape"
   width="38.4pt"
   height="38.4pt"
   id="svg2"
   version="1.1"
   inkscape:version="0.48.4 r9939"
   sodipodi:docname="application-vnd.sun.xml.calc.svg">
  <metadata
     id="metadata23">
    <rdf:RDF>
      <cc:Work
         rdf:about="">
        <dc:format>image/svg+xml</dc:format>
        <dc:type
           rdf:resource="http://purl.org/dc/dcmitype/StillImage" />
        <dc:title></dc:title>
      </cc:Work>
    </rdf:RDF>
  </metadata>
  <sodipodi:namedview
     pagecolor="#ffffff"
     bordercolor="#666666"
     borderopacity="1"
     objecttolerance="10"
     gridtolerance="10"
     guidetolerance="10"
     inkscape:pageopacity="0"
     inkscape:pageshadow="2"
     inkscape:window-width="1680"
     inkscape:window-height="991"
     id="namedview21"
     showgrid="false"
     inkscape:zoom="8.0986602"
     inkscape:cx="-13.23123"
     inkscape:cy="17.185655"
     inkscape:current-layer="svg2"
     inkscape:window-x="-2"
     inkscape:window-y="-3"
     inkscape:window-maximized="1" />
  <defs
     id="defs4" />
  <path
     sodipodi:nodetypes="cccccc"
     style="fill:#27ae60"
     inkscape:connector-curvature="0"
     d="m 4.499996,5.6271117 0,36.7457773 39.000009,0 -0.09807,-36.6945046 -12.519576,-0.051273 z"
     id="rect4090" />
  <g
     id="g3811"
     style="fill:#ffffff"
     transform="translate(-0.59506214,1.5683052)">
    <rect
       style="fill:#ffffff;stroke:none"
       id="c-4-14-6-4-9"
       y="25.161228"
       x="19.511768"
       rx="1.5613168"
       height="9.8203564"
       width="3.1226337" />
    <path
       inkscape:connector-curvature="0"
       style="fill:#ffffff;stroke:#ffffff;stroke-width:0;stroke-miterlimit:4;stroke-dasharray:none"
       id="rect8719-3-2-7-4-3"
       d="m 17.508642,17.108634 c -0.0052,0.05912 -0.0096,0.119055 -0.0096,0.179597 l 0,10.147582 c 0,1.09138 0.863839,1.970481 1.936252,1.970481 l 10.319438,0 c 1.072424,0 1.936264,-0.879101 1.936264,-1.970481 l 0,-10.147582 c 0,-0.06053 -0.0021,-0.120491 -0.0072,-0.179597 l -14.175038,0 z" />
    <rect
       style="fill:#ffffff;stroke:none"
       id="c-4-8-9-1-4-9"
       y="25.161228"
       x="26.555721"
       rx="1.5613168"
       height="9.8203564"
       width="3.1226337" />
    <rect
       style="fill:#ffffff;stroke:none"
       id="c-4-9-2-9-2-9"
       y="18.011839"
       x="13.429009"
       rx="1.5613168"
       height="9.8203564"
       width="3.1226337" />
    <rect
       style="fill:#ffffff;stroke:none"
       id="c-4-1-7-3-8-4"
       y="18.011839"
       x="32.638481"
       rx="1.5613168"
       height="9.8203564"
       width="3.1226337" />
    <path
       style="fill:#ffffff;fill-opacity:1;stroke:none"
       d="m 23.812497,10.4375 c -3.492274,0.336914 -6.20654,2.883156 -6.25,6 l 14.0625,0 c -0.04346,-3.116844 -2.757726,-5.663086 -6.25,-6 l -1.5625,0 z m -2.09375,2.40625 a 0.8077093,0.78892543 0 0 1 0.78125,0.8125 0.8125,0.79360472 0 1 1 -1.625,0 0.8077093,0.78892543 0 0 1 0.84375,-0.8125 z m 5.84375,0 a 0.8077093,0.78892543 0 0 1 0.1875,0 0.8077093,0.78892543 0 0 1 0.78125,0.8125 0.8125,0.79360472 0 0 1 -1.625,0 0.8077093,0.78892543 0 0 1 0.65625,-0.8125 z"
       id="path4090-4-4-4-8"
       inkscape:connector-curvature="0" />
    <path
       inkscape:connector-curvature="0"
       style="fill:#ffffff;stroke:#ffffff;stroke-width:0.5;stroke-linecap:round;stroke-linejoin:round;stroke-miterlimit:4;stroke-opacity:1;stroke-dasharray:none"
       id="path4160-1-3-5-6"
       d="m 18.097282,10.131805 1.647052,2.852784" />
    <path
       inkscape:connector-curvature="0"
       style="fill:#ffffff;stroke:#ffffff;stroke-width:0.5;stroke-linecap:round;stroke-linejoin:round;stroke-miterlimit:4;stroke-opacity:1;stroke-dasharray:none"
       id="path4160-9-0-1-7-9"
       d="m 31.09278,10.131805 -1.647053,2.852784" />
  </g>
</svg>
