<?xml version="1.0" encoding="UTF-8" standalone="no"?>
<!-- Created using Karbon, part of Calligra: http://www.calligra.org/karbon -->

<svg
   xmlns:dc="http://purl.org/dc/elements/1.1/"
   xmlns:cc="http://creativecommons.org/ns#"
   xmlns:rdf="http://www.w3.org/1999/02/22-rdf-syntax-ns#"
   xmlns:svg="http://www.w3.org/2000/svg"
   xmlns="http://www.w3.org/2000/svg"
   xmlns:xlink="http://www.w3.org/1999/xlink"
   xmlns:sodipodi="http://sodipodi.sourceforge.net/DTD/sodipodi-0.dtd"
   xmlns:inkscape="http://www.inkscape.org/namespaces/inkscape"
   width="38.4pt"
   height="38.4pt"
   id="svg2"
   version="1.1"
   inkscape:version="0.48.4 r9939"
   sodipodi:docname="application-x-font-ttf.svg">
  <metadata
     id="metadata14">
    <rdf:RDF>
      <cc:Work
         rdf:about="">
        <dc:format>image/svg+xml</dc:format>
        <dc:type
           rdf:resource="http://purl.org/dc/dcmitype/StillImage" />
        <dc:title></dc:title>
      </cc:Work>
    </rdf:RDF>
  </metadata>
  <sodipodi:namedview
     pagecolor="#ffffff"
     bordercolor="#666666"
     borderopacity="1"
     objecttolerance="10"
     gridtolerance="10"
     guidetolerance="10"
     inkscape:pageopacity="0"
     inkscape:pageshadow="2"
     inkscape:window-width="618"
     inkscape:window-height="449"
     id="namedview12"
     showgrid="false"
     inkscape:zoom="3.6828085"
     inkscape:cx="49.235513"
     inkscape:cy="19.626629"
     inkscape:current-layer="svg2"
     inkscape:window-x="68"
     inkscape:window-y="48"
     inkscape:window-maximized="0" />
  <defs
     id="defs4">
    <linearGradient
       x1="8"
       y1="38.127232"
       x2="8"
       y2="71.877235"
       id="linearGradient4376"
       xlink:href="#linearGradient4370"
       gradientUnits="userSpaceOnUse" />
    <linearGradient
       id="linearGradient4370">
      <stop
         id="stop4372"
         style="stop-color:#8a5b30;stop-opacity:1"
         offset="0" />
      <stop
         id="stop4374"
         style="stop-color:#8a5b30;stop-opacity:0"
         offset="1" />
    </linearGradient>
  </defs>
  <g
     id="layer1"
     transform="matrix(1.1470591,0,0,0.91864444,-3.5294177,1.9525339)">
    <path
       id="rect4090"
       transform="translate(7,4)"
       d="M 0,0 0,40 34,40 34,0.07084098 23,0 z"
       inkscape:connector-curvature="0"
       style="fill:#ecf0f1"
       sodipodi:nodetypes="cccccc" />
    <path
       id="shape0"
       transform="translate(13.8589,15.0009)"
       d="m 13.8774,2.33869 c -1.8124,0 -3.6249,0 -5.43729,0 0,5.04116 0,10.08231 0,15.12351 -1.00094,0 -2.00192,0 -3.00284,0 0,-5.0412 0,-10.08235 0,-15.12351 -1.81243,0 -3.62485,0 -5.43727,0 C 0,1.55913 0,0.779559 0,0 c 4.6258,0 9.25159,0 13.8774,0 0,0.779559 0,1.55913 0,2.33869 z"
       inkscape:connector-curvature="0"
       style="fill:#e74c3c" />
    <path
       id="shape01"
       transform="translate(20.3055,20.2482)"
       d="m 13.3277,2.28037 c -1.7406,0 -3.48127,0 -5.22185,0 0,4.91545 0,9.83093 0,14.74643 -0.9613,0 -1.92264,0 -2.88394,0 0,-4.9155 0,-9.83098 0,-14.74643 -1.74064,0 -3.48127,0 -5.22191,0 C 0,1.52025 0,0.760124 0,0 c 4.44257,0 8.88513,0 13.3277,0 0,0.760124 0,1.52025 0,2.28037 z"
       inkscape:connector-curvature="0"
       style="fill:#2c3e50" />
  </g>
  <g
     transform="matrix(0.35587621,0,0,0.35587621,7.1521633,7.9084497)"
     id="layer1-1"
     style="display:inline">
    <path
       d="m 6,36 0,48 c 0,1.781762 0.7745675,3.371709 2,4.46875 L 8,36 6,36 z"
       inkscape:connector-curvature="0"
       id="rect5138"
       style="fill:url(#linearGradient4376);fill-opacity:1;fill-rule:nonzero;stroke:none" />
    <rect
       width="84"
       height="84"
       rx="6"
       ry="0"
       x="6"
       y="6"
       id="rect2419"
       style="fill:#ccaa7d;fill-opacity:1;fill-rule:nonzero;stroke:none" />
    <rect
       width="82.104904"
       height="24"
       rx="5.8646359"
       ry="6"
       x="6.8614073"
       y="18"
       id="rect2483"
       style="fill:#3c2510;fill-opacity:1;fill-rule:nonzero;stroke:none" />
    <path
       d="M 12.769113,6.081611 C 6.6184327,6.2022902 6.6029851,6.0966084 6.6029851,12.068022 l 0,23.945644 c 0,6.012344 0.2509686,5.851617 6.1661279,5.986411 l 36.996772,-1.995471 0,-35.9184653 z"
       inkscape:connector-curvature="0"
       id="rect2481"
       style="fill:#ccaa7d;fill-opacity:1;fill-rule:nonzero;stroke:none"
       sodipodi:nodetypes="csscccc" />
    <path
       d="m 83.66159,6.081611 c 5.521248,0.1206792 5.649284,0.1356765 5.649284,5.986411 l 0,23.945644 c 0,6.147138 -0.484337,6.121205 -5.649284,5.986411 l -33.895705,-1.995471 0,-35.9184653 z"
       inkscape:connector-curvature="0"
       id="path3262"
       style="fill:#ccaa7d;fill-opacity:1;fill-rule:nonzero;stroke:none"
       sodipodi:nodetypes="csscccc" />
    <path
       d="m 54.120367,4.2665511 -12.120366,0 0.06018,25.3032209 L 42.194833,60 l 5.686841,-0.520245 6.043861,-0.552425 0.03264,-5.837472 0.102007,-23.520086 0.06018,-25.3032209 z"
       inkscape:connector-curvature="0"
       id="path5008"
       style="opacity:0.5;fill:#3a240f;fill-opacity:1;display:inline" />
    <path
       d="M 54.060184,4.1388654 48.000001,3.6950648 41.939817,4.1388654 42.000001,29.940506 42.134649,59 l 5.686841,-0.49681 6.043862,-0.527542 0.03264,-5.574522 0.102006,-22.46062 0.06018,-25.8016406 z"
       inkscape:connector-curvature="0"
       id="polygon120"
       style="fill:#d8cab2;fill-opacity:1;display:inline" />
    <rect
       width="1"
       height="35.714287"
       x="47"
       y="4.1250005"
       id="rect4363"
       style="opacity:0.2;fill:#8d6137;fill-opacity:1;fill-rule:nonzero;stroke:none;display:inline" />
    <rect
       width="1"
       height="35.714287"
       x="48"
       y="4.1250005"
       id="rect4365"
       style="opacity:0.2;fill:#ffffff;fill-opacity:1;fill-rule:nonzero;stroke:none;display:inline" />
  </g>
  <path
     id="shape0-8"
     d="m 35.455566,27.467433 c -1.140954,0 -2.281971,0 -3.422917,0 0,2.541592 0,5.08318 0,7.624793 -0.630118,0 -1.260261,0 -1.890367,0 0,-2.541613 0,-5.083201 0,-7.624793 -1.140972,0 -2.281938,0 -3.422904,0 0,-0.39303 0,-0.786065 0,-1.179094 2.912063,0 5.824118,0 8.736188,0 0,0.393029 0,0.786064 0,1.179094 z"
     inkscape:connector-curvature="0"
     style="fill:#e74c3c" />
  <path
     id="shape01-6"
     d="m 39.167819,30.083551 c -1.095754,0 -2.191551,0 -3.287292,0 0,2.478214 0,4.956443 0,7.434682 -0.605164,0 -1.210353,0 -1.815516,0 0,-2.478239 0,-4.956468 0,-7.434682 -1.095778,0 -2.19155,0 -3.287329,0 0,-0.383228 0,-0.766459 0,-1.14969 2.796714,0 5.593422,0 8.390137,0 0,0.383231 0,0.766462 0,1.14969 z"
     inkscape:connector-curvature="0"
     style="fill:#2c3e50" />
</svg>
