<?xml version="1.0" encoding="UTF-8" standalone="no"?>
<!-- Created using Karbon, part of Calligra: http://www.calligra.org/karbon -->

<svg
   xmlns:dc="http://purl.org/dc/elements/1.1/"
   xmlns:cc="http://creativecommons.org/ns#"
   xmlns:rdf="http://www.w3.org/1999/02/22-rdf-syntax-ns#"
   xmlns:svg="http://www.w3.org/2000/svg"
   xmlns="http://www.w3.org/2000/svg"
   xmlns:sodipodi="http://sodipodi.sourceforge.net/DTD/sodipodi-0.dtd"
   xmlns:inkscape="http://www.inkscape.org/namespaces/inkscape"
   width="38.4pt"
   height="38.4pt"
   id="svg2"
   version="1.1"
   inkscape:version="0.48.4 r9939"
   sodipodi:docname="application-x-ruby.svg">
  <metadata
     id="metadata13">
    <rdf:RDF>
      <cc:Work
         rdf:about="">
        <dc:format>image/svg+xml</dc:format>
        <dc:type
           rdf:resource="http://purl.org/dc/dcmitype/StillImage" />
      </cc:Work>
    </rdf:RDF>
  </metadata>
  <sodipodi:namedview
     pagecolor="#ffffff"
     bordercolor="#666666"
     borderopacity="1"
     objecttolerance="10"
     gridtolerance="10"
     guidetolerance="10"
     inkscape:pageopacity="0"
     inkscape:pageshadow="2"
     inkscape:window-width="640"
     inkscape:window-height="480"
     id="namedview11"
     showgrid="false"
     inkscape:zoom="11.122719"
     inkscape:cx="34.169492"
     inkscape:cy="19.220339"
     inkscape:current-layer="svg2" />
  <defs
     id="defs4" />
  <g
     id="layer0"
     transform="matrix(1.1470591,0,0,0.91864444,-3.5654324,2.0233742)">
    <path
       id="rect4090"
       transform="translate(7.2449,4.87075)"
       d="M 0,0 0,40 34,40 33.910094,0.12136457 23,0 z"
       inkscape:connector-curvature="0"
       style="fill:#ecf0f1"
       sodipodi:nodetypes="cccccc" />
    <path
       id="shape0"
       transform="translate(14.2813,17.6562)"
       stroke-miterlimit="2.00000000000"
       d="M 15.5625,0 11.9375,3.59375 17.875,6.3125 24.1875,0 z M 24.75,0.5 18.5,6.75 24.75,23.6562 z M 11.375,4.1875 4.15625,11.3438 6.875,17.2812 17.2812,6.90625 z M 17.9062,7.34375 7.40625,17.875 24.0312,24.0312 z M 3.5625,11.9062 0,15.4687 0,24.1562 6.3125,17.8438 z m 3.25,6.5626 -6.25,6.25 23.2188,0 z"
       inkscape:connector-curvature="0"
       style="fill:#c0392b;fill-rule:evenodd;stroke:#003bc3;stroke-width:0;stroke-linecap:square;stroke-linejoin:miter;stroke-miterlimit:2" />
  </g>
</svg>
