<?xml version="1.0" encoding="UTF-8" standalone="no"?>
<!-- Created using Karbon, part of Calligra: http://www.calligra.org/karbon -->

<svg
   xmlns:dc="http://purl.org/dc/elements/1.1/"
   xmlns:cc="http://creativecommons.org/ns#"
   xmlns:rdf="http://www.w3.org/1999/02/22-rdf-syntax-ns#"
   xmlns:svg="http://www.w3.org/2000/svg"
   xmlns="http://www.w3.org/2000/svg"
   xmlns:sodipodi="http://sodipodi.sourceforge.net/DTD/sodipodi-0.dtd"
   xmlns:inkscape="http://www.inkscape.org/namespaces/inkscape"
   width="38.4pt"
   height="38.4pt"
   id="svg2"
   version="1.1"
   inkscape:version="0.48.4 r9939"
   sodipodi:docname="application-pdf.svg">
  <metadata
     id="metadata13">
    <rdf:RDF>
      <cc:Work
         rdf:about="">
        <dc:format>image/svg+xml</dc:format>
        <dc:type
           rdf:resource="http://purl.org/dc/dcmitype/StillImage" />
      </cc:Work>
    </rdf:RDF>
  </metadata>
  <sodipodi:namedview
     pagecolor="#ffffff"
     bordercolor="#666666"
     borderopacity="1"
     objecttolerance="10"
     gridtolerance="10"
     guidetolerance="10"
     inkscape:pageopacity="0"
     inkscape:pageshadow="2"
     inkscape:window-width="1680"
     inkscape:window-height="991"
     id="namedview11"
     showgrid="false"
     inkscape:zoom="8.570292"
     inkscape:cx="16.615695"
     inkscape:cy="36.717427"
     inkscape:window-x="-2"
     inkscape:window-y="-3"
     inkscape:window-maximized="1"
     inkscape:current-layer="svg2" />
  <defs
     id="defs4" />
  <rect
     style="opacity:1;color:#000000;fill:#d40000;fill-opacity:1;fill-rule:nonzero;stroke:none;stroke-width:1.19111561999999993;marker:none;visibility:visible;display:inline;overflow:visible;enable-background:accumulate"
     id="rect2985"
     width="39.000015"
     height="36.745651"
     x="4.4999924"
     y="5.6271744" />
  <path
     inkscape:connector-curvature="0"
     id="path2994"
     d="m 35.038798,27.189342 c -1.441682,-0.01728 -3.169533,0.118969 -5.046221,0.407808 -0.859404,-0.531699 -1.767265,-1.114656 -2.485872,-1.837831 -1.823429,-1.832787 -3.35209,-4.378785 -4.300369,-7.23187 0.06488,-0.273171 0.127396,-0.539993 0.183782,-0.809922 0.263839,-1.276913 0.45287,-5.497283 0.45287,-5.497283 0,0 -0.749646,3.170542 -0.867889,3.648745 -0.07558,0.303567 -0.171167,0.627436 -0.279695,0.96451 -0.575243,-2.17727 -0.868001,-4.289387 -0.868001,-5.889556 0,-0.452908 0.03595,-1.3315936 0.1552,-2.0276584 0.05784,-0.4963908 0.226211,-0.7544884 0.399723,-0.8791769 0.343114,0.089808 0.726312,0.6558332 1.127262,1.6035245 0.344343,0.8190098 0.322904,1.7680698 0.322904,2.3555168 0,0 0.36913,-1.454549 0.283827,-2.3140403 -0.05179,-0.5160664 -0.508475,-1.8433083 -1.477747,-1.8273646 l -0.07894,0 -0.431544,-0.0069 c -0.708112,0 -1.370446,0.3735699 -1.530446,0.9889192 -0.595007,2.3608787 0.07069,6.0118677 1.181303,10.5604757 l -0.336192,0.880596 c -0.850136,2.23027 -1.91218,4.452017 -2.846873,6.423821 -3.858077,8.125632 -6.859114,12.509819 -8.8600775,12.816785 l -0.00854,-0.08836 c -0.043392,-1.013453 1.6952215,-3.627639 4.0509835,-5.705446 0.245573,-0.214287 1.293092,-1.305655 1.293092,-1.305655 0,0 -1.415063,0.80553 -1.732721,1.012255 -2.951504,1.897133 -4.4208341,3.796789 -4.6602625,5.058023 -0.070947,0.374793 -0.024066,0.834821 0.2828243,1.023898 l 0.7553217,0.408647 c 2.0542015,1.10697 4.5792625,-1.803137 7.9382295,-8.139202 3.417798,-1.206731 7.681544,-2.343475 11.564214,-2.958966 3.475131,2.137353 7.461639,3.154887 8.992867,2.715148 0.291419,-0.08282 0.598693,-0.328694 0.755009,-0.555708 0.122818,-0.208884 0.29365,-1.044906 0.29365,-1.044906 0,0 -0.287398,0.424014 -0.524441,0.548384 -0.969831,0.492682 -4.029384,-0.329294 -7.17022,-1.983088 2.715322,-0.311047 4.978556,-0.324133 6.187439,0.09183 1.535135,0.527377 1.535135,1.069157 1.514815,1.179362 0.02032,-0.09087 0.09023,-0.453786 0.08183,-0.607928 -0.03517,-0.396641 -0.147829,-0.750307 -0.426407,-1.043466 -0.568656,-0.602406 -1.972154,-0.906969 -3.88468,-0.93398 z m -17.07592,3.815877 c 0.581383,-1.112133 1.211148,-2.323308 1.855751,-3.6298 1.247068,-2.539036 2.003639,-4.499075 2.639733,-6.343509 1.002656,2.171327 2.386723,4.234849 4.20122,5.888404 0.404747,0.368549 0.83484,0.717171 1.277549,1.046466 -3.295702,0.659547 -6.757658,1.587888 -9.974253,3.038439 z"
     style="fill:#ffffff;fill-opacity:1" />
</svg>
