<?xml version="1.0" encoding="UTF-8" standalone="no"?>
<!-- Created using Karbon, part of Calligra: http://www.calligra.org/karbon -->

<svg
   xmlns:dc="http://purl.org/dc/elements/1.1/"
   xmlns:cc="http://creativecommons.org/ns#"
   xmlns:rdf="http://www.w3.org/1999/02/22-rdf-syntax-ns#"
   xmlns:svg="http://www.w3.org/2000/svg"
   xmlns="http://www.w3.org/2000/svg"
   xmlns:sodipodi="http://sodipodi.sourceforge.net/DTD/sodipodi-0.dtd"
   xmlns:inkscape="http://www.inkscape.org/namespaces/inkscape"
   width="38.4pt"
   height="38.4pt"
   id="svg2"
   version="1.1"
   inkscape:version="0.48.5 r10040"
   sodipodi:docname="text-x-makefile.svg">
  <metadata
     id="metadata39">
    <rdf:RDF>
      <cc:Work
         rdf:about="">
        <dc:format>image/svg+xml</dc:format>
        <dc:type
           rdf:resource="http://purl.org/dc/dcmitype/StillImage" />
      </cc:Work>
    </rdf:RDF>
  </metadata>
  <sodipodi:namedview
     pagecolor="#ffffff"
     bordercolor="#666666"
     borderopacity="1"
     objecttolerance="10"
     gridtolerance="10"
     guidetolerance="10"
     inkscape:pageopacity="0"
     inkscape:pageshadow="2"
     inkscape:window-width="1680"
     inkscape:window-height="991"
     id="namedview37"
     showgrid="false"
     inkscape:zoom="13.906433"
     inkscape:cx="20.964935"
     inkscape:cy="31.294998"
     inkscape:current-layer="svg2"
     inkscape:window-x="-2"
     inkscape:window-y="-3"
     inkscape:window-maximized="1" />
  <defs
     id="defs4" />
  <path
     sodipodi:nodetypes="cccccc"
     style="fill:#ecf0f1"
     inkscape:connector-curvature="0"
     d="m 4.5719044,5.6279911 0,36.7438469 38.8357386,0 0.164273,-36.7457779 -12.728777,0.00193 z"
     id="rect4090" />
  <path
     style="fill:none"
     inkscape:connector-curvature="0"
     d="m 24.59986,14.974471 c 0,-0.471379 -0.475475,-0.853507 -1.062,-0.853507 -0.586523,0 -1.061995,0.382128 -1.061995,0.853507 0,0.471375 0.475472,0.853511 1.061995,0.853511 0.586525,0 1.062,-0.382136 1.062,-0.853511"
     id="path3264" />
  <path
     style="fill:none"
     inkscape:connector-curvature="0"
     d="m 25.478918,36.86177 c 0,-0.471379 -0.475475,-0.853507 -1.062,-0.853507 -0.586523,0 -1.061995,0.382128 -1.061995,0.853507 0,0.471375 0.475472,0.853511 1.061995,0.853511 0.586525,0 1.062,-0.382136 1.062,-0.853511"
     id="ellipse3266" />
  <path
     style="color:#000000;fill:#5b6d71;fill-opacity:1;fill-rule:nonzero;stroke:none;stroke-width:0.84200001;marker:none;visibility:visible;display:inline;overflow:visible;enable-background:accumulate"
     d="M 24 13.65625 C 18.281135 13.65625 13.65625 18.281135 13.65625 24 C 13.65625 29.718865 18.281135 34.34375 24 34.34375 C 29.718865 34.34375 34.34375 29.718865 34.34375 24 C 34.34375 18.281135 29.718865 13.65625 24 13.65625 z M 24 21.125 C 25.588574 21.125 26.875 22.411426 26.875 24 C 26.875 25.588574 25.588574 26.875 24 26.875 C 22.411426 26.875 21.125 25.588574 21.125 24 C 21.125 22.411426 22.411426 21.125 24 21.125 z "
     id="path3038" />
  <g
     id="g3049"
     transform="matrix(1.0446074,0,0,1.2653992,-1.5345238,-10.908723)">
    <rect
       id="rect3307"
       width="3.7144094"
       height="0.85348111"
       x="22.560505"
       y="21.072439"
       style="fill:#bdc3c7;fill-rule:evenodd" />
    <path
       id="ellipse3309"
       d="m 24.948283,19.365386 c 0,-0.235689 -0.237736,-0.426753 -0.530997,-0.426753 -0.293263,0 -0.530998,0.191064 -0.530998,0.426753 0,0.23569 0.237735,0.426754 0.530998,0.426754 0.293261,0 0.530997,-0.191064 0.530997,-0.426754"
       inkscape:connector-curvature="0"
       style="fill:none" />
    <path
       id="ellipse3311"
       d="m 24.948283,21.499101 c 0,-0.235689 -0.237736,-0.426753 -0.530997,-0.426753 -0.293263,0 -0.530998,0.191064 -0.530998,0.426753 0,0.23569 0.237735,0.426754 0.530998,0.426754 0.293261,0 0.530997,-0.191064 0.530997,-0.426754"
       inkscape:connector-curvature="0"
       style="fill:none" />
    <path
       id="ellipse3316"
       d="m 24.948283,35.581548 c 0,-0.235689 -0.237736,-0.426753 -0.530997,-0.426753 -0.293263,0 -0.530998,0.191064 -0.530998,0.426753 0,0.23569 0.237735,0.426754 0.530998,0.426754 0.293261,0 0.530997,-0.191064 0.530997,-0.426754"
       inkscape:connector-curvature="0"
       style="fill:none" />
    <rect
       id="rect3328"
       transform="scale(1,-1)"
       width="3.7144094"
       height="0.85348111"
       x="22.560505"
       y="-33.874729"
       style="fill:#bdc3c7;fill-rule:evenodd" />
    <path
       id="ellipse3318"
       d="m 24.948283,33.447833 c 0,-0.235689 -0.237736,-0.426753 -0.530997,-0.426753 -0.293263,0 -0.530998,0.191064 -0.530998,0.426753 0,0.23569 0.237735,0.426754 0.530998,0.426754 0.293261,0 0.530997,-0.191064 0.530997,-0.426754"
       inkscape:connector-curvature="0"
       style="fill:none" />
    <rect
       id="rect3332"
       transform="matrix(0.58318389,0.81234017,-0.90699925,0.42113224,0,0)"
       width="3.1845953"
       height="1.0133172"
       x="34.240311"
       y="-11.481529"
       style="fill:#bdc3c7;fill-rule:evenodd" />
    <rect
       id="rect3336"
       transform="matrix(0.58318389,0.81234017,0.90699925,-0.42113224,0,0)"
       width="3.1845953"
       height="1.0133172"
       x="34.240318"
       y="-3.7183013"
       style="fill:#bdc3c7;fill-rule:evenodd" />
    <rect
       id="rect3340"
       transform="matrix(-0.58318389,0.81234017,-0.90699925,-0.42113224,0,0)"
       width="3.1845953"
       height="1.0133172"
       x="13.305441"
       y="-44.100277"
       style="fill:#bdc3c7;fill-rule:evenodd" />
    <rect
       id="rect3344"
       transform="matrix(-0.58318389,0.81234017,0.90699925,0.42113224,0,0)"
       width="3.1845953"
       height="1.0133172"
       x="13.305481"
       y="28.900351"
       style="fill:#bdc3c7;fill-rule:evenodd" />
    <g
       id="g3040">
      <path
         style="fill:#bdc3c7"
         inkscape:connector-curvature="0"
         d="m 24.414602,21.072348 c -2.083926,9.9e-5 -4.154076,0.690338 -5.626533,1.875323 -1.47247,1.184989 -2.329802,2.85011 -2.329802,4.525786 0,1.675648 0.857332,3.340787 2.329802,4.525776 1.472457,1.184989 3.542607,1.875222 5.626533,1.875314 2.083914,9.2e-5 4.155275,-0.689498 5.629663,-1.874487 1.474387,-1.184989 2.332885,-2.850744 2.332885,-4.526603 0,-1.675859 -0.858498,-3.341623 -2.332885,-4.526622 -1.474388,-1.184987 -3.545749,-1.874586 -5.629663,-1.874487 z m 0.0011,2.56044 c 1.250362,-5.5e-5 2.492958,0.414204 3.37759,1.125197 0.884564,0.710994 1.400165,1.709958 1.400165,2.715472 0,1.005504 -0.515601,2.00445 -1.400165,2.715453 -0.884632,0.711039 -2.127228,1.125234 -3.37759,1.125234 -1.250362,-9.2e-5 -2.493094,-0.414195 -3.376573,-1.125234 -0.883479,-0.711003 -1.397047,-1.710059 -1.397047,-2.715453 0,-1.005404 0.513568,-2.004487 1.397047,-2.715472 0.883479,-0.710993 2.126211,-1.125133 3.376573,-1.125197 z"
         id="ellipse3292" />
      <path
         style="fill:#bdc3c7;fill-rule:evenodd"
         inkscape:connector-curvature="0"
         d="m 23.55093,19.792285 1.485764,0 1.237455,1.290471 -3.712959,0.01395 z"
         id="rect3313" />
      <path
         style="fill:#bdc3c7;fill-rule:evenodd"
         inkscape:connector-curvature="0"
         d="m 23.550941,35.410587 1.485764,0 1.246136,-1.53953 -3.70429,0 z"
         id="path3330" />
      <path
         style="fill:#bdc3c7;fill-rule:evenodd"
         inkscape:connector-curvature="0"
         d="m 32.328629,23.075618 0.811495,1.075387 -0.906072,1.424789 -1.856485,-2.581375 z"
         id="path3334" />
      <path
         style="fill:#bdc3c7;fill-rule:evenodd"
         inkscape:connector-curvature="0"
         d="m 15.748145,30.718389 0.811498,1.075391 1.906969,0.172659 -1.854114,-2.585756 z"
         id="path3338" />
      <path
         style="fill:#bdc3c7;fill-rule:evenodd"
         inkscape:connector-curvature="0"
         d="m 33.140124,30.718325 -0.811507,1.075391 -1.959731,0.179632 1.847804,-2.588347 z"
         id="path3342" />
      <path
         style="fill:#bdc3c7;fill-rule:evenodd"
         inkscape:connector-curvature="0"
         d="m 16.559643,23.075618 -0.811498,1.075387 0.861989,1.424789 1.856478,-2.581375 z"
         id="path3346" />
    </g>
    <path
       id="ellipse3324"
       d="m 31.11653,24.855843 c 0.253803,-0.117844 0.340684,-0.378952 0.194054,-0.5832 -0.146631,-0.204249 -0.471248,-0.274292 -0.725052,-0.156447 -0.253804,0.117844 -0.340685,0.378952 -0.194054,0.583201 0.14663,0.204247 0.471248,0.274291 0.725052,0.156446"
       inkscape:connector-curvature="0"
       style="fill:none" />
    <path
       id="ellipse3326"
       d="m 18.24945,30.830209 c 0.253803,-0.117844 0.340684,-0.378952 0.194054,-0.5832 -0.146631,-0.204249 -0.471248,-0.274292 -0.725052,-0.156447 -0.253804,0.117844 -0.340685,0.378952 -0.194054,0.583201 0.14663,0.204247 0.471248,0.274291 0.725052,0.156446"
       inkscape:connector-curvature="0"
       style="fill:none" />
    <path
       id="ellipse3348"
       d="m 31.116416,30.090961 c 0.253803,0.117844 0.340684,0.378952 0.194054,0.5832 -0.146631,0.204249 -0.471248,0.274292 -0.725052,0.156447 -0.253804,-0.117844 -0.340685,-0.378952 -0.194054,-0.583201 0.14663,-0.204247 0.471248,-0.274291 0.725052,-0.156446"
       inkscape:connector-curvature="0"
       style="fill:none" />
    <path
       id="ellipse3350"
       d="m 18.249336,24.116596 c 0.253803,0.117844 0.340684,0.378952 0.194054,0.5832 -0.146631,0.204249 -0.471248,0.274292 -0.725052,0.156447 -0.253804,-0.117844 -0.340685,-0.378952 -0.194054,-0.583201 0.14663,-0.204247 0.471248,-0.274291 0.725052,-0.156446"
       inkscape:connector-curvature="0"
       style="fill:none" />
  </g>
</svg>
