<?xml version="1.0" encoding="UTF-8" standalone="no"?>
<!-- Created using Karbon, part of Calligra: http://www.calligra.org/karbon -->

<svg
   xmlns:dc="http://purl.org/dc/elements/1.1/"
   xmlns:cc="http://creativecommons.org/ns#"
   xmlns:rdf="http://www.w3.org/1999/02/22-rdf-syntax-ns#"
   xmlns:svg="http://www.w3.org/2000/svg"
   xmlns="http://www.w3.org/2000/svg"
   xmlns:sodipodi="http://sodipodi.sourceforge.net/DTD/sodipodi-0.dtd"
   xmlns:inkscape="http://www.inkscape.org/namespaces/inkscape"
   width="38.4pt"
   height="38.4pt"
   id="svg2"
   version="1.1"
   inkscape:version="0.48.4 r9939"
   sodipodi:docname="application-x-designer.svg">
  <metadata
     id="metadata18">
    <rdf:RDF>
      <cc:Work
         rdf:about="">
        <dc:format>image/svg+xml</dc:format>
        <dc:type
           rdf:resource="http://purl.org/dc/dcmitype/StillImage" />
      </cc:Work>
    </rdf:RDF>
  </metadata>
  <sodipodi:namedview
     pagecolor="#ffffff"
     bordercolor="#666666"
     borderopacity="1"
     objecttolerance="10"
     gridtolerance="10"
     guidetolerance="10"
     inkscape:pageopacity="0"
     inkscape:pageshadow="2"
     inkscape:window-width="640"
     inkscape:window-height="480"
     id="namedview16"
     showgrid="false"
     inkscape:zoom="13.448026"
     inkscape:cx="24.40678"
     inkscape:cy="19.830508"
     inkscape:current-layer="svg2" />
  <defs
     id="defs4" />
  <g
     id="layer1"
     transform="matrix(1.1470591,0,0,0.91852198,-3.5294177,1.9552552)">
    <path
       id="rect4090"
       transform="translate(7,4)"
       d="M 0,0 0,40 34,40 34,-0.00533305 23,0 z"
       inkscape:connector-curvature="0"
       style="fill:#ecf0f1"
       sodipodi:nodetypes="cccccc" />
    <path
       id="shape0"
       transform="translate(19.3136,23.8462)"
       stroke-miterlimit="2.00000000000"
       d="M 2.75685,0 4.49758,0.363529 1.61324,17.0647 C 1.503,15.1992 0.965247,13.9112 0,13.2009 1.22527,7.33386 2.14422,2.93354 2.75685,0 z"
       inkscape:connector-curvature="0"
       style="fill:#2c3e50;fill-rule:evenodd;stroke:#003bc3;stroke-width:0;stroke-linecap:square;stroke-linejoin:miter;stroke-miterlimit:2" />
    <path
       id="shape11"
       transform="translate(20.2971,18.4524)"
       stroke-miterlimit="2.00000000000"
       d="M 3.60678,9.87925e-5 C 1.81899,0.0156556 0,1.77778 0,3.62118 c 0,1.84339 1.76511,3.60563 3.61168,3.60563 1.84656,0 3.60577,-1.79335 3.60577,-3.60563 0,-1.81229 -1.82288,-3.636638 -3.61067,-3.6210812075 z m 0,1.6729612075 c 1.07888,0 1.94685,0.86856 1.94685,1.94812 0,1.07956 -0.86797,1.9481 -1.94685,1.9481 -1.07886,0 -1.94686,-0.86854 -1.94686,-1.9481 0,-1.07956 0.868,-1.94812 1.94686,-1.94812 z"
       inkscape:connector-curvature="0"
       style="fill:#2c3e50;fill-rule:evenodd;stroke:#003bc3;stroke-width:0;stroke-linecap:square;stroke-linejoin:miter;stroke-miterlimit:2" />
    <path
       id="shape1"
       transform="translate(23.9444,23.8094)"
       stroke-miterlimit="2.00000000000"
       d="M 1.75208,0 0,0.365899 2.895,17.2129 C 3.01,15.321 3.55671,14.0255 4.53516,13.3266 z"
       inkscape:connector-curvature="0"
       style="fill:#2c3e50;fill-rule:evenodd;stroke:#003bc3;stroke-width:0;stroke-linecap:square;stroke-linejoin:miter;stroke-miterlimit:2" />
    <rect
       id="shape2"
       transform="translate(22.9664,15.238)"
       stroke-miterlimit="2.00000000000"
       width="1.9610876"
       height="4.3886003"
       rx="0.98054379"
       ry="1.0073068"
       x="0"
       y="0"
       style="fill:#2c3e50;fill-rule:evenodd;stroke:#003bc3;stroke-width:0;stroke-linecap:square;stroke-linejoin:miter;stroke-miterlimit:2" />
    <rect
       id="shape3"
       transform="translate(17.6214,32.6292)"
       stroke-miterlimit="2.00000000000"
       width="12.515334"
       height="0.90020764"
       x="0"
       y="0"
       style="fill:#2c3e50;fill-rule:evenodd;stroke:#003bc3;stroke-width:0;stroke-linecap:square;stroke-linejoin:miter;stroke-miterlimit:2" />
    <rect
       id="shape4"
       transform="translate(23.2506,31.308)"
       stroke-miterlimit="2.00000000000"
       width="1.2690742"
       height="3.4857237"
       rx="0.6345371"
       ry="0.53626519"
       x="0"
       y="0"
       style="fill:#2c3e50;fill-rule:evenodd;stroke:#003bc3;stroke-width:0;stroke-linecap:square;stroke-linejoin:miter;stroke-miterlimit:2" />
  </g>
</svg>
