<?xml version="1.0" encoding="UTF-8" standalone="no"?>
<!-- Created using Karbon, part of Calligra: http://www.calligra.org/karbon -->

<svg
   xmlns:dc="http://purl.org/dc/elements/1.1/"
   xmlns:cc="http://creativecommons.org/ns#"
   xmlns:rdf="http://www.w3.org/1999/02/22-rdf-syntax-ns#"
   xmlns:svg="http://www.w3.org/2000/svg"
   xmlns="http://www.w3.org/2000/svg"
   xmlns:sodipodi="http://sodipodi.sourceforge.net/DTD/sodipodi-0.dtd"
   xmlns:inkscape="http://www.inkscape.org/namespaces/inkscape"
   width="38.4pt"
   height="38.4pt"
   id="svg2"
   version="1.1"
   inkscape:version="0.48.4 r9939"
   sodipodi:docname="application-javascript.svg">
  <metadata
     id="metadata15">
    <rdf:RDF>
      <cc:Work
         rdf:about="">
        <dc:format>image/svg+xml</dc:format>
        <dc:type
           rdf:resource="http://purl.org/dc/dcmitype/StillImage" />
      </cc:Work>
    </rdf:RDF>
  </metadata>
  <sodipodi:namedview
     pagecolor="#ffffff"
     bordercolor="#666666"
     borderopacity="1"
     objecttolerance="10"
     gridtolerance="10"
     guidetolerance="10"
     inkscape:pageopacity="0"
     inkscape:pageshadow="2"
     inkscape:window-width="1680"
     inkscape:window-height="991"
     id="namedview13"
     showgrid="false"
     inkscape:zoom="4.9166667"
     inkscape:cx="-1.8305081"
     inkscape:cy="23.59322"
     inkscape:current-layer="svg2"
     inkscape:window-x="0"
     inkscape:window-y="-3"
     inkscape:window-maximized="1" />
  <defs
     id="defs4" />
  <path
     sodipodi:nodetypes="cccccc"
     style="fill:#f1c40f;fill-opacity:1"
     inkscape:connector-curvature="0"
     d="m 4.499996,5.6271117 0,36.7457773 39.000009,0 -0.2333,-36.7302071 -12.38435,-0.01557 z"
     id="rect4090" />
  <g
     style="fill:#ffffff"
     transform="matrix(1.1470591,0,0,0.91864444,9.1409482,16.753549)"
     id="logo">
    <g
       id="g2990"
       style="fill:#ffffff">
      <path
         id="j"
         transform="translate(0.852584,3.42314)"
         d="m 0,13.0348 2.80976,-1.6031 c 0.54207,0.9061 1.03518,1.6727 2.21794,1.6727 1.13374,0 1.84853,-0.4181 1.84853,-2.0444 l 0,-11.06 3.45027,0 0,11.106 c 0,3.369 -2.09471,4.9026 -5.15092,4.9026 C 2.41543,16.0086 0.813279,14.6609 0,13.0345"
         inkscape:connector-curvature="0"
         style="fill:#ffffff" />
      <path
         id="s"
         transform="translate(13.0532,3.23724)"
         d="m 0,12.8722 2.8094,-1.5336 c 0.73955,1.1387 1.70071,1.9751 3.40121,1.9751 1.42965,0 2.34128,-0.6739 2.34128,-1.6033 0,-1.1153 -0.93647,-1.5103 -2.51385,-2.16068 L 5.17566,9.20097 C 2.68628,8.20204 1.03496,6.94736 1.03496,4.29857 1.03496,1.85892 3.0066,0 6.08743,0 8.28089,0 9.8582,0.720367 10.9918,2.60243 L 8.30537,4.2288 C 7.71384,3.2298 7.07321,2.83483 6.08743,2.83483 c -1.01048,0 -1.65133,0.6041 -1.65133,1.39397 0,0.97592 0.64085,1.37095 2.11945,1.97512 l 0.86253,0.34847 c 2.93282,1.18504 4.58422,2.39316 4.58422,5.11151 0,2.9278 -2.43993,4.5309 -5.71775,4.5309 C 3.08061,16.1948 1.01033,14.7543 0,12.8722"
         inkscape:connector-curvature="0"
         style="fill:#ffffff" />
    </g>
  </g>
</svg>
