<?xml version="1.0" encoding="UTF-8" standalone="no"?>
<!-- Created using Karbon, part of Calligra: http://www.calligra.org/karbon -->

<svg
   xmlns:dc="http://purl.org/dc/elements/1.1/"
   xmlns:cc="http://creativecommons.org/ns#"
   xmlns:rdf="http://www.w3.org/1999/02/22-rdf-syntax-ns#"
   xmlns:svg="http://www.w3.org/2000/svg"
   xmlns="http://www.w3.org/2000/svg"
   xmlns:sodipodi="http://sodipodi.sourceforge.net/DTD/sodipodi-0.dtd"
   xmlns:inkscape="http://www.inkscape.org/namespaces/inkscape"
   width="38.4pt"
   height="38.4pt"
   id="svg2"
   version="1.1"
   inkscape:version="0.48.4 r9939"
   sodipodi:docname="application-vnd.scribus.svg">
  <metadata
     id="metadata15">
    <rdf:RDF>
      <cc:Work
         rdf:about="">
        <dc:format>image/svg+xml</dc:format>
        <dc:type
           rdf:resource="http://purl.org/dc/dcmitype/StillImage" />
        <dc:title />
      </cc:Work>
    </rdf:RDF>
  </metadata>
  <sodipodi:namedview
     pagecolor="#ffffff"
     bordercolor="#666666"
     borderopacity="1"
     objecttolerance="10"
     gridtolerance="10"
     guidetolerance="10"
     inkscape:pageopacity="0"
     inkscape:pageshadow="2"
     inkscape:window-width="1366"
     inkscape:window-height="709"
     id="namedview13"
     showgrid="false"
     inkscape:zoom="7.9404762"
     inkscape:cx="33.894384"
     inkscape:cy="20.896957"
     inkscape:current-layer="svg2"
     showguides="true"
     inkscape:guide-bbox="true"
     inkscape:window-x="0"
     inkscape:window-y="-3"
     inkscape:window-maximized="1">
    <sodipodi:guide
       orientation="0,1"
       position="24.813559,28.677966"
       id="guide2986" />
    <sodipodi:guide
       orientation="1,0"
       position="12.422605,18.121864"
       id="guide3019" />
    <sodipodi:guide
       orientation="1,0"
       position="35.486795,20.303612"
       id="guide3021" />
    <sodipodi:guide
       orientation="0,1"
       position="24.489005,10.864213"
       id="guide3023" />
  </sodipodi:namedview>
  <defs
     id="defs4" />
  <g
     id="layer1"
     transform="matrix(1.1470591,0,0,0.91864444,-3.5294177,1.9525339)"
     style="fill:#2c3e50;fill-opacity:1">
    <path
       id="rect4090"
       transform="translate(7,4)"
       d="M 0,0 0,40 34,40 33.79661,0.01694915 23,0 z"
       inkscape:connector-curvature="0"
       style="fill:#2c3e50;fill-opacity:1"
       sodipodi:nodetypes="cccccc" />
    <g
       id="logo"
       transform="translate(10.9749,16.1118)"
       style="fill:#2c3e50;fill-opacity:1" />
  </g>
  <g
     id="g3082"
     transform="matrix(0.73931747,0,0,0.81070128,-16.668867,-22.554584)">
    <path
       transform="matrix(0.06916233,0.04968085,-0.02993579,0.04167458,29.006594,-3.9642632)"
       d="m 696.8914,357.57834 c 0,39.96259 -32.71062,72.35868 -73.0612,72.35868 -40.35058,0 -73.0612,-32.39609 -73.0612,-72.35868 0,-39.9626 32.71062,-72.35868 73.0612,-72.35868 40.35058,0 73.0612,32.39608 73.0612,72.35868 z"
       sodipodi:ry="72.358681"
       sodipodi:rx="73.061195"
       sodipodi:cy="357.57834"
       sodipodi:cx="623.8302"
       id="path3813"
       style="fill:#999999;fill-rule:evenodd;stroke:#2c3e50;stroke-width:1.29167758999999993px;stroke-opacity:1"
       sodipodi:type="arc" />
    <path
       inkscape:connector-curvature="0"
       style="fill:#f39c12;fill-opacity:1"
       d="m 42.985838,73.802319 0.86298,-0.13884 c 0,0 2.123697,-3.375888 6.374875,-7.339142 4.251179,-3.963254 9.445249,-4.787645 9.445249,-4.787645 0,0 0.152685,-6.013574 1.395168,-9.515958 1.335693,-3.765133 4.144193,-6.856954 4.144193,-6.856954 0,0 -0.239462,-3.576298 -2.920377,-5.124126 -2.663545,-1.537798 -4.331211,-0.38648 -4.331211,-0.38648 0,0 -1.172129,3.066906 -3.638294,7.19719 -1.771661,2.967144 -4.642581,7.675512 -4.642581,7.675512 0,0 -2.252844,5.409416 -3.379389,8.620467 -1.126545,3.211052 -3.310613,10.655976 -3.310613,10.655976 z"
       id="path3817"
       sodipodi:nodetypes="cczcsczcsczc" />
    <path
       inkscape:transform-center-y="-4.194559"
       inkscape:transform-center-x="-15.21893"
       transform="matrix(0.04796144,0.02947173,-0.02947173,0.04796144,46.824069,14.385625)"
       d="m 453.82241,587.29956 c 0,15.51946 -4.24609,28.10046 -9.48391,28.10046 -5.23782,0 -9.4839,-12.581 -9.4839,-28.10046 0,-15.51945 4.24608,-28.10046 9.4839,-28.10046 5.23782,0 9.48391,12.58101 9.48391,28.10046 z"
       sodipodi:ry="28.100458"
       sodipodi:rx="9.4839048"
       sodipodi:cy="587.29956"
       sodipodi:cx="444.3385"
       id="path3825"
       style="fill:#4d4d4d;fill-rule:evenodd;stroke:#4d4d4d;stroke-width:1.29167759px;stroke-opacity:1"
       sodipodi:type="arc" />
    <path
       inkscape:connector-curvature="0"
       sodipodi:nodetypes="czc"
       id="path3827"
       d="m 50.425519,56.230147 c 0,0 -1.862361,3.152336 -3.649859,7.522272 -1.787497,4.369936 -3.427307,9.881327 -3.427307,9.881327"
       style="fill:none;stroke:#4d4d4d;stroke-width:0.16367899;stroke-opacity:1;stroke-dasharray:none" />
  </g>
</svg>
