<?xml version="1.0" encoding="UTF-8" standalone="no"?>
<!-- Created using Karbon, part of Calligra: http://www.calligra.org/karbon -->

<svg
   xmlns:dc="http://purl.org/dc/elements/1.1/"
   xmlns:cc="http://creativecommons.org/ns#"
   xmlns:rdf="http://www.w3.org/1999/02/22-rdf-syntax-ns#"
   xmlns:svg="http://www.w3.org/2000/svg"
   xmlns="http://www.w3.org/2000/svg"
   xmlns:sodipodi="http://sodipodi.sourceforge.net/DTD/sodipodi-0.dtd"
   xmlns:inkscape="http://www.inkscape.org/namespaces/inkscape"
   width="38.4pt"
   height="38.4pt"
   id="svg2"
   version="1.1"
   inkscape:version="0.48.4 r9939"
   sodipodi:docname="text-x-c++hdr.svg">
  <metadata
     id="metadata17">
    <rdf:RDF>
      <cc:Work
         rdf:about="">
        <dc:format>image/svg+xml</dc:format>
        <dc:type
           rdf:resource="http://purl.org/dc/dcmitype/StillImage" />
      </cc:Work>
    </rdf:RDF>
  </metadata>
  <sodipodi:namedview
     pagecolor="#ffffff"
     bordercolor="#666666"
     borderopacity="1"
     objecttolerance="10"
     gridtolerance="10"
     guidetolerance="10"
     inkscape:pageopacity="0"
     inkscape:pageshadow="2"
     inkscape:window-width="640"
     inkscape:window-height="480"
     id="namedview15"
     showgrid="false"
     inkscape:zoom="13.906433"
     inkscape:cx="19.071561"
     inkscape:cy="21.6742"
     inkscape:current-layer="svg2" />
  <defs
     id="defs4" />
  <g
     id="layer1"
     transform="matrix(1.1470591,0,0,0.91694783,-3.5294177,1.9901786)">
    <path
       id="rect4090"
       transform="translate(7,4)"
       d="M 0,0 0,40 34,40 34,-0.07401129 23,0 z"
       inkscape:connector-curvature="0"
       style="fill:#ecf0f1"
       sodipodi:nodetypes="cccccc" />
    <path
       id="shape0"
       transform="translate(13.1347,11.9364)"
       d="M 3.54749,9.73437 C 4.52445,8.10149 6.55701,6.90495 8.67621,7.18262 c 2.00009,0.10192 3.66749,1.49972 4.20939,3.18168 0.7992,2.2409 0.4892,4.6148 0.5529,6.928 0,2.3609 0,4.7218 0,7.0827 -1.1825,0 -2.365,0 -3.54748,0 C 9.87949,20.6849 9.91471,16.9941 9.87224,13.3045 9.79862,12.0135 9.51242,10.4128 8.03897,9.8224 6.47896,9.23124 4.64838,9.97656 3.83692,11.2451 c -0.47907,0.496 -0.22742,1.1677 -0.28943,1.7625 0,3.7891 0,7.5783 0,11.3674 -1.1825,0 -2.36499,0 -3.54749,0 C 0,16.25 0,8.125 0,0 c 1.18249,0 2.36499,0 3.54749,0 0,3.24479 0,6.48958 0,9.73438 z"
       inkscape:connector-curvature="0"
       style="fill:#a100e1" />
    <rect
       id="shape11"
       transform="matrix(0,1,-1,0,36.7019,22.0625)"
       stroke-miterlimit="2.00000000000"
       width="2.0183125"
       height="7.3117642"
       x="0"
       y="0"
       style="fill:#8e44ad;fill-rule:evenodd;stroke:#003bc3;stroke-width:0;stroke-linecap:square;stroke-linejoin:miter;stroke-miterlimit:2" />
    <rect
       id="shape111"
       transform="matrix(-1,0,0,-1,34.0203,26.6871)"
       stroke-miterlimit="2.00000000000"
       width="1.9573042"
       height="7.3052282"
       x="0"
       y="0"
       style="fill:#8e44ad;fill-rule:evenodd;stroke:#003bc3;stroke-width:0;stroke-linecap:square;stroke-linejoin:miter;stroke-miterlimit:2" />
    <rect
       id="shape112"
       transform="matrix(0,1,-1,0,36.7867,31.5006)"
       stroke-miterlimit="2.00000000000"
       width="2.0183125"
       height="7.3764048"
       x="0"
       y="0"
       style="fill:#8e44ad;fill-rule:evenodd;stroke:#003bc3;stroke-width:0;stroke-linecap:square;stroke-linejoin:miter;stroke-miterlimit:2" />
    <rect
       id="shape113"
       transform="matrix(-1,0,0,-1,34.0875,36.1284)"
       stroke-miterlimit="2.00000000000"
       width="1.9573042"
       height="7.3052282"
       x="0"
       y="0"
       style="fill:#8e44ad;fill-rule:evenodd;stroke:#003bc3;stroke-width:0;stroke-linecap:square;stroke-linejoin:miter;stroke-miterlimit:2" />
  </g>
</svg>
