<?xml version="1.0" encoding="UTF-8" standalone="no"?>
<!-- Created using Karbon, part of Calligra: http://www.calligra.org/karbon -->

<svg
   xmlns:dc="http://purl.org/dc/elements/1.1/"
   xmlns:cc="http://creativecommons.org/ns#"
   xmlns:rdf="http://www.w3.org/1999/02/22-rdf-syntax-ns#"
   xmlns:svg="http://www.w3.org/2000/svg"
   xmlns="http://www.w3.org/2000/svg"
   xmlns:sodipodi="http://sodipodi.sourceforge.net/DTD/sodipodi-0.dtd"
   xmlns:inkscape="http://www.inkscape.org/namespaces/inkscape"
   width="38.4pt"
   height="38.4pt"
   id="svg2"
   version="1.1"
   inkscape:version="0.48.4 r9939"
   sodipodi:docname="text-x-c++src.svg">
  <metadata
     id="metadata17">
    <rdf:RDF>
      <cc:Work
         rdf:about="">
        <dc:format>image/svg+xml</dc:format>
        <dc:type
           rdf:resource="http://purl.org/dc/dcmitype/StillImage" />
      </cc:Work>
    </rdf:RDF>
  </metadata>
  <sodipodi:namedview
     pagecolor="#ffffff"
     bordercolor="#666666"
     borderopacity="1"
     objecttolerance="10"
     gridtolerance="10"
     guidetolerance="10"
     inkscape:pageopacity="0"
     inkscape:pageshadow="2"
     inkscape:window-width="640"
     inkscape:window-height="480"
     id="namedview15"
     showgrid="false"
     inkscape:zoom="13.906433"
     inkscape:cx="34.053793"
     inkscape:cy="26.946278"
     inkscape:current-layer="svg2" />
  <defs
     id="defs4" />
  <g
     id="layer1"
     transform="matrix(1.1470591,0,0,0.91864444,-3.5294177,1.9525339)">
    <path
       id="rect4090"
       transform="translate(7,4)"
       d="M 0,0 0,40 34,40 33.928091,0.06980703 23,0 z"
       inkscape:connector-curvature="0"
       style="fill:#ecf0f1"
       sodipodi:nodetypes="cccccc" />
    <path
       id="c"
       transform="translate(11.5544,19.4869)"
       d="m 7.45375,14.0094 c 1.50221,0.0716 3.13555,-1.0299 3.17665,-2.6261 0.0223,-0.298 0.5466,-0.0815 0.7955,-0.1473 0.8413,0 1.6827,0 2.524,0 0.1884,1.6059 -0.7211,3.1707 -1.9601,4.1414 C 9.94988,17.0931 6.98583,17.3055 4.53268,16.4568 2.1806,15.6298 0.663672,13.3085 0.214097,10.9353 -0.0657145,9.38054 -0.0639435,7.77069 0.176707,6.21104 0.588982,3.76562 2.11878,1.34712 4.53268,0.486819 6.41265,-0.16627 8.54835,-0.179133 10.4073,0.550809 12.4238,1.3702 13.9581,3.36944 13.9898,5.57988 c 0.2193,0.5862 -0.1707,0.63749 -0.5967,0.57678 -0.9197,0 -1.8394,0 -2.7591,0 C 10.7041,4.50924 9.3058,2.93619 7.62873,2.9499 6.39419,2.86007 5.03751,3.38065 4.47685,4.54749 3.56233,6.23665 3.59078,8.23515 3.75448,10.0958 c 0.19712,1.335 0.63805,2.8849 1.9358,3.5443 0.54321,0.2745 1.15998,0.3693 1.76347,0.3693 z"
       inkscape:connector-curvature="0"
       style="fill:#27ae60" />
    <rect
       id="shape11"
       transform="matrix(0,1,-1,0,35.9027,22.389)"
       stroke-miterlimit="2.00000000000"
       width="2.0183125"
       height="7.3117642"
       x="0"
       y="0"
       style="fill:#27ae60;fill-rule:evenodd;stroke:#003bc3;stroke-width:0;stroke-linecap:square;stroke-linejoin:miter;stroke-miterlimit:2" />
    <rect
       id="shape111"
       transform="matrix(-1,0,0,-1,33.2211,27.0136)"
       stroke-miterlimit="2.00000000000"
       width="1.9573042"
       height="7.3052282"
       x="0"
       y="0"
       style="fill:#27ae60;fill-rule:evenodd;stroke:#003bc3;stroke-width:0;stroke-linecap:square;stroke-linejoin:miter;stroke-miterlimit:2" />
    <rect
       id="shape112"
       transform="matrix(0,1,-1,0,35.9875,31.8271)"
       stroke-miterlimit="2.00000000000"
       width="2.0183125"
       height="7.3764048"
       x="0"
       y="0"
       style="fill:#27ae60;fill-rule:evenodd;stroke:#003bc3;stroke-width:0;stroke-linecap:square;stroke-linejoin:miter;stroke-miterlimit:2" />
    <rect
       id="shape113"
       transform="matrix(-1,0,0,-1,33.2883,36.4549)"
       stroke-miterlimit="2.00000000000"
       width="1.9573042"
       height="7.3052282"
       x="0"
       y="0"
       style="fill:#27ae60;fill-rule:evenodd;stroke:#003bc3;stroke-width:0;stroke-linecap:square;stroke-linejoin:miter;stroke-miterlimit:2" />
  </g>
</svg>
