<?xml version="1.0" encoding="UTF-8" standalone="no"?>
<!-- Created using Karbon, part of Calligra: http://www.calligra.org/karbon -->

<svg
   xmlns:dc="http://purl.org/dc/elements/1.1/"
   xmlns:cc="http://creativecommons.org/ns#"
   xmlns:rdf="http://www.w3.org/1999/02/22-rdf-syntax-ns#"
   xmlns:svg="http://www.w3.org/2000/svg"
   xmlns="http://www.w3.org/2000/svg"
   xmlns:sodipodi="http://sodipodi.sourceforge.net/DTD/sodipodi-0.dtd"
   xmlns:inkscape="http://www.inkscape.org/namespaces/inkscape"
   width="38.4pt"
   height="38.4pt"
   id="svg2"
   version="1.1"
   inkscape:version="0.48.5 r10040"
   sodipodi:docname="gnome-mime-text-x-authors.svg">
  <metadata
     id="metadata12">
    <rdf:RDF>
      <cc:Work
         rdf:about="">
        <dc:format>image/svg+xml</dc:format>
        <dc:type
           rdf:resource="http://purl.org/dc/dcmitype/StillImage" />
        <dc:title />
      </cc:Work>
    </rdf:RDF>
  </metadata>
  <sodipodi:namedview
     pagecolor="#ffffff"
     bordercolor="#666666"
     borderopacity="1"
     objecttolerance="10"
     gridtolerance="10"
     guidetolerance="10"
     inkscape:pageopacity="0"
     inkscape:pageshadow="2"
     inkscape:window-width="1366"
     inkscape:window-height="712"
     id="namedview10"
     showgrid="false"
     inkscape:zoom="9.8333331"
     inkscape:cx="-1.3112082"
     inkscape:cy="20.297765"
     inkscape:current-layer="svg2"
     inkscape:window-x="-2"
     inkscape:window-y="-3"
     inkscape:window-maximized="1" />
  <defs
     id="defs4" />
  <g
     id="layer1"
     transform="matrix(1.1470591,0,0,0.91864444,-3.5294177,1.9525339)">
    <path
       id="rect4090"
       transform="translate(7,4)"
       d="M 0,0 0,40 34,40 33.928091,0.06980703 23,0 z"
       inkscape:connector-curvature="0"
       style="fill:#ecf0f1"
       sodipodi:nodetypes="cccccc" />
  </g>
  <rect
     style="fill:none;stroke:none"
     id="rect3262"
     width="38"
     height="38"
     x="5.0895691"
     y="6.0609756" />
  <path
     d="m 23.999996,13.749744 c -3.014482,0 -5.456175,2.4941 -5.456175,5.5632 0.0073,0.3518 0.0094,0.7445 0.04297,1.1821 -0.477064,0.2773 -0.540101,1.3648 -0.114565,2.4585 0.164089,0.4217 0.389637,0.7625 0.615788,1.0402 0.0076,0.01 0.02105,0.023 0.02865,0.031 0.05398,0.289 0.09224,0.5094 0.157526,0.8354 0.202245,0.6618 1.039824,1.9083 1.775762,2.9786 0.07339,0.8256 0.07606,1.6455 -0.07161,2.5846 -2.118283,1.9172 -7.540793,2.7748 -7.532673,4.7595 l -0.100246,0.7562 21.309156,0 -0.100245,-0.7565 c -0.0087,-1.6986 -5.454682,-2.7748 -7.546993,-4.7594 -0.08471,-0.7603 -0.100406,-1.5049 -0.05729,-2.2537 0.669105,-1.126 1.551863,-2.5769 1.775762,-3.3096 0.08229,-0.3795 0.122259,-0.6356 0.186168,-0.9614 0.197587,-0.2634 0.384009,-0.5707 0.529866,-0.9456 0.404109,-1.0387 0.354583,-2.0425 -0.05729,-2.3797 0.02879,-0.4513 0.05957,-0.8751 0.07161,-1.2608 3e-6,-3.0692 -2.441695,-5.5633 -5.456176,-5.5633 z"
     inkscape:connector-curvature="0"
     id="path3798-9"
     style="fill:#1a1a1a;fill-opacity:1;stroke:none;display:inline;enable-background:new" />
</svg>
