<?xml version="1.0" encoding="UTF-8" standalone="no"?>
<!-- Created using Karbon, part of Calligra: http://www.calligra.org/karbon -->

<svg
   xmlns:dc="http://purl.org/dc/elements/1.1/"
   xmlns:cc="http://creativecommons.org/ns#"
   xmlns:rdf="http://www.w3.org/1999/02/22-rdf-syntax-ns#"
   xmlns:svg="http://www.w3.org/2000/svg"
   xmlns="http://www.w3.org/2000/svg"
   xmlns:sodipodi="http://sodipodi.sourceforge.net/DTD/sodipodi-0.dtd"
   xmlns:inkscape="http://www.inkscape.org/namespaces/inkscape"
   width="38.4pt"
   height="38.4pt"
   id="svg2"
   version="1.1"
   inkscape:version="0.48.4 r9939"
   sodipodi:docname="video-x-generic.svg">
  <metadata
     id="metadata13">
    <rdf:RDF>
      <cc:Work
         rdf:about="">
        <dc:format>image/svg+xml</dc:format>
        <dc:type
           rdf:resource="http://purl.org/dc/dcmitype/StillImage" />
      </cc:Work>
    </rdf:RDF>
  </metadata>
  <sodipodi:namedview
     pagecolor="#ffffff"
     bordercolor="#666666"
     borderopacity="1"
     objecttolerance="10"
     gridtolerance="10"
     guidetolerance="10"
     inkscape:pageopacity="0"
     inkscape:pageshadow="2"
     inkscape:window-width="1680"
     inkscape:window-height="989"
     id="namedview11"
     showgrid="false"
     inkscape:zoom="12.837398"
     inkscape:cx="-1.4794987"
     inkscape:cy="26.815764"
     inkscape:window-x="-2"
     inkscape:window-y="-1"
     inkscape:window-maximized="1"
     inkscape:current-layer="svg2"
     showguides="false"
     inkscape:guide-bbox="true">
    <inkscape:grid
       type="xygrid"
       id="grid3764" />
    <sodipodi:guide
       orientation="1,0"
       position="7,14"
       id="guide3766" />
    <sodipodi:guide
       orientation="1,0"
       position="41,2"
       id="guide3768" />
    <sodipodi:guide
       orientation="0,1"
       position="27,4"
       id="guide3770" />
  </sodipodi:namedview>
  <defs
     id="defs4" />
  <g
     id="g3754"
     transform="matrix(1.1465264,0,0,1.003502,-3.4491073,-0.01867862)">
    <path
       d="m 7.2067356,5.8501998 0,36.2019902 33.4428744,0 L 40.510017,5.9120212 29.829869,5.8501998 z"
       id="path3756"
       inkscape:connector-curvature="0"
       style="fill:#e6e6e6;fill-opacity:1"
       sodipodi:nodetypes="cccccc" />
  </g>
  <path
     inkscape:connector-curvature="0"
     style="fill:#000000;fill-opacity:1;fill-rule:evenodd;stroke:none"
     d="m 4.9038921,5.8480196 0,36.3078634 8.6178399,0 0,-1.127934 c 0,-0.323811 0.610339,-0.583417 1.37386,-0.583417 l 18.266071,0 c 0.763519,0 1.405083,0.259606 1.405083,0.583417 l 0,1.127934 8.680284,0 0,-36.3078634 -8.680284,0 0,1.7307958 c 0,0.3238118 -0.641564,0.5834149 -1.405083,0.5834149 l -18.266071,0 c -0.763521,0 -1.37386,-0.2596031 -1.37386,-0.5834149 l 0,-1.7307958 -8.6178399,0 z m 8.5553929,3.4032527 21.045013,0 0,13.8658327 -21.045013,0 0,-13.8658327 z m -6.650727,0.2139194 3.840561,0 0,3.6366203 -3.840561,0 0,-3.6366203 z m 30.693249,0 3.809331,0 0,3.6366203 -3.809331,0 0,-3.6366203 z M 6.808558,22.164194 l 3.840561,0 0,3.617173 -3.840561,0 0,-3.617173 z m 30.693249,0 3.809331,0 0,3.617173 -3.809331,0 0,-3.617173 z m -24.042522,3.442149 21.045013,0 0,13.865831 -21.045013,0 0,-13.865831 z m -6.650727,9.276299 3.840561,0 0,3.636622 -3.840561,0 0,-3.636622 z m 30.693249,0 3.809331,0 0,3.636622 -3.809331,0 0,-3.636622 z"
     id="folderGlyph-6" />
  <rect
     style="fill:#000000;fill-opacity:1;fill-rule:evenodd;stroke:none"
     id="rect2988"
     width="23.866335"
     height="2.5525739"
     x="12.203216"
     y="7.7890625" />
  <rect
     y="38.21405"
     x="12.007577"
     height="2.5525739"
     width="23.866335"
     id="rect2990"
     style="fill:#000000;fill-opacity:1;fill-rule:evenodd;stroke:none" />
</svg>
