<?xml version="1.0" encoding="UTF-8" standalone="no"?>
<!-- Created with Inkscape (http://www.inkscape.org/) -->

<svg
   xmlns:dc="http://purl.org/dc/elements/1.1/"
   xmlns:cc="http://creativecommons.org/ns#"
   xmlns:rdf="http://www.w3.org/1999/02/22-rdf-syntax-ns#"
   xmlns:svg="http://www.w3.org/2000/svg"
   xmlns="http://www.w3.org/2000/svg"
   xmlns:sodipodi="http://sodipodi.sourceforge.net/DTD/sodipodi-0.dtd"
   xmlns:inkscape="http://www.inkscape.org/namespaces/inkscape"
   width="48"
   height="48"
   id="svg2"
   version="1.1"
   inkscape:version="0.48.4 r9939"
   sodipodi:docname="application-x-executable.svg">
  <defs
     id="defs4" />
  <sodipodi:namedview
     id="base"
     pagecolor="#ffffff"
     bordercolor="#666666"
     borderopacity="1.0"
     inkscape:pageopacity="0.0"
     inkscape:pageshadow="2"
     inkscape:zoom="8.1825095"
     inkscape:cx="33.641411"
     inkscape:cy="27.378687"
     inkscape:document-units="px"
     inkscape:current-layer="layer1"
     showgrid="false"
     fit-margin-top="0"
     fit-margin-left="0"
     fit-margin-right="0"
     fit-margin-bottom="0"
     inkscape:window-width="1366"
     inkscape:window-height="714"
     inkscape:window-x="0"
     inkscape:window-y="30"
     inkscape:window-maximized="1"
     showguides="true">
    <sodipodi:guide
       position="3.9999956,3.9999996"
       orientation="-40.000001,0"
       id="guide3274" />
    <sodipodi:guide
       position="3.9999956,44"
       orientation="0,39.999999"
       id="guide3276" />
    <sodipodi:guide
       position="43.999995,44"
       orientation="40.000001,0"
       id="guide3278" />
    <sodipodi:guide
       position="43.999995,3.9999996"
       orientation="0,-39.999999"
       id="guide3280" />
    <sodipodi:guide
       position="8.9999629,8.9999992"
       orientation="-30.000002,0"
       id="guide3284" />
    <sodipodi:guide
       position="8.9999629,39.000001"
       orientation="0,30.000002"
       id="guide3286" />
    <sodipodi:guide
       position="38.999965,39.000001"
       orientation="30.000002,0"
       id="guide3288" />
    <sodipodi:guide
       position="38.999965,8.9999992"
       orientation="0,-30.000002"
       id="guide3290" />
    <sodipodi:guide
       position="14.999925,14.999998"
       orientation="-18.000005,0"
       id="guide3296" />
    <sodipodi:guide
       position="14.999925,33.000002"
       orientation="0,18.000002"
       id="guide3298" />
    <sodipodi:guide
       position="32.999928,33.000002"
       orientation="18.000005,0"
       id="guide3300" />
    <sodipodi:guide
       position="32.999928,14.999998"
       orientation="0,-18.000002"
       id="guide3302" />
  </sodipodi:namedview>
  <metadata
     id="metadata7">
    <rdf:RDF>
      <cc:Work
         rdf:about="">
        <dc:format>image/svg+xml</dc:format>
        <dc:type
           rdf:resource="http://purl.org/dc/dcmitype/StillImage" />
        <dc:title />
      </cc:Work>
    </rdf:RDF>
  </metadata>
  <g
     inkscape:label="Capa 1"
     inkscape:groupmode="layer"
     id="layer1"
     transform="translate(-180.23661,-689.8125)">
    <rect
       style="fill:#5b6d71;fill-opacity:1;fill-rule:evenodd;stroke:none"
       id="rect3021"
       width="39.000011"
       height="36.745777"
       x="184.7366"
       y="695.43964" />
    <ellipse
       style="fill:none;stroke:none"
       id="path3264"
       cx="204.23523"
       cy="691.8125"
       rx="2.0013857"
       ry="2.0000615"
       d="m 206.23662,691.8125 c 0,1.1046 -0.89606,2.00006 -2.00139,2.00006 -1.10534,0 -2.00139,-0.89546 -2.00139,-2.00006 0,-1.1046 0.89605,-2.00006 2.00139,-2.00006 1.10533,0 2.00139,0.89546 2.00139,2.00006 z" />
    <ellipse
       ry="2.0000615"
       rx="2.0013857"
       cy="735.8125"
       cx="204.23523"
       id="ellipse3266"
       style="fill:none;stroke:none"
       d="m 206.23662,735.8125 c 0,1.1046 -0.89606,2.00006 -2.00139,2.00006 -1.10534,0 -2.00139,-0.89546 -2.00139,-2.00006 0,-1.1046 0.89605,-2.00006 2.00139,-2.00006 1.10533,0 2.00139,0.89546 2.00139,2.00006 z" />
    <ellipse
       ry="2.0000615"
       rx="2.0013857"
       cy="-226.23662"
       cx="713.8111"
       id="ellipse3268"
       style="fill:none;stroke:none"
       transform="matrix(0,1,-1,0,0,0)"
       d="m 715.81248,-226.23662 c 0,1.10461 -0.89605,2.00006 -2.00138,2.00006 -1.10534,0 -2.00139,-0.89545 -2.00139,-2.00006 0,-1.1046 0.89605,-2.00006 2.00139,-2.00006 1.10533,0 2.00138,0.89546 2.00138,2.00006 z" />
    <ellipse
       style="fill:none;stroke:none"
       id="ellipse3270"
       cx="713.8111"
       cy="-182.23662"
       rx="2.0013857"
       ry="2.0000615"
       transform="matrix(0,1,-1,0,0,0)"
       d="m 715.81248,-182.23662 c 0,1.10461 -0.89605,2.00006 -2.00138,2.00006 -1.10534,0 -2.00139,-0.89545 -2.00139,-2.00006 0,-1.1046 0.89605,-2.00006 2.00139,-2.00006 1.10533,0 2.00138,0.89546 2.00138,2.00006 z" />
    <ellipse
       ry="1.0000308"
       rx="1.0006928"
       cy="694.8125"
       cx="204.23592"
       id="ellipse3309"
       style="fill:none;stroke:none"
       d="m 205.23661,694.8125 c 0,0.5523 -0.44803,1.00003 -1.00069,1.00003 -0.55267,0 -1.0007,-0.44773 -1.0007,-1.00003 0,-0.5523 0.44803,-1.00003 1.0007,-1.00003 0.55266,0 1.00069,0.44773 1.00069,1.00003 z" />
    <ellipse
       style="fill:none;stroke:none"
       id="ellipse3311"
       cx="204.23592"
       cy="699.8125"
       rx="1.0006928"
       ry="1.0000308"
       d="m 205.23661,699.8125 c 0,0.5523 -0.44803,1.00003 -1.00069,1.00003 -0.55267,0 -1.0007,-0.44773 -1.0007,-1.00003 0,-0.5523 0.44803,-1.00003 1.0007,-1.00003 0.55266,0 1.00069,0.44773 1.00069,1.00003 z" />
    <ellipse
       style="fill:none;stroke:none"
       id="ellipse3316"
       cx="204.23592"
       cy="732.8125"
       rx="1.0006928"
       ry="1.0000308"
       d="m 205.23661,732.8125 c 0,0.5523 -0.44803,1.00003 -1.00069,1.00003 -0.55267,0 -1.0007,-0.44773 -1.0007,-1.00003 0,-0.5523 0.44803,-1.00003 1.0007,-1.00003 0.55266,0 1.00069,0.44773 1.00069,1.00003 z" />
    <ellipse
       ry="1.0000308"
       rx="1.0006928"
       cy="727.8125"
       cx="204.23592"
       id="ellipse3318"
       style="fill:none;stroke:none"
       d="m 205.23661,727.8125 c 0,0.5523 -0.44803,1.00003 -1.00069,1.00003 -0.55267,0 -1.0007,-0.44773 -1.0007,-1.00003 0,-0.5523 0.44803,-1.00003 1.0007,-1.00003 0.55266,0 1.00069,0.44773 1.00069,1.00003 z" />
    <g
       id="g3035"
       transform="matrix(0.78952144,0,0,0.78952144,42.987425,150.24227)">
      <path
         transform="translate(180.23661,689.8125)"
         id="ellipse3292"
         d="M 23.994141,9 C 20.066877,9.0002328 16.165567,10.617701 13.390625,13.394531 10.615683,16.171361 9,20.073326 9,24 c 0,3.926674 1.615683,7.828639 4.390625,10.605469 2.774942,2.77683 6.676252,4.394298 10.603516,4.394531 3.927263,2.33e-4 7.830891,-1.615734 10.609375,-4.392578 C 37.381999,31.830578 39,27.927112 39,24 39,20.072888 37.381999,16.169422 34.603516,13.392578 31.825032,10.615734 27.921404,8.9997672 23.994141,9 z m 0.002,6 c 2.356358,-1.4e-4 4.698144,0.970612 6.365234,2.636719 C 32.028418,19.302826 33,21.643732 33,24 33,26.356268 32.028418,28.697174 30.361328,30.363281 28.694238,32.029388 26.352452,33.00014 23.996094,33 21.639735,32.99986 19.297778,32.02938 17.632812,30.363281 15.967847,28.697183 15,26.356005 15,24 15,21.643995 15.967847,19.302817 17.632812,17.636719 19.297778,15.97062 21.639735,15.00014 23.996094,15 z"
         style="fill:#bdc3c7;fill-opacity:1;stroke:none"
         inkscape:connector-curvature="0" />
      <path
         sodipodi:nodetypes="ccccc"
         inkscape:connector-curvature="0"
         id="rect3313"
         d="m 202.7366,695.81293 3,0 2,2.99957 -7,0 z"
         style="fill:#bdc3c7;fill-opacity:1;fill-rule:evenodd;stroke:none" />
      <path
         style="fill:#bdc3c7;fill-opacity:1;fill-rule:evenodd;stroke:none"
         d="m 202.7366,731.8125 3,0 2,-2.99957 -7,0 z"
         id="path3330"
         inkscape:connector-curvature="0"
         sodipodi:nodetypes="ccccc" />
      <path
         style="fill:#bdc3c7;fill-opacity:1;fill-rule:evenodd;stroke:none"
         d="m 219.07487,703.51378 1.5,2.59808 -1.5977,3.23183 -3.5,-6.06217 z"
         id="path3334"
         inkscape:connector-curvature="0"
         sodipodi:nodetypes="ccccc" />
      <path
         sodipodi:nodetypes="ccccc"
         inkscape:connector-curvature="0"
         id="path3338"
         d="m 187.89833,721.51356 1.5,2.59808 3.5977,0.23227 -3.5,-6.06218 z"
         style="fill:#bdc3c7;fill-opacity:1;fill-rule:evenodd;stroke:none" />
      <path
         sodipodi:nodetypes="ccccc"
         inkscape:connector-curvature="0"
         id="path3342"
         d="m 220.57487,721.51356 -1.5,2.59808 -3.5977,0.23227 3.49999,-6.06218 z"
         style="fill:#bdc3c7;fill-opacity:1;fill-rule:evenodd;stroke:none" />
      <path
         style="fill:#bdc3c7;fill-opacity:1;fill-rule:evenodd;stroke:none"
         d="m 189.39833,703.51378 -1.5,2.59808 1.5977,3.23183 3.5,-6.06218 z"
         id="path3346"
         inkscape:connector-curvature="0"
         sodipodi:nodetypes="ccccc" />
    </g>
    <ellipse
       ry="1.0000308"
       rx="1.0006928"
       cy="166.03214"
       cx="720.29742"
       id="ellipse3324"
       style="fill:none;stroke:none"
       transform="matrix(0.5,0.8660254,-0.8660254,0.5,0,0)"
       d="m 721.29812,166.03214 c 0,0.5523 -0.44803,1.00003 -1.0007,1.00003 -0.55266,0 -1.00069,-0.44773 -1.00069,-1.00003 0,-0.55231 0.44803,-1.00004 1.00069,-1.00004 0.55267,0 1.0007,0.44773 1.0007,1.00004 z" />
    <ellipse
       style="fill:none;stroke:none"
       id="ellipse3326"
       cx="720.29742"
       cy="194.03214"
       rx="1.0006928"
       ry="1.0000308"
       transform="matrix(0.5,0.8660254,-0.8660254,0.5,0,0)"
       d="m 721.29812,194.03214 c 0,0.5523 -0.44803,1.00003 -1.0007,1.00003 -0.55266,0 -1.00069,-0.44773 -1.00069,-1.00003 0,-0.55231 0.44803,-1.00004 1.00069,-1.00004 0.55267,0 1.0007,0.44773 1.0007,1.00004 z" />
    <ellipse
       transform="matrix(0.5,-0.8660254,-0.8660254,-0.5,0,0)"
       style="fill:none;stroke:none"
       id="ellipse3348"
       cx="-516.06201"
       cy="-547.78009"
       rx="1.0006928"
       ry="1.0000308"
       d="m -515.06132,-547.78009 c 0,0.5523 -0.44802,1.00003 -1.00069,1.00003 -0.55267,0 -1.00069,-0.44773 -1.00069,-1.00003 0,-0.5523 0.44802,-1.00003 1.00069,-1.00003 0.55267,0 1.00069,0.44773 1.00069,1.00003 z" />
    <ellipse
       transform="matrix(0.5,-0.8660254,-0.8660254,-0.5,0,0)"
       ry="1.0000308"
       rx="1.0006928"
       cy="-519.78009"
       cx="-516.06201"
       id="ellipse3350"
       style="fill:none;stroke:none"
       d="m -515.06132,-519.78009 c 0,0.5523 -0.44802,1.00003 -1.00069,1.00003 -0.55267,0 -1.00069,-0.44773 -1.00069,-1.00003 0,-0.5523 0.44802,-1.00003 1.00069,-1.00003 0.55267,0 1.00069,0.44773 1.00069,1.00003 z" />
    <path
       style="fill:#ecf0f1;fill-opacity:1;fill-rule:evenodd;stroke:none"
       d="M 23.998047 18.5 C 21.118054 18.500171 18.5 21.120439 18.5 24 C 18.5 26.879561 21.118054 29.499829 23.998047 29.5 C 26.87804 29.500171 29.5 26.879882 29.5 24 C 29.5 21.120118 26.87804 18.499829 23.998047 18.5 z M 23.998047 19.5 C 26.354405 19.49986 28.5 21.643733 28.5 24 C 28.5 26.356267 26.354405 28.50014 23.998047 28.5 C 21.641689 28.49986 19.5 26.356004 19.5 24 C 19.5 21.643996 21.641689 19.50014 23.998047 19.5 z "
       transform="translate(180.23661,689.8125)"
       id="path3363" />
  </g>
</svg>
