<?xml version="1.0" encoding="UTF-8" standalone="no"?>
<!-- Created using Karbon, part of Calligra: http://www.calligra.org/karbon -->

<svg
   xmlns:dc="http://purl.org/dc/elements/1.1/"
   xmlns:cc="http://creativecommons.org/ns#"
   xmlns:rdf="http://www.w3.org/1999/02/22-rdf-syntax-ns#"
   xmlns:svg="http://www.w3.org/2000/svg"
   xmlns="http://www.w3.org/2000/svg"
   xmlns:sodipodi="http://sodipodi.sourceforge.net/DTD/sodipodi-0.dtd"
   xmlns:inkscape="http://www.inkscape.org/namespaces/inkscape"
   width="38.4pt"
   height="38.4pt"
   id="svg2"
   version="1.1"
   inkscape:version="0.48.4 r9939"
   sodipodi:docname="message-news.svg">
  <metadata
     id="metadata16">
    <rdf:RDF>
      <cc:Work
         rdf:about="">
        <dc:format>image/svg+xml</dc:format>
        <dc:type
           rdf:resource="http://purl.org/dc/dcmitype/StillImage" />
        <dc:title></dc:title>
      </cc:Work>
    </rdf:RDF>
  </metadata>
  <sodipodi:namedview
     pagecolor="#ffffff"
     bordercolor="#666666"
     borderopacity="1"
     objecttolerance="10"
     gridtolerance="10"
     guidetolerance="10"
     inkscape:pageopacity="0"
     inkscape:pageshadow="2"
     inkscape:window-width="1366"
     inkscape:window-height="709"
     id="namedview14"
     showgrid="false"
     inkscape:zoom="14.242005"
     inkscape:cx="20.317608"
     inkscape:cy="21.317197"
     inkscape:current-layer="svg2"
     inkscape:window-x="0"
     inkscape:window-y="-3"
     inkscape:window-maximized="1" />
  <defs
     id="defs4" />
  <g
     id="layer1"
     transform="matrix(1.1446952,0,0,0.91864444,-3.4777632,1.9525339)">
    <path
       id="rect4090"
       transform="translate(7,4)"
       d="M 0,0 0,40 34,40 34.070215,0.04648602 23,0 z"
       inkscape:connector-curvature="0"
       style="fill:#ecf0f1"
       sodipodi:nodetypes="cccccc" />
    <path
       id="path4254"
       transform="translate(12.5954,25.5971)"
       d="M 7.74402,0 0,7.50752 l 0,2.09226 22.3434,0 0,-2.09226 L 14.5994,0 11.1717,3.323 z"
       inkscape:connector-curvature="0"
       style="fill:#bfccd7;fill-rule:evenodd" />
    <path
       id="path4251"
       transform="translate(12.5954,15.2463)"
       d="M 0,0 0,2.77706 11.1717,13.8853 22.3434,2.77706 22.3434,0 z"
       inkscape:connector-curvature="0"
       style="fill:#bfccd7;fill-rule:evenodd" />
    <path
       id="path4238"
       transform="translate(12.5954,25.9758)"
       d="M 7.99792,0 0,7.95248 l 0,1.51476 22.3434,0 0,-1.51476 L 14.3455,0 11.1717,3.15575 z"
       inkscape:connector-curvature="0"
       style="fill:#f5fbfe;fill-rule:evenodd" />
    <path
       id="path4219"
       transform="translate(12.5954,15.2463)"
       d="M 0,0 0,1.51476 11.1717,12.623 22.3434,1.51476 22.3434,0 z"
       inkscape:connector-curvature="0"
       style="fill:#f5fbfe;fill-rule:evenodd" />
  </g>
  <rect
     style="fill:#bfccd7;fill-opacity:1;fill-rule:evenodd;stroke:none"
     id="rect3011"
     width="34.054192"
     height="4.2831044"
     x="6.9512687"
     y="23.354593" />
</svg>
