<?xml version="1.0" encoding="UTF-8" standalone="no"?>
<!-- Created using Karbon, part of Calligra: http://www.calligra.org/karbon -->

<svg
   xmlns:dc="http://purl.org/dc/elements/1.1/"
   xmlns:cc="http://creativecommons.org/ns#"
   xmlns:rdf="http://www.w3.org/1999/02/22-rdf-syntax-ns#"
   xmlns:svg="http://www.w3.org/2000/svg"
   xmlns="http://www.w3.org/2000/svg"
   xmlns:xlink="http://www.w3.org/1999/xlink"
   xmlns:sodipodi="http://sodipodi.sourceforge.net/DTD/sodipodi-0.dtd"
   xmlns:inkscape="http://www.inkscape.org/namespaces/inkscape"
   width="38.4pt"
   height="38.4pt"
   id="svg2"
   version="1.1"
   inkscape:version="0.48.4 r9939"
   sodipodi:docname="libreoffice-extension.svg">
  <metadata
     id="metadata15">
    <rdf:RDF>
      <cc:Work
         rdf:about="">
        <dc:format>image/svg+xml</dc:format>
        <dc:type
           rdf:resource="http://purl.org/dc/dcmitype/StillImage" />
        <dc:title />
      </cc:Work>
    </rdf:RDF>
  </metadata>
  <sodipodi:namedview
     pagecolor="#ffffff"
     bordercolor="#666666"
     borderopacity="1"
     objecttolerance="10"
     gridtolerance="10"
     guidetolerance="10"
     inkscape:pageopacity="0"
     inkscape:pageshadow="2"
     inkscape:window-width="640"
     inkscape:window-height="480"
     id="namedview13"
     showgrid="false"
     inkscape:zoom="8.7149022"
     inkscape:cx="26.860509"
     inkscape:cy="13.887882"
     inkscape:current-layer="svg2"
     showguides="true"
     inkscape:guide-bbox="true">
    <sodipodi:guide
       orientation="0,1"
       position="8.7206946,37.062952"
       id="guide4186" />
    <sodipodi:guide
       orientation="1,0"
       position="11.474598,48.193312"
       id="guide4188" />
    <sodipodi:guide
       orientation="0,1"
       position="52.324167,10.900868"
       id="guide4190" />
    <sodipodi:guide
       orientation="1,0"
       position="36.489222,10.900868"
       id="guide4192" />
  </sodipodi:namedview>
  <defs
     id="defs4">
    <linearGradient
       id="linearGradient3856">
      <stop
         id="stop3858"
         style="stop-color:#b3b3b3;stop-opacity:1"
         offset="0" />
      <stop
         id="stop3860"
         style="stop-color:#e6e6e6;stop-opacity:1"
         offset="1" />
    </linearGradient>
    <linearGradient
       id="linearGradient3914">
      <stop
         id="stop3916"
         style="stop-color:#000000;stop-opacity:1"
         offset="0" />
      <stop
         id="stop3918"
         style="stop-color:#000000;stop-opacity:0"
         offset="1" />
    </linearGradient>
    <linearGradient
       id="linearGradient3873">
      <stop
         id="stop3875"
         style="stop-color:#dfdfdf;stop-opacity:1"
         offset="0" />
      <stop
         id="stop3877"
         style="stop-color:#fefefe;stop-opacity:1"
         offset="1" />
    </linearGradient>
    <linearGradient
       id="linearGradient3177">
      <stop
         id="stop3179"
         style="stop-color:#b3b3b3;stop-opacity:1"
         offset="0" />
      <stop
         id="stop3181"
         style="stop-color:#e6e6e6;stop-opacity:1"
         offset="1" />
    </linearGradient>
    <linearGradient
       id="linearGradient3184">
      <stop
         id="stop3186"
         style="stop-color:#000000;stop-opacity:1"
         offset="0" />
      <stop
         id="stop3188"
         style="stop-color:#000000;stop-opacity:0"
         offset="1" />
    </linearGradient>
    <linearGradient
       x1="48"
       y1="80"
       x2="48"
       y2="16"
       id="linearGradient3879"
       xlink:href="#linearGradient3873"
       gradientUnits="userSpaceOnUse" />
    <linearGradient
       id="linearGradient3191">
      <stop
         id="stop3193"
         style="stop-color:#dfdfdf;stop-opacity:1"
         offset="0" />
      <stop
         id="stop3195"
         style="stop-color:#fefefe;stop-opacity:1"
         offset="1" />
    </linearGradient>
    <radialGradient
       cx="47.999981"
       cy="47.999424"
       r="34.937546"
       fx="47.999981"
       fy="47.999424"
       id="radialGradient3920"
       xlink:href="#linearGradient3914"
       gradientUnits="userSpaceOnUse"
       gradientTransform="matrix(1.3452582,-3.8835319e-8,3.3050848e-8,1.1448837,-16.572388,-6.9543292)" />
    <linearGradient
       id="linearGradient3198">
      <stop
         id="stop3200"
         style="stop-color:#000000;stop-opacity:1"
         offset="0" />
      <stop
         id="stop3202"
         style="stop-color:#000000;stop-opacity:0"
         offset="1" />
    </linearGradient>
    <linearGradient
       inkscape:collect="always"
       xlink:href="#linearGradient3856-2"
       id="linearGradient3162-3"
       gradientUnits="userSpaceOnUse"
       x1="32"
       y1="88"
       x2="32"
       y2="8" />
    <linearGradient
       id="linearGradient3856-2">
      <stop
         id="stop3858-8"
         style="stop-color:#b3b3b3;stop-opacity:1"
         offset="0" />
      <stop
         id="stop3860-8"
         style="stop-color:#e6e6e6;stop-opacity:1"
         offset="1" />
    </linearGradient>
    <radialGradient
       inkscape:collect="always"
       xlink:href="#linearGradient3914-3"
       id="radialGradient3164-7"
       gradientUnits="userSpaceOnUse"
       gradientTransform="matrix(1.3452582,-3.8835319e-8,3.3050848e-8,1.1448837,-16.572388,-6.9543292)"
       cx="47.999981"
       cy="47.999424"
       fx="47.999981"
       fy="47.999424"
       r="34.937546" />
    <linearGradient
       id="linearGradient3914-3">
      <stop
         id="stop3916-8"
         style="stop-color:#000000;stop-opacity:1"
         offset="0" />
      <stop
         id="stop3918-4"
         style="stop-color:#000000;stop-opacity:0"
         offset="1" />
    </linearGradient>
    <linearGradient
       inkscape:collect="always"
       xlink:href="#linearGradient3873-4"
       id="linearGradient3166-7"
       gradientUnits="userSpaceOnUse"
       x1="48"
       y1="80"
       x2="48"
       y2="16" />
    <linearGradient
       id="linearGradient3873-4">
      <stop
         id="stop3875-3"
         style="stop-color:#dfdfdf;stop-opacity:1"
         offset="0" />
      <stop
         id="stop3877-9"
         style="stop-color:#fefefe;stop-opacity:1"
         offset="1" />
    </linearGradient>
    <linearGradient
       inkscape:collect="always"
       xlink:href="#linearGradient3856-2"
       id="linearGradient3168-6"
       gradientUnits="userSpaceOnUse"
       x1="32"
       y1="88"
       x2="32"
       y2="8" />
    <linearGradient
       id="linearGradient3177-8">
      <stop
         id="stop3179-0"
         style="stop-color:#b3b3b3;stop-opacity:1"
         offset="0" />
      <stop
         id="stop3181-4"
         style="stop-color:#e6e6e6;stop-opacity:1"
         offset="1" />
    </linearGradient>
    <radialGradient
       inkscape:collect="always"
       xlink:href="#linearGradient3914-3"
       id="radialGradient3170-8"
       gradientUnits="userSpaceOnUse"
       gradientTransform="matrix(1.3452582,-3.8835319e-8,3.3050848e-8,1.1448837,-16.572388,-6.9543292)"
       cx="47.999981"
       cy="47.999424"
       fx="47.999981"
       fy="47.999424"
       r="34.937546" />
    <linearGradient
       id="linearGradient3184-9">
      <stop
         id="stop3186-9"
         style="stop-color:#000000;stop-opacity:1"
         offset="0" />
      <stop
         id="stop3188-1"
         style="stop-color:#000000;stop-opacity:0"
         offset="1" />
    </linearGradient>
    <linearGradient
       x1="48"
       y1="80"
       x2="48"
       y2="16"
       id="linearGradient3879-9"
       xlink:href="#linearGradient3873-4"
       gradientUnits="userSpaceOnUse" />
    <linearGradient
       id="linearGradient3191-8">
      <stop
         id="stop3193-5"
         style="stop-color:#dfdfdf;stop-opacity:1"
         offset="0" />
      <stop
         id="stop3195-6"
         style="stop-color:#fefefe;stop-opacity:1"
         offset="1" />
    </linearGradient>
    <radialGradient
       cx="47.999981"
       cy="47.999424"
       r="34.937546"
       fx="47.999981"
       fy="47.999424"
       id="radialGradient3920-7"
       xlink:href="#linearGradient3914-3"
       gradientUnits="userSpaceOnUse"
       gradientTransform="matrix(1.3452582,-3.8835319e-8,3.3050848e-8,1.1448837,-16.572388,-6.9543292)" />
    <linearGradient
       id="linearGradient3198-1">
      <stop
         id="stop3200-2"
         style="stop-color:#000000;stop-opacity:1"
         offset="0" />
      <stop
         id="stop3202-2"
         style="stop-color:#000000;stop-opacity:0"
         offset="1" />
    </linearGradient>
  </defs>
  <g
     id="layer1"
     style="fill:#4d4d4d;fill-opacity:1"
     transform="matrix(1.1470591,0,0,0.91864444,-3.5294177,1.9525339)">
    <path
       id="rect4090"
       transform="translate(7,4)"
       d="M 0,0 0,40 34,40 34,0.06980703 23,0 z"
       inkscape:connector-curvature="0"
       style="fill:#4d4d4d;fill-opacity:1"
       sodipodi:nodetypes="cccccc" />
  </g>
  <g
     transform="matrix(2.6415533,-1.8287422,2.1876085,2.2082197,-29.297691,19.492468)"
     id="g27"
     style="stroke:#ffffff;stroke-width:0.79722613;stroke-miterlimit:4;stroke-opacity:1;stroke-dasharray:none">
    <g
       style="fill:#19aeff;stroke:#ffffff;stroke-width:6.33893633;stroke-miterlimit:4;stroke-opacity:1;stroke-dasharray:none"
       transform="matrix(0.12565,-0.0012861,0.0012838,0.12587,26.584,7.6481)"
       id="g37" />
  </g>
  <g
     id="layer6"
     style="display:inline"
     transform="matrix(0.34970647,0,0,0.36555512,7.3107446,6.4140715)">
    <path
       d="m 14,12.03125 c -1.155927,0 -1.96875,0.812823 -1.96875,1.96875 l 0,9 0,33 0,17 0,8.28125 0,0.71875 c 0,1.077732 0.717552,1.836973 1.75,1.9375 0.07491,0.0073 0.140555,0.03125 0.21875,0.03125 l 5,0 58,0 5,0 c 0.07224,0 0.1493,-0.0086 0.21875,-0.03125 1.032448,-0.100527 1.75,-0.859768 1.75,-1.9375 l 0,-0.71875 0,-8.28125 0,-17 0,-16.0625 C 74.652678,30.64918 65.364507,21.333257 56.0625,12.03125 l -41.34375,0 -0.71875,0 z"
       inkscape:connector-curvature="0"
       id="path3846"
       style="fill:url(#linearGradient3162-3);fill-opacity:1;fill-rule:nonzero;stroke:none;display:inline" />
    <path
       d="M 17.90625,17.0625 C 17.446299,17.10552 17.057,17.538075 17.0625,18 l 0,9 0,42 0,9 c -0.0037,0.491884 0.445616,0.941233 0.9375,0.9375 l 5,0 55,0 C 78.491884,78.9412 78.941233,78.491884 78.9375,78 l 0,-9 0,-27.40625 C 78.9348,41.349509 78.83124,41.10791 78.65625,40.9375 L 55.0625,17.34375 C 54.89209,17.16876 54.650491,17.065218 54.40625,17.0625 L 18,17.0625 c -0.03122,-0.0016 -0.06253,-0.0016 -0.09375,0 z"
       inkscape:connector-curvature="0"
       id="path3910"
       style="opacity:0.6;fill:url(#radialGradient3164-7);fill-opacity:1;fill-rule:nonzero;stroke:none;display:inline" />
    <path
       d="m 18,18 0,9 0,42 0,9 5,0 55,0 0,-9 L 78,41.59375 54.40625,18 z"
       inkscape:connector-curvature="0"
       id="path3868"
       style="fill:url(#linearGradient3166-7);fill-opacity:1;fill-rule:nonzero;stroke:none;display:inline" />
    <path
       d="m 18,18 0,9 0,42 0,9 5,0 55,0 0,-9 L 78,41.59375 54.40625,18 z m 1,1 35.03125,0 L 77,41.96875 77,69 l 0,8 -54,0 -4,0 0,-8 0,-42 z"
       inkscape:connector-curvature="0"
       id="path3882"
       style="opacity:0.7;fill:#ffffff;fill-opacity:1;fill-rule:nonzero;stroke:none;display:inline" />
    <path
       d="m 14,12.03125 c -1.155927,0 -1.96875,0.812823 -1.96875,1.96875 l 0,9 0,33 0,17 0,8.28125 0,0.71875 c 0,1.077732 0.717552,1.836973 1.75,1.9375 0.07491,0.0073 0.140555,0.03125 0.21875,0.03125 l 5,0 58,0 5,0 c 0.07224,0 0.1493,-0.0086 0.21875,-0.03125 1.032448,-0.100527 1.75,-0.859768 1.75,-1.9375 l 0,-0.71875 0,-8.28125 0,-17 0,-16.0625 C 74.652678,30.64918 65.364507,21.333257 56.0625,12.03125 l -41.34375,0 -0.71875,0 z M 14,13 l 0.71875,0 40.9375,0 C 64.769843,22.114133 73.870942,31.240801 83,40.34375 L 83,56 83,73 83,81.28125 83,82 c 0,0.648416 -0.267049,0.909555 -0.875,0.96875 A 0.96731774,0.96731774 0 0 0 82,83 l -5,0 -58,0 -5,0 c 0.119302,0 0.09888,-0.0094 -0.125,-0.03125 C 13.267049,82.909555 13,82.648416 13,82 L 13,81.28125 13,73 13,56 13,23 13,14 c 0,-0.702508 0.297492,-1 1,-1 z"
       inkscape:connector-curvature="0"
       id="path3952"
       style="opacity:0.1;fill:#000000;fill-opacity:1;fill-rule:nonzero;stroke:none;display:inline" />
    <path
       d="m 14,12.03125 c -1.155927,0 -1.96875,0.812823 -1.96875,1.96875 l 0,1 c 0,-1.155927 0.812823,-1.96875 1.96875,-1.96875 l 0.71875,0 41.34375,0 c 9.302007,9.302007 18.590178,18.61793 27.90625,27.90625 l 0,-1 C 74.652678,30.64918 65.364507,21.333257 56.0625,12.03125 l -41.34375,0 -0.71875,0 z"
       inkscape:connector-curvature="0"
       id="path3851"
       style="opacity:0.2;fill:#000000;fill-opacity:1;fill-rule:nonzero;stroke:none;display:inline" />
    <path
       d="m 14,12.03125 c -1.155927,0 -1.96875,0.812823 -1.96875,1.96875 l 0,9 0,33 0,17 0,8.28125 0,0.71875 c 0,1.077732 0.717552,1.836973 1.75,1.9375 0.07491,0.0073 0.140555,0.03125 0.21875,0.03125 l 5,0 58,0 5,0 c 0.07224,0 0.1493,-0.0086 0.21875,-0.03125 1.032448,-0.100527 1.75,-0.859768 1.75,-1.9375 l 0,-0.71875 0,-8.28125 0,-17 0,-16.0625 C 74.652678,30.64918 65.364507,21.333257 56.0625,12.03125 l -41.34375,0 -0.71875,0 z"
       inkscape:connector-curvature="0"
       id="path3982"
       style="fill:url(#linearGradient3168-6);fill-opacity:1;fill-rule:nonzero;stroke:none;display:inline" />
    <path
       d="M 17.90625,17.0625 C 17.446299,17.10552 17.057,17.538075 17.0625,18 l 0,9 0,42 0,9 c -0.0037,0.491884 0.445616,0.941233 0.9375,0.9375 l 5,0 55,0 C 78.491884,78.9412 78.941233,78.491884 78.9375,78 l 0,-9 0,-27.40625 C 78.9348,41.349509 78.83124,41.10791 78.65625,40.9375 L 55.0625,17.34375 C 54.89209,17.16876 54.650491,17.065218 54.40625,17.0625 L 18,17.0625 c -0.03122,-0.0016 -0.06253,-0.0016 -0.09375,0 z"
       inkscape:connector-curvature="0"
       id="path3984"
       style="opacity:0.6;fill:url(#radialGradient3170-8);fill-opacity:1;fill-rule:nonzero;stroke:none;display:inline" />
    <path
       d="m 18,18 0,9 0,42 0,9 5,0 55,0 0,-9 L 78,41.59375 54.40625,18 z"
       inkscape:connector-curvature="0"
       id="path3986"
       style="fill:url(#linearGradient3879-9);fill-opacity:1;fill-rule:nonzero;stroke:none;display:inline" />
    <path
       d="m 18,18 0,9 0,42 0,9 5,0 55,0 0,-9 L 78,41.59375 54.40625,18 z m 1,1 35.03125,0 L 77,41.96875 77,69 l 0,8 -54,0 -4,0 0,-8 0,-42 z"
       inkscape:connector-curvature="0"
       id="path3988"
       style="opacity:0.7;fill:#ffffff;fill-opacity:1;fill-rule:nonzero;stroke:none;display:inline" />
    <path
       d="m 14,12.03125 c -1.155927,0 -1.96875,0.812823 -1.96875,1.96875 l 0,9 0,33 0,17 0,8.28125 0,0.71875 c 0,1.077732 0.717552,1.836973 1.75,1.9375 0.07491,0.0073 0.140555,0.03125 0.21875,0.03125 l 5,0 58,0 5,0 c 0.07224,0 0.1493,-0.0086 0.21875,-0.03125 1.032448,-0.100527 1.75,-0.859768 1.75,-1.9375 l 0,-0.71875 0,-8.28125 0,-17 0,-16.0625 C 74.652678,30.64918 65.364507,21.333257 56.0625,12.03125 l -41.34375,0 -0.71875,0 z M 14,13 l 0.71875,0 40.9375,0 C 64.769843,22.114133 73.870942,31.240801 83,40.34375 L 83,56 83,73 83,81.28125 83,82 c 0,0.648416 -0.267049,0.909555 -0.875,0.96875 A 0.96731774,0.96731774 0 0 0 82,83 l -5,0 -58,0 -5,0 c 0.119302,0 0.09888,-0.0094 -0.125,-0.03125 C 13.267049,82.909555 13,82.648416 13,82 L 13,81.28125 13,73 13,56 13,23 13,14 c 0,-0.702508 0.297492,-1 1,-1 z"
       inkscape:connector-curvature="0"
       id="path3990"
       style="opacity:0.1;fill:#000000;fill-opacity:1;fill-rule:nonzero;stroke:none;display:inline" />
    <path
       d="m 14,12.03125 c -1.155927,0 -1.96875,0.812823 -1.96875,1.96875 l 0,1 c 0,-1.155927 0.812823,-1.96875 1.96875,-1.96875 l 0.71875,0 41.34375,0 c 9.302007,9.302007 18.590178,18.61793 27.90625,27.90625 l 0,-1 C 74.652678,30.64918 65.364507,21.333257 56.0625,12.03125 l -41.34375,0 -0.71875,0 z"
       inkscape:connector-curvature="0"
       id="path3992"
       style="opacity:0.2;fill:#000000;fill-opacity:1;fill-rule:nonzero;stroke:none;display:inline" />
    <path
       d="m 14,12.03125 c -1.155927,0 -1.96875,0.812823 -1.96875,1.96875 l 0,9 0,33 0,17 0,8.28125 0,0.71875 c 0,1.077732 0.717552,1.836973 1.75,1.9375 0.07491,0.0073 0.140555,0.03125 0.21875,0.03125 l 5,0 58,0 5,0 c 0.07224,0 0.1493,-0.0086 0.21875,-0.03125 1.032448,-0.100527 1.75,-0.859768 1.75,-1.9375 l 0,-0.71875 0,-8.28125 0,-17 0,-16.0625 C 74.652678,30.64918 65.364507,21.333257 56.0625,12.03125 l -41.34375,0 -0.71875,0 z"
       inkscape:connector-curvature="0"
       id="path3994"
       style="fill:#ffffff;fill-opacity:1;fill-rule:nonzero;stroke:none;display:inline" />
    <path
       d="M 17.90625,17.0625 C 17.446299,17.10552 17.057,17.538075 17.0625,18 l 0,9 0,42 0,9 c -0.0037,0.491884 0.445616,0.941233 0.9375,0.9375 l 5,0 55,0 C 78.491884,78.9412 78.941233,78.491884 78.9375,78 l 0,-9 0,-27.40625 C 78.9348,41.349509 78.83124,41.10791 78.65625,40.9375 L 55.0625,17.34375 C 54.89209,17.16876 54.650491,17.065218 54.40625,17.0625 L 18,17.0625 c -0.03122,-0.0016 -0.06253,-0.0016 -0.09375,0 z"
       inkscape:connector-curvature="0"
       id="path3996"
       style="opacity:0.6;fill:url(#radialGradient3920-7);fill-opacity:1;fill-rule:nonzero;stroke:none;display:inline" />
    <path
       d="m 12.767431,12.930949 0,10.447132 0,48.753285 0,10.447133 5.817589,0 63.993478,0 0,-10.447133 0,-31.812969 L 55.12675,12.930949 z"
       inkscape:connector-curvature="0"
       id="path3998"
       style="fill:#ffffff;fill-opacity:1;fill-rule:nonzero;stroke:none;display:inline" />
  </g>
  <text
     xml:space="preserve"
     style="font-size:9.85645485px;font-style:normal;font-variant:normal;font-weight:normal;font-stretch:normal;line-height:125%;letter-spacing:0px;word-spacing:0px;fill:#ffffff;fill-opacity:1;stroke:none;display:inline;font-family:Droid Sans Japanese;-inkscape-font-specification:Droid Sans Japanese"
     x="18.084639"
     y="22.654121"
     id="text3245"
     sodipodi:linespacing="125%"
     transform="scale(0.85930097,1.1637366)"><tspan
       sodipodi:role="line"
       id="tspan3247"
       x="18.084639"
       y="22.654121">x+y</tspan></text>
  <g
     id="layer4"
     transform="matrix(0.20987112,0,0,0.20537676,9.5982907,11.113408)"
     style="fill:#4d4d4d;fill-opacity:1;display:inline">
    <path
       d="m 48.5,17 c -3.589851,0 -6.5,2.014719 -6.5,4.5 0.10443,0.9272 0.690589,2.098034 1,2.5 1.5,2 1.5,3.25 1.125,4 L 32,28 c -2.216,0 -4,1.784 -4,4 l 0,10.125 C 28.75,42.5 30,42.5 32,41 c 0.401966,-0.309411 1.5728,-0.89557 2.5,-1 2.485281,0 4.5,2.910149 4.5,6.5 C 39,50.089851 36.985281,53 34.5,53 33.737238,52.98708 32.577629,52.304895 32,52 30,50.5 28.75,50.5 28,50.875 L 28,64 c 0,2.216 1.784,4 4,4 l 16.125,0 C 48.5,67.25 48.5,66 47,64 46.690589,63.598034 46.10443,62.4272 46,61.5 46,59.014719 48.910149,57 52.5,57 c 3.589851,0 6.5,2.014719 6.5,4.5 -0.01292,0.762762 -0.695105,1.922371 -1,2.5 -1.5,2 -1.5,3.25 -1.125,4 L 64,68 c 2.216,0 4,-1.784 4,-4 L 68,52.875 C 68.75,52.5 70,52.5 72,54 c 0.577629,0.304895 1.737238,0.987081 2.5,1 2.485281,0 4.5,-2.910149 4.5,-6.5 0,-3.589851 -2.014719,-6.5 -4.5,-6.5 -0.9272,0.10443 -2.098034,0.690589 -2.5,1 -2,1.5 -3.25,1.5 -4,1.125 L 68,32 c 0,-2.216 -1.784,-4 -4,-4 L 52.875,28 C 52.5,27.25 52.5,26 54,24 54.304895,23.422371 54.987081,22.262762 55,21.5 55,19.014719 52.089851,17 48.5,17 z"
       inkscape:connector-curvature="0"
       id="rect4096"
       style="color:#000000;fill:#4d4d4d;fill-opacity:1;fill-rule:nonzero;stroke:none;stroke-width:2;marker:none;visibility:visible;display:inline;overflow:visible;enable-background:accumulate" />
    <path
       d="m 48.5,17 c -3.589851,0 -6.5,2.014719 -6.5,4.5 0.10443,0.9272 0.690589,2.098034 1,2.5 1.5,2 1.5,3.25 1.125,4 L 32,28 c -2.216,0 -4,1.784 -4,4 l 0,10.125 C 28.75,42.5 30,42.5 32,41 c 0.401966,-0.309411 1.5728,-0.89557 2.5,-1 2.485281,0 4.5,2.910149 4.5,6.5 C 39,50.089851 36.985281,53 34.5,53 33.737238,52.98708 32.577629,52.304895 32,52 30,50.5 28.75,50.5 28,50.875 L 28,64 c 0,2.216 1.784,4 4,4 l 16.125,0 C 48.5,67.25 48.5,66 47,64 46.690589,63.598034 46.10443,62.4272 46,61.5 46,59.014719 48.910149,57 52.5,57 c 3.589851,0 6.5,2.014719 6.5,4.5 -0.01292,0.762762 -0.695105,1.922371 -1,2.5 -1.5,2 -1.5,3.25 -1.125,4 L 64,68 c 2.216,0 4,-1.784 4,-4 L 68,52.875 C 68.75,52.5 70,52.5 72,54 c 0.577629,0.304895 1.737238,0.987081 2.5,1 2.485281,0 4.5,-2.910149 4.5,-6.5 0,-3.589851 -2.014719,-6.5 -4.5,-6.5 -0.9272,0.10443 -2.098034,0.690589 -2.5,1 -2,1.5 -3.25,1.5 -4,1.125 L 68,32 c 0,-2.216 -1.784,-4 -4,-4 L 52.875,28 C 52.5,27.25 52.5,26 54,24 54.304895,23.422371 54.987081,22.262762 55,21.5 55,19.014719 52.089851,17 48.5,17 z m 0,1.9375 c 1.429906,0 2.705621,0.450045 3.5,1 0.779485,0.539643 1.052518,1.05682 1.0625,1.53125 0.0084,-0.01462 -6.02e-4,4.63e-4 0,0.03125 -0.02887,0.06517 -0.110883,0.265334 -0.21875,0.5 -0.16406,0.356913 -0.381236,0.750343 -0.5625,1.09375 l 0.03125,0 c -1.566515,2.215694 -1.921324,4.313602 -1.1875,5.78125 a 1.9513862,1.9513862 0 0 0 1.75,1.0625 l 11.125,0 c 1.16879,0 2.0625,0.89371 2.0625,2.0625 l 0,12.125 a 1.9513862,1.9513862 0 0 0 1.0625,1.75 c 1.525644,0.762822 3.719059,0.421643 6.03125,-1.3125 a 1.9513862,1.9513862 0 0 0 0.03125,-0.03125 c -0.09907,0.07626 1.045842,-0.465063 1.4375,-0.5625 0.451394,0.0417 0.932229,0.301414 1.4375,1.03125 0.549955,0.794379 1,2.070094 1,3.5 0,1.429906 -0.450045,2.705621 -1,3.5 -0.539643,0.779485 -1.05682,1.052518 -1.53125,1.0625 0.0092,1.56e-4 -0.03777,1.28e-4 -0.03125,0 -0.06517,-0.02887 -0.265334,-0.110883 -0.5,-0.21875 -0.356913,-0.16406 -0.750343,-0.381236 -1.09375,-0.5625 l 0,0.03125 C 70.690556,50.745985 68.592648,50.391176 67.125,51.125 a 1.9513862,1.9513862 0 0 0 -1.0625,1.75 l 0,11.125 c 0,1.16879 -0.89371,2.0625 -2.0625,2.0625 l -4.96875,0 c 0.145875,-0.277664 0.176852,-0.43372 0.53125,-0.90625 a 1.9513862,1.9513862 0 0 0 0.15625,-0.25 c 0.123632,-0.234223 0.399764,-0.723261 0.65625,-1.28125 0.256486,-0.557989 0.546475,-1.14767 0.5625,-2.09375 a 1.9513862,1.9513862 0 0 0 0,-0.03125 c 0,-2.004225 -1.160592,-3.702525 -2.71875,-4.78125 C 56.660592,55.640025 54.659945,55.0625 52.5,55.0625 c -2.159945,0 -4.160592,0.577525 -5.71875,1.65625 C 45.223092,57.797475 44.0625,59.495775 44.0625,61.5 a 1.9513862,1.9513862 0 0 0 0,0.21875 c 0.172727,1.53359 0.688039,2.536801 1.375,3.4375 0.0085,0.01116 0.02268,0.02012 0.03125,0.03125 0.330264,0.444852 0.360052,0.608619 0.5,0.875 L 32,66.0625 c -1.16879,0 -2.0625,-0.89371 -2.0625,-2.0625 l 0,-10.96875 c 0.277664,0.145875 0.43372,0.176852 0.90625,0.53125 a 1.9513862,1.9513862 0 0 0 0.25,0.15625 c 0.234223,0.123632 0.723261,0.399764 1.28125,0.65625 0.557989,0.256486 1.14767,0.546475 2.09375,0.5625 a 1.9513862,1.9513862 0 0 0 0.03125,0 c 2.004225,0 3.702525,-1.160592 4.78125,-2.71875 1.078725,-1.558158 1.65625,-3.558805 1.65625,-5.71875 0,-2.159945 -0.577525,-4.160592 -1.65625,-5.71875 C 38.202525,39.223092 36.504225,38.0625 34.5,38.0625 a 1.9513862,1.9513862 0 0 0 -0.21875,0 c -1.53359,0.172727 -2.536801,0.688039 -3.4375,1.375 -0.01116,0.0085 -0.02012,0.02268 -0.03125,0.03125 -0.444852,0.330264 -0.608619,0.360052 -0.875,0.5 l 0,-7.96875 c 0,-1.16879 0.89371,-2.0625 2.0625,-2.0625 l 12.125,0 a 1.9513862,1.9513862 0 0 0 1.75,-1.0625 c 0.762822,-1.525644 0.421643,-3.719059 -1.3125,-6.03125 A 1.9513862,1.9513862 0 0 0 44.53125,22.8125 c 0.07626,0.09907 -0.465063,-1.045842 -0.5625,-1.4375 0.0417,-0.451394 0.301414,-0.932229 1.03125,-1.4375 0.794379,-0.549955 2.070094,-1 3.5,-1 z"
       inkscape:connector-curvature="0"
       id="path4157"
       style="opacity:0.07999998000000000;color:#000000;fill:#4d4d4d;fill-opacity:1;fill-rule:nonzero;stroke:none;stroke-width:2;marker:none;visibility:visible;display:inline;overflow:visible;enable-background:accumulate" />
    <path
       d="M 42.0625,21.84375 C 42.017946,22.056452 42,22.278749 42,22.5 c 0.10443,0.9272 0.690589,2.098034 1,2.5 0.788462,1.051282 1.158296,1.889357 1.28125,2.5625 C 44.458535,26.792931 44.2435,25.658 43,24 42.727311,23.64574 42.245895,22.699305 42.0625,21.84375 z m 12.875,0 C 54.785032,22.57999 54.263119,23.501517 54,24 52.7565,25.658 52.541465,26.792931 52.71875,27.5625 52.841704,26.889357 53.211538,26.051282 54,25 c 0.304895,-0.577629 0.987081,-1.737238 1,-2.5 0,-0.221251 -0.01795,-0.443548 -0.0625,-0.65625 z M 34.5,40 c -0.9272,0.10443 -2.098034,0.690589 -2.5,1 -2,1.5 -3.25,1.5 -4,1.125 l 0,1 C 28.75,43.5 30,43.5 32,42 c 0.401966,-0.309411 1.5728,-0.89557 2.5,-1 2.367009,0 4.28945,2.647411 4.46875,6 C 38.977709,46.832482 39,46.670837 39,46.5 39,42.910149 36.985281,40 34.5,40 z m 44.46875,9 C 78.78945,52.352589 76.867009,55 74.5,55 73.737238,54.987081 72.577629,54.304895 72,54 70,52.5 68.75,52.5 68,52.875 l 0,1 C 68.75,53.5 70,53.5 72,55 c 0.577629,0.304895 1.737238,0.987081 2.5,1 2.485281,0 4.5,-2.910149 4.5,-6.5 0,-0.170837 -0.02229,-0.332482 -0.03125,-0.5 z M 52.5,57 c -3.589851,0 -6.5,2.014719 -6.5,4.5 0.01239,0.110042 0.0378,0.228537 0.0625,0.34375 C 46.518417,59.667192 49.229733,58 52.5,58 c 3.270267,0 5.981583,1.667192 6.4375,3.84375 C 58.961708,61.726854 58.99823,61.604513 59,61.5 59,59.014719 56.089851,57 52.5,57 z m -24.5,7 0,1 c 0,2.216 1.784,4 4,4 l 16.125,0 c 0.177885,-0.355769 0.267209,-0.83003 0.15625,-1.4375 C 48.244681,67.721241 48.189125,67.87175 48.125,68 L 32,68 c -2.216,0 -4,-1.784 -4,-4 z m 40,0 c 0,2.216 -1.784,4 -4,4 l -7.125,0 C 56.810875,67.87175 56.755319,67.721241 56.71875,67.5625 56.607791,68.16997 56.697115,68.644231 56.875,69 L 64,69 c 2.216,0 4,-1.784 4,-4 l 0,-1 z"
       inkscape:connector-curvature="0"
       id="path4167"
       style="opacity:0.75000000000000000;color:#000000;fill:#4d4d4d;fill-opacity:1;fill-rule:nonzero;stroke:none;stroke-width:2;marker:none;visibility:visible;display:inline;overflow:visible;enable-background:accumulate" />
  </g>
  <g
     style="fill:#4d4d4d;fill-opacity:1;display:inline"
     transform="matrix(0.20987112,0,0,0.20537676,17.630509,19.834103)"
     id="g3071">
    <path
       style="color:#000000;fill:#4d4d4d;fill-opacity:1;fill-rule:nonzero;stroke:none;stroke-width:2;marker:none;visibility:visible;display:inline;overflow:visible;enable-background:accumulate"
       id="path3073"
       inkscape:connector-curvature="0"
       d="m 48.5,17 c -3.589851,0 -6.5,2.014719 -6.5,4.5 0.10443,0.9272 0.690589,2.098034 1,2.5 1.5,2 1.5,3.25 1.125,4 L 32,28 c -2.216,0 -4,1.784 -4,4 l 0,10.125 C 28.75,42.5 30,42.5 32,41 c 0.401966,-0.309411 1.5728,-0.89557 2.5,-1 2.485281,0 4.5,2.910149 4.5,6.5 C 39,50.089851 36.985281,53 34.5,53 33.737238,52.98708 32.577629,52.304895 32,52 30,50.5 28.75,50.5 28,50.875 L 28,64 c 0,2.216 1.784,4 4,4 l 16.125,0 C 48.5,67.25 48.5,66 47,64 46.690589,63.598034 46.10443,62.4272 46,61.5 46,59.014719 48.910149,57 52.5,57 c 3.589851,0 6.5,2.014719 6.5,4.5 -0.01292,0.762762 -0.695105,1.922371 -1,2.5 -1.5,2 -1.5,3.25 -1.125,4 L 64,68 c 2.216,0 4,-1.784 4,-4 L 68,52.875 C 68.75,52.5 70,52.5 72,54 c 0.577629,0.304895 1.737238,0.987081 2.5,1 2.485281,0 4.5,-2.910149 4.5,-6.5 0,-3.589851 -2.014719,-6.5 -4.5,-6.5 -0.9272,0.10443 -2.098034,0.690589 -2.5,1 -2,1.5 -3.25,1.5 -4,1.125 L 68,32 c 0,-2.216 -1.784,-4 -4,-4 L 52.875,28 C 52.5,27.25 52.5,26 54,24 54.304895,23.422371 54.987081,22.262762 55,21.5 55,19.014719 52.089851,17 48.5,17 z" />
    <path
       style="opacity:0.07999998;color:#000000;fill:#4d4d4d;fill-opacity:1;fill-rule:nonzero;stroke:none;stroke-width:2;marker:none;visibility:visible;display:inline;overflow:visible;enable-background:accumulate"
       id="path3075"
       inkscape:connector-curvature="0"
       d="m 48.5,17 c -3.589851,0 -6.5,2.014719 -6.5,4.5 0.10443,0.9272 0.690589,2.098034 1,2.5 1.5,2 1.5,3.25 1.125,4 L 32,28 c -2.216,0 -4,1.784 -4,4 l 0,10.125 C 28.75,42.5 30,42.5 32,41 c 0.401966,-0.309411 1.5728,-0.89557 2.5,-1 2.485281,0 4.5,2.910149 4.5,6.5 C 39,50.089851 36.985281,53 34.5,53 33.737238,52.98708 32.577629,52.304895 32,52 30,50.5 28.75,50.5 28,50.875 L 28,64 c 0,2.216 1.784,4 4,4 l 16.125,0 C 48.5,67.25 48.5,66 47,64 46.690589,63.598034 46.10443,62.4272 46,61.5 46,59.014719 48.910149,57 52.5,57 c 3.589851,0 6.5,2.014719 6.5,4.5 -0.01292,0.762762 -0.695105,1.922371 -1,2.5 -1.5,2 -1.5,3.25 -1.125,4 L 64,68 c 2.216,0 4,-1.784 4,-4 L 68,52.875 C 68.75,52.5 70,52.5 72,54 c 0.577629,0.304895 1.737238,0.987081 2.5,1 2.485281,0 4.5,-2.910149 4.5,-6.5 0,-3.589851 -2.014719,-6.5 -4.5,-6.5 -0.9272,0.10443 -2.098034,0.690589 -2.5,1 -2,1.5 -3.25,1.5 -4,1.125 L 68,32 c 0,-2.216 -1.784,-4 -4,-4 L 52.875,28 C 52.5,27.25 52.5,26 54,24 54.304895,23.422371 54.987081,22.262762 55,21.5 55,19.014719 52.089851,17 48.5,17 z m 0,1.9375 c 1.429906,0 2.705621,0.450045 3.5,1 0.779485,0.539643 1.052518,1.05682 1.0625,1.53125 0.0084,-0.01462 -6.02e-4,4.63e-4 0,0.03125 -0.02887,0.06517 -0.110883,0.265334 -0.21875,0.5 -0.16406,0.356913 -0.381236,0.750343 -0.5625,1.09375 l 0.03125,0 c -1.566515,2.215694 -1.921324,4.313602 -1.1875,5.78125 a 1.9513862,1.9513862 0 0 0 1.75,1.0625 l 11.125,0 c 1.16879,0 2.0625,0.89371 2.0625,2.0625 l 0,12.125 a 1.9513862,1.9513862 0 0 0 1.0625,1.75 c 1.525644,0.762822 3.719059,0.421643 6.03125,-1.3125 a 1.9513862,1.9513862 0 0 0 0.03125,-0.03125 c -0.09907,0.07626 1.045842,-0.465063 1.4375,-0.5625 0.451394,0.0417 0.932229,0.301414 1.4375,1.03125 0.549955,0.794379 1,2.070094 1,3.5 0,1.429906 -0.450045,2.705621 -1,3.5 -0.539643,0.779485 -1.05682,1.052518 -1.53125,1.0625 0.0092,1.56e-4 -0.03777,1.28e-4 -0.03125,0 -0.06517,-0.02887 -0.265334,-0.110883 -0.5,-0.21875 -0.356913,-0.16406 -0.750343,-0.381236 -1.09375,-0.5625 l 0,0.03125 C 70.690556,50.745985 68.592648,50.391176 67.125,51.125 a 1.9513862,1.9513862 0 0 0 -1.0625,1.75 l 0,11.125 c 0,1.16879 -0.89371,2.0625 -2.0625,2.0625 l -4.96875,0 c 0.145875,-0.277664 0.176852,-0.43372 0.53125,-0.90625 a 1.9513862,1.9513862 0 0 0 0.15625,-0.25 c 0.123632,-0.234223 0.399764,-0.723261 0.65625,-1.28125 0.256486,-0.557989 0.546475,-1.14767 0.5625,-2.09375 a 1.9513862,1.9513862 0 0 0 0,-0.03125 c 0,-2.004225 -1.160592,-3.702525 -2.71875,-4.78125 C 56.660592,55.640025 54.659945,55.0625 52.5,55.0625 c -2.159945,0 -4.160592,0.577525 -5.71875,1.65625 C 45.223092,57.797475 44.0625,59.495775 44.0625,61.5 a 1.9513862,1.9513862 0 0 0 0,0.21875 c 0.172727,1.53359 0.688039,2.536801 1.375,3.4375 0.0085,0.01116 0.02268,0.02012 0.03125,0.03125 0.330264,0.444852 0.360052,0.608619 0.5,0.875 L 32,66.0625 c -1.16879,0 -2.0625,-0.89371 -2.0625,-2.0625 l 0,-10.96875 c 0.277664,0.145875 0.43372,0.176852 0.90625,0.53125 a 1.9513862,1.9513862 0 0 0 0.25,0.15625 c 0.234223,0.123632 0.723261,0.399764 1.28125,0.65625 0.557989,0.256486 1.14767,0.546475 2.09375,0.5625 a 1.9513862,1.9513862 0 0 0 0.03125,0 c 2.004225,0 3.702525,-1.160592 4.78125,-2.71875 1.078725,-1.558158 1.65625,-3.558805 1.65625,-5.71875 0,-2.159945 -0.577525,-4.160592 -1.65625,-5.71875 C 38.202525,39.223092 36.504225,38.0625 34.5,38.0625 a 1.9513862,1.9513862 0 0 0 -0.21875,0 c -1.53359,0.172727 -2.536801,0.688039 -3.4375,1.375 -0.01116,0.0085 -0.02012,0.02268 -0.03125,0.03125 -0.444852,0.330264 -0.608619,0.360052 -0.875,0.5 l 0,-7.96875 c 0,-1.16879 0.89371,-2.0625 2.0625,-2.0625 l 12.125,0 a 1.9513862,1.9513862 0 0 0 1.75,-1.0625 c 0.762822,-1.525644 0.421643,-3.719059 -1.3125,-6.03125 A 1.9513862,1.9513862 0 0 0 44.53125,22.8125 c 0.07626,0.09907 -0.465063,-1.045842 -0.5625,-1.4375 0.0417,-0.451394 0.301414,-0.932229 1.03125,-1.4375 0.794379,-0.549955 2.070094,-1 3.5,-1 z" />
    <path
       style="opacity:0.75;color:#000000;fill:#4d4d4d;fill-opacity:1;fill-rule:nonzero;stroke:none;stroke-width:2;marker:none;visibility:visible;display:inline;overflow:visible;enable-background:accumulate"
       id="path3077"
       inkscape:connector-curvature="0"
       d="M 42.0625,21.84375 C 42.017946,22.056452 42,22.278749 42,22.5 c 0.10443,0.9272 0.690589,2.098034 1,2.5 0.788462,1.051282 1.158296,1.889357 1.28125,2.5625 C 44.458535,26.792931 44.2435,25.658 43,24 42.727311,23.64574 42.245895,22.699305 42.0625,21.84375 z m 12.875,0 C 54.785032,22.57999 54.263119,23.501517 54,24 52.7565,25.658 52.541465,26.792931 52.71875,27.5625 52.841704,26.889357 53.211538,26.051282 54,25 c 0.304895,-0.577629 0.987081,-1.737238 1,-2.5 0,-0.221251 -0.01795,-0.443548 -0.0625,-0.65625 z M 34.5,40 c -0.9272,0.10443 -2.098034,0.690589 -2.5,1 -2,1.5 -3.25,1.5 -4,1.125 l 0,1 C 28.75,43.5 30,43.5 32,42 c 0.401966,-0.309411 1.5728,-0.89557 2.5,-1 2.367009,0 4.28945,2.647411 4.46875,6 C 38.977709,46.832482 39,46.670837 39,46.5 39,42.910149 36.985281,40 34.5,40 z m 44.46875,9 C 78.78945,52.352589 76.867009,55 74.5,55 73.737238,54.987081 72.577629,54.304895 72,54 70,52.5 68.75,52.5 68,52.875 l 0,1 C 68.75,53.5 70,53.5 72,55 c 0.577629,0.304895 1.737238,0.987081 2.5,1 2.485281,0 4.5,-2.910149 4.5,-6.5 0,-0.170837 -0.02229,-0.332482 -0.03125,-0.5 z M 52.5,57 c -3.589851,0 -6.5,2.014719 -6.5,4.5 0.01239,0.110042 0.0378,0.228537 0.0625,0.34375 C 46.518417,59.667192 49.229733,58 52.5,58 c 3.270267,0 5.981583,1.667192 6.4375,3.84375 C 58.961708,61.726854 58.99823,61.604513 59,61.5 59,59.014719 56.089851,57 52.5,57 z m -24.5,7 0,1 c 0,2.216 1.784,4 4,4 l 16.125,0 c 0.177885,-0.355769 0.267209,-0.83003 0.15625,-1.4375 C 48.244681,67.721241 48.189125,67.87175 48.125,68 L 32,68 c -2.216,0 -4,-1.784 -4,-4 z m 40,0 c 0,2.216 -1.784,4 -4,4 l -7.125,0 C 56.810875,67.87175 56.755319,67.721241 56.71875,67.5625 56.607791,68.16997 56.697115,68.644231 56.875,69 L 64,69 c 2.216,0 4,-1.784 4,-4 l 0,-1 z" />
  </g>
</svg>
