<?xml version="1.0" encoding="UTF-8" standalone="no"?>
<!-- Created using Karbon, part of Calligra: http://www.calligra.org/karbon -->

<svg
   xmlns:dc="http://purl.org/dc/elements/1.1/"
   xmlns:cc="http://creativecommons.org/ns#"
   xmlns:rdf="http://www.w3.org/1999/02/22-rdf-syntax-ns#"
   xmlns:svg="http://www.w3.org/2000/svg"
   xmlns="http://www.w3.org/2000/svg"
   xmlns:sodipodi="http://sodipodi.sourceforge.net/DTD/sodipodi-0.dtd"
   xmlns:inkscape="http://www.inkscape.org/namespaces/inkscape"
   width="38.4pt"
   height="38.4pt"
   id="svg2"
   version="1.1"
   inkscape:version="0.48.5 r10040"
   sodipodi:docname="application-x-rpm.svg">
  <metadata
     id="metadata17">
    <rdf:RDF>
      <cc:Work
         rdf:about="">
        <dc:format>image/svg+xml</dc:format>
        <dc:type
           rdf:resource="http://purl.org/dc/dcmitype/StillImage" />
      </cc:Work>
    </rdf:RDF>
  </metadata>
  <sodipodi:namedview
     pagecolor="#ffffff"
     bordercolor="#666666"
     borderopacity="1"
     objecttolerance="10"
     gridtolerance="10"
     guidetolerance="10"
     inkscape:pageopacity="0"
     inkscape:pageshadow="2"
     inkscape:window-width="1680"
     inkscape:window-height="991"
     id="namedview15"
     showgrid="false"
     inkscape:zoom="11.219719"
     inkscape:cx="16.468488"
     inkscape:cy="22.576271"
     inkscape:current-layer="svg2"
     inkscape:window-x="-2"
     inkscape:window-y="-3"
     inkscape:window-maximized="1" />
  <defs
     id="defs4" />
  <path
     sodipodi:nodetypes="cccccc"
     style="fill:#d4a275;fill-rule:evenodd"
     inkscape:connector-curvature="0"
     d="m 4.5236561,5.6535343 c 4.3333305,0 13.1172929,0 26.3519899,0 l 12.603993,-0.045018 0.04403,36.745778 -39.0000089,0 z"
     id="rect3304" />
  <g
     id="g2994"
     transform="matrix(1,0,0,1.1212188,-0.690813,-6.3311558)">
    <rect
       id="rect4351"
       width="4.3580356"
       height="6.1026225"
       x="22.622078"
       y="23.117275"
       style="fill:#201810;fill-rule:evenodd" />
    <path
       id="path4353"
       d="m 24.690779,31.94054 -5.882047,-5.336032 11.764162,0 z"
       inkscape:connector-curvature="0"
       style="fill:#201810;fill-rule:evenodd" />
  </g>
  <rect
     style="fill:#dbb797;fill-rule:evenodd"
     y="40.051239"
     x="21.253584"
     height="2.2517285"
     width="4.9245477"
     id="rect4206" />
  <rect
     style="fill:#dbb797;fill-rule:evenodd"
     y="5.6816716"
     x="21.253584"
     height="2.2517285"
     width="4.9245477"
     id="rect4223" />
  <path
     style="color:#000000;fill:#201810;fill-opacity:1;fill-rule:nonzero;stroke:none;stroke-width:0.84200001;marker:none;visibility:visible;display:inline;overflow:visible;enable-background:accumulate"
     d="M 24 13.3125 C 18.093064 13.3125 13.3125 18.093064 13.3125 24 C 13.3125 29.906936 18.093064 34.6875 24 34.6875 C 29.906936 34.6875 34.6875 29.906936 34.6875 24 C 34.6875 18.093064 29.906936 13.3125 24 13.3125 z M 24 15.53125 C 28.676325 15.53125 32.46875 19.323675 32.46875 24 C 32.46875 28.676325 28.676325 32.46875 24 32.46875 C 19.323675 32.46875 15.53125 28.676325 15.53125 24 C 15.53125 19.323675 19.323675 15.53125 24 15.53125 z "
     id="path2998" />
</svg>
