<?xml version="1.0" encoding="UTF-8" standalone="no"?>
<!-- Created using Karbon, part of Calligra: http://www.calligra.org/karbon -->

<svg
   xmlns:dc="http://purl.org/dc/elements/1.1/"
   xmlns:cc="http://creativecommons.org/ns#"
   xmlns:rdf="http://www.w3.org/1999/02/22-rdf-syntax-ns#"
   xmlns:svg="http://www.w3.org/2000/svg"
   xmlns="http://www.w3.org/2000/svg"
   xmlns:sodipodi="http://sodipodi.sourceforge.net/DTD/sodipodi-0.dtd"
   xmlns:inkscape="http://www.inkscape.org/namespaces/inkscape"
   width="38.4pt"
   height="38.4pt"
   id="svg2"
   version="1.1"
   inkscape:version="0.48.4 r9939"
   sodipodi:docname="text-html.svg">
  <metadata
     id="metadata17">
    <rdf:RDF>
      <cc:Work
         rdf:about="">
        <dc:format>image/svg+xml</dc:format>
        <dc:type
           rdf:resource="http://purl.org/dc/dcmitype/StillImage" />
      </cc:Work>
    </rdf:RDF>
  </metadata>
  <sodipodi:namedview
     pagecolor="#ffffff"
     bordercolor="#666666"
     borderopacity="1"
     objecttolerance="10"
     gridtolerance="10"
     guidetolerance="10"
     inkscape:pageopacity="0"
     inkscape:pageshadow="2"
     inkscape:window-width="1366"
     inkscape:window-height="709"
     id="namedview15"
     showgrid="false"
     inkscape:zoom="13.542398"
     inkscape:cx="22.751808"
     inkscape:cy="23.657994"
     inkscape:current-layer="svg2"
     inkscape:window-x="0"
     inkscape:window-y="-3"
     inkscape:window-maximized="1" />
  <defs
     id="defs4" />
  <path
     sodipodi:nodetypes="cccccc"
     style="fill:#e67e22;fill-opacity:1"
     inkscape:connector-curvature="0"
     d="m 4.6107591,5.6281505 0,36.7434965 38.7475489,0 0.25246,-36.7457774 -12.788432,0.00228 z"
     id="rect4090" />
  <g
     style="fill:#ffffff"
     transform="matrix(1.1396338,0,0,0.91858742,7.3000669,20.746813)"
     id="group0">
    <path
       style="fill:#ffffff"
       inkscape:connector-curvature="0"
       d="m 4.0234,0 0,2.26302 -2.0117,0 L 2.0117,0 0,0 l 0,6.97933 2.0117,0 0,-2.48221 2.0117,0 0,2.48221 2.01171,0 0,-6.97933 z"
       transform="translate(0.951531,4.43612)"
       id="shape0" />
    <path
       style="fill:#ffffff"
       inkscape:connector-curvature="0"
       d="M 2.04805,4.74543 2.04805,0 0,0 l 0,6.97944 0.455122,0 0,1.1e-4 4.778778,0 0,-2.23412 z"
       transform="translate(23.2825,4.43612)"
       id="shape1" />
    <path
       style="fill:#ffffff"
       inkscape:connector-curvature="0"
       d="M 6.36062,0 0,0 l 0,2.01479 2.15807,0 0,4.96454 2.04448,0 0,-4.96454 2.15807,0 z"
       transform="translate(7.83153,4.43612)"
       id="shape2" />
    <path
       style="fill:#ffffff"
       inkscape:connector-curvature="0"
       d="m 4.82885,0 0,0.0035344 L 3.43701,2.26522 2.04526,0.0035344 2.04526,0 0,0 l 0,6.98265 2.04526,0 0,-3.11988 1.39175,2.12682 1.39184,-2.12682 0,3.11988 2.04517,0 0,-6.98265 z"
       transform="translate(15.1615,4.43452)"
       id="shape3" />
  </g>
</svg>
