<?xml version="1.0" encoding="UTF-8" standalone="no"?>
<!-- Created using Karbon, part of Calligra: http://www.calligra.org/karbon -->

<svg
   xmlns:dc="http://purl.org/dc/elements/1.1/"
   xmlns:cc="http://creativecommons.org/ns#"
   xmlns:rdf="http://www.w3.org/1999/02/22-rdf-syntax-ns#"
   xmlns:svg="http://www.w3.org/2000/svg"
   xmlns="http://www.w3.org/2000/svg"
   xmlns:sodipodi="http://sodipodi.sourceforge.net/DTD/sodipodi-0.dtd"
   xmlns:inkscape="http://www.inkscape.org/namespaces/inkscape"
   width="38.4pt"
   height="38.4pt"
   id="svg2"
   version="1.1"
   inkscape:version="0.48.4 r9939"
   sodipodi:docname="text-x-python.svg">
  <metadata
     id="metadata14">
    <rdf:RDF>
      <cc:Work
         rdf:about="">
        <dc:format>image/svg+xml</dc:format>
        <dc:type
           rdf:resource="http://purl.org/dc/dcmitype/StillImage" />
      </cc:Work>
    </rdf:RDF>
  </metadata>
  <sodipodi:namedview
     pagecolor="#ffffff"
     bordercolor="#666666"
     borderopacity="1"
     objecttolerance="10"
     gridtolerance="10"
     guidetolerance="10"
     inkscape:pageopacity="0"
     inkscape:pageshadow="2"
     inkscape:window-width="640"
     inkscape:window-height="480"
     id="namedview12"
     showgrid="false"
     inkscape:zoom="13.906433"
     inkscape:cx="30.658218"
     inkscape:cy="28.644066"
     inkscape:current-layer="svg2" />
  <defs
     id="defs4" />
  <g
     id="layer1"
     transform="matrix(1.1470591,0,0,0.91864444,-3.5294177,1.9525339)">
    <path
       id="rect4090"
       transform="translate(7,4)"
       d="M 0,0 0,40 34,40 33.928091,0.06980703 23,0 z"
       inkscape:connector-curvature="0"
       style="fill:#ecf0f1"
       sodipodi:nodetypes="cccccc" />
    <path
       id="path1948"
       transform="translate(12.652,15.0516)"
       d="M 10.8184,1.82849e-4 C 9.9155,0.00441924 9.05323,0.0821759 8.2945,0.217737 6.05943,0.616447 5.6536,1.45098 5.6536,2.98999 l 0,2.03258 5.2818,0 0,0.67753 -5.2818,0 -1.9822,0 c -1.53503,0 -2.879152,0.93163 -3.299575,2.70389 -0.484953,2.03141 -0.506464,3.29911 0,5.42021 0.375448,1.5789 1.272065,2.7039 2.807095,2.7039 l 1.816,0 0,-2.4366 c 0,-1.7603 1.50838,-3.3131 3.29958,-3.3131 l 5.2756,0 c 1.4686,0 2.6409,-1.22088 2.6409,-2.71007 l 0,-5.07834 C 16.211,1.54468 15.0035,0.458955 13.5701,0.217737 12.6628,0.0652302 11.7214,-0.00405352 10.8184,1.82849e-4 z M 7.96208,1.63495 c 0.54559,0 0.9911,0.45721 0.9911,1.01939 0,0.56019 -0.44551,1.01318 -0.9911,1.01318 -0.54754,0 -0.99111,-0.45299 -0.99111,-1.01318 0,-0.56218 0.44357,-1.01939 0.99111,-1.01939 z"
       inkscape:connector-curvature="0"
       style="fill:#2980b9" />
    <path
       id="path1950"
       transform="translate(18.3198,20.7109)"
       d="m 11.2389,0 0,2.35078 c 0,1.82252 -1.54472,3.35648 -3.30626,3.35648 l -5.28637,0 C 1.19824,5.70726 1.97391e-7,6.94689 0,8.39739 l 0,5.04091 c 0,1.4347 1.24723,2.2785 2.64627,2.6901 1.67533,0.4928 3.28187,0.5818 5.28637,0 1.33241,-0.3859 2.64626,-1.1624 2.64626,-2.6901 l 0,-2.0176 -5.28636,0 0,-0.6725 5.28636,0 2.6463,0 c 1.5381,0 2.1113,-1.0732 2.6462,-2.68399 0.5526,-1.65828 0.5291,-3.25298 0,-5.38025 C 15.4913,1.15232 14.7653,0 13.2252,0 z M 8.26574,12.7658 c 0.54864,0 0.99312,0.4496 0.99312,1.0057 0,0.558 -0.44448,1.0119 -0.99312,1.0119 -0.54668,0 -0.99312,-0.4539 -0.99312,-1.0119 0,-0.5561 0.44644,-1.0057 0.99312,-1.0057 z"
       inkscape:connector-curvature="0"
       style="fill:#f39c12" />
  </g>
</svg>
