<?xml version="1.0" encoding="UTF-8" standalone="no"?>
<!-- Created using Karbon, part of Calligra: http://www.calligra.org/karbon -->

<svg
   xmlns:dc="http://purl.org/dc/elements/1.1/"
   xmlns:cc="http://creativecommons.org/ns#"
   xmlns:rdf="http://www.w3.org/1999/02/22-rdf-syntax-ns#"
   xmlns:svg="http://www.w3.org/2000/svg"
   xmlns="http://www.w3.org/2000/svg"
   xmlns:sodipodi="http://sodipodi.sourceforge.net/DTD/sodipodi-0.dtd"
   xmlns:inkscape="http://www.inkscape.org/namespaces/inkscape"
   width="38.4pt"
   height="38.4pt"
   id="svg2"
   version="1.1"
   inkscape:version="0.48.4 r9939"
   sodipodi:docname="text-x-tex.svg">
  <metadata
     id="metadata15">
    <rdf:RDF>
      <cc:Work
         rdf:about="">
        <dc:format>image/svg+xml</dc:format>
        <dc:type
           rdf:resource="http://purl.org/dc/dcmitype/StillImage" />
      </cc:Work>
    </rdf:RDF>
  </metadata>
  <sodipodi:namedview
     pagecolor="#ffffff"
     bordercolor="#666666"
     borderopacity="1"
     objecttolerance="10"
     gridtolerance="10"
     guidetolerance="10"
     inkscape:pageopacity="0"
     inkscape:pageshadow="2"
     inkscape:window-width="640"
     inkscape:window-height="480"
     id="namedview13"
     showgrid="false"
     inkscape:zoom="9.9218081"
     inkscape:cx="28.372881"
     inkscape:cy="19.423729"
     inkscape:current-layer="svg2" />
  <defs
     id="defs4" />
  <g
     id="layer1"
     transform="matrix(1.1436689,0,0,0.91864444,-3.4552934,1.9525339)">
    <path
       id="rect4090"
       transform="translate(7,4)"
       d="M 0,0 0,40 34,40 34.100788,0.0140991 23,0 z"
       inkscape:connector-curvature="0"
       style="fill:#ecf0f1"
       sodipodi:nodetypes="cccccc" />
    <path
       id="path14"
       transform="translate(12.9315,21.6253)"
       d="M 8.42567,0 0.239293,0 0,3.22394 l 0.25475,0 c 0.183191,-2.41457 0.3847,-2.837209 2.58299,-2.837209 0.25475,1.3e-5 0.66865,1.3e-5 0.78256,1.3e-5 0.27079,0.043576 0.27079,0.220725 0.27079,0.556249 l 0,7.934747 c 0,0.5268 -0.04294,0.68751 -1.23711,0.68751 l -0.40245,0 0,0.35204 C 2.93163,9.90372 3.64034,9.88966 4.3359,9.88966 c 0.69326,0 1.40427,0.01406 2.08379,0.02763 l 0,-0.35204 -0.39558,0 c -1.17643,0 -1.21879,-0.16071 -1.21879,-0.68751 l 0,-7.934747 c 0,-0.321986 0,-0.496792 0.25532,-0.556249 l 0.778,0 c 2.16908,0 2.38147,0.420271 2.56464,2.837216 l 0.25533,0"
       inkscape:connector-curvature="0"
       style="fill:#2c3e50" />
    <path
       id="path16"
       transform="translate(20.5204,24.6769)"
       d="m 7.83711,6.25281 -0.25314,0 C 7.27508,8.41684 7.09305,9.59313 4.61512,9.59313 l -1.95515,0 c -0.5626,0 -0.58934,-0.07365 -0.58934,-0.57574 l 0,-4.07939 1.32885,0 c 1.32884,0 1.45569,0.50447 1.45569,1.73618 l 0.22641,0 0,-3.79647 -0.22641,0 c 0,1.21107 -0.12685,1.70611 -1.45569,1.70611 l -1.32885,0 0,-3.616726 c 0,-0.492682 0.02674,-0.566349 0.58934,-0.566349 l 1.92614,0 c 2.17985,0 2.43356,0.897555 2.63095,2.827025 l 0.25371,0 L 7.13287,0 0,0 0,0.400745 c 0.997771,0 1.15762,0 1.15762,0.655925 l 0,7.87583 C 1.15762,9.58839 1.00004,9.58839 0,9.58839 l 0,0.35245 7.33083,0"
       inkscape:connector-curvature="0"
       style="fill:#2c3e50" />
    <path
       id="path18"
       transform="translate(27.1868,21.6054)"
       d="M 5.0168,4.11742 7.12695,1.21407 C 7.33831,0.929053 7.76795,0.34257 8.93824,0.327771 L 8.93824,0 C 8.61167,0.0257596 8.06973,0.0257596 7.72763,0.0257596 c -0.46994,0 -1.05507,0 -1.41042,-0.0257596 l 0,0.327782 c 0.4567,0.040549 0.56901,0.312413 0.56901,0.531113 0,0.162235 -0.06969,0.271855 -0.17105,0.406695 L 4.8325,3.86474 2.72235,0.925216 C 2.62329,0.777223 2.60948,0.73447 2.60948,0.69391 c 0,-0.122229 0.15549,-0.353516 0.62774,-0.366128 L 3.23722,0 c -0.4567,0.0257596 -1.15414,0.0257596 -1.62408,0.0257596 -0.36916,0 -1.082146,0 -1.426544,-0.0257596 l 0,0.327782 c 0.783245,0 1.039524,0.02797 1.354554,0.449441 L 4.29229,4.62278 1.81125,8.07205 C 1.19906,8.9156 0.272408,8.93042 0,8.93042 L 0,9.25815 C 0.325968,9.23244 0.868482,9.23244 1.21057,9.23244 c 0.38471,0 1.05508,0 1.41042,0.02571 l 0,-0.32773 C 2.17984,8.8898 2.05198,8.618 2.05198,8.39928 c 0,-0.17541 0.0697,-0.27187 0.14168,-0.36834 L 4.47486,4.8623 6.95591,8.33295 c 0.1123,0.15022 0.1123,0.19075 0.1123,0.23128 0,0.10695 -0.12786,0.34039 -0.62718,0.36835 l 0,0.32774 C 6.89773,9.2346 7.59517,9.2346 8.06511,9.2346 c 0.36913,0 1.08219,0 1.42832,0.02572 l 0,-0.32774 c -0.91347,0 -1.05744,-0.06633 -1.34077,-0.44941"
       inkscape:connector-curvature="0"
       style="fill:#2c3e50" />
  </g>
</svg>
