<?xml version="1.0" encoding="UTF-8" standalone="no"?>
<!-- Created using Karbon, part of Calligra: http://www.calligra.org/karbon -->

<svg
   xmlns:dc="http://purl.org/dc/elements/1.1/"
   xmlns:cc="http://creativecommons.org/ns#"
   xmlns:rdf="http://www.w3.org/1999/02/22-rdf-syntax-ns#"
   xmlns:svg="http://www.w3.org/2000/svg"
   xmlns="http://www.w3.org/2000/svg"
   xmlns:sodipodi="http://sodipodi.sourceforge.net/DTD/sodipodi-0.dtd"
   xmlns:inkscape="http://www.inkscape.org/namespaces/inkscape"
   width="38.4pt"
   height="38.4pt"
   id="svg2"
   version="1.1"
   inkscape:version="0.48.4 r9939"
   sodipodi:docname="text-x-install.svg">
  <metadata
     id="metadata15">
    <rdf:RDF>
      <cc:Work
         rdf:about="">
        <dc:format>image/svg+xml</dc:format>
        <dc:type
           rdf:resource="http://purl.org/dc/dcmitype/StillImage" />
      </cc:Work>
    </rdf:RDF>
  </metadata>
  <sodipodi:namedview
     pagecolor="#ffffff"
     bordercolor="#666666"
     borderopacity="1"
     objecttolerance="10"
     gridtolerance="10"
     guidetolerance="10"
     inkscape:pageopacity="0"
     inkscape:pageshadow="2"
     inkscape:window-width="1366"
     inkscape:window-height="709"
     id="namedview13"
     showgrid="false"
     inkscape:zoom="13.906433"
     inkscape:cx="10.981598"
     inkscape:cy="28.649177"
     inkscape:current-layer="svg2"
     inkscape:window-x="0"
     inkscape:window-y="-3"
     inkscape:window-maximized="1" />
  <defs
     id="defs4" />
  <path
     sodipodi:nodetypes="cccccc"
     style="fill:#ffdd55"
     inkscape:connector-curvature="0"
     d="m 4.499996,5.6271117 0,36.7457773 39.000009,0 -0.08248,-36.6816495 -12.535167,-0.064128 z"
     id="rect4090" />
  <path
     style="fill:#354b5f"
     inkscape:connector-curvature="0"
     d="m 23.995388,13.554424 c -2.780116,2.1e-4 -5.543232,1.021803 -7.507605,2.775794 -1.964385,1.754003 -3.106282,4.218712 -3.106282,6.698998 0,2.480338 1.141897,4.945057 3.106282,6.698947 1.964373,1.753992 4.727489,2.775559 7.507605,2.775867 2.780093,2.04e-4 5.543014,-1.021875 7.509991,-2.775867 1.966747,-1.75389 3.113118,-4.218302 3.113118,-6.698947 0,-2.480604 -1.146371,-4.944995 -3.113118,-6.698998 -1.966977,-1.753991 -4.729898,-2.776005 -7.509991,-2.775794 z m 0,2.105507 c 4.324608,-2.05e-4 8.263379,3.510625 8.263379,7.369285 0,3.858599 -3.938771,7.369552 -8.263379,7.369245 -4.324619,-2.04e-4 -8.254226,-3.510851 -8.254226,-7.369245 0,-3.858343 3.929607,-7.36907 8.254226,-7.369285 z"
     id="path3331" />
  <rect
     style="fill:#354b5f;fill-rule:evenodd"
     y="-28.572721"
     x="22.417645"
     height="6.430511"
     width="3.0062346"
     transform="scale(1,-1)"
     id="rect4351" />
  <rect
     id="rect2995"
     transform="scale(1,-1)"
     width="3.0062346"
     height="2.3316886"
     x="22.417645"
     y="-20.4739"
     style="fill:#354b5f;fill-rule:evenodd" />
</svg>
