<?xml version="1.0" encoding="UTF-8" standalone="no"?>
<!-- Created using Karbon, part of Calligra: http://www.calligra.org/karbon -->

<svg
   xmlns:dc="http://purl.org/dc/elements/1.1/"
   xmlns:cc="http://creativecommons.org/ns#"
   xmlns:rdf="http://www.w3.org/1999/02/22-rdf-syntax-ns#"
   xmlns:svg="http://www.w3.org/2000/svg"
   xmlns="http://www.w3.org/2000/svg"
   xmlns:sodipodi="http://sodipodi.sourceforge.net/DTD/sodipodi-0.dtd"
   xmlns:inkscape="http://www.inkscape.org/namespaces/inkscape"
   width="38.4pt"
   height="38.4pt"
   id="svg2"
   version="1.1"
   inkscape:version="0.48.4 r9939"
   sodipodi:docname="text-x-java.svg">
  <metadata
     id="metadata13">
    <rdf:RDF>
      <cc:Work
         rdf:about="">
        <dc:format>image/svg+xml</dc:format>
        <dc:type
           rdf:resource="http://purl.org/dc/dcmitype/StillImage" />
      </cc:Work>
    </rdf:RDF>
  </metadata>
  <sodipodi:namedview
     pagecolor="#ffffff"
     bordercolor="#666666"
     borderopacity="1"
     objecttolerance="10"
     gridtolerance="10"
     guidetolerance="10"
     inkscape:pageopacity="0"
     inkscape:pageshadow="2"
     inkscape:window-width="1366"
     inkscape:window-height="709"
     id="namedview11"
     showgrid="false"
     inkscape:zoom="12.531115"
     inkscape:cx="29.367937"
     inkscape:cy="20.665962"
     inkscape:current-layer="svg2"
     inkscape:window-x="0"
     inkscape:window-y="-3"
     inkscape:window-maximized="1" />
  <defs
     id="defs4" />
  <path
     sodipodi:nodetypes="cccccc"
     style="fill:#ff7f2a;fill-opacity:1"
     inkscape:connector-curvature="0"
     d="m 4.5398955,5.6271117 0,36.7457773 38.9086885,0 0.09132,-36.6107228 -12.679427,-0.1350545 z"
     id="rect4090" />
  <path
     style="fill:#ffffff;fill-rule:evenodd"
     inkscape:connector-curvature="0"
     d="m 26.360346,12.862631 c 1.213608,3.649581 -4.284213,4.759221 -6.267194,7.032039 -1.350383,1.548615 0.662821,3.207539 3.407566,5.097742 -1.070378,-1.846934 -4.701715,-3.465549 0,-6.300229 5.862921,-3.532537 2.859628,-5.829552 2.859628,-5.829552 z m 3.613015,4.522551 c 0,0 -9.905912,1.887061 -5.171308,6.051781 1.397738,1.228136 -0.359562,2.326467 -0.359562,2.326467 0,0 3.546413,-1.386142 1.917855,-3.136987 -1.521558,-1.631834 -2.70254,-2.445486 3.613015,-5.241261 z m 1.609561,7.437189 c -0.303602,0.0135 -0.616474,0.0565 -0.941819,0.14386 -0.304174,0.08222 -0.462327,0.274399 -0.462327,0.274399 0,0 0.187677,-0.06265 0.616474,-0.131274 1.753752,-0.278901 4.269313,1.792734 -1.1644,3.947415 -0.02506,0.05154 -0.102764,0.117862 -0.10265,0.117862 6.57534,-1.319174 4.989925,-4.46746 2.054722,-4.352446 z m -11.746647,0.2089 c -0.692735,0.0135 -2.327644,0.12714 -4.212358,0.823565 -2.972806,1.097229 7.35999,1.595869 12.705552,0.5228 0.555708,-0.289557 1.318547,-0.536029 1.318547,-0.536029 0,0 -2.187927,0.291853 -4.36647,0.431487 -2.666401,0.170776 -5.51636,0.21184 -6.952136,0.06633 -3.399315,-0.346972 1.866472,-1.30714 1.866472,-1.30714 0,0 -0.128696,0 -0.359607,0 z m -0.873283,2.510655 c -4.903891,1.242375 2.735349,2.654423 9.589172,1.124145 -0.728279,-0.196038 -1.198731,-0.549073 -1.198731,-0.549073 -3.350988,0.492209 -5.288034,0.467681 -7.739773,0.274399 -1.895471,-0.149556 -0.650668,-0.849471 -0.650668,-0.849471 z m 0.684919,2.418148 c -4.452768,0.949694 2.720942,2.912838 8.390544,1.058646 -0.928544,-0.27541 -1.592624,-0.588208 -1.592624,-0.588208 -2.528172,0.364885 -3.715265,0.396027 -6.010237,0.195947 -1.894063,-0.165724 -0.787683,-0.666385 -0.787683,-0.666385 z m -2.876726,1.607628 c -1.913472,-0.0565 -6.24299,1.396523 -2.53426,1.856121 11.558673,1.430054 21.062921,-0.640571 18.065236,-1.673127 0,0 0.812962,0.516462 -0.907603,0.914969 -3.271648,0.756504 -13.615615,0.980562 -16.489822,0.02581 -1.032495,-0.343297 0.89736,-0.814378 1.506864,-0.914969 0.635482,-0.104358 1.010276,-0.07864 1.010276,-0.07864 -0.14363,-0.07735 -0.377334,-0.122915 -0.650691,-0.131367 z m 17.363117,1.305853 c 0,0 -0.369518,0.714521 -4.315088,1.280958 -4.451039,0.63956 -9.92944,0.567079 -13.18501,0.156904 0,0 0.66543,0.419637 4.092484,0.588208 5.214474,0.254465 13.217992,-0.14239 13.407614,-2.02607 z"
     id="path3672" />
</svg>
