<?xml version="1.0" encoding="UTF-8" standalone="no"?>
<!-- Created using Karbon, part of Calligra: http://www.calligra.org/karbon -->

<svg
   xmlns:dc="http://purl.org/dc/elements/1.1/"
   xmlns:cc="http://creativecommons.org/ns#"
   xmlns:rdf="http://www.w3.org/1999/02/22-rdf-syntax-ns#"
   xmlns:svg="http://www.w3.org/2000/svg"
   xmlns="http://www.w3.org/2000/svg"
   xmlns:sodipodi="http://sodipodi.sourceforge.net/DTD/sodipodi-0.dtd"
   xmlns:inkscape="http://www.inkscape.org/namespaces/inkscape"
   width="38.4pt"
   height="38.4pt"
   id="svg2"
   version="1.1"
   inkscape:version="0.48.5 r10040"
   sodipodi:docname="text-x-vala.svg">
  <metadata
     id="metadata17">
    <rdf:RDF>
      <cc:Work
         rdf:about="">
        <dc:format>image/svg+xml</dc:format>
        <dc:type
           rdf:resource="http://purl.org/dc/dcmitype/StillImage" />
        <dc:title />
      </cc:Work>
    </rdf:RDF>
  </metadata>
  <sodipodi:namedview
     pagecolor="#ffffff"
     bordercolor="#666666"
     borderopacity="1"
     objecttolerance="10"
     gridtolerance="10"
     guidetolerance="10"
     inkscape:pageopacity="0"
     inkscape:pageshadow="2"
     inkscape:window-width="1680"
     inkscape:window-height="991"
     id="namedview15"
     showgrid="false"
     inkscape:zoom="7.2546923"
     inkscape:cx="46.715775"
     inkscape:cy="33.760085"
     inkscape:current-layer="svg2"
     inkscape:window-x="-2"
     inkscape:window-y="-3"
     inkscape:window-maximized="1" />
  <defs
     id="defs4" />
  <path
     sodipodi:nodetypes="cccccc"
     style="fill:#ecf0f1"
     inkscape:connector-curvature="0"
     d="m 4.5777249,5.6271122 0,36.7457778 38.8225021,0 0.177507,-36.6849844 -12.737728,-0.060793 z"
     id="rect4090" />
  <g
     id="g3079"
     style="fill:#3551ae;fill-opacity:1"
     transform="matrix(1.1811579,0,0,1.1811579,-3.8373887,-3.0577553)">
    <path
       inkscape:connector-curvature="0"
       d="m 17.008126,19.518583 0.85339,-2.177967 c 0.422715,-1.066221 0.759621,-1.954744 1.010718,-2.665571 0.06674,-0.190698 0.119181,-0.316392 0.157329,-0.377081 0.04131,-0.06501 0.09058,-0.09751 0.147794,-0.09752 0.05402,8e-6 0.101699,0.02602 0.143026,0.07802 0.04131,0.04769 0.06197,0.106198 0.06198,0.175538 -8e-6,0.07369 -0.03338,0.190716 -0.100119,0.351075 -0.0159,0.03902 -0.03179,0.07586 -0.04768,0.110524 -0.03179,0.06936 -0.07311,0.166877 -0.123956,0.292562 l -3.527979,8.672858 -4.071479,-9.557047 3.342046,0 2.154927,5.194613"
       style="font-size:30.5942955px;font-style:normal;font-variant:normal;font-weight:normal;font-stretch:normal;line-height:125%;letter-spacing:0px;word-spacing:0px;fill:#3551ae;fill-opacity:1;stroke:none;font-family:Broadway;-inkscape-font-specification:Broadway"
       id="path3038" />
    <path
       id="path3040"
       d="m 21.4375,15.9375 c -0.486117,0.05291 -0.911506,0.198211 -1.25,0.40625 -0.473576,0.290402 -0.718751,0.570698 -0.71875,0.84375 -1e-6,0.09102 0.03972,0.180658 0.09375,0.25 0.05403,0.06935 0.114397,0.09376 0.1875,0.09375 0.09853,6e-6 0.231972,-0.118362 0.375,-0.34375 0.352796,-0.554779 0.851612,-0.843743 1.5,-0.84375 0.41954,7e-6 0.666825,0.132288 0.78125,0.375 0.04767,0.09969 0.08422,0.218063 0.09375,0.34375 0.0095,0.1257 0.02806,0.480804 0.03125,1.03125 l 0,0.78125 C 22.261086,18.6973 22.022268,18.565018 21.8125,18.5 c -0.209775,-0.06935 -0.445414,-0.09375 -0.71875,-0.09375 -0.667457,5e-6 -1.236174,0.242895 -1.6875,0.75 -0.38776,0.429095 -0.59375,0.989687 -0.59375,1.6875 0,0.581361 0.145576,1.078722 0.40625,1.5 l 1,0 0,0.90625 c 0.180155,0.06632 0.395149,0.09375 0.59375,0.09375 0.279694,0 0.557695,-0.08006 0.84375,-0.21875 0.289228,-0.138696 0.582587,-0.320691 0.875,-0.59375 l 0,0.65625 0.4375,0 0,-0.8125 1.71875,0 0,0.8125 0.5,0 c -0.117605,-0.277393 -0.183794,-0.511615 -0.21875,-0.75 -0.0318,-0.242718 -0.04397,-0.61698 -0.03125,-1.09375 l 0,-2.5625 c -7e-6,-0.667472 -0.03019,-1.141855 -0.09375,-1.40625 -0.06357,-0.264385 -0.227734,-0.506365 -0.4375,-0.71875 -0.483116,-0.48543 -1.292762,-0.718742 -2.46875,-0.71875 -0.178784,2e-6 -0.337961,-0.01764 -0.5,0 z m 0.15625,3 c 0.219304,5e-6 0.537024,0.133196 0.9375,0.40625 L 22.5,22 c -0.149387,0.195042 -0.287587,0.347392 -0.46875,0.46875 -0.177991,0.117026 -0.353799,0.187501 -0.5,0.1875 -0.184348,1e-6 -0.28072,-0.113123 -0.3125,-0.3125 -0.01272,-0.07368 -0.02806,-0.282593 -0.03125,-0.625 l 0,-1.5625 c -3e-6,-0.520108 -5.4e-4,-0.829139 0.03125,-0.9375 0.05721,-0.199371 0.190653,-0.281245 0.375,-0.28125 z"
       style="font-size:30.5942955px;font-style:normal;font-variant:normal;font-weight:normal;font-stretch:normal;line-height:125%;letter-spacing:0px;word-spacing:0px;fill:#3551ae;fill-opacity:1;stroke:none;font-family:Broadway;-inkscape-font-specification:Broadway"
       inkscape:connector-curvature="0" />
    <path
       id="path3042"
       d="m 26.03125,14.3125 0,0.46875 0.03125,1.4375 0,1.3125 0,2.46875 -0.03125,1.84375 0,1.0625 0,0.28125 0.71875,0 0,-0.34375 1.71875,0 -0.03125,-3.125 0.03125,-1.78125 0,-1 0,-2.28125 0,-0.34375 -2.4375,0 z"
       style="font-size:30.5942955px;font-style:normal;font-variant:normal;font-weight:normal;font-stretch:normal;line-height:125%;letter-spacing:0px;word-spacing:0px;fill:#3551ae;fill-opacity:1;stroke:none;font-family:Broadway;-inkscape-font-specification:Broadway"
       inkscape:connector-curvature="0" />
    <path
       inkscape:connector-curvature="0"
       style="font-size:30.5942955px;font-style:normal;font-variant:normal;font-weight:normal;font-stretch:normal;line-height:125%;letter-spacing:0px;word-spacing:0px;fill:#3551ae;fill-opacity:1;stroke:none;font-family:Broadway;-inkscape-font-specification:Broadway"
       d="m 32.375284,15.925275 c -0.715133,8e-6 -1.295627,0.141883 -1.746952,0.419269 -0.473577,0.290402 -0.710428,0.565485 -0.710427,0.838537 -1e-6,0.09102 0.02749,0.175231 0.08152,0.244573 0.05403,0.06935 0.113238,0.104823 0.186342,0.104817 0.09853,6e-6 0.229655,-0.112356 0.372683,-0.337744 0.352796,-0.554779 0.842345,-0.83853 1.490733,-0.838537 0.41954,7e-6 0.689173,0.118325 0.803598,0.361037 0.04767,0.09969 0.08363,0.223703 0.09317,0.34939 0.0095,0.1257 0.0085,0.462787 0.01165,1.013233 l 0,0.791952 c -0.270164,-0.1777 -0.512306,-0.307665 -0.722074,-0.372683 -0.209775,-0.06935 -0.448737,-0.09317 -0.722074,-0.09317 -0.667456,5e-6 -1.225748,0.249908 -1.677074,0.757013 -0.38776,0.429095 -0.582318,0.990907 -0.582317,1.68872 -1e-6,0.788837 0.24214,1.427543 0.722073,1.921648 0.368689,0.377081 0.784229,0.570671 1.257806,0.570671 0.279694,0 0.564128,-0.07094 0.850184,-0.209634 0.289227,-0.138696 0.581063,-0.344198 0.873476,-0.617257 l 0,0.675489 0.174695,0 0,-0.500793 1.712014,0 0,0.500793 0.780305,0 c -0.117606,-0.277393 -0.186325,-0.530274 -0.221281,-0.768659 -0.0318,-0.242718 -0.04766,-0.606341 -0.03494,-1.083111 l 0,-2.573843 c -6e-6,-0.667472 -0.02961,-1.133167 -0.09317,-1.397562 -0.06357,-0.264385 -0.197857,-0.509689 -0.407623,-0.722074 -0.483116,-0.48543 -1.31633,-0.722066 -2.492319,-0.722074 z m -0.337744,3.004758 c 0.219304,5e-6 0.531231,0.134569 0.931708,0.407623 l -0.01165,2.655368 c -0.149387,0.195042 -0.31963,0.356142 -0.500793,0.4775 -0.177991,0.117026 -0.342945,0.174696 -0.489147,0.174695 -0.184347,10e-7 -0.282671,-0.103428 -0.314451,-0.302805 -0.01272,-0.07368 -0.0201,-0.274849 -0.02329,-0.617256 l 0,-1.560611 c -3e-6,-0.520108 0.0148,-0.834994 0.04659,-0.943355 0.05721,-0.199371 0.17669,-0.291154 0.361037,-0.291159 z"
       id="path3044" />
    <rect
       style="color:#000000;fill:#3551ae;fill-opacity:1;fill-rule:nonzero;stroke:#000000;stroke-width:0;stroke-linecap:butt;stroke-linejoin:miter;stroke-miterlimit:4;stroke-opacity:1;stroke-dasharray:none;stroke-dashoffset:0;marker:none;visibility:visible;display:inline;overflow:visible;enable-background:accumulate"
       id="rect3048"
       width="1.7154645"
       height="1.4409901"
       x="22.973732"
       y="23.125376" />
    <rect
       y="24.341633"
       x="26.747753"
       height="1.4409901"
       width="1.7154645"
       id="rect3052"
       style="color:#000000;fill:#3551ae;fill-opacity:1;fill-rule:nonzero;stroke:#000000;stroke-width:0;stroke-linecap:butt;stroke-linejoin:miter;stroke-miterlimit:4;stroke-opacity:1;stroke-dasharray:none;stroke-dashoffset:0;marker:none;visibility:visible;display:inline;overflow:visible;enable-background:accumulate" />
    <rect
       style="color:#000000;fill:#3551ae;fill-opacity:1;fill-rule:nonzero;stroke:#000000;stroke-width:0;stroke-linecap:butt;stroke-linejoin:miter;stroke-miterlimit:4;stroke-opacity:1;stroke-dasharray:none;stroke-dashoffset:0;marker:none;visibility:visible;display:inline;overflow:visible;enable-background:accumulate"
       id="rect3054"
       width="1.7154645"
       height="2.5388873"
       x="24.689196"
       y="25.027819" />
    <rect
       y="23.998541"
       x="19.817276"
       height="1.4409901"
       width="1.7154645"
       id="rect3056"
       style="color:#000000;fill:#3551ae;fill-opacity:1;fill-rule:nonzero;stroke:#000000;stroke-width:0;stroke-linecap:butt;stroke-linejoin:miter;stroke-miterlimit:4;stroke-opacity:1;stroke-dasharray:none;stroke-dashoffset:0;marker:none;visibility:visible;display:inline;overflow:visible;enable-background:accumulate" />
    <rect
       y="26.007355"
       x="18.033194"
       height="1.4409901"
       width="1.7154645"
       id="rect3061"
       style="color:#000000;fill:#3551ae;fill-opacity:1;fill-rule:nonzero;stroke:#000000;stroke-width:0;stroke-linecap:butt;stroke-linejoin:miter;stroke-miterlimit:4;stroke-opacity:1;stroke-dasharray:none;stroke-dashoffset:0;marker:none;visibility:visible;display:inline;overflow:visible;enable-background:accumulate" />
    <rect
       style="color:#000000;fill:#3551ae;fill-opacity:1;fill-rule:nonzero;stroke:#000000;stroke-width:0;stroke-linecap:butt;stroke-linejoin:miter;stroke-miterlimit:4;stroke-opacity:1;stroke-dasharray:none;stroke-dashoffset:0;marker:none;visibility:visible;display:inline;overflow:visible;enable-background:accumulate"
       id="rect3063"
       width="1.7154645"
       height="1.4409901"
       x="21.875834"
       y="25.988478" />
    <rect
       y="27.978418"
       x="20.091753"
       height="1.0978972"
       width="1.7154645"
       id="rect3065"
       style="color:#000000;fill:#3551ae;fill-opacity:1;fill-rule:nonzero;stroke:#000000;stroke-width:0;stroke-linecap:butt;stroke-linejoin:miter;stroke-miterlimit:4;stroke-opacity:1;stroke-dasharray:none;stroke-dashoffset:0;marker:none;visibility:visible;display:inline;overflow:visible;enable-background:accumulate" />
    <rect
       style="color:#000000;fill:#3551ae;fill-opacity:1;fill-rule:nonzero;stroke:#000000;stroke-width:0;stroke-linecap:butt;stroke-linejoin:miter;stroke-miterlimit:4;stroke-opacity:1;stroke-dasharray:none;stroke-dashoffset:0;marker:none;visibility:visible;display:inline;overflow:visible;enable-background:accumulate"
       id="rect3067"
       width="1.7154645"
       height="0.75480431"
       x="15.494307"
       y="25.096436" />
    <rect
       style="color:#000000;fill:#3551ae;fill-opacity:1;fill-rule:nonzero;stroke:#000000;stroke-width:0;stroke-linecap:butt;stroke-linejoin:miter;stroke-miterlimit:4;stroke-opacity:1;stroke-dasharray:none;stroke-dashoffset:0;marker:none;visibility:visible;display:inline;overflow:visible;enable-background:accumulate"
       id="rect3069"
       width="1.7154645"
       height="1.4409901"
       x="27.159466"
       y="26.743282" />
    <rect
       y="29.556646"
       x="27.708412"
       height="2.0585573"
       width="1.7154645"
       id="rect3071"
       style="color:#000000;fill:#3551ae;fill-opacity:1;fill-rule:nonzero;stroke:#000000;stroke-width:0;stroke-linecap:butt;stroke-linejoin:miter;stroke-miterlimit:4;stroke-opacity:1;stroke-dasharray:none;stroke-dashoffset:0;marker:none;visibility:visible;display:inline;overflow:visible;enable-background:accumulate" />
    <rect
       style="color:#000000;fill:#3551ae;fill-opacity:1;fill-rule:nonzero;stroke:#000000;stroke-width:0;stroke-linecap:butt;stroke-linejoin:miter;stroke-miterlimit:4;stroke-opacity:1;stroke-dasharray:none;stroke-dashoffset:0;marker:none;visibility:visible;display:inline;overflow:visible;enable-background:accumulate"
       id="rect3073"
       width="1.7154645"
       height="1.4409901"
       x="22.836493"
       y="28.527367" />
    <rect
       y="28.801842"
       x="25.649858"
       height="1.2351344"
       width="1.7154645"
       id="rect3075"
       style="color:#000000;fill:#3551ae;fill-opacity:1;fill-rule:nonzero;stroke:#000000;stroke-width:0;stroke-linecap:butt;stroke-linejoin:miter;stroke-miterlimit:4;stroke-opacity:1;stroke-dasharray:none;stroke-dashoffset:0;marker:none;visibility:visible;display:inline;overflow:visible;enable-background:accumulate" />
    <rect
       y="24.753344"
       x="29.561117"
       height="1.9213201"
       width="1.7154645"
       id="rect3077"
       style="color:#000000;fill:#3551ae;fill-opacity:1;fill-rule:nonzero;stroke:#000000;stroke-width:0;stroke-linecap:butt;stroke-linejoin:miter;stroke-miterlimit:4;stroke-opacity:1;stroke-dasharray:none;stroke-dashoffset:0;marker:none;visibility:visible;display:inline;overflow:visible;enable-background:accumulate" />
    <rect
       style="color:#000000;fill:#3551ae;fill-opacity:1;fill-rule:nonzero;stroke:#000000;stroke-width:0;stroke-linecap:butt;stroke-linejoin:miter;stroke-miterlimit:4;stroke-opacity:1;stroke-dasharray:none;stroke-dashoffset:0;marker:none;visibility:visible;display:inline;overflow:visible;enable-background:accumulate"
       id="rect3079"
       width="1.7154645"
       height="1.2351344"
       x="29.218023"
       y="28.047035" />
    <rect
       style="color:#000000;fill:#3551ae;fill-opacity:1;fill-rule:nonzero;stroke:#000000;stroke-width:0;stroke-linecap:butt;stroke-linejoin:miter;stroke-miterlimit:4;stroke-opacity:1;stroke-dasharray:none;stroke-dashoffset:0;marker:none;visibility:visible;display:inline;overflow:visible;enable-background:accumulate"
       id="rect3084"
       width="1.7154645"
       height="1.2351344"
       x="33.197903"
       y="23.724066" />
    <rect
       y="25.165056"
       x="31.825529"
       height="0.82342285"
       width="1.7154645"
       id="rect3086"
       style="color:#000000;fill:#3551ae;fill-opacity:1;fill-rule:nonzero;stroke:#000000;stroke-width:0;stroke-linecap:butt;stroke-linejoin:miter;stroke-miterlimit:4;stroke-opacity:1;stroke-dasharray:none;stroke-dashoffset:0;marker:none;visibility:visible;display:inline;overflow:visible;enable-background:accumulate" />
    <rect
       y="26.880522"
       x="31.551052"
       height="1.4409901"
       width="1.7154645"
       id="rect3088"
       style="color:#000000;fill:#3551ae;fill-opacity:1;fill-rule:nonzero;stroke:#000000;stroke-width:0;stroke-linecap:butt;stroke-linejoin:miter;stroke-miterlimit:4;stroke-opacity:1;stroke-dasharray:none;stroke-dashoffset:0;marker:none;visibility:visible;display:inline;overflow:visible;enable-background:accumulate" />
  </g>
</svg>
