<?xml version="1.0" encoding="UTF-8" standalone="no"?>
<!-- Created using Karbon, part of Calligra: http://www.calligra.org/karbon -->

<svg
   xmlns:dc="http://purl.org/dc/elements/1.1/"
   xmlns:cc="http://creativecommons.org/ns#"
   xmlns:rdf="http://www.w3.org/1999/02/22-rdf-syntax-ns#"
   xmlns:svg="http://www.w3.org/2000/svg"
   xmlns="http://www.w3.org/2000/svg"
   xmlns:sodipodi="http://sodipodi.sourceforge.net/DTD/sodipodi-0.dtd"
   xmlns:inkscape="http://www.inkscape.org/namespaces/inkscape"
   width="38.4pt"
   height="38.4pt"
   id="svg2"
   version="1.1"
   inkscape:version="0.48.4 r9939"
   sodipodi:docname="text-xmcd.svg">
  <metadata
     id="metadata17">
    <rdf:RDF>
      <cc:Work
         rdf:about="">
        <dc:format>image/svg+xml</dc:format>
        <dc:type
           rdf:resource="http://purl.org/dc/dcmitype/StillImage" />
        <dc:title></dc:title>
      </cc:Work>
    </rdf:RDF>
  </metadata>
  <sodipodi:namedview
     pagecolor="#ffffff"
     bordercolor="#666666"
     borderopacity="1"
     objecttolerance="10"
     gridtolerance="10"
     guidetolerance="10"
     inkscape:pageopacity="0"
     inkscape:pageshadow="2"
     inkscape:window-width="1366"
     inkscape:window-height="709"
     id="namedview15"
     showgrid="false"
     inkscape:zoom="13.906433"
     inkscape:cx="23.270775"
     inkscape:cy="26.689486"
     inkscape:current-layer="svg2"
     inkscape:window-x="0"
     inkscape:window-y="-3"
     inkscape:window-maximized="1" />
  <defs
     id="defs4" />
  <g
     id="layer1"
     transform="matrix(1.1422276,0,0,0.91859617,-3.4236888,1.9536064)">
    <path
       id="rect4090"
       transform="translate(7,4)"
       d="M 0,0 0,40 34,40 34.143818,-0.00210213 23,0 z"
       inkscape:connector-curvature="0"
       style="fill:#ecf0f1"
       sodipodi:nodetypes="cccccc" />
    <rect
       id="line2"
       transform="translate(12.3038,16.1417)"
       stroke-miterlimit="2.01260185242"
       width="23.362026"
       height="3.1810868"
       x="0"
       y="0"
       style="fill:#7f8c8d;fill-rule:evenodd;stroke:#003bc3;stroke-width:0;stroke-linecap:square;stroke-linejoin:miter;stroke-miterlimit:2.01260185" />
    <rect
       id="line"
       stroke-miterlimit="2.00000000000"
       width="17.642252"
       height="3.1810868"
       x="15.178874"
       y="9.7795401"
       style="fill:#7f8c8d;fill-rule:evenodd;stroke:#003bc3;stroke-width:0;stroke-linecap:square;stroke-linejoin:miter;stroke-miterlimit:2" />
    <rect
       id="line21"
       transform="translate(12.2953,22.5039)"
       stroke-miterlimit="2.00000000000"
       width="23.362026"
       height="3.1810868"
       x="0"
       y="0"
       style="fill:#7f8c8d;fill-rule:evenodd;stroke:#003bc3;stroke-width:0;stroke-linecap:square;stroke-linejoin:miter;stroke-miterlimit:2" />
    <rect
       id="line22"
       transform="translate(12.3392,28.8661)"
       stroke-miterlimit="2.00000000000"
       width="23.362026"
       height="3.1810868"
       x="0"
       y="0"
       style="fill:#7f8c8d;fill-rule:evenodd;stroke:#003bc3;stroke-width:0;stroke-linecap:square;stroke-linejoin:miter;stroke-miterlimit:2" />
    <rect
       id="line23"
       transform="translate(12.3307,35.2282)"
       stroke-miterlimit="2.00000000000"
       width="23.362026"
       height="3.1810868"
       x="0"
       y="0"
       style="fill:#7f8c8d;fill-rule:evenodd;stroke:#003bc3;stroke-width:0;stroke-linecap:square;stroke-linejoin:miter;stroke-miterlimit:2" />
  </g>
  <g
     transform="matrix(0.5354492,0,0,0.53404849,15.682174,13.092393)"
     id="layer0">
    <path
       style="fill:#cccccc;fill-rule:evenodd;stroke:#003bc3;stroke-width:0;stroke-linecap:square;stroke-linejoin:miter;stroke-miterlimit:2"
       inkscape:connector-curvature="0"
       id="shape011"
       transform="translate(4,4)"
       stroke-miterlimit="2.00000000000"
       d="M 20,0 C 8.95035,0 0,8.95035 0,20 0,31.0497 8.95035,40 20,40 31.0497,40 40,31.0497 40,20 40,8.95035 31.0497,0 20,0 z m 0,16.7188 c 1.8183,0 3.2812,1.4629 3.2812,3.2812 0,1.8183 -1.4629,3.2812 -3.2812,3.2812 -1.8183,0 -3.2812,-1.4629 -3.2812,-3.2812 0,-1.8183 1.4629,-3.2812 3.2812,-3.2812 z" />
    <path
       style="fill:#2ebe45;fill-opacity:1;fill-rule:evenodd;stroke:#003bc3;stroke-width:0;stroke-linecap:square;stroke-linejoin:miter;stroke-miterlimit:2"
       inkscape:connector-curvature="0"
       id="shape11"
       transform="translate(16.375,16.375)"
       stroke-miterlimit="2.00000000000"
       d="M 7.625,0 C 3.4196,0 0,3.4196 0,7.625 c 0,4.2053 3.4196,7.625 7.625,7.625 4.2053,0 7.625,-3.4197 7.625,-7.625 C 15.25,3.4196 11.8303,0 7.625,0 z m 0,4.34375 c 1.81833,0 3.2812,1.46292 3.2812,3.28125 0,1.81833 -1.46287,3.2812 -3.2812,3.2812 -1.81833,0 -3.28125,-1.46287 -3.28125,-3.2812 0,-1.81833 1.46292,-3.28125 3.28125,-3.28125 z" />
    <path
       style="fill:#f2f2f2;fill-rule:evenodd;stroke:#003bc3;stroke-width:0;stroke-linecap:square;stroke-linejoin:bevel;stroke-dasharray:none"
       inkscape:connector-curvature="0"
       id="shape0"
       transform="translate(29.0068,29.2245)"
       d="M 0,2.18482 C 1.34004,1.2549 1.72047,0.660859 2.25005,0 L 10.1497,5.63583 C 8.95572,7.48594 7.54508,9.09863 5.60066,10.2041 z" />
    <path
       style="fill:#f2f2f2;fill-rule:evenodd;stroke:#003bc3;stroke-width:0;stroke-linecap:square;stroke-linejoin:bevel;stroke-dasharray:none"
       inkscape:connector-curvature="0"
       id="shape1"
       transform="matrix(-1,0,0,-1,18.9749,18.8407)"
       d="M 0,2.2294 C 1.36009,1.28051 1.74622,0.674346 2.28372,0 L 10.3016,5.75084 C 9.08976,7.63871 7.65799,9.28431 5.68447,10.4123 z" />
    <path
       style="fill:#2ebe45;fill-opacity:1;fill-rule:evenodd"
       inkscape:connector-curvature="0"
       id="path4112"
       transform="translate(27.707,12.2507)"
       d="M 9.20054,3.78685e-5 9.20054,24.304 C 8.19816,23.3426 6.89102,22.721 5.51671,22.7211 2.62609,22.7213 0,25.4275 0,28.4014 c 0,2.9741 2.62609,5.68 5.51671,5.6802 2.89065,3e-4 5.52389,-2.7059 5.52389,-5.6802 l 0,-20.09916 c 3.8504,2.37646 6.2499,6.73876 6.2499,11.39016 0,1.1959 -0.1919,2.3687 -0.5283,3.4984 1.0306,-1.873 1.6317,-3.9812 1.6317,-6.1499 0,-3.4735 -1.1557,-6.7865 -3.5401,-9.23048 -1.1,-1.12758 -3.773,-3.21484 -3.8132,-7.714234 L 11.0406,0 11.0333,0 9.20038,0 z" />
  </g>
</svg>
