<?xml version="1.0" encoding="UTF-8" standalone="no"?>
<!-- Created using Karbon, part of Calligra: http://www.calligra.org/karbon -->

<svg
   xmlns:dc="http://purl.org/dc/elements/1.1/"
   xmlns:cc="http://creativecommons.org/ns#"
   xmlns:rdf="http://www.w3.org/1999/02/22-rdf-syntax-ns#"
   xmlns:svg="http://www.w3.org/2000/svg"
   xmlns="http://www.w3.org/2000/svg"
   xmlns:sodipodi="http://sodipodi.sourceforge.net/DTD/sodipodi-0.dtd"
   xmlns:inkscape="http://www.inkscape.org/namespaces/inkscape"
   width="38.4pt"
   height="38.4pt"
   id="svg2"
   version="1.1"
   inkscape:version="0.48.4 r9939"
   sodipodi:docname="unknown.svg">
  <metadata
     id="metadata14">
    <rdf:RDF>
      <cc:Work
         rdf:about="">
        <dc:format>image/svg+xml</dc:format>
        <dc:type
           rdf:resource="http://purl.org/dc/dcmitype/StillImage" />
      </cc:Work>
    </rdf:RDF>
  </metadata>
  <sodipodi:namedview
     pagecolor="#ffffff"
     bordercolor="#666666"
     borderopacity="1"
     objecttolerance="10"
     gridtolerance="10"
     guidetolerance="10"
     inkscape:pageopacity="0"
     inkscape:pageshadow="2"
     inkscape:window-width="640"
     inkscape:window-height="480"
     id="namedview12"
     showgrid="false"
     inkscape:zoom="15.639757"
     inkscape:cx="25.861395"
     inkscape:cy="23.435388"
     inkscape:current-layer="svg2" />
  <defs
     id="defs4" />
  <g
     id="layer1"
     transform="matrix(1.1470591,0,0,0.91864444,-3.5294177,1.9525339)">
    <path
       id="rect4090"
       transform="translate(7,4)"
       d="M 0,0 0,40 34,40 34,0.06632609 23,0 z"
       inkscape:connector-curvature="0"
       style="fill:#ecf0f1"
       sodipodi:nodetypes="cccccc" />
    <g
       id="g846"
       transform="translate(12.4596,1.68112)"
       style="fill:none">
      <path
         id="path829"
         transform="translate(4.84647,13.557)"
         d="m 6.4286,16.5442 c 1.18351,0 2.14292,0.9257 2.14292,2.068 0,1.1424 -0.95941,2.0681 -2.14292,2.0681 -1.18346,0 -2.14286,-0.9257 -2.14286,-2.0681 0,-1.1423 0.9594,-2.068 2.14286,-2.068 z M 6.85718,0 c 3.78712,0 6.85712,2.36396 6.85712,5.79048 0,1.24081 -0.8571,3.30884 -2.5713,4.13605 C 9.42856,10.7537 8.57152,11.8646 8.57152,13.2354 l 0,1.6544 -4.28578,0 0,-1.2408 c 0,-2.8133 2.57144,-4.54968 3.42857,-5.37689 1.71425,-1.65442 1.71425,-1.88397 1.71425,-2.48163 0,-1.37076 -1.15126,-2.48164 -2.57138,-2.48164 -1.42019,0 -2.57144,1.11088 -2.57144,2.48164 l 0,1.24081 L 0,7.03129 0,6.20408 C 7.14288e-7,2.77757 3.07008,0 6.85718,0 z"
         inkscape:connector-curvature="0"
         style="fill:#bdc3c7" />
    </g>
  </g>
</svg>
