<?xml version="1.0" encoding="UTF-8" standalone="no"?>
<!-- Created using Karbon, part of Calligra: http://www.calligra.org/karbon -->

<svg
   xmlns:dc="http://purl.org/dc/elements/1.1/"
   xmlns:cc="http://creativecommons.org/ns#"
   xmlns:rdf="http://www.w3.org/1999/02/22-rdf-syntax-ns#"
   xmlns:svg="http://www.w3.org/2000/svg"
   xmlns="http://www.w3.org/2000/svg"
   xmlns:xlink="http://www.w3.org/1999/xlink"
   xmlns:sodipodi="http://sodipodi.sourceforge.net/DTD/sodipodi-0.dtd"
   xmlns:inkscape="http://www.inkscape.org/namespaces/inkscape"
   width="38.4pt"
   height="38.4pt"
   id="svg2"
   version="1.1"
   inkscape:version="0.48.5 r10040"
   sodipodi:docname="package-x-generic.svg">
  <metadata
     id="metadata15">
    <rdf:RDF>
      <cc:Work
         rdf:about="">
        <dc:format>image/svg+xml</dc:format>
        <dc:type
           rdf:resource="http://purl.org/dc/dcmitype/StillImage" />
        <dc:title></dc:title>
      </cc:Work>
    </rdf:RDF>
  </metadata>
  <sodipodi:namedview
     pagecolor="#ffffff"
     bordercolor="#666666"
     borderopacity="1"
     objecttolerance="10"
     gridtolerance="10"
     guidetolerance="10"
     inkscape:pageopacity="0"
     inkscape:pageshadow="2"
     inkscape:window-width="971"
     inkscape:window-height="706"
     id="namedview13"
     showgrid="false"
     inkscape:zoom="6.9532165"
     inkscape:cx="-1.7731012"
     inkscape:cy="39.24551"
     inkscape:current-layer="svg2"
     inkscape:window-x="188"
     inkscape:window-y="45"
     inkscape:window-maximized="0" />
  <defs
     id="defs4">
    <linearGradient
       x1="8"
       y1="38.127232"
       x2="8"
       y2="71.877235"
       id="linearGradient4376"
       xlink:href="#linearGradient4370"
       gradientUnits="userSpaceOnUse" />
    <linearGradient
       id="linearGradient4370">
      <stop
         id="stop4372"
         style="stop-color:#8a5b30;stop-opacity:1"
         offset="0" />
      <stop
         id="stop4374"
         style="stop-color:#8a5b30;stop-opacity:0"
         offset="1" />
    </linearGradient>
  </defs>
  <g
     id="layer1"
     transform="matrix(1.1470591,0,0,0.91864444,-3.5294177,1.9525339)">
    <path
       id="rect4090"
       transform="translate(7,4)"
       d="M 0,0 0,40 34,40 34,0.06980703 23,0 z"
       inkscape:connector-curvature="0"
       style="fill:#ecf0f1"
       sodipodi:nodetypes="cccccc" />
  </g>
  <g
     transform="matrix(0.32786727,0,0,0.32786727,8.262371,8.6402274)"
     id="layer1-9"
     style="display:inline">
    <path
       d="m 6,36 0,48 c 0,1.781762 0.7745675,3.371709 2,4.46875 L 8,36 6,36 z"
       inkscape:connector-curvature="0"
       id="rect5138"
       style="fill:url(#linearGradient4376);fill-opacity:1;fill-rule:nonzero;stroke:none" />
    <rect
       width="84"
       height="84"
       rx="6"
       ry="0"
       x="6"
       y="6"
       id="rect2419"
       style="fill:#ccaa7d;fill-opacity:1;fill-rule:nonzero;stroke:none" />
    <rect
       width="82.104904"
       height="24"
       rx="5.8646359"
       ry="6"
       x="6.8614073"
       y="18"
       id="rect2483"
       style="fill:#3c2510;fill-opacity:1;fill-rule:nonzero;stroke:none" />
    <path
       d="M 12.769113,6.081611 C 6.6184327,6.2022902 6.6029851,6.0966084 6.6029851,12.068022 l 0,23.945644 c 0,6.012344 0.2509686,5.851617 6.1661279,5.986411 l 36.996772,-1.995471 0,-35.9184653 z"
       inkscape:connector-curvature="0"
       id="rect2481"
       style="fill:#ccaa7d;fill-opacity:1;fill-rule:nonzero;stroke:none"
       sodipodi:nodetypes="csscccc" />
    <path
       d="m 83.66159,6.081611 c 5.521248,0.1206792 5.649284,0.1356765 5.649284,5.986411 l 0,23.945644 c 0,6.147138 -0.484337,6.121205 -5.649284,5.986411 l -33.895705,-1.995471 0,-35.9184653 z"
       inkscape:connector-curvature="0"
       id="path3262"
       style="fill:#ccaa7d;fill-opacity:1;fill-rule:nonzero;stroke:none"
       sodipodi:nodetypes="csscccc" />
    <path
       d="m 54.120367,4.2665511 -12.120366,0 0.06018,25.3032209 L 42.194833,60 l 5.686841,-0.520245 6.043861,-0.552425 0.03264,-5.837472 0.102007,-23.520086 0.06018,-25.3032209 z"
       inkscape:connector-curvature="0"
       id="path5008"
       style="opacity:0.5;fill:#3a240f;fill-opacity:1;display:inline" />
    <path
       d="M 54.060184,4.1388654 48.000001,3.6950648 41.939817,4.1388654 42.000001,29.940506 42.134649,59 l 5.686841,-0.49681 6.043862,-0.527542 0.03264,-5.574522 0.102006,-22.46062 0.06018,-25.8016406 z"
       inkscape:connector-curvature="0"
       id="polygon120"
       style="fill:#d8cab2;fill-opacity:1;display:inline" />
    <rect
       width="1"
       height="35.714287"
       x="47"
       y="4.1250005"
       id="rect4363"
       style="opacity:0.2;fill:#8d6137;fill-opacity:1;fill-rule:nonzero;stroke:none;display:inline" />
    <rect
       width="1"
       height="35.714287"
       x="48"
       y="4.1250005"
       id="rect4365"
       style="opacity:0.2;fill:#ffffff;fill-opacity:1;fill-rule:nonzero;stroke:none;display:inline" />
  </g>
  <path
     style="fill:#3c2510;fill-opacity:1;stroke:none"
     d="m 26.98017,27.848902 0,8.374526 8.888273,0 0,-1.116594 0,-7.257932 -8.888273,0 z m 1.185104,1.116594 6.518065,0 0,4.466424 -2.370205,-3.349807 -1.659607,2.344428 -0.414323,-0.669513 -2.07393,3.349806 0,-6.141338 z"
     id="rect3261"
     inkscape:connector-curvature="0" />
</svg>
