<?xml version="1.0" encoding="UTF-8" standalone="no"?>
<!-- Created using Karbon, part of Calligra: http://www.calligra.org/karbon -->

<svg
   xmlns:dc="http://purl.org/dc/elements/1.1/"
   xmlns:cc="http://creativecommons.org/ns#"
   xmlns:rdf="http://www.w3.org/1999/02/22-rdf-syntax-ns#"
   xmlns:svg="http://www.w3.org/2000/svg"
   xmlns="http://www.w3.org/2000/svg"
   xmlns:sodipodi="http://sodipodi.sourceforge.net/DTD/sodipodi-0.dtd"
   xmlns:inkscape="http://www.inkscape.org/namespaces/inkscape"
   width="38.4pt"
   height="38.4pt"
   id="svg2"
   version="1.1"
   inkscape:version="0.48.4 r9939"
   sodipodi:docname="x-media-podcast.svg">
  <metadata
     id="metadata14">
    <rdf:RDF>
      <cc:Work
         rdf:about="">
        <dc:format>image/svg+xml</dc:format>
        <dc:type
           rdf:resource="http://purl.org/dc/dcmitype/StillImage" />
      </cc:Work>
    </rdf:RDF>
  </metadata>
  <sodipodi:namedview
     pagecolor="#ffffff"
     bordercolor="#666666"
     borderopacity="1"
     objecttolerance="10"
     gridtolerance="10"
     guidetolerance="10"
     inkscape:pageopacity="0"
     inkscape:pageshadow="2"
     inkscape:window-width="640"
     inkscape:window-height="480"
     id="namedview12"
     showgrid="false"
     inkscape:zoom="12.865278"
     inkscape:cx="25.627119"
     inkscape:cy="24.242254"
     inkscape:current-layer="svg2" />
  <defs
     id="defs4" />
  <g
     id="layer1"
     transform="matrix(1.1470591,0,0,0.91864444,-3.5294177,1.9525339)">
    <path
       id="rect4090"
       transform="translate(7,4)"
       d="M 0,0 0,40 34,40 33.922271,0.04026773 23,0 z"
       inkscape:connector-curvature="0"
       style="fill:#ecf0f1"
       sodipodi:nodetypes="cccccc" />
    <g
       id="Icon"
       transform="translate(34.8253,0.652061)"
       style="fill:none">
      <path
         id="Podcast"
         transform="translate(-20.6757,14.4772)"
         d="m 10.34,12.1486 c 1.4296,0 2.5886,-1.0889 2.5886,-2.43227 0,-1.34327 -1.1589,-2.43227 -2.5886,-2.43227 -1.42952,0 -2.58836,1.089 -2.58836,2.43227 0,1.34337 1.15891,2.43227 2.58836,2.43227 z m 0,-8.50989 c -3.57196,0 -6.46763,2.72103 -6.46763,6.07755 0,1.63234 0.68503,3.11424 1.7994,4.20604 C 5.99063,13.4401 6.43093,12.9807 7.03803,12.6284 6.27718,11.867 5.81031,10.8431 5.81031,9.71626 c 0,-2.35081 2.02804,-4.25649 4.52969,-4.25649 2.5019,0 4.5298,1.90568 4.5298,4.25649 0,1.12934 -0.4689,2.15514 -1.2327,2.91704 0.6061,0.3535 1.0452,0.814 1.3631,1.2971 1.1193,-1.0928 1.8076,-2.5777 1.8076,-4.21414 0,-3.35645 -2.8956,-6.07755 -6.4678,-6.07755 z M 10.34,0 C 4.62937,0 0,4.35018 0,9.71633 0,13.2183 1.97193,16.2871 4.92903,17.9971 4.87016,17.576 4.83245,17.1242 4.83245,16.6562 c 0,0 -0.00283,-0.3619 0.10071,-0.8844 -1.83731,-1.45 -3.00549,-3.6244 -3.00549,-6.05547 0,-4.3658 3.76633,-7.90491 8.41243,-7.90491 4.6461,0 8.4125,3.53911 8.4125,7.90491 0,2.43617 -1.1731,4.61467 -3.0172,6.06477 0.1016,0.5175 0.0989,0.875 0.0989,0.875 0,0.4712 -0.0382,0.9261 -0.0977,1.3494 2.9653,-1.7082 4.9437,-4.7814 4.9437,-8.28917 C 20.6802,4.35012 16.0508,0 10.34,0 z m 0,13.3647 c -5.77512,0 -3.55906,8.4618 -3.55906,10.3088 l 7.11826,0 c 0,-1.847 2.216,-10.3088 -3.5592,-10.3088 z m 0,0"
         inkscape:connector-curvature="0"
         style="fill:#8e44ad;fill-rule:evenodd" />
    </g>
  </g>
</svg>
