<?xml version="1.0" encoding="UTF-8" standalone="no"?>
<!-- Created with Inkscape (http://www.inkscape.org/) -->

<svg
   xmlns:dc="http://purl.org/dc/elements/1.1/"
   xmlns:cc="http://creativecommons.org/ns#"
   xmlns:rdf="http://www.w3.org/1999/02/22-rdf-syntax-ns#"
   xmlns:svg="http://www.w3.org/2000/svg"
   xmlns="http://www.w3.org/2000/svg"
   xmlns:sodipodi="http://sodipodi.sourceforge.net/DTD/sodipodi-0.dtd"
   xmlns:inkscape="http://www.inkscape.org/namespaces/inkscape"
   id="svg2"
   version="1.1"
   inkscape:version="0.48.4 r9939"
   width="64"
   height="64"
   sodipodi:docname="CORREO-1.svg">
  <metadata
     id="metadata8">
    <rdf:RDF>
      <cc:Work
         rdf:about="">
        <dc:format>image/svg+xml</dc:format>
        <dc:type
           rdf:resource="http://purl.org/dc/dcmitype/StillImage" />
        <dc:title></dc:title>
      </cc:Work>
    </rdf:RDF>
  </metadata>
  <defs
     id="defs6">
    <clipPath
       id="clipPath-054510414">
      <g
         id="g5365"
         transform="translate(0,-1004.3622)">
        <path
           id="path5367"
           fill="#1890d0"
           transform="matrix(15.333333,0,0,11.5,414.99999,878.8622)"
           d="m -24 13 c 0 1.105 -0.672 2 -1.5 2 -0.828 0 -1.5 -0.895 -1.5 -2 0 -1.105 0.672 -2 1.5 -2 0.828 0 1.5 0.895 1.5 2 z" />
      </g>
    </clipPath>
    <clipPath
       id="clipPath-049320422">
      <g
         id="g5360"
         transform="translate(0,-1004.3622)">
        <path
           id="path5362"
           fill="#1890d0"
           transform="matrix(15.333333,0,0,11.5,414.99999,878.8622)"
           d="m -24 13 c 0 1.105 -0.672 2 -1.5 2 -0.828 0 -1.5 -0.895 -1.5 -2 0 -1.105 0.672 -2 1.5 -2 0.828 0 1.5 0.895 1.5 2 z" />
      </g>
    </clipPath>
    <linearGradient
       gradientTransform="matrix(0,-1,1,0,-1.5e-6,47.999998)"
       gradientUnits="userSpaceOnUse"
       x2="47"
       x1="1"
       id="linearGradient3764">
      <stop
         id="stop5355"
         stop-opacity="1"
         stop-color="#e4e4e4" />
      <stop
         id="stop5357"
         stop-opacity="1"
         stop-color="#eee"
         offset="1" />
    </linearGradient>
    <clipPath
       id="clipPath-623308171">
      <g
         id="g8802"
         transform="translate(0,-1004.3622)">
        <path
           id="path8804"
           fill="#1890d0"
           transform="matrix(15.333333,0,0,11.5,414.99999,878.8622)"
           d="m -24 13 c 0 1.105 -0.672 2 -1.5 2 -0.828 0 -1.5 -0.895 -1.5 -2 0 -1.105 0.672 -2 1.5 -2 0.828 0 1.5 0.895 1.5 2 z" />
      </g>
    </clipPath>
    <clipPath
       id="clipPath-610374986">
      <g
         id="g8797"
         transform="translate(0,-1004.3622)">
        <path
           id="path8799"
           fill="#1890d0"
           transform="matrix(15.333333,0,0,11.5,414.99999,878.8622)"
           d="m -24 13 c 0 1.105 -0.672 2 -1.5 2 -0.828 0 -1.5 -0.895 -1.5 -2 0 -1.105 0.672 -2 1.5 -2 0.828 0 1.5 0.895 1.5 2 z" />
      </g>
    </clipPath>
    <linearGradient
       gradientTransform="matrix(0,-1,1,0,-1.5e-6,47.999998)"
       gradientUnits="userSpaceOnUse"
       x2="47"
       x1="1"
       id="linearGradient3764-8">
      <stop
         id="stop8792"
         stop-opacity="1"
         stop-color="#e6a712" />
      <stop
         id="stop8794"
         stop-opacity="1"
         stop-color="#edb020"
         offset="1" />
    </linearGradient>
    <linearGradient
       x2="47"
       x1="1"
       gradientTransform="matrix(0,-1,1,0,-1.5e-6,47.999998)"
       gradientUnits="userSpaceOnUse"
       id="linearGradient3126">
      <stop
         id="stop22448"
         stop-opacity="1"
         stop-color="#5ab133" />
      <stop
         id="stop22450"
         stop-opacity="1"
         stop-color="#63c038"
         offset="1" />
    </linearGradient>
    <clipPath
       id="clipPath22441">
      <g
         id="g22443"
         transform="translate(0,-1004.3622)">
        <path
           id="path22445"
           fill="#1890d0"
           transform="matrix(15.333333,0,0,11.5,414.99999,878.8622)"
           d="m -24 13 c 0 1.105 -0.672 2 -1.5 2 -0.828 0 -1.5 -0.895 -1.5 -2 0 -1.105 0.672 -2 1.5 -2 0.828 0 1.5 0.895 1.5 2 z" />
      </g>
    </clipPath>
    <clipPath
       id="clipPath-324598080">
      <g
         id="g22437"
         transform="translate(0,-1004.3622)">
        <path
           id="path22439"
           fill="#1890d0"
           transform="matrix(15.333333,0,0,11.5,414.99999,878.8622)"
           d="m -24 13 c 0 1.105 -0.672 2 -1.5 2 -0.828 0 -1.5 -0.895 -1.5 -2 0 -1.105 0.672 -2 1.5 -2 0.828 0 1.5 0.895 1.5 2 z" />
      </g>
    </clipPath>
    <linearGradient
       gradientTransform="matrix(0.115078,2.68729,-3.550921,0.0870898,-92.13101,122.46896)"
       x2="1"
       x1="0"
       gradientUnits="userSpaceOnUse"
       id="linearGradient24539">
      <stop
         id="stop24541"
         stop-opacity="1"
         stop-color="#fade17" />
      <stop
         id="stop24543"
         stop-opacity="1"
         stop-color="#f1511a"
         offset="1" />
    </linearGradient>
    <linearGradient
       gradientTransform="matrix(-0.0328728,-4.018518,5.309974,-0.0248777,-91.154216,125.14714)"
       x2="1"
       x1="0"
       gradientUnits="userSpaceOnUse"
       id="linearGradient24533">
      <stop
         id="stop24535"
         stop-opacity="1"
         stop-color="#ec2c20" />
      <stop
         id="stop24537"
         stop-opacity="1"
         stop-color="#fab218"
         offset="1" />
    </linearGradient>
    <linearGradient
       gradientTransform="matrix(0.115078,2.68729,-3.550921,0.0870898,-92.13101,122.46896)"
       x2="1"
       x1="0"
       gradientUnits="userSpaceOnUse"
       id="linear1">
      <stop
         id="stop24529"
         stop-opacity="1"
         stop-color="#fade17" />
      <stop
         id="stop24531"
         stop-opacity="1"
         stop-color="#f1511a"
         offset="1" />
    </linearGradient>
    <linearGradient
       gradientTransform="matrix(-0.0328728,-4.018518,5.309974,-0.0248777,-91.154216,125.14714)"
       x2="1"
       x1="0"
       gradientUnits="userSpaceOnUse"
       id="linear0">
      <stop
         id="stop24524"
         stop-opacity="1"
         stop-color="#ec2c20" />
      <stop
         id="stop24526"
         stop-opacity="1"
         stop-color="#fab218"
         offset="1" />
    </linearGradient>
    <clipPath
       id="clipPath-315841711">
      <g
         id="g24519"
         transform="translate(0,-1004.3622)">
        <path
           id="path24521"
           fill="#1890d0"
           transform="matrix(15.333333,0,0,11.5,414.99999,878.8622)"
           d="m -24 13 c 0 1.105 -0.672 2 -1.5 2 -0.828 0 -1.5 -0.895 -1.5 -2 0 -1.105 0.672 -2 1.5 -2 0.828 0 1.5 0.895 1.5 2 z" />
      </g>
    </clipPath>
    <clipPath
       id="clipPath-309962591">
      <g
         id="g24514"
         transform="translate(0,-1004.3622)">
        <path
           id="path24516"
           fill="#1890d0"
           transform="matrix(15.333333,0,0,11.5,414.99999,878.8622)"
           d="m -24 13 c 0 1.105 -0.672 2 -1.5 2 -0.828 0 -1.5 -0.895 -1.5 -2 0 -1.105 0.672 -2 1.5 -2 0.828 0 1.5 0.895 1.5 2 z" />
      </g>
    </clipPath>
    <linearGradient
       gradientTransform="matrix(0,-1,1,0,-1.5e-6,47.999998)"
       gradientUnits="userSpaceOnUse"
       x2="47"
       x1="1"
       id="linearGradient3764-4">
      <stop
         id="stop24509"
         stop-opacity="1"
         stop-color="#434343" />
      <stop
         id="stop24511"
         stop-opacity="1"
         stop-color="#4d4d4d"
         offset="1" />
    </linearGradient>
    <clipPath
       id="clipPath-084047276">
      <g
         id="g31902"
         transform="translate(0,-1004.3622)">
        <path
           id="path31904"
           fill="#1890d0"
           transform="matrix(15.333333,0,0,11.5,414.99999,878.8622)"
           d="m -24 13 c 0 1.105 -0.672 2 -1.5 2 -0.828 0 -1.5 -0.895 -1.5 -2 0 -1.105 0.672 -2 1.5 -2 0.828 0 1.5 0.895 1.5 2 z" />
      </g>
    </clipPath>
    <clipPath
       id="clipPath-074175239">
      <g
         id="g31897"
         transform="translate(0,-1004.3622)">
        <path
           id="path31899"
           fill="#1890d0"
           transform="matrix(15.333333,0,0,11.5,414.99999,878.8622)"
           d="m -24 13 c 0 1.105 -0.672 2 -1.5 2 -0.828 0 -1.5 -0.895 -1.5 -2 0 -1.105 0.672 -2 1.5 -2 0.828 0 1.5 0.895 1.5 2 z" />
      </g>
    </clipPath>
    <linearGradient
       gradientTransform="matrix(0,-1,1,0,-1.5e-6,47.999998)"
       gradientUnits="userSpaceOnUse"
       x2="47"
       x1="1"
       id="linearGradient3764-43">
      <stop
         id="stop31892"
         stop-opacity="1"
         stop-color="#e4e4e4" />
      <stop
         id="stop31894"
         stop-opacity="1"
         stop-color="#eee"
         offset="1" />
    </linearGradient>
    <clipPath
       id="clipPath-788387008">
      <g
         id="g54740"
         transform="translate(0,-1004.3622)">
        <path
           id="path54742"
           fill="#1890d0"
           transform="matrix(15.333333,0,0,11.5,414.99999,878.8622)"
           d="m -24 13 c 0 1.105 -0.672 2 -1.5 2 -0.828 0 -1.5 -0.895 -1.5 -2 0 -1.105 0.672 -2 1.5 -2 0.828 0 1.5 0.895 1.5 2 z" />
      </g>
    </clipPath>
    <clipPath
       id="clipPath-779412649">
      <g
         id="g54735"
         transform="translate(0,-1004.3622)">
        <path
           id="path54737"
           fill="#1890d0"
           transform="matrix(15.333333,0,0,11.5,414.99999,878.8622)"
           d="m -24 13 c 0 1.105 -0.672 2 -1.5 2 -0.828 0 -1.5 -0.895 -1.5 -2 0 -1.105 0.672 -2 1.5 -2 0.828 0 1.5 0.895 1.5 2 z" />
      </g>
    </clipPath>
    <linearGradient
       gradientTransform="matrix(0,-1,1,0,-1.5e-6,47.999998)"
       gradientUnits="userSpaceOnUse"
       x2="47"
       x1="1"
       id="linearGradient3764-6">
      <stop
         id="stop54730"
         stop-opacity="1"
         stop-color="#e4e4e4" />
      <stop
         id="stop54732"
         stop-opacity="1"
         stop-color="#eee"
         offset="1" />
    </linearGradient>
    <clipPath
       id="clipPath-267113374">
      <g
         id="g62437"
         transform="translate(0,-1004.3622)">
        <path
           id="path62439"
           fill="#1890d0"
           transform="matrix(15.333333,0,0,11.5,414.99999,878.8622)"
           d="m -24 13 c 0 1.105 -0.672 2 -1.5 2 -0.828 0 -1.5 -0.895 -1.5 -2 0 -1.105 0.672 -2 1.5 -2 0.828 0 1.5 0.895 1.5 2 z" />
      </g>
    </clipPath>
    <clipPath
       id="clipPath-259926805">
      <g
         id="g62432"
         transform="translate(0,-1004.3622)">
        <path
           id="path62434"
           fill="#1890d0"
           transform="matrix(15.333333,0,0,11.5,414.99999,878.8622)"
           d="m -24 13 c 0 1.105 -0.672 2 -1.5 2 -0.828 0 -1.5 -0.895 -1.5 -2 0 -1.105 0.672 -2 1.5 -2 0.828 0 1.5 0.895 1.5 2 z" />
      </g>
    </clipPath>
    <linearGradient
       gradientTransform="matrix(0,-1,1,0,-1.5e-6,47.999998)"
       gradientUnits="userSpaceOnUse"
       x2="47"
       x1="1"
       id="linearGradient3764-5">
      <stop
         id="stop62427"
         stop-opacity="1"
         stop-color="#2f6199" />
      <stop
         id="stop62429"
         stop-opacity="1"
         stop-color="#3469a7"
         offset="1" />
    </linearGradient>
  </defs>
  <sodipodi:namedview
     pagecolor="#ffffff"
     bordercolor="#666666"
     borderopacity="1"
     objecttolerance="10"
     gridtolerance="10"
     guidetolerance="10"
     inkscape:pageopacity="0"
     inkscape:pageshadow="2"
     inkscape:window-width="1316"
     inkscape:window-height="674"
     id="namedview4"
     showgrid="false"
     inkscape:zoom="3.6875"
     inkscape:cx="-15.186441"
     inkscape:cy="32"
     inkscape:window-x="44"
     inkscape:window-y="29"
     inkscape:window-maximized="1"
     inkscape:current-layer="svg2" />
  <rect
     style="fill:#000000;fill-opacity:1;stroke:#000000;stroke-width:0.53665989999999997;stroke-linecap:round;stroke-linejoin:round;stroke-miterlimit:4;stroke-opacity:1;stroke-dasharray:none"
     id="rect3005"
     width="59.081985"
     height="59.624359"
     x="2.4590092"
     y="2.1878221"
     ry="5.9392786"
     rx="5.9392786" />
  <g
     id="g5381"
     transform="translate(-113.17697,2.0762712)" />
  <g
     id="g8818"
     transform="translate(-110.73629,2.6186441)" />
  <g
     id="g24557"
     transform="translate(-104.22781,3.9745763)" />
  <g
     id="g31918"
     transform="translate(-99.617644,7.2288136)" />
  <g
     id="g54756"
     transform="translate(-104.22781,2.6186441)" />
  <g
     id="g62453"
     transform="translate(-114.5329,1.5338983)" />
  <g
     id="g62467"
     transform="matrix(1.5840385,0,0,1.5945325,-5.7034805,-6.629538)"
     style="fill:#ffffff">
    <g
       clip-path="url(#clipPath-267113374)"
       id="g62469"
       style="fill:#ffffff">
      <!-- color: #3469a7 -->
      <g
         id="g62471"
         style="fill:#ffffff">
        <path
           style="fill:#ffffff;fill-opacity:1;fill-rule:evenodd;stroke:none"
           inkscape:connector-curvature="0"
           d="m 28.492,23.875 c -0.148,-2.996 -2.285,-4.797 -4.859,-4.797 l -0.098,0 c -2.973,0 -4.625,2.438 -4.625,5.207 0,3.098 1.996,5.059 4.613,5.059 2.918,0 4.836,-2.23 4.973,-4.863 m -4.945,-8.09 c 1.984,0 3.855,0.918 5.227,2.352 l 0,0.004 c 0,-0.688 0.441,-1.207 1.059,-1.207 l 0.156,0 c 0.965,0 1.164,0.949 1.164,1.254 l 0.004,10.695 c -0.066,0.703 0.695,1.063 1.117,0.613 1.648,-1.766 3.621,-9.07 -1.023,-13.309 -4.332,-3.949 -10.141,-3.301 -13.227,-1.082 -3.285,2.363 -5.387,7.586 -3.344,12.496 2.223,5.352 8.59,6.945 12.375,5.355 1.918,-0.809 2.801,1.895 0.813,2.773 -3.01,1.336 -11.379,1.203 -15.289,-5.859 -2.641,-4.766 -2.5,-13.152 4.504,-17.496 5.363,-3.324 12.426,-2.406 16.688,2.234 4.457,4.848 4.195,13.93 -0.145,17.457 -1.973,1.602 -4.895,0.043 -4.875,-2.293 l -0.023,-0.766 c -1.371,1.418 -3.195,2.246 -5.18,2.246 -3.926,0 -7.383,-3.602 -7.383,-7.691 0,-4.133 3.457,-7.777 7.383,-7.777"
           id="path62473" />
      </g>
    </g>
  </g>
</svg>
