<?xml version="1.0" encoding="UTF-8" standalone="no"?>
<!-- Created with Inkscape (http://www.inkscape.org/) -->

<svg
   xmlns:dc="http://purl.org/dc/elements/1.1/"
   xmlns:cc="http://creativecommons.org/ns#"
   xmlns:rdf="http://www.w3.org/1999/02/22-rdf-syntax-ns#"
   xmlns:svg="http://www.w3.org/2000/svg"
   xmlns="http://www.w3.org/2000/svg"
   xmlns:sodipodi="http://sodipodi.sourceforge.net/DTD/sodipodi-0.dtd"
   xmlns:inkscape="http://www.inkscape.org/namespaces/inkscape"
   id="svg2"
   version="1.1"
   inkscape:version="0.48.4 r9939"
   width="64"
   height="64"
   sodipodi:docname="base.svg">
  <metadata
     id="metadata8">
    <rdf:RDF>
      <cc:Work
         rdf:about="">
        <dc:format>image/svg+xml</dc:format>
        <dc:type
           rdf:resource="http://purl.org/dc/dcmitype/StillImage" />
        <dc:title></dc:title>
      </cc:Work>
    </rdf:RDF>
  </metadata>
  <defs
     id="defs6">
    <clipPath
       id="clipPath-055917835">
      <g
         id="g4144"
         transform="translate(0,-1004.3622)">
        <path
           id="path4146"
           fill="#1890d0"
           transform="matrix(15.333333,0,0,11.5,414.99999,878.8622)"
           d="m -24 13 c 0 1.105 -0.672 2 -1.5 2 -0.828 0 -1.5 -0.895 -1.5 -2 0 -1.105 0.672 -2 1.5 -2 0.828 0 1.5 0.895 1.5 2 z" />
      </g>
    </clipPath>
    <clipPath
       id="clipPath-046900192">
      <g
         id="g4139"
         transform="translate(0,-1004.3622)">
        <path
           id="path4141"
           fill="#1890d0"
           transform="matrix(15.333333,0,0,11.5,414.99999,878.8622)"
           d="m -24 13 c 0 1.105 -0.672 2 -1.5 2 -0.828 0 -1.5 -0.895 -1.5 -2 0 -1.105 0.672 -2 1.5 -2 0.828 0 1.5 0.895 1.5 2 z" />
      </g>
    </clipPath>
    <linearGradient
       gradientTransform="matrix(0,-1,1,0,-1.5e-6,47.999998)"
       gradientUnits="userSpaceOnUse"
       x2="47"
       x1="1"
       id="linearGradient3764">
      <stop
         id="stop4134"
         stop-opacity="1"
         stop-color="#e4e4e4" />
      <stop
         id="stop4136"
         stop-opacity="1"
         stop-color="#eee"
         offset="1" />
    </linearGradient>
  </defs>
  <sodipodi:namedview
     pagecolor="#ffffff"
     bordercolor="#666666"
     borderopacity="1"
     objecttolerance="10"
     gridtolerance="10"
     guidetolerance="10"
     inkscape:pageopacity="0"
     inkscape:pageshadow="2"
     inkscape:window-width="1316"
     inkscape:window-height="674"
     id="namedview4"
     showgrid="false"
     inkscape:zoom="3.6875"
     inkscape:cx="-15.186441"
     inkscape:cy="32"
     inkscape:window-x="44"
     inkscape:window-y="29"
     inkscape:window-maximized="1"
     inkscape:current-layer="svg2" />
  <rect
     style="fill:#000000;fill-opacity:1;stroke:#000000;stroke-width:0.53665989999999997;stroke-linecap:round;stroke-linejoin:round;stroke-miterlimit:4;stroke-opacity:1;stroke-dasharray:none"
     id="rect3005"
     width="59.081985"
     height="59.624359"
     x="2.4590092"
     y="2.1878221"
     ry="5.9392786"
     rx="5.9392786" />
  <g
     id="g4160"
     transform="translate(-138.39731,-16.90678)" />
  <g
     id="g4300"
     transform="translate(-0.54237288,-1.898305)">
    <path
       style="fill:#ff0000;fill-opacity:1;fill-rule:evenodd;stroke:none"
       inkscape:connector-curvature="0"
       d="m 35.631625,31.057533 c 2.178672,2.177468 -0.585861,4.143384 -0.585861,4.143384 0,0 5.532396,-2.490261 3.004204,-5.595532 -2.386719,-2.904297 -4.199228,-4.338313 5.650566,-9.32639 0,0 -15.453758,3.359132 -8.075566,10.760405"
       id="path4190" />
    <path
       style="fill:#ffffff;fill-opacity:1;fill-rule:evenodd;stroke:none"
       inkscape:connector-curvature="0"
       d="m 47.315565,45.823814 c 0,0 1.281572,0.914204 -1.404735,1.622901 -5.102986,1.340328 -21.227489,1.746809 -25.706333,0.04684 -1.606125,-0.607454 1.411394,-1.446104 2.36009,-1.628945 0.995298,-0.188885 1.55453,-0.15413 1.55453,-0.15413 -1.780886,-1.103089 -11.572427,2.160845 -4.966507,3.087138 18.015237,2.54466 32.838196,-1.145399 28.16462,-2.975318"
       id="path4192" />
    <path
       style="fill:#ffffff;fill-opacity:1;fill-rule:evenodd;stroke:none"
       inkscape:connector-curvature="0"
       d="m 28.43818,33.884765 c 0,0 -8.205388,1.693922 -2.906006,2.313465 2.243583,0.259906 6.690803,0.200974 10.851751,-0.09973 3.400326,-0.247818 6.807309,-0.779718 6.807309,-0.779718 0,0 -1.203346,0.448791 -2.067158,0.962558 -8.321895,1.906984 -24.41311,1.015447 -19.79113,-0.932336 3.919613,-1.647078 7.106898,-1.458193 7.106898,-1.458193"
       id="path4194" />
    <path
       style="fill:#ffffff;fill-opacity:1;fill-rule:evenodd;stroke:none"
       inkscape:connector-curvature="0"
       d="m 43.156282,41.048799 c 8.465032,-3.83059 4.550412,-7.50856 1.820831,-7.012925 -0.66908,0.123908 -0.968669,0.223639 -0.968669,0.223639 0,0 0.241335,-0.336971 0.715683,-0.483545 5.415889,-1.653123 9.563522,4.88079 -1.742604,7.466249 0,0 0.129821,-0.09973 0.169766,-0.194929"
       id="path4196" />
    <path
       style="fill:#ff0000;fill-opacity:1;fill-rule:evenodd;stroke:none"
       inkscape:connector-curvature="0"
       d="m 38.046639,12.262712 c 0,0 4.686891,4.084451 -4.453878,10.364502 -7.319938,5.034921 -1.664379,7.908997 0,11.18502 -4.270796,-3.353089 -7.411479,-6.310273 -5.30604,-9.066485 3.087423,-4.037607 11.650653,-5.991435 9.758254,-12.478504"
       id="path4198" />
    <path
       style="fill:#ffffff;fill-opacity:1;fill-rule:evenodd;stroke:none"
       inkscape:connector-curvature="0"
       d="m 29.270369,51.426901 c 8.127162,0.454836 20.610004,-0.253861 20.909592,-3.594861 0,0 -0.572546,1.263264 -6.72409,2.272666 -6.937132,1.13331 -15.493704,1.003357 -20.570059,0.278039 0,0 1.040237,0.743451 6.384557,1.044156"
       id="path4200" />
  </g>
</svg>
