<?xml version="1.0" encoding="UTF-8" standalone="no"?>
<!-- Created with Inkscape (http://www.inkscape.org/) -->

<svg
   xmlns:dc="http://purl.org/dc/elements/1.1/"
   xmlns:cc="http://creativecommons.org/ns#"
   xmlns:rdf="http://www.w3.org/1999/02/22-rdf-syntax-ns#"
   xmlns:svg="http://www.w3.org/2000/svg"
   xmlns="http://www.w3.org/2000/svg"
   xmlns:sodipodi="http://sodipodi.sourceforge.net/DTD/sodipodi-0.dtd"
   xmlns:inkscape="http://www.inkscape.org/namespaces/inkscape"
   width="48.000011"
   height="48.014492"
   id="svg5453"
   version="1.1"
   inkscape:version="0.48.4 r9939"
   sodipodi:docname="folder-saved-search.svg">
  <defs
     id="defs5455" />
  <sodipodi:namedview
     id="base"
     pagecolor="#ffffff"
     bordercolor="#666666"
     borderopacity="1.0"
     inkscape:pageopacity="0"
     inkscape:pageshadow="2"
     inkscape:zoom="6.4812881"
     inkscape:cx="25.681272"
     inkscape:cy="34.141723"
     inkscape:document-units="px"
     inkscape:current-layer="layer1"
     showgrid="false"
     fit-margin-top="0"
     fit-margin-left="0"
     fit-margin-right="0"
     fit-margin-bottom="0"
     inkscape:window-width="1360"
     inkscape:window-height="717"
     inkscape:window-x="0"
     inkscape:window-y="24"
     inkscape:window-maximized="1" />
  <metadata
     id="metadata5458">
    <rdf:RDF>
      <cc:Work
         rdf:about="">
        <dc:format>image/svg+xml</dc:format>
        <dc:type
           rdf:resource="http://purl.org/dc/dcmitype/StillImage" />
        <dc:title />
      </cc:Work>
    </rdf:RDF>
  </metadata>
  <g
     inkscape:label="Capa 1"
     inkscape:groupmode="layer"
     id="layer1"
     transform="translate(-384.57143,-499.78351)">
    <g
       inkscape:label="Capa 2"
       id="layer2-8"
       transform="translate(208.56026,490.20319)" />
    <g
       inkscape:label="Capa 2"
       id="layer2-8-5"
       transform="translate(199.81012,499.79076)" />
    <g
       transform="translate(301.92156,499.79076)"
       id="layer2"
       inkscape:label="Capa 2" />
    <g
       inkscape:label="Capa 2"
       id="layer2-8-6"
       transform="translate(257.07144,499.79076)" />
    <g
       transform="translate(359.18288,499.79076)"
       id="layer2-81"
       inkscape:label="Capa 2" />
    <g
       inkscape:label="Capa 2"
       id="layer2-8-4"
       transform="translate(198.96265,505.39399)" />
    <g
       transform="translate(301.07409,505.39399)"
       id="layer2-9"
       inkscape:label="Capa 2" />
    <g
       inkscape:label="Capa 2"
       id="layer2-8-0"
       transform="translate(216.87235,502.80981)" />
    <g
       transform="translate(318.98379,502.80981)"
       id="layer2-5"
       inkscape:label="Capa 2" />
    <rect
       y="508.79074"
       x="393.57144"
       height="29.999994"
       width="29.999994"
       id="rect3274"
       style="fill:none;stroke:none" />
    <rect
       y="508.79074"
       x="393.57144"
       height="18.999996"
       width="18.999996"
       id="rect3276"
       style="fill:none;stroke:none" />
    <path
       inkscape:connector-curvature="0"
       style="fill:#ffffff;fill-opacity:1;fill-rule:evenodd;stroke:none"
       d="m 403.06752,508.79079 c -2.48726,0 -4.95933,1.0244 -6.71679,2.7832 -1.75746,1.7586 -2.7793,4.2298 -2.7793,6.7168 0,2.4868 1.02184,4.958 2.7793,6.7168 1.75746,1.7586 4.22953,2.783 6.71679,2.7832 2.48727,0 4.95905,-1.0246 6.71875,-2.7832 1.75971,-1.7588 2.78516,-4.2296 2.78516,-6.7168 0,-2.4872 -1.02545,-4.9582 -2.78516,-6.7168 -1.7597,-1.7588 -4.23148,-2.7834 -6.71875,-2.7832 z m 0.002,4 c 2.87995,-2e-4 5.50191,2.62 5.50191,5.5 0,2.8798 -2.62196,5.5002 -5.50195,5.5 -2.88,-2e-4 -5.49805,-2.6204 -5.49805,-5.5 0,-2.8796 2.61805,-5.4998 5.49805,-5.5 z"
       id="path3296" />
    <rect
       style="fill:#ffffff;fill-opacity:1;fill-rule:evenodd;stroke:none"
       id="rect3302"
       width="3.9999993"
       height="11.556998"
       x="-83.472336"
       y="666.93567"
       transform="matrix(0.70710678,-0.70710678,0.70710678,0.70710678,0,0)" />
  </g>
</svg>
