<?xml version="1.0" encoding="UTF-8" standalone="no"?>
<!-- Created with Inkscape (http://www.inkscape.org/) -->

<svg
   xmlns:dc="http://purl.org/dc/elements/1.1/"
   xmlns:cc="http://creativecommons.org/ns#"
   xmlns:rdf="http://www.w3.org/1999/02/22-rdf-syntax-ns#"
   xmlns:svg="http://www.w3.org/2000/svg"
   xmlns="http://www.w3.org/2000/svg"
   xmlns:sodipodi="http://sodipodi.sourceforge.net/DTD/sodipodi-0.dtd"
   xmlns:inkscape="http://www.inkscape.org/namespaces/inkscape"
   width="48"
   height="48"
   id="svg1239"
   version="1.1"
   inkscape:version="0.48.4 r9939"
   sodipodi:docname="folder-download.svg">
  <defs
     id="defs1241" />
  <sodipodi:namedview
     id="base"
     pagecolor="#ffffff"
     bordercolor="#666666"
     borderopacity="1.0"
     inkscape:pageopacity="0.0"
     inkscape:pageshadow="2"
     inkscape:zoom="6.3678815"
     inkscape:cx="25.789523"
     inkscape:cy="20.68026"
     inkscape:document-units="px"
     inkscape:current-layer="layer1"
     showgrid="false"
     fit-margin-top="0"
     fit-margin-left="0"
     fit-margin-right="0"
     fit-margin-bottom="0"
     inkscape:window-width="1360"
     inkscape:window-height="717"
     inkscape:window-x="0"
     inkscape:window-y="24"
     inkscape:window-maximized="1"
     showguides="false" />
  <metadata
     id="metadata1244">
    <rdf:RDF>
      <cc:Work
         rdf:about="">
        <dc:format>image/svg+xml</dc:format>
        <dc:type
           rdf:resource="http://purl.org/dc/dcmitype/StillImage" />
        <dc:title />
      </cc:Work>
    </rdf:RDF>
  </metadata>
  <g
     inkscape:label="Capa 1"
     inkscape:groupmode="layer"
     id="layer1"
     transform="translate(-644.57142,-419.79076)">
    <g
       style="fill:#ffffff;fill-opacity:1"
       id="icomoon-ignore"
       transform="matrix(1.9473494,0,0,2.0583003,649.39559,423.38674)" />
    <path
       style="fill:#ffffff;fill-opacity:1"
       inkscape:connector-curvature="0"
       d="m 668.86908,425.03338 c -9.89448,0 -17.91561,8.47814 -17.91561,18.93636 0,10.45823 8.02113,18.93637 17.91561,18.93637 9.89449,0 17.91562,-8.47814 17.91562,-18.93637 0,-10.45822 -8.02113,-18.93636 -17.91562,-18.93636 z m 0,33.75613 c -7.7446,0 -14.02091,-6.63597 -14.02091,-14.81977 0,-8.1838 6.27631,-14.81976 14.02091,-14.81976 7.74461,0 14.02092,6.63596 14.02092,14.81976 0,8.1838 -6.27631,14.81977 -14.02092,14.81977 z m 3.50523,-22.74422 h -7.01045 v 8.41845 h -4.38154 l 7.88676,7.84212 7.88677,-7.84212 h -4.38154 v -8.41845 z"
       id="path3076" />
  </g>
</svg>
