<?xml version="1.0" encoding="UTF-8" standalone="no"?>
<!-- Created with Inkscape (http://www.inkscape.org/) -->

<svg
   xmlns:dc="http://purl.org/dc/elements/1.1/"
   xmlns:cc="http://creativecommons.org/ns#"
   xmlns:rdf="http://www.w3.org/1999/02/22-rdf-syntax-ns#"
   xmlns:svg="http://www.w3.org/2000/svg"
   xmlns="http://www.w3.org/2000/svg"
   xmlns:sodipodi="http://sodipodi.sourceforge.net/DTD/sodipodi-0.dtd"
   xmlns:inkscape="http://www.inkscape.org/namespaces/inkscape"
   width="48"
   height="48"
   id="svg1239"
   version="1.1"
   inkscape:version="0.48.4 r9939"
   sodipodi:docname="folder-music.svg">
  <defs
     id="defs1241" />
  <sodipodi:namedview
     id="base"
     pagecolor="#ffffff"
     bordercolor="#666666"
     borderopacity="1.0"
     inkscape:pageopacity="0.0"
     inkscape:pageshadow="2"
     inkscape:zoom="4.4983958"
     inkscape:cx="18.552459"
     inkscape:cy="26.212248"
     inkscape:document-units="px"
     inkscape:current-layer="layer1"
     showgrid="false"
     fit-margin-top="0"
     fit-margin-left="0"
     fit-margin-right="0"
     fit-margin-bottom="0"
     inkscape:window-width="1360"
     inkscape:window-height="717"
     inkscape:window-x="0"
     inkscape:window-y="24"
     inkscape:window-maximized="1"
     showguides="false" />
  <metadata
     id="metadata1244">
    <rdf:RDF>
      <cc:Work
         rdf:about="">
        <dc:format>image/svg+xml</dc:format>
        <dc:type
           rdf:resource="http://purl.org/dc/dcmitype/StillImage" />
        <dc:title />
      </cc:Work>
    </rdf:RDF>
  </metadata>
  <g
     inkscape:label="Capa 1"
     inkscape:groupmode="layer"
     id="layer1"
     transform="translate(-644.57142,-419.79076)">
    <g
       id="g3063"
       transform="matrix(1.1042038,0,0,1.1319956,650.68071,426.02361)"
       style="fill:#ffffff;fill-opacity:1">
      <g
         id="icomoon-ignore"
         style="fill:#ffffff;fill-opacity:1" />
      <path
         id="path3055"
         d="M 10,6 32,0 v 23 c 0,2.761 -3.134,5 -7,5 -3.866,0 -7,-2.239 -7,-5 0,-2.761 3.134,-5 7,-5 1.074,0 2.091,0.173 3,0.481 v -10.3 l -14,3.818 v 15 c 0,2.761 -3.134,5 -7,5 -3.866,0 -7,-2.239 -7,-5 0,-2.761 3.134,-5 7,-5 1.074,0 2.091,0.173 3,0.481 V 5.999 z"
         inkscape:connector-curvature="0"
         style="fill:#ffffff;fill-opacity:1" />
    </g>
    <g
       inkscape:label="Capa 2"
       id="layer2-2"
       transform="translate(364.32972,507.0175)" />
  </g>
</svg>
