<?xml version="1.0" encoding="UTF-8" standalone="no"?>
<!-- Created with Inkscape (http://www.inkscape.org/) -->

<svg
   xmlns:dc="http://purl.org/dc/elements/1.1/"
   xmlns:cc="http://creativecommons.org/ns#"
   xmlns:rdf="http://www.w3.org/1999/02/22-rdf-syntax-ns#"
   xmlns:svg="http://www.w3.org/2000/svg"
   xmlns="http://www.w3.org/2000/svg"
   xmlns:sodipodi="http://sodipodi.sourceforge.net/DTD/sodipodi-0.dtd"
   xmlns:inkscape="http://www.inkscape.org/namespaces/inkscape"
   width="48"
   height="48"
   id="svg1239"
   version="1.1"
   inkscape:version="0.48.4 r9939"
   sodipodi:docname="folder-remote.svg">
  <defs
     id="defs1241" />
  <sodipodi:namedview
     id="base"
     pagecolor="#ffffff"
     bordercolor="#666666"
     borderopacity="1.0"
     inkscape:pageopacity="0.0"
     inkscape:pageshadow="2"
     inkscape:zoom="4.4983956"
     inkscape:cx="16.156145"
     inkscape:cy="23.4266"
     inkscape:document-units="px"
     inkscape:current-layer="layer1"
     showgrid="false"
     fit-margin-top="0"
     fit-margin-left="0"
     fit-margin-right="0"
     fit-margin-bottom="0"
     inkscape:window-width="1360"
     inkscape:window-height="717"
     inkscape:window-x="0"
     inkscape:window-y="24"
     inkscape:window-maximized="1"
     showguides="false" />
  <metadata
     id="metadata1244">
    <rdf:RDF>
      <cc:Work
         rdf:about="">
        <dc:format>image/svg+xml</dc:format>
        <dc:type
           rdf:resource="http://purl.org/dc/dcmitype/StillImage" />
        <dc:title />
      </cc:Work>
    </rdf:RDF>
  </metadata>
  <g
     inkscape:label="Capa 1"
     inkscape:groupmode="layer"
     id="layer1"
     transform="translate(-644.57142,-419.79076)">
    <g
       transform="translate(585.48853,421.87046)"
       id="layer2"
       inkscape:label="Capa 2" />
    <g
       transform="translate(568.84796,422.11969)"
       id="layer2-3"
       inkscape:label="Capa 2" />
    <g
       transform="translate(694.44805,420.72641)"
       id="layer2-5"
       inkscape:label="Capa 2" />
    <g
       id="g5113"
       transform="matrix(0.83719524,0,0,1.0873327,652.09849,426.85568)"
       style="fill:#ffffff;fill-opacity:1">
      <g
         id="icomoon-ignore"
         style="fill:#ffffff;fill-opacity:1" />
      <path
         id="path5105"
         d="m 20,18 c 3.308,0 6.308,1.346 8.481,3.519 l -2.827,2.827 C 24.205,22.897 22.205,22 20,22 c -2.205,0 -4.206,0.897 -5.654,2.346 L 11.519,21.519 C 13.692,19.346 16.692,18 20,18 z M 5.858,15.858 C 9.635,12.081 14.658,10 20,10 c 5.342,0 10.365,2.08 14.142,5.858 l -2.828,2.828 C 28.292,15.664 24.274,14 20,14 15.726,14 11.708,15.664 8.686,18.686 L 5.858,15.858 z M 30.899,4.201 c 3.334,1.41 6.329,3.429 8.899,6 v 0 L 36.97,13.029 C 32.437,8.496 26.41,6 19.999,6 13.588,6 7.561,8.496 3.028,13.029 L 0.2,10.201 C 2.771,7.63 5.765,5.612 9.099,4.201 12.552,2.74 16.219,2 19.998,2 23.777,2 27.444,2.741 30.897,4.201 z M 18,28 c 0,-1.105 0.895,-2 2,-2 1.105,0 2,0.895 2,2 0,1.105 -0.895,2 -2,2 -1.105,0 -2,-0.895 -2,-2 z"
         inkscape:connector-curvature="0"
         style="fill:#ffffff;fill-opacity:1" />
    </g>
  </g>
</svg>
