<?xml version="1.0" encoding="UTF-8" standalone="no"?>
<!-- Created with Inkscape (http://www.inkscape.org/) -->

<svg
   xmlns:dc="http://purl.org/dc/elements/1.1/"
   xmlns:cc="http://creativecommons.org/ns#"
   xmlns:rdf="http://www.w3.org/1999/02/22-rdf-syntax-ns#"
   xmlns:svg="http://www.w3.org/2000/svg"
   xmlns="http://www.w3.org/2000/svg"
   xmlns:sodipodi="http://sodipodi.sourceforge.net/DTD/sodipodi-0.dtd"
   xmlns:inkscape="http://www.inkscape.org/namespaces/inkscape"
   width="48"
   height="48"
   id="svg1239"
   version="1.1"
   inkscape:version="0.48.4 r9939"
   sodipodi:docname="folder-publicshare.svg">
  <defs
     id="defs1241" />
  <sodipodi:namedview
     id="base"
     pagecolor="#ffffff"
     bordercolor="#666666"
     borderopacity="1.0"
     inkscape:pageopacity="0.0"
     inkscape:pageshadow="2"
     inkscape:zoom="4.7619737"
     inkscape:cx="1.8577437"
     inkscape:cy="40.040803"
     inkscape:document-units="px"
     inkscape:current-layer="layer1"
     showgrid="false"
     fit-margin-top="0"
     fit-margin-left="0"
     fit-margin-right="0"
     fit-margin-bottom="0"
     inkscape:window-width="1360"
     inkscape:window-height="717"
     inkscape:window-x="0"
     inkscape:window-y="24"
     inkscape:window-maximized="1"
     showguides="false" />
  <metadata
     id="metadata1244">
    <rdf:RDF>
      <cc:Work
         rdf:about="">
        <dc:format>image/svg+xml</dc:format>
        <dc:type
           rdf:resource="http://purl.org/dc/dcmitype/StillImage" />
        <dc:title />
      </cc:Work>
    </rdf:RDF>
  </metadata>
  <g
     inkscape:label="Capa 1"
     inkscape:groupmode="layer"
     id="layer1"
     transform="translate(-644.57142,-419.79076)">
    <g
       id="g3086"
       transform="matrix(0.92781355,0,0,0.94749748,653.73883,428.54882)"
       style="fill:#ffffff;fill-opacity:1">
      <g
         id="icomoon-ignore"
         style="fill:#ffffff;fill-opacity:1" />
      <path
         id="path3078"
         d="m 27,22 c -1.411,0 -2.685,0.586 -3.594,1.526 L 9.937,16.792 C 9.978,16.534 10,16.27 10,16.001 10,15.732 9.978,15.467 9.937,15.21 L 23.406,8.476 c 0.909,0.94 2.183,1.526 3.594,1.526 2.761,0 5,-2.239 5,-5 0,-2.761 -2.239,-5 -5,-5 -2.761,0 -5,2.239 -5,5 0,0.269 0.022,0.534 0.063,0.791 L 8.594,12.527 C 7.685,11.587 6.411,11.001 5,11.001 c -2.761,0 -5,2.239 -5,5 0,2.761 2.239,5 5,5 1.411,0 2.685,-0.586 3.594,-1.526 l 13.469,6.734 C 22.022,26.467 22,26.731 22,27 c 0,2.761 2.239,5 5,5 2.761,0 5,-2.239 5,-5 0,-2.761 -2.239,-5 -5,-5 z"
         inkscape:connector-curvature="0"
         style="fill:#ffffff;fill-opacity:1" />
    </g>
    <g
       transform="translate(387.18995,428.0188)"
       id="layer2"
       inkscape:label="Capa 2" />
    <g
       transform="translate(442.2802,415.9486)"
       id="layer2-2"
       inkscape:label="Capa 2" />
    <g
       transform="translate(442.7802,414.4486)"
       id="layer2-1"
       inkscape:label="Capa 2" />
    <g
       transform="translate(512.79891,414.4486)"
       id="layer2-5"
       inkscape:label="Capa 2" />
  </g>
</svg>
