<?xml version="1.0" encoding="UTF-8" standalone="no"?>
<!-- Created with Inkscape (http://www.inkscape.org/) -->

<svg
   xmlns:dc="http://purl.org/dc/elements/1.1/"
   xmlns:cc="http://creativecommons.org/ns#"
   xmlns:rdf="http://www.w3.org/1999/02/22-rdf-syntax-ns#"
   xmlns:svg="http://www.w3.org/2000/svg"
   xmlns="http://www.w3.org/2000/svg"
   xmlns:sodipodi="http://sodipodi.sourceforge.net/DTD/sodipodi-0.dtd"
   xmlns:inkscape="http://www.inkscape.org/namespaces/inkscape"
   width="48"
   height="48"
   id="svg2"
   version="1.1"
   inkscape:version="0.48.4 r9939"
   sodipodi:docname="folder-system.svg">
  <defs
     id="defs4" />
  <sodipodi:namedview
     id="base"
     pagecolor="#ffffff"
     bordercolor="#666666"
     borderopacity="1.0"
     inkscape:pageopacity="0.0"
     inkscape:pageshadow="2"
     inkscape:zoom="8.1825095"
     inkscape:cx="33.763623"
     inkscape:cy="27.500899"
     inkscape:document-units="px"
     inkscape:current-layer="layer1"
     showgrid="false"
     fit-margin-top="0"
     fit-margin-left="0"
     fit-margin-right="0"
     fit-margin-bottom="0"
     inkscape:window-width="1360"
     inkscape:window-height="717"
     inkscape:window-x="0"
     inkscape:window-y="24"
     inkscape:window-maximized="1"
     showguides="true">
    <sodipodi:guide
       position="-19.798327,8.9999992"
       orientation="-40.000001,0"
       id="guide3274" />
    <sodipodi:guide
       position="43.999995,53.162175"
       orientation="0,39.999999"
       id="guide3276" />
    <sodipodi:guide
       position="68.927509,43.874071"
       orientation="40.000001,0"
       id="guide3278" />
    <sodipodi:guide
       position="43.385223,-1.7109665"
       orientation="0,-39.999999"
       id="guide3280" />
    <sodipodi:guide
       position="-19.798327,14.999998"
       orientation="-30.000002,0"
       id="guide3284" />
    <sodipodi:guide
       position="8.9999629,50.106877"
       orientation="0,30.000002"
       id="guide3286" />
    <sodipodi:guide
       position="68.927509,38.252323"
       orientation="30.000002,0"
       id="guide3288" />
    <sodipodi:guide
       position="37.641264,-1.7109665"
       orientation="0,-30.000002"
       id="guide3290" />
    <sodipodi:guide
       position="-19.798327,18.209573"
       orientation="-18.000005,0"
       id="guide3296" />
    <sodipodi:guide
       position="32.999928,53.162175"
       orientation="0,18.000002"
       id="guide3298" />
    <sodipodi:guide
       position="77.237918,31.164033"
       orientation="18.000005,0"
       id="guide3300" />
    <sodipodi:guide
       position="33.363848,-1.7109665"
       orientation="0,-18.000002"
       id="guide3302" />
  </sodipodi:namedview>
  <metadata
     id="metadata7">
    <rdf:RDF>
      <cc:Work
         rdf:about="">
        <dc:format>image/svg+xml</dc:format>
        <dc:type
           rdf:resource="http://purl.org/dc/dcmitype/StillImage" />
        <dc:title />
      </cc:Work>
    </rdf:RDF>
  </metadata>
  <g
     inkscape:label="Capa 1"
     inkscape:groupmode="layer"
     id="layer1"
     transform="translate(-180.23661,-689.8125)">
    <ellipse
       style="fill:none;stroke:none"
       id="path3264"
       cx="204.23523"
       cy="691.8125"
       rx="2.0013857"
       ry="2.0000615"
       d="m 206.23662,691.8125 c 0,1.1046 -0.89606,2.00006 -2.00139,2.00006 -1.10534,0 -2.00139,-0.89546 -2.00139,-2.00006 0,-1.1046 0.89605,-2.00006 2.00139,-2.00006 1.10533,0 2.00139,0.89546 2.00139,2.00006 z" />
    <ellipse
       ry="2.0000615"
       rx="2.0013857"
       cy="735.8125"
       cx="204.23523"
       id="ellipse3266"
       style="fill:none;stroke:none"
       d="m 206.23662,735.8125 c 0,1.1046 -0.89606,2.00006 -2.00139,2.00006 -1.10534,0 -2.00139,-0.89546 -2.00139,-2.00006 0,-1.1046 0.89605,-2.00006 2.00139,-2.00006 1.10533,0 2.00139,0.89546 2.00139,2.00006 z" />
    <ellipse
       style="fill:none;stroke:none"
       id="ellipse3270"
       cx="713.8111"
       cy="-182.23662"
       rx="2.0013857"
       ry="2.0000615"
       transform="matrix(0,1,-1,0,0,0)"
       d="m 715.81248,-182.23662 c 0,1.10461 -0.89605,2.00006 -2.00138,2.00006 -1.10534,0 -2.00139,-0.89545 -2.00139,-2.00006 0,-1.1046 0.89605,-2.00006 2.00139,-2.00006 1.10533,0 2.00138,0.89546 2.00138,2.00006 z" />
    <path
       inkscape:connector-curvature="0"
       style="fill:#ffffff;fill-opacity:1;stroke:none"
       d="m 204.23075,698.8125 c -3.92726,2.3e-4 -7.82857,1.6177 -10.60351,4.39453 -2.77495,2.77683 -4.39063,6.6788 -4.39063,10.60547 0,3.92667 1.61568,7.82864 4.39063,10.60547 2.77494,2.77683 6.67625,4.3943 10.60351,4.39453 3.92726,2.3e-4 7.83089,-1.61573 10.60938,-4.39258 2.77848,-2.77684 4.39648,-6.68031 4.39648,-10.60742 0,-3.92711 -1.618,-7.83058 -4.39648,-10.60742 -2.77849,-2.77685 -6.68212,-4.39281 -10.60938,-4.39258 z m 0.002,6 c 2.35636,-1.4e-4 4.69815,0.97061 6.36524,2.63672 1.66704,1.66611 2.63862,4.00701 2.63862,6.36328 0,2.35627 -0.97158,4.69717 -2.63867,6.36328 -1.66709,1.66611 -4.00888,2.63686 -6.36524,2.63672 -2.35635,-1.4e-4 -4.69831,-0.97062 -6.36328,-2.63672 -1.66496,-1.6661 -2.63281,-4.00728 -2.63281,-6.36328 0,-2.356 0.96785,-4.69718 2.63281,-6.36328 1.66497,-1.6661 4.00693,-2.63658 6.36328,-2.63672 z"
       id="ellipse3292" />
    <rect
       style="fill:#ffffff;fill-opacity:1;fill-rule:evenodd;stroke:none"
       id="rect3307"
       width="7"
       height="2.000001"
       x="200.7366"
       y="698.81268" />
    <ellipse
       sodipodi:ry="1.0000308"
       sodipodi:rx="1.0006928"
       sodipodi:cy="699.8125"
       sodipodi:cx="204.23592"
       style="fill:#ffffff;fill-opacity:1;stroke:none"
       id="ellipse3311"
       cx="204.23592"
       cy="699.8125"
       rx="1.0006928"
       ry="1.0000308"
       d="m 205.23661,699.8125 c 0,0.5523 -0.44803,1.00003 -1.00069,1.00003 -0.55267,0 -1.0007,-0.44773 -1.0007,-1.00003 0,-0.5523 0.44803,-1.00003 1.0007,-1.00003 0.55266,0 1.00069,0.44773 1.00069,1.00003 z" />
    <path
       style="fill:#ffffff;fill-opacity:1;fill-rule:evenodd;stroke:none"
       d="m 202.7366,695.81293 3,0 2,2.99957 -7,0 z"
       id="rect3313"
       inkscape:connector-curvature="0"
       sodipodi:nodetypes="ccccc" />
    <rect
       y="-728.81293"
       x="200.7366"
       height="2.000001"
       width="7"
       id="rect3328"
       style="fill:#ffffff;fill-opacity:1;fill-rule:evenodd;stroke:none"
       transform="scale(1,-1)" />
    <ellipse
       sodipodi:ry="1.0000308"
       sodipodi:rx="1.0006928"
       sodipodi:cy="727.8125"
       sodipodi:cx="204.23592"
       ry="1.0000308"
       rx="1.0006928"
       cy="727.8125"
       cx="204.23592"
       id="ellipse3318"
       style="fill:#ffffff;fill-opacity:1;stroke:none"
       d="m 205.23661,727.8125 c 0,0.5523 -0.44803,1.00003 -1.00069,1.00003 -0.55267,0 -1.0007,-0.44773 -1.0007,-1.00003 0,-0.5523 0.44803,-1.00003 1.0007,-1.00003 0.55266,0 1.00069,0.44773 1.00069,1.00003 z" />
    <path
       sodipodi:nodetypes="ccccc"
       inkscape:connector-curvature="0"
       id="path3330"
       d="m 202.7366,731.8125 3,0 2,-2.99957 -7,0 z"
       style="fill:#ffffff;fill-opacity:1;fill-rule:evenodd;stroke:none" />
    <rect
       y="165.03226"
       x="716.79822"
       height="2.000001"
       width="7"
       id="rect3332"
       style="fill:#ffffff;fill-opacity:1;fill-rule:evenodd;stroke:none"
       transform="matrix(0.5,0.8660254,-0.8660254,0.5,0,0)" />
    <path
       sodipodi:nodetypes="ccccc"
       inkscape:connector-curvature="0"
       id="path3334"
       d="m 219.07487,703.51378 1.5,2.59808 -1.5977,3.23183 -3.5,-6.06217 z"
       style="fill:#ffffff;fill-opacity:1;fill-rule:evenodd;stroke:none" />
    <rect
       transform="matrix(0.5,0.8660254,0.8660254,-0.5,0,0)"
       style="fill:#ffffff;fill-opacity:1;fill-rule:evenodd;stroke:none"
       id="rect3336"
       width="7"
       height="2.000001"
       x="716.79822"
       y="-195.0325" />
    <path
       style="fill:#ffffff;fill-opacity:1;fill-rule:evenodd;stroke:none"
       d="m 187.89833,721.51356 1.5,2.59808 3.5977,0.23227 -3.5,-6.06218 z"
       id="path3338"
       inkscape:connector-curvature="0"
       sodipodi:nodetypes="ccccc" />
    <rect
       transform="matrix(-0.5,0.8660254,-0.8660254,-0.5,0,0)"
       style="fill:#ffffff;fill-opacity:1;fill-rule:evenodd;stroke:none"
       id="rect3340"
       width="7"
       height="2.000001"
       x="512.56165"
       y="-548.78046" />
    <path
       style="fill:#ffffff;fill-opacity:1;fill-rule:evenodd;stroke:none"
       d="m 220.57487,721.51356 -1.5,2.59808 -3.5977,0.23227 3.49999,-6.06218 z"
       id="path3342"
       inkscape:connector-curvature="0"
       sodipodi:nodetypes="ccccc" />
    <rect
       y="518.78021"
       x="512.56165"
       height="2.000001"
       width="7"
       id="rect3344"
       style="fill:#ffffff;fill-opacity:1;fill-rule:evenodd;stroke:none"
       transform="matrix(-0.5,0.8660254,0.8660254,0.5,0,0)" />
    <path
       sodipodi:nodetypes="ccccc"
       inkscape:connector-curvature="0"
       id="path3346"
       d="m 189.39833,703.51378 -1.5,2.59808 1.5977,3.23183 3.5,-6.06218 z"
       style="fill:#ffffff;fill-opacity:1;fill-rule:evenodd;stroke:none" />
    <ellipse
       sodipodi:ry="1.0000308"
       sodipodi:rx="1.0006928"
       sodipodi:cy="166.03214"
       sodipodi:cx="720.29742"
       ry="1.0000308"
       rx="1.0006928"
       cy="166.03214"
       cx="720.29742"
       id="ellipse3324"
       style="fill:#ffffff;fill-opacity:1;stroke:none"
       transform="matrix(0.5,0.8660254,-0.8660254,0.5,0,0)"
       d="m 721.29812,166.03214 c 0,0.5523 -0.44803,1.00003 -1.0007,1.00003 -0.55266,0 -1.00069,-0.44773 -1.00069,-1.00003 0,-0.55231 0.44803,-1.00004 1.00069,-1.00004 0.55267,0 1.0007,0.44773 1.0007,1.00004 z" />
    <ellipse
       sodipodi:ry="1.0000308"
       sodipodi:rx="1.0006928"
       sodipodi:cy="194.03214"
       sodipodi:cx="720.29742"
       style="fill:#ffffff;fill-opacity:1;stroke:none"
       id="ellipse3326"
       cx="720.29742"
       cy="194.03214"
       rx="1.0006928"
       ry="1.0000308"
       transform="matrix(0.5,0.8660254,-0.8660254,0.5,0,0)"
       d="m 721.29812,194.03214 c 0,0.5523 -0.44803,1.00003 -1.0007,1.00003 -0.55266,0 -1.00069,-0.44773 -1.00069,-1.00003 0,-0.55231 0.44803,-1.00004 1.00069,-1.00004 0.55267,0 1.0007,0.44773 1.0007,1.00004 z" />
    <ellipse
       sodipodi:ry="1.0000308"
       sodipodi:rx="1.0006928"
       sodipodi:cy="-547.78009"
       sodipodi:cx="-516.06201"
       transform="matrix(0.5,-0.8660254,-0.8660254,-0.5,0,0)"
       style="fill:#ffffff;fill-opacity:1;stroke:none"
       id="ellipse3348"
       cx="-516.06201"
       cy="-547.78009"
       rx="1.0006928"
       ry="1.0000308"
       d="m -515.06132,-547.78009 c 0,0.5523 -0.44802,1.00003 -1.00069,1.00003 -0.55267,0 -1.00069,-0.44773 -1.00069,-1.00003 0,-0.5523 0.44802,-1.00003 1.00069,-1.00003 0.55267,0 1.00069,0.44773 1.00069,1.00003 z" />
    <ellipse
       sodipodi:ry="1.0000308"
       sodipodi:rx="1.0006928"
       sodipodi:cy="-519.78009"
       sodipodi:cx="-516.06201"
       transform="matrix(0.5,-0.8660254,-0.8660254,-0.5,0,0)"
       ry="1.0000308"
       rx="1.0006928"
       cy="-519.78009"
       cx="-516.06201"
       id="ellipse3350"
       style="fill:#ffffff;fill-opacity:1;stroke:none"
       d="m -515.06132,-519.78009 c 0,0.5523 -0.44802,1.00003 -1.00069,1.00003 -0.55267,0 -1.00069,-0.44773 -1.00069,-1.00003 0,-0.5523 0.44802,-1.00003 1.00069,-1.00003 0.55267,0 1.00069,0.44773 1.00069,1.00003 z" />
  </g>
</svg>
