<?xml version="1.0" encoding="UTF-8" standalone="no"?>
<!-- Created with Inkscape (http://www.inkscape.org/) -->

<svg
   xmlns:dc="http://purl.org/dc/elements/1.1/"
   xmlns:cc="http://creativecommons.org/ns#"
   xmlns:rdf="http://www.w3.org/1999/02/22-rdf-syntax-ns#"
   xmlns:svg="http://www.w3.org/2000/svg"
   xmlns="http://www.w3.org/2000/svg"
   xmlns:sodipodi="http://sodipodi.sourceforge.net/DTD/sodipodi-0.dtd"
   xmlns:inkscape="http://www.inkscape.org/namespaces/inkscape"
   width="48"
   height="48"
   id="svg4230"
   version="1.1"
   inkscape:version="0.48.4 r9939"
   sodipodi:docname="folder-templates.svg">
  <defs
     id="defs4232" />
  <sodipodi:namedview
     id="base"
     pagecolor="#ffffff"
     bordercolor="#666666"
     borderopacity="1.0"
     inkscape:pageopacity="0.0"
     inkscape:pageshadow="2"
     inkscape:zoom="4.0036073"
     inkscape:cx="-4.5230511"
     inkscape:cy="7.0466631"
     inkscape:document-units="px"
     inkscape:current-layer="layer1"
     showgrid="false"
     inkscape:showpageshadow="false"
     borderlayer="true"
     inkscape:window-width="1360"
     inkscape:window-height="717"
     inkscape:window-x="0"
     inkscape:window-y="24"
     inkscape:window-maximized="1"
     showguides="false"
     inkscape:guide-bbox="true">
    <sodipodi:guide
       orientation="0,1"
       position="44.847656,45.304688"
       id="guide7743" />
    <sodipodi:guide
       orientation="0,1"
       position="45.050781,45.597656"
       id="guide7745" />
    <sodipodi:guide
       orientation="0,1"
       position="44.953125,46.199219"
       id="guide7747" />
    <sodipodi:guide
       orientation="0,1"
       position="44.910156,45.894531"
       id="guide7749" />
    <sodipodi:guide
       orientation="0,1"
       position="44.426193,45.011766"
       id="guide7751" />
    <sodipodi:guide
       orientation="0,1"
       position="59.363824,1.8009126"
       id="guide7760" />
    <sodipodi:guide
       orientation="0,1"
       position="59.351563,2.1015625"
       id="guide7762" />
    <sodipodi:guide
       orientation="0,1"
       position="59.582031,2.4023438"
       id="guide7764" />
    <sodipodi:guide
       orientation="0,1"
       position="59.539063,2.703125"
       id="guide7766" />
    <sodipodi:guide
       orientation="0,1"
       position="61.269698,2.9996795"
       id="guide7768" />
    <sodipodi:guide
       orientation="0,1"
       position="64.265625,5.4921875"
       id="guide7782" />
  </sodipodi:namedview>
  <metadata
     id="metadata4235">
    <rdf:RDF>
      <cc:Work
         rdf:about="">
        <dc:format>image/svg+xml</dc:format>
        <dc:type
           rdf:resource="http://purl.org/dc/dcmitype/StillImage" />
        <dc:title />
      </cc:Work>
    </rdf:RDF>
  </metadata>
  <g
     inkscape:label="Capa 1"
     inkscape:groupmode="layer"
     id="layer1"
     transform="translate(0,-1004.3622)">
    <rect
       style="fill:none;stroke:none"
       id="rect3270"
       width="29.999855"
       height="29.999886"
       x="9.0000715"
       y="1013.3623" />
    <path
       inkscape:connector-curvature="0"
       style="fill:#ffffff;fill-opacity:1;fill-rule:evenodd;stroke:none"
       d="m 11.00005,1013.3622 0,29.9999 25.999874,0 0,-14.9999 -3.999981,0 0,10.9999 -17.999913,0 0,-21.9999 8.999957,0 0,-4 -12.999937,0 z"
       id="rect3278" />
    <ellipse
       sodipodi:ry="1.0000308"
       sodipodi:rx="1.0006928"
       sodipodi:cy="1019.5737"
       sodipodi:cx="-26.699274"
       d="m -25.698581,1019.5737 c 0,0.5523 -0.448026,1.0001 -1.000693,1.0001 -0.552667,0 -1.000693,-0.4478 -1.000693,-1.0001 0,-0.5523 0.448026,-1 1.000693,-1 0.552667,0 1.000693,0.4477 1.000693,1 z"
       ry="1.0000308"
       rx="1.0006928"
       cy="1019.5737"
       cx="-26.699274"
       style="fill:none;stroke:none"
       id="path3302"
       transform="matrix(1.9999903,0,0,1.9999903,79.396878,-997.77542)" />
    <rect
       style="fill:#ffffff;fill-opacity:1;fill-rule:evenodd;stroke:none"
       id="rect3320"
       width="8.9999561"
       height="10.999915"
       x="27.999983"
       y="-1024.3622"
       transform="scale(1,-1)" />
    <ellipse
       sodipodi:ry="1.0000308"
       sodipodi:rx="1.0006928"
       sodipodi:cy="1013.0737"
       sodipodi:cx="-33.199276"
       d="m -32.198583,1013.0737 c 0,0.5523 -0.448026,1.0001 -1.000693,1.0001 -0.552667,0 -1.000693,-0.4478 -1.000693,-1.0001 0,-0.5523 0.448026,-1 1.000693,-1 0.552667,0 1.000693,0.4477 1.000693,1 z"
       ry="1.0000308"
       rx="1.0006928"
       cy="1013.0737"
       cx="-33.199276"
       id="path3367"
       style="fill:none;stroke:none"
       transform="matrix(1.9999903,0,0,1.9999903,79.396878,-997.77542)" />
    <ellipse
       sodipodi:ry="0.50001538"
       sodipodi:rx="0.50034642"
       sodipodi:cy="1013.0737"
       sodipodi:cx="-34.698925"
       d="m -34.198579,1013.0737 c 0,0.2762 -0.224012,0.5 -0.500346,0.5 -0.276334,0 -0.500346,-0.2238 -0.500346,-0.5 0,-0.2761 0.224012,-0.5 0.500346,-0.5 0.276334,0 0.500346,0.2239 0.500346,0.5 z"
       ry="0.50001538"
       rx="0.50034642"
       cy="1013.0737"
       cx="-34.698925"
       style="fill:none;stroke:none"
       id="path3349"
       transform="matrix(1.9999903,0,0,1.9999903,79.396878,-997.77542)" />
    <ellipse
       sodipodi:ry="0.50001538"
       sodipodi:rx="0.50034642"
       sodipodi:cy="1013.0737"
       sodipodi:cx="-20.698923"
       d="m -20.198577,1013.0737 c 0,0.2762 -0.224012,0.5 -0.500346,0.5 -0.276334,0 -0.500347,-0.2238 -0.500347,-0.5 0,-0.2761 0.224013,-0.5 0.500347,-0.5 0.276334,0 0.500346,0.2239 0.500346,0.5 z"
       ry="0.50001538"
       rx="0.50034642"
       cy="1013.0737"
       cx="-20.698923"
       id="path3351"
       style="fill:none;stroke:none"
       transform="matrix(1.9999903,0,0,1.9999903,79.396878,-997.77542)" />
    <rect
       style="fill:none;stroke:none"
       id="rect3288"
       width="8.9999475"
       height="14.999896"
       x="0.00011494385"
       y="1013.3623" />
    <rect
       y="1028.3622"
       x="38.999931"
       height="14.999866"
       width="8.9999561"
       id="rect3290-3"
       style="fill:none;stroke:none" />
    <path
       sodipodi:type="star"
       style="fill:#ffffff;fill-opacity:1;fill-rule:evenodd;stroke:none"
       id="path3312"
       sodipodi:sides="3"
       sodipodi:cx="451.54962"
       sodipodi:cy="515.35223"
       sodipodi:r1="6.8480253"
       sodipodi:r2="3.4240127"
       sodipodi:arg1="0.78539816"
       sodipodi:arg2="1.8325957"
       inkscape:flatsided="true"
       inkscape:rounded="0"
       inkscape:randomized="0"
       d="m 456.39191,520.19452 -11.45697,-3.06989 8.38708,-8.38708 z"
       transform="matrix(0.73292275,-0.1763744,0.19638605,0.65823823,-427.65888,758.4461)"
       inkscape:transform-center-y="-1.1666526" />
    <path
       transform="matrix(0.1763744,-0.73292275,-0.65823823,-0.19638605,302.91597,1471.021)"
       d="m 456.39191,520.19452 -11.45697,-3.06989 8.38708,-8.38708 z"
       inkscape:randomized="0"
       inkscape:rounded="0"
       inkscape:flatsided="true"
       sodipodi:arg2="1.8325957"
       sodipodi:arg1="0.78539816"
       sodipodi:r2="3.4240127"
       sodipodi:r1="6.8480253"
       sodipodi:cy="515.35223"
       sodipodi:cx="451.54962"
       sodipodi:sides="3"
       id="path3314"
       style="fill:#ffffff;fill-opacity:1;fill-rule:evenodd;stroke:none"
       sodipodi:type="star"
       inkscape:transform-center-x="-1.1666487" />
  </g>
</svg>
