<?xml version="1.0" encoding="UTF-8" standalone="no"?>
<!-- Created with Inkscape (http://www.inkscape.org/) -->

<svg
   xmlns:dc="http://purl.org/dc/elements/1.1/"
   xmlns:cc="http://creativecommons.org/ns#"
   xmlns:rdf="http://www.w3.org/1999/02/22-rdf-syntax-ns#"
   xmlns:svg="http://www.w3.org/2000/svg"
   xmlns="http://www.w3.org/2000/svg"
   xmlns:sodipodi="http://sodipodi.sourceforge.net/DTD/sodipodi-0.dtd"
   xmlns:inkscape="http://www.inkscape.org/namespaces/inkscape"
   width="48"
   height="48"
   id="svg1239"
   version="1.1"
   inkscape:version="0.48.4 r9939"
   sodipodi:docname="user-home.svg">
  <defs
     id="defs1241" />
  <sodipodi:namedview
     id="base"
     pagecolor="#ffffff"
     bordercolor="#666666"
     borderopacity="1.0"
     inkscape:pageopacity="0.0"
     inkscape:pageshadow="2"
     inkscape:zoom="4.5234798"
     inkscape:cx="32.287092"
     inkscape:cy="34.847214"
     inkscape:document-units="px"
     inkscape:current-layer="layer1"
     showgrid="false"
     fit-margin-top="0"
     fit-margin-left="0"
     fit-margin-right="0"
     fit-margin-bottom="0"
     inkscape:window-width="1360"
     inkscape:window-height="717"
     inkscape:window-x="0"
     inkscape:window-y="24"
     inkscape:window-maximized="1"
     showguides="false" />
  <metadata
     id="metadata1244">
    <rdf:RDF>
      <cc:Work
         rdf:about="">
        <dc:format>image/svg+xml</dc:format>
        <dc:type
           rdf:resource="http://purl.org/dc/dcmitype/StillImage" />
        <dc:title />
      </cc:Work>
    </rdf:RDF>
  </metadata>
  <g
     inkscape:label="Capa 1"
     inkscape:groupmode="layer"
     id="layer1"
     transform="translate(-644.57142,-419.79076)">
    <g
       inkscape:label="Capa 2"
       id="layer2-1"
       transform="matrix(1.6000003,0,0,1.6000003,652.14413,362.19077)" />
    <g
       id="layer2"
       inkscape:label="Capa 2"
       transform="matrix(1.6000003,0,0,1.6000003,523.63159,362.19077)" />
    <g
       inkscape:label="Capa 2"
       id="layer2-8"
       transform="matrix(1.6000003,0,0,1.6000003,253.53682,392.37514)" />
    <g
       inkscape:label="Capa 2"
       id="layer2-8-5"
       transform="matrix(1.6000003,0,0,1.6000003,239.53662,407.71523)" />
    <g
       transform="matrix(1.6000003,0,0,1.6000003,402.91493,407.71523)"
       id="layer2-51"
       inkscape:label="Capa 2" />
    <g
       inkscape:label="Capa 2"
       id="layer2-8-6"
       transform="matrix(1.6000003,0,0,1.6000003,331.15472,407.71523)" />
    <g
       transform="matrix(1.6000003,0,0,1.6000003,494.53303,407.71523)"
       id="layer2-81"
       inkscape:label="Capa 2" />
    <g
       inkscape:label="Capa 2"
       id="layer2-8-4"
       transform="matrix(1.6000003,0,0,1.6000003,238.18065,416.68041)" />
    <g
       transform="matrix(1.6000003,0,0,1.6000003,401.55896,416.68041)"
       id="layer2-9"
       inkscape:label="Capa 2" />
    <g
       inkscape:label="Capa 2"
       id="layer2-8-0"
       transform="matrix(1.6000003,0,0,1.6000003,266.83617,412.54581)" />
    <g
       transform="matrix(1.6000003,0,0,1.6000003,430.21448,412.54581)"
       id="layer2-5"
       inkscape:label="Capa 2" />
    <g
       inkscape:label="Capa 2"
       id="layer2-1-4"
       transform="matrix(1.6000003,0,0,1.6000003,598.57789,376.96834)" />
    <g
       id="layer2-3"
       inkscape:label="Capa 2"
       transform="matrix(1.6000003,0,0,1.6000003,470.06544,376.96834)" />
    <rect
       style="fill:none;stroke:none"
       id="rect3287"
       width="29.998613"
       height="29.999878"
       x="653.57281"
       y="428.79083" />
    <rect
       style="fill:#ffffff;fill-opacity:1;fill-rule:evenodd;stroke:none"
       id="rect3289"
       width="25.998798"
       height="3.9999835"
       x="655.57269"
       y="454.79071" />
    <rect
       y="677.57172"
       x="-439.79077"
       height="3.9998152"
       width="10.999955"
       id="rect3291"
       style="fill:#ffffff;fill-opacity:1;fill-rule:evenodd;stroke:none"
       transform="matrix(0,-1,1,0,0,0)" />
    <rect
       transform="matrix(0,-1,1,0,0,0)"
       style="fill:#ffffff;fill-opacity:1;fill-rule:evenodd;stroke:none"
       id="rect3293"
       width="10.999955"
       height="3.9998152"
       x="-458.79068"
       y="655.57269" />
    <ellipse
       sodipodi:ry="2.0000615"
       sodipodi:rx="2.0013857"
       sodipodi:cy="1041.3622"
       sodipodi:cx="23.998613"
       d="m 25.999999,1041.3622 c 0,1.1046 -0.896051,2 -2.001386,2 -1.105334,0 -2.001385,-0.8954 -2.001385,-2 0,-1.1046 0.896051,-2.0001 2.001385,-2.0001 1.105335,0 2.001386,0.8955 2.001386,2.0001 z"
       ry="2.0000615"
       rx="2.0013857"
       cy="1041.3622"
       cx="23.998613"
       style="fill:none;stroke:none"
       id="path4097"
       transform="matrix(0.9999538,0,0,0.9999959,644.57322,-584.56721)" />
    <rect
       y="165.56741"
       x="775.95636"
       height="3.9998994"
       width="21.212465"
       id="rect3280"
       style="fill:#ffffff;fill-opacity:1;fill-rule:evenodd;stroke:none"
       transform="matrix(0.7070919,0.70712167,0.7070919,-0.70712167,0,0)" />
    <rect
       style="fill:#ffffff;fill-opacity:1;fill-rule:evenodd;stroke:none"
       id="rect3282"
       width="21.212465"
       height="3.9998994"
       x="-169.56731"
       y="775.95636"
       transform="matrix(-0.7070919,0.70712167,0.7070919,0.70712167,0,0)" />
    <ellipse
       sodipodi:ry="1.0000308"
       sodipodi:rx="1.0006928"
       sodipodi:cy="1042.3622"
       sodipodi:cx="9.9993067"
       d="m 11,1042.3622 c 0,0.5523 -0.448026,1 -1.0006933,1 -0.5526674,0 -1.0006929,-0.4477 -1.0006929,-1 0,-0.5523 0.4480255,-1 1.0006929,-1 0.5526673,0 1.0006933,0.4477 1.0006933,1 z"
       ry="1.0000308"
       rx="1.0006928"
       cy="1042.3622"
       cx="9.9993067"
       style="fill:none;stroke:none"
       id="path4124"
       transform="matrix(0.9999538,0,0,0.9999959,644.57322,-584.56721)" />
    <ellipse
       sodipodi:ry="1.0000308"
       sodipodi:rx="1.0006928"
       sodipodi:cy="1042.3622"
       sodipodi:cx="37.999306"
       d="m 38.999999,1042.3622 c 0,0.5523 -0.448026,1 -1.000693,1 -0.552668,0 -1.000693,-0.4477 -1.000693,-1 0,-0.5523 0.448025,-1 1.000693,-1 0.552667,0 1.000693,0.4477 1.000693,1 z"
       ry="1.0000308"
       rx="1.0006928"
       cy="1042.3622"
       cx="37.999306"
       id="path4126"
       style="fill:none;stroke:none"
       transform="matrix(0.9999538,0,0,0.9999959,644.57322,-584.56721)" />
    <ellipse
       sodipodi:ry="2.0000615"
       sodipodi:rx="2.0013857"
       sodipodi:cy="1015.3622"
       sodipodi:cx="23.998613"
       d="m 25.999999,1015.3622 c 0,1.1046 -0.896051,2 -2.001386,2 -1.105334,0 -2.001385,-0.8954 -2.001385,-2 0,-1.1046 0.896051,-2.0001 2.001385,-2.0001 1.105335,0 2.001386,0.8955 2.001386,2.0001 z"
       ry="2.0000615"
       rx="2.0013857"
       cy="1015.3622"
       cx="23.998613"
       id="path4099"
       style="fill:none;stroke:none"
       transform="matrix(0.9999538,0,0,0.9999959,644.57322,-584.56721)" />
    <rect
       y="677.57172"
       x="-458.79068"
       height="3.9998152"
       width="10.999955"
       id="rect3273"
       style="fill:#ffffff;fill-opacity:1;fill-rule:evenodd;stroke:none"
       transform="matrix(0,-1,1,0,0,0)" />
  </g>
</svg>
