<?xml version="1.0" encoding="UTF-8" standalone="no"?>
<!-- Created with Inkscape (http://www.inkscape.org/) -->

<svg
   xmlns:dc="http://purl.org/dc/elements/1.1/"
   xmlns:cc="http://creativecommons.org/ns#"
   xmlns:rdf="http://www.w3.org/1999/02/22-rdf-syntax-ns#"
   xmlns:svg="http://www.w3.org/2000/svg"
   xmlns="http://www.w3.org/2000/svg"
   xmlns:sodipodi="http://sodipodi.sourceforge.net/DTD/sodipodi-0.dtd"
   xmlns:inkscape="http://www.inkscape.org/namespaces/inkscape"
   width="24"
   height="24"
   id="svg2"
   version="1.1"
   inkscape:version="0.48.4 r9939"
   sodipodi:docname="emblem-mail.svg">
  <defs
     id="defs4">
    <linearGradient
       id="linearGradient3764-5"
       x1="1"
       x2="47"
       gradientUnits="userSpaceOnUse"
       gradientTransform="matrix(0,-1,1,0,-1.5e-6,47.999998)">
      <stop
         stop-color="#2f6199"
         stop-opacity="1"
         id="stop62427" />
      <stop
         offset="1"
         stop-color="#3469a7"
         stop-opacity="1"
         id="stop62429" />
    </linearGradient>
    <clipPath
       id="clipPath-259926805">
      <g
         transform="translate(0,-1004.3622)"
         id="g62432">
        <path
           d="m -24 13 c 0 1.105 -0.672 2 -1.5 2 -0.828 0 -1.5 -0.895 -1.5 -2 0 -1.105 0.672 -2 1.5 -2 0.828 0 1.5 0.895 1.5 2 z"
           transform="matrix(15.333333,0,0,11.5,414.99999,878.8622)"
           fill="#1890d0"
           id="path62434" />
      </g>
    </clipPath>
    <clipPath
       id="clipPath-267113374">
      <g
         transform="translate(0,-1004.3622)"
         id="g62437">
        <path
           d="m -24 13 c 0 1.105 -0.672 2 -1.5 2 -0.828 0 -1.5 -0.895 -1.5 -2 0 -1.105 0.672 -2 1.5 -2 0.828 0 1.5 0.895 1.5 2 z"
           transform="matrix(15.333333,0,0,11.5,414.99999,878.8622)"
           fill="#1890d0"
           id="path62439" />
      </g>
    </clipPath>
    <linearGradient
       id="linearGradient3764-6"
       x1="1"
       x2="47"
       gradientUnits="userSpaceOnUse"
       gradientTransform="matrix(0,-1,1,0,-1.5e-6,47.999998)">
      <stop
         stop-color="#e4e4e4"
         stop-opacity="1"
         id="stop54730" />
      <stop
         offset="1"
         stop-color="#eee"
         stop-opacity="1"
         id="stop54732" />
    </linearGradient>
    <clipPath
       id="clipPath-779412649">
      <g
         transform="translate(0,-1004.3622)"
         id="g54735">
        <path
           d="m -24 13 c 0 1.105 -0.672 2 -1.5 2 -0.828 0 -1.5 -0.895 -1.5 -2 0 -1.105 0.672 -2 1.5 -2 0.828 0 1.5 0.895 1.5 2 z"
           transform="matrix(15.333333,0,0,11.5,414.99999,878.8622)"
           fill="#1890d0"
           id="path54737" />
      </g>
    </clipPath>
    <clipPath
       id="clipPath-788387008">
      <g
         transform="translate(0,-1004.3622)"
         id="g54740">
        <path
           d="m -24 13 c 0 1.105 -0.672 2 -1.5 2 -0.828 0 -1.5 -0.895 -1.5 -2 0 -1.105 0.672 -2 1.5 -2 0.828 0 1.5 0.895 1.5 2 z"
           transform="matrix(15.333333,0,0,11.5,414.99999,878.8622)"
           fill="#1890d0"
           id="path54742" />
      </g>
    </clipPath>
    <linearGradient
       id="linearGradient3764-43"
       x1="1"
       x2="47"
       gradientUnits="userSpaceOnUse"
       gradientTransform="matrix(0,-1,1,0,-1.5e-6,47.999998)">
      <stop
         stop-color="#e4e4e4"
         stop-opacity="1"
         id="stop31892" />
      <stop
         offset="1"
         stop-color="#eee"
         stop-opacity="1"
         id="stop31894" />
    </linearGradient>
    <clipPath
       id="clipPath-074175239">
      <g
         transform="translate(0,-1004.3622)"
         id="g31897">
        <path
           d="m -24 13 c 0 1.105 -0.672 2 -1.5 2 -0.828 0 -1.5 -0.895 -1.5 -2 0 -1.105 0.672 -2 1.5 -2 0.828 0 1.5 0.895 1.5 2 z"
           transform="matrix(15.333333,0,0,11.5,414.99999,878.8622)"
           fill="#1890d0"
           id="path31899" />
      </g>
    </clipPath>
    <clipPath
       id="clipPath-084047276">
      <g
         transform="translate(0,-1004.3622)"
         id="g31902">
        <path
           d="m -24 13 c 0 1.105 -0.672 2 -1.5 2 -0.828 0 -1.5 -0.895 -1.5 -2 0 -1.105 0.672 -2 1.5 -2 0.828 0 1.5 0.895 1.5 2 z"
           transform="matrix(15.333333,0,0,11.5,414.99999,878.8622)"
           fill="#1890d0"
           id="path31904" />
      </g>
    </clipPath>
    <linearGradient
       id="linearGradient3764-4"
       x1="1"
       x2="47"
       gradientUnits="userSpaceOnUse"
       gradientTransform="matrix(0,-1,1,0,-1.5e-6,47.999998)">
      <stop
         stop-color="#434343"
         stop-opacity="1"
         id="stop24509" />
      <stop
         offset="1"
         stop-color="#4d4d4d"
         stop-opacity="1"
         id="stop24511" />
    </linearGradient>
    <clipPath
       id="clipPath-309962591">
      <g
         transform="translate(0,-1004.3622)"
         id="g24514">
        <path
           d="m -24 13 c 0 1.105 -0.672 2 -1.5 2 -0.828 0 -1.5 -0.895 -1.5 -2 0 -1.105 0.672 -2 1.5 -2 0.828 0 1.5 0.895 1.5 2 z"
           transform="matrix(15.333333,0,0,11.5,414.99999,878.8622)"
           fill="#1890d0"
           id="path24516" />
      </g>
    </clipPath>
    <clipPath
       id="clipPath-315841711">
      <g
         transform="translate(0,-1004.3622)"
         id="g24519">
        <path
           d="m -24 13 c 0 1.105 -0.672 2 -1.5 2 -0.828 0 -1.5 -0.895 -1.5 -2 0 -1.105 0.672 -2 1.5 -2 0.828 0 1.5 0.895 1.5 2 z"
           transform="matrix(15.333333,0,0,11.5,414.99999,878.8622)"
           fill="#1890d0"
           id="path24521" />
      </g>
    </clipPath>
    <linearGradient
       id="linear0"
       gradientUnits="userSpaceOnUse"
       x1="0"
       x2="1"
       gradientTransform="matrix(-0.0328728,-4.018518,5.309974,-0.0248777,-91.154216,125.14714)">
      <stop
         stop-color="#ec2c20"
         stop-opacity="1"
         id="stop24524" />
      <stop
         offset="1"
         stop-color="#fab218"
         stop-opacity="1"
         id="stop24526" />
    </linearGradient>
    <linearGradient
       id="linear1"
       gradientUnits="userSpaceOnUse"
       x1="0"
       x2="1"
       gradientTransform="matrix(0.115078,2.68729,-3.550921,0.0870898,-92.13101,122.46896)">
      <stop
         stop-color="#fade17"
         stop-opacity="1"
         id="stop24529" />
      <stop
         offset="1"
         stop-color="#f1511a"
         stop-opacity="1"
         id="stop24531" />
    </linearGradient>
    <linearGradient
       id="linearGradient24533"
       gradientUnits="userSpaceOnUse"
       x1="0"
       x2="1"
       gradientTransform="matrix(-0.0328728,-4.018518,5.309974,-0.0248777,-91.154216,125.14714)">
      <stop
         stop-color="#ec2c20"
         stop-opacity="1"
         id="stop24535" />
      <stop
         offset="1"
         stop-color="#fab218"
         stop-opacity="1"
         id="stop24537" />
    </linearGradient>
    <linearGradient
       id="linearGradient24539"
       gradientUnits="userSpaceOnUse"
       x1="0"
       x2="1"
       gradientTransform="matrix(0.115078,2.68729,-3.550921,0.0870898,-92.13101,122.46896)">
      <stop
         stop-color="#fade17"
         stop-opacity="1"
         id="stop24541" />
      <stop
         offset="1"
         stop-color="#f1511a"
         stop-opacity="1"
         id="stop24543" />
    </linearGradient>
    <clipPath
       id="clipPath-324598080">
      <g
         transform="translate(0,-1004.3622)"
         id="g22437">
        <path
           d="m -24 13 c 0 1.105 -0.672 2 -1.5 2 -0.828 0 -1.5 -0.895 -1.5 -2 0 -1.105 0.672 -2 1.5 -2 0.828 0 1.5 0.895 1.5 2 z"
           transform="matrix(15.333333,0,0,11.5,414.99999,878.8622)"
           fill="#1890d0"
           id="path22439" />
      </g>
    </clipPath>
    <clipPath
       id="clipPath22441">
      <g
         transform="translate(0,-1004.3622)"
         id="g22443">
        <path
           d="m -24 13 c 0 1.105 -0.672 2 -1.5 2 -0.828 0 -1.5 -0.895 -1.5 -2 0 -1.105 0.672 -2 1.5 -2 0.828 0 1.5 0.895 1.5 2 z"
           transform="matrix(15.333333,0,0,11.5,414.99999,878.8622)"
           fill="#1890d0"
           id="path22445" />
      </g>
    </clipPath>
    <linearGradient
       id="linearGradient3126"
       gradientUnits="userSpaceOnUse"
       gradientTransform="matrix(0,-1,1,0,-1.5e-6,47.999998)"
       x1="1"
       x2="47">
      <stop
         stop-color="#5ab133"
         stop-opacity="1"
         id="stop22448" />
      <stop
         offset="1"
         stop-color="#63c038"
         stop-opacity="1"
         id="stop22450" />
    </linearGradient>
    <linearGradient
       id="linearGradient3764-8"
       x1="1"
       x2="47"
       gradientUnits="userSpaceOnUse"
       gradientTransform="matrix(0,-1,1,0,-1.5e-6,47.999998)">
      <stop
         stop-color="#e6a712"
         stop-opacity="1"
         id="stop8792" />
      <stop
         offset="1"
         stop-color="#edb020"
         stop-opacity="1"
         id="stop8794" />
    </linearGradient>
    <clipPath
       id="clipPath-610374986">
      <g
         transform="translate(0,-1004.3622)"
         id="g8797">
        <path
           d="m -24 13 c 0 1.105 -0.672 2 -1.5 2 -0.828 0 -1.5 -0.895 -1.5 -2 0 -1.105 0.672 -2 1.5 -2 0.828 0 1.5 0.895 1.5 2 z"
           transform="matrix(15.333333,0,0,11.5,414.99999,878.8622)"
           fill="#1890d0"
           id="path8799" />
      </g>
    </clipPath>
    <clipPath
       id="clipPath-623308171">
      <g
         transform="translate(0,-1004.3622)"
         id="g8802">
        <path
           d="m -24 13 c 0 1.105 -0.672 2 -1.5 2 -0.828 0 -1.5 -0.895 -1.5 -2 0 -1.105 0.672 -2 1.5 -2 0.828 0 1.5 0.895 1.5 2 z"
           transform="matrix(15.333333,0,0,11.5,414.99999,878.8622)"
           fill="#1890d0"
           id="path8804" />
      </g>
    </clipPath>
    <linearGradient
       id="linearGradient3764"
       x1="1"
       x2="47"
       gradientUnits="userSpaceOnUse"
       gradientTransform="matrix(0,-1,1,0,-1.5e-6,47.999998)">
      <stop
         stop-color="#e4e4e4"
         stop-opacity="1"
         id="stop5355" />
      <stop
         offset="1"
         stop-color="#eee"
         stop-opacity="1"
         id="stop5357" />
    </linearGradient>
    <clipPath
       id="clipPath-049320422">
      <g
         transform="translate(0,-1004.3622)"
         id="g5360">
        <path
           d="m -24 13 c 0 1.105 -0.672 2 -1.5 2 -0.828 0 -1.5 -0.895 -1.5 -2 0 -1.105 0.672 -2 1.5 -2 0.828 0 1.5 0.895 1.5 2 z"
           transform="matrix(15.333333,0,0,11.5,414.99999,878.8622)"
           fill="#1890d0"
           id="path5362" />
      </g>
    </clipPath>
    <clipPath
       id="clipPath-054510414">
      <g
         transform="translate(0,-1004.3622)"
         id="g5365">
        <path
           d="m -24 13 c 0 1.105 -0.672 2 -1.5 2 -0.828 0 -1.5 -0.895 -1.5 -2 0 -1.105 0.672 -2 1.5 -2 0.828 0 1.5 0.895 1.5 2 z"
           transform="matrix(15.333333,0,0,11.5,414.99999,878.8622)"
           fill="#1890d0"
           id="path5367" />
      </g>
    </clipPath>
  </defs>
  <sodipodi:namedview
     id="base"
     pagecolor="#ffffff"
     bordercolor="#666666"
     borderopacity="1.0"
     inkscape:pageopacity="0.0"
     inkscape:pageshadow="2"
     inkscape:zoom="11.48"
     inkscape:cx="36.157299"
     inkscape:cy="21.449267"
     inkscape:document-units="px"
     inkscape:current-layer="layer1"
     showgrid="false"
     inkscape:window-width="1316"
     inkscape:window-height="669"
     inkscape:window-x="44"
     inkscape:window-y="29"
     inkscape:window-maximized="1"
     showguides="false"
     inkscape:guide-bbox="true">
    <sodipodi:guide
       position="4.5,19.500017"
       orientation="15,0"
       id="guide3264" />
    <sodipodi:guide
       position="4.5,4.5000174"
       orientation="0,15"
       id="guide3266" />
    <sodipodi:guide
       position="19.5,4.5000174"
       orientation="-15,0"
       id="guide3268" />
    <sodipodi:guide
       position="19.5,19.500017"
       orientation="0,-15"
       id="guide3270" />
  </sodipodi:namedview>
  <metadata
     id="metadata7">
    <rdf:RDF>
      <cc:Work
         rdf:about="">
        <dc:format>image/svg+xml</dc:format>
        <dc:type
           rdf:resource="http://purl.org/dc/dcmitype/StillImage" />
        <dc:title></dc:title>
      </cc:Work>
    </rdf:RDF>
  </metadata>
  <g
     inkscape:label="Capa 1"
     inkscape:groupmode="layer"
     id="layer1"
     transform="translate(0,-1028.3622)">
    <rect
       style="fill:#000000;fill-opacity:1;stroke:none"
       id="rect3002"
       width="20.731707"
       height="21.080139"
       x="1.3066202"
       y="1.1777004"
       transform="translate(0,1028.3622)"
       rx="4.985702"
       ry="4.985702" />
    <g
       id="g5381"
       transform="matrix(0.27701487,0,0,0.34790343,-6.4543516,1018.1941)" />
    <g
       id="g8818"
       transform="matrix(0.27701487,0,0,0.34790343,-5.778247,1018.3828)" />
    <g
       id="g24557"
       transform="matrix(0.27701487,0,0,0.34790343,-3.9753012,1018.8546)" />
    <g
       id="g31918"
       transform="matrix(0.27701487,0,0,0.34790343,-2.6982167,1019.9867)" />
    <g
       id="g54756"
       transform="matrix(0.27701487,0,0,0.34790343,-3.9753012,1018.3828)" />
    <g
       id="g62453"
       transform="matrix(0.27701487,0,0,0.34790343,-6.8299644,1018.0054)" />
    <g
       id="g62467"
       transform="matrix(0.49575206,0,0,0.49778729,-0.21849136,1027.8124)"
       style="fill:#ffffff">
      <g
         clip-path="url(#clipPath-267113374)"
         id="g62469"
         style="fill:#ffffff">
        <!-- color: #3469a7 -->
        <g
           id="g62471"
           style="fill:#ffffff">
          <path
             style="fill:#ffffff;fill-opacity:1;fill-rule:evenodd;stroke:none"
             inkscape:connector-curvature="0"
             d="m 28.492,23.875 c -0.148,-2.996 -2.285,-4.797 -4.859,-4.797 l -0.098,0 c -2.973,0 -4.625,2.438 -4.625,5.207 0,3.098 1.996,5.059 4.613,5.059 2.918,0 4.836,-2.23 4.973,-4.863 m -4.945,-8.09 c 1.984,0 3.855,0.918 5.227,2.352 l 0,0.004 c 0,-0.688 0.441,-1.207 1.059,-1.207 l 0.156,0 c 0.965,0 1.164,0.949 1.164,1.254 l 0.004,10.695 c -0.066,0.703 0.695,1.063 1.117,0.613 1.648,-1.766 3.621,-9.07 -1.023,-13.309 -4.332,-3.949 -10.141,-3.301 -13.227,-1.082 -3.285,2.363 -5.387,7.586 -3.344,12.496 2.223,5.352 8.59,6.945 12.375,5.355 1.918,-0.809 2.801,1.895 0.813,2.773 -3.01,1.336 -11.379,1.203 -15.289,-5.859 -2.641,-4.766 -2.5,-13.152 4.504,-17.496 5.363,-3.324 12.426,-2.406 16.688,2.234 4.457,4.848 4.195,13.93 -0.145,17.457 -1.973,1.602 -4.895,0.043 -4.875,-2.293 l -0.023,-0.766 c -1.371,1.418 -3.195,2.246 -5.18,2.246 -3.926,0 -7.383,-3.602 -7.383,-7.691 0,-4.133 3.457,-7.777 7.383,-7.777"
             id="path62473" />
        </g>
      </g>
    </g>
  </g>
</svg>
